<?xml version="1.0" standalone="no"?>
 <!DOCTYPE svg PUBLIC "-//W3C//DTD SVG 1.1//EN" 
 "http://www.w3.org/Graphics/SVG/1.1/DTD/svg11.dtd"> 
<svg xmlns="http://www.w3.org/2000/svg" version="1.1" 
    width="29.7002cm" height="21.0007cm" viewBox="0 0 116930 82680 ">
<title>SVG Picture created as M5Atom_CAN-B_Paste.svg date 2020/12/16 23:57:03 </title>
  <desc>Picture generated by PCBNEW </desc>
<g style="fill:#000000; fill-opacity:1;stroke:#000000; stroke-opacity:1;
stroke-linecap:round; stroke-linejoin:round; "
 transform="translate(0 0) scale(1 1)">
</g>
<g style="fill:#000000; fill-opacity:0.0; 
stroke:#000000; stroke-width:-0.000393701; stroke-opacity:1; 
stroke-linecap:round; stroke-linejoin:round;">
</g>
<g style="fill:#000000; fill-opacity:0.0; 
stroke:#000000; stroke-width:39.3701; stroke-opacity:1; 
stroke-linecap:round; stroke-linejoin:round;">
</g>
<g style="fill:#000000; fill-opacity:0.0; 
stroke:#000000; stroke-width:59.0551; stroke-opacity:1; 
stroke-linecap:round; stroke-linejoin:round;">
<rect x="69685.9" y="65357.2" width="42519.7" height="12598.4" rx="0" />
</g>
<g style="fill:#000000; fill-opacity:0.0; 
stroke:#000000; stroke-width:39.3701; stroke-opacity:1; 
stroke-linecap:round; stroke-linejoin:round;">
</g>
<g style="fill:#000000; fill-opacity:0.0; 
stroke:#000000; stroke-width:59.0551; stroke-opacity:1; 
stroke-linecap:round; stroke-linejoin:round;">
<rect x="3937.01" y="3937.01" width="109056" height="74806" rx="0" />
</g>
<g style="fill:#000000; fill-opacity:0.0; 
stroke:#000000; stroke-width:39.3701; stroke-opacity:1; 
stroke-linecap:round; stroke-linejoin:round;">
</g>
<g style="fill:#000000; fill-opacity:0.0; 
stroke:#000000; stroke-width:59.0551; stroke-opacity:1; 
stroke-linecap:round; stroke-linejoin:round;">
<rect x="4724.41" y="4724.41" width="107481" height="73231.2" rx="0" />
</g>
<g style="fill:#000000; fill-opacity:0.0; 
stroke:#000000; stroke-width:39.3701; stroke-opacity:1; 
stroke-linecap:round; stroke-linejoin:round;">
</g>
<g style="fill:#000000; fill-opacity:0.0; 
stroke:#000000; stroke-width:59.0551; stroke-opacity:1; 
stroke-linecap:round; stroke-linejoin:round;">
<path d="M23622 4724
L23622 3937
" />
</g>
<g style="fill:#000000; fill-opacity:0.0; 
stroke:#000000; stroke-width:39.3701; stroke-opacity:1; 
stroke-linecap:round; stroke-linejoin:round;">
</g>
<g style="fill:#000000; fill-opacity:0.0; 
stroke:#000000; stroke-width:59.0551; stroke-opacity:1; 
stroke-linecap:round; stroke-linejoin:round;">
<path d="M43307 4724
L43307 3937
" />
</g>
<g style="fill:#000000; fill-opacity:0.0; 
stroke:#000000; stroke-width:39.3701; stroke-opacity:1; 
stroke-linecap:round; stroke-linejoin:round;">
</g>
<g style="fill:#000000; fill-opacity:0.0; 
stroke:#000000; stroke-width:59.0551; stroke-opacity:1; 
stroke-linecap:round; stroke-linejoin:round;">
<path d="M62992 4724
L62992 3937
" />
</g>
<g style="fill:#000000; fill-opacity:0.0; 
stroke:#000000; stroke-width:39.3701; stroke-opacity:1; 
stroke-linecap:round; stroke-linejoin:round;">
</g>
<g style="fill:#000000; fill-opacity:0.0; 
stroke:#000000; stroke-width:59.0551; stroke-opacity:1; 
stroke-linecap:round; stroke-linejoin:round;">
<path d="M82677 4724
L82677 3937
" />
</g>
<g style="fill:#000000; fill-opacity:0.0; 
stroke:#000000; stroke-width:39.3701; stroke-opacity:1; 
stroke-linecap:round; stroke-linejoin:round;">
</g>
<g style="fill:#000000; fill-opacity:0.0; 
stroke:#000000; stroke-width:59.0551; stroke-opacity:1; 
stroke-linecap:round; stroke-linejoin:round;">
<path d="M102362 4724
L102362 3937
" />
</g>
<g style="fill:#000000; fill-opacity:0.0; 
stroke:#000000; stroke-width:39.3701; stroke-opacity:1; 
stroke-linecap:round; stroke-linejoin:round;">
</g>
<g style="fill:#000000; fill-opacity:0.0; 
stroke:#000000; stroke-width:59.0551; stroke-opacity:1; 
stroke-linecap:round; stroke-linejoin:round;">
<path d="M14199 4562
L13906 4562
" />
<path d="M14052 4562
L14052 4050
L14004 4123
L13955 4172
L13906 4196
" />
</g>
<g style="fill:#000000; fill-opacity:0.0; 
stroke:#000000; stroke-width:39.3701; stroke-opacity:1; 
stroke-linecap:round; stroke-linejoin:round;">
</g>
<g style="fill:#000000; fill-opacity:0.0; 
stroke:#000000; stroke-width:59.0551; stroke-opacity:1; 
stroke-linecap:round; stroke-linejoin:round;">
<path d="M33591 4099
L33615 4074
L33664 4050
L33786 4050
L33835 4074
L33859 4099
L33884 4147
L33884 4196
L33859 4269
L33567 4562
L33884 4562
" />
</g>
<g style="fill:#000000; fill-opacity:0.0; 
stroke:#000000; stroke-width:39.3701; stroke-opacity:1; 
stroke-linecap:round; stroke-linejoin:round;">
</g>
<g style="fill:#000000; fill-opacity:0.0; 
stroke:#000000; stroke-width:59.0551; stroke-opacity:1; 
stroke-linecap:round; stroke-linejoin:round;">
<path d="M53252 4050
L53569 4050
L53398 4245
L53471 4245
L53520 4269
L53544 4294
L53569 4342
L53569 4464
L53544 4513
L53520 4537
L53471 4562
L53325 4562
L53276 4537
L53252 4513
" />
</g>
<g style="fill:#000000; fill-opacity:0.0; 
stroke:#000000; stroke-width:39.3701; stroke-opacity:1; 
stroke-linecap:round; stroke-linejoin:round;">
</g>
<g style="fill:#000000; fill-opacity:0.0; 
stroke:#000000; stroke-width:59.0551; stroke-opacity:1; 
stroke-linecap:round; stroke-linejoin:round;">
<path d="M73205 4221
L73205 4562
" />
<path d="M73083 4026
L72961 4391
L73278 4391
" />
</g>
<g style="fill:#000000; fill-opacity:0.0; 
stroke:#000000; stroke-width:39.3701; stroke-opacity:1; 
stroke-linecap:round; stroke-linejoin:round;">
</g>
<g style="fill:#000000; fill-opacity:0.0; 
stroke:#000000; stroke-width:59.0551; stroke-opacity:1; 
stroke-linecap:round; stroke-linejoin:round;">
<path d="M92914 4050
L92671 4050
L92646 4294
L92671 4269
L92719 4245
L92841 4245
L92890 4269
L92914 4294
L92939 4342
L92939 4464
L92914 4513
L92890 4537
L92841 4562
L92719 4562
L92671 4537
L92646 4513
" />
</g>
<g style="fill:#000000; fill-opacity:0.0; 
stroke:#000000; stroke-width:39.3701; stroke-opacity:1; 
stroke-linecap:round; stroke-linejoin:round;">
</g>
<g style="fill:#000000; fill-opacity:0.0; 
stroke:#000000; stroke-width:59.0551; stroke-opacity:1; 
stroke-linecap:round; stroke-linejoin:round;">
<path d="M112575 4050
L112477 4050
L112429 4074
L112404 4099
L112356 4172
L112331 4269
L112331 4464
L112356 4513
L112380 4537
L112429 4562
L112526 4562
L112575 4537
L112599 4513
L112624 4464
L112624 4342
L112599 4294
L112575 4269
L112526 4245
L112429 4245
L112380 4269
L112356 4294
L112331 4342
" />
</g>
<g style="fill:#000000; fill-opacity:0.0; 
stroke:#000000; stroke-width:39.3701; stroke-opacity:1; 
stroke-linecap:round; stroke-linejoin:round;">
</g>
<g style="fill:#000000; fill-opacity:0.0; 
stroke:#000000; stroke-width:59.0551; stroke-opacity:1; 
stroke-linecap:round; stroke-linejoin:round;">
<path d="M23622 77955
L23622 78742
" />
</g>
<g style="fill:#000000; fill-opacity:0.0; 
stroke:#000000; stroke-width:39.3701; stroke-opacity:1; 
stroke-linecap:round; stroke-linejoin:round;">
</g>
<g style="fill:#000000; fill-opacity:0.0; 
stroke:#000000; stroke-width:59.0551; stroke-opacity:1; 
stroke-linecap:round; stroke-linejoin:round;">
<path d="M43307 77955
L43307 78742
" />
</g>
<g style="fill:#000000; fill-opacity:0.0; 
stroke:#000000; stroke-width:39.3701; stroke-opacity:1; 
stroke-linecap:round; stroke-linejoin:round;">
</g>
<g style="fill:#000000; fill-opacity:0.0; 
stroke:#000000; stroke-width:59.0551; stroke-opacity:1; 
stroke-linecap:round; stroke-linejoin:round;">
<path d="M62992 77955
L62992 78742
" />
</g>
<g style="fill:#000000; fill-opacity:0.0; 
stroke:#000000; stroke-width:39.3701; stroke-opacity:1; 
stroke-linecap:round; stroke-linejoin:round;">
</g>
<g style="fill:#000000; fill-opacity:0.0; 
stroke:#000000; stroke-width:59.0551; stroke-opacity:1; 
stroke-linecap:round; stroke-linejoin:round;">
<path d="M82677 77955
L82677 78742
" />
</g>
<g style="fill:#000000; fill-opacity:0.0; 
stroke:#000000; stroke-width:39.3701; stroke-opacity:1; 
stroke-linecap:round; stroke-linejoin:round;">
</g>
<g style="fill:#000000; fill-opacity:0.0; 
stroke:#000000; stroke-width:59.0551; stroke-opacity:1; 
stroke-linecap:round; stroke-linejoin:round;">
<path d="M102362 77955
L102362 78742
" />
</g>
<g style="fill:#000000; fill-opacity:0.0; 
stroke:#000000; stroke-width:39.3701; stroke-opacity:1; 
stroke-linecap:round; stroke-linejoin:round;">
</g>
<g style="fill:#000000; fill-opacity:0.0; 
stroke:#000000; stroke-width:59.0551; stroke-opacity:1; 
stroke-linecap:round; stroke-linejoin:round;">
<path d="M14199 78580
L13906 78580
" />
<path d="M14052 78580
L14052 78069
L14004 78142
L13955 78190
L13906 78215
" />
</g>
<g style="fill:#000000; fill-opacity:0.0; 
stroke:#000000; stroke-width:39.3701; stroke-opacity:1; 
stroke-linecap:round; stroke-linejoin:round;">
</g>
<g style="fill:#000000; fill-opacity:0.0; 
stroke:#000000; stroke-width:59.0551; stroke-opacity:1; 
stroke-linecap:round; stroke-linejoin:round;">
<path d="M33591 78117
L33615 78093
L33664 78069
L33786 78069
L33835 78093
L33859 78117
L33884 78166
L33884 78215
L33859 78288
L33567 78580
L33884 78580
" />
</g>
<g style="fill:#000000; fill-opacity:0.0; 
stroke:#000000; stroke-width:39.3701; stroke-opacity:1; 
stroke-linecap:round; stroke-linejoin:round;">
</g>
<g style="fill:#000000; fill-opacity:0.0; 
stroke:#000000; stroke-width:59.0551; stroke-opacity:1; 
stroke-linecap:round; stroke-linejoin:round;">
<path d="M53252 78069
L53569 78069
L53398 78263
L53471 78263
L53520 78288
L53544 78312
L53569 78361
L53569 78483
L53544 78532
L53520 78556
L53471 78580
L53325 78580
L53276 78556
L53252 78532
" />
</g>
<g style="fill:#000000; fill-opacity:0.0; 
stroke:#000000; stroke-width:39.3701; stroke-opacity:1; 
stroke-linecap:round; stroke-linejoin:round;">
</g>
<g style="fill:#000000; fill-opacity:0.0; 
stroke:#000000; stroke-width:59.0551; stroke-opacity:1; 
stroke-linecap:round; stroke-linejoin:round;">
<path d="M73205 78239
L73205 78580
" />
<path d="M73083 78044
L72961 78410
L73278 78410
" />
</g>
<g style="fill:#000000; fill-opacity:0.0; 
stroke:#000000; stroke-width:39.3701; stroke-opacity:1; 
stroke-linecap:round; stroke-linejoin:round;">
</g>
<g style="fill:#000000; fill-opacity:0.0; 
stroke:#000000; stroke-width:59.0551; stroke-opacity:1; 
stroke-linecap:round; stroke-linejoin:round;">
<path d="M92914 78069
L92671 78069
L92646 78312
L92671 78288
L92719 78263
L92841 78263
L92890 78288
L92914 78312
L92939 78361
L92939 78483
L92914 78532
L92890 78556
L92841 78580
L92719 78580
L92671 78556
L92646 78532
" />
</g>
<g style="fill:#000000; fill-opacity:0.0; 
stroke:#000000; stroke-width:39.3701; stroke-opacity:1; 
stroke-linecap:round; stroke-linejoin:round;">
</g>
<g style="fill:#000000; fill-opacity:0.0; 
stroke:#000000; stroke-width:59.0551; stroke-opacity:1; 
stroke-linecap:round; stroke-linejoin:round;">
<path d="M112575 78069
L112477 78069
L112429 78093
L112404 78117
L112356 78190
L112331 78288
L112331 78483
L112356 78532
L112380 78556
L112429 78580
L112526 78580
L112575 78556
L112599 78532
L112624 78483
L112624 78361
L112599 78312
L112575 78288
L112526 78263
L112429 78263
L112380 78288
L112356 78312
L112331 78361
" />
</g>
<g style="fill:#000000; fill-opacity:0.0; 
stroke:#000000; stroke-width:39.3701; stroke-opacity:1; 
stroke-linecap:round; stroke-linejoin:round;">
</g>
<g style="fill:#000000; fill-opacity:0.0; 
stroke:#000000; stroke-width:59.0551; stroke-opacity:1; 
stroke-linecap:round; stroke-linejoin:round;">
<path d="M3937 23622
L4724 23622
" />
</g>
<g style="fill:#000000; fill-opacity:0.0; 
stroke:#000000; stroke-width:39.3701; stroke-opacity:1; 
stroke-linecap:round; stroke-linejoin:round;">
</g>
<g style="fill:#000000; fill-opacity:0.0; 
stroke:#000000; stroke-width:59.0551; stroke-opacity:1; 
stroke-linecap:round; stroke-linejoin:round;">
<path d="M3937 43307
L4724 43307
" />
</g>
<g style="fill:#000000; fill-opacity:0.0; 
stroke:#000000; stroke-width:39.3701; stroke-opacity:1; 
stroke-linecap:round; stroke-linejoin:round;">
</g>
<g style="fill:#000000; fill-opacity:0.0; 
stroke:#000000; stroke-width:59.0551; stroke-opacity:1; 
stroke-linecap:round; stroke-linejoin:round;">
<path d="M3937 62992
L4724 62992
" />
</g>
<g style="fill:#000000; fill-opacity:0.0; 
stroke:#000000; stroke-width:39.3701; stroke-opacity:1; 
stroke-linecap:round; stroke-linejoin:round;">
</g>
<g style="fill:#000000; fill-opacity:0.0; 
stroke:#000000; stroke-width:59.0551; stroke-opacity:1; 
stroke-linecap:round; stroke-linejoin:round;">
<path d="M4208 13864
L4452 13864
" />
<path d="M4160 14011
L4330 13499
L4501 14011
" />
</g>
<g style="fill:#000000; fill-opacity:0.0; 
stroke:#000000; stroke-width:39.3701; stroke-opacity:1; 
stroke-linecap:round; stroke-linejoin:round;">
</g>
<g style="fill:#000000; fill-opacity:0.0; 
stroke:#000000; stroke-width:59.0551; stroke-opacity:1; 
stroke-linecap:round; stroke-linejoin:round;">
<path d="M4367 33428
L4440 33452
L4464 33476
L4489 33525
L4489 33598
L4464 33647
L4440 33671
L4391 33696
L4196 33696
L4196 33184
L4367 33184
L4416 33208
L4440 33233
L4464 33281
L4464 33330
L4440 33379
L4416 33403
L4367 33428
L4196 33428
" />
</g>
<g style="fill:#000000; fill-opacity:0.0; 
stroke:#000000; stroke-width:39.3701; stroke-opacity:1; 
stroke-linecap:round; stroke-linejoin:round;">
</g>
<g style="fill:#000000; fill-opacity:0.0; 
stroke:#000000; stroke-width:59.0551; stroke-opacity:1; 
stroke-linecap:round; stroke-linejoin:round;">
<path d="M4489 53332
L4464 53356
L4391 53381
L4342 53381
L4269 53356
L4221 53308
L4196 53259
L4172 53161
L4172 53088
L4196 52991
L4221 52942
L4269 52893
L4342 52869
L4391 52869
L4464 52893
L4489 52918
" />
</g>
<g style="fill:#000000; fill-opacity:0.0; 
stroke:#000000; stroke-width:39.3701; stroke-opacity:1; 
stroke-linecap:round; stroke-linejoin:round;">
</g>
<g style="fill:#000000; fill-opacity:0.0; 
stroke:#000000; stroke-width:59.0551; stroke-opacity:1; 
stroke-linecap:round; stroke-linejoin:round;">
<path d="M4196 73066
L4196 72554
L4318 72554
L4391 72578
L4440 72627
L4464 72676
L4489 72773
L4489 72846
L4464 72944
L4440 72993
L4391 73041
L4318 73066
L4196 73066
" />
</g>
<g style="fill:#000000; fill-opacity:0.0; 
stroke:#000000; stroke-width:39.3701; stroke-opacity:1; 
stroke-linecap:round; stroke-linejoin:round;">
</g>
<g style="fill:#000000; fill-opacity:0.0; 
stroke:#000000; stroke-width:59.0551; stroke-opacity:1; 
stroke-linecap:round; stroke-linejoin:round;">
<path d="M112992 23622
L112205 23622
" />
</g>
<g style="fill:#000000; fill-opacity:0.0; 
stroke:#000000; stroke-width:39.3701; stroke-opacity:1; 
stroke-linecap:round; stroke-linejoin:round;">
</g>
<g style="fill:#000000; fill-opacity:0.0; 
stroke:#000000; stroke-width:59.0551; stroke-opacity:1; 
stroke-linecap:round; stroke-linejoin:round;">
<path d="M112992 43307
L112205 43307
" />
</g>
<g style="fill:#000000; fill-opacity:0.0; 
stroke:#000000; stroke-width:39.3701; stroke-opacity:1; 
stroke-linecap:round; stroke-linejoin:round;">
</g>
<g style="fill:#000000; fill-opacity:0.0; 
stroke:#000000; stroke-width:59.0551; stroke-opacity:1; 
stroke-linecap:round; stroke-linejoin:round;">
<path d="M112992 62992
L112205 62992
" />
</g>
<g style="fill:#000000; fill-opacity:0.0; 
stroke:#000000; stroke-width:39.3701; stroke-opacity:1; 
stroke-linecap:round; stroke-linejoin:round;">
</g>
<g style="fill:#000000; fill-opacity:0.0; 
stroke:#000000; stroke-width:59.0551; stroke-opacity:1; 
stroke-linecap:round; stroke-linejoin:round;">
<path d="M112477 13864
L112721 13864
" />
<path d="M112428 14011
L112599 13499
L112769 14011
" />
</g>
<g style="fill:#000000; fill-opacity:0.0; 
stroke:#000000; stroke-width:39.3701; stroke-opacity:1; 
stroke-linecap:round; stroke-linejoin:round;">
</g>
<g style="fill:#000000; fill-opacity:0.0; 
stroke:#000000; stroke-width:59.0551; stroke-opacity:1; 
stroke-linecap:round; stroke-linejoin:round;">
<path d="M112635 33428
L112708 33452
L112733 33476
L112757 33525
L112757 33598
L112733 33647
L112708 33671
L112660 33696
L112465 33696
L112465 33184
L112635 33184
L112684 33208
L112708 33233
L112733 33281
L112733 33330
L112708 33379
L112684 33403
L112635 33428
L112465 33428
" />
</g>
<g style="fill:#000000; fill-opacity:0.0; 
stroke:#000000; stroke-width:39.3701; stroke-opacity:1; 
stroke-linecap:round; stroke-linejoin:round;">
</g>
<g style="fill:#000000; fill-opacity:0.0; 
stroke:#000000; stroke-width:59.0551; stroke-opacity:1; 
stroke-linecap:round; stroke-linejoin:round;">
<path d="M112757 53332
L112733 53356
L112660 53381
L112611 53381
L112538 53356
L112489 53308
L112465 53259
L112440 53161
L112440 53088
L112465 52991
L112489 52942
L112538 52893
L112611 52869
L112660 52869
L112733 52893
L112757 52918
" />
</g>
<g style="fill:#000000; fill-opacity:0.0; 
stroke:#000000; stroke-width:39.3701; stroke-opacity:1; 
stroke-linecap:round; stroke-linejoin:round;">
</g>
<g style="fill:#000000; fill-opacity:0.0; 
stroke:#000000; stroke-width:59.0551; stroke-opacity:1; 
stroke-linecap:round; stroke-linejoin:round;">
<path d="M112465 73066
L112465 72554
L112587 72554
L112660 72578
L112708 72627
L112733 72676
L112757 72773
L112757 72846
L112733 72944
L112708 72993
L112660 73041
L112587 73066
L112465 73066
" />
</g>
<g style="fill:#000000; fill-opacity:0.0; 
stroke:#000000; stroke-width:39.3701; stroke-opacity:1; 
stroke-linecap:round; stroke-linejoin:round;">
</g>
<g style="fill:#000000; fill-opacity:0.0; 
stroke:#000000; stroke-width:59.0551; stroke-opacity:1; 
stroke-linecap:round; stroke-linejoin:round;">
<path d="M78911 76293
L78911 75703
L79051 75703
L79136 75731
L79192 75787
L79220 75843
L79248 75956
L79248 76040
L79220 76153
L79192 76209
L79136 76265
L79051 76293
L78911 76293
" />
<path d="M79754 76293
L79754 75984
L79726 75928
L79670 75899
L79557 75899
L79501 75928
" />
<path d="M79754 76265
L79698 76293
L79557 76293
L79501 76265
L79473 76209
L79473 76153
L79501 76096
L79557 76068
L79698 76068
L79754 76040
" />
<path d="M79951 75899
L80176 75899
" />
<path d="M80036 75703
L80036 76209
L80064 76265
L80120 76293
L80176 76293
" />
<path d="M80598 76265
L80542 76293
L80429 76293
L80373 76265
L80345 76209
L80345 75984
L80373 75928
L80429 75899
L80542 75899
L80598 75928
L80626 75984
L80626 76040
L80345 76096
" />
<path d="M80879 76237
L80907 76265
L80879 76293
L80851 76265
L80879 76237
L80879 76293
" />
<path d="M80879 75928
L80907 75956
L80879 75984
L80851 75956
L80879 75928
L80879 75984
" />
</g>
<g style="fill:#000000; fill-opacity:0.0; 
stroke:#000000; stroke-width:39.3701; stroke-opacity:1; 
stroke-linecap:round; stroke-linejoin:round;">
</g>
<g style="fill:#000000; fill-opacity:0.0; 
stroke:#000000; stroke-width:59.0551; stroke-opacity:1; 
stroke-linecap:round; stroke-linejoin:round;">
<path d="M69685 76577
L112205 76577
" />
</g>
<g style="fill:#000000; fill-opacity:0.0; 
stroke:#000000; stroke-width:39.3701; stroke-opacity:1; 
stroke-linecap:round; stroke-linejoin:round;">
</g>
<g style="fill:#000000; fill-opacity:0.0; 
stroke:#000000; stroke-width:59.0551; stroke-opacity:1; 
stroke-linecap:round; stroke-linejoin:round;">
<path d="M70249 77395
L70249 76805
" />
<path d="M70587 77395
L70334 77058
" />
<path d="M70587 76805
L70249 77142
" />
<path d="M70840 77395
L70840 77002
" />
<path d="M70840 76805
L70812 76833
L70840 76861
L70868 76833
L70840 76805
L70840 76861
" />
<path d="M71458 77339
L71430 77367
L71346 77395
L71290 77395
L71205 77367
L71149 77311
L71121 77255
L71093 77142
L71093 77058
L71121 76946
L71149 76889
L71205 76833
L71290 76805
L71346 76805
L71430 76833
L71458 76861
" />
<path d="M71965 77395
L71965 77086
L71937 77030
L71880 77002
L71768 77002
L71712 77030
" />
<path d="M71965 77367
L71908 77395
L71768 77395
L71712 77367
L71683 77311
L71683 77255
L71712 77199
L71768 77171
L71908 77171
L71965 77142
" />
<path d="M72499 77395
L72499 76805
" />
<path d="M72499 77367
L72443 77395
L72330 77395
L72274 77367
L72246 77339
L72218 77283
L72218 77114
L72246 77058
L72274 77030
L72330 77002
L72443 77002
L72499 77030
" />
<path d="M73230 77086
L73427 77086
" />
<path d="M73511 77395
L73230 77395
L73230 76805
L73511 76805
" />
<path d="M73764 77339
L73793 77367
L73764 77395
L73736 77367
L73764 77339
L73764 77395
" />
<path d="M74046 77395
L74046 76805
L74186 76805
L74271 76833
L74327 76889
L74355 76946
L74383 77058
L74383 77142
L74355 77255
L74327 77311
L74271 77367
L74186 77395
L74046 77395
" />
<path d="M74636 77339
L74664 77367
L74636 77395
L74608 77367
L74636 77339
L74636 77395
" />
<path d="M74889 77227
L75171 77227
" />
<path d="M74833 77395
L75030 76805
L75227 77395
" />
<path d="M75424 77339
L75452 77367
L75424 77395
L75395 77367
L75424 77339
L75424 77395
" />
<path d="M76605 77395
L76605 76805
" />
<path d="M76661 77171
L76830 77395
" />
<path d="M76830 77002
L76605 77227
" />
<path d="M77083 77395
L77083 77002
" />
<path d="M77083 76805
L77055 76833
L77083 76861
L77111 76833
L77083 76805
L77083 76861
" />
<path d="M77617 77367
L77561 77395
L77448 77395
L77392 77367
L77364 77339
L77336 77283
L77336 77114
L77364 77058
L77392 77030
L77448 77002
L77561 77002
L77617 77030
" />
<path d="M78123 77395
L78123 77086
L78095 77030
L78039 77002
L77926 77002
L77870 77030
" />
<path d="M78123 77367
L78067 77395
L77926 77395
L77870 77367
L77842 77311
L77842 77255
L77870 77199
L77926 77171
L78067 77171
L78123 77142
" />
<path d="M78658 77395
L78658 76805
" />
<path d="M78658 77367
L78601 77395
L78489 77395
L78433 77367
L78404 77339
L78376 77283
L78376 77114
L78404 77058
L78433 77030
L78489 77002
L78601 77002
L78658 77030
" />
<path d="M79557 77620
L79529 77592
L79473 77508
L79445 77452
L79417 77367
L79389 77227
L79389 77114
L79417 76974
L79445 76889
L79473 76833
L79529 76749
L79557 76721
" />
<path d="M80064 76805
L79782 76805
L79754 77086
L79782 77058
L79839 77030
L79979 77030
L80036 77058
L80064 77086
L80092 77142
L80092 77283
L80064 77339
L80036 77367
L79979 77395
L79839 77395
L79782 77367
L79754 77339
" />
<path d="M80345 77339
L80373 77367
L80345 77395
L80317 77367
L80345 77339
L80345 77395
" />
<path d="M80935 77395
L80598 77395
" />
<path d="M80767 77395
L80767 76805
L80710 76889
L80654 76946
L80598 76974
" />
<path d="M81188 77339
L81217 77367
L81188 77395
L81160 77367
L81188 77339
L81188 77395
" />
<path d="M81442 76861
L81470 76833
L81526 76805
L81667 76805
L81723 76833
L81751 76861
L81779 76917
L81779 76974
L81751 77058
L81413 77395
L81779 77395
" />
<path d="M81976 77620
L82004 77592
L82060 77508
L82088 77452
L82117 77367
L82145 77227
L82145 77114
L82117 76974
L82088 76889
L82060 76833
L82004 76749
L81976 76721
" />
<path d="M82426 77171
L82876 77171
" />
<path d="M83466 77395
L83129 77395
" />
<path d="M83298 77395
L83298 76805
L83241 76889
L83185 76946
L83129 76974
" />
</g>
<g style="fill:#000000; fill-opacity:0.0; 
stroke:#000000; stroke-width:39.3701; stroke-opacity:1; 
stroke-linecap:round; stroke-linejoin:round;">
</g>
<g style="fill:#000000; fill-opacity:0.0; 
stroke:#000000; stroke-width:59.0551; stroke-opacity:1; 
stroke-linecap:round; stroke-linejoin:round;">
<path d="M69685 75396
L112205 75396
" />
</g>
<g style="fill:#000000; fill-opacity:0.0; 
stroke:#000000; stroke-width:39.3701; stroke-opacity:1; 
stroke-linecap:round; stroke-linejoin:round;">
</g>
<g style="fill:#000000; fill-opacity:0.0; 
stroke:#000000; stroke-width:118.11; stroke-opacity:1; 
stroke-linecap:round; stroke-linejoin:round;">
<path d="M104099 76293
L103902 76012
" />
<path d="M103761 76293
L103761 75703
L103986 75703
L104042 75731
L104070 75759
L104099 75815
L104099 75899
L104070 75956
L104042 75984
L103986 76012
L103761 76012
" />
<path d="M104577 76265
L104520 76293
L104408 76293
L104352 76265
L104323 76209
L104323 75984
L104352 75928
L104408 75899
L104520 75899
L104577 75928
L104605 75984
L104605 76040
L104323 76096
" />
<path d="M104802 75899
L104942 76293
L105083 75899
" />
<path d="M105308 76237
L105336 76265
L105308 76293
L105280 76265
L105308 76237
L105308 76293
" />
<path d="M105308 75928
L105336 75956
L105308 75984
L105280 75956
L105308 75928
L105308 75984
" />
</g>
<g style="fill:#000000; fill-opacity:0.0; 
stroke:#000000; stroke-width:39.3701; stroke-opacity:1; 
stroke-linecap:round; stroke-linejoin:round;">
</g>
<g style="fill:#000000; fill-opacity:0.0; 
stroke:#000000; stroke-width:59.0551; stroke-opacity:1; 
stroke-linecap:round; stroke-linejoin:round;">
<path d="M70221 76265
L70305 76293
L70446 76293
L70502 76265
L70530 76237
L70559 76181
L70559 76124
L70530 76068
L70502 76040
L70446 76012
L70334 75984
L70277 75956
L70249 75928
L70221 75871
L70221 75815
L70249 75759
L70277 75731
L70334 75703
L70474 75703
L70559 75731
" />
<path d="M70812 76293
L70812 75899
" />
<path d="M70812 75703
L70784 75731
L70812 75759
L70840 75731
L70812 75703
L70812 75759
" />
<path d="M71037 75899
L71346 75899
L71037 76293
L71346 76293
" />
<path d="M71796 76265
L71740 76293
L71627 76293
L71571 76265
L71543 76209
L71543 75984
L71571 75928
L71627 75899
L71740 75899
L71796 75928
L71824 75984
L71824 76040
L71543 76096
" />
<path d="M72077 76237
L72105 76265
L72077 76293
L72049 76265
L72077 76237
L72077 76293
" />
<path d="M72077 75928
L72105 75956
L72077 75984
L72049 75956
L72077 75928
L72077 75984
" />
<path d="M72780 76124
L73061 76124
" />
<path d="M72724 76293
L72921 75703
L73118 76293
" />
<path d="M73568 75899
L73568 76293
" />
<path d="M73427 75674
L73286 76096
L73652 76096
" />
</g>
<g style="fill:#000000; fill-opacity:0.0; 
stroke:#000000; stroke-width:39.3701; stroke-opacity:1; 
stroke-linecap:round; stroke-linejoin:round;">
</g>
<g style="fill:#000000; fill-opacity:0.0; 
stroke:#000000; stroke-width:59.0551; stroke-opacity:1; 
stroke-linecap:round; stroke-linejoin:round;">
<path d="M103714 77395
L103714 76805
" />
<path d="M104248 77395
L104248 76805
" />
<path d="M104248 77367
L104192 77395
L104079 77395
L104023 77367
L103995 77339
L103967 77283
L103967 77114
L103995 77058
L104023 77030
L104079 77002
L104192 77002
L104248 77030
" />
<path d="M104529 77339
L104557 77367
L104529 77395
L104501 77367
L104529 77339
L104529 77395
" />
<path d="M104529 77030
L104557 77058
L104529 77086
L104501 77058
L104529 77030
L104529 77086
" />
<path d="M105570 77395
L105232 77395
" />
<path d="M105401 77395
L105401 76805
L105345 76889
L105289 76946
L105232 76974
" />
<path d="M106245 76777
L105739 77536
" />
<path d="M106751 77395
L106413 77395
" />
<path d="M106582 77395
L106582 76805
L106526 76889
L106470 76946
L106413 76974
" />
</g>
<g style="fill:#000000; fill-opacity:0.0; 
stroke:#000000; stroke-width:39.3701; stroke-opacity:1; 
stroke-linecap:round; stroke-linejoin:round;">
</g>
<g style="fill:#000000; fill-opacity:0.0; 
stroke:#000000; stroke-width:59.0551; stroke-opacity:1; 
stroke-linecap:round; stroke-linejoin:round;">
<path d="M69685 73821
L112205 73821
" />
</g>
<g style="fill:#000000; fill-opacity:0.0; 
stroke:#000000; stroke-width:39.3701; stroke-opacity:1; 
stroke-linecap:round; stroke-linejoin:round;">
</g>
<g style="fill:#000000; fill-opacity:0.0; 
stroke:#000000; stroke-width:157.48; stroke-opacity:1; 
stroke-linecap:round; stroke-linejoin:round;">
<path d="M70360 74099
L70810 74099
" />
<path d="M70486 74886
L70585 74099
" />
<path d="M70974 74886
L71039 74361
" />
<path d="M71072 74099
L71030 74136
L71063 74174
L71105 74136
L71072 74099
L71063 74174
" />
<path d="M71302 74361
L71602 74361
" />
<path d="M71447 74099
L71363 74774
L71391 74849
L71461 74886
L71536 74886
" />
<path d="M71911 74886
L71841 74849
L71813 74774
L71897 74099
" />
<path d="M72516 74849
L72436 74886
L72286 74886
L72216 74849
L72187 74774
L72225 74474
L72272 74399
L72352 74361
L72501 74361
L72572 74399
L72600 74474
L72591 74549
L72206 74624
" />
<path d="M72895 74811
L72928 74849
L72886 74886
L72853 74849
L72895 74811
L72886 74886
" />
<path d="M72947 74399
L72980 74436
L72937 74474
L72905 74436
L72947 74399
L72937 74474
" />
</g>
<g style="fill:#000000; fill-opacity:0.0; 
stroke:#000000; stroke-width:39.3701; stroke-opacity:1; 
stroke-linecap:round; stroke-linejoin:round;">
</g>
<g style="fill:#000000; fill-opacity:0.0; 
stroke:#000000; stroke-width:59.0551; stroke-opacity:1; 
stroke-linecap:round; stroke-linejoin:round;">
<path d="M70446 73070
L70249 73070
" />
<path d="M70249 73380
L70249 72789
L70530 72789
" />
<path d="M70755 73380
L70755 72986
" />
<path d="M70755 72789
L70727 72817
L70755 72845
L70784 72817
L70755 72789
L70755 72845
" />
<path d="M71121 73380
L71065 73352
L71037 73295
L71037 72789
" />
<path d="M71571 73352
L71515 73380
L71402 73380
L71346 73352
L71318 73295
L71318 73070
L71346 73014
L71402 72986
L71515 72986
L71571 73014
L71599 73070
L71599 73127
L71318 73183
" />
<path d="M71852 73323
L71880 73352
L71852 73380
L71824 73352
L71852 73323
L71852 73380
" />
<path d="M71852 73014
L71880 73042
L71852 73070
L71824 73042
L71852 73014
L71852 73070
" />
<path d="M72583 73380
L72583 72789
L72780 73211
L72977 72789
L72977 73380
" />
<path d="M73539 72789
L73258 72789
L73230 73070
L73258 73042
L73314 73014
L73455 73014
L73511 73042
L73539 73070
L73568 73127
L73568 73267
L73539 73323
L73511 73352
L73455 73380
L73314 73380
L73258 73352
L73230 73323
" />
<path d="M73793 73211
L74074 73211
" />
<path d="M73736 73380
L73933 72789
L74130 73380
" />
<path d="M74242 72986
L74467 72986
" />
<path d="M74327 72789
L74327 73295
L74355 73352
L74411 73380
L74467 73380
" />
<path d="M74749 73380
L74692 73352
L74664 73323
L74636 73267
L74636 73099
L74664 73042
L74692 73014
L74749 72986
L74833 72986
L74889 73014
L74917 73042
L74946 73099
L74946 73267
L74917 73323
L74889 73352
L74833 73380
L74749 73380
" />
<path d="M75199 73380
L75199 72986
" />
<path d="M75199 73042
L75227 73014
L75283 72986
L75367 72986
L75424 73014
L75452 73070
L75452 73380
" />
<path d="M75452 73070
L75480 73014
L75536 72986
L75620 72986
L75677 73014
L75705 73070
L75705 73380
" />
<path d="M75845 73436
L76295 73436
" />
<path d="M76773 73323
L76745 73352
L76661 73380
L76605 73380
L76520 73352
L76464 73295
L76436 73239
L76408 73127
L76408 73042
L76436 72930
L76464 72874
L76520 72817
L76605 72789
L76661 72789
L76745 72817
L76773 72845
" />
<path d="M76998 73211
L77280 73211
" />
<path d="M76942 73380
L77139 72789
L77336 73380
" />
<path d="M77533 73380
L77533 72789
L77870 73380
L77870 72789
" />
<path d="M78151 73323
L78180 73352
L78151 73380
L78123 73352
L78151 73323
L78151 73380
" />
<path d="M78433 73380
L78433 72789
" />
<path d="M78489 73155
L78658 73380
" />
<path d="M78658 72986
L78433 73211
" />
<path d="M78911 73380
L78911 72986
" />
<path d="M78911 72789
L78883 72817
L78911 72845
L78939 72817
L78911 72789
L78911 72845
" />
<path d="M79445 73352
L79389 73380
L79276 73380
L79220 73352
L79192 73323
L79164 73267
L79164 73099
L79192 73042
L79220 73014
L79276 72986
L79389 72986
L79445 73014
" />
<path d="M79951 73380
L79951 73070
L79923 73014
L79867 72986
L79754 72986
L79698 73014
" />
<path d="M79951 73352
L79895 73380
L79754 73380
L79698 73352
L79670 73295
L79670 73239
L79698 73183
L79754 73155
L79895 73155
L79951 73127
" />
<path d="M80485 73380
L80485 72789
" />
<path d="M80485 73352
L80429 73380
L80317 73380
L80260 73352
L80232 73323
L80204 73267
L80204 73099
L80232 73042
L80260 73014
L80317 72986
L80429 72986
L80485 73014
" />
<path d="M80626 73436
L81076 73436
" />
<path d="M81217 72986
L81217 73577
" />
<path d="M81217 73014
L81273 72986
L81385 72986
L81442 73014
L81470 73042
L81498 73099
L81498 73267
L81470 73323
L81442 73352
L81385 73380
L81273 73380
L81217 73352
" />
<path d="M82004 73352
L81948 73380
L81835 73380
L81779 73352
L81751 73323
L81723 73267
L81723 73099
L81751 73042
L81779 73014
L81835 72986
L81948 72986
L82004 73014
" />
<path d="M82257 73380
L82257 72789
" />
<path d="M82257 73014
L82313 72986
L82426 72986
L82482 73014
L82510 73042
L82538 73099
L82538 73267
L82510 73323
L82482 73352
L82426 73380
L82313 73380
L82257 73352
" />
</g>
<g style="fill:#000000; fill-opacity:0.0; 
stroke:#000000; stroke-width:39.3701; stroke-opacity:1; 
stroke-linecap:round; stroke-linejoin:round;">
</g>
<g style="fill:#000000; fill-opacity:0.0; 
stroke:#000000; stroke-width:59.0551; stroke-opacity:1; 
stroke-linecap:round; stroke-linejoin:round;">
<path d="M69685 71459
L112205 71459
" />
</g>
<g style="fill:#000000; fill-opacity:0.0; 
stroke:#000000; stroke-width:39.3701; stroke-opacity:1; 
stroke-linecap:round; stroke-linejoin:round;">
</g>
<g style="fill:#000000; fill-opacity:0.0; 
stroke:#000000; stroke-width:59.0551; stroke-opacity:1; 
stroke-linecap:round; stroke-linejoin:round;">
<path d="M70221 72289
L70305 72317
L70446 72317
L70502 72289
L70530 72260
L70559 72204
L70559 72148
L70530 72092
L70502 72064
L70446 72036
L70334 72007
L70277 71979
L70249 71951
L70221 71895
L70221 71839
L70249 71782
L70277 71754
L70334 71726
L70474 71726
L70559 71754
" />
<path d="M70812 72317
L70812 71726
" />
<path d="M71065 72317
L71065 72007
L71037 71951
L70980 71923
L70896 71923
L70840 71951
L70812 71979
" />
<path d="M71571 72289
L71515 72317
L71402 72317
L71346 72289
L71318 72232
L71318 72007
L71346 71951
L71402 71923
L71515 71923
L71571 71951
L71599 72007
L71599 72064
L71318 72120
" />
<path d="M72077 72289
L72021 72317
L71908 72317
L71852 72289
L71824 72232
L71824 72007
L71852 71951
L71908 71923
L72021 71923
L72077 71951
L72105 72007
L72105 72064
L71824 72120
" />
<path d="M72274 71923
L72499 71923
" />
<path d="M72358 71726
L72358 72232
L72386 72289
L72443 72317
L72499 72317
" />
<path d="M72696 72260
L72724 72289
L72696 72317
L72668 72289
L72696 72260
L72696 72317
" />
<path d="M72696 71951
L72724 71979
L72696 72007
L72668 71979
L72696 71951
L72696 72007
" />
</g>
<g style="fill:#000000; fill-opacity:0.0; 
stroke:#000000; stroke-width:39.3701; stroke-opacity:1; 
stroke-linecap:round; stroke-linejoin:round;">
</g>
<g style="fill:#000000; fill-opacity:0.0; 
stroke:#000000; stroke-width:59.0551; stroke-opacity:1; 
stroke-linecap:round; stroke-linejoin:round;">
<path d="M77559 75396
L77559 76577
" />
</g>
<g style="fill:#000000; fill-opacity:0.0; 
stroke:#000000; stroke-width:39.3701; stroke-opacity:1; 
stroke-linecap:round; stroke-linejoin:round;">
</g>
<g style="fill:#000000; fill-opacity:0.0; 
stroke:#000000; stroke-width:59.0551; stroke-opacity:1; 
stroke-linecap:round; stroke-linejoin:round;">
<path d="M102756 75396
L102756 77955
" />
<g >
</g>
<g >
</g>
<g >
</g>
<g style="fill:#008400; fill-opacity:0.0; 
stroke:#008400; stroke-width:59.0551; stroke-opacity:1; 
stroke-linecap:round; stroke-linejoin:round;">
</g>
<g style="fill:#008400; fill-opacity:0.0; 
stroke:#008400; stroke-width:0; stroke-opacity:1; 
stroke-linecap:round; stroke-linejoin:round;">
</g>
<g style="fill:#008400; fill-opacity:1.0; 
stroke:#008400; stroke-width:0; stroke-opacity:1; 
stroke-linecap:round; stroke-linejoin:round;">
<path style="fill:#008400; fill-opacity:1.0; 
stroke:#008400; stroke-width:0; stroke-opacity:1; 
stroke-linecap:round; stroke-linejoin:round;fill-rule:evenodd;"
d="M 64077,49093
64086,49095
64095,49097
64104,49100
64112,49104
64120,49109
64127,49114
64134,49120
64140,49127
64146,49134
64150,49142
64154,49151
64157,49159
64160,49168
64161,49177
64162,49186
64162,49413
64161,49422
64160,49431
64157,49440
64154,49448
64150,49457
64146,49465
64140,49472
64134,49479
64127,49485
64120,49490
64112,49495
64104,49499
64095,49502
64086,49504
64077,49506
64068,49506
63881,49506
63872,49506
63863,49504
63854,49502
63845,49499
63837,49495
63829,49490
63822,49485
63815,49479
63809,49472
63803,49465
63799,49457
63795,49448
63792,49440
63789,49431
63788,49422
63787,49413
63787,49186
63788,49177
63789,49168
63792,49159
63795,49151
63799,49142
63803,49134
63809,49127
63815,49120
63822,49114
63829,49109
63837,49104
63845,49100
63854,49097
63863,49095
63872,49093
63881,49093
64068,49093
64077,49093
Z" /> 
<path style="fill:#008400; fill-opacity:1.0; 
stroke:#008400; stroke-width:0; stroke-opacity:1; 
stroke-linecap:round; stroke-linejoin:round;fill-rule:evenodd;"
d="M 64077,48404
64086,48406
64095,48408
64104,48411
64112,48415
64120,48420
64127,48425
64134,48431
64140,48438
64146,48445
64150,48453
64154,48462
64157,48470
64160,48479
64161,48488
64162,48497
64162,48724
64161,48733
64160,48742
64157,48751
64154,48759
64150,48768
64146,48776
64140,48783
64134,48790
64127,48796
64120,48801
64112,48806
64104,48810
64095,48813
64086,48815
64077,48817
64068,48817
63881,48817
63872,48817
63863,48815
63854,48813
63845,48810
63837,48806
63829,48801
63822,48796
63815,48790
63809,48783
63803,48776
63799,48768
63795,48759
63792,48751
63789,48742
63788,48733
63787,48724
63787,48497
63788,48488
63789,48479
63792,48470
63795,48462
63799,48453
63803,48445
63809,48438
63815,48431
63822,48425
63829,48420
63837,48415
63845,48411
63854,48408
63863,48406
63872,48404
63881,48404
64068,48404
64077,48404
Z" /> 
</g>
<g >
</g>
<g >
<path style="fill:#008400; fill-opacity:1.0; 
stroke:#008400; stroke-width:0; stroke-opacity:1; 
stroke-linecap:round; stroke-linejoin:round;fill-rule:evenodd;"
d="M 60379,49682
60385,49683
60391,49684
60396,49686
60401,49688
60406,49691
60411,49695
60415,49699
60419,49703
60423,49708
60426,49713
60428,49718
60430,49723
60431,49729
60432,49735
60433,49740
60433,49859
60432,49864
60431,49870
60430,49876
60428,49881
60426,49886
60423,49891
60419,49896
60415,49900
60411,49904
60406,49908
60401,49911
60396,49913
60391,49915
60385,49916
60379,49917
60374,49918
59724,49918
59718,49917
59712,49916
59707,49915
59701,49913
59696,49911
59691,49908
59686,49904
59682,49900
59678,49896
59675,49891
59672,49886
59669,49881
59667,49876
59666,49870
59665,49864
59665,49859
59665,49740
59665,49735
59666,49729
59667,49723
59669,49718
59672,49713
59675,49708
59678,49703
59682,49699
59686,49695
59691,49691
59696,49688
59701,49686
59707,49684
59712,49683
59718,49682
59724,49681
60374,49681
60379,49682
Z" /> 
<path style="fill:#008400; fill-opacity:1.0; 
stroke:#008400; stroke-width:0; stroke-opacity:1; 
stroke-linecap:round; stroke-linejoin:round;fill-rule:evenodd;"
d="M 60379,49182
60385,49183
60391,49184
60396,49186
60401,49188
60406,49191
60411,49195
60415,49199
60419,49203
60423,49208
60426,49213
60428,49218
60430,49223
60431,49229
60432,49235
60433,49240
60433,49359
60432,49364
60431,49370
60430,49376
60428,49381
60426,49386
60423,49391
60419,49396
60415,49400
60411,49404
60406,49408
60401,49411
60396,49413
60391,49415
60385,49416
60379,49417
60374,49418
59724,49418
59718,49417
59712,49416
59707,49415
59701,49413
59696,49411
59691,49408
59686,49404
59682,49400
59678,49396
59675,49391
59672,49386
59669,49381
59667,49376
59666,49370
59665,49364
59665,49359
59665,49240
59665,49235
59666,49229
59667,49223
59669,49218
59672,49213
59675,49208
59678,49203
59682,49199
59686,49195
59691,49191
59696,49188
59701,49186
59707,49184
59712,49183
59718,49182
59724,49181
60374,49181
60379,49182
Z" /> 
<path style="fill:#008400; fill-opacity:1.0; 
stroke:#008400; stroke-width:0; stroke-opacity:1; 
stroke-linecap:round; stroke-linejoin:round;fill-rule:evenodd;"
d="M 60379,48682
60385,48683
60391,48684
60396,48686
60401,48688
60406,48691
60411,48695
60415,48699
60419,48703
60423,48708
60426,48713
60428,48718
60430,48723
60431,48729
60432,48735
60433,48740
60433,48859
60432,48864
60431,48870
60430,48876
60428,48881
60426,48886
60423,48891
60419,48896
60415,48900
60411,48904
60406,48908
60401,48911
60396,48913
60391,48915
60385,48916
60379,48917
60374,48918
59724,48918
59718,48917
59712,48916
59707,48915
59701,48913
59696,48911
59691,48908
59686,48904
59682,48900
59678,48896
59675,48891
59672,48886
59669,48881
59667,48876
59666,48870
59665,48864
59665,48859
59665,48740
59665,48735
59666,48729
59667,48723
59669,48718
59672,48713
59675,48708
59678,48703
59682,48699
59686,48695
59691,48691
59696,48688
59701,48686
59707,48684
59712,48683
59718,48682
59724,48681
60374,48681
60379,48682
Z" /> 
<path style="fill:#008400; fill-opacity:1.0; 
stroke:#008400; stroke-width:0; stroke-opacity:1; 
stroke-linecap:round; stroke-linejoin:round;fill-rule:evenodd;"
d="M 60379,48182
60385,48183
60391,48184
60396,48186
60401,48188
60406,48191
60411,48195
60415,48199
60419,48203
60423,48208
60426,48213
60428,48218
60430,48223
60431,48229
60432,48235
60433,48240
60433,48359
60432,48364
60431,48370
60430,48376
60428,48381
60426,48386
60423,48391
60419,48396
60415,48400
60411,48404
60406,48408
60401,48411
60396,48413
60391,48415
60385,48416
60379,48417
60374,48418
59724,48418
59718,48417
59712,48416
59707,48415
59701,48413
59696,48411
59691,48408
59686,48404
59682,48400
59678,48396
59675,48391
59672,48386
59669,48381
59667,48376
59666,48370
59665,48364
59665,48359
59665,48240
59665,48235
59666,48229
59667,48223
59669,48218
59672,48213
59675,48208
59678,48203
59682,48199
59686,48195
59691,48191
59696,48188
59701,48186
59707,48184
59712,48183
59718,48182
59724,48181
60374,48181
60379,48182
Z" /> 
<path style="fill:#008400; fill-opacity:1.0; 
stroke:#008400; stroke-width:0; stroke-opacity:1; 
stroke-linecap:round; stroke-linejoin:round;fill-rule:evenodd;"
d="M 58430,48182
58436,48183
58442,48184
58447,48186
58453,48188
58458,48191
58462,48195
58466,48199
58470,48203
58474,48208
58477,48213
58479,48218
58481,48223
58483,48229
58483,48235
58484,48240
58484,48359
58483,48364
58483,48370
58481,48376
58479,48381
58477,48386
58474,48391
58470,48396
58466,48400
58462,48404
58458,48408
58453,48411
58447,48413
58442,48415
58436,48416
58430,48417
58425,48418
57775,48418
57769,48417
57764,48416
57758,48415
57752,48413
57747,48411
57742,48408
57738,48404
57733,48400
57729,48396
57726,48391
57723,48386
57721,48381
57719,48376
57717,48370
57716,48364
57716,48359
57716,48240
57716,48235
57717,48229
57719,48223
57721,48218
57723,48213
57726,48208
57729,48203
57733,48199
57738,48195
57742,48191
57747,48188
57752,48186
57758,48184
57764,48183
57769,48182
57775,48181
58425,48181
58430,48182
Z" /> 
<path style="fill:#008400; fill-opacity:1.0; 
stroke:#008400; stroke-width:0; stroke-opacity:1; 
stroke-linecap:round; stroke-linejoin:round;fill-rule:evenodd;"
d="M 58430,48682
58436,48683
58442,48684
58447,48686
58453,48688
58458,48691
58462,48695
58466,48699
58470,48703
58474,48708
58477,48713
58479,48718
58481,48723
58483,48729
58483,48735
58484,48740
58484,48859
58483,48864
58483,48870
58481,48876
58479,48881
58477,48886
58474,48891
58470,48896
58466,48900
58462,48904
58458,48908
58453,48911
58447,48913
58442,48915
58436,48916
58430,48917
58425,48918
57775,48918
57769,48917
57764,48916
57758,48915
57752,48913
57747,48911
57742,48908
57738,48904
57733,48900
57729,48896
57726,48891
57723,48886
57721,48881
57719,48876
57717,48870
57716,48864
57716,48859
57716,48740
57716,48735
57717,48729
57719,48723
57721,48718
57723,48713
57726,48708
57729,48703
57733,48699
57738,48695
57742,48691
57747,48688
57752,48686
57758,48684
57764,48683
57769,48682
57775,48681
58425,48681
58430,48682
Z" /> 
<path style="fill:#008400; fill-opacity:1.0; 
stroke:#008400; stroke-width:0; stroke-opacity:1; 
stroke-linecap:round; stroke-linejoin:round;fill-rule:evenodd;"
d="M 58430,49182
58436,49183
58442,49184
58447,49186
58453,49188
58458,49191
58462,49195
58466,49199
58470,49203
58474,49208
58477,49213
58479,49218
58481,49223
58483,49229
58483,49235
58484,49240
58484,49359
58483,49364
58483,49370
58481,49376
58479,49381
58477,49386
58474,49391
58470,49396
58466,49400
58462,49404
58458,49408
58453,49411
58447,49413
58442,49415
58436,49416
58430,49417
58425,49418
57775,49418
57769,49417
57764,49416
57758,49415
57752,49413
57747,49411
57742,49408
57738,49404
57733,49400
57729,49396
57726,49391
57723,49386
57721,49381
57719,49376
57717,49370
57716,49364
57716,49359
57716,49240
57716,49235
57717,49229
57719,49223
57721,49218
57723,49213
57726,49208
57729,49203
57733,49199
57738,49195
57742,49191
57747,49188
57752,49186
57758,49184
57764,49183
57769,49182
57775,49181
58425,49181
58430,49182
Z" /> 
<path style="fill:#008400; fill-opacity:1.0; 
stroke:#008400; stroke-width:0; stroke-opacity:1; 
stroke-linecap:round; stroke-linejoin:round;fill-rule:evenodd;"
d="M 58430,49682
58436,49683
58442,49684
58447,49686
58453,49688
58458,49691
58462,49695
58466,49699
58470,49703
58474,49708
58477,49713
58479,49718
58481,49723
58483,49729
58483,49735
58484,49740
58484,49859
58483,49864
58483,49870
58481,49876
58479,49881
58477,49886
58474,49891
58470,49896
58466,49900
58462,49904
58458,49908
58453,49911
58447,49913
58442,49915
58436,49916
58430,49917
58425,49918
57775,49918
57769,49917
57764,49916
57758,49915
57752,49913
57747,49911
57742,49908
57738,49904
57733,49900
57729,49896
57726,49891
57723,49886
57721,49881
57719,49876
57717,49870
57716,49864
57716,49859
57716,49740
57716,49735
57717,49729
57719,49723
57721,49718
57723,49713
57726,49708
57729,49703
57733,49699
57738,49695
57742,49691
57747,49688
57752,49686
57758,49684
57764,49683
57769,49682
57775,49681
58425,49681
58430,49682
Z" /> 
</g>
<g >
<path style="fill:#008400; fill-opacity:1.0; 
stroke:#008400; stroke-width:0; stroke-opacity:1; 
stroke-linecap:round; stroke-linejoin:round;fill-rule:evenodd;"
d="M 59977,46763
59986,46764
59995,46767
60004,46770
60012,46774
60020,46778
60028,46784
60034,46790
60040,46797
60046,46804
60051,46812
60055,46820
60058,46829
60060,46838
60061,46847
60062,46856
60062,47043
60061,47052
60060,47061
60058,47070
60055,47079
60051,47087
60046,47095
60040,47102
60034,47109
60028,47115
60020,47121
60012,47125
60004,47129
59995,47132
59986,47135
59977,47136
59968,47137
59742,47137
59733,47136
59724,47135
59715,47132
59706,47129
59698,47125
59690,47121
59683,47115
59676,47109
59670,47102
59664,47095
59659,47087
59655,47079
59652,47070
59650,47061
59649,47052
59648,47043
59648,46856
59649,46847
59650,46838
59652,46829
59655,46820
59659,46812
59664,46804
59670,46797
59676,46790
59683,46784
59690,46778
59698,46774
59706,46770
59715,46767
59724,46764
59733,46763
59742,46762
59968,46762
59977,46763
Z" /> 
<path style="fill:#008400; fill-opacity:1.0; 
stroke:#008400; stroke-width:0; stroke-opacity:1; 
stroke-linecap:round; stroke-linejoin:round;fill-rule:evenodd;"
d="M 60666,46763
60675,46764
60684,46767
60693,46770
60701,46774
60709,46778
60716,46784
60723,46790
60729,46797
60735,46804
60740,46812
60744,46820
60747,46829
60749,46838
60750,46847
60751,46856
60751,47043
60750,47052
60749,47061
60747,47070
60744,47079
60740,47087
60735,47095
60729,47102
60723,47109
60716,47115
60709,47121
60701,47125
60693,47129
60684,47132
60675,47135
60666,47136
60657,47137
60431,47137
60422,47136
60413,47135
60404,47132
60395,47129
60387,47125
60379,47121
60371,47115
60365,47109
60359,47102
60353,47095
60348,47087
60344,47079
60341,47070
60339,47061
60338,47052
60337,47043
60337,46856
60338,46847
60339,46838
60341,46829
60344,46820
60348,46812
60353,46804
60359,46797
60365,46790
60371,46784
60379,46778
60387,46774
60395,46770
60404,46767
60413,46764
60422,46763
60431,46762
60657,46762
60666,46763
Z" /> 
</g>
<g >
</g>
<g >
</g>
<g >
</g>
<g >
</g>
<g >
</g>
<g >
</g>
<g >
<path style="fill:#008400; fill-opacity:1.0; 
stroke:#008400; stroke-width:0; stroke-opacity:1; 
stroke-linecap:round; stroke-linejoin:round;fill-rule:evenodd;"
d="M 58361,46738
58370,46739
58379,46742
58387,46745
58396,46749
58404,46753
58411,46759
58418,46765
58424,46772
58429,46779
58434,46787
58438,46795
58441,46804
58443,46813
58445,46822
58445,46831
58445,47018
58445,47027
58443,47036
58441,47045
58438,47054
58434,47062
58429,47070
58424,47078
58418,47084
58411,47090
58404,47096
58396,47101
58387,47105
58379,47108
58370,47110
58361,47111
58352,47112
58125,47112
58116,47111
58107,47110
58098,47108
58090,47105
58081,47101
58073,47096
58066,47090
58059,47084
58053,47078
58048,47070
58043,47062
58039,47054
58036,47045
58034,47036
58032,47027
58032,47018
58032,46831
58032,46822
58034,46813
58036,46804
58039,46795
58043,46787
58048,46779
58053,46772
58059,46765
58066,46759
58073,46753
58081,46749
58090,46745
58098,46742
58107,46739
58116,46738
58125,46738
58352,46738
58361,46738
Z" /> 
<path style="fill:#008400; fill-opacity:1.0; 
stroke:#008400; stroke-width:0; stroke-opacity:1; 
stroke-linecap:round; stroke-linejoin:round;fill-rule:evenodd;"
d="M 57672,46738
57681,46739
57690,46742
57698,46745
57707,46749
57715,46753
57722,46759
57729,46765
57735,46772
57740,46779
57745,46787
57749,46795
57752,46804
57754,46813
57756,46822
57756,46831
57756,47018
57756,47027
57754,47036
57752,47045
57749,47054
57745,47062
57740,47070
57735,47078
57729,47084
57722,47090
57715,47096
57707,47101
57698,47105
57690,47108
57681,47110
57672,47111
57663,47112
57436,47112
57427,47111
57418,47110
57409,47108
57401,47105
57392,47101
57384,47096
57377,47090
57370,47084
57364,47078
57359,47070
57354,47062
57350,47054
57347,47045
57345,47036
57343,47027
57343,47018
57343,46831
57343,46822
57345,46813
57347,46804
57350,46795
57354,46787
57359,46779
57364,46772
57370,46765
57377,46759
57384,46753
57392,46749
57401,46745
57409,46742
57418,46739
57427,46738
57436,46738
57663,46738
57672,46738
Z" /> 
</g>
<g >
</g>
<g >
</g>
<g >
</g>
</g>
<g style="fill:#000000; fill-opacity:1.0; 
stroke:#000000; stroke-width:0; stroke-opacity:1; 
stroke-linecap:round; stroke-linejoin:round;">
</g>
<g style="fill:#C2C200; fill-opacity:1.0; 
stroke:#C2C200; stroke-width:0; stroke-opacity:1; 
stroke-linecap:round; stroke-linejoin:round;">
</g>
<g style="fill:#C2C200; fill-opacity:0.0; 
stroke:#C2C200; stroke-width:19.685; stroke-opacity:1; 
stroke-linecap:round; stroke-linejoin:round;">
<path d="M51600 54212.6 A787.401 787.401 0.0 0 0 52387.4 55000 " />
<path d="M66600 54212
L66600 43787
" />
<path d="M66600 43787.4 A787.401 787.401 0.0 0 0 65812.6 43000 " />
<path d="M65812 43000
L52387 43000
" />
<path d="M51600 43787
L51600 54212
" />
<path d="M65812.6 55000 A787.402 787.402 0.0 0 0 66600 54212.6 " />
<path d="M52387 54999
L65812 55000
" />
<path d="M52387.4 43000 A787.402 787.402 0.0 0 0 51600 43787.4 " />
<g >
</g>
<g >
</g>
<g >
</g>
<g >
</g>
<g >
</g>
<g >
</g>
<g >
</g>
<g >
</g>
<g >
</g>
<g >
</g>
<g >
</g>
<g >
</g>
<g >
</g>
<g >
</g>
</g> 
</svg>
