M48
; DRILL file {KiCad (5.1.2)-1} date 2020/12/31 0:30:46
; FORMAT={-:-/ absolute / inch / decimal}
; #@! TF.CreationDate,2020-12-31T00:30:46+09:00
; #@! TF.GenerationSoftware,Kicad,Pcbnew,(5.1.2)-1
; #@! TF.FileFunction,Plated,1,2,PTH
FMAT,2
INCH
T1C0.0157
T2C0.0315
T3C0.0394
T4C0.0866
%
G90
G05
T1
X5.6377Y-4.0299
X5.9926Y-3.9279
X6.7793Y-4.25
X6.8207Y-4.25
T2
X6.5225Y-4.2275
X6.5225Y-4.3075
X6.5225Y-4.3875
X6.5225Y-4.4675
X6.6225Y-4.2675
X6.6225Y-4.3475
X6.6225Y-4.4275
X6.6225Y-4.5075
X5.4163Y-3.4425
X5.495Y-3.4425
X5.5738Y-3.4425
X5.6525Y-3.4425
X5.7313Y-3.4425
X5.81Y-3.4425
X6.52Y-3.46
X6.52Y-3.54
X6.52Y-3.62
X6.52Y-3.7
X6.62Y-3.5
X6.62Y-3.58
X6.62Y-3.66
X6.62Y-3.74
T3
X5.5286Y-4.146
X5.5286Y-4.246
X5.5286Y-4.346
X5.5286Y-4.446
X6.1286Y-4.046
X6.1286Y-4.146
X6.1286Y-4.246
X6.1286Y-4.346
X6.1286Y-4.446
X6.23Y-3.4225
X6.23Y-3.5225
T4
X6.8504Y-4.7717
X6.8504Y-3.1969
X5.3937Y-4.7717
X5.3937Y-3.1969
T0
M30
