G04 #@! TF.GenerationSoftware,KiCad,Pcbnew,(5.1.2)-1*
G04 #@! TF.CreationDate,2020-12-31T00:30:43+09:00*
G04 #@! TF.ProjectId,M5Atom_CAN_RJ45,4d354174-6f6d-45f4-9341-4e5f524a3435,rev?*
G04 #@! TF.SameCoordinates,Original*
G04 #@! TF.FileFunction,Copper,L2,Bot*
G04 #@! TF.FilePolarity,Positive*
%FSLAX46Y46*%
G04 Gerber Fmt 4.6, Leading zero omitted, Abs format (unit mm)*
G04 Created by KiCad (PCBNEW (5.1.2)-1) date 2020-12-31 00:30:43*
%MOMM*%
%LPD*%
G04 APERTURE LIST*
%ADD10C,3.800000*%
%ADD11R,1.100000X2.000000*%
%ADD12R,1.100000X0.800000*%
%ADD13C,2.500000*%
%ADD14C,1.600000*%
%ADD15C,1.800000*%
%ADD16C,1.700000*%
%ADD17C,1.776200*%
%ADD18C,0.100000*%
%ADD19C,0.600000*%
%ADD20C,0.950000*%
%ADD21O,1.700000X1.700000*%
%ADD22R,1.700000X1.700000*%
%ADD23C,1.300000*%
%ADD24C,0.800000*%
%ADD25C,0.250000*%
%ADD26C,0.500000*%
%ADD27C,0.200000*%
%ADD28C,0.254000*%
G04 APERTURE END LIST*
D10*
X137000001Y-121200000D03*
X174000000Y-121200000D03*
X174000000Y-81200001D03*
X137000001Y-81200001D03*
D11*
X148285000Y-113066000D03*
D12*
X148285000Y-114966000D03*
D13*
X170511000Y-103534000D03*
X170511000Y-118334000D03*
D14*
X165671000Y-102809000D03*
X165671000Y-119059000D03*
D15*
X168211000Y-114490000D03*
X165671000Y-113474000D03*
X168211000Y-112458000D03*
X165671000Y-111442000D03*
X168211000Y-110426000D03*
X165671000Y-109410000D03*
X168211000Y-108394000D03*
X165671000Y-107378000D03*
D16*
X155667000Y-102768000D03*
X155667000Y-105308000D03*
X155667000Y-107848000D03*
X155667000Y-110388000D03*
X155667000Y-112928000D03*
X140427000Y-112928000D03*
X140427000Y-110388000D03*
X140427000Y-107848000D03*
D17*
X140427000Y-105308000D03*
D18*
G36*
X151396703Y-102824722D02*
G01*
X151411264Y-102826882D01*
X151425543Y-102830459D01*
X151439403Y-102835418D01*
X151452710Y-102841712D01*
X151465336Y-102849280D01*
X151477159Y-102858048D01*
X151488066Y-102867934D01*
X151497952Y-102878841D01*
X151506720Y-102890664D01*
X151514288Y-102903290D01*
X151520582Y-102916597D01*
X151525541Y-102930457D01*
X151529118Y-102944736D01*
X151531278Y-102959297D01*
X151532000Y-102974000D01*
X151532000Y-103274000D01*
X151531278Y-103288703D01*
X151529118Y-103303264D01*
X151525541Y-103317543D01*
X151520582Y-103331403D01*
X151514288Y-103344710D01*
X151506720Y-103357336D01*
X151497952Y-103369159D01*
X151488066Y-103380066D01*
X151477159Y-103389952D01*
X151465336Y-103398720D01*
X151452710Y-103406288D01*
X151439403Y-103412582D01*
X151425543Y-103417541D01*
X151411264Y-103421118D01*
X151396703Y-103423278D01*
X151382000Y-103424000D01*
X149732000Y-103424000D01*
X149717297Y-103423278D01*
X149702736Y-103421118D01*
X149688457Y-103417541D01*
X149674597Y-103412582D01*
X149661290Y-103406288D01*
X149648664Y-103398720D01*
X149636841Y-103389952D01*
X149625934Y-103380066D01*
X149616048Y-103369159D01*
X149607280Y-103357336D01*
X149599712Y-103344710D01*
X149593418Y-103331403D01*
X149588459Y-103317543D01*
X149584882Y-103303264D01*
X149582722Y-103288703D01*
X149582000Y-103274000D01*
X149582000Y-102974000D01*
X149582722Y-102959297D01*
X149584882Y-102944736D01*
X149588459Y-102930457D01*
X149593418Y-102916597D01*
X149599712Y-102903290D01*
X149607280Y-102890664D01*
X149616048Y-102878841D01*
X149625934Y-102867934D01*
X149636841Y-102858048D01*
X149648664Y-102849280D01*
X149661290Y-102841712D01*
X149674597Y-102835418D01*
X149688457Y-102830459D01*
X149702736Y-102826882D01*
X149717297Y-102824722D01*
X149732000Y-102824000D01*
X151382000Y-102824000D01*
X151396703Y-102824722D01*
X151396703Y-102824722D01*
G37*
D19*
X150557000Y-103124000D03*
D18*
G36*
X151396703Y-101554722D02*
G01*
X151411264Y-101556882D01*
X151425543Y-101560459D01*
X151439403Y-101565418D01*
X151452710Y-101571712D01*
X151465336Y-101579280D01*
X151477159Y-101588048D01*
X151488066Y-101597934D01*
X151497952Y-101608841D01*
X151506720Y-101620664D01*
X151514288Y-101633290D01*
X151520582Y-101646597D01*
X151525541Y-101660457D01*
X151529118Y-101674736D01*
X151531278Y-101689297D01*
X151532000Y-101704000D01*
X151532000Y-102004000D01*
X151531278Y-102018703D01*
X151529118Y-102033264D01*
X151525541Y-102047543D01*
X151520582Y-102061403D01*
X151514288Y-102074710D01*
X151506720Y-102087336D01*
X151497952Y-102099159D01*
X151488066Y-102110066D01*
X151477159Y-102119952D01*
X151465336Y-102128720D01*
X151452710Y-102136288D01*
X151439403Y-102142582D01*
X151425543Y-102147541D01*
X151411264Y-102151118D01*
X151396703Y-102153278D01*
X151382000Y-102154000D01*
X149732000Y-102154000D01*
X149717297Y-102153278D01*
X149702736Y-102151118D01*
X149688457Y-102147541D01*
X149674597Y-102142582D01*
X149661290Y-102136288D01*
X149648664Y-102128720D01*
X149636841Y-102119952D01*
X149625934Y-102110066D01*
X149616048Y-102099159D01*
X149607280Y-102087336D01*
X149599712Y-102074710D01*
X149593418Y-102061403D01*
X149588459Y-102047543D01*
X149584882Y-102033264D01*
X149582722Y-102018703D01*
X149582000Y-102004000D01*
X149582000Y-101704000D01*
X149582722Y-101689297D01*
X149584882Y-101674736D01*
X149588459Y-101660457D01*
X149593418Y-101646597D01*
X149599712Y-101633290D01*
X149607280Y-101620664D01*
X149616048Y-101608841D01*
X149625934Y-101597934D01*
X149636841Y-101588048D01*
X149648664Y-101579280D01*
X149661290Y-101571712D01*
X149674597Y-101565418D01*
X149688457Y-101560459D01*
X149702736Y-101556882D01*
X149717297Y-101554722D01*
X149732000Y-101554000D01*
X151382000Y-101554000D01*
X151396703Y-101554722D01*
X151396703Y-101554722D01*
G37*
D19*
X150557000Y-101854000D03*
D18*
G36*
X151396703Y-100284722D02*
G01*
X151411264Y-100286882D01*
X151425543Y-100290459D01*
X151439403Y-100295418D01*
X151452710Y-100301712D01*
X151465336Y-100309280D01*
X151477159Y-100318048D01*
X151488066Y-100327934D01*
X151497952Y-100338841D01*
X151506720Y-100350664D01*
X151514288Y-100363290D01*
X151520582Y-100376597D01*
X151525541Y-100390457D01*
X151529118Y-100404736D01*
X151531278Y-100419297D01*
X151532000Y-100434000D01*
X151532000Y-100734000D01*
X151531278Y-100748703D01*
X151529118Y-100763264D01*
X151525541Y-100777543D01*
X151520582Y-100791403D01*
X151514288Y-100804710D01*
X151506720Y-100817336D01*
X151497952Y-100829159D01*
X151488066Y-100840066D01*
X151477159Y-100849952D01*
X151465336Y-100858720D01*
X151452710Y-100866288D01*
X151439403Y-100872582D01*
X151425543Y-100877541D01*
X151411264Y-100881118D01*
X151396703Y-100883278D01*
X151382000Y-100884000D01*
X149732000Y-100884000D01*
X149717297Y-100883278D01*
X149702736Y-100881118D01*
X149688457Y-100877541D01*
X149674597Y-100872582D01*
X149661290Y-100866288D01*
X149648664Y-100858720D01*
X149636841Y-100849952D01*
X149625934Y-100840066D01*
X149616048Y-100829159D01*
X149607280Y-100817336D01*
X149599712Y-100804710D01*
X149593418Y-100791403D01*
X149588459Y-100777543D01*
X149584882Y-100763264D01*
X149582722Y-100748703D01*
X149582000Y-100734000D01*
X149582000Y-100434000D01*
X149582722Y-100419297D01*
X149584882Y-100404736D01*
X149588459Y-100390457D01*
X149593418Y-100376597D01*
X149599712Y-100363290D01*
X149607280Y-100350664D01*
X149616048Y-100338841D01*
X149625934Y-100327934D01*
X149636841Y-100318048D01*
X149648664Y-100309280D01*
X149661290Y-100301712D01*
X149674597Y-100295418D01*
X149688457Y-100290459D01*
X149702736Y-100286882D01*
X149717297Y-100284722D01*
X149732000Y-100284000D01*
X151382000Y-100284000D01*
X151396703Y-100284722D01*
X151396703Y-100284722D01*
G37*
D19*
X150557000Y-100584000D03*
D18*
G36*
X151396703Y-99014722D02*
G01*
X151411264Y-99016882D01*
X151425543Y-99020459D01*
X151439403Y-99025418D01*
X151452710Y-99031712D01*
X151465336Y-99039280D01*
X151477159Y-99048048D01*
X151488066Y-99057934D01*
X151497952Y-99068841D01*
X151506720Y-99080664D01*
X151514288Y-99093290D01*
X151520582Y-99106597D01*
X151525541Y-99120457D01*
X151529118Y-99134736D01*
X151531278Y-99149297D01*
X151532000Y-99164000D01*
X151532000Y-99464000D01*
X151531278Y-99478703D01*
X151529118Y-99493264D01*
X151525541Y-99507543D01*
X151520582Y-99521403D01*
X151514288Y-99534710D01*
X151506720Y-99547336D01*
X151497952Y-99559159D01*
X151488066Y-99570066D01*
X151477159Y-99579952D01*
X151465336Y-99588720D01*
X151452710Y-99596288D01*
X151439403Y-99602582D01*
X151425543Y-99607541D01*
X151411264Y-99611118D01*
X151396703Y-99613278D01*
X151382000Y-99614000D01*
X149732000Y-99614000D01*
X149717297Y-99613278D01*
X149702736Y-99611118D01*
X149688457Y-99607541D01*
X149674597Y-99602582D01*
X149661290Y-99596288D01*
X149648664Y-99588720D01*
X149636841Y-99579952D01*
X149625934Y-99570066D01*
X149616048Y-99559159D01*
X149607280Y-99547336D01*
X149599712Y-99534710D01*
X149593418Y-99521403D01*
X149588459Y-99507543D01*
X149584882Y-99493264D01*
X149582722Y-99478703D01*
X149582000Y-99464000D01*
X149582000Y-99164000D01*
X149582722Y-99149297D01*
X149584882Y-99134736D01*
X149588459Y-99120457D01*
X149593418Y-99106597D01*
X149599712Y-99093290D01*
X149607280Y-99080664D01*
X149616048Y-99068841D01*
X149625934Y-99057934D01*
X149636841Y-99048048D01*
X149648664Y-99039280D01*
X149661290Y-99031712D01*
X149674597Y-99025418D01*
X149688457Y-99020459D01*
X149702736Y-99016882D01*
X149717297Y-99014722D01*
X149732000Y-99014000D01*
X151382000Y-99014000D01*
X151396703Y-99014722D01*
X151396703Y-99014722D01*
G37*
D19*
X150557000Y-99314000D03*
D18*
G36*
X146446703Y-99014722D02*
G01*
X146461264Y-99016882D01*
X146475543Y-99020459D01*
X146489403Y-99025418D01*
X146502710Y-99031712D01*
X146515336Y-99039280D01*
X146527159Y-99048048D01*
X146538066Y-99057934D01*
X146547952Y-99068841D01*
X146556720Y-99080664D01*
X146564288Y-99093290D01*
X146570582Y-99106597D01*
X146575541Y-99120457D01*
X146579118Y-99134736D01*
X146581278Y-99149297D01*
X146582000Y-99164000D01*
X146582000Y-99464000D01*
X146581278Y-99478703D01*
X146579118Y-99493264D01*
X146575541Y-99507543D01*
X146570582Y-99521403D01*
X146564288Y-99534710D01*
X146556720Y-99547336D01*
X146547952Y-99559159D01*
X146538066Y-99570066D01*
X146527159Y-99579952D01*
X146515336Y-99588720D01*
X146502710Y-99596288D01*
X146489403Y-99602582D01*
X146475543Y-99607541D01*
X146461264Y-99611118D01*
X146446703Y-99613278D01*
X146432000Y-99614000D01*
X144782000Y-99614000D01*
X144767297Y-99613278D01*
X144752736Y-99611118D01*
X144738457Y-99607541D01*
X144724597Y-99602582D01*
X144711290Y-99596288D01*
X144698664Y-99588720D01*
X144686841Y-99579952D01*
X144675934Y-99570066D01*
X144666048Y-99559159D01*
X144657280Y-99547336D01*
X144649712Y-99534710D01*
X144643418Y-99521403D01*
X144638459Y-99507543D01*
X144634882Y-99493264D01*
X144632722Y-99478703D01*
X144632000Y-99464000D01*
X144632000Y-99164000D01*
X144632722Y-99149297D01*
X144634882Y-99134736D01*
X144638459Y-99120457D01*
X144643418Y-99106597D01*
X144649712Y-99093290D01*
X144657280Y-99080664D01*
X144666048Y-99068841D01*
X144675934Y-99057934D01*
X144686841Y-99048048D01*
X144698664Y-99039280D01*
X144711290Y-99031712D01*
X144724597Y-99025418D01*
X144738457Y-99020459D01*
X144752736Y-99016882D01*
X144767297Y-99014722D01*
X144782000Y-99014000D01*
X146432000Y-99014000D01*
X146446703Y-99014722D01*
X146446703Y-99014722D01*
G37*
D19*
X145607000Y-99314000D03*
D18*
G36*
X146446703Y-100284722D02*
G01*
X146461264Y-100286882D01*
X146475543Y-100290459D01*
X146489403Y-100295418D01*
X146502710Y-100301712D01*
X146515336Y-100309280D01*
X146527159Y-100318048D01*
X146538066Y-100327934D01*
X146547952Y-100338841D01*
X146556720Y-100350664D01*
X146564288Y-100363290D01*
X146570582Y-100376597D01*
X146575541Y-100390457D01*
X146579118Y-100404736D01*
X146581278Y-100419297D01*
X146582000Y-100434000D01*
X146582000Y-100734000D01*
X146581278Y-100748703D01*
X146579118Y-100763264D01*
X146575541Y-100777543D01*
X146570582Y-100791403D01*
X146564288Y-100804710D01*
X146556720Y-100817336D01*
X146547952Y-100829159D01*
X146538066Y-100840066D01*
X146527159Y-100849952D01*
X146515336Y-100858720D01*
X146502710Y-100866288D01*
X146489403Y-100872582D01*
X146475543Y-100877541D01*
X146461264Y-100881118D01*
X146446703Y-100883278D01*
X146432000Y-100884000D01*
X144782000Y-100884000D01*
X144767297Y-100883278D01*
X144752736Y-100881118D01*
X144738457Y-100877541D01*
X144724597Y-100872582D01*
X144711290Y-100866288D01*
X144698664Y-100858720D01*
X144686841Y-100849952D01*
X144675934Y-100840066D01*
X144666048Y-100829159D01*
X144657280Y-100817336D01*
X144649712Y-100804710D01*
X144643418Y-100791403D01*
X144638459Y-100777543D01*
X144634882Y-100763264D01*
X144632722Y-100748703D01*
X144632000Y-100734000D01*
X144632000Y-100434000D01*
X144632722Y-100419297D01*
X144634882Y-100404736D01*
X144638459Y-100390457D01*
X144643418Y-100376597D01*
X144649712Y-100363290D01*
X144657280Y-100350664D01*
X144666048Y-100338841D01*
X144675934Y-100327934D01*
X144686841Y-100318048D01*
X144698664Y-100309280D01*
X144711290Y-100301712D01*
X144724597Y-100295418D01*
X144738457Y-100290459D01*
X144752736Y-100286882D01*
X144767297Y-100284722D01*
X144782000Y-100284000D01*
X146432000Y-100284000D01*
X146446703Y-100284722D01*
X146446703Y-100284722D01*
G37*
D19*
X145607000Y-100584000D03*
D18*
G36*
X146446703Y-101554722D02*
G01*
X146461264Y-101556882D01*
X146475543Y-101560459D01*
X146489403Y-101565418D01*
X146502710Y-101571712D01*
X146515336Y-101579280D01*
X146527159Y-101588048D01*
X146538066Y-101597934D01*
X146547952Y-101608841D01*
X146556720Y-101620664D01*
X146564288Y-101633290D01*
X146570582Y-101646597D01*
X146575541Y-101660457D01*
X146579118Y-101674736D01*
X146581278Y-101689297D01*
X146582000Y-101704000D01*
X146582000Y-102004000D01*
X146581278Y-102018703D01*
X146579118Y-102033264D01*
X146575541Y-102047543D01*
X146570582Y-102061403D01*
X146564288Y-102074710D01*
X146556720Y-102087336D01*
X146547952Y-102099159D01*
X146538066Y-102110066D01*
X146527159Y-102119952D01*
X146515336Y-102128720D01*
X146502710Y-102136288D01*
X146489403Y-102142582D01*
X146475543Y-102147541D01*
X146461264Y-102151118D01*
X146446703Y-102153278D01*
X146432000Y-102154000D01*
X144782000Y-102154000D01*
X144767297Y-102153278D01*
X144752736Y-102151118D01*
X144738457Y-102147541D01*
X144724597Y-102142582D01*
X144711290Y-102136288D01*
X144698664Y-102128720D01*
X144686841Y-102119952D01*
X144675934Y-102110066D01*
X144666048Y-102099159D01*
X144657280Y-102087336D01*
X144649712Y-102074710D01*
X144643418Y-102061403D01*
X144638459Y-102047543D01*
X144634882Y-102033264D01*
X144632722Y-102018703D01*
X144632000Y-102004000D01*
X144632000Y-101704000D01*
X144632722Y-101689297D01*
X144634882Y-101674736D01*
X144638459Y-101660457D01*
X144643418Y-101646597D01*
X144649712Y-101633290D01*
X144657280Y-101620664D01*
X144666048Y-101608841D01*
X144675934Y-101597934D01*
X144686841Y-101588048D01*
X144698664Y-101579280D01*
X144711290Y-101571712D01*
X144724597Y-101565418D01*
X144738457Y-101560459D01*
X144752736Y-101556882D01*
X144767297Y-101554722D01*
X144782000Y-101554000D01*
X146432000Y-101554000D01*
X146446703Y-101554722D01*
X146446703Y-101554722D01*
G37*
D19*
X145607000Y-101854000D03*
D18*
G36*
X146446703Y-102824722D02*
G01*
X146461264Y-102826882D01*
X146475543Y-102830459D01*
X146489403Y-102835418D01*
X146502710Y-102841712D01*
X146515336Y-102849280D01*
X146527159Y-102858048D01*
X146538066Y-102867934D01*
X146547952Y-102878841D01*
X146556720Y-102890664D01*
X146564288Y-102903290D01*
X146570582Y-102916597D01*
X146575541Y-102930457D01*
X146579118Y-102944736D01*
X146581278Y-102959297D01*
X146582000Y-102974000D01*
X146582000Y-103274000D01*
X146581278Y-103288703D01*
X146579118Y-103303264D01*
X146575541Y-103317543D01*
X146570582Y-103331403D01*
X146564288Y-103344710D01*
X146556720Y-103357336D01*
X146547952Y-103369159D01*
X146538066Y-103380066D01*
X146527159Y-103389952D01*
X146515336Y-103398720D01*
X146502710Y-103406288D01*
X146489403Y-103412582D01*
X146475543Y-103417541D01*
X146461264Y-103421118D01*
X146446703Y-103423278D01*
X146432000Y-103424000D01*
X144782000Y-103424000D01*
X144767297Y-103423278D01*
X144752736Y-103421118D01*
X144738457Y-103417541D01*
X144724597Y-103412582D01*
X144711290Y-103406288D01*
X144698664Y-103398720D01*
X144686841Y-103389952D01*
X144675934Y-103380066D01*
X144666048Y-103369159D01*
X144657280Y-103357336D01*
X144649712Y-103344710D01*
X144643418Y-103331403D01*
X144638459Y-103317543D01*
X144634882Y-103303264D01*
X144632722Y-103288703D01*
X144632000Y-103274000D01*
X144632000Y-102974000D01*
X144632722Y-102959297D01*
X144634882Y-102944736D01*
X144638459Y-102930457D01*
X144643418Y-102916597D01*
X144649712Y-102903290D01*
X144657280Y-102890664D01*
X144666048Y-102878841D01*
X144675934Y-102867934D01*
X144686841Y-102858048D01*
X144698664Y-102849280D01*
X144711290Y-102841712D01*
X144724597Y-102835418D01*
X144738457Y-102830459D01*
X144752736Y-102826882D01*
X144767297Y-102824722D01*
X144782000Y-102824000D01*
X146432000Y-102824000D01*
X146446703Y-102824722D01*
X146446703Y-102824722D01*
G37*
D19*
X145607000Y-103124000D03*
D18*
G36*
X153549779Y-87840144D02*
G01*
X153572834Y-87843563D01*
X153595443Y-87849227D01*
X153617387Y-87857079D01*
X153638457Y-87867044D01*
X153658448Y-87879026D01*
X153677168Y-87892910D01*
X153694438Y-87908562D01*
X153710090Y-87925832D01*
X153723974Y-87944552D01*
X153735956Y-87964543D01*
X153745921Y-87985613D01*
X153753773Y-88007557D01*
X153759437Y-88030166D01*
X153762856Y-88053221D01*
X153764000Y-88076500D01*
X153764000Y-88651500D01*
X153762856Y-88674779D01*
X153759437Y-88697834D01*
X153753773Y-88720443D01*
X153745921Y-88742387D01*
X153735956Y-88763457D01*
X153723974Y-88783448D01*
X153710090Y-88802168D01*
X153694438Y-88819438D01*
X153677168Y-88835090D01*
X153658448Y-88848974D01*
X153638457Y-88860956D01*
X153617387Y-88870921D01*
X153595443Y-88878773D01*
X153572834Y-88884437D01*
X153549779Y-88887856D01*
X153526500Y-88889000D01*
X153051500Y-88889000D01*
X153028221Y-88887856D01*
X153005166Y-88884437D01*
X152982557Y-88878773D01*
X152960613Y-88870921D01*
X152939543Y-88860956D01*
X152919552Y-88848974D01*
X152900832Y-88835090D01*
X152883562Y-88819438D01*
X152867910Y-88802168D01*
X152854026Y-88783448D01*
X152842044Y-88763457D01*
X152832079Y-88742387D01*
X152824227Y-88720443D01*
X152818563Y-88697834D01*
X152815144Y-88674779D01*
X152814000Y-88651500D01*
X152814000Y-88076500D01*
X152815144Y-88053221D01*
X152818563Y-88030166D01*
X152824227Y-88007557D01*
X152832079Y-87985613D01*
X152842044Y-87964543D01*
X152854026Y-87944552D01*
X152867910Y-87925832D01*
X152883562Y-87908562D01*
X152900832Y-87892910D01*
X152919552Y-87879026D01*
X152939543Y-87867044D01*
X152960613Y-87857079D01*
X152982557Y-87849227D01*
X153005166Y-87843563D01*
X153028221Y-87840144D01*
X153051500Y-87839000D01*
X153526500Y-87839000D01*
X153549779Y-87840144D01*
X153549779Y-87840144D01*
G37*
D20*
X153289000Y-88364000D03*
D18*
G36*
X153549779Y-86090144D02*
G01*
X153572834Y-86093563D01*
X153595443Y-86099227D01*
X153617387Y-86107079D01*
X153638457Y-86117044D01*
X153658448Y-86129026D01*
X153677168Y-86142910D01*
X153694438Y-86158562D01*
X153710090Y-86175832D01*
X153723974Y-86194552D01*
X153735956Y-86214543D01*
X153745921Y-86235613D01*
X153753773Y-86257557D01*
X153759437Y-86280166D01*
X153762856Y-86303221D01*
X153764000Y-86326500D01*
X153764000Y-86901500D01*
X153762856Y-86924779D01*
X153759437Y-86947834D01*
X153753773Y-86970443D01*
X153745921Y-86992387D01*
X153735956Y-87013457D01*
X153723974Y-87033448D01*
X153710090Y-87052168D01*
X153694438Y-87069438D01*
X153677168Y-87085090D01*
X153658448Y-87098974D01*
X153638457Y-87110956D01*
X153617387Y-87120921D01*
X153595443Y-87128773D01*
X153572834Y-87134437D01*
X153549779Y-87137856D01*
X153526500Y-87139000D01*
X153051500Y-87139000D01*
X153028221Y-87137856D01*
X153005166Y-87134437D01*
X152982557Y-87128773D01*
X152960613Y-87120921D01*
X152939543Y-87110956D01*
X152919552Y-87098974D01*
X152900832Y-87085090D01*
X152883562Y-87069438D01*
X152867910Y-87052168D01*
X152854026Y-87033448D01*
X152842044Y-87013457D01*
X152832079Y-86992387D01*
X152824227Y-86970443D01*
X152818563Y-86947834D01*
X152815144Y-86924779D01*
X152814000Y-86901500D01*
X152814000Y-86326500D01*
X152815144Y-86303221D01*
X152818563Y-86280166D01*
X152824227Y-86257557D01*
X152832079Y-86235613D01*
X152842044Y-86214543D01*
X152854026Y-86194552D01*
X152867910Y-86175832D01*
X152883562Y-86158562D01*
X152900832Y-86142910D01*
X152919552Y-86129026D01*
X152939543Y-86117044D01*
X152960613Y-86107079D01*
X152982557Y-86099227D01*
X153005166Y-86093563D01*
X153028221Y-86090144D01*
X153051500Y-86089000D01*
X153526500Y-86089000D01*
X153549779Y-86090144D01*
X153549779Y-86090144D01*
G37*
D20*
X153289000Y-86614000D03*
D21*
X158242000Y-89471500D03*
D22*
X158242000Y-86931500D03*
D23*
X147574000Y-87439500D03*
X145574000Y-87439500D03*
X143574000Y-87439500D03*
X141574000Y-87439500D03*
X139574000Y-87439500D03*
X137574000Y-87439500D03*
D13*
X170448000Y-84040000D03*
X170448000Y-98840000D03*
D14*
X165608000Y-83315000D03*
X165608000Y-99565000D03*
D15*
X168148000Y-94996000D03*
X165608000Y-93980000D03*
X168148000Y-92964000D03*
X165608000Y-91948000D03*
X168148000Y-90932000D03*
X165608000Y-89916000D03*
X168148000Y-88900000D03*
X165608000Y-87884000D03*
D18*
G36*
X146484779Y-109889144D02*
G01*
X146507834Y-109892563D01*
X146530443Y-109898227D01*
X146552387Y-109906079D01*
X146573457Y-109916044D01*
X146593448Y-109928026D01*
X146612168Y-109941910D01*
X146629438Y-109957562D01*
X146645090Y-109974832D01*
X146658974Y-109993552D01*
X146670956Y-110013543D01*
X146680921Y-110034613D01*
X146688773Y-110056557D01*
X146694437Y-110079166D01*
X146697856Y-110102221D01*
X146699000Y-110125500D01*
X146699000Y-110600500D01*
X146697856Y-110623779D01*
X146694437Y-110646834D01*
X146688773Y-110669443D01*
X146680921Y-110691387D01*
X146670956Y-110712457D01*
X146658974Y-110732448D01*
X146645090Y-110751168D01*
X146629438Y-110768438D01*
X146612168Y-110784090D01*
X146593448Y-110797974D01*
X146573457Y-110809956D01*
X146552387Y-110819921D01*
X146530443Y-110827773D01*
X146507834Y-110833437D01*
X146484779Y-110836856D01*
X146461500Y-110838000D01*
X145886500Y-110838000D01*
X145863221Y-110836856D01*
X145840166Y-110833437D01*
X145817557Y-110827773D01*
X145795613Y-110819921D01*
X145774543Y-110809956D01*
X145754552Y-110797974D01*
X145735832Y-110784090D01*
X145718562Y-110768438D01*
X145702910Y-110751168D01*
X145689026Y-110732448D01*
X145677044Y-110712457D01*
X145667079Y-110691387D01*
X145659227Y-110669443D01*
X145653563Y-110646834D01*
X145650144Y-110623779D01*
X145649000Y-110600500D01*
X145649000Y-110125500D01*
X145650144Y-110102221D01*
X145653563Y-110079166D01*
X145659227Y-110056557D01*
X145667079Y-110034613D01*
X145677044Y-110013543D01*
X145689026Y-109993552D01*
X145702910Y-109974832D01*
X145718562Y-109957562D01*
X145735832Y-109941910D01*
X145754552Y-109928026D01*
X145774543Y-109916044D01*
X145795613Y-109906079D01*
X145817557Y-109898227D01*
X145840166Y-109892563D01*
X145863221Y-109889144D01*
X145886500Y-109888000D01*
X146461500Y-109888000D01*
X146484779Y-109889144D01*
X146484779Y-109889144D01*
G37*
D20*
X146174000Y-110363000D03*
D18*
G36*
X144734779Y-109889144D02*
G01*
X144757834Y-109892563D01*
X144780443Y-109898227D01*
X144802387Y-109906079D01*
X144823457Y-109916044D01*
X144843448Y-109928026D01*
X144862168Y-109941910D01*
X144879438Y-109957562D01*
X144895090Y-109974832D01*
X144908974Y-109993552D01*
X144920956Y-110013543D01*
X144930921Y-110034613D01*
X144938773Y-110056557D01*
X144944437Y-110079166D01*
X144947856Y-110102221D01*
X144949000Y-110125500D01*
X144949000Y-110600500D01*
X144947856Y-110623779D01*
X144944437Y-110646834D01*
X144938773Y-110669443D01*
X144930921Y-110691387D01*
X144920956Y-110712457D01*
X144908974Y-110732448D01*
X144895090Y-110751168D01*
X144879438Y-110768438D01*
X144862168Y-110784090D01*
X144843448Y-110797974D01*
X144823457Y-110809956D01*
X144802387Y-110819921D01*
X144780443Y-110827773D01*
X144757834Y-110833437D01*
X144734779Y-110836856D01*
X144711500Y-110838000D01*
X144136500Y-110838000D01*
X144113221Y-110836856D01*
X144090166Y-110833437D01*
X144067557Y-110827773D01*
X144045613Y-110819921D01*
X144024543Y-110809956D01*
X144004552Y-110797974D01*
X143985832Y-110784090D01*
X143968562Y-110768438D01*
X143952910Y-110751168D01*
X143939026Y-110732448D01*
X143927044Y-110712457D01*
X143917079Y-110691387D01*
X143909227Y-110669443D01*
X143903563Y-110646834D01*
X143900144Y-110623779D01*
X143899000Y-110600500D01*
X143899000Y-110125500D01*
X143900144Y-110102221D01*
X143903563Y-110079166D01*
X143909227Y-110056557D01*
X143917079Y-110034613D01*
X143927044Y-110013543D01*
X143939026Y-109993552D01*
X143952910Y-109974832D01*
X143968562Y-109957562D01*
X143985832Y-109941910D01*
X144004552Y-109928026D01*
X144024543Y-109916044D01*
X144045613Y-109906079D01*
X144067557Y-109898227D01*
X144090166Y-109892563D01*
X144113221Y-109889144D01*
X144136500Y-109888000D01*
X144711500Y-109888000D01*
X144734779Y-109889144D01*
X144734779Y-109889144D01*
G37*
D20*
X144424000Y-110363000D03*
D18*
G36*
X152202779Y-109508144D02*
G01*
X152225834Y-109511563D01*
X152248443Y-109517227D01*
X152270387Y-109525079D01*
X152291457Y-109535044D01*
X152311448Y-109547026D01*
X152330168Y-109560910D01*
X152347438Y-109576562D01*
X152363090Y-109593832D01*
X152376974Y-109612552D01*
X152388956Y-109632543D01*
X152398921Y-109653613D01*
X152406773Y-109675557D01*
X152412437Y-109698166D01*
X152415856Y-109721221D01*
X152417000Y-109744500D01*
X152417000Y-110219500D01*
X152415856Y-110242779D01*
X152412437Y-110265834D01*
X152406773Y-110288443D01*
X152398921Y-110310387D01*
X152388956Y-110331457D01*
X152376974Y-110351448D01*
X152363090Y-110370168D01*
X152347438Y-110387438D01*
X152330168Y-110403090D01*
X152311448Y-110416974D01*
X152291457Y-110428956D01*
X152270387Y-110438921D01*
X152248443Y-110446773D01*
X152225834Y-110452437D01*
X152202779Y-110455856D01*
X152179500Y-110457000D01*
X151604500Y-110457000D01*
X151581221Y-110455856D01*
X151558166Y-110452437D01*
X151535557Y-110446773D01*
X151513613Y-110438921D01*
X151492543Y-110428956D01*
X151472552Y-110416974D01*
X151453832Y-110403090D01*
X151436562Y-110387438D01*
X151420910Y-110370168D01*
X151407026Y-110351448D01*
X151395044Y-110331457D01*
X151385079Y-110310387D01*
X151377227Y-110288443D01*
X151371563Y-110265834D01*
X151368144Y-110242779D01*
X151367000Y-110219500D01*
X151367000Y-109744500D01*
X151368144Y-109721221D01*
X151371563Y-109698166D01*
X151377227Y-109675557D01*
X151385079Y-109653613D01*
X151395044Y-109632543D01*
X151407026Y-109612552D01*
X151420910Y-109593832D01*
X151436562Y-109576562D01*
X151453832Y-109560910D01*
X151472552Y-109547026D01*
X151492543Y-109535044D01*
X151513613Y-109525079D01*
X151535557Y-109517227D01*
X151558166Y-109511563D01*
X151581221Y-109508144D01*
X151604500Y-109507000D01*
X152179500Y-109507000D01*
X152202779Y-109508144D01*
X152202779Y-109508144D01*
G37*
D20*
X151892000Y-109982000D03*
D18*
G36*
X150452779Y-109508144D02*
G01*
X150475834Y-109511563D01*
X150498443Y-109517227D01*
X150520387Y-109525079D01*
X150541457Y-109535044D01*
X150561448Y-109547026D01*
X150580168Y-109560910D01*
X150597438Y-109576562D01*
X150613090Y-109593832D01*
X150626974Y-109612552D01*
X150638956Y-109632543D01*
X150648921Y-109653613D01*
X150656773Y-109675557D01*
X150662437Y-109698166D01*
X150665856Y-109721221D01*
X150667000Y-109744500D01*
X150667000Y-110219500D01*
X150665856Y-110242779D01*
X150662437Y-110265834D01*
X150656773Y-110288443D01*
X150648921Y-110310387D01*
X150638956Y-110331457D01*
X150626974Y-110351448D01*
X150613090Y-110370168D01*
X150597438Y-110387438D01*
X150580168Y-110403090D01*
X150561448Y-110416974D01*
X150541457Y-110428956D01*
X150520387Y-110438921D01*
X150498443Y-110446773D01*
X150475834Y-110452437D01*
X150452779Y-110455856D01*
X150429500Y-110457000D01*
X149854500Y-110457000D01*
X149831221Y-110455856D01*
X149808166Y-110452437D01*
X149785557Y-110446773D01*
X149763613Y-110438921D01*
X149742543Y-110428956D01*
X149722552Y-110416974D01*
X149703832Y-110403090D01*
X149686562Y-110387438D01*
X149670910Y-110370168D01*
X149657026Y-110351448D01*
X149645044Y-110331457D01*
X149635079Y-110310387D01*
X149627227Y-110288443D01*
X149621563Y-110265834D01*
X149618144Y-110242779D01*
X149617000Y-110219500D01*
X149617000Y-109744500D01*
X149618144Y-109721221D01*
X149621563Y-109698166D01*
X149627227Y-109675557D01*
X149635079Y-109653613D01*
X149645044Y-109632543D01*
X149657026Y-109612552D01*
X149670910Y-109593832D01*
X149686562Y-109576562D01*
X149703832Y-109560910D01*
X149722552Y-109547026D01*
X149742543Y-109535044D01*
X149763613Y-109525079D01*
X149785557Y-109517227D01*
X149808166Y-109511563D01*
X149831221Y-109508144D01*
X149854500Y-109507000D01*
X150429500Y-109507000D01*
X150452779Y-109508144D01*
X150452779Y-109508144D01*
G37*
D20*
X150142000Y-109982000D03*
D24*
X152213000Y-99768900D03*
X172195000Y-107950000D03*
X173245000Y-107950000D03*
X143198000Y-102358400D03*
D25*
X147574000Y-98579800D02*
X147574000Y-101001000D01*
X147574000Y-87439500D02*
X147574000Y-98579800D01*
X148214000Y-108323000D02*
X147709000Y-108323000D01*
X150233000Y-108323000D02*
X148214000Y-108323000D01*
X147574000Y-101001000D02*
X146721000Y-101854000D01*
X146721000Y-101854000D02*
X145607000Y-101854000D01*
X150233000Y-108323000D02*
X151892000Y-109982000D01*
X165608000Y-89916000D02*
X166859000Y-91167100D01*
X166859000Y-91167100D02*
X166859000Y-92728900D01*
X166859000Y-92728900D02*
X165608000Y-93980000D01*
X150557000Y-103124000D02*
X150233000Y-103448000D01*
X150233000Y-103448000D02*
X147787000Y-101001000D01*
X147787000Y-101001000D02*
X147574000Y-101001000D01*
X150233000Y-103448000D02*
X150233000Y-108323000D01*
X148214000Y-108323000D02*
X146174000Y-110363000D01*
X147574000Y-98579800D02*
X144621000Y-98579800D01*
X144621000Y-98579800D02*
X138726000Y-104474000D01*
X138726000Y-104474000D02*
X138726000Y-111227000D01*
X138726000Y-111227000D02*
X140427000Y-112928000D01*
X150142000Y-109982000D02*
X150954000Y-110794000D01*
X150954000Y-110794000D02*
X152461000Y-110794000D01*
X152461000Y-110794000D02*
X154302000Y-108953000D01*
X154302000Y-108953000D02*
X154302000Y-104133000D01*
X154302000Y-104133000D02*
X155667000Y-102768000D01*
X150557000Y-99314000D02*
X151758000Y-99314000D01*
X151758000Y-99314000D02*
X152213000Y-99768900D01*
D26*
X168211000Y-114490000D02*
X167735000Y-114966000D01*
X167735000Y-114966000D02*
X148285000Y-114966000D01*
X148285000Y-114966000D02*
X139893000Y-114966000D01*
X139893000Y-114966000D02*
X137574000Y-112647000D01*
X137574000Y-112647000D02*
X137574000Y-87439500D01*
D27*
X156020000Y-99470000D02*
X158081000Y-99470000D01*
X158081000Y-99470000D02*
X163415000Y-104804000D01*
X163415000Y-104804000D02*
X164621000Y-104804000D01*
X164621000Y-104804000D02*
X165995000Y-106178000D01*
X165995000Y-106178000D02*
X172510000Y-106178000D01*
X172510000Y-106178000D02*
X173945000Y-107614000D01*
X173945000Y-107614000D02*
X173945000Y-108286000D01*
X173945000Y-108286000D02*
X173581000Y-108650000D01*
X173581000Y-108650000D02*
X168467000Y-108650000D01*
X168467000Y-108650000D02*
X168211000Y-108394000D01*
X150557000Y-100584000D02*
X150967000Y-100994000D01*
X150967000Y-100994000D02*
X152434000Y-100994000D01*
X152434000Y-100994000D02*
X153958000Y-99470000D01*
X153958000Y-99470000D02*
X156020000Y-99470000D01*
D25*
X156020000Y-99470000D02*
X158242000Y-97247500D01*
X158242000Y-97247500D02*
X158242000Y-89471500D01*
D27*
X172195000Y-107950000D02*
X172195000Y-107536000D01*
X172195000Y-107536000D02*
X171818000Y-107159000D01*
X171818000Y-107159000D02*
X168749000Y-107159000D01*
X168749000Y-107159000D02*
X168211000Y-107697000D01*
X168211000Y-107697000D02*
X168211000Y-108394000D01*
D25*
X165608000Y-87884000D02*
X165385000Y-88106900D01*
X165385000Y-88106900D02*
X153546000Y-88106900D01*
X153546000Y-88106900D02*
X153289000Y-88364000D01*
D27*
X150557000Y-101854000D02*
X150967000Y-101444000D01*
X150967000Y-101444000D02*
X152620000Y-101444000D01*
X152620000Y-101444000D02*
X154144000Y-99920000D01*
X154144000Y-99920000D02*
X157895000Y-99920000D01*
X157895000Y-99920000D02*
X163229000Y-105254000D01*
X163229000Y-105254000D02*
X164435000Y-105254000D01*
X164435000Y-105254000D02*
X165671000Y-106491000D01*
X165671000Y-106491000D02*
X165671000Y-107378000D01*
X173245000Y-107950000D02*
X172004000Y-106709000D01*
X172004000Y-106709000D02*
X168563000Y-106709000D01*
X168563000Y-106709000D02*
X168077000Y-107194000D01*
X168077000Y-107194000D02*
X167635000Y-107194000D01*
X167635000Y-107194000D02*
X167451000Y-107378000D01*
X167451000Y-107378000D02*
X165671000Y-107378000D01*
D25*
X158242000Y-86931500D02*
X153606000Y-86931500D01*
X153606000Y-86931500D02*
X153289000Y-86614000D01*
X140427000Y-107848000D02*
X139182000Y-106603000D01*
X139182000Y-106603000D02*
X139182000Y-104753000D01*
X139182000Y-104753000D02*
X144621000Y-99314000D01*
X144621000Y-99314000D02*
X145607000Y-99314000D01*
X145607000Y-103124000D02*
X143423000Y-105308000D01*
X143423000Y-105308000D02*
X140427000Y-105308000D01*
D26*
X145201000Y-100584000D02*
X144972400Y-100584000D01*
X144972400Y-100584000D02*
X143198000Y-102358400D01*
D25*
X145201000Y-100584000D02*
X145607000Y-100584000D01*
X145607000Y-100584000D02*
X146014000Y-100584000D01*
D26*
X148285000Y-113066000D02*
X147285000Y-113066000D01*
X147285000Y-113066000D02*
X144582000Y-110363000D01*
X144582000Y-110363000D02*
X144424000Y-110363000D01*
X144424000Y-110363000D02*
X140452000Y-110363000D01*
X140452000Y-110363000D02*
X140427000Y-110388000D01*
D28*
G36*
X172799227Y-78953513D02*
G01*
X172384032Y-79230938D01*
X172030937Y-79584033D01*
X171753512Y-79999228D01*
X171562418Y-80460569D01*
X171465000Y-80950325D01*
X171465000Y-81449677D01*
X171562418Y-81939433D01*
X171753512Y-82400774D01*
X172030937Y-82815969D01*
X172384032Y-83169064D01*
X172799227Y-83446489D01*
X173260568Y-83637583D01*
X173750324Y-83735001D01*
X174249676Y-83735001D01*
X174739432Y-83637583D01*
X175200773Y-83446489D01*
X175615968Y-83169064D01*
X175969063Y-82815969D01*
X176246488Y-82400774D01*
X176340001Y-82175014D01*
X176340000Y-120224985D01*
X176246488Y-119999227D01*
X175969063Y-119584032D01*
X175615968Y-119230937D01*
X175200773Y-118953512D01*
X174739432Y-118762418D01*
X174249676Y-118665000D01*
X173750324Y-118665000D01*
X173260568Y-118762418D01*
X172799227Y-118953512D01*
X172384032Y-119230937D01*
X172030937Y-119584032D01*
X171753512Y-119999227D01*
X171562418Y-120460568D01*
X171465000Y-120950324D01*
X171465000Y-121449676D01*
X171562418Y-121939432D01*
X171753512Y-122400773D01*
X172030937Y-122815968D01*
X172384032Y-123169063D01*
X172799227Y-123446488D01*
X173024985Y-123540000D01*
X137975016Y-123540000D01*
X138200774Y-123446488D01*
X138615969Y-123169063D01*
X138969064Y-122815968D01*
X139246489Y-122400773D01*
X139437583Y-121939432D01*
X139535001Y-121449676D01*
X139535001Y-120950324D01*
X139437583Y-120460568D01*
X139246489Y-119999227D01*
X138969064Y-119584032D01*
X138615969Y-119230937D01*
X138200774Y-118953512D01*
X138114232Y-118917665D01*
X164236000Y-118917665D01*
X164236000Y-119200335D01*
X164291147Y-119477574D01*
X164399320Y-119738727D01*
X164556363Y-119973759D01*
X164756241Y-120173637D01*
X164991273Y-120330680D01*
X165252426Y-120438853D01*
X165529665Y-120494000D01*
X165812335Y-120494000D01*
X166089574Y-120438853D01*
X166350727Y-120330680D01*
X166585759Y-120173637D01*
X166785637Y-119973759D01*
X166942680Y-119738727D01*
X167050853Y-119477574D01*
X167106000Y-119200335D01*
X167106000Y-118917665D01*
X167050853Y-118640426D01*
X166942680Y-118379273D01*
X166788379Y-118148344D01*
X168626000Y-118148344D01*
X168626000Y-118519656D01*
X168698439Y-118883834D01*
X168840534Y-119226882D01*
X169046825Y-119535618D01*
X169309382Y-119798175D01*
X169618118Y-120004466D01*
X169961166Y-120146561D01*
X170325344Y-120219000D01*
X170696656Y-120219000D01*
X171060834Y-120146561D01*
X171403882Y-120004466D01*
X171712618Y-119798175D01*
X171975175Y-119535618D01*
X172181466Y-119226882D01*
X172323561Y-118883834D01*
X172396000Y-118519656D01*
X172396000Y-118148344D01*
X172323561Y-117784166D01*
X172181466Y-117441118D01*
X171975175Y-117132382D01*
X171712618Y-116869825D01*
X171403882Y-116663534D01*
X171060834Y-116521439D01*
X170696656Y-116449000D01*
X170325344Y-116449000D01*
X169961166Y-116521439D01*
X169618118Y-116663534D01*
X169309382Y-116869825D01*
X169046825Y-117132382D01*
X168840534Y-117441118D01*
X168698439Y-117784166D01*
X168626000Y-118148344D01*
X166788379Y-118148344D01*
X166785637Y-118144241D01*
X166585759Y-117944363D01*
X166350727Y-117787320D01*
X166089574Y-117679147D01*
X165812335Y-117624000D01*
X165529665Y-117624000D01*
X165252426Y-117679147D01*
X164991273Y-117787320D01*
X164756241Y-117944363D01*
X164556363Y-118144241D01*
X164399320Y-118379273D01*
X164291147Y-118640426D01*
X164236000Y-118917665D01*
X138114232Y-118917665D01*
X137739433Y-118762418D01*
X137249677Y-118665000D01*
X136750325Y-118665000D01*
X136260569Y-118762418D01*
X135799228Y-118953512D01*
X135384033Y-119230937D01*
X135030938Y-119584032D01*
X134753513Y-119999227D01*
X134660002Y-120224982D01*
X134660002Y-87312939D01*
X136289000Y-87312939D01*
X136289000Y-87566061D01*
X136338381Y-87814321D01*
X136435247Y-88048176D01*
X136575875Y-88258640D01*
X136689001Y-88371766D01*
X136689000Y-112603531D01*
X136684719Y-112647000D01*
X136689000Y-112690469D01*
X136689000Y-112690476D01*
X136701805Y-112820489D01*
X136752411Y-112987312D01*
X136834589Y-113141058D01*
X136945183Y-113275817D01*
X136978956Y-113303534D01*
X139236470Y-115561049D01*
X139264183Y-115594817D01*
X139297951Y-115622530D01*
X139297953Y-115622532D01*
X139369452Y-115681210D01*
X139398941Y-115705411D01*
X139552687Y-115787589D01*
X139719510Y-115838195D01*
X139849523Y-115851000D01*
X139849533Y-115851000D01*
X139892999Y-115855281D01*
X139936465Y-115851000D01*
X147325019Y-115851000D01*
X147380506Y-115896537D01*
X147490820Y-115955502D01*
X147610518Y-115991812D01*
X147735000Y-116004072D01*
X148835000Y-116004072D01*
X148959482Y-115991812D01*
X149079180Y-115955502D01*
X149189494Y-115896537D01*
X149244981Y-115851000D01*
X167485597Y-115851000D01*
X167763257Y-115966011D01*
X168059816Y-116025000D01*
X168362184Y-116025000D01*
X168658743Y-115966011D01*
X168938095Y-115850299D01*
X169189505Y-115682312D01*
X169403312Y-115468505D01*
X169571299Y-115217095D01*
X169687011Y-114937743D01*
X169746000Y-114641184D01*
X169746000Y-114338816D01*
X169687011Y-114042257D01*
X169571299Y-113762905D01*
X169403312Y-113511495D01*
X169365817Y-113474000D01*
X169403312Y-113436505D01*
X169571299Y-113185095D01*
X169687011Y-112905743D01*
X169746000Y-112609184D01*
X169746000Y-112306816D01*
X169687011Y-112010257D01*
X169571299Y-111730905D01*
X169403312Y-111479495D01*
X169365817Y-111442000D01*
X169403312Y-111404505D01*
X169571299Y-111153095D01*
X169687011Y-110873743D01*
X169746000Y-110577184D01*
X169746000Y-110274816D01*
X169687011Y-109978257D01*
X169571299Y-109698905D01*
X169403312Y-109447495D01*
X169365817Y-109410000D01*
X169390817Y-109385000D01*
X173544895Y-109385000D01*
X173581000Y-109388556D01*
X173617105Y-109385000D01*
X173725085Y-109374365D01*
X173863633Y-109332337D01*
X173991320Y-109264087D01*
X174103238Y-109172238D01*
X174126259Y-109144187D01*
X174439187Y-108831259D01*
X174467238Y-108808238D01*
X174559087Y-108696320D01*
X174605649Y-108609208D01*
X174627337Y-108568634D01*
X174669365Y-108430085D01*
X174683556Y-108286000D01*
X174680000Y-108249895D01*
X174680000Y-107650234D01*
X174683556Y-107614257D01*
X174680000Y-107578023D01*
X174680000Y-107577895D01*
X174676467Y-107542027D01*
X174669415Y-107470167D01*
X174669378Y-107470044D01*
X174669365Y-107469915D01*
X174648291Y-107400442D01*
X174627435Y-107331604D01*
X174627375Y-107331491D01*
X174627337Y-107331367D01*
X174592687Y-107266542D01*
X174559229Y-107203894D01*
X174559150Y-107203797D01*
X174559087Y-107203680D01*
X174513196Y-107147762D01*
X174490425Y-107119996D01*
X174490332Y-107119903D01*
X174467237Y-107091762D01*
X174439296Y-107068831D01*
X173055339Y-105683910D01*
X173032238Y-105655762D01*
X172974480Y-105608361D01*
X172920533Y-105564057D01*
X172920425Y-105563999D01*
X172920320Y-105563913D01*
X172854585Y-105528777D01*
X172792871Y-105495762D01*
X172792749Y-105495725D01*
X172792633Y-105495663D01*
X172721800Y-105474176D01*
X172654337Y-105453686D01*
X172654213Y-105453674D01*
X172654085Y-105453635D01*
X172581085Y-105446445D01*
X172510257Y-105439444D01*
X172474023Y-105443000D01*
X166299447Y-105443000D01*
X165166258Y-104309812D01*
X165143238Y-104281762D01*
X165031320Y-104189913D01*
X164903633Y-104121663D01*
X164765085Y-104079635D01*
X164657105Y-104069000D01*
X164621000Y-104065444D01*
X164584895Y-104069000D01*
X163719447Y-104069000D01*
X162318112Y-102667665D01*
X164236000Y-102667665D01*
X164236000Y-102950335D01*
X164291147Y-103227574D01*
X164399320Y-103488727D01*
X164556363Y-103723759D01*
X164756241Y-103923637D01*
X164991273Y-104080680D01*
X165252426Y-104188853D01*
X165529665Y-104244000D01*
X165812335Y-104244000D01*
X166089574Y-104188853D01*
X166350727Y-104080680D01*
X166585759Y-103923637D01*
X166785637Y-103723759D01*
X166942680Y-103488727D01*
X167000828Y-103348344D01*
X168626000Y-103348344D01*
X168626000Y-103719656D01*
X168698439Y-104083834D01*
X168840534Y-104426882D01*
X169046825Y-104735618D01*
X169309382Y-104998175D01*
X169618118Y-105204466D01*
X169961166Y-105346561D01*
X170325344Y-105419000D01*
X170696656Y-105419000D01*
X171060834Y-105346561D01*
X171403882Y-105204466D01*
X171712618Y-104998175D01*
X171975175Y-104735618D01*
X172181466Y-104426882D01*
X172323561Y-104083834D01*
X172396000Y-103719656D01*
X172396000Y-103348344D01*
X172323561Y-102984166D01*
X172181466Y-102641118D01*
X171975175Y-102332382D01*
X171712618Y-102069825D01*
X171403882Y-101863534D01*
X171060834Y-101721439D01*
X170696656Y-101649000D01*
X170325344Y-101649000D01*
X169961166Y-101721439D01*
X169618118Y-101863534D01*
X169309382Y-102069825D01*
X169046825Y-102332382D01*
X168840534Y-102641118D01*
X168698439Y-102984166D01*
X168626000Y-103348344D01*
X167000828Y-103348344D01*
X167050853Y-103227574D01*
X167106000Y-102950335D01*
X167106000Y-102667665D01*
X167050853Y-102390426D01*
X166942680Y-102129273D01*
X166785637Y-101894241D01*
X166585759Y-101694363D01*
X166350727Y-101537320D01*
X166089574Y-101429147D01*
X165812335Y-101374000D01*
X165529665Y-101374000D01*
X165252426Y-101429147D01*
X164991273Y-101537320D01*
X164756241Y-101694363D01*
X164556363Y-101894241D01*
X164399320Y-102129273D01*
X164291147Y-102390426D01*
X164236000Y-102667665D01*
X162318112Y-102667665D01*
X159074112Y-99423665D01*
X164173000Y-99423665D01*
X164173000Y-99706335D01*
X164228147Y-99983574D01*
X164336320Y-100244727D01*
X164493363Y-100479759D01*
X164693241Y-100679637D01*
X164928273Y-100836680D01*
X165189426Y-100944853D01*
X165466665Y-101000000D01*
X165749335Y-101000000D01*
X166026574Y-100944853D01*
X166287727Y-100836680D01*
X166522759Y-100679637D01*
X166722637Y-100479759D01*
X166879680Y-100244727D01*
X166987853Y-99983574D01*
X167043000Y-99706335D01*
X167043000Y-99423665D01*
X166987853Y-99146426D01*
X166879680Y-98885273D01*
X166725379Y-98654344D01*
X168563000Y-98654344D01*
X168563000Y-99025656D01*
X168635439Y-99389834D01*
X168777534Y-99732882D01*
X168983825Y-100041618D01*
X169246382Y-100304175D01*
X169555118Y-100510466D01*
X169898166Y-100652561D01*
X170262344Y-100725000D01*
X170633656Y-100725000D01*
X170997834Y-100652561D01*
X171340882Y-100510466D01*
X171649618Y-100304175D01*
X171912175Y-100041618D01*
X172118466Y-99732882D01*
X172260561Y-99389834D01*
X172333000Y-99025656D01*
X172333000Y-98654344D01*
X172260561Y-98290166D01*
X172118466Y-97947118D01*
X171912175Y-97638382D01*
X171649618Y-97375825D01*
X171340882Y-97169534D01*
X170997834Y-97027439D01*
X170633656Y-96955000D01*
X170262344Y-96955000D01*
X169898166Y-97027439D01*
X169555118Y-97169534D01*
X169246382Y-97375825D01*
X168983825Y-97638382D01*
X168777534Y-97947118D01*
X168635439Y-98290166D01*
X168563000Y-98654344D01*
X166725379Y-98654344D01*
X166722637Y-98650241D01*
X166522759Y-98450363D01*
X166287727Y-98293320D01*
X166026574Y-98185147D01*
X165749335Y-98130000D01*
X165466665Y-98130000D01*
X165189426Y-98185147D01*
X164928273Y-98293320D01*
X164693241Y-98450363D01*
X164493363Y-98650241D01*
X164336320Y-98885273D01*
X164228147Y-99146426D01*
X164173000Y-99423665D01*
X159074112Y-99423665D01*
X158626259Y-98975813D01*
X158603238Y-98947762D01*
X158491320Y-98855913D01*
X158363633Y-98787663D01*
X158225085Y-98745635D01*
X158117105Y-98735000D01*
X158081000Y-98731444D01*
X158044895Y-98735000D01*
X157829516Y-98735000D01*
X158753037Y-97811271D01*
X158782001Y-97787501D01*
X158805827Y-97758469D01*
X158805856Y-97758440D01*
X158828524Y-97730812D01*
X158876974Y-97671776D01*
X158876995Y-97671737D01*
X158877021Y-97671705D01*
X158910144Y-97609720D01*
X158947546Y-97539747D01*
X158947559Y-97539703D01*
X158947578Y-97539668D01*
X158967507Y-97473943D01*
X158991003Y-97396486D01*
X158991008Y-97396440D01*
X158991019Y-97396402D01*
X158997632Y-97329179D01*
X159002000Y-97284833D01*
X159002000Y-97284781D01*
X159005676Y-97247415D01*
X159002000Y-97210133D01*
X159002000Y-90749095D01*
X159071014Y-90712206D01*
X159297134Y-90526634D01*
X159482706Y-90300514D01*
X159620599Y-90042534D01*
X159705513Y-89762611D01*
X159734185Y-89471500D01*
X159705513Y-89180389D01*
X159620599Y-88900466D01*
X159602658Y-88866900D01*
X164420083Y-88866900D01*
X164448366Y-88895183D01*
X164427970Y-88915578D01*
X164543918Y-89031526D01*
X164289739Y-89115208D01*
X164158842Y-89387775D01*
X164083635Y-89680642D01*
X164067009Y-89982553D01*
X164109603Y-90281907D01*
X164209778Y-90567199D01*
X164289739Y-90716792D01*
X164543918Y-90800474D01*
X164427970Y-90916422D01*
X164448366Y-90936818D01*
X164415688Y-90969495D01*
X164247701Y-91220905D01*
X164131989Y-91500257D01*
X164073000Y-91796816D01*
X164073000Y-92099184D01*
X164131989Y-92395743D01*
X164247701Y-92675095D01*
X164415688Y-92926505D01*
X164448366Y-92959183D01*
X164427970Y-92979578D01*
X164543918Y-93095526D01*
X164289739Y-93179208D01*
X164158842Y-93451775D01*
X164083635Y-93744642D01*
X164067009Y-94046553D01*
X164109603Y-94345907D01*
X164209778Y-94631199D01*
X164289739Y-94780792D01*
X164543920Y-94864475D01*
X165428395Y-93980000D01*
X165414253Y-93965858D01*
X165593858Y-93786253D01*
X165608000Y-93800395D01*
X165622143Y-93786253D01*
X165801748Y-93965858D01*
X165787605Y-93980000D01*
X165801748Y-93994143D01*
X165622143Y-94173748D01*
X165608000Y-94159605D01*
X164723525Y-95044080D01*
X164807208Y-95298261D01*
X165079775Y-95429158D01*
X165372642Y-95504365D01*
X165674553Y-95520991D01*
X165973907Y-95478397D01*
X166259199Y-95378222D01*
X166408792Y-95298261D01*
X166492474Y-95044082D01*
X166608422Y-95160030D01*
X166614372Y-95154080D01*
X166671989Y-95443743D01*
X166787701Y-95723095D01*
X166955688Y-95974505D01*
X167169495Y-96188312D01*
X167420905Y-96356299D01*
X167700257Y-96472011D01*
X167996816Y-96531000D01*
X168299184Y-96531000D01*
X168595743Y-96472011D01*
X168875095Y-96356299D01*
X169126505Y-96188312D01*
X169340312Y-95974505D01*
X169508299Y-95723095D01*
X169624011Y-95443743D01*
X169683000Y-95147184D01*
X169683000Y-94844816D01*
X169624011Y-94548257D01*
X169508299Y-94268905D01*
X169340312Y-94017495D01*
X169302817Y-93980000D01*
X169340312Y-93942505D01*
X169508299Y-93691095D01*
X169624011Y-93411743D01*
X169683000Y-93115184D01*
X169683000Y-92812816D01*
X169624011Y-92516257D01*
X169508299Y-92236905D01*
X169340312Y-91985495D01*
X169302817Y-91948000D01*
X169340312Y-91910505D01*
X169508299Y-91659095D01*
X169624011Y-91379743D01*
X169683000Y-91083184D01*
X169683000Y-90780816D01*
X169624011Y-90484257D01*
X169508299Y-90204905D01*
X169340312Y-89953495D01*
X169302817Y-89916000D01*
X169340312Y-89878505D01*
X169508299Y-89627095D01*
X169624011Y-89347743D01*
X169683000Y-89051184D01*
X169683000Y-88748816D01*
X169624011Y-88452257D01*
X169508299Y-88172905D01*
X169340312Y-87921495D01*
X169126505Y-87707688D01*
X168875095Y-87539701D01*
X168595743Y-87423989D01*
X168299184Y-87365000D01*
X167996816Y-87365000D01*
X167700257Y-87423989D01*
X167420905Y-87539701D01*
X167169495Y-87707688D01*
X167143000Y-87734183D01*
X167143000Y-87732816D01*
X167084011Y-87436257D01*
X166968299Y-87156905D01*
X166800312Y-86905495D01*
X166586505Y-86691688D01*
X166335095Y-86523701D01*
X166055743Y-86407989D01*
X165759184Y-86349000D01*
X165456816Y-86349000D01*
X165160257Y-86407989D01*
X164880905Y-86523701D01*
X164629495Y-86691688D01*
X164415688Y-86905495D01*
X164247701Y-87156905D01*
X164169002Y-87346900D01*
X159730072Y-87346900D01*
X159730072Y-86081500D01*
X159717812Y-85957018D01*
X159681502Y-85837320D01*
X159622537Y-85727006D01*
X159543185Y-85630315D01*
X159446494Y-85550963D01*
X159336180Y-85491998D01*
X159216482Y-85455688D01*
X159092000Y-85443428D01*
X157392000Y-85443428D01*
X157267518Y-85455688D01*
X157147820Y-85491998D01*
X157037506Y-85550963D01*
X156940815Y-85630315D01*
X156861463Y-85727006D01*
X156802498Y-85837320D01*
X156766188Y-85957018D01*
X156753928Y-86081500D01*
X156753928Y-86171500D01*
X154386806Y-86171500D01*
X154385248Y-86155684D01*
X154335423Y-85991433D01*
X154254512Y-85840058D01*
X154145623Y-85707377D01*
X154012942Y-85598488D01*
X153861567Y-85517577D01*
X153697316Y-85467752D01*
X153526500Y-85450928D01*
X153051500Y-85450928D01*
X152880684Y-85467752D01*
X152716433Y-85517577D01*
X152565058Y-85598488D01*
X152432377Y-85707377D01*
X152323488Y-85840058D01*
X152242577Y-85991433D01*
X152192752Y-86155684D01*
X152175928Y-86326500D01*
X152175928Y-86901500D01*
X152192752Y-87072316D01*
X152242577Y-87236567D01*
X152323488Y-87387942D01*
X152406425Y-87489000D01*
X152323488Y-87590058D01*
X152242577Y-87741433D01*
X152192752Y-87905684D01*
X152175928Y-88076500D01*
X152175928Y-88651500D01*
X152192752Y-88822316D01*
X152242577Y-88986567D01*
X152323488Y-89137942D01*
X152432377Y-89270623D01*
X152565058Y-89379512D01*
X152716433Y-89460423D01*
X152880684Y-89510248D01*
X153051500Y-89527072D01*
X153526500Y-89527072D01*
X153697316Y-89510248D01*
X153861567Y-89460423D01*
X154012942Y-89379512D01*
X154145623Y-89270623D01*
X154254512Y-89137942D01*
X154335423Y-88986567D01*
X154371724Y-88866900D01*
X156881342Y-88866900D01*
X156863401Y-88900466D01*
X156778487Y-89180389D01*
X156749815Y-89471500D01*
X156778487Y-89762611D01*
X156863401Y-90042534D01*
X157001294Y-90300514D01*
X157186866Y-90526634D01*
X157412986Y-90712206D01*
X157482001Y-90749095D01*
X157482000Y-96932747D01*
X155680153Y-98735000D01*
X153994094Y-98735000D01*
X153957999Y-98731445D01*
X153921904Y-98735000D01*
X153921895Y-98735000D01*
X153813915Y-98745635D01*
X153675367Y-98787663D01*
X153547680Y-98855913D01*
X153435762Y-98947762D01*
X153412746Y-98975807D01*
X153122076Y-99266478D01*
X153016937Y-99109126D01*
X152872774Y-98964963D01*
X152703256Y-98851695D01*
X152514898Y-98773674D01*
X152314939Y-98733900D01*
X152249141Y-98733900D01*
X152245389Y-98730821D01*
X152182276Y-98679026D01*
X152182236Y-98679005D01*
X152182206Y-98678980D01*
X152121954Y-98646783D01*
X152050247Y-98608454D01*
X152050203Y-98608441D01*
X152050168Y-98608422D01*
X151983285Y-98588142D01*
X151906986Y-98564997D01*
X151906941Y-98564993D01*
X151906903Y-98564981D01*
X151885830Y-98562908D01*
X151819829Y-98508742D01*
X151683582Y-98435916D01*
X151535745Y-98391071D01*
X151382000Y-98375928D01*
X149732000Y-98375928D01*
X149578255Y-98391071D01*
X149430418Y-98435916D01*
X149294171Y-98508742D01*
X149174749Y-98606749D01*
X149076742Y-98726171D01*
X149003916Y-98862418D01*
X148959071Y-99010255D01*
X148943928Y-99164000D01*
X148943928Y-99464000D01*
X148959071Y-99617745D01*
X149003916Y-99765582D01*
X149076742Y-99901829D01*
X149115454Y-99949000D01*
X149076742Y-99996171D01*
X149003916Y-100132418D01*
X148959071Y-100280255D01*
X148943928Y-100434000D01*
X148943928Y-100734000D01*
X148959071Y-100887745D01*
X149003916Y-101035582D01*
X149076742Y-101171829D01*
X149115454Y-101219000D01*
X149076742Y-101266171D01*
X149003916Y-101402418D01*
X148959071Y-101550255D01*
X148943928Y-101704000D01*
X148943928Y-102004000D01*
X148959071Y-102157745D01*
X149003916Y-102305582D01*
X149075730Y-102439936D01*
X149051463Y-102469506D01*
X148992498Y-102579820D01*
X148956188Y-102699518D01*
X148943928Y-102824000D01*
X148947000Y-102838250D01*
X149105750Y-102997000D01*
X150430000Y-102997000D01*
X150430000Y-102977000D01*
X150684000Y-102977000D01*
X150684000Y-102997000D01*
X152008250Y-102997000D01*
X152167000Y-102838250D01*
X152170072Y-102824000D01*
X152157812Y-102699518D01*
X152121502Y-102579820D01*
X152062537Y-102469506D01*
X152038270Y-102439936D01*
X152110084Y-102305582D01*
X152148481Y-102179000D01*
X152583895Y-102179000D01*
X152620000Y-102182556D01*
X152656105Y-102179000D01*
X152764085Y-102168365D01*
X152902633Y-102126337D01*
X153030320Y-102058087D01*
X153142238Y-101966238D01*
X153165258Y-101938188D01*
X154448447Y-100655000D01*
X157590554Y-100655000D01*
X162683746Y-105748193D01*
X162706762Y-105776238D01*
X162818680Y-105868087D01*
X162946367Y-105936337D01*
X163042886Y-105965616D01*
X163084914Y-105978365D01*
X163099132Y-105979765D01*
X163192895Y-105989000D01*
X163192902Y-105989000D01*
X163228999Y-105992555D01*
X163265096Y-105989000D01*
X164130380Y-105989000D01*
X164509628Y-106368555D01*
X164478688Y-106399495D01*
X164310701Y-106650905D01*
X164194989Y-106930257D01*
X164136000Y-107226816D01*
X164136000Y-107529184D01*
X164194989Y-107825743D01*
X164310701Y-108105095D01*
X164478688Y-108356505D01*
X164511366Y-108389183D01*
X164490970Y-108409578D01*
X164606918Y-108525526D01*
X164352739Y-108609208D01*
X164221842Y-108881775D01*
X164146635Y-109174642D01*
X164130009Y-109476553D01*
X164172603Y-109775907D01*
X164272778Y-110061199D01*
X164352739Y-110210792D01*
X164606918Y-110294474D01*
X164490970Y-110410422D01*
X164511366Y-110430818D01*
X164478688Y-110463495D01*
X164310701Y-110714905D01*
X164194989Y-110994257D01*
X164136000Y-111290816D01*
X164136000Y-111593184D01*
X164194989Y-111889743D01*
X164310701Y-112169095D01*
X164478688Y-112420505D01*
X164511366Y-112453183D01*
X164490970Y-112473578D01*
X164606918Y-112589526D01*
X164352739Y-112673208D01*
X164221842Y-112945775D01*
X164146635Y-113238642D01*
X164130009Y-113540553D01*
X164172603Y-113839907D01*
X164257258Y-114081000D01*
X156614107Y-114081000D01*
X156820475Y-113874632D01*
X156982990Y-113631411D01*
X157094932Y-113361158D01*
X157152000Y-113074260D01*
X157152000Y-112781740D01*
X157094932Y-112494842D01*
X156982990Y-112224589D01*
X156820475Y-111981368D01*
X156613632Y-111774525D01*
X156439240Y-111658000D01*
X156613632Y-111541475D01*
X156820475Y-111334632D01*
X156982990Y-111091411D01*
X157094932Y-110821158D01*
X157152000Y-110534260D01*
X157152000Y-110241740D01*
X157094932Y-109954842D01*
X156982990Y-109684589D01*
X156820475Y-109441368D01*
X156613632Y-109234525D01*
X156439240Y-109118000D01*
X156613632Y-109001475D01*
X156820475Y-108794632D01*
X156982990Y-108551411D01*
X157094932Y-108281158D01*
X157152000Y-107994260D01*
X157152000Y-107701740D01*
X157094932Y-107414842D01*
X156982990Y-107144589D01*
X156820475Y-106901368D01*
X156613632Y-106694525D01*
X156439240Y-106578000D01*
X156613632Y-106461475D01*
X156820475Y-106254632D01*
X156982990Y-106011411D01*
X157094932Y-105741158D01*
X157152000Y-105454260D01*
X157152000Y-105161740D01*
X157094932Y-104874842D01*
X156982990Y-104604589D01*
X156820475Y-104361368D01*
X156613632Y-104154525D01*
X156439240Y-104038000D01*
X156613632Y-103921475D01*
X156820475Y-103714632D01*
X156982990Y-103471411D01*
X157094932Y-103201158D01*
X157152000Y-102914260D01*
X157152000Y-102621740D01*
X157094932Y-102334842D01*
X156982990Y-102064589D01*
X156820475Y-101821368D01*
X156613632Y-101614525D01*
X156370411Y-101452010D01*
X156100158Y-101340068D01*
X155813260Y-101283000D01*
X155520740Y-101283000D01*
X155233842Y-101340068D01*
X154963589Y-101452010D01*
X154720368Y-101614525D01*
X154513525Y-101821368D01*
X154351010Y-102064589D01*
X154239068Y-102334842D01*
X154182000Y-102621740D01*
X154182000Y-102914260D01*
X154225791Y-103134408D01*
X153790998Y-103569201D01*
X153762000Y-103592999D01*
X153738202Y-103621997D01*
X153738201Y-103621998D01*
X153667026Y-103708724D01*
X153596454Y-103840754D01*
X153595642Y-103843432D01*
X153552998Y-103984014D01*
X153543151Y-104083990D01*
X153538324Y-104133000D01*
X153542001Y-104170332D01*
X153542000Y-108638198D01*
X152975458Y-109204741D01*
X152947537Y-109152506D01*
X152868185Y-109055815D01*
X152771494Y-108976463D01*
X152661180Y-108917498D01*
X152541482Y-108881188D01*
X152417000Y-108868928D01*
X152177750Y-108872000D01*
X152019000Y-109030750D01*
X152019000Y-109855000D01*
X152039000Y-109855000D01*
X152039000Y-110034000D01*
X151745000Y-110034000D01*
X151745000Y-109855000D01*
X151765000Y-109855000D01*
X151765000Y-109030750D01*
X151606250Y-108872000D01*
X151367000Y-108868928D01*
X151242518Y-108881188D01*
X151122820Y-108917498D01*
X151012506Y-108976463D01*
X150939839Y-109036099D01*
X150915942Y-109016488D01*
X150764567Y-108935577D01*
X150600316Y-108885752D01*
X150429500Y-108868928D01*
X149854500Y-108868928D01*
X149683684Y-108885752D01*
X149519433Y-108935577D01*
X149368058Y-109016488D01*
X149235377Y-109125377D01*
X149126488Y-109258058D01*
X149045577Y-109409433D01*
X148995752Y-109573684D01*
X148978928Y-109744500D01*
X148978928Y-110219500D01*
X148995752Y-110390316D01*
X149045577Y-110554567D01*
X149126488Y-110705942D01*
X149235377Y-110838623D01*
X149368058Y-110947512D01*
X149519433Y-111028423D01*
X149683684Y-111078248D01*
X149854500Y-111095072D01*
X150180270Y-111095072D01*
X150390205Y-111305008D01*
X150413999Y-111334001D01*
X150442992Y-111357795D01*
X150442996Y-111357799D01*
X150499908Y-111404505D01*
X150529724Y-111428974D01*
X150661753Y-111499546D01*
X150805014Y-111543003D01*
X150916667Y-111554000D01*
X150916676Y-111554000D01*
X150953999Y-111557676D01*
X150991322Y-111554000D01*
X152423678Y-111554000D01*
X152461000Y-111557676D01*
X152498322Y-111554000D01*
X152498333Y-111554000D01*
X152609986Y-111543003D01*
X152753247Y-111499546D01*
X152885276Y-111428974D01*
X153001001Y-111334001D01*
X153024804Y-111304997D01*
X154205325Y-110124476D01*
X154182000Y-110241740D01*
X154182000Y-110534260D01*
X154239068Y-110821158D01*
X154351010Y-111091411D01*
X154513525Y-111334632D01*
X154720368Y-111541475D01*
X154894760Y-111658000D01*
X154720368Y-111774525D01*
X154513525Y-111981368D01*
X154351010Y-112224589D01*
X154239068Y-112494842D01*
X154182000Y-112781740D01*
X154182000Y-113074260D01*
X154239068Y-113361158D01*
X154351010Y-113631411D01*
X154513525Y-113874632D01*
X154719893Y-114081000D01*
X149471595Y-114081000D01*
X149473072Y-114066000D01*
X149473072Y-112066000D01*
X149460812Y-111941518D01*
X149424502Y-111821820D01*
X149365537Y-111711506D01*
X149286185Y-111614815D01*
X149189494Y-111535463D01*
X149079180Y-111476498D01*
X148959482Y-111440188D01*
X148835000Y-111427928D01*
X147735000Y-111427928D01*
X147610518Y-111440188D01*
X147490820Y-111476498D01*
X147380506Y-111535463D01*
X147283815Y-111614815D01*
X147204463Y-111711506D01*
X147196668Y-111726089D01*
X146908577Y-111437999D01*
X146943180Y-111427502D01*
X147053494Y-111368537D01*
X147150185Y-111289185D01*
X147229537Y-111192494D01*
X147288502Y-111082180D01*
X147324812Y-110962482D01*
X147337072Y-110838000D01*
X147334000Y-110648750D01*
X147175250Y-110490000D01*
X146301000Y-110490000D01*
X146301000Y-110510000D01*
X146047000Y-110510000D01*
X146047000Y-110490000D01*
X146027000Y-110490000D01*
X146027000Y-110236000D01*
X146047000Y-110236000D01*
X146047000Y-109411750D01*
X146301000Y-109411750D01*
X146301000Y-110236000D01*
X147175250Y-110236000D01*
X147334000Y-110077250D01*
X147337072Y-109888000D01*
X147324812Y-109763518D01*
X147288502Y-109643820D01*
X147229537Y-109533506D01*
X147150185Y-109436815D01*
X147053494Y-109357463D01*
X146943180Y-109298498D01*
X146823482Y-109262188D01*
X146699000Y-109249928D01*
X146459750Y-109253000D01*
X146301000Y-109411750D01*
X146047000Y-109411750D01*
X145888250Y-109253000D01*
X145649000Y-109249928D01*
X145524518Y-109262188D01*
X145404820Y-109298498D01*
X145294506Y-109357463D01*
X145221839Y-109417099D01*
X145197942Y-109397488D01*
X145046567Y-109316577D01*
X144882316Y-109266752D01*
X144711500Y-109249928D01*
X144136500Y-109249928D01*
X143965684Y-109266752D01*
X143801433Y-109316577D01*
X143650058Y-109397488D01*
X143551954Y-109478000D01*
X141604952Y-109478000D01*
X141580475Y-109441368D01*
X141373632Y-109234525D01*
X141199240Y-109118000D01*
X141373632Y-109001475D01*
X141580475Y-108794632D01*
X141742990Y-108551411D01*
X141854932Y-108281158D01*
X141912000Y-107994260D01*
X141912000Y-107701740D01*
X141854932Y-107414842D01*
X141742990Y-107144589D01*
X141580475Y-106901368D01*
X141373632Y-106694525D01*
X141233529Y-106600912D01*
X141397920Y-106491069D01*
X141610069Y-106278920D01*
X141751002Y-106068000D01*
X143385678Y-106068000D01*
X143423000Y-106071676D01*
X143460322Y-106068000D01*
X143460333Y-106068000D01*
X143571986Y-106057003D01*
X143715247Y-106013546D01*
X143847276Y-105942974D01*
X143963001Y-105848001D01*
X143986804Y-105818998D01*
X145743731Y-104062072D01*
X146432000Y-104062072D01*
X146585745Y-104046929D01*
X146733582Y-104002084D01*
X146869829Y-103929258D01*
X146989251Y-103831251D01*
X147087258Y-103711829D01*
X147160084Y-103575582D01*
X147204929Y-103427745D01*
X147205297Y-103424000D01*
X148943928Y-103424000D01*
X148956188Y-103548482D01*
X148992498Y-103668180D01*
X149051463Y-103778494D01*
X149130815Y-103875185D01*
X149227506Y-103954537D01*
X149337820Y-104013502D01*
X149457518Y-104049812D01*
X149582000Y-104062072D01*
X150271250Y-104059000D01*
X150430000Y-103900250D01*
X150430000Y-103251000D01*
X150684000Y-103251000D01*
X150684000Y-103900250D01*
X150842750Y-104059000D01*
X151532000Y-104062072D01*
X151656482Y-104049812D01*
X151776180Y-104013502D01*
X151886494Y-103954537D01*
X151983185Y-103875185D01*
X152062537Y-103778494D01*
X152121502Y-103668180D01*
X152157812Y-103548482D01*
X152170072Y-103424000D01*
X152167000Y-103409750D01*
X152008250Y-103251000D01*
X150684000Y-103251000D01*
X150430000Y-103251000D01*
X149105750Y-103251000D01*
X148947000Y-103409750D01*
X148943928Y-103424000D01*
X147205297Y-103424000D01*
X147220072Y-103274000D01*
X147220072Y-102974000D01*
X147204929Y-102820255D01*
X147160084Y-102672418D01*
X147088270Y-102538064D01*
X147112537Y-102508494D01*
X147171502Y-102398180D01*
X147207812Y-102278482D01*
X147220072Y-102154000D01*
X147217000Y-102139750D01*
X147058250Y-101981000D01*
X145734000Y-101981000D01*
X145734000Y-102001000D01*
X145480000Y-102001000D01*
X145480000Y-101981000D01*
X145460000Y-101981000D01*
X145460000Y-101727000D01*
X145480000Y-101727000D01*
X145480000Y-101707000D01*
X145734000Y-101707000D01*
X145734000Y-101727000D01*
X147058250Y-101727000D01*
X147217000Y-101568250D01*
X147220072Y-101554000D01*
X147207812Y-101429518D01*
X147171502Y-101309820D01*
X147112537Y-101199506D01*
X147088270Y-101169936D01*
X147160084Y-101035582D01*
X147204929Y-100887745D01*
X147220072Y-100734000D01*
X147220072Y-100434000D01*
X147204929Y-100280255D01*
X147160084Y-100132418D01*
X147087258Y-99996171D01*
X147048546Y-99949000D01*
X147087258Y-99901829D01*
X147160084Y-99765582D01*
X147204929Y-99617745D01*
X147220072Y-99464000D01*
X147220072Y-99164000D01*
X147204929Y-99010255D01*
X147160084Y-98862418D01*
X147087258Y-98726171D01*
X146989251Y-98606749D01*
X146869829Y-98508742D01*
X146733582Y-98435916D01*
X146585745Y-98391071D01*
X146432000Y-98375928D01*
X144782000Y-98375928D01*
X144628255Y-98391071D01*
X144480418Y-98435916D01*
X144344171Y-98508742D01*
X144224749Y-98606749D01*
X144126742Y-98726171D01*
X144116946Y-98744498D01*
X144080999Y-98773999D01*
X144057201Y-98802997D01*
X138670998Y-104189201D01*
X138642000Y-104212999D01*
X138618202Y-104241997D01*
X138618201Y-104241998D01*
X138547026Y-104328724D01*
X138476454Y-104460754D01*
X138459000Y-104518294D01*
X138459000Y-88371765D01*
X138572125Y-88258640D01*
X138574000Y-88255834D01*
X138575875Y-88258640D01*
X138754860Y-88437625D01*
X138965324Y-88578253D01*
X139199179Y-88675119D01*
X139447439Y-88724500D01*
X139700561Y-88724500D01*
X139948821Y-88675119D01*
X140182676Y-88578253D01*
X140393140Y-88437625D01*
X140572125Y-88258640D01*
X140574000Y-88255834D01*
X140575875Y-88258640D01*
X140754860Y-88437625D01*
X140965324Y-88578253D01*
X141199179Y-88675119D01*
X141447439Y-88724500D01*
X141700561Y-88724500D01*
X141948821Y-88675119D01*
X142182676Y-88578253D01*
X142393140Y-88437625D01*
X142572125Y-88258640D01*
X142574000Y-88255834D01*
X142575875Y-88258640D01*
X142754860Y-88437625D01*
X142965324Y-88578253D01*
X143199179Y-88675119D01*
X143447439Y-88724500D01*
X143700561Y-88724500D01*
X143948821Y-88675119D01*
X144182676Y-88578253D01*
X144393140Y-88437625D01*
X144572125Y-88258640D01*
X144574000Y-88255834D01*
X144575875Y-88258640D01*
X144754860Y-88437625D01*
X144965324Y-88578253D01*
X145199179Y-88675119D01*
X145447439Y-88724500D01*
X145700561Y-88724500D01*
X145948821Y-88675119D01*
X146182676Y-88578253D01*
X146393140Y-88437625D01*
X146505738Y-88325027D01*
X146868078Y-88325027D01*
X146921466Y-88553701D01*
X147151374Y-88659595D01*
X147397524Y-88718602D01*
X147650455Y-88728452D01*
X147900449Y-88688770D01*
X148137896Y-88601078D01*
X148226534Y-88553701D01*
X148279922Y-88325027D01*
X147574000Y-87619105D01*
X146868078Y-88325027D01*
X146505738Y-88325027D01*
X146572125Y-88258640D01*
X146653267Y-88137203D01*
X146688473Y-88145422D01*
X147394395Y-87439500D01*
X147753605Y-87439500D01*
X148459527Y-88145422D01*
X148688201Y-88092034D01*
X148794095Y-87862126D01*
X148853102Y-87615976D01*
X148862952Y-87363045D01*
X148823270Y-87113051D01*
X148735578Y-86875604D01*
X148688201Y-86786966D01*
X148459527Y-86733578D01*
X147753605Y-87439500D01*
X147394395Y-87439500D01*
X146688473Y-86733578D01*
X146653267Y-86741797D01*
X146572125Y-86620360D01*
X146505738Y-86553973D01*
X146868078Y-86553973D01*
X147574000Y-87259895D01*
X148279922Y-86553973D01*
X148226534Y-86325299D01*
X147996626Y-86219405D01*
X147750476Y-86160398D01*
X147497545Y-86150548D01*
X147247551Y-86190230D01*
X147010104Y-86277922D01*
X146921466Y-86325299D01*
X146868078Y-86553973D01*
X146505738Y-86553973D01*
X146393140Y-86441375D01*
X146182676Y-86300747D01*
X145948821Y-86203881D01*
X145700561Y-86154500D01*
X145447439Y-86154500D01*
X145199179Y-86203881D01*
X144965324Y-86300747D01*
X144754860Y-86441375D01*
X144575875Y-86620360D01*
X144574000Y-86623166D01*
X144572125Y-86620360D01*
X144393140Y-86441375D01*
X144182676Y-86300747D01*
X143948821Y-86203881D01*
X143700561Y-86154500D01*
X143447439Y-86154500D01*
X143199179Y-86203881D01*
X142965324Y-86300747D01*
X142754860Y-86441375D01*
X142575875Y-86620360D01*
X142574000Y-86623166D01*
X142572125Y-86620360D01*
X142393140Y-86441375D01*
X142182676Y-86300747D01*
X141948821Y-86203881D01*
X141700561Y-86154500D01*
X141447439Y-86154500D01*
X141199179Y-86203881D01*
X140965324Y-86300747D01*
X140754860Y-86441375D01*
X140575875Y-86620360D01*
X140574000Y-86623166D01*
X140572125Y-86620360D01*
X140393140Y-86441375D01*
X140182676Y-86300747D01*
X139948821Y-86203881D01*
X139700561Y-86154500D01*
X139447439Y-86154500D01*
X139199179Y-86203881D01*
X138965324Y-86300747D01*
X138754860Y-86441375D01*
X138575875Y-86620360D01*
X138574000Y-86623166D01*
X138572125Y-86620360D01*
X138393140Y-86441375D01*
X138182676Y-86300747D01*
X137948821Y-86203881D01*
X137700561Y-86154500D01*
X137447439Y-86154500D01*
X137199179Y-86203881D01*
X136965324Y-86300747D01*
X136754860Y-86441375D01*
X136575875Y-86620360D01*
X136435247Y-86830824D01*
X136338381Y-87064679D01*
X136289000Y-87312939D01*
X134660002Y-87312939D01*
X134660002Y-82175019D01*
X134753513Y-82400774D01*
X135030938Y-82815969D01*
X135384033Y-83169064D01*
X135799228Y-83446489D01*
X136260569Y-83637583D01*
X136750325Y-83735001D01*
X137249677Y-83735001D01*
X137739433Y-83637583D01*
X138200774Y-83446489D01*
X138609083Y-83173665D01*
X164173000Y-83173665D01*
X164173000Y-83456335D01*
X164228147Y-83733574D01*
X164336320Y-83994727D01*
X164493363Y-84229759D01*
X164693241Y-84429637D01*
X164928273Y-84586680D01*
X165189426Y-84694853D01*
X165466665Y-84750000D01*
X165749335Y-84750000D01*
X166026574Y-84694853D01*
X166287727Y-84586680D01*
X166522759Y-84429637D01*
X166722637Y-84229759D01*
X166879680Y-83994727D01*
X166937828Y-83854344D01*
X168563000Y-83854344D01*
X168563000Y-84225656D01*
X168635439Y-84589834D01*
X168777534Y-84932882D01*
X168983825Y-85241618D01*
X169246382Y-85504175D01*
X169555118Y-85710466D01*
X169898166Y-85852561D01*
X170262344Y-85925000D01*
X170633656Y-85925000D01*
X170997834Y-85852561D01*
X171340882Y-85710466D01*
X171649618Y-85504175D01*
X171912175Y-85241618D01*
X172118466Y-84932882D01*
X172260561Y-84589834D01*
X172333000Y-84225656D01*
X172333000Y-83854344D01*
X172260561Y-83490166D01*
X172118466Y-83147118D01*
X171912175Y-82838382D01*
X171649618Y-82575825D01*
X171340882Y-82369534D01*
X170997834Y-82227439D01*
X170633656Y-82155000D01*
X170262344Y-82155000D01*
X169898166Y-82227439D01*
X169555118Y-82369534D01*
X169246382Y-82575825D01*
X168983825Y-82838382D01*
X168777534Y-83147118D01*
X168635439Y-83490166D01*
X168563000Y-83854344D01*
X166937828Y-83854344D01*
X166987853Y-83733574D01*
X167043000Y-83456335D01*
X167043000Y-83173665D01*
X166987853Y-82896426D01*
X166879680Y-82635273D01*
X166722637Y-82400241D01*
X166522759Y-82200363D01*
X166287727Y-82043320D01*
X166026574Y-81935147D01*
X165749335Y-81880000D01*
X165466665Y-81880000D01*
X165189426Y-81935147D01*
X164928273Y-82043320D01*
X164693241Y-82200363D01*
X164493363Y-82400241D01*
X164336320Y-82635273D01*
X164228147Y-82896426D01*
X164173000Y-83173665D01*
X138609083Y-83173665D01*
X138615969Y-83169064D01*
X138969064Y-82815969D01*
X139246489Y-82400774D01*
X139437583Y-81939433D01*
X139535001Y-81449677D01*
X139535001Y-80950325D01*
X139437583Y-80460569D01*
X139246489Y-79999228D01*
X138969064Y-79584033D01*
X138615969Y-79230938D01*
X138200774Y-78953513D01*
X137975019Y-78860002D01*
X173024987Y-78860000D01*
X172799227Y-78953513D01*
X172799227Y-78953513D01*
G37*
X172799227Y-78953513D02*
X172384032Y-79230938D01*
X172030937Y-79584033D01*
X171753512Y-79999228D01*
X171562418Y-80460569D01*
X171465000Y-80950325D01*
X171465000Y-81449677D01*
X171562418Y-81939433D01*
X171753512Y-82400774D01*
X172030937Y-82815969D01*
X172384032Y-83169064D01*
X172799227Y-83446489D01*
X173260568Y-83637583D01*
X173750324Y-83735001D01*
X174249676Y-83735001D01*
X174739432Y-83637583D01*
X175200773Y-83446489D01*
X175615968Y-83169064D01*
X175969063Y-82815969D01*
X176246488Y-82400774D01*
X176340001Y-82175014D01*
X176340000Y-120224985D01*
X176246488Y-119999227D01*
X175969063Y-119584032D01*
X175615968Y-119230937D01*
X175200773Y-118953512D01*
X174739432Y-118762418D01*
X174249676Y-118665000D01*
X173750324Y-118665000D01*
X173260568Y-118762418D01*
X172799227Y-118953512D01*
X172384032Y-119230937D01*
X172030937Y-119584032D01*
X171753512Y-119999227D01*
X171562418Y-120460568D01*
X171465000Y-120950324D01*
X171465000Y-121449676D01*
X171562418Y-121939432D01*
X171753512Y-122400773D01*
X172030937Y-122815968D01*
X172384032Y-123169063D01*
X172799227Y-123446488D01*
X173024985Y-123540000D01*
X137975016Y-123540000D01*
X138200774Y-123446488D01*
X138615969Y-123169063D01*
X138969064Y-122815968D01*
X139246489Y-122400773D01*
X139437583Y-121939432D01*
X139535001Y-121449676D01*
X139535001Y-120950324D01*
X139437583Y-120460568D01*
X139246489Y-119999227D01*
X138969064Y-119584032D01*
X138615969Y-119230937D01*
X138200774Y-118953512D01*
X138114232Y-118917665D01*
X164236000Y-118917665D01*
X164236000Y-119200335D01*
X164291147Y-119477574D01*
X164399320Y-119738727D01*
X164556363Y-119973759D01*
X164756241Y-120173637D01*
X164991273Y-120330680D01*
X165252426Y-120438853D01*
X165529665Y-120494000D01*
X165812335Y-120494000D01*
X166089574Y-120438853D01*
X166350727Y-120330680D01*
X166585759Y-120173637D01*
X166785637Y-119973759D01*
X166942680Y-119738727D01*
X167050853Y-119477574D01*
X167106000Y-119200335D01*
X167106000Y-118917665D01*
X167050853Y-118640426D01*
X166942680Y-118379273D01*
X166788379Y-118148344D01*
X168626000Y-118148344D01*
X168626000Y-118519656D01*
X168698439Y-118883834D01*
X168840534Y-119226882D01*
X169046825Y-119535618D01*
X169309382Y-119798175D01*
X169618118Y-120004466D01*
X169961166Y-120146561D01*
X170325344Y-120219000D01*
X170696656Y-120219000D01*
X171060834Y-120146561D01*
X171403882Y-120004466D01*
X171712618Y-119798175D01*
X171975175Y-119535618D01*
X172181466Y-119226882D01*
X172323561Y-118883834D01*
X172396000Y-118519656D01*
X172396000Y-118148344D01*
X172323561Y-117784166D01*
X172181466Y-117441118D01*
X171975175Y-117132382D01*
X171712618Y-116869825D01*
X171403882Y-116663534D01*
X171060834Y-116521439D01*
X170696656Y-116449000D01*
X170325344Y-116449000D01*
X169961166Y-116521439D01*
X169618118Y-116663534D01*
X169309382Y-116869825D01*
X169046825Y-117132382D01*
X168840534Y-117441118D01*
X168698439Y-117784166D01*
X168626000Y-118148344D01*
X166788379Y-118148344D01*
X166785637Y-118144241D01*
X166585759Y-117944363D01*
X166350727Y-117787320D01*
X166089574Y-117679147D01*
X165812335Y-117624000D01*
X165529665Y-117624000D01*
X165252426Y-117679147D01*
X164991273Y-117787320D01*
X164756241Y-117944363D01*
X164556363Y-118144241D01*
X164399320Y-118379273D01*
X164291147Y-118640426D01*
X164236000Y-118917665D01*
X138114232Y-118917665D01*
X137739433Y-118762418D01*
X137249677Y-118665000D01*
X136750325Y-118665000D01*
X136260569Y-118762418D01*
X135799228Y-118953512D01*
X135384033Y-119230937D01*
X135030938Y-119584032D01*
X134753513Y-119999227D01*
X134660002Y-120224982D01*
X134660002Y-87312939D01*
X136289000Y-87312939D01*
X136289000Y-87566061D01*
X136338381Y-87814321D01*
X136435247Y-88048176D01*
X136575875Y-88258640D01*
X136689001Y-88371766D01*
X136689000Y-112603531D01*
X136684719Y-112647000D01*
X136689000Y-112690469D01*
X136689000Y-112690476D01*
X136701805Y-112820489D01*
X136752411Y-112987312D01*
X136834589Y-113141058D01*
X136945183Y-113275817D01*
X136978956Y-113303534D01*
X139236470Y-115561049D01*
X139264183Y-115594817D01*
X139297951Y-115622530D01*
X139297953Y-115622532D01*
X139369452Y-115681210D01*
X139398941Y-115705411D01*
X139552687Y-115787589D01*
X139719510Y-115838195D01*
X139849523Y-115851000D01*
X139849533Y-115851000D01*
X139892999Y-115855281D01*
X139936465Y-115851000D01*
X147325019Y-115851000D01*
X147380506Y-115896537D01*
X147490820Y-115955502D01*
X147610518Y-115991812D01*
X147735000Y-116004072D01*
X148835000Y-116004072D01*
X148959482Y-115991812D01*
X149079180Y-115955502D01*
X149189494Y-115896537D01*
X149244981Y-115851000D01*
X167485597Y-115851000D01*
X167763257Y-115966011D01*
X168059816Y-116025000D01*
X168362184Y-116025000D01*
X168658743Y-115966011D01*
X168938095Y-115850299D01*
X169189505Y-115682312D01*
X169403312Y-115468505D01*
X169571299Y-115217095D01*
X169687011Y-114937743D01*
X169746000Y-114641184D01*
X169746000Y-114338816D01*
X169687011Y-114042257D01*
X169571299Y-113762905D01*
X169403312Y-113511495D01*
X169365817Y-113474000D01*
X169403312Y-113436505D01*
X169571299Y-113185095D01*
X169687011Y-112905743D01*
X169746000Y-112609184D01*
X169746000Y-112306816D01*
X169687011Y-112010257D01*
X169571299Y-111730905D01*
X169403312Y-111479495D01*
X169365817Y-111442000D01*
X169403312Y-111404505D01*
X169571299Y-111153095D01*
X169687011Y-110873743D01*
X169746000Y-110577184D01*
X169746000Y-110274816D01*
X169687011Y-109978257D01*
X169571299Y-109698905D01*
X169403312Y-109447495D01*
X169365817Y-109410000D01*
X169390817Y-109385000D01*
X173544895Y-109385000D01*
X173581000Y-109388556D01*
X173617105Y-109385000D01*
X173725085Y-109374365D01*
X173863633Y-109332337D01*
X173991320Y-109264087D01*
X174103238Y-109172238D01*
X174126259Y-109144187D01*
X174439187Y-108831259D01*
X174467238Y-108808238D01*
X174559087Y-108696320D01*
X174605649Y-108609208D01*
X174627337Y-108568634D01*
X174669365Y-108430085D01*
X174683556Y-108286000D01*
X174680000Y-108249895D01*
X174680000Y-107650234D01*
X174683556Y-107614257D01*
X174680000Y-107578023D01*
X174680000Y-107577895D01*
X174676467Y-107542027D01*
X174669415Y-107470167D01*
X174669378Y-107470044D01*
X174669365Y-107469915D01*
X174648291Y-107400442D01*
X174627435Y-107331604D01*
X174627375Y-107331491D01*
X174627337Y-107331367D01*
X174592687Y-107266542D01*
X174559229Y-107203894D01*
X174559150Y-107203797D01*
X174559087Y-107203680D01*
X174513196Y-107147762D01*
X174490425Y-107119996D01*
X174490332Y-107119903D01*
X174467237Y-107091762D01*
X174439296Y-107068831D01*
X173055339Y-105683910D01*
X173032238Y-105655762D01*
X172974480Y-105608361D01*
X172920533Y-105564057D01*
X172920425Y-105563999D01*
X172920320Y-105563913D01*
X172854585Y-105528777D01*
X172792871Y-105495762D01*
X172792749Y-105495725D01*
X172792633Y-105495663D01*
X172721800Y-105474176D01*
X172654337Y-105453686D01*
X172654213Y-105453674D01*
X172654085Y-105453635D01*
X172581085Y-105446445D01*
X172510257Y-105439444D01*
X172474023Y-105443000D01*
X166299447Y-105443000D01*
X165166258Y-104309812D01*
X165143238Y-104281762D01*
X165031320Y-104189913D01*
X164903633Y-104121663D01*
X164765085Y-104079635D01*
X164657105Y-104069000D01*
X164621000Y-104065444D01*
X164584895Y-104069000D01*
X163719447Y-104069000D01*
X162318112Y-102667665D01*
X164236000Y-102667665D01*
X164236000Y-102950335D01*
X164291147Y-103227574D01*
X164399320Y-103488727D01*
X164556363Y-103723759D01*
X164756241Y-103923637D01*
X164991273Y-104080680D01*
X165252426Y-104188853D01*
X165529665Y-104244000D01*
X165812335Y-104244000D01*
X166089574Y-104188853D01*
X166350727Y-104080680D01*
X166585759Y-103923637D01*
X166785637Y-103723759D01*
X166942680Y-103488727D01*
X167000828Y-103348344D01*
X168626000Y-103348344D01*
X168626000Y-103719656D01*
X168698439Y-104083834D01*
X168840534Y-104426882D01*
X169046825Y-104735618D01*
X169309382Y-104998175D01*
X169618118Y-105204466D01*
X169961166Y-105346561D01*
X170325344Y-105419000D01*
X170696656Y-105419000D01*
X171060834Y-105346561D01*
X171403882Y-105204466D01*
X171712618Y-104998175D01*
X171975175Y-104735618D01*
X172181466Y-104426882D01*
X172323561Y-104083834D01*
X172396000Y-103719656D01*
X172396000Y-103348344D01*
X172323561Y-102984166D01*
X172181466Y-102641118D01*
X171975175Y-102332382D01*
X171712618Y-102069825D01*
X171403882Y-101863534D01*
X171060834Y-101721439D01*
X170696656Y-101649000D01*
X170325344Y-101649000D01*
X169961166Y-101721439D01*
X169618118Y-101863534D01*
X169309382Y-102069825D01*
X169046825Y-102332382D01*
X168840534Y-102641118D01*
X168698439Y-102984166D01*
X168626000Y-103348344D01*
X167000828Y-103348344D01*
X167050853Y-103227574D01*
X167106000Y-102950335D01*
X167106000Y-102667665D01*
X167050853Y-102390426D01*
X166942680Y-102129273D01*
X166785637Y-101894241D01*
X166585759Y-101694363D01*
X166350727Y-101537320D01*
X166089574Y-101429147D01*
X165812335Y-101374000D01*
X165529665Y-101374000D01*
X165252426Y-101429147D01*
X164991273Y-101537320D01*
X164756241Y-101694363D01*
X164556363Y-101894241D01*
X164399320Y-102129273D01*
X164291147Y-102390426D01*
X164236000Y-102667665D01*
X162318112Y-102667665D01*
X159074112Y-99423665D01*
X164173000Y-99423665D01*
X164173000Y-99706335D01*
X164228147Y-99983574D01*
X164336320Y-100244727D01*
X164493363Y-100479759D01*
X164693241Y-100679637D01*
X164928273Y-100836680D01*
X165189426Y-100944853D01*
X165466665Y-101000000D01*
X165749335Y-101000000D01*
X166026574Y-100944853D01*
X166287727Y-100836680D01*
X166522759Y-100679637D01*
X166722637Y-100479759D01*
X166879680Y-100244727D01*
X166987853Y-99983574D01*
X167043000Y-99706335D01*
X167043000Y-99423665D01*
X166987853Y-99146426D01*
X166879680Y-98885273D01*
X166725379Y-98654344D01*
X168563000Y-98654344D01*
X168563000Y-99025656D01*
X168635439Y-99389834D01*
X168777534Y-99732882D01*
X168983825Y-100041618D01*
X169246382Y-100304175D01*
X169555118Y-100510466D01*
X169898166Y-100652561D01*
X170262344Y-100725000D01*
X170633656Y-100725000D01*
X170997834Y-100652561D01*
X171340882Y-100510466D01*
X171649618Y-100304175D01*
X171912175Y-100041618D01*
X172118466Y-99732882D01*
X172260561Y-99389834D01*
X172333000Y-99025656D01*
X172333000Y-98654344D01*
X172260561Y-98290166D01*
X172118466Y-97947118D01*
X171912175Y-97638382D01*
X171649618Y-97375825D01*
X171340882Y-97169534D01*
X170997834Y-97027439D01*
X170633656Y-96955000D01*
X170262344Y-96955000D01*
X169898166Y-97027439D01*
X169555118Y-97169534D01*
X169246382Y-97375825D01*
X168983825Y-97638382D01*
X168777534Y-97947118D01*
X168635439Y-98290166D01*
X168563000Y-98654344D01*
X166725379Y-98654344D01*
X166722637Y-98650241D01*
X166522759Y-98450363D01*
X166287727Y-98293320D01*
X166026574Y-98185147D01*
X165749335Y-98130000D01*
X165466665Y-98130000D01*
X165189426Y-98185147D01*
X164928273Y-98293320D01*
X164693241Y-98450363D01*
X164493363Y-98650241D01*
X164336320Y-98885273D01*
X164228147Y-99146426D01*
X164173000Y-99423665D01*
X159074112Y-99423665D01*
X158626259Y-98975813D01*
X158603238Y-98947762D01*
X158491320Y-98855913D01*
X158363633Y-98787663D01*
X158225085Y-98745635D01*
X158117105Y-98735000D01*
X158081000Y-98731444D01*
X158044895Y-98735000D01*
X157829516Y-98735000D01*
X158753037Y-97811271D01*
X158782001Y-97787501D01*
X158805827Y-97758469D01*
X158805856Y-97758440D01*
X158828524Y-97730812D01*
X158876974Y-97671776D01*
X158876995Y-97671737D01*
X158877021Y-97671705D01*
X158910144Y-97609720D01*
X158947546Y-97539747D01*
X158947559Y-97539703D01*
X158947578Y-97539668D01*
X158967507Y-97473943D01*
X158991003Y-97396486D01*
X158991008Y-97396440D01*
X158991019Y-97396402D01*
X158997632Y-97329179D01*
X159002000Y-97284833D01*
X159002000Y-97284781D01*
X159005676Y-97247415D01*
X159002000Y-97210133D01*
X159002000Y-90749095D01*
X159071014Y-90712206D01*
X159297134Y-90526634D01*
X159482706Y-90300514D01*
X159620599Y-90042534D01*
X159705513Y-89762611D01*
X159734185Y-89471500D01*
X159705513Y-89180389D01*
X159620599Y-88900466D01*
X159602658Y-88866900D01*
X164420083Y-88866900D01*
X164448366Y-88895183D01*
X164427970Y-88915578D01*
X164543918Y-89031526D01*
X164289739Y-89115208D01*
X164158842Y-89387775D01*
X164083635Y-89680642D01*
X164067009Y-89982553D01*
X164109603Y-90281907D01*
X164209778Y-90567199D01*
X164289739Y-90716792D01*
X164543918Y-90800474D01*
X164427970Y-90916422D01*
X164448366Y-90936818D01*
X164415688Y-90969495D01*
X164247701Y-91220905D01*
X164131989Y-91500257D01*
X164073000Y-91796816D01*
X164073000Y-92099184D01*
X164131989Y-92395743D01*
X164247701Y-92675095D01*
X164415688Y-92926505D01*
X164448366Y-92959183D01*
X164427970Y-92979578D01*
X164543918Y-93095526D01*
X164289739Y-93179208D01*
X164158842Y-93451775D01*
X164083635Y-93744642D01*
X164067009Y-94046553D01*
X164109603Y-94345907D01*
X164209778Y-94631199D01*
X164289739Y-94780792D01*
X164543920Y-94864475D01*
X165428395Y-93980000D01*
X165414253Y-93965858D01*
X165593858Y-93786253D01*
X165608000Y-93800395D01*
X165622143Y-93786253D01*
X165801748Y-93965858D01*
X165787605Y-93980000D01*
X165801748Y-93994143D01*
X165622143Y-94173748D01*
X165608000Y-94159605D01*
X164723525Y-95044080D01*
X164807208Y-95298261D01*
X165079775Y-95429158D01*
X165372642Y-95504365D01*
X165674553Y-95520991D01*
X165973907Y-95478397D01*
X166259199Y-95378222D01*
X166408792Y-95298261D01*
X166492474Y-95044082D01*
X166608422Y-95160030D01*
X166614372Y-95154080D01*
X166671989Y-95443743D01*
X166787701Y-95723095D01*
X166955688Y-95974505D01*
X167169495Y-96188312D01*
X167420905Y-96356299D01*
X167700257Y-96472011D01*
X167996816Y-96531000D01*
X168299184Y-96531000D01*
X168595743Y-96472011D01*
X168875095Y-96356299D01*
X169126505Y-96188312D01*
X169340312Y-95974505D01*
X169508299Y-95723095D01*
X169624011Y-95443743D01*
X169683000Y-95147184D01*
X169683000Y-94844816D01*
X169624011Y-94548257D01*
X169508299Y-94268905D01*
X169340312Y-94017495D01*
X169302817Y-93980000D01*
X169340312Y-93942505D01*
X169508299Y-93691095D01*
X169624011Y-93411743D01*
X169683000Y-93115184D01*
X169683000Y-92812816D01*
X169624011Y-92516257D01*
X169508299Y-92236905D01*
X169340312Y-91985495D01*
X169302817Y-91948000D01*
X169340312Y-91910505D01*
X169508299Y-91659095D01*
X169624011Y-91379743D01*
X169683000Y-91083184D01*
X169683000Y-90780816D01*
X169624011Y-90484257D01*
X169508299Y-90204905D01*
X169340312Y-89953495D01*
X169302817Y-89916000D01*
X169340312Y-89878505D01*
X169508299Y-89627095D01*
X169624011Y-89347743D01*
X169683000Y-89051184D01*
X169683000Y-88748816D01*
X169624011Y-88452257D01*
X169508299Y-88172905D01*
X169340312Y-87921495D01*
X169126505Y-87707688D01*
X168875095Y-87539701D01*
X168595743Y-87423989D01*
X168299184Y-87365000D01*
X167996816Y-87365000D01*
X167700257Y-87423989D01*
X167420905Y-87539701D01*
X167169495Y-87707688D01*
X167143000Y-87734183D01*
X167143000Y-87732816D01*
X167084011Y-87436257D01*
X166968299Y-87156905D01*
X166800312Y-86905495D01*
X166586505Y-86691688D01*
X166335095Y-86523701D01*
X166055743Y-86407989D01*
X165759184Y-86349000D01*
X165456816Y-86349000D01*
X165160257Y-86407989D01*
X164880905Y-86523701D01*
X164629495Y-86691688D01*
X164415688Y-86905495D01*
X164247701Y-87156905D01*
X164169002Y-87346900D01*
X159730072Y-87346900D01*
X159730072Y-86081500D01*
X159717812Y-85957018D01*
X159681502Y-85837320D01*
X159622537Y-85727006D01*
X159543185Y-85630315D01*
X159446494Y-85550963D01*
X159336180Y-85491998D01*
X159216482Y-85455688D01*
X159092000Y-85443428D01*
X157392000Y-85443428D01*
X157267518Y-85455688D01*
X157147820Y-85491998D01*
X157037506Y-85550963D01*
X156940815Y-85630315D01*
X156861463Y-85727006D01*
X156802498Y-85837320D01*
X156766188Y-85957018D01*
X156753928Y-86081500D01*
X156753928Y-86171500D01*
X154386806Y-86171500D01*
X154385248Y-86155684D01*
X154335423Y-85991433D01*
X154254512Y-85840058D01*
X154145623Y-85707377D01*
X154012942Y-85598488D01*
X153861567Y-85517577D01*
X153697316Y-85467752D01*
X153526500Y-85450928D01*
X153051500Y-85450928D01*
X152880684Y-85467752D01*
X152716433Y-85517577D01*
X152565058Y-85598488D01*
X152432377Y-85707377D01*
X152323488Y-85840058D01*
X152242577Y-85991433D01*
X152192752Y-86155684D01*
X152175928Y-86326500D01*
X152175928Y-86901500D01*
X152192752Y-87072316D01*
X152242577Y-87236567D01*
X152323488Y-87387942D01*
X152406425Y-87489000D01*
X152323488Y-87590058D01*
X152242577Y-87741433D01*
X152192752Y-87905684D01*
X152175928Y-88076500D01*
X152175928Y-88651500D01*
X152192752Y-88822316D01*
X152242577Y-88986567D01*
X152323488Y-89137942D01*
X152432377Y-89270623D01*
X152565058Y-89379512D01*
X152716433Y-89460423D01*
X152880684Y-89510248D01*
X153051500Y-89527072D01*
X153526500Y-89527072D01*
X153697316Y-89510248D01*
X153861567Y-89460423D01*
X154012942Y-89379512D01*
X154145623Y-89270623D01*
X154254512Y-89137942D01*
X154335423Y-88986567D01*
X154371724Y-88866900D01*
X156881342Y-88866900D01*
X156863401Y-88900466D01*
X156778487Y-89180389D01*
X156749815Y-89471500D01*
X156778487Y-89762611D01*
X156863401Y-90042534D01*
X157001294Y-90300514D01*
X157186866Y-90526634D01*
X157412986Y-90712206D01*
X157482001Y-90749095D01*
X157482000Y-96932747D01*
X155680153Y-98735000D01*
X153994094Y-98735000D01*
X153957999Y-98731445D01*
X153921904Y-98735000D01*
X153921895Y-98735000D01*
X153813915Y-98745635D01*
X153675367Y-98787663D01*
X153547680Y-98855913D01*
X153435762Y-98947762D01*
X153412746Y-98975807D01*
X153122076Y-99266478D01*
X153016937Y-99109126D01*
X152872774Y-98964963D01*
X152703256Y-98851695D01*
X152514898Y-98773674D01*
X152314939Y-98733900D01*
X152249141Y-98733900D01*
X152245389Y-98730821D01*
X152182276Y-98679026D01*
X152182236Y-98679005D01*
X152182206Y-98678980D01*
X152121954Y-98646783D01*
X152050247Y-98608454D01*
X152050203Y-98608441D01*
X152050168Y-98608422D01*
X151983285Y-98588142D01*
X151906986Y-98564997D01*
X151906941Y-98564993D01*
X151906903Y-98564981D01*
X151885830Y-98562908D01*
X151819829Y-98508742D01*
X151683582Y-98435916D01*
X151535745Y-98391071D01*
X151382000Y-98375928D01*
X149732000Y-98375928D01*
X149578255Y-98391071D01*
X149430418Y-98435916D01*
X149294171Y-98508742D01*
X149174749Y-98606749D01*
X149076742Y-98726171D01*
X149003916Y-98862418D01*
X148959071Y-99010255D01*
X148943928Y-99164000D01*
X148943928Y-99464000D01*
X148959071Y-99617745D01*
X149003916Y-99765582D01*
X149076742Y-99901829D01*
X149115454Y-99949000D01*
X149076742Y-99996171D01*
X149003916Y-100132418D01*
X148959071Y-100280255D01*
X148943928Y-100434000D01*
X148943928Y-100734000D01*
X148959071Y-100887745D01*
X149003916Y-101035582D01*
X149076742Y-101171829D01*
X149115454Y-101219000D01*
X149076742Y-101266171D01*
X149003916Y-101402418D01*
X148959071Y-101550255D01*
X148943928Y-101704000D01*
X148943928Y-102004000D01*
X148959071Y-102157745D01*
X149003916Y-102305582D01*
X149075730Y-102439936D01*
X149051463Y-102469506D01*
X148992498Y-102579820D01*
X148956188Y-102699518D01*
X148943928Y-102824000D01*
X148947000Y-102838250D01*
X149105750Y-102997000D01*
X150430000Y-102997000D01*
X150430000Y-102977000D01*
X150684000Y-102977000D01*
X150684000Y-102997000D01*
X152008250Y-102997000D01*
X152167000Y-102838250D01*
X152170072Y-102824000D01*
X152157812Y-102699518D01*
X152121502Y-102579820D01*
X152062537Y-102469506D01*
X152038270Y-102439936D01*
X152110084Y-102305582D01*
X152148481Y-102179000D01*
X152583895Y-102179000D01*
X152620000Y-102182556D01*
X152656105Y-102179000D01*
X152764085Y-102168365D01*
X152902633Y-102126337D01*
X153030320Y-102058087D01*
X153142238Y-101966238D01*
X153165258Y-101938188D01*
X154448447Y-100655000D01*
X157590554Y-100655000D01*
X162683746Y-105748193D01*
X162706762Y-105776238D01*
X162818680Y-105868087D01*
X162946367Y-105936337D01*
X163042886Y-105965616D01*
X163084914Y-105978365D01*
X163099132Y-105979765D01*
X163192895Y-105989000D01*
X163192902Y-105989000D01*
X163228999Y-105992555D01*
X163265096Y-105989000D01*
X164130380Y-105989000D01*
X164509628Y-106368555D01*
X164478688Y-106399495D01*
X164310701Y-106650905D01*
X164194989Y-106930257D01*
X164136000Y-107226816D01*
X164136000Y-107529184D01*
X164194989Y-107825743D01*
X164310701Y-108105095D01*
X164478688Y-108356505D01*
X164511366Y-108389183D01*
X164490970Y-108409578D01*
X164606918Y-108525526D01*
X164352739Y-108609208D01*
X164221842Y-108881775D01*
X164146635Y-109174642D01*
X164130009Y-109476553D01*
X164172603Y-109775907D01*
X164272778Y-110061199D01*
X164352739Y-110210792D01*
X164606918Y-110294474D01*
X164490970Y-110410422D01*
X164511366Y-110430818D01*
X164478688Y-110463495D01*
X164310701Y-110714905D01*
X164194989Y-110994257D01*
X164136000Y-111290816D01*
X164136000Y-111593184D01*
X164194989Y-111889743D01*
X164310701Y-112169095D01*
X164478688Y-112420505D01*
X164511366Y-112453183D01*
X164490970Y-112473578D01*
X164606918Y-112589526D01*
X164352739Y-112673208D01*
X164221842Y-112945775D01*
X164146635Y-113238642D01*
X164130009Y-113540553D01*
X164172603Y-113839907D01*
X164257258Y-114081000D01*
X156614107Y-114081000D01*
X156820475Y-113874632D01*
X156982990Y-113631411D01*
X157094932Y-113361158D01*
X157152000Y-113074260D01*
X157152000Y-112781740D01*
X157094932Y-112494842D01*
X156982990Y-112224589D01*
X156820475Y-111981368D01*
X156613632Y-111774525D01*
X156439240Y-111658000D01*
X156613632Y-111541475D01*
X156820475Y-111334632D01*
X156982990Y-111091411D01*
X157094932Y-110821158D01*
X157152000Y-110534260D01*
X157152000Y-110241740D01*
X157094932Y-109954842D01*
X156982990Y-109684589D01*
X156820475Y-109441368D01*
X156613632Y-109234525D01*
X156439240Y-109118000D01*
X156613632Y-109001475D01*
X156820475Y-108794632D01*
X156982990Y-108551411D01*
X157094932Y-108281158D01*
X157152000Y-107994260D01*
X157152000Y-107701740D01*
X157094932Y-107414842D01*
X156982990Y-107144589D01*
X156820475Y-106901368D01*
X156613632Y-106694525D01*
X156439240Y-106578000D01*
X156613632Y-106461475D01*
X156820475Y-106254632D01*
X156982990Y-106011411D01*
X157094932Y-105741158D01*
X157152000Y-105454260D01*
X157152000Y-105161740D01*
X157094932Y-104874842D01*
X156982990Y-104604589D01*
X156820475Y-104361368D01*
X156613632Y-104154525D01*
X156439240Y-104038000D01*
X156613632Y-103921475D01*
X156820475Y-103714632D01*
X156982990Y-103471411D01*
X157094932Y-103201158D01*
X157152000Y-102914260D01*
X157152000Y-102621740D01*
X157094932Y-102334842D01*
X156982990Y-102064589D01*
X156820475Y-101821368D01*
X156613632Y-101614525D01*
X156370411Y-101452010D01*
X156100158Y-101340068D01*
X155813260Y-101283000D01*
X155520740Y-101283000D01*
X155233842Y-101340068D01*
X154963589Y-101452010D01*
X154720368Y-101614525D01*
X154513525Y-101821368D01*
X154351010Y-102064589D01*
X154239068Y-102334842D01*
X154182000Y-102621740D01*
X154182000Y-102914260D01*
X154225791Y-103134408D01*
X153790998Y-103569201D01*
X153762000Y-103592999D01*
X153738202Y-103621997D01*
X153738201Y-103621998D01*
X153667026Y-103708724D01*
X153596454Y-103840754D01*
X153595642Y-103843432D01*
X153552998Y-103984014D01*
X153543151Y-104083990D01*
X153538324Y-104133000D01*
X153542001Y-104170332D01*
X153542000Y-108638198D01*
X152975458Y-109204741D01*
X152947537Y-109152506D01*
X152868185Y-109055815D01*
X152771494Y-108976463D01*
X152661180Y-108917498D01*
X152541482Y-108881188D01*
X152417000Y-108868928D01*
X152177750Y-108872000D01*
X152019000Y-109030750D01*
X152019000Y-109855000D01*
X152039000Y-109855000D01*
X152039000Y-110034000D01*
X151745000Y-110034000D01*
X151745000Y-109855000D01*
X151765000Y-109855000D01*
X151765000Y-109030750D01*
X151606250Y-108872000D01*
X151367000Y-108868928D01*
X151242518Y-108881188D01*
X151122820Y-108917498D01*
X151012506Y-108976463D01*
X150939839Y-109036099D01*
X150915942Y-109016488D01*
X150764567Y-108935577D01*
X150600316Y-108885752D01*
X150429500Y-108868928D01*
X149854500Y-108868928D01*
X149683684Y-108885752D01*
X149519433Y-108935577D01*
X149368058Y-109016488D01*
X149235377Y-109125377D01*
X149126488Y-109258058D01*
X149045577Y-109409433D01*
X148995752Y-109573684D01*
X148978928Y-109744500D01*
X148978928Y-110219500D01*
X148995752Y-110390316D01*
X149045577Y-110554567D01*
X149126488Y-110705942D01*
X149235377Y-110838623D01*
X149368058Y-110947512D01*
X149519433Y-111028423D01*
X149683684Y-111078248D01*
X149854500Y-111095072D01*
X150180270Y-111095072D01*
X150390205Y-111305008D01*
X150413999Y-111334001D01*
X150442992Y-111357795D01*
X150442996Y-111357799D01*
X150499908Y-111404505D01*
X150529724Y-111428974D01*
X150661753Y-111499546D01*
X150805014Y-111543003D01*
X150916667Y-111554000D01*
X150916676Y-111554000D01*
X150953999Y-111557676D01*
X150991322Y-111554000D01*
X152423678Y-111554000D01*
X152461000Y-111557676D01*
X152498322Y-111554000D01*
X152498333Y-111554000D01*
X152609986Y-111543003D01*
X152753247Y-111499546D01*
X152885276Y-111428974D01*
X153001001Y-111334001D01*
X153024804Y-111304997D01*
X154205325Y-110124476D01*
X154182000Y-110241740D01*
X154182000Y-110534260D01*
X154239068Y-110821158D01*
X154351010Y-111091411D01*
X154513525Y-111334632D01*
X154720368Y-111541475D01*
X154894760Y-111658000D01*
X154720368Y-111774525D01*
X154513525Y-111981368D01*
X154351010Y-112224589D01*
X154239068Y-112494842D01*
X154182000Y-112781740D01*
X154182000Y-113074260D01*
X154239068Y-113361158D01*
X154351010Y-113631411D01*
X154513525Y-113874632D01*
X154719893Y-114081000D01*
X149471595Y-114081000D01*
X149473072Y-114066000D01*
X149473072Y-112066000D01*
X149460812Y-111941518D01*
X149424502Y-111821820D01*
X149365537Y-111711506D01*
X149286185Y-111614815D01*
X149189494Y-111535463D01*
X149079180Y-111476498D01*
X148959482Y-111440188D01*
X148835000Y-111427928D01*
X147735000Y-111427928D01*
X147610518Y-111440188D01*
X147490820Y-111476498D01*
X147380506Y-111535463D01*
X147283815Y-111614815D01*
X147204463Y-111711506D01*
X147196668Y-111726089D01*
X146908577Y-111437999D01*
X146943180Y-111427502D01*
X147053494Y-111368537D01*
X147150185Y-111289185D01*
X147229537Y-111192494D01*
X147288502Y-111082180D01*
X147324812Y-110962482D01*
X147337072Y-110838000D01*
X147334000Y-110648750D01*
X147175250Y-110490000D01*
X146301000Y-110490000D01*
X146301000Y-110510000D01*
X146047000Y-110510000D01*
X146047000Y-110490000D01*
X146027000Y-110490000D01*
X146027000Y-110236000D01*
X146047000Y-110236000D01*
X146047000Y-109411750D01*
X146301000Y-109411750D01*
X146301000Y-110236000D01*
X147175250Y-110236000D01*
X147334000Y-110077250D01*
X147337072Y-109888000D01*
X147324812Y-109763518D01*
X147288502Y-109643820D01*
X147229537Y-109533506D01*
X147150185Y-109436815D01*
X147053494Y-109357463D01*
X146943180Y-109298498D01*
X146823482Y-109262188D01*
X146699000Y-109249928D01*
X146459750Y-109253000D01*
X146301000Y-109411750D01*
X146047000Y-109411750D01*
X145888250Y-109253000D01*
X145649000Y-109249928D01*
X145524518Y-109262188D01*
X145404820Y-109298498D01*
X145294506Y-109357463D01*
X145221839Y-109417099D01*
X145197942Y-109397488D01*
X145046567Y-109316577D01*
X144882316Y-109266752D01*
X144711500Y-109249928D01*
X144136500Y-109249928D01*
X143965684Y-109266752D01*
X143801433Y-109316577D01*
X143650058Y-109397488D01*
X143551954Y-109478000D01*
X141604952Y-109478000D01*
X141580475Y-109441368D01*
X141373632Y-109234525D01*
X141199240Y-109118000D01*
X141373632Y-109001475D01*
X141580475Y-108794632D01*
X141742990Y-108551411D01*
X141854932Y-108281158D01*
X141912000Y-107994260D01*
X141912000Y-107701740D01*
X141854932Y-107414842D01*
X141742990Y-107144589D01*
X141580475Y-106901368D01*
X141373632Y-106694525D01*
X141233529Y-106600912D01*
X141397920Y-106491069D01*
X141610069Y-106278920D01*
X141751002Y-106068000D01*
X143385678Y-106068000D01*
X143423000Y-106071676D01*
X143460322Y-106068000D01*
X143460333Y-106068000D01*
X143571986Y-106057003D01*
X143715247Y-106013546D01*
X143847276Y-105942974D01*
X143963001Y-105848001D01*
X143986804Y-105818998D01*
X145743731Y-104062072D01*
X146432000Y-104062072D01*
X146585745Y-104046929D01*
X146733582Y-104002084D01*
X146869829Y-103929258D01*
X146989251Y-103831251D01*
X147087258Y-103711829D01*
X147160084Y-103575582D01*
X147204929Y-103427745D01*
X147205297Y-103424000D01*
X148943928Y-103424000D01*
X148956188Y-103548482D01*
X148992498Y-103668180D01*
X149051463Y-103778494D01*
X149130815Y-103875185D01*
X149227506Y-103954537D01*
X149337820Y-104013502D01*
X149457518Y-104049812D01*
X149582000Y-104062072D01*
X150271250Y-104059000D01*
X150430000Y-103900250D01*
X150430000Y-103251000D01*
X150684000Y-103251000D01*
X150684000Y-103900250D01*
X150842750Y-104059000D01*
X151532000Y-104062072D01*
X151656482Y-104049812D01*
X151776180Y-104013502D01*
X151886494Y-103954537D01*
X151983185Y-103875185D01*
X152062537Y-103778494D01*
X152121502Y-103668180D01*
X152157812Y-103548482D01*
X152170072Y-103424000D01*
X152167000Y-103409750D01*
X152008250Y-103251000D01*
X150684000Y-103251000D01*
X150430000Y-103251000D01*
X149105750Y-103251000D01*
X148947000Y-103409750D01*
X148943928Y-103424000D01*
X147205297Y-103424000D01*
X147220072Y-103274000D01*
X147220072Y-102974000D01*
X147204929Y-102820255D01*
X147160084Y-102672418D01*
X147088270Y-102538064D01*
X147112537Y-102508494D01*
X147171502Y-102398180D01*
X147207812Y-102278482D01*
X147220072Y-102154000D01*
X147217000Y-102139750D01*
X147058250Y-101981000D01*
X145734000Y-101981000D01*
X145734000Y-102001000D01*
X145480000Y-102001000D01*
X145480000Y-101981000D01*
X145460000Y-101981000D01*
X145460000Y-101727000D01*
X145480000Y-101727000D01*
X145480000Y-101707000D01*
X145734000Y-101707000D01*
X145734000Y-101727000D01*
X147058250Y-101727000D01*
X147217000Y-101568250D01*
X147220072Y-101554000D01*
X147207812Y-101429518D01*
X147171502Y-101309820D01*
X147112537Y-101199506D01*
X147088270Y-101169936D01*
X147160084Y-101035582D01*
X147204929Y-100887745D01*
X147220072Y-100734000D01*
X147220072Y-100434000D01*
X147204929Y-100280255D01*
X147160084Y-100132418D01*
X147087258Y-99996171D01*
X147048546Y-99949000D01*
X147087258Y-99901829D01*
X147160084Y-99765582D01*
X147204929Y-99617745D01*
X147220072Y-99464000D01*
X147220072Y-99164000D01*
X147204929Y-99010255D01*
X147160084Y-98862418D01*
X147087258Y-98726171D01*
X146989251Y-98606749D01*
X146869829Y-98508742D01*
X146733582Y-98435916D01*
X146585745Y-98391071D01*
X146432000Y-98375928D01*
X144782000Y-98375928D01*
X144628255Y-98391071D01*
X144480418Y-98435916D01*
X144344171Y-98508742D01*
X144224749Y-98606749D01*
X144126742Y-98726171D01*
X144116946Y-98744498D01*
X144080999Y-98773999D01*
X144057201Y-98802997D01*
X138670998Y-104189201D01*
X138642000Y-104212999D01*
X138618202Y-104241997D01*
X138618201Y-104241998D01*
X138547026Y-104328724D01*
X138476454Y-104460754D01*
X138459000Y-104518294D01*
X138459000Y-88371765D01*
X138572125Y-88258640D01*
X138574000Y-88255834D01*
X138575875Y-88258640D01*
X138754860Y-88437625D01*
X138965324Y-88578253D01*
X139199179Y-88675119D01*
X139447439Y-88724500D01*
X139700561Y-88724500D01*
X139948821Y-88675119D01*
X140182676Y-88578253D01*
X140393140Y-88437625D01*
X140572125Y-88258640D01*
X140574000Y-88255834D01*
X140575875Y-88258640D01*
X140754860Y-88437625D01*
X140965324Y-88578253D01*
X141199179Y-88675119D01*
X141447439Y-88724500D01*
X141700561Y-88724500D01*
X141948821Y-88675119D01*
X142182676Y-88578253D01*
X142393140Y-88437625D01*
X142572125Y-88258640D01*
X142574000Y-88255834D01*
X142575875Y-88258640D01*
X142754860Y-88437625D01*
X142965324Y-88578253D01*
X143199179Y-88675119D01*
X143447439Y-88724500D01*
X143700561Y-88724500D01*
X143948821Y-88675119D01*
X144182676Y-88578253D01*
X144393140Y-88437625D01*
X144572125Y-88258640D01*
X144574000Y-88255834D01*
X144575875Y-88258640D01*
X144754860Y-88437625D01*
X144965324Y-88578253D01*
X145199179Y-88675119D01*
X145447439Y-88724500D01*
X145700561Y-88724500D01*
X145948821Y-88675119D01*
X146182676Y-88578253D01*
X146393140Y-88437625D01*
X146505738Y-88325027D01*
X146868078Y-88325027D01*
X146921466Y-88553701D01*
X147151374Y-88659595D01*
X147397524Y-88718602D01*
X147650455Y-88728452D01*
X147900449Y-88688770D01*
X148137896Y-88601078D01*
X148226534Y-88553701D01*
X148279922Y-88325027D01*
X147574000Y-87619105D01*
X146868078Y-88325027D01*
X146505738Y-88325027D01*
X146572125Y-88258640D01*
X146653267Y-88137203D01*
X146688473Y-88145422D01*
X147394395Y-87439500D01*
X147753605Y-87439500D01*
X148459527Y-88145422D01*
X148688201Y-88092034D01*
X148794095Y-87862126D01*
X148853102Y-87615976D01*
X148862952Y-87363045D01*
X148823270Y-87113051D01*
X148735578Y-86875604D01*
X148688201Y-86786966D01*
X148459527Y-86733578D01*
X147753605Y-87439500D01*
X147394395Y-87439500D01*
X146688473Y-86733578D01*
X146653267Y-86741797D01*
X146572125Y-86620360D01*
X146505738Y-86553973D01*
X146868078Y-86553973D01*
X147574000Y-87259895D01*
X148279922Y-86553973D01*
X148226534Y-86325299D01*
X147996626Y-86219405D01*
X147750476Y-86160398D01*
X147497545Y-86150548D01*
X147247551Y-86190230D01*
X147010104Y-86277922D01*
X146921466Y-86325299D01*
X146868078Y-86553973D01*
X146505738Y-86553973D01*
X146393140Y-86441375D01*
X146182676Y-86300747D01*
X145948821Y-86203881D01*
X145700561Y-86154500D01*
X145447439Y-86154500D01*
X145199179Y-86203881D01*
X144965324Y-86300747D01*
X144754860Y-86441375D01*
X144575875Y-86620360D01*
X144574000Y-86623166D01*
X144572125Y-86620360D01*
X144393140Y-86441375D01*
X144182676Y-86300747D01*
X143948821Y-86203881D01*
X143700561Y-86154500D01*
X143447439Y-86154500D01*
X143199179Y-86203881D01*
X142965324Y-86300747D01*
X142754860Y-86441375D01*
X142575875Y-86620360D01*
X142574000Y-86623166D01*
X142572125Y-86620360D01*
X142393140Y-86441375D01*
X142182676Y-86300747D01*
X141948821Y-86203881D01*
X141700561Y-86154500D01*
X141447439Y-86154500D01*
X141199179Y-86203881D01*
X140965324Y-86300747D01*
X140754860Y-86441375D01*
X140575875Y-86620360D01*
X140574000Y-86623166D01*
X140572125Y-86620360D01*
X140393140Y-86441375D01*
X140182676Y-86300747D01*
X139948821Y-86203881D01*
X139700561Y-86154500D01*
X139447439Y-86154500D01*
X139199179Y-86203881D01*
X138965324Y-86300747D01*
X138754860Y-86441375D01*
X138575875Y-86620360D01*
X138574000Y-86623166D01*
X138572125Y-86620360D01*
X138393140Y-86441375D01*
X138182676Y-86300747D01*
X137948821Y-86203881D01*
X137700561Y-86154500D01*
X137447439Y-86154500D01*
X137199179Y-86203881D01*
X136965324Y-86300747D01*
X136754860Y-86441375D01*
X136575875Y-86620360D01*
X136435247Y-86830824D01*
X136338381Y-87064679D01*
X136289000Y-87312939D01*
X134660002Y-87312939D01*
X134660002Y-82175019D01*
X134753513Y-82400774D01*
X135030938Y-82815969D01*
X135384033Y-83169064D01*
X135799228Y-83446489D01*
X136260569Y-83637583D01*
X136750325Y-83735001D01*
X137249677Y-83735001D01*
X137739433Y-83637583D01*
X138200774Y-83446489D01*
X138609083Y-83173665D01*
X164173000Y-83173665D01*
X164173000Y-83456335D01*
X164228147Y-83733574D01*
X164336320Y-83994727D01*
X164493363Y-84229759D01*
X164693241Y-84429637D01*
X164928273Y-84586680D01*
X165189426Y-84694853D01*
X165466665Y-84750000D01*
X165749335Y-84750000D01*
X166026574Y-84694853D01*
X166287727Y-84586680D01*
X166522759Y-84429637D01*
X166722637Y-84229759D01*
X166879680Y-83994727D01*
X166937828Y-83854344D01*
X168563000Y-83854344D01*
X168563000Y-84225656D01*
X168635439Y-84589834D01*
X168777534Y-84932882D01*
X168983825Y-85241618D01*
X169246382Y-85504175D01*
X169555118Y-85710466D01*
X169898166Y-85852561D01*
X170262344Y-85925000D01*
X170633656Y-85925000D01*
X170997834Y-85852561D01*
X171340882Y-85710466D01*
X171649618Y-85504175D01*
X171912175Y-85241618D01*
X172118466Y-84932882D01*
X172260561Y-84589834D01*
X172333000Y-84225656D01*
X172333000Y-83854344D01*
X172260561Y-83490166D01*
X172118466Y-83147118D01*
X171912175Y-82838382D01*
X171649618Y-82575825D01*
X171340882Y-82369534D01*
X170997834Y-82227439D01*
X170633656Y-82155000D01*
X170262344Y-82155000D01*
X169898166Y-82227439D01*
X169555118Y-82369534D01*
X169246382Y-82575825D01*
X168983825Y-82838382D01*
X168777534Y-83147118D01*
X168635439Y-83490166D01*
X168563000Y-83854344D01*
X166937828Y-83854344D01*
X166987853Y-83733574D01*
X167043000Y-83456335D01*
X167043000Y-83173665D01*
X166987853Y-82896426D01*
X166879680Y-82635273D01*
X166722637Y-82400241D01*
X166522759Y-82200363D01*
X166287727Y-82043320D01*
X166026574Y-81935147D01*
X165749335Y-81880000D01*
X165466665Y-81880000D01*
X165189426Y-81935147D01*
X164928273Y-82043320D01*
X164693241Y-82200363D01*
X164493363Y-82400241D01*
X164336320Y-82635273D01*
X164228147Y-82896426D01*
X164173000Y-83173665D01*
X138609083Y-83173665D01*
X138615969Y-83169064D01*
X138969064Y-82815969D01*
X139246489Y-82400774D01*
X139437583Y-81939433D01*
X139535001Y-81449677D01*
X139535001Y-80950325D01*
X139437583Y-80460569D01*
X139246489Y-79999228D01*
X138969064Y-79584033D01*
X138615969Y-79230938D01*
X138200774Y-78953513D01*
X137975019Y-78860002D01*
X173024987Y-78860000D01*
X172799227Y-78953513D01*
G36*
X138465865Y-106860337D02*
G01*
X138476454Y-106895246D01*
X138547026Y-107027276D01*
X138586871Y-107075826D01*
X138641999Y-107143001D01*
X138671003Y-107166804D01*
X138985791Y-107481592D01*
X138942000Y-107701740D01*
X138942000Y-107994260D01*
X138999068Y-108281158D01*
X139111010Y-108551411D01*
X139273525Y-108794632D01*
X139480368Y-109001475D01*
X139654760Y-109118000D01*
X139480368Y-109234525D01*
X139273525Y-109441368D01*
X139111010Y-109684589D01*
X138999068Y-109954842D01*
X138942000Y-110241740D01*
X138942000Y-110534260D01*
X138999068Y-110821158D01*
X139111010Y-111091411D01*
X139273525Y-111334632D01*
X139480368Y-111541475D01*
X139653729Y-111657311D01*
X139578208Y-111899603D01*
X140427000Y-112748395D01*
X141275792Y-111899603D01*
X141200271Y-111657311D01*
X141373632Y-111541475D01*
X141580475Y-111334632D01*
X141638361Y-111248000D01*
X143551954Y-111248000D01*
X143650058Y-111328512D01*
X143801433Y-111409423D01*
X143965684Y-111459248D01*
X144136500Y-111476072D01*
X144443494Y-111476072D01*
X146628470Y-113661049D01*
X146656183Y-113694817D01*
X146689951Y-113722530D01*
X146689953Y-113722532D01*
X146724141Y-113750589D01*
X146790941Y-113805411D01*
X146944687Y-113887589D01*
X147096928Y-113933772D01*
X147096928Y-114066000D01*
X147098405Y-114081000D01*
X141236954Y-114081000D01*
X141275792Y-113956397D01*
X140427000Y-113107605D01*
X140412858Y-113121748D01*
X140233253Y-112942143D01*
X140247395Y-112928000D01*
X140606605Y-112928000D01*
X141455397Y-113776792D01*
X141704472Y-113699157D01*
X141830371Y-113435117D01*
X141902339Y-113151589D01*
X141917611Y-112859469D01*
X141875599Y-112569981D01*
X141777919Y-112294253D01*
X141704472Y-112156843D01*
X141455397Y-112079208D01*
X140606605Y-112928000D01*
X140247395Y-112928000D01*
X139398603Y-112079208D01*
X139149528Y-112156843D01*
X139023629Y-112420883D01*
X138951661Y-112704411D01*
X138948249Y-112769671D01*
X138459000Y-112280422D01*
X138459000Y-106837707D01*
X138465865Y-106860337D01*
X138465865Y-106860337D01*
G37*
X138465865Y-106860337D02*
X138476454Y-106895246D01*
X138547026Y-107027276D01*
X138586871Y-107075826D01*
X138641999Y-107143001D01*
X138671003Y-107166804D01*
X138985791Y-107481592D01*
X138942000Y-107701740D01*
X138942000Y-107994260D01*
X138999068Y-108281158D01*
X139111010Y-108551411D01*
X139273525Y-108794632D01*
X139480368Y-109001475D01*
X139654760Y-109118000D01*
X139480368Y-109234525D01*
X139273525Y-109441368D01*
X139111010Y-109684589D01*
X138999068Y-109954842D01*
X138942000Y-110241740D01*
X138942000Y-110534260D01*
X138999068Y-110821158D01*
X139111010Y-111091411D01*
X139273525Y-111334632D01*
X139480368Y-111541475D01*
X139653729Y-111657311D01*
X139578208Y-111899603D01*
X140427000Y-112748395D01*
X141275792Y-111899603D01*
X141200271Y-111657311D01*
X141373632Y-111541475D01*
X141580475Y-111334632D01*
X141638361Y-111248000D01*
X143551954Y-111248000D01*
X143650058Y-111328512D01*
X143801433Y-111409423D01*
X143965684Y-111459248D01*
X144136500Y-111476072D01*
X144443494Y-111476072D01*
X146628470Y-113661049D01*
X146656183Y-113694817D01*
X146689951Y-113722530D01*
X146689953Y-113722532D01*
X146724141Y-113750589D01*
X146790941Y-113805411D01*
X146944687Y-113887589D01*
X147096928Y-113933772D01*
X147096928Y-114066000D01*
X147098405Y-114081000D01*
X141236954Y-114081000D01*
X141275792Y-113956397D01*
X140427000Y-113107605D01*
X140412858Y-113121748D01*
X140233253Y-112942143D01*
X140247395Y-112928000D01*
X140606605Y-112928000D01*
X141455397Y-113776792D01*
X141704472Y-113699157D01*
X141830371Y-113435117D01*
X141902339Y-113151589D01*
X141917611Y-112859469D01*
X141875599Y-112569981D01*
X141777919Y-112294253D01*
X141704472Y-112156843D01*
X141455397Y-112079208D01*
X140606605Y-112928000D01*
X140247395Y-112928000D01*
X139398603Y-112079208D01*
X139149528Y-112156843D01*
X139023629Y-112420883D01*
X138951661Y-112704411D01*
X138948249Y-112769671D01*
X138459000Y-112280422D01*
X138459000Y-106837707D01*
X138465865Y-106860337D01*
G36*
X165864748Y-113459858D02*
G01*
X165850605Y-113474000D01*
X165864748Y-113488143D01*
X165685143Y-113667748D01*
X165671000Y-113653605D01*
X165656858Y-113667748D01*
X165477253Y-113488143D01*
X165491395Y-113474000D01*
X165477253Y-113459858D01*
X165656858Y-113280253D01*
X165671000Y-113294395D01*
X165685143Y-113280253D01*
X165864748Y-113459858D01*
X165864748Y-113459858D01*
G37*
X165864748Y-113459858D02*
X165850605Y-113474000D01*
X165864748Y-113488143D01*
X165685143Y-113667748D01*
X165671000Y-113653605D01*
X165656858Y-113667748D01*
X165477253Y-113488143D01*
X165491395Y-113474000D01*
X165477253Y-113459858D01*
X165656858Y-113280253D01*
X165671000Y-113294395D01*
X165685143Y-113280253D01*
X165864748Y-113459858D01*
G36*
X165864748Y-109395858D02*
G01*
X165850605Y-109410000D01*
X165864748Y-109424143D01*
X165685143Y-109603748D01*
X165671000Y-109589605D01*
X165656858Y-109603748D01*
X165477253Y-109424143D01*
X165491395Y-109410000D01*
X165477253Y-109395858D01*
X165656858Y-109216253D01*
X165671000Y-109230395D01*
X165685143Y-109216253D01*
X165864748Y-109395858D01*
X165864748Y-109395858D01*
G37*
X165864748Y-109395858D02*
X165850605Y-109410000D01*
X165864748Y-109424143D01*
X165685143Y-109603748D01*
X165671000Y-109589605D01*
X165656858Y-109603748D01*
X165477253Y-109424143D01*
X165491395Y-109410000D01*
X165477253Y-109395858D01*
X165656858Y-109216253D01*
X165671000Y-109230395D01*
X165685143Y-109216253D01*
X165864748Y-109395858D01*
G36*
X165801748Y-89901858D02*
G01*
X165787605Y-89916000D01*
X165801748Y-89930143D01*
X165622143Y-90109748D01*
X165608000Y-90095605D01*
X165593858Y-90109748D01*
X165414253Y-89930143D01*
X165428395Y-89916000D01*
X165414253Y-89901858D01*
X165593858Y-89722253D01*
X165608000Y-89736395D01*
X165622143Y-89722253D01*
X165801748Y-89901858D01*
X165801748Y-89901858D01*
G37*
X165801748Y-89901858D02*
X165787605Y-89916000D01*
X165801748Y-89930143D01*
X165622143Y-90109748D01*
X165608000Y-90095605D01*
X165593858Y-90109748D01*
X165414253Y-89930143D01*
X165428395Y-89916000D01*
X165414253Y-89901858D01*
X165593858Y-89722253D01*
X165608000Y-89736395D01*
X165622143Y-89722253D01*
X165801748Y-89901858D01*
M02*
