G04 #@! TF.GenerationSoftware,KiCad,Pcbnew,(5.1.2)-1*
G04 #@! TF.CreationDate,2020-12-31T00:30:43+09:00*
G04 #@! TF.ProjectId,M5Atom_CAN_RJ45,4d354174-6f6d-45f4-9341-4e5f524a3435,rev?*
G04 #@! TF.SameCoordinates,Original*
G04 #@! TF.FileFunction,Soldermask,Top*
G04 #@! TF.FilePolarity,Negative*
%FSLAX46Y46*%
G04 Gerber Fmt 4.6, Leading zero omitted, Abs format (unit mm)*
G04 Created by KiCad (PCBNEW (5.1.2)-1) date 2020-12-31 00:30:43*
%MOMM*%
%LPD*%
G04 APERTURE LIST*
%ADD10C,0.100000*%
G04 APERTURE END LIST*
D10*
G36*
X174569085Y-119323975D02*
G01*
X174924143Y-119471045D01*
X174924145Y-119471046D01*
X175243690Y-119684559D01*
X175515441Y-119956310D01*
X175728954Y-120275855D01*
X175728955Y-120275857D01*
X175876025Y-120630915D01*
X175951000Y-121007842D01*
X175951000Y-121392158D01*
X175876025Y-121769085D01*
X175728955Y-122124143D01*
X175728954Y-122124145D01*
X175515441Y-122443690D01*
X175243690Y-122715441D01*
X174924145Y-122928954D01*
X174924144Y-122928955D01*
X174924143Y-122928955D01*
X174569085Y-123076025D01*
X174192158Y-123151000D01*
X173807842Y-123151000D01*
X173430915Y-123076025D01*
X173075857Y-122928955D01*
X173075856Y-122928955D01*
X173075855Y-122928954D01*
X172756310Y-122715441D01*
X172484559Y-122443690D01*
X172271046Y-122124145D01*
X172271045Y-122124143D01*
X172123975Y-121769085D01*
X172049000Y-121392158D01*
X172049000Y-121007842D01*
X172123975Y-120630915D01*
X172271045Y-120275857D01*
X172271046Y-120275855D01*
X172484559Y-119956310D01*
X172756310Y-119684559D01*
X173075855Y-119471046D01*
X173075857Y-119471045D01*
X173430915Y-119323975D01*
X173807842Y-119249000D01*
X174192158Y-119249000D01*
X174569085Y-119323975D01*
X174569085Y-119323975D01*
G37*
G36*
X137569086Y-119323975D02*
G01*
X137924144Y-119471045D01*
X137924146Y-119471046D01*
X138243691Y-119684559D01*
X138515442Y-119956310D01*
X138728955Y-120275855D01*
X138728956Y-120275857D01*
X138876026Y-120630915D01*
X138951001Y-121007842D01*
X138951001Y-121392158D01*
X138876026Y-121769085D01*
X138728956Y-122124143D01*
X138728955Y-122124145D01*
X138515442Y-122443690D01*
X138243691Y-122715441D01*
X137924146Y-122928954D01*
X137924145Y-122928955D01*
X137924144Y-122928955D01*
X137569086Y-123076025D01*
X137192159Y-123151000D01*
X136807843Y-123151000D01*
X136430916Y-123076025D01*
X136075858Y-122928955D01*
X136075857Y-122928955D01*
X136075856Y-122928954D01*
X135756311Y-122715441D01*
X135484560Y-122443690D01*
X135271047Y-122124145D01*
X135271046Y-122124143D01*
X135123976Y-121769085D01*
X135049001Y-121392158D01*
X135049001Y-121007842D01*
X135123976Y-120630915D01*
X135271046Y-120275857D01*
X135271047Y-120275855D01*
X135484560Y-119956310D01*
X135756311Y-119684559D01*
X136075856Y-119471046D01*
X136075858Y-119471045D01*
X136430916Y-119323975D01*
X136807843Y-119249000D01*
X137192159Y-119249000D01*
X137569086Y-119323975D01*
X137569086Y-119323975D01*
G37*
G36*
X165919228Y-118240703D02*
G01*
X166074100Y-118304853D01*
X166213481Y-118397985D01*
X166332015Y-118516519D01*
X166425147Y-118655900D01*
X166489297Y-118810772D01*
X166522000Y-118975184D01*
X166522000Y-119142816D01*
X166489297Y-119307228D01*
X166425147Y-119462100D01*
X166332015Y-119601481D01*
X166213481Y-119720015D01*
X166074100Y-119813147D01*
X165919228Y-119877297D01*
X165754816Y-119910000D01*
X165587184Y-119910000D01*
X165422772Y-119877297D01*
X165267900Y-119813147D01*
X165128519Y-119720015D01*
X165009985Y-119601481D01*
X164916853Y-119462100D01*
X164852703Y-119307228D01*
X164820000Y-119142816D01*
X164820000Y-118975184D01*
X164852703Y-118810772D01*
X164916853Y-118655900D01*
X165009985Y-118516519D01*
X165128519Y-118397985D01*
X165267900Y-118304853D01*
X165422772Y-118240703D01*
X165587184Y-118208000D01*
X165754816Y-118208000D01*
X165919228Y-118240703D01*
X165919228Y-118240703D01*
G37*
G36*
X170890487Y-117082996D02*
G01*
X171127253Y-117181068D01*
X171127255Y-117181069D01*
X171340339Y-117323447D01*
X171521553Y-117504661D01*
X171663932Y-117717747D01*
X171762004Y-117954513D01*
X171812000Y-118205861D01*
X171812000Y-118462139D01*
X171762004Y-118713487D01*
X171721707Y-118810772D01*
X171663931Y-118950255D01*
X171521553Y-119163339D01*
X171340339Y-119344553D01*
X171127255Y-119486931D01*
X171127254Y-119486932D01*
X171127253Y-119486932D01*
X170890487Y-119585004D01*
X170639139Y-119635000D01*
X170382861Y-119635000D01*
X170131513Y-119585004D01*
X169894747Y-119486932D01*
X169894746Y-119486932D01*
X169894745Y-119486931D01*
X169681661Y-119344553D01*
X169500447Y-119163339D01*
X169358069Y-118950255D01*
X169300293Y-118810772D01*
X169259996Y-118713487D01*
X169210000Y-118462139D01*
X169210000Y-118205861D01*
X169259996Y-117954513D01*
X169358068Y-117717747D01*
X169500447Y-117504661D01*
X169681661Y-117323447D01*
X169894745Y-117181069D01*
X169894747Y-117181068D01*
X170131513Y-117082996D01*
X170382861Y-117033000D01*
X170639139Y-117033000D01*
X170890487Y-117082996D01*
X170890487Y-117082996D01*
G37*
G36*
X168488395Y-107479546D02*
G01*
X168661466Y-107551234D01*
X168661467Y-107551235D01*
X168817227Y-107655310D01*
X168949690Y-107787773D01*
X168949691Y-107787775D01*
X169053766Y-107943534D01*
X169125454Y-108116605D01*
X169162000Y-108300333D01*
X169162000Y-108487667D01*
X169125454Y-108671395D01*
X169053766Y-108844466D01*
X169053765Y-108844467D01*
X168949690Y-109000227D01*
X168817227Y-109132690D01*
X168738818Y-109185081D01*
X168661466Y-109236766D01*
X168522045Y-109294516D01*
X168500434Y-109306067D01*
X168481492Y-109321612D01*
X168465947Y-109340554D01*
X168454396Y-109362165D01*
X168447283Y-109385614D01*
X168444881Y-109410000D01*
X168447283Y-109434386D01*
X168454396Y-109457835D01*
X168465947Y-109479446D01*
X168481492Y-109498388D01*
X168500434Y-109513933D01*
X168522045Y-109525484D01*
X168661466Y-109583234D01*
X168738818Y-109634919D01*
X168817227Y-109687310D01*
X168949690Y-109819773D01*
X168949691Y-109819775D01*
X169053766Y-109975534D01*
X169125454Y-110148605D01*
X169162000Y-110332333D01*
X169162000Y-110519667D01*
X169125454Y-110703395D01*
X169053766Y-110876466D01*
X169053765Y-110876467D01*
X168949690Y-111032227D01*
X168817227Y-111164690D01*
X168738818Y-111217081D01*
X168661466Y-111268766D01*
X168522045Y-111326516D01*
X168500434Y-111338067D01*
X168481492Y-111353612D01*
X168465947Y-111372554D01*
X168454396Y-111394165D01*
X168447283Y-111417614D01*
X168444881Y-111442000D01*
X168447283Y-111466386D01*
X168454396Y-111489835D01*
X168465947Y-111511446D01*
X168481492Y-111530388D01*
X168500434Y-111545933D01*
X168522045Y-111557484D01*
X168661466Y-111615234D01*
X168661467Y-111615235D01*
X168817227Y-111719310D01*
X168949690Y-111851773D01*
X168949691Y-111851775D01*
X169053766Y-112007534D01*
X169125454Y-112180605D01*
X169162000Y-112364333D01*
X169162000Y-112551667D01*
X169125454Y-112735395D01*
X169053766Y-112908466D01*
X169053765Y-112908467D01*
X168949690Y-113064227D01*
X168817227Y-113196690D01*
X168738818Y-113249081D01*
X168661466Y-113300766D01*
X168522045Y-113358516D01*
X168500434Y-113370067D01*
X168481492Y-113385612D01*
X168465947Y-113404554D01*
X168454396Y-113426165D01*
X168447283Y-113449614D01*
X168444881Y-113474000D01*
X168447283Y-113498386D01*
X168454396Y-113521835D01*
X168465947Y-113543446D01*
X168481492Y-113562388D01*
X168500434Y-113577933D01*
X168522045Y-113589484D01*
X168661466Y-113647234D01*
X168661467Y-113647235D01*
X168817227Y-113751310D01*
X168949690Y-113883773D01*
X168949691Y-113883775D01*
X169053766Y-114039534D01*
X169125454Y-114212605D01*
X169162000Y-114396333D01*
X169162000Y-114583667D01*
X169125454Y-114767395D01*
X169053766Y-114940466D01*
X169053765Y-114940467D01*
X168949690Y-115096227D01*
X168817227Y-115228690D01*
X168738818Y-115281081D01*
X168661466Y-115332766D01*
X168488395Y-115404454D01*
X168304667Y-115441000D01*
X168117333Y-115441000D01*
X167933605Y-115404454D01*
X167760534Y-115332766D01*
X167683182Y-115281081D01*
X167604773Y-115228690D01*
X167472310Y-115096227D01*
X167368235Y-114940467D01*
X167368234Y-114940466D01*
X167296546Y-114767395D01*
X167260000Y-114583667D01*
X167260000Y-114396333D01*
X167296546Y-114212605D01*
X167368234Y-114039534D01*
X167472309Y-113883775D01*
X167472310Y-113883773D01*
X167604773Y-113751310D01*
X167760533Y-113647235D01*
X167760534Y-113647234D01*
X167899955Y-113589484D01*
X167921566Y-113577933D01*
X167940508Y-113562388D01*
X167956053Y-113543446D01*
X167967604Y-113521835D01*
X167974717Y-113498386D01*
X167977119Y-113474000D01*
X167974717Y-113449614D01*
X167967604Y-113426165D01*
X167956053Y-113404554D01*
X167940508Y-113385612D01*
X167921566Y-113370067D01*
X167899955Y-113358516D01*
X167760534Y-113300766D01*
X167683182Y-113249081D01*
X167604773Y-113196690D01*
X167472310Y-113064227D01*
X167368235Y-112908467D01*
X167368234Y-112908466D01*
X167296546Y-112735395D01*
X167260000Y-112551667D01*
X167260000Y-112364333D01*
X167296546Y-112180605D01*
X167368234Y-112007534D01*
X167472309Y-111851775D01*
X167472310Y-111851773D01*
X167604773Y-111719310D01*
X167760533Y-111615235D01*
X167760534Y-111615234D01*
X167899955Y-111557484D01*
X167921566Y-111545933D01*
X167940508Y-111530388D01*
X167956053Y-111511446D01*
X167967604Y-111489835D01*
X167974717Y-111466386D01*
X167977119Y-111442000D01*
X167974717Y-111417614D01*
X167967604Y-111394165D01*
X167956053Y-111372554D01*
X167940508Y-111353612D01*
X167921566Y-111338067D01*
X167899955Y-111326516D01*
X167760534Y-111268766D01*
X167683182Y-111217081D01*
X167604773Y-111164690D01*
X167472310Y-111032227D01*
X167368235Y-110876467D01*
X167368234Y-110876466D01*
X167296546Y-110703395D01*
X167260000Y-110519667D01*
X167260000Y-110332333D01*
X167296546Y-110148605D01*
X167368234Y-109975534D01*
X167472309Y-109819775D01*
X167472310Y-109819773D01*
X167604773Y-109687310D01*
X167683182Y-109634919D01*
X167760534Y-109583234D01*
X167899955Y-109525484D01*
X167921566Y-109513933D01*
X167940508Y-109498388D01*
X167956053Y-109479446D01*
X167967604Y-109457835D01*
X167974717Y-109434386D01*
X167977119Y-109410000D01*
X167974717Y-109385614D01*
X167967604Y-109362165D01*
X167956053Y-109340554D01*
X167940508Y-109321612D01*
X167921566Y-109306067D01*
X167899955Y-109294516D01*
X167760534Y-109236766D01*
X167683182Y-109185081D01*
X167604773Y-109132690D01*
X167472310Y-109000227D01*
X167368235Y-108844467D01*
X167368234Y-108844466D01*
X167296546Y-108671395D01*
X167260000Y-108487667D01*
X167260000Y-108300333D01*
X167296546Y-108116605D01*
X167368234Y-107943534D01*
X167472309Y-107787775D01*
X167472310Y-107787773D01*
X167604773Y-107655310D01*
X167760533Y-107551235D01*
X167760534Y-107551234D01*
X167933605Y-107479546D01*
X168117333Y-107443000D01*
X168304667Y-107443000D01*
X168488395Y-107479546D01*
X168488395Y-107479546D01*
G37*
G36*
X165948395Y-106463546D02*
G01*
X166121466Y-106535234D01*
X166121467Y-106535235D01*
X166277227Y-106639310D01*
X166409690Y-106771773D01*
X166409691Y-106771775D01*
X166513766Y-106927534D01*
X166585454Y-107100605D01*
X166622000Y-107284333D01*
X166622000Y-107471667D01*
X166585454Y-107655395D01*
X166513766Y-107828466D01*
X166513765Y-107828467D01*
X166409690Y-107984227D01*
X166277227Y-108116690D01*
X166198818Y-108169081D01*
X166121466Y-108220766D01*
X165982045Y-108278516D01*
X165960434Y-108290067D01*
X165941492Y-108305612D01*
X165925947Y-108324554D01*
X165914396Y-108346165D01*
X165907283Y-108369614D01*
X165904881Y-108394000D01*
X165907283Y-108418386D01*
X165914396Y-108441835D01*
X165925947Y-108463446D01*
X165941492Y-108482388D01*
X165960434Y-108497933D01*
X165982045Y-108509484D01*
X166121466Y-108567234D01*
X166121467Y-108567235D01*
X166277227Y-108671310D01*
X166409690Y-108803773D01*
X166409691Y-108803775D01*
X166513766Y-108959534D01*
X166585454Y-109132605D01*
X166622000Y-109316333D01*
X166622000Y-109503667D01*
X166585454Y-109687395D01*
X166513766Y-109860466D01*
X166513765Y-109860467D01*
X166409690Y-110016227D01*
X166277227Y-110148690D01*
X166198818Y-110201081D01*
X166121466Y-110252766D01*
X165982045Y-110310516D01*
X165960434Y-110322067D01*
X165941492Y-110337612D01*
X165925947Y-110356554D01*
X165914396Y-110378165D01*
X165907283Y-110401614D01*
X165904881Y-110426000D01*
X165907283Y-110450386D01*
X165914396Y-110473835D01*
X165925947Y-110495446D01*
X165941492Y-110514388D01*
X165960434Y-110529933D01*
X165982045Y-110541484D01*
X166121466Y-110599234D01*
X166121467Y-110599235D01*
X166277227Y-110703310D01*
X166409690Y-110835773D01*
X166409691Y-110835775D01*
X166513766Y-110991534D01*
X166585454Y-111164605D01*
X166622000Y-111348333D01*
X166622000Y-111535667D01*
X166585454Y-111719395D01*
X166513766Y-111892466D01*
X166513765Y-111892467D01*
X166409690Y-112048227D01*
X166277227Y-112180690D01*
X166206202Y-112228147D01*
X166121466Y-112284766D01*
X165982045Y-112342516D01*
X165960434Y-112354067D01*
X165941492Y-112369612D01*
X165925947Y-112388554D01*
X165914396Y-112410165D01*
X165907283Y-112433614D01*
X165904881Y-112458000D01*
X165907283Y-112482386D01*
X165914396Y-112505835D01*
X165925947Y-112527446D01*
X165941492Y-112546388D01*
X165960434Y-112561933D01*
X165982045Y-112573484D01*
X166121466Y-112631234D01*
X166121467Y-112631235D01*
X166277227Y-112735310D01*
X166409690Y-112867773D01*
X166409691Y-112867775D01*
X166513766Y-113023534D01*
X166585454Y-113196605D01*
X166622000Y-113380333D01*
X166622000Y-113567667D01*
X166585454Y-113751395D01*
X166513766Y-113924466D01*
X166513765Y-113924467D01*
X166409690Y-114080227D01*
X166277227Y-114212690D01*
X166198818Y-114265081D01*
X166121466Y-114316766D01*
X165948395Y-114388454D01*
X165764667Y-114425000D01*
X165577333Y-114425000D01*
X165393605Y-114388454D01*
X165220534Y-114316766D01*
X165143182Y-114265081D01*
X165064773Y-114212690D01*
X164932310Y-114080227D01*
X164828235Y-113924467D01*
X164828234Y-113924466D01*
X164756546Y-113751395D01*
X164720000Y-113567667D01*
X164720000Y-113380333D01*
X164756546Y-113196605D01*
X164828234Y-113023534D01*
X164932309Y-112867775D01*
X164932310Y-112867773D01*
X165064773Y-112735310D01*
X165220533Y-112631235D01*
X165220534Y-112631234D01*
X165359955Y-112573484D01*
X165381566Y-112561933D01*
X165400508Y-112546388D01*
X165416053Y-112527446D01*
X165427604Y-112505835D01*
X165434717Y-112482386D01*
X165437119Y-112458000D01*
X165434717Y-112433614D01*
X165427604Y-112410165D01*
X165416053Y-112388554D01*
X165400508Y-112369612D01*
X165381566Y-112354067D01*
X165359955Y-112342516D01*
X165220534Y-112284766D01*
X165135798Y-112228147D01*
X165064773Y-112180690D01*
X164932310Y-112048227D01*
X164828235Y-111892467D01*
X164828234Y-111892466D01*
X164756546Y-111719395D01*
X164720000Y-111535667D01*
X164720000Y-111348333D01*
X164756546Y-111164605D01*
X164828234Y-110991534D01*
X164932309Y-110835775D01*
X164932310Y-110835773D01*
X165064773Y-110703310D01*
X165220533Y-110599235D01*
X165220534Y-110599234D01*
X165359955Y-110541484D01*
X165381566Y-110529933D01*
X165400508Y-110514388D01*
X165416053Y-110495446D01*
X165427604Y-110473835D01*
X165434717Y-110450386D01*
X165437119Y-110426000D01*
X165434717Y-110401614D01*
X165427604Y-110378165D01*
X165416053Y-110356554D01*
X165400508Y-110337612D01*
X165381566Y-110322067D01*
X165359955Y-110310516D01*
X165220534Y-110252766D01*
X165143182Y-110201081D01*
X165064773Y-110148690D01*
X164932310Y-110016227D01*
X164828235Y-109860467D01*
X164828234Y-109860466D01*
X164756546Y-109687395D01*
X164720000Y-109503667D01*
X164720000Y-109316333D01*
X164756546Y-109132605D01*
X164828234Y-108959534D01*
X164932309Y-108803775D01*
X164932310Y-108803773D01*
X165064773Y-108671310D01*
X165220533Y-108567235D01*
X165220534Y-108567234D01*
X165359955Y-108509484D01*
X165381566Y-108497933D01*
X165400508Y-108482388D01*
X165416053Y-108463446D01*
X165427604Y-108441835D01*
X165434717Y-108418386D01*
X165437119Y-108394000D01*
X165434717Y-108369614D01*
X165427604Y-108346165D01*
X165416053Y-108324554D01*
X165400508Y-108305612D01*
X165381566Y-108290067D01*
X165359955Y-108278516D01*
X165220534Y-108220766D01*
X165143182Y-108169081D01*
X165064773Y-108116690D01*
X164932310Y-107984227D01*
X164828235Y-107828467D01*
X164828234Y-107828466D01*
X164756546Y-107655395D01*
X164720000Y-107471667D01*
X164720000Y-107284333D01*
X164756546Y-107100605D01*
X164828234Y-106927534D01*
X164932309Y-106771775D01*
X164932310Y-106771773D01*
X165064773Y-106639310D01*
X165220533Y-106535235D01*
X165220534Y-106535234D01*
X165393605Y-106463546D01*
X165577333Y-106427000D01*
X165764667Y-106427000D01*
X165948395Y-106463546D01*
X165948395Y-106463546D01*
G37*
G36*
X155780512Y-112031927D02*
G01*
X155929812Y-112061624D01*
X156093784Y-112129544D01*
X156241354Y-112228147D01*
X156366853Y-112353646D01*
X156465456Y-112501216D01*
X156533376Y-112665188D01*
X156568000Y-112839259D01*
X156568000Y-113016741D01*
X156533376Y-113190812D01*
X156465456Y-113354784D01*
X156366853Y-113502354D01*
X156241354Y-113627853D01*
X156093784Y-113726456D01*
X155929812Y-113794376D01*
X155780512Y-113824073D01*
X155755742Y-113829000D01*
X155578258Y-113829000D01*
X155553488Y-113824073D01*
X155404188Y-113794376D01*
X155240216Y-113726456D01*
X155092646Y-113627853D01*
X154967147Y-113502354D01*
X154868544Y-113354784D01*
X154800624Y-113190812D01*
X154766000Y-113016741D01*
X154766000Y-112839259D01*
X154800624Y-112665188D01*
X154868544Y-112501216D01*
X154967147Y-112353646D01*
X155092646Y-112228147D01*
X155240216Y-112129544D01*
X155404188Y-112061624D01*
X155553488Y-112031927D01*
X155578258Y-112027000D01*
X155755742Y-112027000D01*
X155780512Y-112031927D01*
X155780512Y-112031927D01*
G37*
G36*
X140540512Y-112031927D02*
G01*
X140689812Y-112061624D01*
X140853784Y-112129544D01*
X141001354Y-112228147D01*
X141126853Y-112353646D01*
X141225456Y-112501216D01*
X141293376Y-112665188D01*
X141328000Y-112839259D01*
X141328000Y-113016741D01*
X141293376Y-113190812D01*
X141225456Y-113354784D01*
X141126853Y-113502354D01*
X141001354Y-113627853D01*
X140853784Y-113726456D01*
X140689812Y-113794376D01*
X140540512Y-113824073D01*
X140515742Y-113829000D01*
X140338258Y-113829000D01*
X140313488Y-113824073D01*
X140164188Y-113794376D01*
X140000216Y-113726456D01*
X139852646Y-113627853D01*
X139727147Y-113502354D01*
X139628544Y-113354784D01*
X139560624Y-113190812D01*
X139526000Y-113016741D01*
X139526000Y-112839259D01*
X139560624Y-112665188D01*
X139628544Y-112501216D01*
X139727147Y-112353646D01*
X139852646Y-112228147D01*
X140000216Y-112129544D01*
X140164188Y-112061624D01*
X140313488Y-112031927D01*
X140338258Y-112027000D01*
X140515742Y-112027000D01*
X140540512Y-112031927D01*
X140540512Y-112031927D01*
G37*
G36*
X155780512Y-109491927D02*
G01*
X155929812Y-109521624D01*
X156093784Y-109589544D01*
X156241354Y-109688147D01*
X156366853Y-109813646D01*
X156465456Y-109961216D01*
X156533376Y-110125188D01*
X156568000Y-110299259D01*
X156568000Y-110476741D01*
X156533376Y-110650812D01*
X156465456Y-110814784D01*
X156366853Y-110962354D01*
X156241354Y-111087853D01*
X156093784Y-111186456D01*
X155929812Y-111254376D01*
X155780512Y-111284073D01*
X155755742Y-111289000D01*
X155578258Y-111289000D01*
X155553488Y-111284073D01*
X155404188Y-111254376D01*
X155240216Y-111186456D01*
X155092646Y-111087853D01*
X154967147Y-110962354D01*
X154868544Y-110814784D01*
X154800624Y-110650812D01*
X154766000Y-110476741D01*
X154766000Y-110299259D01*
X154800624Y-110125188D01*
X154868544Y-109961216D01*
X154967147Y-109813646D01*
X155092646Y-109688147D01*
X155240216Y-109589544D01*
X155404188Y-109521624D01*
X155553488Y-109491927D01*
X155578258Y-109487000D01*
X155755742Y-109487000D01*
X155780512Y-109491927D01*
X155780512Y-109491927D01*
G37*
G36*
X140540512Y-109491927D02*
G01*
X140689812Y-109521624D01*
X140853784Y-109589544D01*
X141001354Y-109688147D01*
X141126853Y-109813646D01*
X141225456Y-109961216D01*
X141293376Y-110125188D01*
X141328000Y-110299259D01*
X141328000Y-110476741D01*
X141293376Y-110650812D01*
X141225456Y-110814784D01*
X141126853Y-110962354D01*
X141001354Y-111087853D01*
X140853784Y-111186456D01*
X140689812Y-111254376D01*
X140540512Y-111284073D01*
X140515742Y-111289000D01*
X140338258Y-111289000D01*
X140313488Y-111284073D01*
X140164188Y-111254376D01*
X140000216Y-111186456D01*
X139852646Y-111087853D01*
X139727147Y-110962354D01*
X139628544Y-110814784D01*
X139560624Y-110650812D01*
X139526000Y-110476741D01*
X139526000Y-110299259D01*
X139560624Y-110125188D01*
X139628544Y-109961216D01*
X139727147Y-109813646D01*
X139852646Y-109688147D01*
X140000216Y-109589544D01*
X140164188Y-109521624D01*
X140313488Y-109491927D01*
X140338258Y-109487000D01*
X140515742Y-109487000D01*
X140540512Y-109491927D01*
X140540512Y-109491927D01*
G37*
G36*
X155780512Y-106951927D02*
G01*
X155929812Y-106981624D01*
X156093784Y-107049544D01*
X156241354Y-107148147D01*
X156366853Y-107273646D01*
X156465456Y-107421216D01*
X156533376Y-107585188D01*
X156568000Y-107759259D01*
X156568000Y-107936741D01*
X156533376Y-108110812D01*
X156465456Y-108274784D01*
X156366853Y-108422354D01*
X156241354Y-108547853D01*
X156093784Y-108646456D01*
X155929812Y-108714376D01*
X155780512Y-108744073D01*
X155755742Y-108749000D01*
X155578258Y-108749000D01*
X155553488Y-108744073D01*
X155404188Y-108714376D01*
X155240216Y-108646456D01*
X155092646Y-108547853D01*
X154967147Y-108422354D01*
X154868544Y-108274784D01*
X154800624Y-108110812D01*
X154766000Y-107936741D01*
X154766000Y-107759259D01*
X154800624Y-107585188D01*
X154868544Y-107421216D01*
X154967147Y-107273646D01*
X155092646Y-107148147D01*
X155240216Y-107049544D01*
X155404188Y-106981624D01*
X155553488Y-106951927D01*
X155578258Y-106947000D01*
X155755742Y-106947000D01*
X155780512Y-106951927D01*
X155780512Y-106951927D01*
G37*
G36*
X140540512Y-106951927D02*
G01*
X140689812Y-106981624D01*
X140853784Y-107049544D01*
X141001354Y-107148147D01*
X141126853Y-107273646D01*
X141225456Y-107421216D01*
X141293376Y-107585188D01*
X141328000Y-107759259D01*
X141328000Y-107936741D01*
X141293376Y-108110812D01*
X141225456Y-108274784D01*
X141126853Y-108422354D01*
X141001354Y-108547853D01*
X140853784Y-108646456D01*
X140689812Y-108714376D01*
X140540512Y-108744073D01*
X140515742Y-108749000D01*
X140338258Y-108749000D01*
X140313488Y-108744073D01*
X140164188Y-108714376D01*
X140000216Y-108646456D01*
X139852646Y-108547853D01*
X139727147Y-108422354D01*
X139628544Y-108274784D01*
X139560624Y-108110812D01*
X139526000Y-107936741D01*
X139526000Y-107759259D01*
X139560624Y-107585188D01*
X139628544Y-107421216D01*
X139727147Y-107273646D01*
X139852646Y-107148147D01*
X140000216Y-107049544D01*
X140164188Y-106981624D01*
X140313488Y-106951927D01*
X140338258Y-106947000D01*
X140515742Y-106947000D01*
X140540512Y-106951927D01*
X140540512Y-106951927D01*
G37*
G36*
X140700925Y-104404988D02*
G01*
X140871829Y-104475779D01*
X140871831Y-104475780D01*
X141025641Y-104578553D01*
X141156447Y-104709359D01*
X141206992Y-104785004D01*
X141259221Y-104863171D01*
X141330012Y-105034075D01*
X141366100Y-105215505D01*
X141366100Y-105400495D01*
X141330012Y-105581925D01*
X141259221Y-105752829D01*
X141259220Y-105752831D01*
X141156447Y-105906641D01*
X141025641Y-106037447D01*
X140871831Y-106140220D01*
X140871830Y-106140221D01*
X140871829Y-106140221D01*
X140700925Y-106211012D01*
X140519495Y-106247100D01*
X140334505Y-106247100D01*
X140153075Y-106211012D01*
X139982171Y-106140221D01*
X139982170Y-106140221D01*
X139982169Y-106140220D01*
X139828359Y-106037447D01*
X139697553Y-105906641D01*
X139594780Y-105752831D01*
X139594779Y-105752829D01*
X139523988Y-105581925D01*
X139487900Y-105400495D01*
X139487900Y-105215505D01*
X139523988Y-105034075D01*
X139594779Y-104863171D01*
X139647009Y-104785004D01*
X139697553Y-104709359D01*
X139828359Y-104578553D01*
X139982169Y-104475780D01*
X139982171Y-104475779D01*
X140153075Y-104404988D01*
X140334505Y-104368900D01*
X140519495Y-104368900D01*
X140700925Y-104404988D01*
X140700925Y-104404988D01*
G37*
G36*
X155780512Y-104411927D02*
G01*
X155929812Y-104441624D01*
X156093784Y-104509544D01*
X156241354Y-104608147D01*
X156366853Y-104733646D01*
X156465456Y-104881216D01*
X156533376Y-105045188D01*
X156568000Y-105219259D01*
X156568000Y-105396741D01*
X156533376Y-105570812D01*
X156465456Y-105734784D01*
X156366853Y-105882354D01*
X156241354Y-106007853D01*
X156093784Y-106106456D01*
X155929812Y-106174376D01*
X155780512Y-106204073D01*
X155755742Y-106209000D01*
X155578258Y-106209000D01*
X155553488Y-106204073D01*
X155404188Y-106174376D01*
X155240216Y-106106456D01*
X155092646Y-106007853D01*
X154967147Y-105882354D01*
X154868544Y-105734784D01*
X154800624Y-105570812D01*
X154766000Y-105396741D01*
X154766000Y-105219259D01*
X154800624Y-105045188D01*
X154868544Y-104881216D01*
X154967147Y-104733646D01*
X155092646Y-104608147D01*
X155240216Y-104509544D01*
X155404188Y-104441624D01*
X155553488Y-104411927D01*
X155578258Y-104407000D01*
X155755742Y-104407000D01*
X155780512Y-104411927D01*
X155780512Y-104411927D01*
G37*
G36*
X170890487Y-102282996D02*
G01*
X171127253Y-102381068D01*
X171127255Y-102381069D01*
X171313012Y-102505188D01*
X171340339Y-102523447D01*
X171521553Y-102704661D01*
X171663932Y-102917747D01*
X171762004Y-103154513D01*
X171812000Y-103405861D01*
X171812000Y-103662139D01*
X171762004Y-103913487D01*
X171663932Y-104150253D01*
X171663931Y-104150255D01*
X171521553Y-104363339D01*
X171340339Y-104544553D01*
X171127255Y-104686931D01*
X171127254Y-104686932D01*
X171127253Y-104686932D01*
X170890487Y-104785004D01*
X170639139Y-104835000D01*
X170382861Y-104835000D01*
X170131513Y-104785004D01*
X169894747Y-104686932D01*
X169894746Y-104686932D01*
X169894745Y-104686931D01*
X169681661Y-104544553D01*
X169500447Y-104363339D01*
X169358069Y-104150255D01*
X169358068Y-104150253D01*
X169259996Y-103913487D01*
X169210000Y-103662139D01*
X169210000Y-103405861D01*
X169259996Y-103154513D01*
X169358068Y-102917747D01*
X169500447Y-102704661D01*
X169681661Y-102523447D01*
X169708988Y-102505188D01*
X169894745Y-102381069D01*
X169894747Y-102381068D01*
X170131513Y-102282996D01*
X170382861Y-102233000D01*
X170639139Y-102233000D01*
X170890487Y-102282996D01*
X170890487Y-102282996D01*
G37*
G36*
X155780512Y-101871927D02*
G01*
X155929812Y-101901624D01*
X156093784Y-101969544D01*
X156241354Y-102068147D01*
X156366853Y-102193646D01*
X156465456Y-102341216D01*
X156533376Y-102505188D01*
X156568000Y-102679259D01*
X156568000Y-102856741D01*
X156533376Y-103030812D01*
X156465456Y-103194784D01*
X156366853Y-103342354D01*
X156241354Y-103467853D01*
X156093784Y-103566456D01*
X155929812Y-103634376D01*
X155790234Y-103662139D01*
X155755742Y-103669000D01*
X155578258Y-103669000D01*
X155543766Y-103662139D01*
X155404188Y-103634376D01*
X155240216Y-103566456D01*
X155092646Y-103467853D01*
X154967147Y-103342354D01*
X154868544Y-103194784D01*
X154800624Y-103030812D01*
X154766000Y-102856741D01*
X154766000Y-102679259D01*
X154800624Y-102505188D01*
X154868544Y-102341216D01*
X154967147Y-102193646D01*
X155092646Y-102068147D01*
X155240216Y-101969544D01*
X155404188Y-101901624D01*
X155553488Y-101871927D01*
X155578258Y-101867000D01*
X155755742Y-101867000D01*
X155780512Y-101871927D01*
X155780512Y-101871927D01*
G37*
G36*
X165919228Y-101990703D02*
G01*
X166074100Y-102054853D01*
X166213481Y-102147985D01*
X166332015Y-102266519D01*
X166425147Y-102405900D01*
X166489297Y-102560772D01*
X166522000Y-102725184D01*
X166522000Y-102892816D01*
X166489297Y-103057228D01*
X166425147Y-103212100D01*
X166332015Y-103351481D01*
X166213481Y-103470015D01*
X166074100Y-103563147D01*
X165919228Y-103627297D01*
X165754816Y-103660000D01*
X165587184Y-103660000D01*
X165422772Y-103627297D01*
X165267900Y-103563147D01*
X165128519Y-103470015D01*
X165009985Y-103351481D01*
X164916853Y-103212100D01*
X164852703Y-103057228D01*
X164820000Y-102892816D01*
X164820000Y-102725184D01*
X164852703Y-102560772D01*
X164916853Y-102405900D01*
X165009985Y-102266519D01*
X165128519Y-102147985D01*
X165267900Y-102054853D01*
X165422772Y-101990703D01*
X165587184Y-101958000D01*
X165754816Y-101958000D01*
X165919228Y-101990703D01*
X165919228Y-101990703D01*
G37*
G36*
X165856228Y-98746703D02*
G01*
X166011100Y-98810853D01*
X166150481Y-98903985D01*
X166269015Y-99022519D01*
X166362147Y-99161900D01*
X166426297Y-99316772D01*
X166459000Y-99481184D01*
X166459000Y-99648816D01*
X166426297Y-99813228D01*
X166362147Y-99968100D01*
X166269015Y-100107481D01*
X166150481Y-100226015D01*
X166011100Y-100319147D01*
X165856228Y-100383297D01*
X165691816Y-100416000D01*
X165524184Y-100416000D01*
X165359772Y-100383297D01*
X165204900Y-100319147D01*
X165065519Y-100226015D01*
X164946985Y-100107481D01*
X164853853Y-99968100D01*
X164789703Y-99813228D01*
X164757000Y-99648816D01*
X164757000Y-99481184D01*
X164789703Y-99316772D01*
X164853853Y-99161900D01*
X164946985Y-99022519D01*
X165065519Y-98903985D01*
X165204900Y-98810853D01*
X165359772Y-98746703D01*
X165524184Y-98714000D01*
X165691816Y-98714000D01*
X165856228Y-98746703D01*
X165856228Y-98746703D01*
G37*
G36*
X170827487Y-97588996D02*
G01*
X171064253Y-97687068D01*
X171064255Y-97687069D01*
X171277339Y-97829447D01*
X171458553Y-98010661D01*
X171600932Y-98223747D01*
X171699004Y-98460513D01*
X171749000Y-98711861D01*
X171749000Y-98968139D01*
X171699004Y-99219487D01*
X171658707Y-99316772D01*
X171600931Y-99456255D01*
X171458553Y-99669339D01*
X171277339Y-99850553D01*
X171064255Y-99992931D01*
X171064254Y-99992932D01*
X171064253Y-99992932D01*
X170827487Y-100091004D01*
X170576139Y-100141000D01*
X170319861Y-100141000D01*
X170068513Y-100091004D01*
X169831747Y-99992932D01*
X169831746Y-99992932D01*
X169831745Y-99992931D01*
X169618661Y-99850553D01*
X169437447Y-99669339D01*
X169295069Y-99456255D01*
X169237293Y-99316772D01*
X169196996Y-99219487D01*
X169147000Y-98968139D01*
X169147000Y-98711861D01*
X169196996Y-98460513D01*
X169295068Y-98223747D01*
X169437447Y-98010661D01*
X169618661Y-97829447D01*
X169831745Y-97687069D01*
X169831747Y-97687068D01*
X170068513Y-97588996D01*
X170319861Y-97539000D01*
X170576139Y-97539000D01*
X170827487Y-97588996D01*
X170827487Y-97588996D01*
G37*
G36*
X168425395Y-87985546D02*
G01*
X168598466Y-88057234D01*
X168598467Y-88057235D01*
X168754227Y-88161310D01*
X168886690Y-88293773D01*
X168886691Y-88293775D01*
X168990766Y-88449534D01*
X169062454Y-88622605D01*
X169099000Y-88806333D01*
X169099000Y-88993667D01*
X169062454Y-89177395D01*
X168990766Y-89350466D01*
X168990765Y-89350467D01*
X168886690Y-89506227D01*
X168754227Y-89638690D01*
X168740106Y-89648125D01*
X168598466Y-89742766D01*
X168459045Y-89800516D01*
X168437434Y-89812067D01*
X168418492Y-89827612D01*
X168402947Y-89846554D01*
X168391396Y-89868165D01*
X168384283Y-89891614D01*
X168381881Y-89916000D01*
X168384283Y-89940386D01*
X168391396Y-89963835D01*
X168402947Y-89985446D01*
X168418492Y-90004388D01*
X168437434Y-90019933D01*
X168459045Y-90031484D01*
X168598466Y-90089234D01*
X168675818Y-90140919D01*
X168754227Y-90193310D01*
X168886690Y-90325773D01*
X168886691Y-90325775D01*
X168990766Y-90481534D01*
X169062454Y-90654605D01*
X169099000Y-90838333D01*
X169099000Y-91025667D01*
X169062454Y-91209395D01*
X168990766Y-91382466D01*
X168990765Y-91382467D01*
X168886690Y-91538227D01*
X168754227Y-91670690D01*
X168675818Y-91723081D01*
X168598466Y-91774766D01*
X168459045Y-91832516D01*
X168437434Y-91844067D01*
X168418492Y-91859612D01*
X168402947Y-91878554D01*
X168391396Y-91900165D01*
X168384283Y-91923614D01*
X168381881Y-91948000D01*
X168384283Y-91972386D01*
X168391396Y-91995835D01*
X168402947Y-92017446D01*
X168418492Y-92036388D01*
X168437434Y-92051933D01*
X168459045Y-92063484D01*
X168598466Y-92121234D01*
X168598467Y-92121235D01*
X168754227Y-92225310D01*
X168886690Y-92357773D01*
X168886691Y-92357775D01*
X168990766Y-92513534D01*
X169062454Y-92686605D01*
X169099000Y-92870333D01*
X169099000Y-93057667D01*
X169062454Y-93241395D01*
X168990766Y-93414466D01*
X168990765Y-93414467D01*
X168886690Y-93570227D01*
X168754227Y-93702690D01*
X168675818Y-93755081D01*
X168598466Y-93806766D01*
X168459045Y-93864516D01*
X168437434Y-93876067D01*
X168418492Y-93891612D01*
X168402947Y-93910554D01*
X168391396Y-93932165D01*
X168384283Y-93955614D01*
X168381881Y-93980000D01*
X168384283Y-94004386D01*
X168391396Y-94027835D01*
X168402947Y-94049446D01*
X168418492Y-94068388D01*
X168437434Y-94083933D01*
X168459045Y-94095484D01*
X168598466Y-94153234D01*
X168598467Y-94153235D01*
X168754227Y-94257310D01*
X168886690Y-94389773D01*
X168886691Y-94389775D01*
X168990766Y-94545534D01*
X169062454Y-94718605D01*
X169099000Y-94902333D01*
X169099000Y-95089667D01*
X169062454Y-95273395D01*
X168990766Y-95446466D01*
X168990765Y-95446467D01*
X168886690Y-95602227D01*
X168754227Y-95734690D01*
X168675818Y-95787081D01*
X168598466Y-95838766D01*
X168425395Y-95910454D01*
X168241667Y-95947000D01*
X168054333Y-95947000D01*
X167870605Y-95910454D01*
X167697534Y-95838766D01*
X167620182Y-95787081D01*
X167541773Y-95734690D01*
X167409310Y-95602227D01*
X167305235Y-95446467D01*
X167305234Y-95446466D01*
X167233546Y-95273395D01*
X167197000Y-95089667D01*
X167197000Y-94902333D01*
X167233546Y-94718605D01*
X167305234Y-94545534D01*
X167409309Y-94389775D01*
X167409310Y-94389773D01*
X167541773Y-94257310D01*
X167697533Y-94153235D01*
X167697534Y-94153234D01*
X167836955Y-94095484D01*
X167858566Y-94083933D01*
X167877508Y-94068388D01*
X167893053Y-94049446D01*
X167904604Y-94027835D01*
X167911717Y-94004386D01*
X167914119Y-93980000D01*
X167911717Y-93955614D01*
X167904604Y-93932165D01*
X167893053Y-93910554D01*
X167877508Y-93891612D01*
X167858566Y-93876067D01*
X167836955Y-93864516D01*
X167697534Y-93806766D01*
X167620182Y-93755081D01*
X167541773Y-93702690D01*
X167409310Y-93570227D01*
X167305235Y-93414467D01*
X167305234Y-93414466D01*
X167233546Y-93241395D01*
X167197000Y-93057667D01*
X167197000Y-92870333D01*
X167233546Y-92686605D01*
X167305234Y-92513534D01*
X167409309Y-92357775D01*
X167409310Y-92357773D01*
X167541773Y-92225310D01*
X167697533Y-92121235D01*
X167697534Y-92121234D01*
X167836955Y-92063484D01*
X167858566Y-92051933D01*
X167877508Y-92036388D01*
X167893053Y-92017446D01*
X167904604Y-91995835D01*
X167911717Y-91972386D01*
X167914119Y-91948000D01*
X167911717Y-91923614D01*
X167904604Y-91900165D01*
X167893053Y-91878554D01*
X167877508Y-91859612D01*
X167858566Y-91844067D01*
X167836955Y-91832516D01*
X167697534Y-91774766D01*
X167620182Y-91723081D01*
X167541773Y-91670690D01*
X167409310Y-91538227D01*
X167305235Y-91382467D01*
X167305234Y-91382466D01*
X167233546Y-91209395D01*
X167197000Y-91025667D01*
X167197000Y-90838333D01*
X167233546Y-90654605D01*
X167305234Y-90481534D01*
X167409309Y-90325775D01*
X167409310Y-90325773D01*
X167541773Y-90193310D01*
X167620182Y-90140919D01*
X167697534Y-90089234D01*
X167836955Y-90031484D01*
X167858566Y-90019933D01*
X167877508Y-90004388D01*
X167893053Y-89985446D01*
X167904604Y-89963835D01*
X167911717Y-89940386D01*
X167914119Y-89916000D01*
X167911717Y-89891614D01*
X167904604Y-89868165D01*
X167893053Y-89846554D01*
X167877508Y-89827612D01*
X167858566Y-89812067D01*
X167836955Y-89800516D01*
X167697534Y-89742766D01*
X167555894Y-89648125D01*
X167541773Y-89638690D01*
X167409310Y-89506227D01*
X167305235Y-89350467D01*
X167305234Y-89350466D01*
X167233546Y-89177395D01*
X167197000Y-88993667D01*
X167197000Y-88806333D01*
X167233546Y-88622605D01*
X167305234Y-88449534D01*
X167409309Y-88293775D01*
X167409310Y-88293773D01*
X167541773Y-88161310D01*
X167697533Y-88057235D01*
X167697534Y-88057234D01*
X167870605Y-87985546D01*
X168054333Y-87949000D01*
X168241667Y-87949000D01*
X168425395Y-87985546D01*
X168425395Y-87985546D01*
G37*
G36*
X165885395Y-86969546D02*
G01*
X166058466Y-87041234D01*
X166058467Y-87041235D01*
X166214227Y-87145310D01*
X166346690Y-87277773D01*
X166346691Y-87277775D01*
X166450766Y-87433534D01*
X166522454Y-87606605D01*
X166559000Y-87790333D01*
X166559000Y-87977667D01*
X166522454Y-88161395D01*
X166450766Y-88334466D01*
X166450765Y-88334467D01*
X166346690Y-88490227D01*
X166214227Y-88622690D01*
X166195718Y-88635057D01*
X166058466Y-88726766D01*
X165919045Y-88784516D01*
X165897434Y-88796067D01*
X165878492Y-88811612D01*
X165862947Y-88830554D01*
X165851396Y-88852165D01*
X165844283Y-88875614D01*
X165841881Y-88900000D01*
X165844283Y-88924386D01*
X165851396Y-88947835D01*
X165862947Y-88969446D01*
X165878492Y-88988388D01*
X165897434Y-89003933D01*
X165919045Y-89015484D01*
X166058466Y-89073234D01*
X166058467Y-89073235D01*
X166214227Y-89177310D01*
X166346690Y-89309773D01*
X166346691Y-89309775D01*
X166450766Y-89465534D01*
X166522454Y-89638605D01*
X166559000Y-89822333D01*
X166559000Y-90009667D01*
X166522454Y-90193395D01*
X166450766Y-90366466D01*
X166450765Y-90366467D01*
X166346690Y-90522227D01*
X166214227Y-90654690D01*
X166135818Y-90707081D01*
X166058466Y-90758766D01*
X165919045Y-90816516D01*
X165897434Y-90828067D01*
X165878492Y-90843612D01*
X165862947Y-90862554D01*
X165851396Y-90884165D01*
X165844283Y-90907614D01*
X165841881Y-90932000D01*
X165844283Y-90956386D01*
X165851396Y-90979835D01*
X165862947Y-91001446D01*
X165878492Y-91020388D01*
X165897434Y-91035933D01*
X165919045Y-91047484D01*
X166058466Y-91105234D01*
X166058467Y-91105235D01*
X166214227Y-91209310D01*
X166346690Y-91341773D01*
X166346691Y-91341775D01*
X166450766Y-91497534D01*
X166522454Y-91670605D01*
X166559000Y-91854333D01*
X166559000Y-92041667D01*
X166522454Y-92225395D01*
X166450766Y-92398466D01*
X166450765Y-92398467D01*
X166346690Y-92554227D01*
X166214227Y-92686690D01*
X166135818Y-92739081D01*
X166058466Y-92790766D01*
X165919045Y-92848516D01*
X165897434Y-92860067D01*
X165878492Y-92875612D01*
X165862947Y-92894554D01*
X165851396Y-92916165D01*
X165844283Y-92939614D01*
X165841881Y-92964000D01*
X165844283Y-92988386D01*
X165851396Y-93011835D01*
X165862947Y-93033446D01*
X165878492Y-93052388D01*
X165897434Y-93067933D01*
X165919045Y-93079484D01*
X166058466Y-93137234D01*
X166058467Y-93137235D01*
X166214227Y-93241310D01*
X166346690Y-93373773D01*
X166346691Y-93373775D01*
X166450766Y-93529534D01*
X166522454Y-93702605D01*
X166559000Y-93886333D01*
X166559000Y-94073667D01*
X166522454Y-94257395D01*
X166450766Y-94430466D01*
X166450765Y-94430467D01*
X166346690Y-94586227D01*
X166214227Y-94718690D01*
X166135818Y-94771081D01*
X166058466Y-94822766D01*
X165885395Y-94894454D01*
X165701667Y-94931000D01*
X165514333Y-94931000D01*
X165330605Y-94894454D01*
X165157534Y-94822766D01*
X165080182Y-94771081D01*
X165001773Y-94718690D01*
X164869310Y-94586227D01*
X164765235Y-94430467D01*
X164765234Y-94430466D01*
X164693546Y-94257395D01*
X164657000Y-94073667D01*
X164657000Y-93886333D01*
X164693546Y-93702605D01*
X164765234Y-93529534D01*
X164869309Y-93373775D01*
X164869310Y-93373773D01*
X165001773Y-93241310D01*
X165157533Y-93137235D01*
X165157534Y-93137234D01*
X165296955Y-93079484D01*
X165318566Y-93067933D01*
X165337508Y-93052388D01*
X165353053Y-93033446D01*
X165364604Y-93011835D01*
X165371717Y-92988386D01*
X165374119Y-92964000D01*
X165371717Y-92939614D01*
X165364604Y-92916165D01*
X165353053Y-92894554D01*
X165337508Y-92875612D01*
X165318566Y-92860067D01*
X165296955Y-92848516D01*
X165157534Y-92790766D01*
X165080182Y-92739081D01*
X165001773Y-92686690D01*
X164869310Y-92554227D01*
X164765235Y-92398467D01*
X164765234Y-92398466D01*
X164693546Y-92225395D01*
X164657000Y-92041667D01*
X164657000Y-91854333D01*
X164693546Y-91670605D01*
X164765234Y-91497534D01*
X164869309Y-91341775D01*
X164869310Y-91341773D01*
X165001773Y-91209310D01*
X165157533Y-91105235D01*
X165157534Y-91105234D01*
X165296955Y-91047484D01*
X165318566Y-91035933D01*
X165337508Y-91020388D01*
X165353053Y-91001446D01*
X165364604Y-90979835D01*
X165371717Y-90956386D01*
X165374119Y-90932000D01*
X165371717Y-90907614D01*
X165364604Y-90884165D01*
X165353053Y-90862554D01*
X165337508Y-90843612D01*
X165318566Y-90828067D01*
X165296955Y-90816516D01*
X165157534Y-90758766D01*
X165080182Y-90707081D01*
X165001773Y-90654690D01*
X164869310Y-90522227D01*
X164765235Y-90366467D01*
X164765234Y-90366466D01*
X164693546Y-90193395D01*
X164657000Y-90009667D01*
X164657000Y-89822333D01*
X164693546Y-89638605D01*
X164765234Y-89465534D01*
X164869309Y-89309775D01*
X164869310Y-89309773D01*
X165001773Y-89177310D01*
X165157533Y-89073235D01*
X165157534Y-89073234D01*
X165296955Y-89015484D01*
X165318566Y-89003933D01*
X165337508Y-88988388D01*
X165353053Y-88969446D01*
X165364604Y-88947835D01*
X165371717Y-88924386D01*
X165374119Y-88900000D01*
X165371717Y-88875614D01*
X165364604Y-88852165D01*
X165353053Y-88830554D01*
X165337508Y-88811612D01*
X165318566Y-88796067D01*
X165296955Y-88784516D01*
X165157534Y-88726766D01*
X165020282Y-88635057D01*
X165001773Y-88622690D01*
X164869310Y-88490227D01*
X164765235Y-88334467D01*
X164765234Y-88334466D01*
X164693546Y-88161395D01*
X164657000Y-87977667D01*
X164657000Y-87790333D01*
X164693546Y-87606605D01*
X164765234Y-87433534D01*
X164869309Y-87277775D01*
X164869310Y-87277773D01*
X165001773Y-87145310D01*
X165157533Y-87041235D01*
X165157534Y-87041234D01*
X165330605Y-86969546D01*
X165514333Y-86933000D01*
X165701667Y-86933000D01*
X165885395Y-86969546D01*
X165885395Y-86969546D01*
G37*
G36*
X158352443Y-88577019D02*
G01*
X158418627Y-88583537D01*
X158588466Y-88635057D01*
X158744991Y-88718722D01*
X158780729Y-88748052D01*
X158882186Y-88831314D01*
X158938554Y-88900000D01*
X158994778Y-88968509D01*
X159078443Y-89125034D01*
X159129963Y-89294873D01*
X159147359Y-89471500D01*
X159129963Y-89648127D01*
X159078443Y-89817966D01*
X158994778Y-89974491D01*
X158989436Y-89981000D01*
X158882186Y-90111686D01*
X158782727Y-90193309D01*
X158744991Y-90224278D01*
X158588466Y-90307943D01*
X158418627Y-90359463D01*
X158352443Y-90365981D01*
X158286260Y-90372500D01*
X158197740Y-90372500D01*
X158131557Y-90365981D01*
X158065373Y-90359463D01*
X157895534Y-90307943D01*
X157739009Y-90224278D01*
X157701273Y-90193309D01*
X157601814Y-90111686D01*
X157494564Y-89981000D01*
X157489222Y-89974491D01*
X157405557Y-89817966D01*
X157354037Y-89648127D01*
X157336641Y-89471500D01*
X157354037Y-89294873D01*
X157405557Y-89125034D01*
X157489222Y-88968509D01*
X157545446Y-88900000D01*
X157601814Y-88831314D01*
X157703271Y-88748052D01*
X157739009Y-88718722D01*
X157895534Y-88635057D01*
X158065373Y-88583537D01*
X158131557Y-88577019D01*
X158197740Y-88570500D01*
X158286260Y-88570500D01*
X158352443Y-88577019D01*
X158352443Y-88577019D01*
G37*
G36*
X145778473Y-86765438D02*
G01*
X145906049Y-86818282D01*
X146020859Y-86894995D01*
X146118505Y-86992641D01*
X146195218Y-87107451D01*
X146248062Y-87235027D01*
X146275000Y-87370456D01*
X146275000Y-87508544D01*
X146248062Y-87643973D01*
X146195218Y-87771549D01*
X146118505Y-87886359D01*
X146020859Y-87984005D01*
X145906049Y-88060718D01*
X145778473Y-88113562D01*
X145643044Y-88140500D01*
X145504956Y-88140500D01*
X145369527Y-88113562D01*
X145241951Y-88060718D01*
X145127141Y-87984005D01*
X145029495Y-87886359D01*
X144952782Y-87771549D01*
X144899938Y-87643973D01*
X144873000Y-87508544D01*
X144873000Y-87370456D01*
X144899938Y-87235027D01*
X144952782Y-87107451D01*
X145029495Y-86992641D01*
X145127141Y-86894995D01*
X145241951Y-86818282D01*
X145369527Y-86765438D01*
X145504956Y-86738500D01*
X145643044Y-86738500D01*
X145778473Y-86765438D01*
X145778473Y-86765438D01*
G37*
G36*
X137778473Y-86765438D02*
G01*
X137906049Y-86818282D01*
X138020859Y-86894995D01*
X138118505Y-86992641D01*
X138195218Y-87107451D01*
X138248062Y-87235027D01*
X138275000Y-87370456D01*
X138275000Y-87508544D01*
X138248062Y-87643973D01*
X138195218Y-87771549D01*
X138118505Y-87886359D01*
X138020859Y-87984005D01*
X137906049Y-88060718D01*
X137778473Y-88113562D01*
X137643044Y-88140500D01*
X137504956Y-88140500D01*
X137369527Y-88113562D01*
X137241951Y-88060718D01*
X137127141Y-87984005D01*
X137029495Y-87886359D01*
X136952782Y-87771549D01*
X136899938Y-87643973D01*
X136873000Y-87508544D01*
X136873000Y-87370456D01*
X136899938Y-87235027D01*
X136952782Y-87107451D01*
X137029495Y-86992641D01*
X137127141Y-86894995D01*
X137241951Y-86818282D01*
X137369527Y-86765438D01*
X137504956Y-86738500D01*
X137643044Y-86738500D01*
X137778473Y-86765438D01*
X137778473Y-86765438D01*
G37*
G36*
X139778473Y-86765438D02*
G01*
X139906049Y-86818282D01*
X140020859Y-86894995D01*
X140118505Y-86992641D01*
X140195218Y-87107451D01*
X140248062Y-87235027D01*
X140275000Y-87370456D01*
X140275000Y-87508544D01*
X140248062Y-87643973D01*
X140195218Y-87771549D01*
X140118505Y-87886359D01*
X140020859Y-87984005D01*
X139906049Y-88060718D01*
X139778473Y-88113562D01*
X139643044Y-88140500D01*
X139504956Y-88140500D01*
X139369527Y-88113562D01*
X139241951Y-88060718D01*
X139127141Y-87984005D01*
X139029495Y-87886359D01*
X138952782Y-87771549D01*
X138899938Y-87643973D01*
X138873000Y-87508544D01*
X138873000Y-87370456D01*
X138899938Y-87235027D01*
X138952782Y-87107451D01*
X139029495Y-86992641D01*
X139127141Y-86894995D01*
X139241951Y-86818282D01*
X139369527Y-86765438D01*
X139504956Y-86738500D01*
X139643044Y-86738500D01*
X139778473Y-86765438D01*
X139778473Y-86765438D01*
G37*
G36*
X141778473Y-86765438D02*
G01*
X141906049Y-86818282D01*
X142020859Y-86894995D01*
X142118505Y-86992641D01*
X142195218Y-87107451D01*
X142248062Y-87235027D01*
X142275000Y-87370456D01*
X142275000Y-87508544D01*
X142248062Y-87643973D01*
X142195218Y-87771549D01*
X142118505Y-87886359D01*
X142020859Y-87984005D01*
X141906049Y-88060718D01*
X141778473Y-88113562D01*
X141643044Y-88140500D01*
X141504956Y-88140500D01*
X141369527Y-88113562D01*
X141241951Y-88060718D01*
X141127141Y-87984005D01*
X141029495Y-87886359D01*
X140952782Y-87771549D01*
X140899938Y-87643973D01*
X140873000Y-87508544D01*
X140873000Y-87370456D01*
X140899938Y-87235027D01*
X140952782Y-87107451D01*
X141029495Y-86992641D01*
X141127141Y-86894995D01*
X141241951Y-86818282D01*
X141369527Y-86765438D01*
X141504956Y-86738500D01*
X141643044Y-86738500D01*
X141778473Y-86765438D01*
X141778473Y-86765438D01*
G37*
G36*
X143778473Y-86765438D02*
G01*
X143906049Y-86818282D01*
X144020859Y-86894995D01*
X144118505Y-86992641D01*
X144195218Y-87107451D01*
X144248062Y-87235027D01*
X144275000Y-87370456D01*
X144275000Y-87508544D01*
X144248062Y-87643973D01*
X144195218Y-87771549D01*
X144118505Y-87886359D01*
X144020859Y-87984005D01*
X143906049Y-88060718D01*
X143778473Y-88113562D01*
X143643044Y-88140500D01*
X143504956Y-88140500D01*
X143369527Y-88113562D01*
X143241951Y-88060718D01*
X143127141Y-87984005D01*
X143029495Y-87886359D01*
X142952782Y-87771549D01*
X142899938Y-87643973D01*
X142873000Y-87508544D01*
X142873000Y-87370456D01*
X142899938Y-87235027D01*
X142952782Y-87107451D01*
X143029495Y-86992641D01*
X143127141Y-86894995D01*
X143241951Y-86818282D01*
X143369527Y-86765438D01*
X143504956Y-86738500D01*
X143643044Y-86738500D01*
X143778473Y-86765438D01*
X143778473Y-86765438D01*
G37*
G36*
X147778473Y-86765438D02*
G01*
X147906049Y-86818282D01*
X148020859Y-86894995D01*
X148118505Y-86992641D01*
X148195218Y-87107451D01*
X148248062Y-87235027D01*
X148275000Y-87370456D01*
X148275000Y-87508544D01*
X148248062Y-87643973D01*
X148195218Y-87771549D01*
X148118505Y-87886359D01*
X148020859Y-87984005D01*
X147906049Y-88060718D01*
X147778473Y-88113562D01*
X147643044Y-88140500D01*
X147504956Y-88140500D01*
X147369527Y-88113562D01*
X147241951Y-88060718D01*
X147127141Y-87984005D01*
X147029495Y-87886359D01*
X146952782Y-87771549D01*
X146899938Y-87643973D01*
X146873000Y-87508544D01*
X146873000Y-87370456D01*
X146899938Y-87235027D01*
X146952782Y-87107451D01*
X147029495Y-86992641D01*
X147127141Y-86894995D01*
X147241951Y-86818282D01*
X147369527Y-86765438D01*
X147504956Y-86738500D01*
X147643044Y-86738500D01*
X147778473Y-86765438D01*
X147778473Y-86765438D01*
G37*
G36*
X159143000Y-87832500D02*
G01*
X157341000Y-87832500D01*
X157341000Y-86030500D01*
X159143000Y-86030500D01*
X159143000Y-87832500D01*
X159143000Y-87832500D01*
G37*
G36*
X170827487Y-82788996D02*
G01*
X171064253Y-82887068D01*
X171064255Y-82887069D01*
X171126942Y-82928955D01*
X171277339Y-83029447D01*
X171458553Y-83210661D01*
X171600932Y-83423747D01*
X171699004Y-83660513D01*
X171749000Y-83911861D01*
X171749000Y-84168139D01*
X171699004Y-84419487D01*
X171600932Y-84656253D01*
X171600931Y-84656255D01*
X171458553Y-84869339D01*
X171277339Y-85050553D01*
X171064255Y-85192931D01*
X171064254Y-85192932D01*
X171064253Y-85192932D01*
X170827487Y-85291004D01*
X170576139Y-85341000D01*
X170319861Y-85341000D01*
X170068513Y-85291004D01*
X169831747Y-85192932D01*
X169831746Y-85192932D01*
X169831745Y-85192931D01*
X169618661Y-85050553D01*
X169437447Y-84869339D01*
X169295069Y-84656255D01*
X169295068Y-84656253D01*
X169196996Y-84419487D01*
X169147000Y-84168139D01*
X169147000Y-83911861D01*
X169196996Y-83660513D01*
X169295068Y-83423747D01*
X169437447Y-83210661D01*
X169618661Y-83029447D01*
X169769058Y-82928955D01*
X169831745Y-82887069D01*
X169831747Y-82887068D01*
X170068513Y-82788996D01*
X170319861Y-82739000D01*
X170576139Y-82739000D01*
X170827487Y-82788996D01*
X170827487Y-82788996D01*
G37*
G36*
X165856228Y-82496703D02*
G01*
X166011100Y-82560853D01*
X166150481Y-82653985D01*
X166269015Y-82772519D01*
X166362147Y-82911900D01*
X166426297Y-83066772D01*
X166459000Y-83231184D01*
X166459000Y-83398816D01*
X166426297Y-83563228D01*
X166362147Y-83718100D01*
X166269015Y-83857481D01*
X166150481Y-83976015D01*
X166011100Y-84069147D01*
X165856228Y-84133297D01*
X165691816Y-84166000D01*
X165524184Y-84166000D01*
X165359772Y-84133297D01*
X165204900Y-84069147D01*
X165065519Y-83976015D01*
X164946985Y-83857481D01*
X164853853Y-83718100D01*
X164789703Y-83563228D01*
X164757000Y-83398816D01*
X164757000Y-83231184D01*
X164789703Y-83066772D01*
X164853853Y-82911900D01*
X164946985Y-82772519D01*
X165065519Y-82653985D01*
X165204900Y-82560853D01*
X165359772Y-82496703D01*
X165524184Y-82464000D01*
X165691816Y-82464000D01*
X165856228Y-82496703D01*
X165856228Y-82496703D01*
G37*
G36*
X174569085Y-79323976D02*
G01*
X174924143Y-79471046D01*
X174924145Y-79471047D01*
X175243690Y-79684560D01*
X175515441Y-79956311D01*
X175728954Y-80275856D01*
X175728955Y-80275858D01*
X175876025Y-80630916D01*
X175951000Y-81007843D01*
X175951000Y-81392159D01*
X175876025Y-81769086D01*
X175728955Y-82124144D01*
X175728954Y-82124146D01*
X175515441Y-82443691D01*
X175243690Y-82715442D01*
X174924145Y-82928955D01*
X174924144Y-82928956D01*
X174924143Y-82928956D01*
X174569085Y-83076026D01*
X174192158Y-83151001D01*
X173807842Y-83151001D01*
X173430915Y-83076026D01*
X173075857Y-82928956D01*
X173075856Y-82928956D01*
X173075855Y-82928955D01*
X172756310Y-82715442D01*
X172484559Y-82443691D01*
X172271046Y-82124146D01*
X172271045Y-82124144D01*
X172123975Y-81769086D01*
X172049000Y-81392159D01*
X172049000Y-81007843D01*
X172123975Y-80630916D01*
X172271045Y-80275858D01*
X172271046Y-80275856D01*
X172484559Y-79956311D01*
X172756310Y-79684560D01*
X173075855Y-79471047D01*
X173075857Y-79471046D01*
X173430915Y-79323976D01*
X173807842Y-79249001D01*
X174192158Y-79249001D01*
X174569085Y-79323976D01*
X174569085Y-79323976D01*
G37*
G36*
X137569086Y-79323976D02*
G01*
X137924144Y-79471046D01*
X137924146Y-79471047D01*
X138243691Y-79684560D01*
X138515442Y-79956311D01*
X138728955Y-80275856D01*
X138728956Y-80275858D01*
X138876026Y-80630916D01*
X138951001Y-81007843D01*
X138951001Y-81392159D01*
X138876026Y-81769086D01*
X138728956Y-82124144D01*
X138728955Y-82124146D01*
X138515442Y-82443691D01*
X138243691Y-82715442D01*
X137924146Y-82928955D01*
X137924145Y-82928956D01*
X137924144Y-82928956D01*
X137569086Y-83076026D01*
X137192159Y-83151001D01*
X136807843Y-83151001D01*
X136430916Y-83076026D01*
X136075858Y-82928956D01*
X136075857Y-82928956D01*
X136075856Y-82928955D01*
X135756311Y-82715442D01*
X135484560Y-82443691D01*
X135271047Y-82124146D01*
X135271046Y-82124144D01*
X135123976Y-81769086D01*
X135049001Y-81392159D01*
X135049001Y-81007843D01*
X135123976Y-80630916D01*
X135271046Y-80275858D01*
X135271047Y-80275856D01*
X135484560Y-79956311D01*
X135756311Y-79684560D01*
X136075856Y-79471047D01*
X136075858Y-79471046D01*
X136430916Y-79323976D01*
X136807843Y-79249001D01*
X137192159Y-79249001D01*
X137569086Y-79323976D01*
X137569086Y-79323976D01*
G37*
M02*
