G04 #@! TF.GenerationSoftware,KiCad,Pcbnew,(5.1.2)-1*
G04 #@! TF.CreationDate,2020-12-31T00:30:43+09:00*
G04 #@! TF.ProjectId,M5Atom_CAN_RJ45,4d354174-6f6d-45f4-9341-4e5f524a3435,rev?*
G04 #@! TF.SameCoordinates,Original*
G04 #@! TF.FileFunction,Legend,Bot*
G04 #@! TF.FilePolarity,Positive*
%FSLAX46Y46*%
G04 Gerber Fmt 4.6, Leading zero omitted, Abs format (unit mm)*
G04 Created by KiCad (PCBNEW (5.1.2)-1) date 2020-12-31 00:30:43*
%MOMM*%
%LPD*%
G04 APERTURE LIST*
%ADD10C,0.120000*%
%ADD11C,0.150000*%
G04 APERTURE END LIST*
D10*
X147485000Y-111916000D02*
X147485000Y-114966000D01*
X149085000Y-111916000D02*
X147485000Y-111916000D01*
X149085000Y-114966000D02*
X149085000Y-111916000D01*
X148082000Y-103779000D02*
X144632000Y-103779000D01*
X148082000Y-103779000D02*
X150032000Y-103779000D01*
X148082000Y-98659000D02*
X146132000Y-98659000D01*
X148082000Y-98659000D02*
X150032000Y-98659000D01*
X153799000Y-87317733D02*
X153799000Y-87660267D01*
X152779000Y-87317733D02*
X152779000Y-87660267D01*
X145127733Y-109853000D02*
X145470267Y-109853000D01*
X145127733Y-110873000D02*
X145470267Y-110873000D01*
X150845733Y-109472000D02*
X151188267Y-109472000D01*
X150845733Y-110492000D02*
X151188267Y-110492000D01*
D11*
X147137380Y-112977904D02*
X146137380Y-112977904D01*
X146137380Y-113216000D01*
X146185000Y-113358857D01*
X146280238Y-113454095D01*
X146375476Y-113501714D01*
X146565952Y-113549333D01*
X146708809Y-113549333D01*
X146899285Y-113501714D01*
X146994523Y-113454095D01*
X147089761Y-113358857D01*
X147137380Y-113216000D01*
X147137380Y-112977904D01*
X147137380Y-114501714D02*
X147137380Y-113930285D01*
X147137380Y-114216000D02*
X146137380Y-114216000D01*
X146280238Y-114120761D01*
X146375476Y-114025523D01*
X146423095Y-113930285D01*
X148843904Y-104071380D02*
X148843904Y-104880904D01*
X148796285Y-104976142D01*
X148748666Y-105023761D01*
X148653428Y-105071380D01*
X148462952Y-105071380D01*
X148367714Y-105023761D01*
X148320095Y-104976142D01*
X148272476Y-104880904D01*
X148272476Y-104071380D01*
X147272476Y-105071380D02*
X147843904Y-105071380D01*
X147558190Y-105071380D02*
X147558190Y-104071380D01*
X147653428Y-104214238D01*
X147748666Y-104309476D01*
X147843904Y-104357095D01*
X152311380Y-87322333D02*
X151835190Y-86989000D01*
X152311380Y-86750904D02*
X151311380Y-86750904D01*
X151311380Y-87131857D01*
X151359000Y-87227095D01*
X151406619Y-87274714D01*
X151501857Y-87322333D01*
X151644714Y-87322333D01*
X151739952Y-87274714D01*
X151787571Y-87227095D01*
X151835190Y-87131857D01*
X151835190Y-86750904D01*
X152311380Y-88274714D02*
X152311380Y-87703285D01*
X152311380Y-87989000D02*
X151311380Y-87989000D01*
X151454238Y-87893761D01*
X151549476Y-87798523D01*
X151597095Y-87703285D01*
X145465666Y-112150142D02*
X145513285Y-112197761D01*
X145656142Y-112245380D01*
X145751380Y-112245380D01*
X145894238Y-112197761D01*
X145989476Y-112102523D01*
X146037095Y-112007285D01*
X146084714Y-111816809D01*
X146084714Y-111673952D01*
X146037095Y-111483476D01*
X145989476Y-111388238D01*
X145894238Y-111293000D01*
X145751380Y-111245380D01*
X145656142Y-111245380D01*
X145513285Y-111293000D01*
X145465666Y-111340619D01*
X145084714Y-111340619D02*
X145037095Y-111293000D01*
X144941857Y-111245380D01*
X144703761Y-111245380D01*
X144608523Y-111293000D01*
X144560904Y-111340619D01*
X144513285Y-111435857D01*
X144513285Y-111531095D01*
X144560904Y-111673952D01*
X145132333Y-112245380D01*
X144513285Y-112245380D01*
X151183666Y-111769142D02*
X151231285Y-111816761D01*
X151374142Y-111864380D01*
X151469380Y-111864380D01*
X151612238Y-111816761D01*
X151707476Y-111721523D01*
X151755095Y-111626285D01*
X151802714Y-111435809D01*
X151802714Y-111292952D01*
X151755095Y-111102476D01*
X151707476Y-111007238D01*
X151612238Y-110912000D01*
X151469380Y-110864380D01*
X151374142Y-110864380D01*
X151231285Y-110912000D01*
X151183666Y-110959619D01*
X150231285Y-111864380D02*
X150802714Y-111864380D01*
X150517000Y-111864380D02*
X150517000Y-110864380D01*
X150612238Y-111007238D01*
X150707476Y-111102476D01*
X150802714Y-111150095D01*
M02*
