G04 #@! TF.GenerationSoftware,KiCad,Pcbnew,(5.1.2)-1*
G04 #@! TF.CreationDate,2020-12-05T14:01:01+09:00*
G04 #@! TF.ProjectId,M5Atom_CAN,4d354174-6f6d-45f4-9341-4e2e6b696361,rev?*
G04 #@! TF.SameCoordinates,Original*
G04 #@! TF.FileFunction,Soldermask,Bot*
G04 #@! TF.FilePolarity,Negative*
%FSLAX46Y46*%
G04 Gerber Fmt 4.6, Leading zero omitted, Abs format (unit mm)*
G04 Created by KiCad (PCBNEW (5.1.2)-1) date 2020-12-05 14:01:01*
%MOMM*%
%LPD*%
G04 APERTURE LIST*
%ADD10C,0.100000*%
G04 APERTURE END LIST*
D10*
G36*
X166733085Y-134823974D02*
G01*
X167088143Y-134971044D01*
X167088145Y-134971045D01*
X167407690Y-135184558D01*
X167679441Y-135456309D01*
X167892954Y-135775854D01*
X167892955Y-135775856D01*
X168040025Y-136130914D01*
X168115000Y-136507841D01*
X168115000Y-136892157D01*
X168040025Y-137269084D01*
X167892955Y-137624142D01*
X167892954Y-137624144D01*
X167679441Y-137943689D01*
X167407690Y-138215440D01*
X167088145Y-138428953D01*
X167088144Y-138428954D01*
X167088143Y-138428954D01*
X166733085Y-138576024D01*
X166356158Y-138650999D01*
X165971842Y-138650999D01*
X165594915Y-138576024D01*
X165239857Y-138428954D01*
X165239856Y-138428954D01*
X165239855Y-138428953D01*
X164920310Y-138215440D01*
X164648559Y-137943689D01*
X164435046Y-137624144D01*
X164435045Y-137624142D01*
X164287975Y-137269084D01*
X164213000Y-136892157D01*
X164213000Y-136507841D01*
X164287975Y-136130914D01*
X164435045Y-135775856D01*
X164435046Y-135775854D01*
X164648559Y-135456309D01*
X164920310Y-135184558D01*
X165239855Y-134971045D01*
X165239857Y-134971044D01*
X165594915Y-134823974D01*
X165971842Y-134748999D01*
X166356158Y-134748999D01*
X166733085Y-134823974D01*
X166733085Y-134823974D01*
G37*
G36*
X134633085Y-134823974D02*
G01*
X134988143Y-134971044D01*
X134988145Y-134971045D01*
X135307690Y-135184558D01*
X135579441Y-135456309D01*
X135792954Y-135775854D01*
X135792955Y-135775856D01*
X135940025Y-136130914D01*
X136015000Y-136507841D01*
X136015000Y-136892157D01*
X135940025Y-137269084D01*
X135792955Y-137624142D01*
X135792954Y-137624144D01*
X135579441Y-137943689D01*
X135307690Y-138215440D01*
X134988145Y-138428953D01*
X134988144Y-138428954D01*
X134988143Y-138428954D01*
X134633085Y-138576024D01*
X134256158Y-138650999D01*
X133871842Y-138650999D01*
X133494915Y-138576024D01*
X133139857Y-138428954D01*
X133139856Y-138428954D01*
X133139855Y-138428953D01*
X132820310Y-138215440D01*
X132548559Y-137943689D01*
X132335046Y-137624144D01*
X132335045Y-137624142D01*
X132187975Y-137269084D01*
X132113000Y-136892157D01*
X132113000Y-136507841D01*
X132187975Y-136130914D01*
X132335045Y-135775856D01*
X132335046Y-135775854D01*
X132548559Y-135456309D01*
X132820310Y-135184558D01*
X133139855Y-134971045D01*
X133139857Y-134971044D01*
X133494915Y-134823974D01*
X133871842Y-134748999D01*
X134256158Y-134748999D01*
X134633085Y-134823974D01*
X134633085Y-134823974D01*
G37*
G36*
X155080473Y-135469938D02*
G01*
X155208049Y-135522782D01*
X155322859Y-135599495D01*
X155420505Y-135697141D01*
X155497218Y-135811951D01*
X155550062Y-135939527D01*
X155577000Y-136074956D01*
X155577000Y-136213044D01*
X155550062Y-136348473D01*
X155497218Y-136476049D01*
X155420505Y-136590859D01*
X155322859Y-136688505D01*
X155208049Y-136765218D01*
X155080473Y-136818062D01*
X154945044Y-136845000D01*
X154806956Y-136845000D01*
X154671527Y-136818062D01*
X154543951Y-136765218D01*
X154429141Y-136688505D01*
X154331495Y-136590859D01*
X154254782Y-136476049D01*
X154201938Y-136348473D01*
X154175000Y-136213044D01*
X154175000Y-136074956D01*
X154201938Y-135939527D01*
X154254782Y-135811951D01*
X154331495Y-135697141D01*
X154429141Y-135599495D01*
X154543951Y-135522782D01*
X154671527Y-135469938D01*
X154806956Y-135443000D01*
X154945044Y-135443000D01*
X155080473Y-135469938D01*
X155080473Y-135469938D01*
G37*
G36*
X153080473Y-135469938D02*
G01*
X153208049Y-135522782D01*
X153322859Y-135599495D01*
X153420505Y-135697141D01*
X153497218Y-135811951D01*
X153550062Y-135939527D01*
X153577000Y-136074956D01*
X153577000Y-136213044D01*
X153550062Y-136348473D01*
X153497218Y-136476049D01*
X153420505Y-136590859D01*
X153322859Y-136688505D01*
X153208049Y-136765218D01*
X153080473Y-136818062D01*
X152945044Y-136845000D01*
X152806956Y-136845000D01*
X152671527Y-136818062D01*
X152543951Y-136765218D01*
X152429141Y-136688505D01*
X152331495Y-136590859D01*
X152254782Y-136476049D01*
X152201938Y-136348473D01*
X152175000Y-136213044D01*
X152175000Y-136074956D01*
X152201938Y-135939527D01*
X152254782Y-135811951D01*
X152331495Y-135697141D01*
X152429141Y-135599495D01*
X152543951Y-135522782D01*
X152671527Y-135469938D01*
X152806956Y-135443000D01*
X152945044Y-135443000D01*
X153080473Y-135469938D01*
X153080473Y-135469938D01*
G37*
G36*
X145080473Y-135469938D02*
G01*
X145208049Y-135522782D01*
X145322859Y-135599495D01*
X145420505Y-135697141D01*
X145497218Y-135811951D01*
X145550062Y-135939527D01*
X145577000Y-136074956D01*
X145577000Y-136213044D01*
X145550062Y-136348473D01*
X145497218Y-136476049D01*
X145420505Y-136590859D01*
X145322859Y-136688505D01*
X145208049Y-136765218D01*
X145080473Y-136818062D01*
X144945044Y-136845000D01*
X144806956Y-136845000D01*
X144671527Y-136818062D01*
X144543951Y-136765218D01*
X144429141Y-136688505D01*
X144331495Y-136590859D01*
X144254782Y-136476049D01*
X144201938Y-136348473D01*
X144175000Y-136213044D01*
X144175000Y-136074956D01*
X144201938Y-135939527D01*
X144254782Y-135811951D01*
X144331495Y-135697141D01*
X144429141Y-135599495D01*
X144543951Y-135522782D01*
X144671527Y-135469938D01*
X144806956Y-135443000D01*
X144945044Y-135443000D01*
X145080473Y-135469938D01*
X145080473Y-135469938D01*
G37*
G36*
X147080473Y-135469938D02*
G01*
X147208049Y-135522782D01*
X147322859Y-135599495D01*
X147420505Y-135697141D01*
X147497218Y-135811951D01*
X147550062Y-135939527D01*
X147577000Y-136074956D01*
X147577000Y-136213044D01*
X147550062Y-136348473D01*
X147497218Y-136476049D01*
X147420505Y-136590859D01*
X147322859Y-136688505D01*
X147208049Y-136765218D01*
X147080473Y-136818062D01*
X146945044Y-136845000D01*
X146806956Y-136845000D01*
X146671527Y-136818062D01*
X146543951Y-136765218D01*
X146429141Y-136688505D01*
X146331495Y-136590859D01*
X146254782Y-136476049D01*
X146201938Y-136348473D01*
X146175000Y-136213044D01*
X146175000Y-136074956D01*
X146201938Y-135939527D01*
X146254782Y-135811951D01*
X146331495Y-135697141D01*
X146429141Y-135599495D01*
X146543951Y-135522782D01*
X146671527Y-135469938D01*
X146806956Y-135443000D01*
X146945044Y-135443000D01*
X147080473Y-135469938D01*
X147080473Y-135469938D01*
G37*
G36*
X151080473Y-135469938D02*
G01*
X151208049Y-135522782D01*
X151322859Y-135599495D01*
X151420505Y-135697141D01*
X151497218Y-135811951D01*
X151550062Y-135939527D01*
X151577000Y-136074956D01*
X151577000Y-136213044D01*
X151550062Y-136348473D01*
X151497218Y-136476049D01*
X151420505Y-136590859D01*
X151322859Y-136688505D01*
X151208049Y-136765218D01*
X151080473Y-136818062D01*
X150945044Y-136845000D01*
X150806956Y-136845000D01*
X150671527Y-136818062D01*
X150543951Y-136765218D01*
X150429141Y-136688505D01*
X150331495Y-136590859D01*
X150254782Y-136476049D01*
X150201938Y-136348473D01*
X150175000Y-136213044D01*
X150175000Y-136074956D01*
X150201938Y-135939527D01*
X150254782Y-135811951D01*
X150331495Y-135697141D01*
X150429141Y-135599495D01*
X150543951Y-135522782D01*
X150671527Y-135469938D01*
X150806956Y-135443000D01*
X150945044Y-135443000D01*
X151080473Y-135469938D01*
X151080473Y-135469938D01*
G37*
G36*
X149080473Y-135469938D02*
G01*
X149208049Y-135522782D01*
X149322859Y-135599495D01*
X149420505Y-135697141D01*
X149497218Y-135811951D01*
X149550062Y-135939527D01*
X149577000Y-136074956D01*
X149577000Y-136213044D01*
X149550062Y-136348473D01*
X149497218Y-136476049D01*
X149420505Y-136590859D01*
X149322859Y-136688505D01*
X149208049Y-136765218D01*
X149080473Y-136818062D01*
X148945044Y-136845000D01*
X148806956Y-136845000D01*
X148671527Y-136818062D01*
X148543951Y-136765218D01*
X148429141Y-136688505D01*
X148331495Y-136590859D01*
X148254782Y-136476049D01*
X148201938Y-136348473D01*
X148175000Y-136213044D01*
X148175000Y-136074956D01*
X148201938Y-135939527D01*
X148254782Y-135811951D01*
X148331495Y-135697141D01*
X148429141Y-135599495D01*
X148543951Y-135522782D01*
X148671527Y-135469938D01*
X148806956Y-135443000D01*
X148945044Y-135443000D01*
X149080473Y-135469938D01*
X149080473Y-135469938D01*
G37*
G36*
X142613512Y-127873927D02*
G01*
X142762812Y-127903624D01*
X142926784Y-127971544D01*
X143074354Y-128070147D01*
X143199853Y-128195646D01*
X143298456Y-128343216D01*
X143366376Y-128507188D01*
X143401000Y-128681259D01*
X143401000Y-128858741D01*
X143366376Y-129032812D01*
X143298456Y-129196784D01*
X143199853Y-129344354D01*
X143074354Y-129469853D01*
X142926784Y-129568456D01*
X142762812Y-129636376D01*
X142613512Y-129666073D01*
X142588742Y-129671000D01*
X142411258Y-129671000D01*
X142386488Y-129666073D01*
X142237188Y-129636376D01*
X142073216Y-129568456D01*
X141925646Y-129469853D01*
X141800147Y-129344354D01*
X141701544Y-129196784D01*
X141633624Y-129032812D01*
X141599000Y-128858741D01*
X141599000Y-128681259D01*
X141633624Y-128507188D01*
X141701544Y-128343216D01*
X141800147Y-128195646D01*
X141925646Y-128070147D01*
X142073216Y-127971544D01*
X142237188Y-127903624D01*
X142386488Y-127873927D01*
X142411258Y-127869000D01*
X142588742Y-127869000D01*
X142613512Y-127873927D01*
X142613512Y-127873927D01*
G37*
G36*
X157853512Y-127873927D02*
G01*
X158002812Y-127903624D01*
X158166784Y-127971544D01*
X158314354Y-128070147D01*
X158439853Y-128195646D01*
X158538456Y-128343216D01*
X158606376Y-128507188D01*
X158641000Y-128681259D01*
X158641000Y-128858741D01*
X158606376Y-129032812D01*
X158538456Y-129196784D01*
X158439853Y-129344354D01*
X158314354Y-129469853D01*
X158166784Y-129568456D01*
X158002812Y-129636376D01*
X157853512Y-129666073D01*
X157828742Y-129671000D01*
X157651258Y-129671000D01*
X157626488Y-129666073D01*
X157477188Y-129636376D01*
X157313216Y-129568456D01*
X157165646Y-129469853D01*
X157040147Y-129344354D01*
X156941544Y-129196784D01*
X156873624Y-129032812D01*
X156839000Y-128858741D01*
X156839000Y-128681259D01*
X156873624Y-128507188D01*
X156941544Y-128343216D01*
X157040147Y-128195646D01*
X157165646Y-128070147D01*
X157313216Y-127971544D01*
X157477188Y-127903624D01*
X157626488Y-127873927D01*
X157651258Y-127869000D01*
X157828742Y-127869000D01*
X157853512Y-127873927D01*
X157853512Y-127873927D01*
G37*
G36*
X165304473Y-125817938D02*
G01*
X165432049Y-125870782D01*
X165546859Y-125947495D01*
X165644505Y-126045141D01*
X165721218Y-126159951D01*
X165774062Y-126287527D01*
X165801000Y-126422956D01*
X165801000Y-126561044D01*
X165774062Y-126696473D01*
X165721218Y-126824049D01*
X165644505Y-126938859D01*
X165546859Y-127036505D01*
X165432049Y-127113218D01*
X165304473Y-127166062D01*
X165169044Y-127193000D01*
X165030956Y-127193000D01*
X164895527Y-127166062D01*
X164767951Y-127113218D01*
X164653141Y-127036505D01*
X164555495Y-126938859D01*
X164478782Y-126824049D01*
X164425938Y-126696473D01*
X164399000Y-126561044D01*
X164399000Y-126422956D01*
X164425938Y-126287527D01*
X164478782Y-126159951D01*
X164555495Y-126045141D01*
X164653141Y-125947495D01*
X164767951Y-125870782D01*
X164895527Y-125817938D01*
X165030956Y-125791000D01*
X165169044Y-125791000D01*
X165304473Y-125817938D01*
X165304473Y-125817938D01*
G37*
G36*
X157853512Y-125333927D02*
G01*
X158002812Y-125363624D01*
X158166784Y-125431544D01*
X158314354Y-125530147D01*
X158439853Y-125655646D01*
X158538456Y-125803216D01*
X158606376Y-125967188D01*
X158625623Y-126063952D01*
X158640949Y-126141000D01*
X158641000Y-126141259D01*
X158641000Y-126318741D01*
X158606376Y-126492812D01*
X158538456Y-126656784D01*
X158439853Y-126804354D01*
X158314354Y-126929853D01*
X158166784Y-127028456D01*
X158002812Y-127096376D01*
X157853512Y-127126073D01*
X157828742Y-127131000D01*
X157651258Y-127131000D01*
X157626488Y-127126073D01*
X157477188Y-127096376D01*
X157313216Y-127028456D01*
X157165646Y-126929853D01*
X157040147Y-126804354D01*
X156941544Y-126656784D01*
X156873624Y-126492812D01*
X156839000Y-126318741D01*
X156839000Y-126141259D01*
X156839052Y-126141000D01*
X156854377Y-126063952D01*
X156873624Y-125967188D01*
X156941544Y-125803216D01*
X157040147Y-125655646D01*
X157165646Y-125530147D01*
X157313216Y-125431544D01*
X157477188Y-125363624D01*
X157626488Y-125333927D01*
X157651258Y-125329000D01*
X157828742Y-125329000D01*
X157853512Y-125333927D01*
X157853512Y-125333927D01*
G37*
G36*
X142613512Y-125333927D02*
G01*
X142762812Y-125363624D01*
X142926784Y-125431544D01*
X143074354Y-125530147D01*
X143199853Y-125655646D01*
X143298456Y-125803216D01*
X143366376Y-125967188D01*
X143385623Y-126063952D01*
X143400949Y-126141000D01*
X143401000Y-126141259D01*
X143401000Y-126318741D01*
X143366376Y-126492812D01*
X143298456Y-126656784D01*
X143199853Y-126804354D01*
X143074354Y-126929853D01*
X142926784Y-127028456D01*
X142762812Y-127096376D01*
X142613512Y-127126073D01*
X142588742Y-127131000D01*
X142411258Y-127131000D01*
X142386488Y-127126073D01*
X142237188Y-127096376D01*
X142073216Y-127028456D01*
X141925646Y-126929853D01*
X141800147Y-126804354D01*
X141701544Y-126656784D01*
X141633624Y-126492812D01*
X141599000Y-126318741D01*
X141599000Y-126141259D01*
X141599052Y-126141000D01*
X141614377Y-126063952D01*
X141633624Y-125967188D01*
X141701544Y-125803216D01*
X141800147Y-125655646D01*
X141925646Y-125530147D01*
X142073216Y-125431544D01*
X142237188Y-125363624D01*
X142386488Y-125333927D01*
X142411258Y-125329000D01*
X142588742Y-125329000D01*
X142613512Y-125333927D01*
X142613512Y-125333927D01*
G37*
G36*
X134824473Y-125721938D02*
G01*
X134952049Y-125774782D01*
X135066859Y-125851495D01*
X135164505Y-125949141D01*
X135241218Y-126063951D01*
X135294062Y-126191527D01*
X135321000Y-126326956D01*
X135321000Y-126465044D01*
X135294062Y-126600473D01*
X135241218Y-126728049D01*
X135164505Y-126842859D01*
X135066859Y-126940505D01*
X134952049Y-127017218D01*
X134824473Y-127070062D01*
X134689044Y-127097000D01*
X134550956Y-127097000D01*
X134415527Y-127070062D01*
X134287951Y-127017218D01*
X134173141Y-126940505D01*
X134075495Y-126842859D01*
X133998782Y-126728049D01*
X133945938Y-126600473D01*
X133919000Y-126465044D01*
X133919000Y-126326956D01*
X133945938Y-126191527D01*
X133998782Y-126063951D01*
X134075495Y-125949141D01*
X134173141Y-125851495D01*
X134287951Y-125774782D01*
X134415527Y-125721938D01*
X134550956Y-125695000D01*
X134689044Y-125695000D01*
X134824473Y-125721938D01*
X134824473Y-125721938D01*
G37*
G36*
X148509928Y-126143764D02*
G01*
X148531009Y-126150160D01*
X148550445Y-126160548D01*
X148567476Y-126174524D01*
X148581452Y-126191555D01*
X148591840Y-126210991D01*
X148598236Y-126232072D01*
X148601000Y-126260140D01*
X148601000Y-126723860D01*
X148598236Y-126751928D01*
X148591840Y-126773009D01*
X148581452Y-126792445D01*
X148567476Y-126809476D01*
X148550445Y-126823452D01*
X148531009Y-126833840D01*
X148509928Y-126840236D01*
X148481860Y-126843000D01*
X146668140Y-126843000D01*
X146640072Y-126840236D01*
X146618991Y-126833840D01*
X146599555Y-126823452D01*
X146582524Y-126809476D01*
X146568548Y-126792445D01*
X146558160Y-126773009D01*
X146551764Y-126751928D01*
X146549000Y-126723860D01*
X146549000Y-126260140D01*
X146551764Y-126232072D01*
X146558160Y-126210991D01*
X146568548Y-126191555D01*
X146582524Y-126174524D01*
X146599555Y-126160548D01*
X146618991Y-126150160D01*
X146640072Y-126143764D01*
X146668140Y-126141000D01*
X148481860Y-126141000D01*
X148509928Y-126143764D01*
X148509928Y-126143764D01*
G37*
G36*
X153459928Y-126143764D02*
G01*
X153481009Y-126150160D01*
X153500445Y-126160548D01*
X153517476Y-126174524D01*
X153531452Y-126191555D01*
X153541840Y-126210991D01*
X153548236Y-126232072D01*
X153551000Y-126260140D01*
X153551000Y-126723860D01*
X153548236Y-126751928D01*
X153541840Y-126773009D01*
X153531452Y-126792445D01*
X153517476Y-126809476D01*
X153500445Y-126823452D01*
X153481009Y-126833840D01*
X153459928Y-126840236D01*
X153431860Y-126843000D01*
X151618140Y-126843000D01*
X151590072Y-126840236D01*
X151568991Y-126833840D01*
X151549555Y-126823452D01*
X151532524Y-126809476D01*
X151518548Y-126792445D01*
X151508160Y-126773009D01*
X151501764Y-126751928D01*
X151499000Y-126723860D01*
X151499000Y-126260140D01*
X151501764Y-126232072D01*
X151508160Y-126210991D01*
X151518548Y-126191555D01*
X151532524Y-126174524D01*
X151549555Y-126160548D01*
X151568991Y-126150160D01*
X151590072Y-126143764D01*
X151618140Y-126141000D01*
X153431860Y-126141000D01*
X153459928Y-126143764D01*
X153459928Y-126143764D01*
G37*
G36*
X153459928Y-124873764D02*
G01*
X153481009Y-124880160D01*
X153500445Y-124890548D01*
X153517476Y-124904524D01*
X153531452Y-124921555D01*
X153541840Y-124940991D01*
X153548236Y-124962072D01*
X153551000Y-124990140D01*
X153551000Y-125453860D01*
X153548236Y-125481928D01*
X153541840Y-125503009D01*
X153531452Y-125522445D01*
X153517476Y-125539476D01*
X153500445Y-125553452D01*
X153481009Y-125563840D01*
X153459928Y-125570236D01*
X153431860Y-125573000D01*
X151618140Y-125573000D01*
X151590072Y-125570236D01*
X151568991Y-125563840D01*
X151549555Y-125553452D01*
X151532524Y-125539476D01*
X151518548Y-125522445D01*
X151508160Y-125503009D01*
X151501764Y-125481928D01*
X151499000Y-125453860D01*
X151499000Y-124990140D01*
X151501764Y-124962072D01*
X151508160Y-124940991D01*
X151518548Y-124921555D01*
X151532524Y-124904524D01*
X151549555Y-124890548D01*
X151568991Y-124880160D01*
X151590072Y-124873764D01*
X151618140Y-124871000D01*
X153431860Y-124871000D01*
X153459928Y-124873764D01*
X153459928Y-124873764D01*
G37*
G36*
X148509928Y-124873764D02*
G01*
X148531009Y-124880160D01*
X148550445Y-124890548D01*
X148567476Y-124904524D01*
X148581452Y-124921555D01*
X148591840Y-124940991D01*
X148598236Y-124962072D01*
X148601000Y-124990140D01*
X148601000Y-125453860D01*
X148598236Y-125481928D01*
X148591840Y-125503009D01*
X148581452Y-125522445D01*
X148567476Y-125539476D01*
X148550445Y-125553452D01*
X148531009Y-125563840D01*
X148509928Y-125570236D01*
X148481860Y-125573000D01*
X146668140Y-125573000D01*
X146640072Y-125570236D01*
X146618991Y-125563840D01*
X146599555Y-125553452D01*
X146582524Y-125539476D01*
X146568548Y-125522445D01*
X146558160Y-125503009D01*
X146551764Y-125481928D01*
X146549000Y-125453860D01*
X146549000Y-124990140D01*
X146551764Y-124962072D01*
X146558160Y-124940991D01*
X146568548Y-124921555D01*
X146582524Y-124904524D01*
X146599555Y-124890548D01*
X146618991Y-124880160D01*
X146640072Y-124873764D01*
X146668140Y-124871000D01*
X148481860Y-124871000D01*
X148509928Y-124873764D01*
X148509928Y-124873764D01*
G37*
G36*
X165304473Y-123817938D02*
G01*
X165432049Y-123870782D01*
X165546859Y-123947495D01*
X165644505Y-124045141D01*
X165721218Y-124159951D01*
X165774062Y-124287527D01*
X165801000Y-124422956D01*
X165801000Y-124561044D01*
X165774062Y-124696473D01*
X165721218Y-124824049D01*
X165644505Y-124938859D01*
X165546859Y-125036505D01*
X165432049Y-125113218D01*
X165304473Y-125166062D01*
X165169044Y-125193000D01*
X165030956Y-125193000D01*
X164895527Y-125166062D01*
X164767951Y-125113218D01*
X164653141Y-125036505D01*
X164555495Y-124938859D01*
X164478782Y-124824049D01*
X164425938Y-124696473D01*
X164399000Y-124561044D01*
X164399000Y-124422956D01*
X164425938Y-124287527D01*
X164478782Y-124159951D01*
X164555495Y-124045141D01*
X164653141Y-123947495D01*
X164767951Y-123870782D01*
X164895527Y-123817938D01*
X165030956Y-123791000D01*
X165169044Y-123791000D01*
X165304473Y-123817938D01*
X165304473Y-123817938D01*
G37*
G36*
X134824473Y-123721938D02*
G01*
X134952049Y-123774782D01*
X135066859Y-123851495D01*
X135164505Y-123949141D01*
X135241218Y-124063951D01*
X135294062Y-124191527D01*
X135321000Y-124326956D01*
X135321000Y-124465044D01*
X135294062Y-124600473D01*
X135241218Y-124728049D01*
X135164505Y-124842859D01*
X135066859Y-124940505D01*
X134952049Y-125017218D01*
X134824473Y-125070062D01*
X134689044Y-125097000D01*
X134550956Y-125097000D01*
X134415527Y-125070062D01*
X134287951Y-125017218D01*
X134173141Y-124940505D01*
X134075495Y-124842859D01*
X133998782Y-124728049D01*
X133945938Y-124600473D01*
X133919000Y-124465044D01*
X133919000Y-124326956D01*
X133945938Y-124191527D01*
X133998782Y-124063951D01*
X134075495Y-123949141D01*
X134173141Y-123851495D01*
X134287951Y-123774782D01*
X134415527Y-123721938D01*
X134550956Y-123695000D01*
X134689044Y-123695000D01*
X134824473Y-123721938D01*
X134824473Y-123721938D01*
G37*
G36*
X157853512Y-122793927D02*
G01*
X158002812Y-122823624D01*
X158166784Y-122891544D01*
X158314354Y-122990147D01*
X158439853Y-123115646D01*
X158538456Y-123263216D01*
X158606376Y-123427188D01*
X158636073Y-123576488D01*
X158640949Y-123601000D01*
X158641000Y-123601259D01*
X158641000Y-123778741D01*
X158606376Y-123952812D01*
X158538456Y-124116784D01*
X158439853Y-124264354D01*
X158314354Y-124389853D01*
X158166784Y-124488456D01*
X158002812Y-124556376D01*
X157853512Y-124586073D01*
X157828742Y-124591000D01*
X157651258Y-124591000D01*
X157626488Y-124586073D01*
X157477188Y-124556376D01*
X157313216Y-124488456D01*
X157165646Y-124389853D01*
X157040147Y-124264354D01*
X156941544Y-124116784D01*
X156873624Y-123952812D01*
X156839000Y-123778741D01*
X156839000Y-123601259D01*
X156839052Y-123601000D01*
X156843927Y-123576488D01*
X156873624Y-123427188D01*
X156941544Y-123263216D01*
X157040147Y-123115646D01*
X157165646Y-122990147D01*
X157313216Y-122891544D01*
X157477188Y-122823624D01*
X157626488Y-122793927D01*
X157651258Y-122789000D01*
X157828742Y-122789000D01*
X157853512Y-122793927D01*
X157853512Y-122793927D01*
G37*
G36*
X142613512Y-122793927D02*
G01*
X142762812Y-122823624D01*
X142926784Y-122891544D01*
X143074354Y-122990147D01*
X143199853Y-123115646D01*
X143298456Y-123263216D01*
X143366376Y-123427188D01*
X143396073Y-123576488D01*
X143400949Y-123601000D01*
X143401000Y-123601259D01*
X143401000Y-123778741D01*
X143366376Y-123952812D01*
X143298456Y-124116784D01*
X143199853Y-124264354D01*
X143074354Y-124389853D01*
X142926784Y-124488456D01*
X142762812Y-124556376D01*
X142613512Y-124586073D01*
X142588742Y-124591000D01*
X142411258Y-124591000D01*
X142386488Y-124586073D01*
X142237188Y-124556376D01*
X142073216Y-124488456D01*
X141925646Y-124389853D01*
X141800147Y-124264354D01*
X141701544Y-124116784D01*
X141633624Y-123952812D01*
X141599000Y-123778741D01*
X141599000Y-123601259D01*
X141599052Y-123601000D01*
X141603927Y-123576488D01*
X141633624Y-123427188D01*
X141701544Y-123263216D01*
X141800147Y-123115646D01*
X141925646Y-122990147D01*
X142073216Y-122891544D01*
X142237188Y-122823624D01*
X142386488Y-122793927D01*
X142411258Y-122789000D01*
X142588742Y-122789000D01*
X142613512Y-122793927D01*
X142613512Y-122793927D01*
G37*
G36*
X153459928Y-123603764D02*
G01*
X153481009Y-123610160D01*
X153500445Y-123620548D01*
X153517476Y-123634524D01*
X153531452Y-123651555D01*
X153541840Y-123670991D01*
X153548236Y-123692072D01*
X153551000Y-123720140D01*
X153551000Y-124183860D01*
X153548236Y-124211928D01*
X153541840Y-124233009D01*
X153531452Y-124252445D01*
X153517476Y-124269476D01*
X153500445Y-124283452D01*
X153481009Y-124293840D01*
X153459928Y-124300236D01*
X153431860Y-124303000D01*
X151618140Y-124303000D01*
X151590072Y-124300236D01*
X151568991Y-124293840D01*
X151549555Y-124283452D01*
X151532524Y-124269476D01*
X151518548Y-124252445D01*
X151508160Y-124233009D01*
X151501764Y-124211928D01*
X151499000Y-124183860D01*
X151499000Y-123720140D01*
X151501764Y-123692072D01*
X151508160Y-123670991D01*
X151518548Y-123651555D01*
X151532524Y-123634524D01*
X151549555Y-123620548D01*
X151568991Y-123610160D01*
X151590072Y-123603764D01*
X151618140Y-123601000D01*
X153431860Y-123601000D01*
X153459928Y-123603764D01*
X153459928Y-123603764D01*
G37*
G36*
X148509928Y-123603764D02*
G01*
X148531009Y-123610160D01*
X148550445Y-123620548D01*
X148567476Y-123634524D01*
X148581452Y-123651555D01*
X148591840Y-123670991D01*
X148598236Y-123692072D01*
X148601000Y-123720140D01*
X148601000Y-124183860D01*
X148598236Y-124211928D01*
X148591840Y-124233009D01*
X148581452Y-124252445D01*
X148567476Y-124269476D01*
X148550445Y-124283452D01*
X148531009Y-124293840D01*
X148509928Y-124300236D01*
X148481860Y-124303000D01*
X146668140Y-124303000D01*
X146640072Y-124300236D01*
X146618991Y-124293840D01*
X146599555Y-124283452D01*
X146582524Y-124269476D01*
X146568548Y-124252445D01*
X146558160Y-124233009D01*
X146551764Y-124211928D01*
X146549000Y-124183860D01*
X146549000Y-123720140D01*
X146551764Y-123692072D01*
X146558160Y-123670991D01*
X146568548Y-123651555D01*
X146582524Y-123634524D01*
X146599555Y-123620548D01*
X146618991Y-123610160D01*
X146640072Y-123603764D01*
X146668140Y-123601000D01*
X148481860Y-123601000D01*
X148509928Y-123603764D01*
X148509928Y-123603764D01*
G37*
G36*
X165304473Y-121817938D02*
G01*
X165432049Y-121870782D01*
X165546859Y-121947495D01*
X165644505Y-122045141D01*
X165721218Y-122159951D01*
X165774062Y-122287527D01*
X165801000Y-122422956D01*
X165801000Y-122561044D01*
X165774062Y-122696473D01*
X165721218Y-122824049D01*
X165644505Y-122938859D01*
X165546859Y-123036505D01*
X165432049Y-123113218D01*
X165304473Y-123166062D01*
X165169044Y-123193000D01*
X165030956Y-123193000D01*
X164895527Y-123166062D01*
X164767951Y-123113218D01*
X164653141Y-123036505D01*
X164555495Y-122938859D01*
X164478782Y-122824049D01*
X164425938Y-122696473D01*
X164399000Y-122561044D01*
X164399000Y-122422956D01*
X164425938Y-122287527D01*
X164478782Y-122159951D01*
X164555495Y-122045141D01*
X164653141Y-121947495D01*
X164767951Y-121870782D01*
X164895527Y-121817938D01*
X165030956Y-121791000D01*
X165169044Y-121791000D01*
X165304473Y-121817938D01*
X165304473Y-121817938D01*
G37*
G36*
X134824473Y-121721938D02*
G01*
X134952049Y-121774782D01*
X135066859Y-121851495D01*
X135164505Y-121949141D01*
X135241218Y-122063951D01*
X135294062Y-122191527D01*
X135321000Y-122326956D01*
X135321000Y-122465044D01*
X135294062Y-122600473D01*
X135241218Y-122728049D01*
X135164505Y-122842859D01*
X135066859Y-122940505D01*
X134952049Y-123017218D01*
X134824473Y-123070062D01*
X134689044Y-123097000D01*
X134550956Y-123097000D01*
X134415527Y-123070062D01*
X134287951Y-123017218D01*
X134173141Y-122940505D01*
X134075495Y-122842859D01*
X133998782Y-122728049D01*
X133945938Y-122600473D01*
X133919000Y-122465044D01*
X133919000Y-122326956D01*
X133945938Y-122191527D01*
X133998782Y-122063951D01*
X134075495Y-121949141D01*
X134173141Y-121851495D01*
X134287951Y-121774782D01*
X134415527Y-121721938D01*
X134550956Y-121695000D01*
X134689044Y-121695000D01*
X134824473Y-121721938D01*
X134824473Y-121721938D01*
G37*
G36*
X148509928Y-122333764D02*
G01*
X148531009Y-122340160D01*
X148550445Y-122350548D01*
X148567476Y-122364524D01*
X148581452Y-122381555D01*
X148591840Y-122400991D01*
X148598236Y-122422072D01*
X148601000Y-122450140D01*
X148601000Y-122913860D01*
X148598236Y-122941928D01*
X148591840Y-122963009D01*
X148581452Y-122982445D01*
X148567476Y-122999476D01*
X148550445Y-123013452D01*
X148531009Y-123023840D01*
X148509928Y-123030236D01*
X148481860Y-123033000D01*
X146668140Y-123033000D01*
X146640072Y-123030236D01*
X146618991Y-123023840D01*
X146599555Y-123013452D01*
X146582524Y-122999476D01*
X146568548Y-122982445D01*
X146558160Y-122963009D01*
X146551764Y-122941928D01*
X146549000Y-122913860D01*
X146549000Y-122450140D01*
X146551764Y-122422072D01*
X146558160Y-122400991D01*
X146568548Y-122381555D01*
X146582524Y-122364524D01*
X146599555Y-122350548D01*
X146618991Y-122340160D01*
X146640072Y-122333764D01*
X146668140Y-122331000D01*
X148481860Y-122331000D01*
X148509928Y-122333764D01*
X148509928Y-122333764D01*
G37*
G36*
X153459928Y-122333764D02*
G01*
X153481009Y-122340160D01*
X153500445Y-122350548D01*
X153517476Y-122364524D01*
X153531452Y-122381555D01*
X153541840Y-122400991D01*
X153548236Y-122422072D01*
X153551000Y-122450140D01*
X153551000Y-122913860D01*
X153548236Y-122941928D01*
X153541840Y-122963009D01*
X153531452Y-122982445D01*
X153517476Y-122999476D01*
X153500445Y-123013452D01*
X153481009Y-123023840D01*
X153459928Y-123030236D01*
X153431860Y-123033000D01*
X151618140Y-123033000D01*
X151590072Y-123030236D01*
X151568991Y-123023840D01*
X151549555Y-123013452D01*
X151532524Y-122999476D01*
X151518548Y-122982445D01*
X151508160Y-122963009D01*
X151501764Y-122941928D01*
X151499000Y-122913860D01*
X151499000Y-122450140D01*
X151501764Y-122422072D01*
X151508160Y-122400991D01*
X151518548Y-122381555D01*
X151532524Y-122364524D01*
X151549555Y-122350548D01*
X151568991Y-122340160D01*
X151590072Y-122333764D01*
X151618140Y-122331000D01*
X153431860Y-122331000D01*
X153459928Y-122333764D01*
X153459928Y-122333764D01*
G37*
G36*
X142773925Y-120246988D02*
G01*
X142944829Y-120317779D01*
X142944831Y-120317780D01*
X142995362Y-120351544D01*
X143098641Y-120420553D01*
X143229447Y-120551359D01*
X143332221Y-120705171D01*
X143403012Y-120876075D01*
X143439100Y-121057505D01*
X143439100Y-121242495D01*
X143403012Y-121423925D01*
X143332221Y-121594829D01*
X143332220Y-121594831D01*
X143229447Y-121748641D01*
X143098641Y-121879447D01*
X142944831Y-121982220D01*
X142944830Y-121982221D01*
X142944829Y-121982221D01*
X142773925Y-122053012D01*
X142592495Y-122089100D01*
X142407505Y-122089100D01*
X142226075Y-122053012D01*
X142055171Y-121982221D01*
X142055170Y-121982221D01*
X142055169Y-121982220D01*
X141901359Y-121879447D01*
X141770553Y-121748641D01*
X141667780Y-121594831D01*
X141667779Y-121594829D01*
X141596988Y-121423925D01*
X141560900Y-121242495D01*
X141560900Y-121057505D01*
X141596988Y-120876075D01*
X141667779Y-120705171D01*
X141770553Y-120551359D01*
X141901359Y-120420553D01*
X142004638Y-120351544D01*
X142055169Y-120317780D01*
X142055171Y-120317779D01*
X142226075Y-120246988D01*
X142407505Y-120210900D01*
X142592495Y-120210900D01*
X142773925Y-120246988D01*
X142773925Y-120246988D01*
G37*
G36*
X157853512Y-120253927D02*
G01*
X158002812Y-120283624D01*
X158166784Y-120351544D01*
X158314354Y-120450147D01*
X158439853Y-120575646D01*
X158538456Y-120723216D01*
X158606376Y-120887188D01*
X158641000Y-121061259D01*
X158641000Y-121238741D01*
X158606376Y-121412812D01*
X158538456Y-121576784D01*
X158439853Y-121724354D01*
X158314354Y-121849853D01*
X158166784Y-121948456D01*
X158002812Y-122016376D01*
X157858212Y-122045138D01*
X157828742Y-122051000D01*
X157651258Y-122051000D01*
X157621788Y-122045138D01*
X157477188Y-122016376D01*
X157313216Y-121948456D01*
X157165646Y-121849853D01*
X157040147Y-121724354D01*
X156941544Y-121576784D01*
X156873624Y-121412812D01*
X156839000Y-121238741D01*
X156839000Y-121061259D01*
X156873624Y-120887188D01*
X156941544Y-120723216D01*
X157040147Y-120575646D01*
X157165646Y-120450147D01*
X157313216Y-120351544D01*
X157477188Y-120283624D01*
X157626488Y-120253927D01*
X157651258Y-120249000D01*
X157828742Y-120249000D01*
X157853512Y-120253927D01*
X157853512Y-120253927D01*
G37*
G36*
X165801000Y-121193000D02*
G01*
X164399000Y-121193000D01*
X164399000Y-119791000D01*
X165801000Y-119791000D01*
X165801000Y-121193000D01*
X165801000Y-121193000D01*
G37*
G36*
X135321000Y-121097000D02*
G01*
X133919000Y-121097000D01*
X133919000Y-119695000D01*
X135321000Y-119695000D01*
X135321000Y-121097000D01*
X135321000Y-121097000D01*
G37*
G36*
X153767499Y-118731445D02*
G01*
X153804995Y-118742820D01*
X153839554Y-118761292D01*
X153869847Y-118786153D01*
X153894708Y-118816446D01*
X153913180Y-118851005D01*
X153924555Y-118888501D01*
X153929000Y-118933638D01*
X153929000Y-119572362D01*
X153924555Y-119617499D01*
X153913180Y-119654995D01*
X153894708Y-119689554D01*
X153869847Y-119719847D01*
X153839554Y-119744708D01*
X153804995Y-119763180D01*
X153767499Y-119774555D01*
X153722362Y-119779000D01*
X152983638Y-119779000D01*
X152938501Y-119774555D01*
X152901005Y-119763180D01*
X152866446Y-119744708D01*
X152836153Y-119719847D01*
X152811292Y-119689554D01*
X152792820Y-119654995D01*
X152781445Y-119617499D01*
X152777000Y-119572362D01*
X152777000Y-118933638D01*
X152781445Y-118888501D01*
X152792820Y-118851005D01*
X152811292Y-118816446D01*
X152836153Y-118786153D01*
X152866446Y-118761292D01*
X152901005Y-118742820D01*
X152938501Y-118731445D01*
X152983638Y-118727000D01*
X153722362Y-118727000D01*
X153767499Y-118731445D01*
X153767499Y-118731445D01*
G37*
G36*
X152017499Y-118731445D02*
G01*
X152054995Y-118742820D01*
X152089554Y-118761292D01*
X152119847Y-118786153D01*
X152144708Y-118816446D01*
X152163180Y-118851005D01*
X152174555Y-118888501D01*
X152179000Y-118933638D01*
X152179000Y-119572362D01*
X152174555Y-119617499D01*
X152163180Y-119654995D01*
X152144708Y-119689554D01*
X152119847Y-119719847D01*
X152089554Y-119744708D01*
X152054995Y-119763180D01*
X152017499Y-119774555D01*
X151972362Y-119779000D01*
X151233638Y-119779000D01*
X151188501Y-119774555D01*
X151151005Y-119763180D01*
X151116446Y-119744708D01*
X151086153Y-119719847D01*
X151061292Y-119689554D01*
X151042820Y-119654995D01*
X151031445Y-119617499D01*
X151027000Y-119572362D01*
X151027000Y-118933638D01*
X151031445Y-118888501D01*
X151042820Y-118851005D01*
X151061292Y-118816446D01*
X151086153Y-118786153D01*
X151116446Y-118761292D01*
X151151005Y-118742820D01*
X151188501Y-118731445D01*
X151233638Y-118727000D01*
X151972362Y-118727000D01*
X152017499Y-118731445D01*
X152017499Y-118731445D01*
G37*
G36*
X147797499Y-118668445D02*
G01*
X147834995Y-118679820D01*
X147869554Y-118698292D01*
X147899847Y-118723153D01*
X147924708Y-118753446D01*
X147943180Y-118788005D01*
X147954555Y-118825501D01*
X147959000Y-118870638D01*
X147959000Y-119509362D01*
X147954555Y-119554499D01*
X147943180Y-119591995D01*
X147924708Y-119626554D01*
X147899847Y-119656847D01*
X147869554Y-119681708D01*
X147834995Y-119700180D01*
X147797499Y-119711555D01*
X147752362Y-119716000D01*
X147013638Y-119716000D01*
X146968501Y-119711555D01*
X146931005Y-119700180D01*
X146896446Y-119681708D01*
X146866153Y-119656847D01*
X146841292Y-119626554D01*
X146822820Y-119591995D01*
X146811445Y-119554499D01*
X146807000Y-119509362D01*
X146807000Y-118870638D01*
X146811445Y-118825501D01*
X146822820Y-118788005D01*
X146841292Y-118753446D01*
X146866153Y-118723153D01*
X146896446Y-118698292D01*
X146931005Y-118679820D01*
X146968501Y-118668445D01*
X147013638Y-118664000D01*
X147752362Y-118664000D01*
X147797499Y-118668445D01*
X147797499Y-118668445D01*
G37*
G36*
X146047499Y-118668445D02*
G01*
X146084995Y-118679820D01*
X146119554Y-118698292D01*
X146149847Y-118723153D01*
X146174708Y-118753446D01*
X146193180Y-118788005D01*
X146204555Y-118825501D01*
X146209000Y-118870638D01*
X146209000Y-119509362D01*
X146204555Y-119554499D01*
X146193180Y-119591995D01*
X146174708Y-119626554D01*
X146149847Y-119656847D01*
X146119554Y-119681708D01*
X146084995Y-119700180D01*
X146047499Y-119711555D01*
X146002362Y-119716000D01*
X145263638Y-119716000D01*
X145218501Y-119711555D01*
X145181005Y-119700180D01*
X145146446Y-119681708D01*
X145116153Y-119656847D01*
X145091292Y-119626554D01*
X145072820Y-119591995D01*
X145061445Y-119554499D01*
X145057000Y-119509362D01*
X145057000Y-118870638D01*
X145061445Y-118825501D01*
X145072820Y-118788005D01*
X145091292Y-118753446D01*
X145116153Y-118723153D01*
X145146446Y-118698292D01*
X145181005Y-118679820D01*
X145218501Y-118668445D01*
X145263638Y-118664000D01*
X146002362Y-118664000D01*
X146047499Y-118668445D01*
X146047499Y-118668445D01*
G37*
G36*
X157853512Y-117713927D02*
G01*
X158002812Y-117743624D01*
X158166784Y-117811544D01*
X158314354Y-117910147D01*
X158439853Y-118035646D01*
X158538456Y-118183216D01*
X158606376Y-118347188D01*
X158641000Y-118521259D01*
X158641000Y-118698741D01*
X158606376Y-118872812D01*
X158538456Y-119036784D01*
X158439853Y-119184354D01*
X158314354Y-119309853D01*
X158166784Y-119408456D01*
X158002812Y-119476376D01*
X157853512Y-119506073D01*
X157828742Y-119511000D01*
X157651258Y-119511000D01*
X157626488Y-119506073D01*
X157477188Y-119476376D01*
X157313216Y-119408456D01*
X157165646Y-119309853D01*
X157040147Y-119184354D01*
X156941544Y-119036784D01*
X156873624Y-118872812D01*
X156839000Y-118698741D01*
X156839000Y-118521259D01*
X156873624Y-118347188D01*
X156941544Y-118183216D01*
X157040147Y-118035646D01*
X157165646Y-117910147D01*
X157313216Y-117811544D01*
X157477188Y-117743624D01*
X157626488Y-117713927D01*
X157651258Y-117709000D01*
X157828742Y-117709000D01*
X157853512Y-117713927D01*
X157853512Y-117713927D01*
G37*
G36*
X166733085Y-110343976D02*
G01*
X167088143Y-110491046D01*
X167088145Y-110491047D01*
X167407690Y-110704560D01*
X167679441Y-110976311D01*
X167892954Y-111295856D01*
X167892955Y-111295858D01*
X168040025Y-111650916D01*
X168115000Y-112027843D01*
X168115000Y-112412159D01*
X168040025Y-112789086D01*
X167892955Y-113144144D01*
X167892954Y-113144146D01*
X167679441Y-113463691D01*
X167407690Y-113735442D01*
X167088145Y-113948955D01*
X167088144Y-113948956D01*
X167088143Y-113948956D01*
X166733085Y-114096026D01*
X166356158Y-114171001D01*
X165971842Y-114171001D01*
X165594915Y-114096026D01*
X165239857Y-113948956D01*
X165239856Y-113948956D01*
X165239855Y-113948955D01*
X164920310Y-113735442D01*
X164648559Y-113463691D01*
X164435046Y-113144146D01*
X164435045Y-113144144D01*
X164287975Y-112789086D01*
X164213000Y-112412159D01*
X164213000Y-112027843D01*
X164287975Y-111650916D01*
X164435045Y-111295858D01*
X164435046Y-111295856D01*
X164648559Y-110976311D01*
X164920310Y-110704560D01*
X165239855Y-110491047D01*
X165239857Y-110491046D01*
X165594915Y-110343976D01*
X165971842Y-110269001D01*
X166356158Y-110269001D01*
X166733085Y-110343976D01*
X166733085Y-110343976D01*
G37*
G36*
X134633085Y-110343976D02*
G01*
X134988143Y-110491046D01*
X134988145Y-110491047D01*
X135307690Y-110704560D01*
X135579441Y-110976311D01*
X135792954Y-111295856D01*
X135792955Y-111295858D01*
X135940025Y-111650916D01*
X136015000Y-112027843D01*
X136015000Y-112412159D01*
X135940025Y-112789086D01*
X135792955Y-113144144D01*
X135792954Y-113144146D01*
X135579441Y-113463691D01*
X135307690Y-113735442D01*
X134988145Y-113948955D01*
X134988144Y-113948956D01*
X134988143Y-113948956D01*
X134633085Y-114096026D01*
X134256158Y-114171001D01*
X133871842Y-114171001D01*
X133494915Y-114096026D01*
X133139857Y-113948956D01*
X133139856Y-113948956D01*
X133139855Y-113948955D01*
X132820310Y-113735442D01*
X132548559Y-113463691D01*
X132335046Y-113144146D01*
X132335045Y-113144144D01*
X132187975Y-112789086D01*
X132113000Y-112412159D01*
X132113000Y-112027843D01*
X132187975Y-111650916D01*
X132335045Y-111295858D01*
X132335046Y-111295856D01*
X132548559Y-110976311D01*
X132820310Y-110704560D01*
X133139855Y-110491047D01*
X133139857Y-110491046D01*
X133494915Y-110343976D01*
X133871842Y-110269001D01*
X134256158Y-110269001D01*
X134633085Y-110343976D01*
X134633085Y-110343976D01*
G37*
M02*
