G04 #@! TF.GenerationSoftware,KiCad,Pcbnew,(5.1.2)-1*
G04 #@! TF.CreationDate,2020-12-05T14:01:01+09:00*
G04 #@! TF.ProjectId,M5Atom_CAN,4d354174-6f6d-45f4-9341-4e2e6b696361,rev?*
G04 #@! TF.SameCoordinates,Original*
G04 #@! TF.FileFunction,Copper,L1,Top*
G04 #@! TF.FilePolarity,Positive*
%FSLAX46Y46*%
G04 Gerber Fmt 4.6, Leading zero omitted, Abs format (unit mm)*
G04 Created by KiCad (PCBNEW (5.1.2)-1) date 2020-12-05 14:01:01*
%MOMM*%
%LPD*%
G04 APERTURE LIST*
%ADD10C,1.300000*%
%ADD11R,1.300000X1.300000*%
%ADD12C,1.700000*%
%ADD13C,1.776200*%
%ADD14C,3.800000*%
%ADD15C,0.250000*%
G04 APERTURE END LIST*
D10*
X165100000Y-126492000D03*
X165100000Y-124492000D03*
X165100000Y-122492000D03*
D11*
X165100000Y-120492000D03*
D12*
X157740000Y-118610000D03*
X157740000Y-121150000D03*
X157740000Y-123690000D03*
X157740000Y-126230000D03*
X157740000Y-128770000D03*
X142500000Y-128770000D03*
X142500000Y-126230000D03*
X142500000Y-123690000D03*
D13*
X142500000Y-121150000D03*
D14*
X134064000Y-112220001D03*
X166164000Y-112220001D03*
X166164000Y-136699999D03*
X134064000Y-136699999D03*
D10*
X144876000Y-136144000D03*
X146876000Y-136144000D03*
X148876000Y-136144000D03*
X150876000Y-136144000D03*
X152876000Y-136144000D03*
X154876000Y-136144000D03*
X134620000Y-126396000D03*
X134620000Y-124396000D03*
X134620000Y-122396000D03*
D11*
X134620000Y-120396000D03*
D15*
X134620000Y-126396000D02*
X136994000Y-128770000D01*
X136994000Y-128770000D02*
X142500000Y-128770000D01*
X142500000Y-126230000D02*
X136666000Y-120396000D01*
X136666000Y-120396000D02*
X135595300Y-120396000D01*
X134620000Y-120396000D02*
X135595300Y-120396000D01*
X142500000Y-126230000D02*
X148773500Y-119956500D01*
X148773500Y-119956500D02*
X163589200Y-119956500D01*
X163589200Y-119956500D02*
X164124700Y-120492000D01*
X165100000Y-120492000D02*
X164124700Y-120492000D01*
X146876000Y-136144000D02*
X148789900Y-138057900D01*
X148789900Y-138057900D02*
X155044200Y-138057900D01*
X155044200Y-138057900D02*
X157740000Y-135362100D01*
X157740000Y-135362100D02*
X157740000Y-128770000D01*
X148876000Y-136144000D02*
X150338100Y-137606100D01*
X150338100Y-137606100D02*
X154827200Y-137606100D01*
X154827200Y-137606100D02*
X156375400Y-136057900D01*
X156375400Y-136057900D02*
X156375400Y-127594600D01*
X156375400Y-127594600D02*
X157740000Y-126230000D01*
X150876000Y-136144000D02*
X151870000Y-137138000D01*
X151870000Y-137138000D02*
X153274400Y-137138000D01*
X153274400Y-137138000D02*
X153876000Y-136536400D01*
X153876000Y-136536400D02*
X153876000Y-127554000D01*
X153876000Y-127554000D02*
X157740000Y-123690000D01*
X152876000Y-136144000D02*
X152876000Y-126014000D01*
X152876000Y-126014000D02*
X157740000Y-121150000D01*
M02*
