G04 #@! TF.GenerationSoftware,KiCad,Pcbnew,(5.1.2)-1*
G04 #@! TF.CreationDate,2020-12-05T19:35:51+09:00*
G04 #@! TF.ProjectId,M5Atom_CAN,4d354174-6f6d-45f4-9341-4e2e6b696361,rev?*
G04 #@! TF.SameCoordinates,Original*
G04 #@! TF.FileFunction,Legend,Bot*
G04 #@! TF.FilePolarity,Positive*
%FSLAX46Y46*%
G04 Gerber Fmt 4.6, Leading zero omitted, Abs format (unit mm)*
G04 Created by KiCad (PCBNEW (5.1.2)-1) date 2020-12-05 19:35:51*
%MOMM*%
%LPD*%
G04 APERTURE LIST*
%ADD10C,0.150000*%
%ADD11C,0.120000*%
G04 APERTURE END LIST*
D10*
X159377071Y-134699214D02*
X159377071Y-133937309D01*
X158996119Y-134318261D02*
X159758023Y-134318261D01*
X159996119Y-132984928D02*
X159996119Y-133461119D01*
X159519928Y-133508738D01*
X159567547Y-133461119D01*
X159615166Y-133365880D01*
X159615166Y-133127785D01*
X159567547Y-133032547D01*
X159519928Y-132984928D01*
X159424690Y-132937309D01*
X159186595Y-132937309D01*
X159091357Y-132984928D01*
X159043738Y-133032547D01*
X158996119Y-133127785D01*
X158996119Y-133365880D01*
X159043738Y-133461119D01*
X159091357Y-133508738D01*
X159996119Y-132651595D02*
X158996119Y-132318261D01*
X159996119Y-131984928D01*
X153852500Y-134429404D02*
X153900119Y-134524642D01*
X153900119Y-134667500D01*
X153852500Y-134810357D01*
X153757261Y-134905595D01*
X153662023Y-134953214D01*
X153471547Y-135000833D01*
X153328690Y-135000833D01*
X153138214Y-134953214D01*
X153042976Y-134905595D01*
X152947738Y-134810357D01*
X152900119Y-134667500D01*
X152900119Y-134572261D01*
X152947738Y-134429404D01*
X152995357Y-134381785D01*
X153328690Y-134381785D01*
X153328690Y-134572261D01*
X152900119Y-133953214D02*
X153900119Y-133953214D01*
X152900119Y-133381785D01*
X153900119Y-133381785D01*
X152900119Y-132905595D02*
X153900119Y-132905595D01*
X153900119Y-132667500D01*
X153852500Y-132524642D01*
X153757261Y-132429404D01*
X153662023Y-132381785D01*
X153471547Y-132334166D01*
X153328690Y-132334166D01*
X153138214Y-132381785D01*
X153042976Y-132429404D01*
X152947738Y-132524642D01*
X152900119Y-132667500D01*
X152900119Y-132905595D01*
X154900357Y-134207071D02*
X154852738Y-134254690D01*
X154805119Y-134397547D01*
X154805119Y-134492785D01*
X154852738Y-134635642D01*
X154947976Y-134730880D01*
X155043214Y-134778500D01*
X155233690Y-134826119D01*
X155376547Y-134826119D01*
X155567023Y-134778500D01*
X155662261Y-134730880D01*
X155757500Y-134635642D01*
X155805119Y-134492785D01*
X155805119Y-134397547D01*
X155757500Y-134254690D01*
X155709880Y-134207071D01*
X155090833Y-133826119D02*
X155090833Y-133349928D01*
X154805119Y-133921357D02*
X155805119Y-133588023D01*
X154805119Y-133254690D01*
X154805119Y-132921357D02*
X155805119Y-132921357D01*
X154805119Y-132349928D01*
X155805119Y-132349928D01*
X154709880Y-132111833D02*
X154709880Y-131349928D01*
X154805119Y-130635642D02*
X154805119Y-131111833D01*
X155805119Y-131111833D01*
X156995857Y-134326119D02*
X156948238Y-134373738D01*
X156900619Y-134516595D01*
X156900619Y-134611833D01*
X156948238Y-134754690D01*
X157043476Y-134849928D01*
X157138714Y-134897547D01*
X157329190Y-134945166D01*
X157472047Y-134945166D01*
X157662523Y-134897547D01*
X157757761Y-134849928D01*
X157853000Y-134754690D01*
X157900619Y-134611833D01*
X157900619Y-134516595D01*
X157853000Y-134373738D01*
X157805380Y-134326119D01*
X157186333Y-133945166D02*
X157186333Y-133468976D01*
X156900619Y-134040404D02*
X157900619Y-133707071D01*
X156900619Y-133373738D01*
X156900619Y-133040404D02*
X157900619Y-133040404D01*
X156900619Y-132468976D01*
X157900619Y-132468976D01*
X156805380Y-132230880D02*
X156805380Y-131468976D01*
X156900619Y-131230880D02*
X157900619Y-131230880D01*
X157424428Y-131230880D02*
X157424428Y-130659452D01*
X156900619Y-130659452D02*
X157900619Y-130659452D01*
X140962000Y-134365904D02*
X141009619Y-134461142D01*
X141009619Y-134604000D01*
X140962000Y-134746857D01*
X140866761Y-134842095D01*
X140771523Y-134889714D01*
X140581047Y-134937333D01*
X140438190Y-134937333D01*
X140247714Y-134889714D01*
X140152476Y-134842095D01*
X140057238Y-134746857D01*
X140009619Y-134604000D01*
X140009619Y-134508761D01*
X140057238Y-134365904D01*
X140104857Y-134318285D01*
X140438190Y-134318285D01*
X140438190Y-134508761D01*
X140009619Y-133889714D02*
X141009619Y-133889714D01*
X140009619Y-133318285D01*
X141009619Y-133318285D01*
X140009619Y-132842095D02*
X141009619Y-132842095D01*
X141009619Y-132604000D01*
X140962000Y-132461142D01*
X140866761Y-132365904D01*
X140771523Y-132318285D01*
X140581047Y-132270666D01*
X140438190Y-132270666D01*
X140247714Y-132318285D01*
X140152476Y-132365904D01*
X140057238Y-132461142D01*
X140009619Y-132604000D01*
X140009619Y-132842095D01*
X142009857Y-134143571D02*
X141962238Y-134191190D01*
X141914619Y-134334047D01*
X141914619Y-134429285D01*
X141962238Y-134572142D01*
X142057476Y-134667380D01*
X142152714Y-134715000D01*
X142343190Y-134762619D01*
X142486047Y-134762619D01*
X142676523Y-134715000D01*
X142771761Y-134667380D01*
X142867000Y-134572142D01*
X142914619Y-134429285D01*
X142914619Y-134334047D01*
X142867000Y-134191190D01*
X142819380Y-134143571D01*
X142200333Y-133762619D02*
X142200333Y-133286428D01*
X141914619Y-133857857D02*
X142914619Y-133524523D01*
X141914619Y-133191190D01*
X141914619Y-132857857D02*
X142914619Y-132857857D01*
X141914619Y-132286428D01*
X142914619Y-132286428D01*
X141819380Y-132048333D02*
X141819380Y-131286428D01*
X141914619Y-130572142D02*
X141914619Y-131048333D01*
X142914619Y-131048333D01*
X144105357Y-134262619D02*
X144057738Y-134310238D01*
X144010119Y-134453095D01*
X144010119Y-134548333D01*
X144057738Y-134691190D01*
X144152976Y-134786428D01*
X144248214Y-134834047D01*
X144438690Y-134881666D01*
X144581547Y-134881666D01*
X144772023Y-134834047D01*
X144867261Y-134786428D01*
X144962500Y-134691190D01*
X145010119Y-134548333D01*
X145010119Y-134453095D01*
X144962500Y-134310238D01*
X144914880Y-134262619D01*
X144295833Y-133881666D02*
X144295833Y-133405476D01*
X144010119Y-133976904D02*
X145010119Y-133643571D01*
X144010119Y-133310238D01*
X144010119Y-132976904D02*
X145010119Y-132976904D01*
X144010119Y-132405476D01*
X145010119Y-132405476D01*
X143914880Y-132167380D02*
X143914880Y-131405476D01*
X144010119Y-131167380D02*
X145010119Y-131167380D01*
X144533928Y-131167380D02*
X144533928Y-130595952D01*
X144010119Y-130595952D02*
X145010119Y-130595952D01*
X146486571Y-134635714D02*
X146486571Y-133873809D01*
X146105619Y-134254761D02*
X146867523Y-134254761D01*
X147105619Y-132921428D02*
X147105619Y-133397619D01*
X146629428Y-133445238D01*
X146677047Y-133397619D01*
X146724666Y-133302380D01*
X146724666Y-133064285D01*
X146677047Y-132969047D01*
X146629428Y-132921428D01*
X146534190Y-132873809D01*
X146296095Y-132873809D01*
X146200857Y-132921428D01*
X146153238Y-132969047D01*
X146105619Y-133064285D01*
X146105619Y-133302380D01*
X146153238Y-133397619D01*
X146200857Y-133445238D01*
X147105619Y-132588095D02*
X146105619Y-132254761D01*
X147105619Y-131921428D01*
X139588714Y-128658928D02*
X138826809Y-128658928D01*
X139207761Y-129039880D02*
X139207761Y-128277976D01*
X137874428Y-128039880D02*
X138350619Y-128039880D01*
X138398238Y-128516071D01*
X138350619Y-128468452D01*
X138255380Y-128420833D01*
X138017285Y-128420833D01*
X137922047Y-128468452D01*
X137874428Y-128516071D01*
X137826809Y-128611309D01*
X137826809Y-128849404D01*
X137874428Y-128944642D01*
X137922047Y-128992261D01*
X138017285Y-129039880D01*
X138255380Y-129039880D01*
X138350619Y-128992261D01*
X138398238Y-128944642D01*
X137541095Y-128039880D02*
X137207761Y-129039880D01*
X136874428Y-128039880D01*
X139461690Y-126944380D02*
X139461690Y-125944380D01*
X138795023Y-125944380D02*
X138604547Y-125944380D01*
X138509309Y-125992000D01*
X138414071Y-126087238D01*
X138366452Y-126277714D01*
X138366452Y-126611047D01*
X138414071Y-126801523D01*
X138509309Y-126896761D01*
X138604547Y-126944380D01*
X138795023Y-126944380D01*
X138890261Y-126896761D01*
X138985500Y-126801523D01*
X139033119Y-126611047D01*
X139033119Y-126277714D01*
X138985500Y-126087238D01*
X138890261Y-125992000D01*
X138795023Y-125944380D01*
X137985500Y-126039619D02*
X137937880Y-125992000D01*
X137842642Y-125944380D01*
X137604547Y-125944380D01*
X137509309Y-125992000D01*
X137461690Y-126039619D01*
X137414071Y-126134857D01*
X137414071Y-126230095D01*
X137461690Y-126372952D01*
X138033119Y-126944380D01*
X137414071Y-126944380D01*
X137033119Y-126039619D02*
X136985500Y-125992000D01*
X136890261Y-125944380D01*
X136652166Y-125944380D01*
X136556928Y-125992000D01*
X136509309Y-126039619D01*
X136461690Y-126134857D01*
X136461690Y-126230095D01*
X136509309Y-126372952D01*
X137080738Y-126944380D01*
X136461690Y-126944380D01*
X139525190Y-124848880D02*
X139525190Y-123848880D01*
X138858523Y-123848880D02*
X138668047Y-123848880D01*
X138572809Y-123896500D01*
X138477571Y-123991738D01*
X138429952Y-124182214D01*
X138429952Y-124515547D01*
X138477571Y-124706023D01*
X138572809Y-124801261D01*
X138668047Y-124848880D01*
X138858523Y-124848880D01*
X138953761Y-124801261D01*
X139049000Y-124706023D01*
X139096619Y-124515547D01*
X139096619Y-124182214D01*
X139049000Y-123991738D01*
X138953761Y-123896500D01*
X138858523Y-123848880D01*
X137477571Y-124848880D02*
X138049000Y-124848880D01*
X137763285Y-124848880D02*
X137763285Y-123848880D01*
X137858523Y-123991738D01*
X137953761Y-124086976D01*
X138049000Y-124134595D01*
X137001380Y-124848880D02*
X136810904Y-124848880D01*
X136715666Y-124801261D01*
X136668047Y-124753642D01*
X136572809Y-124610785D01*
X136525190Y-124420309D01*
X136525190Y-124039357D01*
X136572809Y-123944119D01*
X136620428Y-123896500D01*
X136715666Y-123848880D01*
X136906142Y-123848880D01*
X137001380Y-123896500D01*
X137049000Y-123944119D01*
X137096619Y-124039357D01*
X137096619Y-124277452D01*
X137049000Y-124372690D01*
X137001380Y-124420309D01*
X136906142Y-124467928D01*
X136715666Y-124467928D01*
X136620428Y-124420309D01*
X136572809Y-124372690D01*
X136525190Y-124277452D01*
X139525190Y-122943880D02*
X139525190Y-121943880D01*
X138858523Y-121943880D02*
X138668047Y-121943880D01*
X138572809Y-121991500D01*
X138477571Y-122086738D01*
X138429952Y-122277214D01*
X138429952Y-122610547D01*
X138477571Y-122801023D01*
X138572809Y-122896261D01*
X138668047Y-122943880D01*
X138858523Y-122943880D01*
X138953761Y-122896261D01*
X139049000Y-122801023D01*
X139096619Y-122610547D01*
X139096619Y-122277214D01*
X139049000Y-122086738D01*
X138953761Y-121991500D01*
X138858523Y-121943880D01*
X138049000Y-122039119D02*
X138001380Y-121991500D01*
X137906142Y-121943880D01*
X137668047Y-121943880D01*
X137572809Y-121991500D01*
X137525190Y-122039119D01*
X137477571Y-122134357D01*
X137477571Y-122229595D01*
X137525190Y-122372452D01*
X138096619Y-122943880D01*
X137477571Y-122943880D01*
X137144238Y-121943880D02*
X136525190Y-121943880D01*
X136858523Y-122324833D01*
X136715666Y-122324833D01*
X136620428Y-122372452D01*
X136572809Y-122420071D01*
X136525190Y-122515309D01*
X136525190Y-122753404D01*
X136572809Y-122848642D01*
X136620428Y-122896261D01*
X136715666Y-122943880D01*
X137001380Y-122943880D01*
X137096619Y-122896261D01*
X137144238Y-122848642D01*
X139588690Y-120911880D02*
X139588690Y-119911880D01*
X138922023Y-119911880D02*
X138731547Y-119911880D01*
X138636309Y-119959500D01*
X138541071Y-120054738D01*
X138493452Y-120245214D01*
X138493452Y-120578547D01*
X138541071Y-120769023D01*
X138636309Y-120864261D01*
X138731547Y-120911880D01*
X138922023Y-120911880D01*
X139017261Y-120864261D01*
X139112500Y-120769023D01*
X139160119Y-120578547D01*
X139160119Y-120245214D01*
X139112500Y-120054738D01*
X139017261Y-119959500D01*
X138922023Y-119911880D01*
X138160119Y-119911880D02*
X137541071Y-119911880D01*
X137874404Y-120292833D01*
X137731547Y-120292833D01*
X137636309Y-120340452D01*
X137588690Y-120388071D01*
X137541071Y-120483309D01*
X137541071Y-120721404D01*
X137588690Y-120816642D01*
X137636309Y-120864261D01*
X137731547Y-120911880D01*
X138017261Y-120911880D01*
X138112500Y-120864261D01*
X138160119Y-120816642D01*
X137207738Y-119911880D02*
X136588690Y-119911880D01*
X136922023Y-120292833D01*
X136779166Y-120292833D01*
X136683928Y-120340452D01*
X136636309Y-120388071D01*
X136588690Y-120483309D01*
X136588690Y-120721404D01*
X136636309Y-120816642D01*
X136683928Y-120864261D01*
X136779166Y-120911880D01*
X137064880Y-120911880D01*
X137160119Y-120864261D01*
X137207738Y-120816642D01*
X138810904Y-117737000D02*
X138906142Y-117689380D01*
X139049000Y-117689380D01*
X139191857Y-117737000D01*
X139287095Y-117832238D01*
X139334714Y-117927476D01*
X139382333Y-118117952D01*
X139382333Y-118260809D01*
X139334714Y-118451285D01*
X139287095Y-118546523D01*
X139191857Y-118641761D01*
X139049000Y-118689380D01*
X138953761Y-118689380D01*
X138810904Y-118641761D01*
X138763285Y-118594142D01*
X138763285Y-118260809D01*
X138953761Y-118260809D01*
X138334714Y-118689380D02*
X138334714Y-117689380D01*
X137763285Y-118689380D01*
X137763285Y-117689380D01*
X137287095Y-118689380D02*
X137287095Y-117689380D01*
X137049000Y-117689380D01*
X136906142Y-117737000D01*
X136810904Y-117832238D01*
X136763285Y-117927476D01*
X136715666Y-118117952D01*
X136715666Y-118260809D01*
X136763285Y-118451285D01*
X136810904Y-118546523D01*
X136906142Y-118641761D01*
X137049000Y-118689380D01*
X137287095Y-118689380D01*
D11*
X163006500Y-124175733D02*
X163006500Y-124518267D01*
X161986500Y-124175733D02*
X161986500Y-124518267D01*
X150050000Y-127147000D02*
X146600000Y-127147000D01*
X150050000Y-127147000D02*
X152000000Y-127147000D01*
X150050000Y-122027000D02*
X148100000Y-122027000D01*
X150050000Y-122027000D02*
X152000000Y-122027000D01*
X153079267Y-119763000D02*
X152736733Y-119763000D01*
X153079267Y-118743000D02*
X152736733Y-118743000D01*
X146880733Y-118680000D02*
X147223267Y-118680000D01*
X146880733Y-119700000D02*
X147223267Y-119700000D01*
D10*
X161518880Y-124180333D02*
X161042690Y-123847000D01*
X161518880Y-123608904D02*
X160518880Y-123608904D01*
X160518880Y-123989857D01*
X160566500Y-124085095D01*
X160614119Y-124132714D01*
X160709357Y-124180333D01*
X160852214Y-124180333D01*
X160947452Y-124132714D01*
X160995071Y-124085095D01*
X161042690Y-123989857D01*
X161042690Y-123608904D01*
X161518880Y-125132714D02*
X161518880Y-124561285D01*
X161518880Y-124847000D02*
X160518880Y-124847000D01*
X160661738Y-124751761D01*
X160756976Y-124656523D01*
X160804595Y-124561285D01*
X150811904Y-127439380D02*
X150811904Y-128248904D01*
X150764285Y-128344142D01*
X150716666Y-128391761D01*
X150621428Y-128439380D01*
X150430952Y-128439380D01*
X150335714Y-128391761D01*
X150288095Y-128344142D01*
X150240476Y-128248904D01*
X150240476Y-127439380D01*
X149240476Y-128439380D02*
X149811904Y-128439380D01*
X149526190Y-128439380D02*
X149526190Y-127439380D01*
X149621428Y-127582238D01*
X149716666Y-127677476D01*
X149811904Y-127725095D01*
X153074666Y-121007642D02*
X153122285Y-121055261D01*
X153265142Y-121102880D01*
X153360380Y-121102880D01*
X153503238Y-121055261D01*
X153598476Y-120960023D01*
X153646095Y-120864785D01*
X153693714Y-120674309D01*
X153693714Y-120531452D01*
X153646095Y-120340976D01*
X153598476Y-120245738D01*
X153503238Y-120150500D01*
X153360380Y-120102880D01*
X153265142Y-120102880D01*
X153122285Y-120150500D01*
X153074666Y-120198119D01*
X152122285Y-121102880D02*
X152693714Y-121102880D01*
X152408000Y-121102880D02*
X152408000Y-120102880D01*
X152503238Y-120245738D01*
X152598476Y-120340976D01*
X152693714Y-120388595D01*
X147218666Y-120977142D02*
X147266285Y-121024761D01*
X147409142Y-121072380D01*
X147504380Y-121072380D01*
X147647238Y-121024761D01*
X147742476Y-120929523D01*
X147790095Y-120834285D01*
X147837714Y-120643809D01*
X147837714Y-120500952D01*
X147790095Y-120310476D01*
X147742476Y-120215238D01*
X147647238Y-120120000D01*
X147504380Y-120072380D01*
X147409142Y-120072380D01*
X147266285Y-120120000D01*
X147218666Y-120167619D01*
X146837714Y-120167619D02*
X146790095Y-120120000D01*
X146694857Y-120072380D01*
X146456761Y-120072380D01*
X146361523Y-120120000D01*
X146313904Y-120167619D01*
X146266285Y-120262857D01*
X146266285Y-120358095D01*
X146313904Y-120500952D01*
X146885333Y-121072380D01*
X146266285Y-121072380D01*
M02*
