<?xml version="1.0" standalone="no"?>
 <!DOCTYPE svg PUBLIC "-//W3C//DTD SVG 1.1//EN" 
 "http://www.w3.org/Graphics/SVG/1.1/DTD/svg11.dtd"> 
<svg xmlns="http://www.w3.org/2000/svg" version="1.1" 
    width="29.7002cm" height="21.0007cm" viewBox="0 0 116930 82680 ">
<title>SVG Picture created as M5Atom_CAN-B_Paste.svg date 2020/12/18 00:21:57 </title>
  <desc>Picture generated by PCBNEW </desc>
<g style="fill:#000000; fill-opacity:1;stroke:#000000; stroke-opacity:1;
stroke-linecap:round; stroke-linejoin:round; "
 transform="translate(0 0) scale(1 1)">
</g>
<g style="fill:#000000; fill-opacity:0.0; 
stroke:#000000; stroke-width:-0.000393701; stroke-opacity:1; 
stroke-linecap:round; stroke-linejoin:round;">
<g >
</g>
<g >
</g>
<g >
</g>
<g style="fill:#000000; fill-opacity:0.0; 
stroke:#000000; stroke-width:0; stroke-opacity:1; 
stroke-linecap:round; stroke-linejoin:round;">
</g>
<g style="fill:#000000; fill-opacity:1.0; 
stroke:#000000; stroke-width:0; stroke-opacity:1; 
stroke-linecap:round; stroke-linejoin:round;">
<path style="fill:#000000; fill-opacity:1.0; 
stroke:#000000; stroke-width:0; stroke-opacity:1; 
stroke-linecap:round; stroke-linejoin:round;fill-rule:evenodd;"
d="M 64077,49093
64086,49095
64095,49097
64104,49100
64112,49104
64120,49109
64127,49114
64134,49120
64140,49127
64146,49134
64150,49142
64154,49151
64157,49159
64160,49168
64161,49177
64162,49186
64162,49413
64161,49422
64160,49431
64157,49440
64154,49448
64150,49457
64146,49465
64140,49472
64134,49479
64127,49485
64120,49490
64112,49495
64104,49499
64095,49502
64086,49504
64077,49506
64068,49506
63881,49506
63872,49506
63863,49504
63854,49502
63845,49499
63837,49495
63829,49490
63822,49485
63815,49479
63809,49472
63803,49465
63799,49457
63795,49448
63792,49440
63789,49431
63788,49422
63787,49413
63787,49186
63788,49177
63789,49168
63792,49159
63795,49151
63799,49142
63803,49134
63809,49127
63815,49120
63822,49114
63829,49109
63837,49104
63845,49100
63854,49097
63863,49095
63872,49093
63881,49093
64068,49093
64077,49093
Z" /> 
<path style="fill:#000000; fill-opacity:1.0; 
stroke:#000000; stroke-width:0; stroke-opacity:1; 
stroke-linecap:round; stroke-linejoin:round;fill-rule:evenodd;"
d="M 64077,48404
64086,48406
64095,48408
64104,48411
64112,48415
64120,48420
64127,48425
64134,48431
64140,48438
64146,48445
64150,48453
64154,48462
64157,48470
64160,48479
64161,48488
64162,48497
64162,48724
64161,48733
64160,48742
64157,48751
64154,48759
64150,48768
64146,48776
64140,48783
64134,48790
64127,48796
64120,48801
64112,48806
64104,48810
64095,48813
64086,48815
64077,48817
64068,48817
63881,48817
63872,48817
63863,48815
63854,48813
63845,48810
63837,48806
63829,48801
63822,48796
63815,48790
63809,48783
63803,48776
63799,48768
63795,48759
63792,48751
63789,48742
63788,48733
63787,48724
63787,48497
63788,48488
63789,48479
63792,48470
63795,48462
63799,48453
63803,48445
63809,48438
63815,48431
63822,48425
63829,48420
63837,48415
63845,48411
63854,48408
63863,48406
63872,48404
63881,48404
64068,48404
64077,48404
Z" /> 
</g>
<g >
</g>
<g >
<path style="fill:#000000; fill-opacity:1.0; 
stroke:#000000; stroke-width:0; stroke-opacity:1; 
stroke-linecap:round; stroke-linejoin:round;fill-rule:evenodd;"
d="M 60379,49682
60385,49683
60391,49684
60396,49686
60401,49688
60406,49691
60411,49695
60415,49699
60419,49703
60423,49708
60426,49713
60428,49718
60430,49723
60431,49729
60432,49735
60433,49740
60433,49859
60432,49864
60431,49870
60430,49876
60428,49881
60426,49886
60423,49891
60419,49896
60415,49900
60411,49904
60406,49908
60401,49911
60396,49913
60391,49915
60385,49916
60379,49917
60374,49918
59724,49918
59718,49917
59712,49916
59707,49915
59701,49913
59696,49911
59691,49908
59686,49904
59682,49900
59678,49896
59675,49891
59672,49886
59669,49881
59667,49876
59666,49870
59665,49864
59665,49859
59665,49740
59665,49735
59666,49729
59667,49723
59669,49718
59672,49713
59675,49708
59678,49703
59682,49699
59686,49695
59691,49691
59696,49688
59701,49686
59707,49684
59712,49683
59718,49682
59724,49681
60374,49681
60379,49682
Z" /> 
<path style="fill:#000000; fill-opacity:1.0; 
stroke:#000000; stroke-width:0; stroke-opacity:1; 
stroke-linecap:round; stroke-linejoin:round;fill-rule:evenodd;"
d="M 60379,49182
60385,49183
60391,49184
60396,49186
60401,49188
60406,49191
60411,49195
60415,49199
60419,49203
60423,49208
60426,49213
60428,49218
60430,49223
60431,49229
60432,49235
60433,49240
60433,49359
60432,49364
60431,49370
60430,49376
60428,49381
60426,49386
60423,49391
60419,49396
60415,49400
60411,49404
60406,49408
60401,49411
60396,49413
60391,49415
60385,49416
60379,49417
60374,49418
59724,49418
59718,49417
59712,49416
59707,49415
59701,49413
59696,49411
59691,49408
59686,49404
59682,49400
59678,49396
59675,49391
59672,49386
59669,49381
59667,49376
59666,49370
59665,49364
59665,49359
59665,49240
59665,49235
59666,49229
59667,49223
59669,49218
59672,49213
59675,49208
59678,49203
59682,49199
59686,49195
59691,49191
59696,49188
59701,49186
59707,49184
59712,49183
59718,49182
59724,49181
60374,49181
60379,49182
Z" /> 
<path style="fill:#000000; fill-opacity:1.0; 
stroke:#000000; stroke-width:0; stroke-opacity:1; 
stroke-linecap:round; stroke-linejoin:round;fill-rule:evenodd;"
d="M 60379,48682
60385,48683
60391,48684
60396,48686
60401,48688
60406,48691
60411,48695
60415,48699
60419,48703
60423,48708
60426,48713
60428,48718
60430,48723
60431,48729
60432,48735
60433,48740
60433,48859
60432,48864
60431,48870
60430,48876
60428,48881
60426,48886
60423,48891
60419,48896
60415,48900
60411,48904
60406,48908
60401,48911
60396,48913
60391,48915
60385,48916
60379,48917
60374,48918
59724,48918
59718,48917
59712,48916
59707,48915
59701,48913
59696,48911
59691,48908
59686,48904
59682,48900
59678,48896
59675,48891
59672,48886
59669,48881
59667,48876
59666,48870
59665,48864
59665,48859
59665,48740
59665,48735
59666,48729
59667,48723
59669,48718
59672,48713
59675,48708
59678,48703
59682,48699
59686,48695
59691,48691
59696,48688
59701,48686
59707,48684
59712,48683
59718,48682
59724,48681
60374,48681
60379,48682
Z" /> 
<path style="fill:#000000; fill-opacity:1.0; 
stroke:#000000; stroke-width:0; stroke-opacity:1; 
stroke-linecap:round; stroke-linejoin:round;fill-rule:evenodd;"
d="M 60379,48182
60385,48183
60391,48184
60396,48186
60401,48188
60406,48191
60411,48195
60415,48199
60419,48203
60423,48208
60426,48213
60428,48218
60430,48223
60431,48229
60432,48235
60433,48240
60433,48359
60432,48364
60431,48370
60430,48376
60428,48381
60426,48386
60423,48391
60419,48396
60415,48400
60411,48404
60406,48408
60401,48411
60396,48413
60391,48415
60385,48416
60379,48417
60374,48418
59724,48418
59718,48417
59712,48416
59707,48415
59701,48413
59696,48411
59691,48408
59686,48404
59682,48400
59678,48396
59675,48391
59672,48386
59669,48381
59667,48376
59666,48370
59665,48364
59665,48359
59665,48240
59665,48235
59666,48229
59667,48223
59669,48218
59672,48213
59675,48208
59678,48203
59682,48199
59686,48195
59691,48191
59696,48188
59701,48186
59707,48184
59712,48183
59718,48182
59724,48181
60374,48181
60379,48182
Z" /> 
<path style="fill:#000000; fill-opacity:1.0; 
stroke:#000000; stroke-width:0; stroke-opacity:1; 
stroke-linecap:round; stroke-linejoin:round;fill-rule:evenodd;"
d="M 58430,48182
58436,48183
58442,48184
58447,48186
58453,48188
58458,48191
58462,48195
58466,48199
58470,48203
58474,48208
58477,48213
58479,48218
58481,48223
58483,48229
58483,48235
58484,48240
58484,48359
58483,48364
58483,48370
58481,48376
58479,48381
58477,48386
58474,48391
58470,48396
58466,48400
58462,48404
58458,48408
58453,48411
58447,48413
58442,48415
58436,48416
58430,48417
58425,48418
57775,48418
57769,48417
57764,48416
57758,48415
57752,48413
57747,48411
57742,48408
57738,48404
57733,48400
57729,48396
57726,48391
57723,48386
57721,48381
57719,48376
57717,48370
57716,48364
57716,48359
57716,48240
57716,48235
57717,48229
57719,48223
57721,48218
57723,48213
57726,48208
57729,48203
57733,48199
57738,48195
57742,48191
57747,48188
57752,48186
57758,48184
57764,48183
57769,48182
57775,48181
58425,48181
58430,48182
Z" /> 
<path style="fill:#000000; fill-opacity:1.0; 
stroke:#000000; stroke-width:0; stroke-opacity:1; 
stroke-linecap:round; stroke-linejoin:round;fill-rule:evenodd;"
d="M 58430,48682
58436,48683
58442,48684
58447,48686
58453,48688
58458,48691
58462,48695
58466,48699
58470,48703
58474,48708
58477,48713
58479,48718
58481,48723
58483,48729
58483,48735
58484,48740
58484,48859
58483,48864
58483,48870
58481,48876
58479,48881
58477,48886
58474,48891
58470,48896
58466,48900
58462,48904
58458,48908
58453,48911
58447,48913
58442,48915
58436,48916
58430,48917
58425,48918
57775,48918
57769,48917
57764,48916
57758,48915
57752,48913
57747,48911
57742,48908
57738,48904
57733,48900
57729,48896
57726,48891
57723,48886
57721,48881
57719,48876
57717,48870
57716,48864
57716,48859
57716,48740
57716,48735
57717,48729
57719,48723
57721,48718
57723,48713
57726,48708
57729,48703
57733,48699
57738,48695
57742,48691
57747,48688
57752,48686
57758,48684
57764,48683
57769,48682
57775,48681
58425,48681
58430,48682
Z" /> 
<path style="fill:#000000; fill-opacity:1.0; 
stroke:#000000; stroke-width:0; stroke-opacity:1; 
stroke-linecap:round; stroke-linejoin:round;fill-rule:evenodd;"
d="M 58430,49182
58436,49183
58442,49184
58447,49186
58453,49188
58458,49191
58462,49195
58466,49199
58470,49203
58474,49208
58477,49213
58479,49218
58481,49223
58483,49229
58483,49235
58484,49240
58484,49359
58483,49364
58483,49370
58481,49376
58479,49381
58477,49386
58474,49391
58470,49396
58466,49400
58462,49404
58458,49408
58453,49411
58447,49413
58442,49415
58436,49416
58430,49417
58425,49418
57775,49418
57769,49417
57764,49416
57758,49415
57752,49413
57747,49411
57742,49408
57738,49404
57733,49400
57729,49396
57726,49391
57723,49386
57721,49381
57719,49376
57717,49370
57716,49364
57716,49359
57716,49240
57716,49235
57717,49229
57719,49223
57721,49218
57723,49213
57726,49208
57729,49203
57733,49199
57738,49195
57742,49191
57747,49188
57752,49186
57758,49184
57764,49183
57769,49182
57775,49181
58425,49181
58430,49182
Z" /> 
<path style="fill:#000000; fill-opacity:1.0; 
stroke:#000000; stroke-width:0; stroke-opacity:1; 
stroke-linecap:round; stroke-linejoin:round;fill-rule:evenodd;"
d="M 58430,49682
58436,49683
58442,49684
58447,49686
58453,49688
58458,49691
58462,49695
58466,49699
58470,49703
58474,49708
58477,49713
58479,49718
58481,49723
58483,49729
58483,49735
58484,49740
58484,49859
58483,49864
58483,49870
58481,49876
58479,49881
58477,49886
58474,49891
58470,49896
58466,49900
58462,49904
58458,49908
58453,49911
58447,49913
58442,49915
58436,49916
58430,49917
58425,49918
57775,49918
57769,49917
57764,49916
57758,49915
57752,49913
57747,49911
57742,49908
57738,49904
57733,49900
57729,49896
57726,49891
57723,49886
57721,49881
57719,49876
57717,49870
57716,49864
57716,49859
57716,49740
57716,49735
57717,49729
57719,49723
57721,49718
57723,49713
57726,49708
57729,49703
57733,49699
57738,49695
57742,49691
57747,49688
57752,49686
57758,49684
57764,49683
57769,49682
57775,49681
58425,49681
58430,49682
Z" /> 
</g>
<g >
<path style="fill:#000000; fill-opacity:1.0; 
stroke:#000000; stroke-width:0; stroke-opacity:1; 
stroke-linecap:round; stroke-linejoin:round;fill-rule:evenodd;"
d="M 59977,46763
59986,46764
59995,46767
60004,46770
60012,46774
60020,46778
60028,46784
60034,46790
60040,46797
60046,46804
60051,46812
60055,46820
60058,46829
60060,46838
60061,46847
60062,46856
60062,47043
60061,47052
60060,47061
60058,47070
60055,47079
60051,47087
60046,47095
60040,47102
60034,47109
60028,47115
60020,47121
60012,47125
60004,47129
59995,47132
59986,47135
59977,47136
59968,47137
59742,47137
59733,47136
59724,47135
59715,47132
59706,47129
59698,47125
59690,47121
59683,47115
59676,47109
59670,47102
59664,47095
59659,47087
59655,47079
59652,47070
59650,47061
59649,47052
59648,47043
59648,46856
59649,46847
59650,46838
59652,46829
59655,46820
59659,46812
59664,46804
59670,46797
59676,46790
59683,46784
59690,46778
59698,46774
59706,46770
59715,46767
59724,46764
59733,46763
59742,46762
59968,46762
59977,46763
Z" /> 
<path style="fill:#000000; fill-opacity:1.0; 
stroke:#000000; stroke-width:0; stroke-opacity:1; 
stroke-linecap:round; stroke-linejoin:round;fill-rule:evenodd;"
d="M 60666,46763
60675,46764
60684,46767
60693,46770
60701,46774
60709,46778
60716,46784
60723,46790
60729,46797
60735,46804
60740,46812
60744,46820
60747,46829
60749,46838
60750,46847
60751,46856
60751,47043
60750,47052
60749,47061
60747,47070
60744,47079
60740,47087
60735,47095
60729,47102
60723,47109
60716,47115
60709,47121
60701,47125
60693,47129
60684,47132
60675,47135
60666,47136
60657,47137
60431,47137
60422,47136
60413,47135
60404,47132
60395,47129
60387,47125
60379,47121
60371,47115
60365,47109
60359,47102
60353,47095
60348,47087
60344,47079
60341,47070
60339,47061
60338,47052
60337,47043
60337,46856
60338,46847
60339,46838
60341,46829
60344,46820
60348,46812
60353,46804
60359,46797
60365,46790
60371,46784
60379,46778
60387,46774
60395,46770
60404,46767
60413,46764
60422,46763
60431,46762
60657,46762
60666,46763
Z" /> 
</g>
<g >
</g>
<g >
</g>
<g >
</g>
<g >
</g>
<g >
</g>
<g >
</g>
<g >
<path style="fill:#000000; fill-opacity:1.0; 
stroke:#000000; stroke-width:0; stroke-opacity:1; 
stroke-linecap:round; stroke-linejoin:round;fill-rule:evenodd;"
d="M 58361,46738
58370,46739
58379,46742
58387,46745
58396,46749
58404,46753
58411,46759
58418,46765
58424,46772
58429,46779
58434,46787
58438,46795
58441,46804
58443,46813
58445,46822
58445,46831
58445,47018
58445,47027
58443,47036
58441,47045
58438,47054
58434,47062
58429,47070
58424,47078
58418,47084
58411,47090
58404,47096
58396,47101
58387,47105
58379,47108
58370,47110
58361,47111
58352,47112
58125,47112
58116,47111
58107,47110
58098,47108
58090,47105
58081,47101
58073,47096
58066,47090
58059,47084
58053,47078
58048,47070
58043,47062
58039,47054
58036,47045
58034,47036
58032,47027
58032,47018
58032,46831
58032,46822
58034,46813
58036,46804
58039,46795
58043,46787
58048,46779
58053,46772
58059,46765
58066,46759
58073,46753
58081,46749
58090,46745
58098,46742
58107,46739
58116,46738
58125,46738
58352,46738
58361,46738
Z" /> 
<path style="fill:#000000; fill-opacity:1.0; 
stroke:#000000; stroke-width:0; stroke-opacity:1; 
stroke-linecap:round; stroke-linejoin:round;fill-rule:evenodd;"
d="M 57672,46738
57681,46739
57690,46742
57698,46745
57707,46749
57715,46753
57722,46759
57729,46765
57735,46772
57740,46779
57745,46787
57749,46795
57752,46804
57754,46813
57756,46822
57756,46831
57756,47018
57756,47027
57754,47036
57752,47045
57749,47054
57745,47062
57740,47070
57735,47078
57729,47084
57722,47090
57715,47096
57707,47101
57698,47105
57690,47108
57681,47110
57672,47111
57663,47112
57436,47112
57427,47111
57418,47110
57409,47108
57401,47105
57392,47101
57384,47096
57377,47090
57370,47084
57364,47078
57359,47070
57354,47062
57350,47054
57347,47045
57345,47036
57343,47027
57343,47018
57343,46831
57343,46822
57345,46813
57347,46804
57350,46795
57354,46787
57359,46779
57364,46772
57370,46765
57377,46759
57384,46753
57392,46749
57401,46745
57409,46742
57418,46739
57427,46738
57436,46738
57663,46738
57672,46738
Z" /> 
</g>
<g >
</g>
<g >
</g>
<g >
</g>
</g> 
</svg>
