G04 #@! TF.GenerationSoftware,KiCad,Pcbnew,(5.1.2)-1*
G04 #@! TF.CreationDate,2020-12-05T19:35:51+09:00*
G04 #@! TF.ProjectId,M5Atom_CAN,4d354174-6f6d-45f4-9341-4e2e6b696361,rev?*
G04 #@! TF.SameCoordinates,Original*
G04 #@! TF.FileFunction,Legend,Top*
G04 #@! TF.FilePolarity,Positive*
%FSLAX46Y46*%
G04 Gerber Fmt 4.6, Leading zero omitted, Abs format (unit mm)*
G04 Created by KiCad (PCBNEW (5.1.2)-1) date 2020-12-05 19:35:51*
%MOMM*%
%LPD*%
G04 APERTURE LIST*
%ADD10C,0.150000*%
%ADD11C,0.100000*%
%ADD12C,0.120000*%
%ADD13C,0.200000*%
%ADD14C,0.254000*%
G04 APERTURE END LIST*
D10*
X163552166Y-134658380D02*
X163552166Y-134182190D01*
X163837880Y-134753619D02*
X162837880Y-134420285D01*
X163837880Y-134086952D01*
X162837880Y-133896476D02*
X162837880Y-133325047D01*
X163837880Y-133610761D02*
X162837880Y-133610761D01*
X162837880Y-132801238D02*
X162837880Y-132610761D01*
X162885500Y-132515523D01*
X162980738Y-132420285D01*
X163171214Y-132372666D01*
X163504547Y-132372666D01*
X163695023Y-132420285D01*
X163790261Y-132515523D01*
X163837880Y-132610761D01*
X163837880Y-132801238D01*
X163790261Y-132896476D01*
X163695023Y-132991714D01*
X163504547Y-133039333D01*
X163171214Y-133039333D01*
X162980738Y-132991714D01*
X162885500Y-132896476D01*
X162837880Y-132801238D01*
X163837880Y-131944095D02*
X162837880Y-131944095D01*
X163552166Y-131610761D01*
X162837880Y-131277428D01*
X163837880Y-131277428D01*
X163742642Y-129467904D02*
X163790261Y-129515523D01*
X163837880Y-129658380D01*
X163837880Y-129753619D01*
X163790261Y-129896476D01*
X163695023Y-129991714D01*
X163599785Y-130039333D01*
X163409309Y-130086952D01*
X163266452Y-130086952D01*
X163075976Y-130039333D01*
X162980738Y-129991714D01*
X162885500Y-129896476D01*
X162837880Y-129753619D01*
X162837880Y-129658380D01*
X162885500Y-129515523D01*
X162933119Y-129467904D01*
X163552166Y-129086952D02*
X163552166Y-128610761D01*
X163837880Y-129182190D02*
X162837880Y-128848857D01*
X163837880Y-128515523D01*
X163837880Y-128182190D02*
X162837880Y-128182190D01*
X163837880Y-127610761D01*
X162837880Y-127610761D01*
X163456928Y-127134571D02*
X163456928Y-126372666D01*
X163314071Y-125563142D02*
X163361690Y-125420285D01*
X163409309Y-125372666D01*
X163504547Y-125325047D01*
X163647404Y-125325047D01*
X163742642Y-125372666D01*
X163790261Y-125420285D01*
X163837880Y-125515523D01*
X163837880Y-125896476D01*
X162837880Y-125896476D01*
X162837880Y-125563142D01*
X162885500Y-125467904D01*
X162933119Y-125420285D01*
X163028357Y-125372666D01*
X163123595Y-125372666D01*
X163218833Y-125420285D01*
X163266452Y-125467904D01*
X163314071Y-125563142D01*
X163314071Y-125896476D01*
X162837880Y-124896476D02*
X163647404Y-124896476D01*
X163742642Y-124848857D01*
X163790261Y-124801238D01*
X163837880Y-124706000D01*
X163837880Y-124515523D01*
X163790261Y-124420285D01*
X163742642Y-124372666D01*
X163647404Y-124325047D01*
X162837880Y-124325047D01*
X163790261Y-123896476D02*
X163837880Y-123753619D01*
X163837880Y-123515523D01*
X163790261Y-123420285D01*
X163742642Y-123372666D01*
X163647404Y-123325047D01*
X163552166Y-123325047D01*
X163456928Y-123372666D01*
X163409309Y-123420285D01*
X163361690Y-123515523D01*
X163314071Y-123706000D01*
X163266452Y-123801238D01*
X163218833Y-123848857D01*
X163123595Y-123896476D01*
X163028357Y-123896476D01*
X162933119Y-123848857D01*
X162885500Y-123801238D01*
X162837880Y-123706000D01*
X162837880Y-123467904D01*
X162885500Y-123325047D01*
X163314071Y-121801238D02*
X163361690Y-121658380D01*
X163409309Y-121610761D01*
X163504547Y-121563142D01*
X163647404Y-121563142D01*
X163742642Y-121610761D01*
X163790261Y-121658380D01*
X163837880Y-121753619D01*
X163837880Y-122134571D01*
X162837880Y-122134571D01*
X162837880Y-121801238D01*
X162885500Y-121706000D01*
X162933119Y-121658380D01*
X163028357Y-121610761D01*
X163123595Y-121610761D01*
X163218833Y-121658380D01*
X163266452Y-121706000D01*
X163314071Y-121801238D01*
X163314071Y-122134571D01*
X162837880Y-120944095D02*
X162837880Y-120753619D01*
X162885500Y-120658380D01*
X162980738Y-120563142D01*
X163171214Y-120515523D01*
X163504547Y-120515523D01*
X163695023Y-120563142D01*
X163790261Y-120658380D01*
X163837880Y-120753619D01*
X163837880Y-120944095D01*
X163790261Y-121039333D01*
X163695023Y-121134571D01*
X163504547Y-121182190D01*
X163171214Y-121182190D01*
X162980738Y-121134571D01*
X162885500Y-121039333D01*
X162837880Y-120944095D01*
X163552166Y-120134571D02*
X163552166Y-119658380D01*
X163837880Y-120229809D02*
X162837880Y-119896476D01*
X163837880Y-119563142D01*
X163837880Y-118658380D02*
X163361690Y-118991714D01*
X163837880Y-119229809D02*
X162837880Y-119229809D01*
X162837880Y-118848857D01*
X162885500Y-118753619D01*
X162933119Y-118706000D01*
X163028357Y-118658380D01*
X163171214Y-118658380D01*
X163266452Y-118706000D01*
X163314071Y-118753619D01*
X163361690Y-118848857D01*
X163361690Y-119229809D01*
X163837880Y-118229809D02*
X162837880Y-118229809D01*
X162837880Y-117991714D01*
X162885500Y-117848857D01*
X162980738Y-117753619D01*
X163075976Y-117706000D01*
X163266452Y-117658380D01*
X163409309Y-117658380D01*
X163599785Y-117706000D01*
X163695023Y-117753619D01*
X163790261Y-117848857D01*
X163837880Y-117991714D01*
X163837880Y-118229809D01*
X163171214Y-116563142D02*
X163837880Y-116325047D01*
X163171214Y-116086952D01*
X162837880Y-115515523D02*
X162837880Y-115420285D01*
X162885500Y-115325047D01*
X162933119Y-115277428D01*
X163028357Y-115229809D01*
X163218833Y-115182190D01*
X163456928Y-115182190D01*
X163647404Y-115229809D01*
X163742642Y-115277428D01*
X163790261Y-115325047D01*
X163837880Y-115420285D01*
X163837880Y-115515523D01*
X163790261Y-115610761D01*
X163742642Y-115658380D01*
X163647404Y-115706000D01*
X163456928Y-115753619D01*
X163218833Y-115753619D01*
X163028357Y-115706000D01*
X162933119Y-115658380D01*
X162885500Y-115610761D01*
X162837880Y-115515523D01*
X163742642Y-114753619D02*
X163790261Y-114706000D01*
X163837880Y-114753619D01*
X163790261Y-114801238D01*
X163742642Y-114753619D01*
X163837880Y-114753619D01*
X163837880Y-113753619D02*
X163837880Y-114325047D01*
X163837880Y-114039333D02*
X162837880Y-114039333D01*
X162980738Y-114134571D01*
X163075976Y-114229809D01*
X163123595Y-114325047D01*
D11*
X151385000Y-139234000D02*
X151385000Y-133934000D01*
X161385000Y-139234000D02*
X151385000Y-139234000D01*
X161385000Y-133934000D02*
X161385000Y-139234000D01*
X151385000Y-133934000D02*
X161385000Y-133934000D01*
D12*
X165040000Y-121885000D02*
X166370000Y-121885000D01*
X165040000Y-123215000D02*
X165040000Y-121885000D01*
X165040000Y-124485000D02*
X167700000Y-124485000D01*
X167700000Y-124485000D02*
X167700000Y-127085000D01*
X165040000Y-124485000D02*
X165040000Y-127085000D01*
X165040000Y-127085000D02*
X167700000Y-127085000D01*
X161714000Y-132932000D02*
X161714000Y-109365000D01*
X138514600Y-109365000D02*
X161714000Y-109365000D01*
X138514600Y-132932000D02*
X138514600Y-109365000D01*
X161714000Y-132932000D02*
X138514600Y-132932000D01*
D13*
X135038000Y-130997000D02*
G75*
G02X134838000Y-130997000I-100000J0D01*
G01*
X134838000Y-130997000D02*
G75*
G02X135038000Y-130997000I100000J0D01*
G01*
X134838000Y-130997000D02*
X134838000Y-130997000D01*
X135038000Y-130997000D02*
X135038000Y-130997000D01*
D11*
X132288000Y-116397000D02*
X137588000Y-116397000D01*
X132288000Y-130397000D02*
X132288000Y-116397000D01*
X137588000Y-130397000D02*
X132288000Y-130397000D01*
X137588000Y-116397000D02*
X137588000Y-130397000D01*
X138431000Y-139234000D02*
X138431000Y-133934000D01*
X148431000Y-139234000D02*
X138431000Y-139234000D01*
X148431000Y-133934000D02*
X148431000Y-139234000D01*
X138431000Y-133934000D02*
X148431000Y-133934000D01*
D14*
X156131666Y-134078523D02*
X156131666Y-134985666D01*
X156071190Y-135167095D01*
X155950238Y-135288047D01*
X155768809Y-135348523D01*
X155647857Y-135348523D01*
X157401666Y-135348523D02*
X156675952Y-135348523D01*
X157038809Y-135348523D02*
X157038809Y-134078523D01*
X156917857Y-134259952D01*
X156796904Y-134380904D01*
X156675952Y-134441380D01*
D10*
X166036666Y-120337380D02*
X166036666Y-121051666D01*
X165989047Y-121194523D01*
X165893809Y-121289761D01*
X165750952Y-121337380D01*
X165655714Y-121337380D01*
X166941428Y-120670714D02*
X166941428Y-121337380D01*
X166703333Y-120289761D02*
X166465238Y-121004047D01*
X167084285Y-121004047D01*
X149352095Y-109744380D02*
X149352095Y-110553904D01*
X149399714Y-110649142D01*
X149447333Y-110696761D01*
X149542571Y-110744380D01*
X149733047Y-110744380D01*
X149828285Y-110696761D01*
X149875904Y-110649142D01*
X149923523Y-110553904D01*
X149923523Y-109744380D01*
X150352095Y-109839619D02*
X150399714Y-109792000D01*
X150494952Y-109744380D01*
X150733047Y-109744380D01*
X150828285Y-109792000D01*
X150875904Y-109839619D01*
X150923523Y-109934857D01*
X150923523Y-110030095D01*
X150875904Y-110172952D01*
X150304476Y-110744380D01*
X150923523Y-110744380D01*
D14*
X135912523Y-123810333D02*
X136819666Y-123810333D01*
X137001095Y-123870809D01*
X137122047Y-123991761D01*
X137182523Y-124173190D01*
X137182523Y-124294142D01*
X135912523Y-123326523D02*
X135912523Y-122540333D01*
X136396333Y-122963666D01*
X136396333Y-122782238D01*
X136456809Y-122661285D01*
X136517285Y-122600809D01*
X136638238Y-122540333D01*
X136940619Y-122540333D01*
X137061571Y-122600809D01*
X137122047Y-122661285D01*
X137182523Y-122782238D01*
X137182523Y-123145095D01*
X137122047Y-123266047D01*
X137061571Y-123326523D01*
X143117666Y-134018523D02*
X143117666Y-134925666D01*
X143057190Y-135107095D01*
X142936238Y-135228047D01*
X142754809Y-135288523D01*
X142633857Y-135288523D01*
X143661952Y-134139476D02*
X143722428Y-134079000D01*
X143843380Y-134018523D01*
X144145761Y-134018523D01*
X144266714Y-134079000D01*
X144327190Y-134139476D01*
X144387666Y-134260428D01*
X144387666Y-134381380D01*
X144327190Y-134562809D01*
X143601476Y-135288523D01*
X144387666Y-135288523D01*
M02*
