G04 #@! TF.GenerationSoftware,KiCad,Pcbnew,(5.1.2)-1*
G04 #@! TF.CreationDate,2020-12-18T00:18:44+09:00*
G04 #@! TF.ProjectId,M5Atom_CAN,4d354174-6f6d-45f4-9341-4e2e6b696361,rev?*
G04 #@! TF.SameCoordinates,Original*
G04 #@! TF.FileFunction,Copper,L2,Bot*
G04 #@! TF.FilePolarity,Positive*
%FSLAX46Y46*%
G04 Gerber Fmt 4.6, Leading zero omitted, Abs format (unit mm)*
G04 Created by KiCad (PCBNEW (5.1.2)-1) date 2020-12-18 00:18:44*
%MOMM*%
%LPD*%
G04 APERTURE LIST*
%ADD10C,1.300000*%
%ADD11R,1.300000X1.300000*%
%ADD12O,1.700000X1.700000*%
%ADD13R,1.700000X1.700000*%
%ADD14C,0.100000*%
%ADD15C,0.950000*%
%ADD16C,1.700000*%
%ADD17C,1.776200*%
%ADD18C,0.600000*%
%ADD19C,3.800000*%
%ADD20C,0.250000*%
%ADD21C,0.200000*%
%ADD22C,0.254000*%
G04 APERTURE END LIST*
D10*
X153385000Y-136334000D03*
X155385000Y-136334000D03*
X157385000Y-136334000D03*
D11*
X159385000Y-136334000D03*
D12*
X166370000Y-125755000D03*
D13*
X166370000Y-123215000D03*
D14*
G36*
X162757279Y-124698144D02*
G01*
X162780334Y-124701563D01*
X162802943Y-124707227D01*
X162824887Y-124715079D01*
X162845957Y-124725044D01*
X162865948Y-124737026D01*
X162884668Y-124750910D01*
X162901938Y-124766562D01*
X162917590Y-124783832D01*
X162931474Y-124802552D01*
X162943456Y-124822543D01*
X162953421Y-124843613D01*
X162961273Y-124865557D01*
X162966937Y-124888166D01*
X162970356Y-124911221D01*
X162971500Y-124934500D01*
X162971500Y-125509500D01*
X162970356Y-125532779D01*
X162966937Y-125555834D01*
X162961273Y-125578443D01*
X162953421Y-125600387D01*
X162943456Y-125621457D01*
X162931474Y-125641448D01*
X162917590Y-125660168D01*
X162901938Y-125677438D01*
X162884668Y-125693090D01*
X162865948Y-125706974D01*
X162845957Y-125718956D01*
X162824887Y-125728921D01*
X162802943Y-125736773D01*
X162780334Y-125742437D01*
X162757279Y-125745856D01*
X162734000Y-125747000D01*
X162259000Y-125747000D01*
X162235721Y-125745856D01*
X162212666Y-125742437D01*
X162190057Y-125736773D01*
X162168113Y-125728921D01*
X162147043Y-125718956D01*
X162127052Y-125706974D01*
X162108332Y-125693090D01*
X162091062Y-125677438D01*
X162075410Y-125660168D01*
X162061526Y-125641448D01*
X162049544Y-125621457D01*
X162039579Y-125600387D01*
X162031727Y-125578443D01*
X162026063Y-125555834D01*
X162022644Y-125532779D01*
X162021500Y-125509500D01*
X162021500Y-124934500D01*
X162022644Y-124911221D01*
X162026063Y-124888166D01*
X162031727Y-124865557D01*
X162039579Y-124843613D01*
X162049544Y-124822543D01*
X162061526Y-124802552D01*
X162075410Y-124783832D01*
X162091062Y-124766562D01*
X162108332Y-124750910D01*
X162127052Y-124737026D01*
X162147043Y-124725044D01*
X162168113Y-124715079D01*
X162190057Y-124707227D01*
X162212666Y-124701563D01*
X162235721Y-124698144D01*
X162259000Y-124697000D01*
X162734000Y-124697000D01*
X162757279Y-124698144D01*
X162757279Y-124698144D01*
G37*
D15*
X162496500Y-125222000D03*
D14*
G36*
X162757279Y-122948144D02*
G01*
X162780334Y-122951563D01*
X162802943Y-122957227D01*
X162824887Y-122965079D01*
X162845957Y-122975044D01*
X162865948Y-122987026D01*
X162884668Y-123000910D01*
X162901938Y-123016562D01*
X162917590Y-123033832D01*
X162931474Y-123052552D01*
X162943456Y-123072543D01*
X162953421Y-123093613D01*
X162961273Y-123115557D01*
X162966937Y-123138166D01*
X162970356Y-123161221D01*
X162971500Y-123184500D01*
X162971500Y-123759500D01*
X162970356Y-123782779D01*
X162966937Y-123805834D01*
X162961273Y-123828443D01*
X162953421Y-123850387D01*
X162943456Y-123871457D01*
X162931474Y-123891448D01*
X162917590Y-123910168D01*
X162901938Y-123927438D01*
X162884668Y-123943090D01*
X162865948Y-123956974D01*
X162845957Y-123968956D01*
X162824887Y-123978921D01*
X162802943Y-123986773D01*
X162780334Y-123992437D01*
X162757279Y-123995856D01*
X162734000Y-123997000D01*
X162259000Y-123997000D01*
X162235721Y-123995856D01*
X162212666Y-123992437D01*
X162190057Y-123986773D01*
X162168113Y-123978921D01*
X162147043Y-123968956D01*
X162127052Y-123956974D01*
X162108332Y-123943090D01*
X162091062Y-123927438D01*
X162075410Y-123910168D01*
X162061526Y-123891448D01*
X162049544Y-123871457D01*
X162039579Y-123850387D01*
X162031727Y-123828443D01*
X162026063Y-123805834D01*
X162022644Y-123782779D01*
X162021500Y-123759500D01*
X162021500Y-123184500D01*
X162022644Y-123161221D01*
X162026063Y-123138166D01*
X162031727Y-123115557D01*
X162039579Y-123093613D01*
X162049544Y-123072543D01*
X162061526Y-123052552D01*
X162075410Y-123033832D01*
X162091062Y-123016562D01*
X162108332Y-123000910D01*
X162127052Y-122987026D01*
X162147043Y-122975044D01*
X162168113Y-122965079D01*
X162190057Y-122957227D01*
X162212666Y-122951563D01*
X162235721Y-122948144D01*
X162259000Y-122947000D01*
X162734000Y-122947000D01*
X162757279Y-122948144D01*
X162757279Y-122948144D01*
G37*
D15*
X162496500Y-123472000D03*
D16*
X142494000Y-123762000D03*
X142494000Y-121222000D03*
X142494000Y-118682000D03*
X142494000Y-116142000D03*
X142494000Y-113602000D03*
X157734000Y-113602000D03*
X157734000Y-116142000D03*
X157734000Y-118682000D03*
D17*
X157734000Y-121222000D03*
D14*
G36*
X153364703Y-126192722D02*
G01*
X153379264Y-126194882D01*
X153393543Y-126198459D01*
X153407403Y-126203418D01*
X153420710Y-126209712D01*
X153433336Y-126217280D01*
X153445159Y-126226048D01*
X153456066Y-126235934D01*
X153465952Y-126246841D01*
X153474720Y-126258664D01*
X153482288Y-126271290D01*
X153488582Y-126284597D01*
X153493541Y-126298457D01*
X153497118Y-126312736D01*
X153499278Y-126327297D01*
X153500000Y-126342000D01*
X153500000Y-126642000D01*
X153499278Y-126656703D01*
X153497118Y-126671264D01*
X153493541Y-126685543D01*
X153488582Y-126699403D01*
X153482288Y-126712710D01*
X153474720Y-126725336D01*
X153465952Y-126737159D01*
X153456066Y-126748066D01*
X153445159Y-126757952D01*
X153433336Y-126766720D01*
X153420710Y-126774288D01*
X153407403Y-126780582D01*
X153393543Y-126785541D01*
X153379264Y-126789118D01*
X153364703Y-126791278D01*
X153350000Y-126792000D01*
X151700000Y-126792000D01*
X151685297Y-126791278D01*
X151670736Y-126789118D01*
X151656457Y-126785541D01*
X151642597Y-126780582D01*
X151629290Y-126774288D01*
X151616664Y-126766720D01*
X151604841Y-126757952D01*
X151593934Y-126748066D01*
X151584048Y-126737159D01*
X151575280Y-126725336D01*
X151567712Y-126712710D01*
X151561418Y-126699403D01*
X151556459Y-126685543D01*
X151552882Y-126671264D01*
X151550722Y-126656703D01*
X151550000Y-126642000D01*
X151550000Y-126342000D01*
X151550722Y-126327297D01*
X151552882Y-126312736D01*
X151556459Y-126298457D01*
X151561418Y-126284597D01*
X151567712Y-126271290D01*
X151575280Y-126258664D01*
X151584048Y-126246841D01*
X151593934Y-126235934D01*
X151604841Y-126226048D01*
X151616664Y-126217280D01*
X151629290Y-126209712D01*
X151642597Y-126203418D01*
X151656457Y-126198459D01*
X151670736Y-126194882D01*
X151685297Y-126192722D01*
X151700000Y-126192000D01*
X153350000Y-126192000D01*
X153364703Y-126192722D01*
X153364703Y-126192722D01*
G37*
D18*
X152525000Y-126492000D03*
D14*
G36*
X153364703Y-124922722D02*
G01*
X153379264Y-124924882D01*
X153393543Y-124928459D01*
X153407403Y-124933418D01*
X153420710Y-124939712D01*
X153433336Y-124947280D01*
X153445159Y-124956048D01*
X153456066Y-124965934D01*
X153465952Y-124976841D01*
X153474720Y-124988664D01*
X153482288Y-125001290D01*
X153488582Y-125014597D01*
X153493541Y-125028457D01*
X153497118Y-125042736D01*
X153499278Y-125057297D01*
X153500000Y-125072000D01*
X153500000Y-125372000D01*
X153499278Y-125386703D01*
X153497118Y-125401264D01*
X153493541Y-125415543D01*
X153488582Y-125429403D01*
X153482288Y-125442710D01*
X153474720Y-125455336D01*
X153465952Y-125467159D01*
X153456066Y-125478066D01*
X153445159Y-125487952D01*
X153433336Y-125496720D01*
X153420710Y-125504288D01*
X153407403Y-125510582D01*
X153393543Y-125515541D01*
X153379264Y-125519118D01*
X153364703Y-125521278D01*
X153350000Y-125522000D01*
X151700000Y-125522000D01*
X151685297Y-125521278D01*
X151670736Y-125519118D01*
X151656457Y-125515541D01*
X151642597Y-125510582D01*
X151629290Y-125504288D01*
X151616664Y-125496720D01*
X151604841Y-125487952D01*
X151593934Y-125478066D01*
X151584048Y-125467159D01*
X151575280Y-125455336D01*
X151567712Y-125442710D01*
X151561418Y-125429403D01*
X151556459Y-125415543D01*
X151552882Y-125401264D01*
X151550722Y-125386703D01*
X151550000Y-125372000D01*
X151550000Y-125072000D01*
X151550722Y-125057297D01*
X151552882Y-125042736D01*
X151556459Y-125028457D01*
X151561418Y-125014597D01*
X151567712Y-125001290D01*
X151575280Y-124988664D01*
X151584048Y-124976841D01*
X151593934Y-124965934D01*
X151604841Y-124956048D01*
X151616664Y-124947280D01*
X151629290Y-124939712D01*
X151642597Y-124933418D01*
X151656457Y-124928459D01*
X151670736Y-124924882D01*
X151685297Y-124922722D01*
X151700000Y-124922000D01*
X153350000Y-124922000D01*
X153364703Y-124922722D01*
X153364703Y-124922722D01*
G37*
D18*
X152525000Y-125222000D03*
D14*
G36*
X153364703Y-123652722D02*
G01*
X153379264Y-123654882D01*
X153393543Y-123658459D01*
X153407403Y-123663418D01*
X153420710Y-123669712D01*
X153433336Y-123677280D01*
X153445159Y-123686048D01*
X153456066Y-123695934D01*
X153465952Y-123706841D01*
X153474720Y-123718664D01*
X153482288Y-123731290D01*
X153488582Y-123744597D01*
X153493541Y-123758457D01*
X153497118Y-123772736D01*
X153499278Y-123787297D01*
X153500000Y-123802000D01*
X153500000Y-124102000D01*
X153499278Y-124116703D01*
X153497118Y-124131264D01*
X153493541Y-124145543D01*
X153488582Y-124159403D01*
X153482288Y-124172710D01*
X153474720Y-124185336D01*
X153465952Y-124197159D01*
X153456066Y-124208066D01*
X153445159Y-124217952D01*
X153433336Y-124226720D01*
X153420710Y-124234288D01*
X153407403Y-124240582D01*
X153393543Y-124245541D01*
X153379264Y-124249118D01*
X153364703Y-124251278D01*
X153350000Y-124252000D01*
X151700000Y-124252000D01*
X151685297Y-124251278D01*
X151670736Y-124249118D01*
X151656457Y-124245541D01*
X151642597Y-124240582D01*
X151629290Y-124234288D01*
X151616664Y-124226720D01*
X151604841Y-124217952D01*
X151593934Y-124208066D01*
X151584048Y-124197159D01*
X151575280Y-124185336D01*
X151567712Y-124172710D01*
X151561418Y-124159403D01*
X151556459Y-124145543D01*
X151552882Y-124131264D01*
X151550722Y-124116703D01*
X151550000Y-124102000D01*
X151550000Y-123802000D01*
X151550722Y-123787297D01*
X151552882Y-123772736D01*
X151556459Y-123758457D01*
X151561418Y-123744597D01*
X151567712Y-123731290D01*
X151575280Y-123718664D01*
X151584048Y-123706841D01*
X151593934Y-123695934D01*
X151604841Y-123686048D01*
X151616664Y-123677280D01*
X151629290Y-123669712D01*
X151642597Y-123663418D01*
X151656457Y-123658459D01*
X151670736Y-123654882D01*
X151685297Y-123652722D01*
X151700000Y-123652000D01*
X153350000Y-123652000D01*
X153364703Y-123652722D01*
X153364703Y-123652722D01*
G37*
D18*
X152525000Y-123952000D03*
D14*
G36*
X153364703Y-122382722D02*
G01*
X153379264Y-122384882D01*
X153393543Y-122388459D01*
X153407403Y-122393418D01*
X153420710Y-122399712D01*
X153433336Y-122407280D01*
X153445159Y-122416048D01*
X153456066Y-122425934D01*
X153465952Y-122436841D01*
X153474720Y-122448664D01*
X153482288Y-122461290D01*
X153488582Y-122474597D01*
X153493541Y-122488457D01*
X153497118Y-122502736D01*
X153499278Y-122517297D01*
X153500000Y-122532000D01*
X153500000Y-122832000D01*
X153499278Y-122846703D01*
X153497118Y-122861264D01*
X153493541Y-122875543D01*
X153488582Y-122889403D01*
X153482288Y-122902710D01*
X153474720Y-122915336D01*
X153465952Y-122927159D01*
X153456066Y-122938066D01*
X153445159Y-122947952D01*
X153433336Y-122956720D01*
X153420710Y-122964288D01*
X153407403Y-122970582D01*
X153393543Y-122975541D01*
X153379264Y-122979118D01*
X153364703Y-122981278D01*
X153350000Y-122982000D01*
X151700000Y-122982000D01*
X151685297Y-122981278D01*
X151670736Y-122979118D01*
X151656457Y-122975541D01*
X151642597Y-122970582D01*
X151629290Y-122964288D01*
X151616664Y-122956720D01*
X151604841Y-122947952D01*
X151593934Y-122938066D01*
X151584048Y-122927159D01*
X151575280Y-122915336D01*
X151567712Y-122902710D01*
X151561418Y-122889403D01*
X151556459Y-122875543D01*
X151552882Y-122861264D01*
X151550722Y-122846703D01*
X151550000Y-122832000D01*
X151550000Y-122532000D01*
X151550722Y-122517297D01*
X151552882Y-122502736D01*
X151556459Y-122488457D01*
X151561418Y-122474597D01*
X151567712Y-122461290D01*
X151575280Y-122448664D01*
X151584048Y-122436841D01*
X151593934Y-122425934D01*
X151604841Y-122416048D01*
X151616664Y-122407280D01*
X151629290Y-122399712D01*
X151642597Y-122393418D01*
X151656457Y-122388459D01*
X151670736Y-122384882D01*
X151685297Y-122382722D01*
X151700000Y-122382000D01*
X153350000Y-122382000D01*
X153364703Y-122382722D01*
X153364703Y-122382722D01*
G37*
D18*
X152525000Y-122682000D03*
D14*
G36*
X148414703Y-122382722D02*
G01*
X148429264Y-122384882D01*
X148443543Y-122388459D01*
X148457403Y-122393418D01*
X148470710Y-122399712D01*
X148483336Y-122407280D01*
X148495159Y-122416048D01*
X148506066Y-122425934D01*
X148515952Y-122436841D01*
X148524720Y-122448664D01*
X148532288Y-122461290D01*
X148538582Y-122474597D01*
X148543541Y-122488457D01*
X148547118Y-122502736D01*
X148549278Y-122517297D01*
X148550000Y-122532000D01*
X148550000Y-122832000D01*
X148549278Y-122846703D01*
X148547118Y-122861264D01*
X148543541Y-122875543D01*
X148538582Y-122889403D01*
X148532288Y-122902710D01*
X148524720Y-122915336D01*
X148515952Y-122927159D01*
X148506066Y-122938066D01*
X148495159Y-122947952D01*
X148483336Y-122956720D01*
X148470710Y-122964288D01*
X148457403Y-122970582D01*
X148443543Y-122975541D01*
X148429264Y-122979118D01*
X148414703Y-122981278D01*
X148400000Y-122982000D01*
X146750000Y-122982000D01*
X146735297Y-122981278D01*
X146720736Y-122979118D01*
X146706457Y-122975541D01*
X146692597Y-122970582D01*
X146679290Y-122964288D01*
X146666664Y-122956720D01*
X146654841Y-122947952D01*
X146643934Y-122938066D01*
X146634048Y-122927159D01*
X146625280Y-122915336D01*
X146617712Y-122902710D01*
X146611418Y-122889403D01*
X146606459Y-122875543D01*
X146602882Y-122861264D01*
X146600722Y-122846703D01*
X146600000Y-122832000D01*
X146600000Y-122532000D01*
X146600722Y-122517297D01*
X146602882Y-122502736D01*
X146606459Y-122488457D01*
X146611418Y-122474597D01*
X146617712Y-122461290D01*
X146625280Y-122448664D01*
X146634048Y-122436841D01*
X146643934Y-122425934D01*
X146654841Y-122416048D01*
X146666664Y-122407280D01*
X146679290Y-122399712D01*
X146692597Y-122393418D01*
X146706457Y-122388459D01*
X146720736Y-122384882D01*
X146735297Y-122382722D01*
X146750000Y-122382000D01*
X148400000Y-122382000D01*
X148414703Y-122382722D01*
X148414703Y-122382722D01*
G37*
D18*
X147575000Y-122682000D03*
D14*
G36*
X148414703Y-123652722D02*
G01*
X148429264Y-123654882D01*
X148443543Y-123658459D01*
X148457403Y-123663418D01*
X148470710Y-123669712D01*
X148483336Y-123677280D01*
X148495159Y-123686048D01*
X148506066Y-123695934D01*
X148515952Y-123706841D01*
X148524720Y-123718664D01*
X148532288Y-123731290D01*
X148538582Y-123744597D01*
X148543541Y-123758457D01*
X148547118Y-123772736D01*
X148549278Y-123787297D01*
X148550000Y-123802000D01*
X148550000Y-124102000D01*
X148549278Y-124116703D01*
X148547118Y-124131264D01*
X148543541Y-124145543D01*
X148538582Y-124159403D01*
X148532288Y-124172710D01*
X148524720Y-124185336D01*
X148515952Y-124197159D01*
X148506066Y-124208066D01*
X148495159Y-124217952D01*
X148483336Y-124226720D01*
X148470710Y-124234288D01*
X148457403Y-124240582D01*
X148443543Y-124245541D01*
X148429264Y-124249118D01*
X148414703Y-124251278D01*
X148400000Y-124252000D01*
X146750000Y-124252000D01*
X146735297Y-124251278D01*
X146720736Y-124249118D01*
X146706457Y-124245541D01*
X146692597Y-124240582D01*
X146679290Y-124234288D01*
X146666664Y-124226720D01*
X146654841Y-124217952D01*
X146643934Y-124208066D01*
X146634048Y-124197159D01*
X146625280Y-124185336D01*
X146617712Y-124172710D01*
X146611418Y-124159403D01*
X146606459Y-124145543D01*
X146602882Y-124131264D01*
X146600722Y-124116703D01*
X146600000Y-124102000D01*
X146600000Y-123802000D01*
X146600722Y-123787297D01*
X146602882Y-123772736D01*
X146606459Y-123758457D01*
X146611418Y-123744597D01*
X146617712Y-123731290D01*
X146625280Y-123718664D01*
X146634048Y-123706841D01*
X146643934Y-123695934D01*
X146654841Y-123686048D01*
X146666664Y-123677280D01*
X146679290Y-123669712D01*
X146692597Y-123663418D01*
X146706457Y-123658459D01*
X146720736Y-123654882D01*
X146735297Y-123652722D01*
X146750000Y-123652000D01*
X148400000Y-123652000D01*
X148414703Y-123652722D01*
X148414703Y-123652722D01*
G37*
D18*
X147575000Y-123952000D03*
D14*
G36*
X148414703Y-124922722D02*
G01*
X148429264Y-124924882D01*
X148443543Y-124928459D01*
X148457403Y-124933418D01*
X148470710Y-124939712D01*
X148483336Y-124947280D01*
X148495159Y-124956048D01*
X148506066Y-124965934D01*
X148515952Y-124976841D01*
X148524720Y-124988664D01*
X148532288Y-125001290D01*
X148538582Y-125014597D01*
X148543541Y-125028457D01*
X148547118Y-125042736D01*
X148549278Y-125057297D01*
X148550000Y-125072000D01*
X148550000Y-125372000D01*
X148549278Y-125386703D01*
X148547118Y-125401264D01*
X148543541Y-125415543D01*
X148538582Y-125429403D01*
X148532288Y-125442710D01*
X148524720Y-125455336D01*
X148515952Y-125467159D01*
X148506066Y-125478066D01*
X148495159Y-125487952D01*
X148483336Y-125496720D01*
X148470710Y-125504288D01*
X148457403Y-125510582D01*
X148443543Y-125515541D01*
X148429264Y-125519118D01*
X148414703Y-125521278D01*
X148400000Y-125522000D01*
X146750000Y-125522000D01*
X146735297Y-125521278D01*
X146720736Y-125519118D01*
X146706457Y-125515541D01*
X146692597Y-125510582D01*
X146679290Y-125504288D01*
X146666664Y-125496720D01*
X146654841Y-125487952D01*
X146643934Y-125478066D01*
X146634048Y-125467159D01*
X146625280Y-125455336D01*
X146617712Y-125442710D01*
X146611418Y-125429403D01*
X146606459Y-125415543D01*
X146602882Y-125401264D01*
X146600722Y-125386703D01*
X146600000Y-125372000D01*
X146600000Y-125072000D01*
X146600722Y-125057297D01*
X146602882Y-125042736D01*
X146606459Y-125028457D01*
X146611418Y-125014597D01*
X146617712Y-125001290D01*
X146625280Y-124988664D01*
X146634048Y-124976841D01*
X146643934Y-124965934D01*
X146654841Y-124956048D01*
X146666664Y-124947280D01*
X146679290Y-124939712D01*
X146692597Y-124933418D01*
X146706457Y-124928459D01*
X146720736Y-124924882D01*
X146735297Y-124922722D01*
X146750000Y-124922000D01*
X148400000Y-124922000D01*
X148414703Y-124922722D01*
X148414703Y-124922722D01*
G37*
D18*
X147575000Y-125222000D03*
D14*
G36*
X148414703Y-126192722D02*
G01*
X148429264Y-126194882D01*
X148443543Y-126198459D01*
X148457403Y-126203418D01*
X148470710Y-126209712D01*
X148483336Y-126217280D01*
X148495159Y-126226048D01*
X148506066Y-126235934D01*
X148515952Y-126246841D01*
X148524720Y-126258664D01*
X148532288Y-126271290D01*
X148538582Y-126284597D01*
X148543541Y-126298457D01*
X148547118Y-126312736D01*
X148549278Y-126327297D01*
X148550000Y-126342000D01*
X148550000Y-126642000D01*
X148549278Y-126656703D01*
X148547118Y-126671264D01*
X148543541Y-126685543D01*
X148538582Y-126699403D01*
X148532288Y-126712710D01*
X148524720Y-126725336D01*
X148515952Y-126737159D01*
X148506066Y-126748066D01*
X148495159Y-126757952D01*
X148483336Y-126766720D01*
X148470710Y-126774288D01*
X148457403Y-126780582D01*
X148443543Y-126785541D01*
X148429264Y-126789118D01*
X148414703Y-126791278D01*
X148400000Y-126792000D01*
X146750000Y-126792000D01*
X146735297Y-126791278D01*
X146720736Y-126789118D01*
X146706457Y-126785541D01*
X146692597Y-126780582D01*
X146679290Y-126774288D01*
X146666664Y-126766720D01*
X146654841Y-126757952D01*
X146643934Y-126748066D01*
X146634048Y-126737159D01*
X146625280Y-126725336D01*
X146617712Y-126712710D01*
X146611418Y-126699403D01*
X146606459Y-126685543D01*
X146602882Y-126671264D01*
X146600722Y-126656703D01*
X146600000Y-126642000D01*
X146600000Y-126342000D01*
X146600722Y-126327297D01*
X146602882Y-126312736D01*
X146606459Y-126298457D01*
X146611418Y-126284597D01*
X146617712Y-126271290D01*
X146625280Y-126258664D01*
X146634048Y-126246841D01*
X146643934Y-126235934D01*
X146654841Y-126226048D01*
X146666664Y-126217280D01*
X146679290Y-126209712D01*
X146692597Y-126203418D01*
X146706457Y-126198459D01*
X146720736Y-126194882D01*
X146735297Y-126192722D01*
X146750000Y-126192000D01*
X148400000Y-126192000D01*
X148414703Y-126192722D01*
X148414703Y-126192722D01*
G37*
D18*
X147575000Y-126492000D03*
D14*
G36*
X152343779Y-118779144D02*
G01*
X152366834Y-118782563D01*
X152389443Y-118788227D01*
X152411387Y-118796079D01*
X152432457Y-118806044D01*
X152452448Y-118818026D01*
X152471168Y-118831910D01*
X152488438Y-118847562D01*
X152504090Y-118864832D01*
X152517974Y-118883552D01*
X152529956Y-118903543D01*
X152539921Y-118924613D01*
X152547773Y-118946557D01*
X152553437Y-118969166D01*
X152556856Y-118992221D01*
X152558000Y-119015500D01*
X152558000Y-119490500D01*
X152556856Y-119513779D01*
X152553437Y-119536834D01*
X152547773Y-119559443D01*
X152539921Y-119581387D01*
X152529956Y-119602457D01*
X152517974Y-119622448D01*
X152504090Y-119641168D01*
X152488438Y-119658438D01*
X152471168Y-119674090D01*
X152452448Y-119687974D01*
X152432457Y-119699956D01*
X152411387Y-119709921D01*
X152389443Y-119717773D01*
X152366834Y-119723437D01*
X152343779Y-119726856D01*
X152320500Y-119728000D01*
X151745500Y-119728000D01*
X151722221Y-119726856D01*
X151699166Y-119723437D01*
X151676557Y-119717773D01*
X151654613Y-119709921D01*
X151633543Y-119699956D01*
X151613552Y-119687974D01*
X151594832Y-119674090D01*
X151577562Y-119658438D01*
X151561910Y-119641168D01*
X151548026Y-119622448D01*
X151536044Y-119602457D01*
X151526079Y-119581387D01*
X151518227Y-119559443D01*
X151512563Y-119536834D01*
X151509144Y-119513779D01*
X151508000Y-119490500D01*
X151508000Y-119015500D01*
X151509144Y-118992221D01*
X151512563Y-118969166D01*
X151518227Y-118946557D01*
X151526079Y-118924613D01*
X151536044Y-118903543D01*
X151548026Y-118883552D01*
X151561910Y-118864832D01*
X151577562Y-118847562D01*
X151594832Y-118831910D01*
X151613552Y-118818026D01*
X151633543Y-118806044D01*
X151654613Y-118796079D01*
X151676557Y-118788227D01*
X151699166Y-118782563D01*
X151722221Y-118779144D01*
X151745500Y-118778000D01*
X152320500Y-118778000D01*
X152343779Y-118779144D01*
X152343779Y-118779144D01*
G37*
D15*
X152033000Y-119253000D03*
D14*
G36*
X154093779Y-118779144D02*
G01*
X154116834Y-118782563D01*
X154139443Y-118788227D01*
X154161387Y-118796079D01*
X154182457Y-118806044D01*
X154202448Y-118818026D01*
X154221168Y-118831910D01*
X154238438Y-118847562D01*
X154254090Y-118864832D01*
X154267974Y-118883552D01*
X154279956Y-118903543D01*
X154289921Y-118924613D01*
X154297773Y-118946557D01*
X154303437Y-118969166D01*
X154306856Y-118992221D01*
X154308000Y-119015500D01*
X154308000Y-119490500D01*
X154306856Y-119513779D01*
X154303437Y-119536834D01*
X154297773Y-119559443D01*
X154289921Y-119581387D01*
X154279956Y-119602457D01*
X154267974Y-119622448D01*
X154254090Y-119641168D01*
X154238438Y-119658438D01*
X154221168Y-119674090D01*
X154202448Y-119687974D01*
X154182457Y-119699956D01*
X154161387Y-119709921D01*
X154139443Y-119717773D01*
X154116834Y-119723437D01*
X154093779Y-119726856D01*
X154070500Y-119728000D01*
X153495500Y-119728000D01*
X153472221Y-119726856D01*
X153449166Y-119723437D01*
X153426557Y-119717773D01*
X153404613Y-119709921D01*
X153383543Y-119699956D01*
X153363552Y-119687974D01*
X153344832Y-119674090D01*
X153327562Y-119658438D01*
X153311910Y-119641168D01*
X153298026Y-119622448D01*
X153286044Y-119602457D01*
X153276079Y-119581387D01*
X153268227Y-119559443D01*
X153262563Y-119536834D01*
X153259144Y-119513779D01*
X153258000Y-119490500D01*
X153258000Y-119015500D01*
X153259144Y-118992221D01*
X153262563Y-118969166D01*
X153268227Y-118946557D01*
X153276079Y-118924613D01*
X153286044Y-118903543D01*
X153298026Y-118883552D01*
X153311910Y-118864832D01*
X153327562Y-118847562D01*
X153344832Y-118831910D01*
X153363552Y-118818026D01*
X153383543Y-118806044D01*
X153404613Y-118796079D01*
X153426557Y-118788227D01*
X153449166Y-118782563D01*
X153472221Y-118779144D01*
X153495500Y-118778000D01*
X154070500Y-118778000D01*
X154093779Y-118779144D01*
X154093779Y-118779144D01*
G37*
D15*
X153783000Y-119253000D03*
D19*
X134064000Y-112220000D03*
X166164000Y-112220000D03*
X166164000Y-136700000D03*
X134064000Y-136700000D03*
D10*
X134938000Y-118397000D03*
X134938000Y-120397000D03*
X134938000Y-122397000D03*
X134938000Y-124397000D03*
X134938000Y-126397000D03*
X134938000Y-128397000D03*
X140431000Y-136334000D03*
X142431000Y-136334000D03*
X144431000Y-136334000D03*
D11*
X146431000Y-136334000D03*
D14*
G36*
X148237779Y-118716144D02*
G01*
X148260834Y-118719563D01*
X148283443Y-118725227D01*
X148305387Y-118733079D01*
X148326457Y-118743044D01*
X148346448Y-118755026D01*
X148365168Y-118768910D01*
X148382438Y-118784562D01*
X148398090Y-118801832D01*
X148411974Y-118820552D01*
X148423956Y-118840543D01*
X148433921Y-118861613D01*
X148441773Y-118883557D01*
X148447437Y-118906166D01*
X148450856Y-118929221D01*
X148452000Y-118952500D01*
X148452000Y-119427500D01*
X148450856Y-119450779D01*
X148447437Y-119473834D01*
X148441773Y-119496443D01*
X148433921Y-119518387D01*
X148423956Y-119539457D01*
X148411974Y-119559448D01*
X148398090Y-119578168D01*
X148382438Y-119595438D01*
X148365168Y-119611090D01*
X148346448Y-119624974D01*
X148326457Y-119636956D01*
X148305387Y-119646921D01*
X148283443Y-119654773D01*
X148260834Y-119660437D01*
X148237779Y-119663856D01*
X148214500Y-119665000D01*
X147639500Y-119665000D01*
X147616221Y-119663856D01*
X147593166Y-119660437D01*
X147570557Y-119654773D01*
X147548613Y-119646921D01*
X147527543Y-119636956D01*
X147507552Y-119624974D01*
X147488832Y-119611090D01*
X147471562Y-119595438D01*
X147455910Y-119578168D01*
X147442026Y-119559448D01*
X147430044Y-119539457D01*
X147420079Y-119518387D01*
X147412227Y-119496443D01*
X147406563Y-119473834D01*
X147403144Y-119450779D01*
X147402000Y-119427500D01*
X147402000Y-118952500D01*
X147403144Y-118929221D01*
X147406563Y-118906166D01*
X147412227Y-118883557D01*
X147420079Y-118861613D01*
X147430044Y-118840543D01*
X147442026Y-118820552D01*
X147455910Y-118801832D01*
X147471562Y-118784562D01*
X147488832Y-118768910D01*
X147507552Y-118755026D01*
X147527543Y-118743044D01*
X147548613Y-118733079D01*
X147570557Y-118725227D01*
X147593166Y-118719563D01*
X147616221Y-118716144D01*
X147639500Y-118715000D01*
X148214500Y-118715000D01*
X148237779Y-118716144D01*
X148237779Y-118716144D01*
G37*
D15*
X147927000Y-119190000D03*
D14*
G36*
X146487779Y-118716144D02*
G01*
X146510834Y-118719563D01*
X146533443Y-118725227D01*
X146555387Y-118733079D01*
X146576457Y-118743044D01*
X146596448Y-118755026D01*
X146615168Y-118768910D01*
X146632438Y-118784562D01*
X146648090Y-118801832D01*
X146661974Y-118820552D01*
X146673956Y-118840543D01*
X146683921Y-118861613D01*
X146691773Y-118883557D01*
X146697437Y-118906166D01*
X146700856Y-118929221D01*
X146702000Y-118952500D01*
X146702000Y-119427500D01*
X146700856Y-119450779D01*
X146697437Y-119473834D01*
X146691773Y-119496443D01*
X146683921Y-119518387D01*
X146673956Y-119539457D01*
X146661974Y-119559448D01*
X146648090Y-119578168D01*
X146632438Y-119595438D01*
X146615168Y-119611090D01*
X146596448Y-119624974D01*
X146576457Y-119636956D01*
X146555387Y-119646921D01*
X146533443Y-119654773D01*
X146510834Y-119660437D01*
X146487779Y-119663856D01*
X146464500Y-119665000D01*
X145889500Y-119665000D01*
X145866221Y-119663856D01*
X145843166Y-119660437D01*
X145820557Y-119654773D01*
X145798613Y-119646921D01*
X145777543Y-119636956D01*
X145757552Y-119624974D01*
X145738832Y-119611090D01*
X145721562Y-119595438D01*
X145705910Y-119578168D01*
X145692026Y-119559448D01*
X145680044Y-119539457D01*
X145670079Y-119518387D01*
X145662227Y-119496443D01*
X145656563Y-119473834D01*
X145653144Y-119450779D01*
X145652000Y-119427500D01*
X145652000Y-118952500D01*
X145653144Y-118929221D01*
X145656563Y-118906166D01*
X145662227Y-118883557D01*
X145670079Y-118861613D01*
X145680044Y-118840543D01*
X145692026Y-118820552D01*
X145705910Y-118801832D01*
X145721562Y-118784562D01*
X145738832Y-118768910D01*
X145757552Y-118755026D01*
X145777543Y-118743044D01*
X145798613Y-118733079D01*
X145820557Y-118725227D01*
X145843166Y-118719563D01*
X145866221Y-118716144D01*
X145889500Y-118715000D01*
X146464500Y-118715000D01*
X146487779Y-118716144D01*
X146487779Y-118716144D01*
G37*
D15*
X146177000Y-119190000D03*
D20*
X158228700Y-119925000D02*
X158913900Y-119239800D01*
X158913900Y-119239800D02*
X158913900Y-115081000D01*
X158913900Y-115081000D02*
X157734000Y-113901100D01*
X152033000Y-119253000D02*
X152834700Y-118451300D01*
X152834700Y-118451300D02*
X155801100Y-118451300D01*
X155801100Y-118451300D02*
X157274800Y-119925000D01*
X157274800Y-119925000D02*
X158228700Y-119925000D01*
X158228700Y-119925000D02*
X158987700Y-120684000D01*
X158987700Y-120684000D02*
X158987700Y-121700300D01*
X158987700Y-121700300D02*
X154196000Y-126492000D01*
X154196000Y-126492000D02*
X152525000Y-126492000D01*
X142286600Y-125222000D02*
X141318600Y-124254000D01*
X141318600Y-124254000D02*
X141318600Y-123273200D01*
X141318600Y-123273200D02*
X142099800Y-122492000D01*
X142099800Y-122492000D02*
X142982700Y-122492000D01*
X142982700Y-122492000D02*
X144597400Y-120877300D01*
X144597400Y-120877300D02*
X144597400Y-119400100D01*
X144597400Y-119400100D02*
X145640800Y-118356700D01*
X147575000Y-125222000D02*
X142286600Y-125222000D01*
X142286600Y-125222000D02*
X142286600Y-134478400D01*
X142286600Y-134478400D02*
X140431000Y-136334000D01*
X145640800Y-118356700D02*
X147093700Y-118356700D01*
X147093700Y-118356700D02*
X147927000Y-119190000D01*
X134938000Y-118397000D02*
X138402200Y-114932800D01*
X138402200Y-114932800D02*
X143021000Y-114932800D01*
X143021000Y-114932800D02*
X145640800Y-117552600D01*
X145640800Y-117552600D02*
X145640800Y-118356700D01*
X157734000Y-113901100D02*
X153215900Y-113901100D01*
X153215900Y-113901100D02*
X147927000Y-119190000D01*
X157734000Y-113602000D02*
X157734000Y-113901100D01*
X152525000Y-122682000D02*
X150547900Y-122682000D01*
X150547900Y-122682000D02*
X148642900Y-124587000D01*
X148642900Y-124587000D02*
X143319000Y-124587000D01*
X143319000Y-124587000D02*
X142494000Y-123762000D01*
X153783000Y-119253000D02*
X153783000Y-121424000D01*
X153783000Y-121424000D02*
X152525000Y-122682000D01*
X146989800Y-120002800D02*
X146177000Y-119190000D01*
X157734000Y-116142000D02*
X152964700Y-116142000D01*
X152964700Y-116142000D02*
X149103900Y-120002800D01*
X149103900Y-120002800D02*
X146989800Y-120002800D01*
X147575000Y-123952000D02*
X147195800Y-123952000D01*
X147195800Y-123952000D02*
X146232200Y-122988400D01*
X146232200Y-122988400D02*
X146232200Y-120760400D01*
X146232200Y-120760400D02*
X146989800Y-120002800D01*
X134938000Y-122397000D02*
X136239000Y-122397000D01*
X136239000Y-122397000D02*
X142494000Y-116142000D01*
X134938000Y-124397000D02*
X136779000Y-124397000D01*
X136779000Y-124397000D02*
X142494000Y-118682000D01*
X157734000Y-118682000D02*
X157043900Y-117991900D01*
X157043900Y-117991900D02*
X151969700Y-117991900D01*
X151969700Y-117991900D02*
X147575000Y-122386600D01*
X147575000Y-122386600D02*
X147575000Y-122682000D01*
X147575000Y-126492000D02*
X147952300Y-126492000D01*
X147952300Y-126492000D02*
X149012300Y-125432000D01*
X149012300Y-125432000D02*
X149012300Y-125321300D01*
X149012300Y-125321300D02*
X151016600Y-123317000D01*
X151016600Y-123317000D02*
X155639000Y-123317000D01*
X155639000Y-123317000D02*
X157734000Y-121222000D01*
D21*
X155385000Y-136334000D02*
X156160000Y-135559000D01*
X156160000Y-135559000D02*
X156160000Y-134380000D01*
X156160000Y-134380000D02*
X155672000Y-133892000D01*
X155672000Y-133892000D02*
X150461000Y-133892000D01*
X150461000Y-133892000D02*
X149640000Y-134713000D01*
X149640000Y-134713000D02*
X149640000Y-137021000D01*
X149640000Y-137021000D02*
X147435000Y-139226000D01*
X147435000Y-139226000D02*
X145324000Y-139226000D01*
X145324000Y-139226000D02*
X144113000Y-138016000D01*
X144113000Y-138016000D02*
X142431000Y-136334000D01*
X152525000Y-123952000D02*
X152115000Y-124362000D01*
X152115000Y-124362000D02*
X150656000Y-124362000D01*
X150656000Y-124362000D02*
X149698000Y-125319000D01*
X149698000Y-125319000D02*
X149698000Y-128431000D01*
X149698000Y-128431000D02*
X143206000Y-134923000D01*
X143206000Y-134923000D02*
X143206000Y-135559000D01*
X143206000Y-135559000D02*
X142431000Y-136334000D01*
X157833000Y-138782000D02*
X161065700Y-138782000D01*
X155385000Y-136334000D02*
X157833000Y-138782000D01*
X161065700Y-138782000D02*
X162975500Y-136872200D01*
D20*
X162975500Y-127947419D02*
X162975500Y-128426000D01*
X165167919Y-125755000D02*
X162975500Y-127947419D01*
X166370000Y-125755000D02*
X165167919Y-125755000D01*
D21*
X162975500Y-136872200D02*
X162975500Y-128426000D01*
X157385000Y-136334000D02*
X156610000Y-135559000D01*
X156610000Y-135559000D02*
X156610000Y-134194000D01*
X156610000Y-134194000D02*
X155859000Y-133442000D01*
X155859000Y-133442000D02*
X150275000Y-133442000D01*
X150275000Y-133442000D02*
X149190000Y-134527000D01*
X149190000Y-134527000D02*
X149190000Y-136834000D01*
X149190000Y-136834000D02*
X147248000Y-138776000D01*
X147248000Y-138776000D02*
X145510000Y-138776000D01*
X145510000Y-138776000D02*
X144431000Y-137698000D01*
X144431000Y-137698000D02*
X144431000Y-136334000D01*
X152525000Y-125222000D02*
X152115000Y-124812000D01*
X152115000Y-124812000D02*
X150842000Y-124812000D01*
X150842000Y-124812000D02*
X150148000Y-125506000D01*
X150148000Y-125506000D02*
X150148000Y-128617000D01*
X150148000Y-128617000D02*
X143656000Y-135110000D01*
X143656000Y-135110000D02*
X143656000Y-135559000D01*
X143656000Y-135559000D02*
X144431000Y-136334000D01*
X157385000Y-136334000D02*
X157385000Y-137697603D01*
X157385000Y-137697603D02*
X158019397Y-138332000D01*
X158019397Y-138332000D02*
X160879300Y-138332000D01*
X160879300Y-138332000D02*
X162525500Y-136685800D01*
X162525500Y-136685800D02*
X162525500Y-126746000D01*
D20*
X162525500Y-125876000D02*
X162525500Y-126746000D01*
X162496500Y-125847000D02*
X162525500Y-125876000D01*
X162496500Y-125222000D02*
X162496500Y-125847000D01*
X162753500Y-123215000D02*
X162496500Y-123472000D01*
X166370000Y-123215000D02*
X162753500Y-123215000D01*
D22*
G36*
X164963227Y-109973512D02*
G01*
X164548032Y-110250937D01*
X164194937Y-110604032D01*
X163917512Y-111019227D01*
X163726418Y-111480568D01*
X163629000Y-111970324D01*
X163629000Y-112469676D01*
X163726418Y-112959432D01*
X163917512Y-113420773D01*
X164194937Y-113835968D01*
X164548032Y-114189063D01*
X164963227Y-114466488D01*
X165424568Y-114657582D01*
X165914324Y-114755000D01*
X166413676Y-114755000D01*
X166903432Y-114657582D01*
X167364773Y-114466488D01*
X167779968Y-114189063D01*
X168133063Y-113835968D01*
X168410488Y-113420773D01*
X168504001Y-113195013D01*
X168504000Y-135724985D01*
X168410488Y-135499227D01*
X168133063Y-135084032D01*
X167779968Y-134730937D01*
X167364773Y-134453512D01*
X166903432Y-134262418D01*
X166413676Y-134165000D01*
X165914324Y-134165000D01*
X165424568Y-134262418D01*
X164963227Y-134453512D01*
X164548032Y-134730937D01*
X164194937Y-135084032D01*
X163917512Y-135499227D01*
X163726418Y-135960568D01*
X163710500Y-136040594D01*
X163710500Y-128621149D01*
X163724503Y-128574986D01*
X163735500Y-128463332D01*
X163735500Y-128262220D01*
X165257494Y-126740226D01*
X165314866Y-126810134D01*
X165540986Y-126995706D01*
X165798966Y-127133599D01*
X166078889Y-127218513D01*
X166297050Y-127240000D01*
X166442950Y-127240000D01*
X166661111Y-127218513D01*
X166941034Y-127133599D01*
X167199014Y-126995706D01*
X167425134Y-126810134D01*
X167610706Y-126584014D01*
X167748599Y-126326034D01*
X167833513Y-126046111D01*
X167862185Y-125755000D01*
X167833513Y-125463889D01*
X167748599Y-125183966D01*
X167610706Y-124925986D01*
X167425134Y-124699866D01*
X167395313Y-124675393D01*
X167464180Y-124654502D01*
X167574494Y-124595537D01*
X167671185Y-124516185D01*
X167750537Y-124419494D01*
X167809502Y-124309180D01*
X167845812Y-124189482D01*
X167858072Y-124065000D01*
X167858072Y-122365000D01*
X167845812Y-122240518D01*
X167809502Y-122120820D01*
X167750537Y-122010506D01*
X167671185Y-121913815D01*
X167574494Y-121834463D01*
X167464180Y-121775498D01*
X167344482Y-121739188D01*
X167220000Y-121726928D01*
X165520000Y-121726928D01*
X165395518Y-121739188D01*
X165275820Y-121775498D01*
X165165506Y-121834463D01*
X165068815Y-121913815D01*
X164989463Y-122010506D01*
X164930498Y-122120820D01*
X164894188Y-122240518D01*
X164881928Y-122365000D01*
X164881928Y-122455000D01*
X163217658Y-122455000D01*
X163069067Y-122375577D01*
X162904816Y-122325752D01*
X162734000Y-122308928D01*
X162259000Y-122308928D01*
X162088184Y-122325752D01*
X161923933Y-122375577D01*
X161772558Y-122456488D01*
X161639877Y-122565377D01*
X161530988Y-122698058D01*
X161450077Y-122849433D01*
X161400252Y-123013684D01*
X161383428Y-123184500D01*
X161383428Y-123759500D01*
X161400252Y-123930316D01*
X161450077Y-124094567D01*
X161530988Y-124245942D01*
X161613925Y-124347000D01*
X161530988Y-124448058D01*
X161450077Y-124599433D01*
X161400252Y-124763684D01*
X161383428Y-124934500D01*
X161383428Y-125509500D01*
X161400252Y-125680316D01*
X161450077Y-125844567D01*
X161530988Y-125995942D01*
X161639877Y-126128623D01*
X161765500Y-126231720D01*
X161765500Y-126783333D01*
X161776498Y-126894986D01*
X161790501Y-126941148D01*
X161790500Y-136381353D01*
X160574854Y-137597000D01*
X160201717Y-137597000D01*
X160279180Y-137573502D01*
X160389494Y-137514537D01*
X160486185Y-137435185D01*
X160565537Y-137338494D01*
X160624502Y-137228180D01*
X160660812Y-137108482D01*
X160673072Y-136984000D01*
X160673072Y-135684000D01*
X160660812Y-135559518D01*
X160624502Y-135439820D01*
X160565537Y-135329506D01*
X160486185Y-135232815D01*
X160389494Y-135153463D01*
X160279180Y-135094498D01*
X160159482Y-135058188D01*
X160035000Y-135045928D01*
X158735000Y-135045928D01*
X158610518Y-135058188D01*
X158490820Y-135094498D01*
X158380506Y-135153463D01*
X158283815Y-135232815D01*
X158204463Y-135329506D01*
X158201870Y-135334358D01*
X157993676Y-135195247D01*
X157759821Y-135098381D01*
X157511561Y-135049000D01*
X157345000Y-135049000D01*
X157345000Y-134230351D01*
X157348556Y-134194491D01*
X157345000Y-134158138D01*
X157345000Y-134157895D01*
X157341521Y-134122571D01*
X157334461Y-134050397D01*
X157334389Y-134050159D01*
X157334365Y-134049915D01*
X157313360Y-133980672D01*
X157292524Y-133911820D01*
X157292409Y-133911605D01*
X157292337Y-133911367D01*
X157258062Y-133847243D01*
X157224359Y-133784088D01*
X157224204Y-133783899D01*
X157224087Y-133783680D01*
X157178258Y-133727838D01*
X157155582Y-133700169D01*
X157155409Y-133699995D01*
X157132238Y-133671762D01*
X157104383Y-133648902D01*
X156404413Y-132948000D01*
X156381238Y-132919762D01*
X156324604Y-132873284D01*
X156269728Y-132828187D01*
X156269515Y-132828073D01*
X156269320Y-132827913D01*
X156204596Y-132793317D01*
X156142087Y-132759852D01*
X156141854Y-132759781D01*
X156141633Y-132759663D01*
X156071888Y-132738506D01*
X156003566Y-132717731D01*
X156003322Y-132717707D01*
X156003085Y-132717635D01*
X155930579Y-132710494D01*
X155859491Y-132703445D01*
X155823148Y-132707000D01*
X150311105Y-132707000D01*
X150275000Y-132703444D01*
X150130915Y-132717635D01*
X149992366Y-132759663D01*
X149865189Y-132827641D01*
X149864680Y-132827913D01*
X149752762Y-132919762D01*
X149729746Y-132947807D01*
X148695808Y-133981746D01*
X148667762Y-134004763D01*
X148575913Y-134116681D01*
X148507663Y-134244368D01*
X148489974Y-134302681D01*
X148465635Y-134382915D01*
X148451444Y-134527000D01*
X148455000Y-134563105D01*
X148455001Y-136529552D01*
X146943554Y-138041000D01*
X145814247Y-138041000D01*
X145166000Y-137393354D01*
X145166000Y-137388346D01*
X145247870Y-137333642D01*
X145250463Y-137338494D01*
X145329815Y-137435185D01*
X145426506Y-137514537D01*
X145536820Y-137573502D01*
X145656518Y-137609812D01*
X145781000Y-137622072D01*
X147081000Y-137622072D01*
X147205482Y-137609812D01*
X147325180Y-137573502D01*
X147435494Y-137514537D01*
X147532185Y-137435185D01*
X147611537Y-137338494D01*
X147670502Y-137228180D01*
X147706812Y-137108482D01*
X147719072Y-136984000D01*
X147719072Y-135684000D01*
X147706812Y-135559518D01*
X147670502Y-135439820D01*
X147611537Y-135329506D01*
X147532185Y-135232815D01*
X147435494Y-135153463D01*
X147325180Y-135094498D01*
X147205482Y-135058188D01*
X147081000Y-135045928D01*
X145781000Y-135045928D01*
X145656518Y-135058188D01*
X145536820Y-135094498D01*
X145426506Y-135153463D01*
X145329815Y-135232815D01*
X145250463Y-135329506D01*
X145247870Y-135334358D01*
X145039676Y-135195247D01*
X144805821Y-135098381D01*
X144723379Y-135081983D01*
X150642215Y-129162236D01*
X150670238Y-129139238D01*
X150693272Y-129111171D01*
X150693291Y-129111152D01*
X150714390Y-129085438D01*
X150762087Y-129027320D01*
X150762101Y-129027294D01*
X150762118Y-129027273D01*
X150793770Y-128968044D01*
X150830337Y-128899633D01*
X150830346Y-128899604D01*
X150830358Y-128899581D01*
X150849941Y-128835009D01*
X150872365Y-128761085D01*
X150872368Y-128761056D01*
X150872376Y-128761029D01*
X150879385Y-128689814D01*
X150883000Y-128653105D01*
X150883000Y-128653076D01*
X150886556Y-128616943D01*
X150883000Y-128580866D01*
X150883000Y-126792000D01*
X150911928Y-126792000D01*
X150924188Y-126916482D01*
X150960498Y-127036180D01*
X151019463Y-127146494D01*
X151098815Y-127243185D01*
X151195506Y-127322537D01*
X151305820Y-127381502D01*
X151425518Y-127417812D01*
X151550000Y-127430072D01*
X152239250Y-127427000D01*
X152398000Y-127268250D01*
X152398000Y-126619000D01*
X152652000Y-126619000D01*
X152652000Y-127268250D01*
X152810750Y-127427000D01*
X153500000Y-127430072D01*
X153624482Y-127417812D01*
X153744180Y-127381502D01*
X153854494Y-127322537D01*
X153951185Y-127243185D01*
X154030537Y-127146494D01*
X154089502Y-127036180D01*
X154125812Y-126916482D01*
X154138072Y-126792000D01*
X154135000Y-126777750D01*
X153976250Y-126619000D01*
X152652000Y-126619000D01*
X152398000Y-126619000D01*
X151073750Y-126619000D01*
X150915000Y-126777750D01*
X150911928Y-126792000D01*
X150883000Y-126792000D01*
X150883000Y-125810446D01*
X150988618Y-125704829D01*
X151043730Y-125807936D01*
X151019463Y-125837506D01*
X150960498Y-125947820D01*
X150924188Y-126067518D01*
X150911928Y-126192000D01*
X150915000Y-126206250D01*
X151073750Y-126365000D01*
X152398000Y-126365000D01*
X152398000Y-126345000D01*
X152652000Y-126345000D01*
X152652000Y-126365000D01*
X153976250Y-126365000D01*
X154135000Y-126206250D01*
X154138072Y-126192000D01*
X154125812Y-126067518D01*
X154089502Y-125947820D01*
X154030537Y-125837506D01*
X154006270Y-125807936D01*
X154078084Y-125673582D01*
X154122929Y-125525745D01*
X154138072Y-125372000D01*
X154138072Y-125072000D01*
X154122929Y-124918255D01*
X154078084Y-124770418D01*
X154005258Y-124634171D01*
X153966546Y-124587000D01*
X154005258Y-124539829D01*
X154078084Y-124403582D01*
X154122929Y-124255745D01*
X154138072Y-124102000D01*
X154138072Y-124077000D01*
X155601678Y-124077000D01*
X155639000Y-124080676D01*
X155676322Y-124077000D01*
X155676333Y-124077000D01*
X155787986Y-124066003D01*
X155931247Y-124022546D01*
X156063276Y-123951974D01*
X156179001Y-123857001D01*
X156202804Y-123827998D01*
X157335191Y-122695611D01*
X157583988Y-122745100D01*
X157884012Y-122745100D01*
X158178272Y-122686568D01*
X158455459Y-122571754D01*
X158704920Y-122405069D01*
X158917069Y-122192920D01*
X159083754Y-121943459D01*
X159198568Y-121666272D01*
X159257100Y-121372012D01*
X159257100Y-121071988D01*
X159198568Y-120777728D01*
X159083754Y-120500541D01*
X158917069Y-120251080D01*
X158704920Y-120038931D01*
X158540529Y-119929088D01*
X158680632Y-119835475D01*
X158887475Y-119628632D01*
X159049990Y-119385411D01*
X159161932Y-119115158D01*
X159219000Y-118828260D01*
X159219000Y-118535740D01*
X159161932Y-118248842D01*
X159049990Y-117978589D01*
X158887475Y-117735368D01*
X158680632Y-117528525D01*
X158506240Y-117412000D01*
X158680632Y-117295475D01*
X158887475Y-117088632D01*
X159049990Y-116845411D01*
X159161932Y-116575158D01*
X159219000Y-116288260D01*
X159219000Y-115995740D01*
X159161932Y-115708842D01*
X159049990Y-115438589D01*
X158887475Y-115195368D01*
X158680632Y-114988525D01*
X158507271Y-114872689D01*
X158582792Y-114630397D01*
X157734000Y-113781605D01*
X156885208Y-114630397D01*
X156960729Y-114872689D01*
X156787368Y-114988525D01*
X156580525Y-115195368D01*
X156455822Y-115382000D01*
X153002025Y-115382000D01*
X152964700Y-115378324D01*
X152927375Y-115382000D01*
X152927367Y-115382000D01*
X152815714Y-115392997D01*
X152672453Y-115436454D01*
X152540424Y-115507026D01*
X152424699Y-115601999D01*
X152400901Y-115630997D01*
X148968901Y-119062998D01*
X148928252Y-119062998D01*
X149087000Y-118904250D01*
X149090072Y-118715000D01*
X149077812Y-118590518D01*
X149041502Y-118470820D01*
X148982537Y-118360506D01*
X148903185Y-118263815D01*
X148806494Y-118184463D01*
X148696180Y-118125498D01*
X148576482Y-118089188D01*
X148452000Y-118076928D01*
X148212750Y-118080000D01*
X148054000Y-118238750D01*
X148054000Y-119063000D01*
X148074000Y-119063000D01*
X148074000Y-119242800D01*
X147780000Y-119242800D01*
X147780000Y-119063000D01*
X147800000Y-119063000D01*
X147800000Y-118238750D01*
X147641250Y-118080000D01*
X147402000Y-118076928D01*
X147277518Y-118089188D01*
X147157820Y-118125498D01*
X147047506Y-118184463D01*
X146974839Y-118244099D01*
X146950942Y-118224488D01*
X146799567Y-118143577D01*
X146635316Y-118093752D01*
X146464500Y-118076928D01*
X145889500Y-118076928D01*
X145718684Y-118093752D01*
X145554433Y-118143577D01*
X145403058Y-118224488D01*
X145270377Y-118333377D01*
X145161488Y-118466058D01*
X145080577Y-118617433D01*
X145030752Y-118781684D01*
X145013928Y-118952500D01*
X145013928Y-119427500D01*
X145030752Y-119598316D01*
X145080577Y-119762567D01*
X145161488Y-119913942D01*
X145270377Y-120046623D01*
X145403058Y-120155512D01*
X145554433Y-120236423D01*
X145654210Y-120266690D01*
X145597226Y-120336124D01*
X145526654Y-120468154D01*
X145483198Y-120611415D01*
X145468524Y-120760400D01*
X145472201Y-120797732D01*
X145472200Y-122951077D01*
X145468524Y-122988400D01*
X145472200Y-123025722D01*
X145472200Y-123025732D01*
X145483197Y-123137385D01*
X145523322Y-123269663D01*
X145526654Y-123280646D01*
X145597226Y-123412676D01*
X145612266Y-123431002D01*
X145692199Y-123528401D01*
X145721202Y-123552204D01*
X145962741Y-123793743D01*
X145961928Y-123802000D01*
X145961928Y-123827000D01*
X143979000Y-123827000D01*
X143979000Y-123615740D01*
X143921932Y-123328842D01*
X143809990Y-123058589D01*
X143647475Y-122815368D01*
X143440632Y-122608525D01*
X143266240Y-122492000D01*
X143440632Y-122375475D01*
X143647475Y-122168632D01*
X143809990Y-121925411D01*
X143921932Y-121655158D01*
X143979000Y-121368260D01*
X143979000Y-121075740D01*
X143921932Y-120788842D01*
X143809990Y-120518589D01*
X143647475Y-120275368D01*
X143440632Y-120068525D01*
X143266240Y-119952000D01*
X143440632Y-119835475D01*
X143647475Y-119628632D01*
X143809990Y-119385411D01*
X143921932Y-119115158D01*
X143979000Y-118828260D01*
X143979000Y-118535740D01*
X143921932Y-118248842D01*
X143809990Y-117978589D01*
X143647475Y-117735368D01*
X143440632Y-117528525D01*
X143266240Y-117412000D01*
X143440632Y-117295475D01*
X143647475Y-117088632D01*
X143809990Y-116845411D01*
X143921932Y-116575158D01*
X143979000Y-116288260D01*
X143979000Y-115995740D01*
X143921932Y-115708842D01*
X143809990Y-115438589D01*
X143647475Y-115195368D01*
X143440632Y-114988525D01*
X143266240Y-114872000D01*
X143440632Y-114755475D01*
X143647475Y-114548632D01*
X143809990Y-114305411D01*
X143921932Y-114035158D01*
X143979000Y-113748260D01*
X143979000Y-113670531D01*
X156243389Y-113670531D01*
X156285401Y-113960019D01*
X156383081Y-114235747D01*
X156456528Y-114373157D01*
X156705603Y-114450792D01*
X157554395Y-113602000D01*
X157913605Y-113602000D01*
X158762397Y-114450792D01*
X159011472Y-114373157D01*
X159137371Y-114109117D01*
X159209339Y-113825589D01*
X159224611Y-113533469D01*
X159182599Y-113243981D01*
X159084919Y-112968253D01*
X159011472Y-112830843D01*
X158762397Y-112753208D01*
X157913605Y-113602000D01*
X157554395Y-113602000D01*
X156705603Y-112753208D01*
X156456528Y-112830843D01*
X156330629Y-113094883D01*
X156258661Y-113378411D01*
X156243389Y-113670531D01*
X143979000Y-113670531D01*
X143979000Y-113455740D01*
X143921932Y-113168842D01*
X143809990Y-112898589D01*
X143647475Y-112655368D01*
X143565710Y-112573603D01*
X156885208Y-112573603D01*
X157734000Y-113422395D01*
X158582792Y-112573603D01*
X158505157Y-112324528D01*
X158241117Y-112198629D01*
X157957589Y-112126661D01*
X157665469Y-112111389D01*
X157375981Y-112153401D01*
X157100253Y-112251081D01*
X156962843Y-112324528D01*
X156885208Y-112573603D01*
X143565710Y-112573603D01*
X143440632Y-112448525D01*
X143197411Y-112286010D01*
X142927158Y-112174068D01*
X142640260Y-112117000D01*
X142347740Y-112117000D01*
X142060842Y-112174068D01*
X141790589Y-112286010D01*
X141547368Y-112448525D01*
X141340525Y-112655368D01*
X141178010Y-112898589D01*
X141066068Y-113168842D01*
X141009000Y-113455740D01*
X141009000Y-113748260D01*
X141066068Y-114035158D01*
X141178010Y-114305411D01*
X141340525Y-114548632D01*
X141547368Y-114755475D01*
X141721760Y-114872000D01*
X141547368Y-114988525D01*
X141340525Y-115195368D01*
X141178010Y-115438589D01*
X141066068Y-115708842D01*
X141009000Y-115995740D01*
X141009000Y-116288260D01*
X141052790Y-116508408D01*
X135955036Y-121606163D01*
X135936125Y-121577860D01*
X135757140Y-121398875D01*
X135754334Y-121397000D01*
X135757140Y-121395125D01*
X135936125Y-121216140D01*
X136076753Y-121005676D01*
X136173619Y-120771821D01*
X136223000Y-120523561D01*
X136223000Y-120270439D01*
X136173619Y-120022179D01*
X136076753Y-119788324D01*
X135936125Y-119577860D01*
X135757140Y-119398875D01*
X135635703Y-119317733D01*
X135643922Y-119282527D01*
X134938000Y-118576605D01*
X134232078Y-119282527D01*
X134240297Y-119317733D01*
X134118860Y-119398875D01*
X133939875Y-119577860D01*
X133799247Y-119788324D01*
X133702381Y-120022179D01*
X133653000Y-120270439D01*
X133653000Y-120523561D01*
X133702381Y-120771821D01*
X133799247Y-121005676D01*
X133939875Y-121216140D01*
X134118860Y-121395125D01*
X134121666Y-121397000D01*
X134118860Y-121398875D01*
X133939875Y-121577860D01*
X133799247Y-121788324D01*
X133702381Y-122022179D01*
X133653000Y-122270439D01*
X133653000Y-122523561D01*
X133702381Y-122771821D01*
X133799247Y-123005676D01*
X133939875Y-123216140D01*
X134118860Y-123395125D01*
X134121666Y-123397000D01*
X134118860Y-123398875D01*
X133939875Y-123577860D01*
X133799247Y-123788324D01*
X133702381Y-124022179D01*
X133653000Y-124270439D01*
X133653000Y-124523561D01*
X133702381Y-124771821D01*
X133799247Y-125005676D01*
X133939875Y-125216140D01*
X134118860Y-125395125D01*
X134121666Y-125397000D01*
X134118860Y-125398875D01*
X133939875Y-125577860D01*
X133799247Y-125788324D01*
X133702381Y-126022179D01*
X133653000Y-126270439D01*
X133653000Y-126523561D01*
X133702381Y-126771821D01*
X133799247Y-127005676D01*
X133939875Y-127216140D01*
X134118860Y-127395125D01*
X134121666Y-127397000D01*
X134118860Y-127398875D01*
X133939875Y-127577860D01*
X133799247Y-127788324D01*
X133702381Y-128022179D01*
X133653000Y-128270439D01*
X133653000Y-128523561D01*
X133702381Y-128771821D01*
X133799247Y-129005676D01*
X133939875Y-129216140D01*
X134118860Y-129395125D01*
X134329324Y-129535753D01*
X134563179Y-129632619D01*
X134811439Y-129682000D01*
X135064561Y-129682000D01*
X135312821Y-129632619D01*
X135546676Y-129535753D01*
X135757140Y-129395125D01*
X135936125Y-129216140D01*
X136076753Y-129005676D01*
X136173619Y-128771821D01*
X136223000Y-128523561D01*
X136223000Y-128270439D01*
X136173619Y-128022179D01*
X136076753Y-127788324D01*
X135936125Y-127577860D01*
X135757140Y-127398875D01*
X135754334Y-127397000D01*
X135757140Y-127395125D01*
X135936125Y-127216140D01*
X136076753Y-127005676D01*
X136173619Y-126771821D01*
X136223000Y-126523561D01*
X136223000Y-126270439D01*
X136173619Y-126022179D01*
X136076753Y-125788324D01*
X135936125Y-125577860D01*
X135757140Y-125398875D01*
X135754334Y-125397000D01*
X135757140Y-125395125D01*
X135936125Y-125216140D01*
X135975641Y-125157000D01*
X136741678Y-125157000D01*
X136779000Y-125160676D01*
X136816322Y-125157000D01*
X136816333Y-125157000D01*
X136927986Y-125146003D01*
X137071247Y-125102546D01*
X137203276Y-125031974D01*
X137319001Y-124937001D01*
X137342804Y-124907997D01*
X141009000Y-121241802D01*
X141009000Y-121368260D01*
X141066068Y-121655158D01*
X141178010Y-121925411D01*
X141340525Y-122168632D01*
X141547368Y-122375475D01*
X141721760Y-122492000D01*
X141547368Y-122608525D01*
X141340525Y-122815368D01*
X141178010Y-123058589D01*
X141066068Y-123328842D01*
X141009000Y-123615740D01*
X141009000Y-123908260D01*
X141066068Y-124195158D01*
X141178010Y-124465411D01*
X141340525Y-124708632D01*
X141547368Y-124915475D01*
X141790589Y-125077990D01*
X142060842Y-125189932D01*
X142347740Y-125247000D01*
X142640260Y-125247000D01*
X142869625Y-125201376D01*
X142894724Y-125221974D01*
X143026753Y-125292546D01*
X143170014Y-125336003D01*
X143281667Y-125347000D01*
X143281676Y-125347000D01*
X143318999Y-125350676D01*
X143356322Y-125347000D01*
X145965000Y-125347000D01*
X145965000Y-125349002D01*
X146123748Y-125349002D01*
X145965000Y-125507750D01*
X145961928Y-125522000D01*
X145974188Y-125646482D01*
X146010498Y-125766180D01*
X146069463Y-125876494D01*
X146093730Y-125906064D01*
X146021916Y-126040418D01*
X145977071Y-126188255D01*
X145961928Y-126342000D01*
X145961928Y-126642000D01*
X145977071Y-126795745D01*
X146021916Y-126943582D01*
X146094742Y-127079829D01*
X146192749Y-127199251D01*
X146312171Y-127297258D01*
X146448418Y-127370084D01*
X146596255Y-127414929D01*
X146750000Y-127430072D01*
X148400000Y-127430072D01*
X148553745Y-127414929D01*
X148701582Y-127370084D01*
X148837829Y-127297258D01*
X148957251Y-127199251D01*
X148963001Y-127192245D01*
X148963001Y-128126552D01*
X142711808Y-134377746D01*
X142683762Y-134400763D01*
X142591913Y-134512681D01*
X142523663Y-134640368D01*
X142500543Y-134716585D01*
X142481635Y-134778915D01*
X142467444Y-134923000D01*
X142471000Y-134959105D01*
X142471000Y-135049000D01*
X142304439Y-135049000D01*
X142056179Y-135098381D01*
X141822324Y-135195247D01*
X141611860Y-135335875D01*
X141432875Y-135514860D01*
X141351733Y-135636297D01*
X141316527Y-135628078D01*
X140610605Y-136334000D01*
X141316527Y-137039922D01*
X141351733Y-137031703D01*
X141432875Y-137153140D01*
X141611860Y-137332125D01*
X141822324Y-137472753D01*
X142056179Y-137569619D01*
X142304439Y-137619000D01*
X142557561Y-137619000D01*
X142656812Y-137599258D01*
X143567859Y-138510306D01*
X143567951Y-138510418D01*
X143592194Y-138534641D01*
X143618806Y-138561253D01*
X143618929Y-138561354D01*
X144097970Y-139040000D01*
X135039018Y-139039999D01*
X135264773Y-138946488D01*
X135679968Y-138669063D01*
X136033063Y-138315968D01*
X136310488Y-137900773D01*
X136501582Y-137439432D01*
X136545323Y-137219527D01*
X139725078Y-137219527D01*
X139778466Y-137448201D01*
X140008374Y-137554095D01*
X140254524Y-137613102D01*
X140507455Y-137622952D01*
X140757449Y-137583270D01*
X140994896Y-137495578D01*
X141083534Y-137448201D01*
X141136922Y-137219527D01*
X140431000Y-136513605D01*
X139725078Y-137219527D01*
X136545323Y-137219527D01*
X136599000Y-136949676D01*
X136599000Y-136450324D01*
X136591070Y-136410455D01*
X139142048Y-136410455D01*
X139181730Y-136660449D01*
X139269422Y-136897896D01*
X139316799Y-136986534D01*
X139545473Y-137039922D01*
X140251395Y-136334000D01*
X139545473Y-135628078D01*
X139316799Y-135681466D01*
X139210905Y-135911374D01*
X139151898Y-136157524D01*
X139142048Y-136410455D01*
X136591070Y-136410455D01*
X136501582Y-135960568D01*
X136310488Y-135499227D01*
X136276576Y-135448473D01*
X139725078Y-135448473D01*
X140431000Y-136154395D01*
X141136922Y-135448473D01*
X141083534Y-135219799D01*
X140853626Y-135113905D01*
X140607476Y-135054898D01*
X140354545Y-135045048D01*
X140104551Y-135084730D01*
X139867104Y-135172422D01*
X139778466Y-135219799D01*
X139725078Y-135448473D01*
X136276576Y-135448473D01*
X136033063Y-135084032D01*
X135679968Y-134730937D01*
X135264773Y-134453512D01*
X134803432Y-134262418D01*
X134313676Y-134165000D01*
X133814324Y-134165000D01*
X133324568Y-134262418D01*
X132863227Y-134453512D01*
X132448032Y-134730937D01*
X132094937Y-135084032D01*
X131817512Y-135499227D01*
X131724000Y-135724985D01*
X131724000Y-118473455D01*
X133649048Y-118473455D01*
X133688730Y-118723449D01*
X133776422Y-118960896D01*
X133823799Y-119049534D01*
X134052473Y-119102922D01*
X134758395Y-118397000D01*
X135117605Y-118397000D01*
X135823527Y-119102922D01*
X136052201Y-119049534D01*
X136158095Y-118819626D01*
X136217102Y-118573476D01*
X136226952Y-118320545D01*
X136187270Y-118070551D01*
X136099578Y-117833104D01*
X136052201Y-117744466D01*
X135823527Y-117691078D01*
X135117605Y-118397000D01*
X134758395Y-118397000D01*
X134052473Y-117691078D01*
X133823799Y-117744466D01*
X133717905Y-117974374D01*
X133658898Y-118220524D01*
X133649048Y-118473455D01*
X131724000Y-118473455D01*
X131724000Y-117511473D01*
X134232078Y-117511473D01*
X134938000Y-118217395D01*
X135643922Y-117511473D01*
X135590534Y-117282799D01*
X135360626Y-117176905D01*
X135114476Y-117117898D01*
X134861545Y-117108048D01*
X134611551Y-117147730D01*
X134374104Y-117235422D01*
X134285466Y-117282799D01*
X134232078Y-117511473D01*
X131724000Y-117511473D01*
X131724000Y-113195015D01*
X131817512Y-113420773D01*
X132094937Y-113835968D01*
X132448032Y-114189063D01*
X132863227Y-114466488D01*
X133324568Y-114657582D01*
X133814324Y-114755000D01*
X134313676Y-114755000D01*
X134803432Y-114657582D01*
X135264773Y-114466488D01*
X135679968Y-114189063D01*
X136033063Y-113835968D01*
X136310488Y-113420773D01*
X136501582Y-112959432D01*
X136599000Y-112469676D01*
X136599000Y-111970324D01*
X136501582Y-111480568D01*
X136310488Y-111019227D01*
X136033063Y-110604032D01*
X135679968Y-110250937D01*
X135264773Y-109973512D01*
X135039018Y-109880001D01*
X165188982Y-109880001D01*
X164963227Y-109973512D01*
X164963227Y-109973512D01*
G37*
X164963227Y-109973512D02*
X164548032Y-110250937D01*
X164194937Y-110604032D01*
X163917512Y-111019227D01*
X163726418Y-111480568D01*
X163629000Y-111970324D01*
X163629000Y-112469676D01*
X163726418Y-112959432D01*
X163917512Y-113420773D01*
X164194937Y-113835968D01*
X164548032Y-114189063D01*
X164963227Y-114466488D01*
X165424568Y-114657582D01*
X165914324Y-114755000D01*
X166413676Y-114755000D01*
X166903432Y-114657582D01*
X167364773Y-114466488D01*
X167779968Y-114189063D01*
X168133063Y-113835968D01*
X168410488Y-113420773D01*
X168504001Y-113195013D01*
X168504000Y-135724985D01*
X168410488Y-135499227D01*
X168133063Y-135084032D01*
X167779968Y-134730937D01*
X167364773Y-134453512D01*
X166903432Y-134262418D01*
X166413676Y-134165000D01*
X165914324Y-134165000D01*
X165424568Y-134262418D01*
X164963227Y-134453512D01*
X164548032Y-134730937D01*
X164194937Y-135084032D01*
X163917512Y-135499227D01*
X163726418Y-135960568D01*
X163710500Y-136040594D01*
X163710500Y-128621149D01*
X163724503Y-128574986D01*
X163735500Y-128463332D01*
X163735500Y-128262220D01*
X165257494Y-126740226D01*
X165314866Y-126810134D01*
X165540986Y-126995706D01*
X165798966Y-127133599D01*
X166078889Y-127218513D01*
X166297050Y-127240000D01*
X166442950Y-127240000D01*
X166661111Y-127218513D01*
X166941034Y-127133599D01*
X167199014Y-126995706D01*
X167425134Y-126810134D01*
X167610706Y-126584014D01*
X167748599Y-126326034D01*
X167833513Y-126046111D01*
X167862185Y-125755000D01*
X167833513Y-125463889D01*
X167748599Y-125183966D01*
X167610706Y-124925986D01*
X167425134Y-124699866D01*
X167395313Y-124675393D01*
X167464180Y-124654502D01*
X167574494Y-124595537D01*
X167671185Y-124516185D01*
X167750537Y-124419494D01*
X167809502Y-124309180D01*
X167845812Y-124189482D01*
X167858072Y-124065000D01*
X167858072Y-122365000D01*
X167845812Y-122240518D01*
X167809502Y-122120820D01*
X167750537Y-122010506D01*
X167671185Y-121913815D01*
X167574494Y-121834463D01*
X167464180Y-121775498D01*
X167344482Y-121739188D01*
X167220000Y-121726928D01*
X165520000Y-121726928D01*
X165395518Y-121739188D01*
X165275820Y-121775498D01*
X165165506Y-121834463D01*
X165068815Y-121913815D01*
X164989463Y-122010506D01*
X164930498Y-122120820D01*
X164894188Y-122240518D01*
X164881928Y-122365000D01*
X164881928Y-122455000D01*
X163217658Y-122455000D01*
X163069067Y-122375577D01*
X162904816Y-122325752D01*
X162734000Y-122308928D01*
X162259000Y-122308928D01*
X162088184Y-122325752D01*
X161923933Y-122375577D01*
X161772558Y-122456488D01*
X161639877Y-122565377D01*
X161530988Y-122698058D01*
X161450077Y-122849433D01*
X161400252Y-123013684D01*
X161383428Y-123184500D01*
X161383428Y-123759500D01*
X161400252Y-123930316D01*
X161450077Y-124094567D01*
X161530988Y-124245942D01*
X161613925Y-124347000D01*
X161530988Y-124448058D01*
X161450077Y-124599433D01*
X161400252Y-124763684D01*
X161383428Y-124934500D01*
X161383428Y-125509500D01*
X161400252Y-125680316D01*
X161450077Y-125844567D01*
X161530988Y-125995942D01*
X161639877Y-126128623D01*
X161765500Y-126231720D01*
X161765500Y-126783333D01*
X161776498Y-126894986D01*
X161790501Y-126941148D01*
X161790500Y-136381353D01*
X160574854Y-137597000D01*
X160201717Y-137597000D01*
X160279180Y-137573502D01*
X160389494Y-137514537D01*
X160486185Y-137435185D01*
X160565537Y-137338494D01*
X160624502Y-137228180D01*
X160660812Y-137108482D01*
X160673072Y-136984000D01*
X160673072Y-135684000D01*
X160660812Y-135559518D01*
X160624502Y-135439820D01*
X160565537Y-135329506D01*
X160486185Y-135232815D01*
X160389494Y-135153463D01*
X160279180Y-135094498D01*
X160159482Y-135058188D01*
X160035000Y-135045928D01*
X158735000Y-135045928D01*
X158610518Y-135058188D01*
X158490820Y-135094498D01*
X158380506Y-135153463D01*
X158283815Y-135232815D01*
X158204463Y-135329506D01*
X158201870Y-135334358D01*
X157993676Y-135195247D01*
X157759821Y-135098381D01*
X157511561Y-135049000D01*
X157345000Y-135049000D01*
X157345000Y-134230351D01*
X157348556Y-134194491D01*
X157345000Y-134158138D01*
X157345000Y-134157895D01*
X157341521Y-134122571D01*
X157334461Y-134050397D01*
X157334389Y-134050159D01*
X157334365Y-134049915D01*
X157313360Y-133980672D01*
X157292524Y-133911820D01*
X157292409Y-133911605D01*
X157292337Y-133911367D01*
X157258062Y-133847243D01*
X157224359Y-133784088D01*
X157224204Y-133783899D01*
X157224087Y-133783680D01*
X157178258Y-133727838D01*
X157155582Y-133700169D01*
X157155409Y-133699995D01*
X157132238Y-133671762D01*
X157104383Y-133648902D01*
X156404413Y-132948000D01*
X156381238Y-132919762D01*
X156324604Y-132873284D01*
X156269728Y-132828187D01*
X156269515Y-132828073D01*
X156269320Y-132827913D01*
X156204596Y-132793317D01*
X156142087Y-132759852D01*
X156141854Y-132759781D01*
X156141633Y-132759663D01*
X156071888Y-132738506D01*
X156003566Y-132717731D01*
X156003322Y-132717707D01*
X156003085Y-132717635D01*
X155930579Y-132710494D01*
X155859491Y-132703445D01*
X155823148Y-132707000D01*
X150311105Y-132707000D01*
X150275000Y-132703444D01*
X150130915Y-132717635D01*
X149992366Y-132759663D01*
X149865189Y-132827641D01*
X149864680Y-132827913D01*
X149752762Y-132919762D01*
X149729746Y-132947807D01*
X148695808Y-133981746D01*
X148667762Y-134004763D01*
X148575913Y-134116681D01*
X148507663Y-134244368D01*
X148489974Y-134302681D01*
X148465635Y-134382915D01*
X148451444Y-134527000D01*
X148455000Y-134563105D01*
X148455001Y-136529552D01*
X146943554Y-138041000D01*
X145814247Y-138041000D01*
X145166000Y-137393354D01*
X145166000Y-137388346D01*
X145247870Y-137333642D01*
X145250463Y-137338494D01*
X145329815Y-137435185D01*
X145426506Y-137514537D01*
X145536820Y-137573502D01*
X145656518Y-137609812D01*
X145781000Y-137622072D01*
X147081000Y-137622072D01*
X147205482Y-137609812D01*
X147325180Y-137573502D01*
X147435494Y-137514537D01*
X147532185Y-137435185D01*
X147611537Y-137338494D01*
X147670502Y-137228180D01*
X147706812Y-137108482D01*
X147719072Y-136984000D01*
X147719072Y-135684000D01*
X147706812Y-135559518D01*
X147670502Y-135439820D01*
X147611537Y-135329506D01*
X147532185Y-135232815D01*
X147435494Y-135153463D01*
X147325180Y-135094498D01*
X147205482Y-135058188D01*
X147081000Y-135045928D01*
X145781000Y-135045928D01*
X145656518Y-135058188D01*
X145536820Y-135094498D01*
X145426506Y-135153463D01*
X145329815Y-135232815D01*
X145250463Y-135329506D01*
X145247870Y-135334358D01*
X145039676Y-135195247D01*
X144805821Y-135098381D01*
X144723379Y-135081983D01*
X150642215Y-129162236D01*
X150670238Y-129139238D01*
X150693272Y-129111171D01*
X150693291Y-129111152D01*
X150714390Y-129085438D01*
X150762087Y-129027320D01*
X150762101Y-129027294D01*
X150762118Y-129027273D01*
X150793770Y-128968044D01*
X150830337Y-128899633D01*
X150830346Y-128899604D01*
X150830358Y-128899581D01*
X150849941Y-128835009D01*
X150872365Y-128761085D01*
X150872368Y-128761056D01*
X150872376Y-128761029D01*
X150879385Y-128689814D01*
X150883000Y-128653105D01*
X150883000Y-128653076D01*
X150886556Y-128616943D01*
X150883000Y-128580866D01*
X150883000Y-126792000D01*
X150911928Y-126792000D01*
X150924188Y-126916482D01*
X150960498Y-127036180D01*
X151019463Y-127146494D01*
X151098815Y-127243185D01*
X151195506Y-127322537D01*
X151305820Y-127381502D01*
X151425518Y-127417812D01*
X151550000Y-127430072D01*
X152239250Y-127427000D01*
X152398000Y-127268250D01*
X152398000Y-126619000D01*
X152652000Y-126619000D01*
X152652000Y-127268250D01*
X152810750Y-127427000D01*
X153500000Y-127430072D01*
X153624482Y-127417812D01*
X153744180Y-127381502D01*
X153854494Y-127322537D01*
X153951185Y-127243185D01*
X154030537Y-127146494D01*
X154089502Y-127036180D01*
X154125812Y-126916482D01*
X154138072Y-126792000D01*
X154135000Y-126777750D01*
X153976250Y-126619000D01*
X152652000Y-126619000D01*
X152398000Y-126619000D01*
X151073750Y-126619000D01*
X150915000Y-126777750D01*
X150911928Y-126792000D01*
X150883000Y-126792000D01*
X150883000Y-125810446D01*
X150988618Y-125704829D01*
X151043730Y-125807936D01*
X151019463Y-125837506D01*
X150960498Y-125947820D01*
X150924188Y-126067518D01*
X150911928Y-126192000D01*
X150915000Y-126206250D01*
X151073750Y-126365000D01*
X152398000Y-126365000D01*
X152398000Y-126345000D01*
X152652000Y-126345000D01*
X152652000Y-126365000D01*
X153976250Y-126365000D01*
X154135000Y-126206250D01*
X154138072Y-126192000D01*
X154125812Y-126067518D01*
X154089502Y-125947820D01*
X154030537Y-125837506D01*
X154006270Y-125807936D01*
X154078084Y-125673582D01*
X154122929Y-125525745D01*
X154138072Y-125372000D01*
X154138072Y-125072000D01*
X154122929Y-124918255D01*
X154078084Y-124770418D01*
X154005258Y-124634171D01*
X153966546Y-124587000D01*
X154005258Y-124539829D01*
X154078084Y-124403582D01*
X154122929Y-124255745D01*
X154138072Y-124102000D01*
X154138072Y-124077000D01*
X155601678Y-124077000D01*
X155639000Y-124080676D01*
X155676322Y-124077000D01*
X155676333Y-124077000D01*
X155787986Y-124066003D01*
X155931247Y-124022546D01*
X156063276Y-123951974D01*
X156179001Y-123857001D01*
X156202804Y-123827998D01*
X157335191Y-122695611D01*
X157583988Y-122745100D01*
X157884012Y-122745100D01*
X158178272Y-122686568D01*
X158455459Y-122571754D01*
X158704920Y-122405069D01*
X158917069Y-122192920D01*
X159083754Y-121943459D01*
X159198568Y-121666272D01*
X159257100Y-121372012D01*
X159257100Y-121071988D01*
X159198568Y-120777728D01*
X159083754Y-120500541D01*
X158917069Y-120251080D01*
X158704920Y-120038931D01*
X158540529Y-119929088D01*
X158680632Y-119835475D01*
X158887475Y-119628632D01*
X159049990Y-119385411D01*
X159161932Y-119115158D01*
X159219000Y-118828260D01*
X159219000Y-118535740D01*
X159161932Y-118248842D01*
X159049990Y-117978589D01*
X158887475Y-117735368D01*
X158680632Y-117528525D01*
X158506240Y-117412000D01*
X158680632Y-117295475D01*
X158887475Y-117088632D01*
X159049990Y-116845411D01*
X159161932Y-116575158D01*
X159219000Y-116288260D01*
X159219000Y-115995740D01*
X159161932Y-115708842D01*
X159049990Y-115438589D01*
X158887475Y-115195368D01*
X158680632Y-114988525D01*
X158507271Y-114872689D01*
X158582792Y-114630397D01*
X157734000Y-113781605D01*
X156885208Y-114630397D01*
X156960729Y-114872689D01*
X156787368Y-114988525D01*
X156580525Y-115195368D01*
X156455822Y-115382000D01*
X153002025Y-115382000D01*
X152964700Y-115378324D01*
X152927375Y-115382000D01*
X152927367Y-115382000D01*
X152815714Y-115392997D01*
X152672453Y-115436454D01*
X152540424Y-115507026D01*
X152424699Y-115601999D01*
X152400901Y-115630997D01*
X148968901Y-119062998D01*
X148928252Y-119062998D01*
X149087000Y-118904250D01*
X149090072Y-118715000D01*
X149077812Y-118590518D01*
X149041502Y-118470820D01*
X148982537Y-118360506D01*
X148903185Y-118263815D01*
X148806494Y-118184463D01*
X148696180Y-118125498D01*
X148576482Y-118089188D01*
X148452000Y-118076928D01*
X148212750Y-118080000D01*
X148054000Y-118238750D01*
X148054000Y-119063000D01*
X148074000Y-119063000D01*
X148074000Y-119242800D01*
X147780000Y-119242800D01*
X147780000Y-119063000D01*
X147800000Y-119063000D01*
X147800000Y-118238750D01*
X147641250Y-118080000D01*
X147402000Y-118076928D01*
X147277518Y-118089188D01*
X147157820Y-118125498D01*
X147047506Y-118184463D01*
X146974839Y-118244099D01*
X146950942Y-118224488D01*
X146799567Y-118143577D01*
X146635316Y-118093752D01*
X146464500Y-118076928D01*
X145889500Y-118076928D01*
X145718684Y-118093752D01*
X145554433Y-118143577D01*
X145403058Y-118224488D01*
X145270377Y-118333377D01*
X145161488Y-118466058D01*
X145080577Y-118617433D01*
X145030752Y-118781684D01*
X145013928Y-118952500D01*
X145013928Y-119427500D01*
X145030752Y-119598316D01*
X145080577Y-119762567D01*
X145161488Y-119913942D01*
X145270377Y-120046623D01*
X145403058Y-120155512D01*
X145554433Y-120236423D01*
X145654210Y-120266690D01*
X145597226Y-120336124D01*
X145526654Y-120468154D01*
X145483198Y-120611415D01*
X145468524Y-120760400D01*
X145472201Y-120797732D01*
X145472200Y-122951077D01*
X145468524Y-122988400D01*
X145472200Y-123025722D01*
X145472200Y-123025732D01*
X145483197Y-123137385D01*
X145523322Y-123269663D01*
X145526654Y-123280646D01*
X145597226Y-123412676D01*
X145612266Y-123431002D01*
X145692199Y-123528401D01*
X145721202Y-123552204D01*
X145962741Y-123793743D01*
X145961928Y-123802000D01*
X145961928Y-123827000D01*
X143979000Y-123827000D01*
X143979000Y-123615740D01*
X143921932Y-123328842D01*
X143809990Y-123058589D01*
X143647475Y-122815368D01*
X143440632Y-122608525D01*
X143266240Y-122492000D01*
X143440632Y-122375475D01*
X143647475Y-122168632D01*
X143809990Y-121925411D01*
X143921932Y-121655158D01*
X143979000Y-121368260D01*
X143979000Y-121075740D01*
X143921932Y-120788842D01*
X143809990Y-120518589D01*
X143647475Y-120275368D01*
X143440632Y-120068525D01*
X143266240Y-119952000D01*
X143440632Y-119835475D01*
X143647475Y-119628632D01*
X143809990Y-119385411D01*
X143921932Y-119115158D01*
X143979000Y-118828260D01*
X143979000Y-118535740D01*
X143921932Y-118248842D01*
X143809990Y-117978589D01*
X143647475Y-117735368D01*
X143440632Y-117528525D01*
X143266240Y-117412000D01*
X143440632Y-117295475D01*
X143647475Y-117088632D01*
X143809990Y-116845411D01*
X143921932Y-116575158D01*
X143979000Y-116288260D01*
X143979000Y-115995740D01*
X143921932Y-115708842D01*
X143809990Y-115438589D01*
X143647475Y-115195368D01*
X143440632Y-114988525D01*
X143266240Y-114872000D01*
X143440632Y-114755475D01*
X143647475Y-114548632D01*
X143809990Y-114305411D01*
X143921932Y-114035158D01*
X143979000Y-113748260D01*
X143979000Y-113670531D01*
X156243389Y-113670531D01*
X156285401Y-113960019D01*
X156383081Y-114235747D01*
X156456528Y-114373157D01*
X156705603Y-114450792D01*
X157554395Y-113602000D01*
X157913605Y-113602000D01*
X158762397Y-114450792D01*
X159011472Y-114373157D01*
X159137371Y-114109117D01*
X159209339Y-113825589D01*
X159224611Y-113533469D01*
X159182599Y-113243981D01*
X159084919Y-112968253D01*
X159011472Y-112830843D01*
X158762397Y-112753208D01*
X157913605Y-113602000D01*
X157554395Y-113602000D01*
X156705603Y-112753208D01*
X156456528Y-112830843D01*
X156330629Y-113094883D01*
X156258661Y-113378411D01*
X156243389Y-113670531D01*
X143979000Y-113670531D01*
X143979000Y-113455740D01*
X143921932Y-113168842D01*
X143809990Y-112898589D01*
X143647475Y-112655368D01*
X143565710Y-112573603D01*
X156885208Y-112573603D01*
X157734000Y-113422395D01*
X158582792Y-112573603D01*
X158505157Y-112324528D01*
X158241117Y-112198629D01*
X157957589Y-112126661D01*
X157665469Y-112111389D01*
X157375981Y-112153401D01*
X157100253Y-112251081D01*
X156962843Y-112324528D01*
X156885208Y-112573603D01*
X143565710Y-112573603D01*
X143440632Y-112448525D01*
X143197411Y-112286010D01*
X142927158Y-112174068D01*
X142640260Y-112117000D01*
X142347740Y-112117000D01*
X142060842Y-112174068D01*
X141790589Y-112286010D01*
X141547368Y-112448525D01*
X141340525Y-112655368D01*
X141178010Y-112898589D01*
X141066068Y-113168842D01*
X141009000Y-113455740D01*
X141009000Y-113748260D01*
X141066068Y-114035158D01*
X141178010Y-114305411D01*
X141340525Y-114548632D01*
X141547368Y-114755475D01*
X141721760Y-114872000D01*
X141547368Y-114988525D01*
X141340525Y-115195368D01*
X141178010Y-115438589D01*
X141066068Y-115708842D01*
X141009000Y-115995740D01*
X141009000Y-116288260D01*
X141052790Y-116508408D01*
X135955036Y-121606163D01*
X135936125Y-121577860D01*
X135757140Y-121398875D01*
X135754334Y-121397000D01*
X135757140Y-121395125D01*
X135936125Y-121216140D01*
X136076753Y-121005676D01*
X136173619Y-120771821D01*
X136223000Y-120523561D01*
X136223000Y-120270439D01*
X136173619Y-120022179D01*
X136076753Y-119788324D01*
X135936125Y-119577860D01*
X135757140Y-119398875D01*
X135635703Y-119317733D01*
X135643922Y-119282527D01*
X134938000Y-118576605D01*
X134232078Y-119282527D01*
X134240297Y-119317733D01*
X134118860Y-119398875D01*
X133939875Y-119577860D01*
X133799247Y-119788324D01*
X133702381Y-120022179D01*
X133653000Y-120270439D01*
X133653000Y-120523561D01*
X133702381Y-120771821D01*
X133799247Y-121005676D01*
X133939875Y-121216140D01*
X134118860Y-121395125D01*
X134121666Y-121397000D01*
X134118860Y-121398875D01*
X133939875Y-121577860D01*
X133799247Y-121788324D01*
X133702381Y-122022179D01*
X133653000Y-122270439D01*
X133653000Y-122523561D01*
X133702381Y-122771821D01*
X133799247Y-123005676D01*
X133939875Y-123216140D01*
X134118860Y-123395125D01*
X134121666Y-123397000D01*
X134118860Y-123398875D01*
X133939875Y-123577860D01*
X133799247Y-123788324D01*
X133702381Y-124022179D01*
X133653000Y-124270439D01*
X133653000Y-124523561D01*
X133702381Y-124771821D01*
X133799247Y-125005676D01*
X133939875Y-125216140D01*
X134118860Y-125395125D01*
X134121666Y-125397000D01*
X134118860Y-125398875D01*
X133939875Y-125577860D01*
X133799247Y-125788324D01*
X133702381Y-126022179D01*
X133653000Y-126270439D01*
X133653000Y-126523561D01*
X133702381Y-126771821D01*
X133799247Y-127005676D01*
X133939875Y-127216140D01*
X134118860Y-127395125D01*
X134121666Y-127397000D01*
X134118860Y-127398875D01*
X133939875Y-127577860D01*
X133799247Y-127788324D01*
X133702381Y-128022179D01*
X133653000Y-128270439D01*
X133653000Y-128523561D01*
X133702381Y-128771821D01*
X133799247Y-129005676D01*
X133939875Y-129216140D01*
X134118860Y-129395125D01*
X134329324Y-129535753D01*
X134563179Y-129632619D01*
X134811439Y-129682000D01*
X135064561Y-129682000D01*
X135312821Y-129632619D01*
X135546676Y-129535753D01*
X135757140Y-129395125D01*
X135936125Y-129216140D01*
X136076753Y-129005676D01*
X136173619Y-128771821D01*
X136223000Y-128523561D01*
X136223000Y-128270439D01*
X136173619Y-128022179D01*
X136076753Y-127788324D01*
X135936125Y-127577860D01*
X135757140Y-127398875D01*
X135754334Y-127397000D01*
X135757140Y-127395125D01*
X135936125Y-127216140D01*
X136076753Y-127005676D01*
X136173619Y-126771821D01*
X136223000Y-126523561D01*
X136223000Y-126270439D01*
X136173619Y-126022179D01*
X136076753Y-125788324D01*
X135936125Y-125577860D01*
X135757140Y-125398875D01*
X135754334Y-125397000D01*
X135757140Y-125395125D01*
X135936125Y-125216140D01*
X135975641Y-125157000D01*
X136741678Y-125157000D01*
X136779000Y-125160676D01*
X136816322Y-125157000D01*
X136816333Y-125157000D01*
X136927986Y-125146003D01*
X137071247Y-125102546D01*
X137203276Y-125031974D01*
X137319001Y-124937001D01*
X137342804Y-124907997D01*
X141009000Y-121241802D01*
X141009000Y-121368260D01*
X141066068Y-121655158D01*
X141178010Y-121925411D01*
X141340525Y-122168632D01*
X141547368Y-122375475D01*
X141721760Y-122492000D01*
X141547368Y-122608525D01*
X141340525Y-122815368D01*
X141178010Y-123058589D01*
X141066068Y-123328842D01*
X141009000Y-123615740D01*
X141009000Y-123908260D01*
X141066068Y-124195158D01*
X141178010Y-124465411D01*
X141340525Y-124708632D01*
X141547368Y-124915475D01*
X141790589Y-125077990D01*
X142060842Y-125189932D01*
X142347740Y-125247000D01*
X142640260Y-125247000D01*
X142869625Y-125201376D01*
X142894724Y-125221974D01*
X143026753Y-125292546D01*
X143170014Y-125336003D01*
X143281667Y-125347000D01*
X143281676Y-125347000D01*
X143318999Y-125350676D01*
X143356322Y-125347000D01*
X145965000Y-125347000D01*
X145965000Y-125349002D01*
X146123748Y-125349002D01*
X145965000Y-125507750D01*
X145961928Y-125522000D01*
X145974188Y-125646482D01*
X146010498Y-125766180D01*
X146069463Y-125876494D01*
X146093730Y-125906064D01*
X146021916Y-126040418D01*
X145977071Y-126188255D01*
X145961928Y-126342000D01*
X145961928Y-126642000D01*
X145977071Y-126795745D01*
X146021916Y-126943582D01*
X146094742Y-127079829D01*
X146192749Y-127199251D01*
X146312171Y-127297258D01*
X146448418Y-127370084D01*
X146596255Y-127414929D01*
X146750000Y-127430072D01*
X148400000Y-127430072D01*
X148553745Y-127414929D01*
X148701582Y-127370084D01*
X148837829Y-127297258D01*
X148957251Y-127199251D01*
X148963001Y-127192245D01*
X148963001Y-128126552D01*
X142711808Y-134377746D01*
X142683762Y-134400763D01*
X142591913Y-134512681D01*
X142523663Y-134640368D01*
X142500543Y-134716585D01*
X142481635Y-134778915D01*
X142467444Y-134923000D01*
X142471000Y-134959105D01*
X142471000Y-135049000D01*
X142304439Y-135049000D01*
X142056179Y-135098381D01*
X141822324Y-135195247D01*
X141611860Y-135335875D01*
X141432875Y-135514860D01*
X141351733Y-135636297D01*
X141316527Y-135628078D01*
X140610605Y-136334000D01*
X141316527Y-137039922D01*
X141351733Y-137031703D01*
X141432875Y-137153140D01*
X141611860Y-137332125D01*
X141822324Y-137472753D01*
X142056179Y-137569619D01*
X142304439Y-137619000D01*
X142557561Y-137619000D01*
X142656812Y-137599258D01*
X143567859Y-138510306D01*
X143567951Y-138510418D01*
X143592194Y-138534641D01*
X143618806Y-138561253D01*
X143618929Y-138561354D01*
X144097970Y-139040000D01*
X135039018Y-139039999D01*
X135264773Y-138946488D01*
X135679968Y-138669063D01*
X136033063Y-138315968D01*
X136310488Y-137900773D01*
X136501582Y-137439432D01*
X136545323Y-137219527D01*
X139725078Y-137219527D01*
X139778466Y-137448201D01*
X140008374Y-137554095D01*
X140254524Y-137613102D01*
X140507455Y-137622952D01*
X140757449Y-137583270D01*
X140994896Y-137495578D01*
X141083534Y-137448201D01*
X141136922Y-137219527D01*
X140431000Y-136513605D01*
X139725078Y-137219527D01*
X136545323Y-137219527D01*
X136599000Y-136949676D01*
X136599000Y-136450324D01*
X136591070Y-136410455D01*
X139142048Y-136410455D01*
X139181730Y-136660449D01*
X139269422Y-136897896D01*
X139316799Y-136986534D01*
X139545473Y-137039922D01*
X140251395Y-136334000D01*
X139545473Y-135628078D01*
X139316799Y-135681466D01*
X139210905Y-135911374D01*
X139151898Y-136157524D01*
X139142048Y-136410455D01*
X136591070Y-136410455D01*
X136501582Y-135960568D01*
X136310488Y-135499227D01*
X136276576Y-135448473D01*
X139725078Y-135448473D01*
X140431000Y-136154395D01*
X141136922Y-135448473D01*
X141083534Y-135219799D01*
X140853626Y-135113905D01*
X140607476Y-135054898D01*
X140354545Y-135045048D01*
X140104551Y-135084730D01*
X139867104Y-135172422D01*
X139778466Y-135219799D01*
X139725078Y-135448473D01*
X136276576Y-135448473D01*
X136033063Y-135084032D01*
X135679968Y-134730937D01*
X135264773Y-134453512D01*
X134803432Y-134262418D01*
X134313676Y-134165000D01*
X133814324Y-134165000D01*
X133324568Y-134262418D01*
X132863227Y-134453512D01*
X132448032Y-134730937D01*
X132094937Y-135084032D01*
X131817512Y-135499227D01*
X131724000Y-135724985D01*
X131724000Y-118473455D01*
X133649048Y-118473455D01*
X133688730Y-118723449D01*
X133776422Y-118960896D01*
X133823799Y-119049534D01*
X134052473Y-119102922D01*
X134758395Y-118397000D01*
X135117605Y-118397000D01*
X135823527Y-119102922D01*
X136052201Y-119049534D01*
X136158095Y-118819626D01*
X136217102Y-118573476D01*
X136226952Y-118320545D01*
X136187270Y-118070551D01*
X136099578Y-117833104D01*
X136052201Y-117744466D01*
X135823527Y-117691078D01*
X135117605Y-118397000D01*
X134758395Y-118397000D01*
X134052473Y-117691078D01*
X133823799Y-117744466D01*
X133717905Y-117974374D01*
X133658898Y-118220524D01*
X133649048Y-118473455D01*
X131724000Y-118473455D01*
X131724000Y-117511473D01*
X134232078Y-117511473D01*
X134938000Y-118217395D01*
X135643922Y-117511473D01*
X135590534Y-117282799D01*
X135360626Y-117176905D01*
X135114476Y-117117898D01*
X134861545Y-117108048D01*
X134611551Y-117147730D01*
X134374104Y-117235422D01*
X134285466Y-117282799D01*
X134232078Y-117511473D01*
X131724000Y-117511473D01*
X131724000Y-113195015D01*
X131817512Y-113420773D01*
X132094937Y-113835968D01*
X132448032Y-114189063D01*
X132863227Y-114466488D01*
X133324568Y-114657582D01*
X133814324Y-114755000D01*
X134313676Y-114755000D01*
X134803432Y-114657582D01*
X135264773Y-114466488D01*
X135679968Y-114189063D01*
X136033063Y-113835968D01*
X136310488Y-113420773D01*
X136501582Y-112959432D01*
X136599000Y-112469676D01*
X136599000Y-111970324D01*
X136501582Y-111480568D01*
X136310488Y-111019227D01*
X136033063Y-110604032D01*
X135679968Y-110250937D01*
X135264773Y-109973512D01*
X135039018Y-109880001D01*
X165188982Y-109880001D01*
X164963227Y-109973512D01*
G36*
X155425001Y-134684447D02*
G01*
X155425000Y-135049000D01*
X155258439Y-135049000D01*
X155010179Y-135098381D01*
X154776324Y-135195247D01*
X154565860Y-135335875D01*
X154386875Y-135514860D01*
X154305733Y-135636297D01*
X154270527Y-135628078D01*
X153564605Y-136334000D01*
X154270527Y-137039922D01*
X154305733Y-137031703D01*
X154386875Y-137153140D01*
X154565860Y-137332125D01*
X154776324Y-137472753D01*
X155010179Y-137569619D01*
X155258439Y-137619000D01*
X155511561Y-137619000D01*
X155610812Y-137599258D01*
X157051554Y-139040000D01*
X148660446Y-139040000D01*
X150134193Y-137566254D01*
X150162238Y-137543238D01*
X150254087Y-137431320D01*
X150322337Y-137303633D01*
X150347850Y-137219527D01*
X152679078Y-137219527D01*
X152732466Y-137448201D01*
X152962374Y-137554095D01*
X153208524Y-137613102D01*
X153461455Y-137622952D01*
X153711449Y-137583270D01*
X153948896Y-137495578D01*
X154037534Y-137448201D01*
X154090922Y-137219527D01*
X153385000Y-136513605D01*
X152679078Y-137219527D01*
X150347850Y-137219527D01*
X150364365Y-137165085D01*
X150375000Y-137057105D01*
X150378556Y-137021000D01*
X150375000Y-136984895D01*
X150375000Y-136410455D01*
X152096048Y-136410455D01*
X152135730Y-136660449D01*
X152223422Y-136897896D01*
X152270799Y-136986534D01*
X152499473Y-137039922D01*
X153205395Y-136334000D01*
X152499473Y-135628078D01*
X152270799Y-135681466D01*
X152164905Y-135911374D01*
X152105898Y-136157524D01*
X152096048Y-136410455D01*
X150375000Y-136410455D01*
X150375000Y-135448473D01*
X152679078Y-135448473D01*
X153385000Y-136154395D01*
X154090922Y-135448473D01*
X154037534Y-135219799D01*
X153807626Y-135113905D01*
X153561476Y-135054898D01*
X153308545Y-135045048D01*
X153058551Y-135084730D01*
X152821104Y-135172422D01*
X152732466Y-135219799D01*
X152679078Y-135448473D01*
X150375000Y-135448473D01*
X150375000Y-135017446D01*
X150765447Y-134627000D01*
X155367554Y-134627000D01*
X155425001Y-134684447D01*
X155425001Y-134684447D01*
G37*
X155425001Y-134684447D02*
X155425000Y-135049000D01*
X155258439Y-135049000D01*
X155010179Y-135098381D01*
X154776324Y-135195247D01*
X154565860Y-135335875D01*
X154386875Y-135514860D01*
X154305733Y-135636297D01*
X154270527Y-135628078D01*
X153564605Y-136334000D01*
X154270527Y-137039922D01*
X154305733Y-137031703D01*
X154386875Y-137153140D01*
X154565860Y-137332125D01*
X154776324Y-137472753D01*
X155010179Y-137569619D01*
X155258439Y-137619000D01*
X155511561Y-137619000D01*
X155610812Y-137599258D01*
X157051554Y-139040000D01*
X148660446Y-139040000D01*
X150134193Y-137566254D01*
X150162238Y-137543238D01*
X150254087Y-137431320D01*
X150322337Y-137303633D01*
X150347850Y-137219527D01*
X152679078Y-137219527D01*
X152732466Y-137448201D01*
X152962374Y-137554095D01*
X153208524Y-137613102D01*
X153461455Y-137622952D01*
X153711449Y-137583270D01*
X153948896Y-137495578D01*
X154037534Y-137448201D01*
X154090922Y-137219527D01*
X153385000Y-136513605D01*
X152679078Y-137219527D01*
X150347850Y-137219527D01*
X150364365Y-137165085D01*
X150375000Y-137057105D01*
X150378556Y-137021000D01*
X150375000Y-136984895D01*
X150375000Y-136410455D01*
X152096048Y-136410455D01*
X152135730Y-136660449D01*
X152223422Y-136897896D01*
X152270799Y-136986534D01*
X152499473Y-137039922D01*
X153205395Y-136334000D01*
X152499473Y-135628078D01*
X152270799Y-135681466D01*
X152164905Y-135911374D01*
X152105898Y-136157524D01*
X152096048Y-136410455D01*
X150375000Y-136410455D01*
X150375000Y-135448473D01*
X152679078Y-135448473D01*
X153385000Y-136154395D01*
X154090922Y-135448473D01*
X154037534Y-135219799D01*
X153807626Y-135113905D01*
X153561476Y-135054898D01*
X153308545Y-135045048D01*
X153058551Y-135084730D01*
X152821104Y-135172422D01*
X152732466Y-135219799D01*
X152679078Y-135448473D01*
X150375000Y-135448473D01*
X150375000Y-135017446D01*
X150765447Y-134627000D01*
X155367554Y-134627000D01*
X155425001Y-134684447D01*
G36*
X147722000Y-125349000D02*
G01*
X147702000Y-125349000D01*
X147702000Y-125369000D01*
X147448000Y-125369000D01*
X147448000Y-125349000D01*
X147428000Y-125349000D01*
X147428000Y-125347000D01*
X147722000Y-125347000D01*
X147722000Y-125349000D01*
X147722000Y-125349000D01*
G37*
X147722000Y-125349000D02*
X147702000Y-125349000D01*
X147702000Y-125369000D01*
X147448000Y-125369000D01*
X147448000Y-125349000D01*
X147428000Y-125349000D01*
X147428000Y-125347000D01*
X147722000Y-125347000D01*
X147722000Y-125349000D01*
G36*
X152160000Y-119126000D02*
G01*
X152180000Y-119126000D01*
X152180000Y-119380000D01*
X152160000Y-119380000D01*
X152160000Y-120204250D01*
X152318750Y-120363000D01*
X152558000Y-120366072D01*
X152682482Y-120353812D01*
X152802180Y-120317502D01*
X152912494Y-120258537D01*
X152985161Y-120198901D01*
X153009058Y-120218512D01*
X153023000Y-120225964D01*
X153023001Y-121109197D01*
X152388271Y-121743928D01*
X151700000Y-121743928D01*
X151546255Y-121759071D01*
X151398418Y-121803916D01*
X151262171Y-121876742D01*
X151207024Y-121922000D01*
X150585223Y-121922000D01*
X150547900Y-121918324D01*
X150510577Y-121922000D01*
X150510567Y-121922000D01*
X150398914Y-121932997D01*
X150255653Y-121976454D01*
X150123624Y-122047026D01*
X150007899Y-122141999D01*
X149984101Y-122170997D01*
X149173320Y-122981779D01*
X149188072Y-122832000D01*
X149188072Y-122532000D01*
X149172929Y-122378255D01*
X149128084Y-122230418D01*
X149055258Y-122094171D01*
X149004310Y-122032091D01*
X150969258Y-120067144D01*
X150977463Y-120082494D01*
X151056815Y-120179185D01*
X151153506Y-120258537D01*
X151263820Y-120317502D01*
X151383518Y-120353812D01*
X151508000Y-120366072D01*
X151747250Y-120363000D01*
X151906000Y-120204250D01*
X151906000Y-119380000D01*
X151886000Y-119380000D01*
X151886000Y-119150402D01*
X151930402Y-119106000D01*
X152160000Y-119106000D01*
X152160000Y-119126000D01*
X152160000Y-119126000D01*
G37*
X152160000Y-119126000D02*
X152180000Y-119126000D01*
X152180000Y-119380000D01*
X152160000Y-119380000D01*
X152160000Y-120204250D01*
X152318750Y-120363000D01*
X152558000Y-120366072D01*
X152682482Y-120353812D01*
X152802180Y-120317502D01*
X152912494Y-120258537D01*
X152985161Y-120198901D01*
X153009058Y-120218512D01*
X153023000Y-120225964D01*
X153023001Y-121109197D01*
X152388271Y-121743928D01*
X151700000Y-121743928D01*
X151546255Y-121759071D01*
X151398418Y-121803916D01*
X151262171Y-121876742D01*
X151207024Y-121922000D01*
X150585223Y-121922000D01*
X150547900Y-121918324D01*
X150510577Y-121922000D01*
X150510567Y-121922000D01*
X150398914Y-121932997D01*
X150255653Y-121976454D01*
X150123624Y-122047026D01*
X150007899Y-122141999D01*
X149984101Y-122170997D01*
X149173320Y-122981779D01*
X149188072Y-122832000D01*
X149188072Y-122532000D01*
X149172929Y-122378255D01*
X149128084Y-122230418D01*
X149055258Y-122094171D01*
X149004310Y-122032091D01*
X150969258Y-120067144D01*
X150977463Y-120082494D01*
X151056815Y-120179185D01*
X151153506Y-120258537D01*
X151263820Y-120317502D01*
X151383518Y-120353812D01*
X151508000Y-120366072D01*
X151747250Y-120363000D01*
X151906000Y-120204250D01*
X151906000Y-119380000D01*
X151886000Y-119380000D01*
X151886000Y-119150402D01*
X151930402Y-119106000D01*
X152160000Y-119106000D01*
X152160000Y-119126000D01*
M02*
