G04 #@! TF.GenerationSoftware,KiCad,Pcbnew,(5.1.2)-1*
G04 #@! TF.CreationDate,2020-12-05T14:01:01+09:00*
G04 #@! TF.ProjectId,M5Atom_CAN,4d354174-6f6d-45f4-9341-4e2e6b696361,rev?*
G04 #@! TF.SameCoordinates,Original*
G04 #@! TF.FileFunction,Copper,L2,Bot*
G04 #@! TF.FilePolarity,Positive*
%FSLAX46Y46*%
G04 Gerber Fmt 4.6, Leading zero omitted, Abs format (unit mm)*
G04 Created by KiCad (PCBNEW (5.1.2)-1) date 2020-12-05 14:01:01*
%MOMM*%
%LPD*%
G04 APERTURE LIST*
%ADD10C,1.300000*%
%ADD11R,1.300000X1.300000*%
%ADD12C,0.100000*%
%ADD13C,0.600000*%
%ADD14C,0.950000*%
%ADD15C,1.700000*%
%ADD16C,1.776200*%
%ADD17C,3.800000*%
%ADD18C,0.250000*%
%ADD19C,0.200000*%
G04 APERTURE END LIST*
D10*
X165100000Y-126492000D03*
X165100000Y-124492000D03*
X165100000Y-122492000D03*
D11*
X165100000Y-120492000D03*
D12*
G36*
X153364703Y-126192722D02*
G01*
X153379264Y-126194882D01*
X153393543Y-126198459D01*
X153407403Y-126203418D01*
X153420710Y-126209712D01*
X153433336Y-126217280D01*
X153445159Y-126226048D01*
X153456066Y-126235934D01*
X153465952Y-126246841D01*
X153474720Y-126258664D01*
X153482288Y-126271290D01*
X153488582Y-126284597D01*
X153493541Y-126298457D01*
X153497118Y-126312736D01*
X153499278Y-126327297D01*
X153500000Y-126342000D01*
X153500000Y-126642000D01*
X153499278Y-126656703D01*
X153497118Y-126671264D01*
X153493541Y-126685543D01*
X153488582Y-126699403D01*
X153482288Y-126712710D01*
X153474720Y-126725336D01*
X153465952Y-126737159D01*
X153456066Y-126748066D01*
X153445159Y-126757952D01*
X153433336Y-126766720D01*
X153420710Y-126774288D01*
X153407403Y-126780582D01*
X153393543Y-126785541D01*
X153379264Y-126789118D01*
X153364703Y-126791278D01*
X153350000Y-126792000D01*
X151700000Y-126792000D01*
X151685297Y-126791278D01*
X151670736Y-126789118D01*
X151656457Y-126785541D01*
X151642597Y-126780582D01*
X151629290Y-126774288D01*
X151616664Y-126766720D01*
X151604841Y-126757952D01*
X151593934Y-126748066D01*
X151584048Y-126737159D01*
X151575280Y-126725336D01*
X151567712Y-126712710D01*
X151561418Y-126699403D01*
X151556459Y-126685543D01*
X151552882Y-126671264D01*
X151550722Y-126656703D01*
X151550000Y-126642000D01*
X151550000Y-126342000D01*
X151550722Y-126327297D01*
X151552882Y-126312736D01*
X151556459Y-126298457D01*
X151561418Y-126284597D01*
X151567712Y-126271290D01*
X151575280Y-126258664D01*
X151584048Y-126246841D01*
X151593934Y-126235934D01*
X151604841Y-126226048D01*
X151616664Y-126217280D01*
X151629290Y-126209712D01*
X151642597Y-126203418D01*
X151656457Y-126198459D01*
X151670736Y-126194882D01*
X151685297Y-126192722D01*
X151700000Y-126192000D01*
X153350000Y-126192000D01*
X153364703Y-126192722D01*
X153364703Y-126192722D01*
G37*
D13*
X152525000Y-126492000D03*
D12*
G36*
X153364703Y-124922722D02*
G01*
X153379264Y-124924882D01*
X153393543Y-124928459D01*
X153407403Y-124933418D01*
X153420710Y-124939712D01*
X153433336Y-124947280D01*
X153445159Y-124956048D01*
X153456066Y-124965934D01*
X153465952Y-124976841D01*
X153474720Y-124988664D01*
X153482288Y-125001290D01*
X153488582Y-125014597D01*
X153493541Y-125028457D01*
X153497118Y-125042736D01*
X153499278Y-125057297D01*
X153500000Y-125072000D01*
X153500000Y-125372000D01*
X153499278Y-125386703D01*
X153497118Y-125401264D01*
X153493541Y-125415543D01*
X153488582Y-125429403D01*
X153482288Y-125442710D01*
X153474720Y-125455336D01*
X153465952Y-125467159D01*
X153456066Y-125478066D01*
X153445159Y-125487952D01*
X153433336Y-125496720D01*
X153420710Y-125504288D01*
X153407403Y-125510582D01*
X153393543Y-125515541D01*
X153379264Y-125519118D01*
X153364703Y-125521278D01*
X153350000Y-125522000D01*
X151700000Y-125522000D01*
X151685297Y-125521278D01*
X151670736Y-125519118D01*
X151656457Y-125515541D01*
X151642597Y-125510582D01*
X151629290Y-125504288D01*
X151616664Y-125496720D01*
X151604841Y-125487952D01*
X151593934Y-125478066D01*
X151584048Y-125467159D01*
X151575280Y-125455336D01*
X151567712Y-125442710D01*
X151561418Y-125429403D01*
X151556459Y-125415543D01*
X151552882Y-125401264D01*
X151550722Y-125386703D01*
X151550000Y-125372000D01*
X151550000Y-125072000D01*
X151550722Y-125057297D01*
X151552882Y-125042736D01*
X151556459Y-125028457D01*
X151561418Y-125014597D01*
X151567712Y-125001290D01*
X151575280Y-124988664D01*
X151584048Y-124976841D01*
X151593934Y-124965934D01*
X151604841Y-124956048D01*
X151616664Y-124947280D01*
X151629290Y-124939712D01*
X151642597Y-124933418D01*
X151656457Y-124928459D01*
X151670736Y-124924882D01*
X151685297Y-124922722D01*
X151700000Y-124922000D01*
X153350000Y-124922000D01*
X153364703Y-124922722D01*
X153364703Y-124922722D01*
G37*
D13*
X152525000Y-125222000D03*
D12*
G36*
X153364703Y-123652722D02*
G01*
X153379264Y-123654882D01*
X153393543Y-123658459D01*
X153407403Y-123663418D01*
X153420710Y-123669712D01*
X153433336Y-123677280D01*
X153445159Y-123686048D01*
X153456066Y-123695934D01*
X153465952Y-123706841D01*
X153474720Y-123718664D01*
X153482288Y-123731290D01*
X153488582Y-123744597D01*
X153493541Y-123758457D01*
X153497118Y-123772736D01*
X153499278Y-123787297D01*
X153500000Y-123802000D01*
X153500000Y-124102000D01*
X153499278Y-124116703D01*
X153497118Y-124131264D01*
X153493541Y-124145543D01*
X153488582Y-124159403D01*
X153482288Y-124172710D01*
X153474720Y-124185336D01*
X153465952Y-124197159D01*
X153456066Y-124208066D01*
X153445159Y-124217952D01*
X153433336Y-124226720D01*
X153420710Y-124234288D01*
X153407403Y-124240582D01*
X153393543Y-124245541D01*
X153379264Y-124249118D01*
X153364703Y-124251278D01*
X153350000Y-124252000D01*
X151700000Y-124252000D01*
X151685297Y-124251278D01*
X151670736Y-124249118D01*
X151656457Y-124245541D01*
X151642597Y-124240582D01*
X151629290Y-124234288D01*
X151616664Y-124226720D01*
X151604841Y-124217952D01*
X151593934Y-124208066D01*
X151584048Y-124197159D01*
X151575280Y-124185336D01*
X151567712Y-124172710D01*
X151561418Y-124159403D01*
X151556459Y-124145543D01*
X151552882Y-124131264D01*
X151550722Y-124116703D01*
X151550000Y-124102000D01*
X151550000Y-123802000D01*
X151550722Y-123787297D01*
X151552882Y-123772736D01*
X151556459Y-123758457D01*
X151561418Y-123744597D01*
X151567712Y-123731290D01*
X151575280Y-123718664D01*
X151584048Y-123706841D01*
X151593934Y-123695934D01*
X151604841Y-123686048D01*
X151616664Y-123677280D01*
X151629290Y-123669712D01*
X151642597Y-123663418D01*
X151656457Y-123658459D01*
X151670736Y-123654882D01*
X151685297Y-123652722D01*
X151700000Y-123652000D01*
X153350000Y-123652000D01*
X153364703Y-123652722D01*
X153364703Y-123652722D01*
G37*
D13*
X152525000Y-123952000D03*
D12*
G36*
X153364703Y-122382722D02*
G01*
X153379264Y-122384882D01*
X153393543Y-122388459D01*
X153407403Y-122393418D01*
X153420710Y-122399712D01*
X153433336Y-122407280D01*
X153445159Y-122416048D01*
X153456066Y-122425934D01*
X153465952Y-122436841D01*
X153474720Y-122448664D01*
X153482288Y-122461290D01*
X153488582Y-122474597D01*
X153493541Y-122488457D01*
X153497118Y-122502736D01*
X153499278Y-122517297D01*
X153500000Y-122532000D01*
X153500000Y-122832000D01*
X153499278Y-122846703D01*
X153497118Y-122861264D01*
X153493541Y-122875543D01*
X153488582Y-122889403D01*
X153482288Y-122902710D01*
X153474720Y-122915336D01*
X153465952Y-122927159D01*
X153456066Y-122938066D01*
X153445159Y-122947952D01*
X153433336Y-122956720D01*
X153420710Y-122964288D01*
X153407403Y-122970582D01*
X153393543Y-122975541D01*
X153379264Y-122979118D01*
X153364703Y-122981278D01*
X153350000Y-122982000D01*
X151700000Y-122982000D01*
X151685297Y-122981278D01*
X151670736Y-122979118D01*
X151656457Y-122975541D01*
X151642597Y-122970582D01*
X151629290Y-122964288D01*
X151616664Y-122956720D01*
X151604841Y-122947952D01*
X151593934Y-122938066D01*
X151584048Y-122927159D01*
X151575280Y-122915336D01*
X151567712Y-122902710D01*
X151561418Y-122889403D01*
X151556459Y-122875543D01*
X151552882Y-122861264D01*
X151550722Y-122846703D01*
X151550000Y-122832000D01*
X151550000Y-122532000D01*
X151550722Y-122517297D01*
X151552882Y-122502736D01*
X151556459Y-122488457D01*
X151561418Y-122474597D01*
X151567712Y-122461290D01*
X151575280Y-122448664D01*
X151584048Y-122436841D01*
X151593934Y-122425934D01*
X151604841Y-122416048D01*
X151616664Y-122407280D01*
X151629290Y-122399712D01*
X151642597Y-122393418D01*
X151656457Y-122388459D01*
X151670736Y-122384882D01*
X151685297Y-122382722D01*
X151700000Y-122382000D01*
X153350000Y-122382000D01*
X153364703Y-122382722D01*
X153364703Y-122382722D01*
G37*
D13*
X152525000Y-122682000D03*
D12*
G36*
X148414703Y-122382722D02*
G01*
X148429264Y-122384882D01*
X148443543Y-122388459D01*
X148457403Y-122393418D01*
X148470710Y-122399712D01*
X148483336Y-122407280D01*
X148495159Y-122416048D01*
X148506066Y-122425934D01*
X148515952Y-122436841D01*
X148524720Y-122448664D01*
X148532288Y-122461290D01*
X148538582Y-122474597D01*
X148543541Y-122488457D01*
X148547118Y-122502736D01*
X148549278Y-122517297D01*
X148550000Y-122532000D01*
X148550000Y-122832000D01*
X148549278Y-122846703D01*
X148547118Y-122861264D01*
X148543541Y-122875543D01*
X148538582Y-122889403D01*
X148532288Y-122902710D01*
X148524720Y-122915336D01*
X148515952Y-122927159D01*
X148506066Y-122938066D01*
X148495159Y-122947952D01*
X148483336Y-122956720D01*
X148470710Y-122964288D01*
X148457403Y-122970582D01*
X148443543Y-122975541D01*
X148429264Y-122979118D01*
X148414703Y-122981278D01*
X148400000Y-122982000D01*
X146750000Y-122982000D01*
X146735297Y-122981278D01*
X146720736Y-122979118D01*
X146706457Y-122975541D01*
X146692597Y-122970582D01*
X146679290Y-122964288D01*
X146666664Y-122956720D01*
X146654841Y-122947952D01*
X146643934Y-122938066D01*
X146634048Y-122927159D01*
X146625280Y-122915336D01*
X146617712Y-122902710D01*
X146611418Y-122889403D01*
X146606459Y-122875543D01*
X146602882Y-122861264D01*
X146600722Y-122846703D01*
X146600000Y-122832000D01*
X146600000Y-122532000D01*
X146600722Y-122517297D01*
X146602882Y-122502736D01*
X146606459Y-122488457D01*
X146611418Y-122474597D01*
X146617712Y-122461290D01*
X146625280Y-122448664D01*
X146634048Y-122436841D01*
X146643934Y-122425934D01*
X146654841Y-122416048D01*
X146666664Y-122407280D01*
X146679290Y-122399712D01*
X146692597Y-122393418D01*
X146706457Y-122388459D01*
X146720736Y-122384882D01*
X146735297Y-122382722D01*
X146750000Y-122382000D01*
X148400000Y-122382000D01*
X148414703Y-122382722D01*
X148414703Y-122382722D01*
G37*
D13*
X147575000Y-122682000D03*
D12*
G36*
X148414703Y-123652722D02*
G01*
X148429264Y-123654882D01*
X148443543Y-123658459D01*
X148457403Y-123663418D01*
X148470710Y-123669712D01*
X148483336Y-123677280D01*
X148495159Y-123686048D01*
X148506066Y-123695934D01*
X148515952Y-123706841D01*
X148524720Y-123718664D01*
X148532288Y-123731290D01*
X148538582Y-123744597D01*
X148543541Y-123758457D01*
X148547118Y-123772736D01*
X148549278Y-123787297D01*
X148550000Y-123802000D01*
X148550000Y-124102000D01*
X148549278Y-124116703D01*
X148547118Y-124131264D01*
X148543541Y-124145543D01*
X148538582Y-124159403D01*
X148532288Y-124172710D01*
X148524720Y-124185336D01*
X148515952Y-124197159D01*
X148506066Y-124208066D01*
X148495159Y-124217952D01*
X148483336Y-124226720D01*
X148470710Y-124234288D01*
X148457403Y-124240582D01*
X148443543Y-124245541D01*
X148429264Y-124249118D01*
X148414703Y-124251278D01*
X148400000Y-124252000D01*
X146750000Y-124252000D01*
X146735297Y-124251278D01*
X146720736Y-124249118D01*
X146706457Y-124245541D01*
X146692597Y-124240582D01*
X146679290Y-124234288D01*
X146666664Y-124226720D01*
X146654841Y-124217952D01*
X146643934Y-124208066D01*
X146634048Y-124197159D01*
X146625280Y-124185336D01*
X146617712Y-124172710D01*
X146611418Y-124159403D01*
X146606459Y-124145543D01*
X146602882Y-124131264D01*
X146600722Y-124116703D01*
X146600000Y-124102000D01*
X146600000Y-123802000D01*
X146600722Y-123787297D01*
X146602882Y-123772736D01*
X146606459Y-123758457D01*
X146611418Y-123744597D01*
X146617712Y-123731290D01*
X146625280Y-123718664D01*
X146634048Y-123706841D01*
X146643934Y-123695934D01*
X146654841Y-123686048D01*
X146666664Y-123677280D01*
X146679290Y-123669712D01*
X146692597Y-123663418D01*
X146706457Y-123658459D01*
X146720736Y-123654882D01*
X146735297Y-123652722D01*
X146750000Y-123652000D01*
X148400000Y-123652000D01*
X148414703Y-123652722D01*
X148414703Y-123652722D01*
G37*
D13*
X147575000Y-123952000D03*
D12*
G36*
X148414703Y-124922722D02*
G01*
X148429264Y-124924882D01*
X148443543Y-124928459D01*
X148457403Y-124933418D01*
X148470710Y-124939712D01*
X148483336Y-124947280D01*
X148495159Y-124956048D01*
X148506066Y-124965934D01*
X148515952Y-124976841D01*
X148524720Y-124988664D01*
X148532288Y-125001290D01*
X148538582Y-125014597D01*
X148543541Y-125028457D01*
X148547118Y-125042736D01*
X148549278Y-125057297D01*
X148550000Y-125072000D01*
X148550000Y-125372000D01*
X148549278Y-125386703D01*
X148547118Y-125401264D01*
X148543541Y-125415543D01*
X148538582Y-125429403D01*
X148532288Y-125442710D01*
X148524720Y-125455336D01*
X148515952Y-125467159D01*
X148506066Y-125478066D01*
X148495159Y-125487952D01*
X148483336Y-125496720D01*
X148470710Y-125504288D01*
X148457403Y-125510582D01*
X148443543Y-125515541D01*
X148429264Y-125519118D01*
X148414703Y-125521278D01*
X148400000Y-125522000D01*
X146750000Y-125522000D01*
X146735297Y-125521278D01*
X146720736Y-125519118D01*
X146706457Y-125515541D01*
X146692597Y-125510582D01*
X146679290Y-125504288D01*
X146666664Y-125496720D01*
X146654841Y-125487952D01*
X146643934Y-125478066D01*
X146634048Y-125467159D01*
X146625280Y-125455336D01*
X146617712Y-125442710D01*
X146611418Y-125429403D01*
X146606459Y-125415543D01*
X146602882Y-125401264D01*
X146600722Y-125386703D01*
X146600000Y-125372000D01*
X146600000Y-125072000D01*
X146600722Y-125057297D01*
X146602882Y-125042736D01*
X146606459Y-125028457D01*
X146611418Y-125014597D01*
X146617712Y-125001290D01*
X146625280Y-124988664D01*
X146634048Y-124976841D01*
X146643934Y-124965934D01*
X146654841Y-124956048D01*
X146666664Y-124947280D01*
X146679290Y-124939712D01*
X146692597Y-124933418D01*
X146706457Y-124928459D01*
X146720736Y-124924882D01*
X146735297Y-124922722D01*
X146750000Y-124922000D01*
X148400000Y-124922000D01*
X148414703Y-124922722D01*
X148414703Y-124922722D01*
G37*
D13*
X147575000Y-125222000D03*
D12*
G36*
X148414703Y-126192722D02*
G01*
X148429264Y-126194882D01*
X148443543Y-126198459D01*
X148457403Y-126203418D01*
X148470710Y-126209712D01*
X148483336Y-126217280D01*
X148495159Y-126226048D01*
X148506066Y-126235934D01*
X148515952Y-126246841D01*
X148524720Y-126258664D01*
X148532288Y-126271290D01*
X148538582Y-126284597D01*
X148543541Y-126298457D01*
X148547118Y-126312736D01*
X148549278Y-126327297D01*
X148550000Y-126342000D01*
X148550000Y-126642000D01*
X148549278Y-126656703D01*
X148547118Y-126671264D01*
X148543541Y-126685543D01*
X148538582Y-126699403D01*
X148532288Y-126712710D01*
X148524720Y-126725336D01*
X148515952Y-126737159D01*
X148506066Y-126748066D01*
X148495159Y-126757952D01*
X148483336Y-126766720D01*
X148470710Y-126774288D01*
X148457403Y-126780582D01*
X148443543Y-126785541D01*
X148429264Y-126789118D01*
X148414703Y-126791278D01*
X148400000Y-126792000D01*
X146750000Y-126792000D01*
X146735297Y-126791278D01*
X146720736Y-126789118D01*
X146706457Y-126785541D01*
X146692597Y-126780582D01*
X146679290Y-126774288D01*
X146666664Y-126766720D01*
X146654841Y-126757952D01*
X146643934Y-126748066D01*
X146634048Y-126737159D01*
X146625280Y-126725336D01*
X146617712Y-126712710D01*
X146611418Y-126699403D01*
X146606459Y-126685543D01*
X146602882Y-126671264D01*
X146600722Y-126656703D01*
X146600000Y-126642000D01*
X146600000Y-126342000D01*
X146600722Y-126327297D01*
X146602882Y-126312736D01*
X146606459Y-126298457D01*
X146611418Y-126284597D01*
X146617712Y-126271290D01*
X146625280Y-126258664D01*
X146634048Y-126246841D01*
X146643934Y-126235934D01*
X146654841Y-126226048D01*
X146666664Y-126217280D01*
X146679290Y-126209712D01*
X146692597Y-126203418D01*
X146706457Y-126198459D01*
X146720736Y-126194882D01*
X146735297Y-126192722D01*
X146750000Y-126192000D01*
X148400000Y-126192000D01*
X148414703Y-126192722D01*
X148414703Y-126192722D01*
G37*
D13*
X147575000Y-126492000D03*
D12*
G36*
X151913779Y-118779144D02*
G01*
X151936834Y-118782563D01*
X151959443Y-118788227D01*
X151981387Y-118796079D01*
X152002457Y-118806044D01*
X152022448Y-118818026D01*
X152041168Y-118831910D01*
X152058438Y-118847562D01*
X152074090Y-118864832D01*
X152087974Y-118883552D01*
X152099956Y-118903543D01*
X152109921Y-118924613D01*
X152117773Y-118946557D01*
X152123437Y-118969166D01*
X152126856Y-118992221D01*
X152128000Y-119015500D01*
X152128000Y-119490500D01*
X152126856Y-119513779D01*
X152123437Y-119536834D01*
X152117773Y-119559443D01*
X152109921Y-119581387D01*
X152099956Y-119602457D01*
X152087974Y-119622448D01*
X152074090Y-119641168D01*
X152058438Y-119658438D01*
X152041168Y-119674090D01*
X152022448Y-119687974D01*
X152002457Y-119699956D01*
X151981387Y-119709921D01*
X151959443Y-119717773D01*
X151936834Y-119723437D01*
X151913779Y-119726856D01*
X151890500Y-119728000D01*
X151315500Y-119728000D01*
X151292221Y-119726856D01*
X151269166Y-119723437D01*
X151246557Y-119717773D01*
X151224613Y-119709921D01*
X151203543Y-119699956D01*
X151183552Y-119687974D01*
X151164832Y-119674090D01*
X151147562Y-119658438D01*
X151131910Y-119641168D01*
X151118026Y-119622448D01*
X151106044Y-119602457D01*
X151096079Y-119581387D01*
X151088227Y-119559443D01*
X151082563Y-119536834D01*
X151079144Y-119513779D01*
X151078000Y-119490500D01*
X151078000Y-119015500D01*
X151079144Y-118992221D01*
X151082563Y-118969166D01*
X151088227Y-118946557D01*
X151096079Y-118924613D01*
X151106044Y-118903543D01*
X151118026Y-118883552D01*
X151131910Y-118864832D01*
X151147562Y-118847562D01*
X151164832Y-118831910D01*
X151183552Y-118818026D01*
X151203543Y-118806044D01*
X151224613Y-118796079D01*
X151246557Y-118788227D01*
X151269166Y-118782563D01*
X151292221Y-118779144D01*
X151315500Y-118778000D01*
X151890500Y-118778000D01*
X151913779Y-118779144D01*
X151913779Y-118779144D01*
G37*
D14*
X151603000Y-119253000D03*
D12*
G36*
X153663779Y-118779144D02*
G01*
X153686834Y-118782563D01*
X153709443Y-118788227D01*
X153731387Y-118796079D01*
X153752457Y-118806044D01*
X153772448Y-118818026D01*
X153791168Y-118831910D01*
X153808438Y-118847562D01*
X153824090Y-118864832D01*
X153837974Y-118883552D01*
X153849956Y-118903543D01*
X153859921Y-118924613D01*
X153867773Y-118946557D01*
X153873437Y-118969166D01*
X153876856Y-118992221D01*
X153878000Y-119015500D01*
X153878000Y-119490500D01*
X153876856Y-119513779D01*
X153873437Y-119536834D01*
X153867773Y-119559443D01*
X153859921Y-119581387D01*
X153849956Y-119602457D01*
X153837974Y-119622448D01*
X153824090Y-119641168D01*
X153808438Y-119658438D01*
X153791168Y-119674090D01*
X153772448Y-119687974D01*
X153752457Y-119699956D01*
X153731387Y-119709921D01*
X153709443Y-119717773D01*
X153686834Y-119723437D01*
X153663779Y-119726856D01*
X153640500Y-119728000D01*
X153065500Y-119728000D01*
X153042221Y-119726856D01*
X153019166Y-119723437D01*
X152996557Y-119717773D01*
X152974613Y-119709921D01*
X152953543Y-119699956D01*
X152933552Y-119687974D01*
X152914832Y-119674090D01*
X152897562Y-119658438D01*
X152881910Y-119641168D01*
X152868026Y-119622448D01*
X152856044Y-119602457D01*
X152846079Y-119581387D01*
X152838227Y-119559443D01*
X152832563Y-119536834D01*
X152829144Y-119513779D01*
X152828000Y-119490500D01*
X152828000Y-119015500D01*
X152829144Y-118992221D01*
X152832563Y-118969166D01*
X152838227Y-118946557D01*
X152846079Y-118924613D01*
X152856044Y-118903543D01*
X152868026Y-118883552D01*
X152881910Y-118864832D01*
X152897562Y-118847562D01*
X152914832Y-118831910D01*
X152933552Y-118818026D01*
X152953543Y-118806044D01*
X152974613Y-118796079D01*
X152996557Y-118788227D01*
X153019166Y-118782563D01*
X153042221Y-118779144D01*
X153065500Y-118778000D01*
X153640500Y-118778000D01*
X153663779Y-118779144D01*
X153663779Y-118779144D01*
G37*
D14*
X153353000Y-119253000D03*
D15*
X157740000Y-118610000D03*
X157740000Y-121150000D03*
X157740000Y-123690000D03*
X157740000Y-126230000D03*
X157740000Y-128770000D03*
X142500000Y-128770000D03*
X142500000Y-126230000D03*
X142500000Y-123690000D03*
D16*
X142500000Y-121150000D03*
D17*
X134064000Y-112220001D03*
X166164000Y-112220001D03*
X166164000Y-136699999D03*
X134064000Y-136699999D03*
D10*
X144876000Y-136144000D03*
X146876000Y-136144000D03*
X148876000Y-136144000D03*
X150876000Y-136144000D03*
X152876000Y-136144000D03*
X154876000Y-136144000D03*
X134620000Y-126396000D03*
X134620000Y-124396000D03*
X134620000Y-122396000D03*
D11*
X134620000Y-120396000D03*
D12*
G36*
X147693779Y-118716144D02*
G01*
X147716834Y-118719563D01*
X147739443Y-118725227D01*
X147761387Y-118733079D01*
X147782457Y-118743044D01*
X147802448Y-118755026D01*
X147821168Y-118768910D01*
X147838438Y-118784562D01*
X147854090Y-118801832D01*
X147867974Y-118820552D01*
X147879956Y-118840543D01*
X147889921Y-118861613D01*
X147897773Y-118883557D01*
X147903437Y-118906166D01*
X147906856Y-118929221D01*
X147908000Y-118952500D01*
X147908000Y-119427500D01*
X147906856Y-119450779D01*
X147903437Y-119473834D01*
X147897773Y-119496443D01*
X147889921Y-119518387D01*
X147879956Y-119539457D01*
X147867974Y-119559448D01*
X147854090Y-119578168D01*
X147838438Y-119595438D01*
X147821168Y-119611090D01*
X147802448Y-119624974D01*
X147782457Y-119636956D01*
X147761387Y-119646921D01*
X147739443Y-119654773D01*
X147716834Y-119660437D01*
X147693779Y-119663856D01*
X147670500Y-119665000D01*
X147095500Y-119665000D01*
X147072221Y-119663856D01*
X147049166Y-119660437D01*
X147026557Y-119654773D01*
X147004613Y-119646921D01*
X146983543Y-119636956D01*
X146963552Y-119624974D01*
X146944832Y-119611090D01*
X146927562Y-119595438D01*
X146911910Y-119578168D01*
X146898026Y-119559448D01*
X146886044Y-119539457D01*
X146876079Y-119518387D01*
X146868227Y-119496443D01*
X146862563Y-119473834D01*
X146859144Y-119450779D01*
X146858000Y-119427500D01*
X146858000Y-118952500D01*
X146859144Y-118929221D01*
X146862563Y-118906166D01*
X146868227Y-118883557D01*
X146876079Y-118861613D01*
X146886044Y-118840543D01*
X146898026Y-118820552D01*
X146911910Y-118801832D01*
X146927562Y-118784562D01*
X146944832Y-118768910D01*
X146963552Y-118755026D01*
X146983543Y-118743044D01*
X147004613Y-118733079D01*
X147026557Y-118725227D01*
X147049166Y-118719563D01*
X147072221Y-118716144D01*
X147095500Y-118715000D01*
X147670500Y-118715000D01*
X147693779Y-118716144D01*
X147693779Y-118716144D01*
G37*
D14*
X147383000Y-119190000D03*
D12*
G36*
X145943779Y-118716144D02*
G01*
X145966834Y-118719563D01*
X145989443Y-118725227D01*
X146011387Y-118733079D01*
X146032457Y-118743044D01*
X146052448Y-118755026D01*
X146071168Y-118768910D01*
X146088438Y-118784562D01*
X146104090Y-118801832D01*
X146117974Y-118820552D01*
X146129956Y-118840543D01*
X146139921Y-118861613D01*
X146147773Y-118883557D01*
X146153437Y-118906166D01*
X146156856Y-118929221D01*
X146158000Y-118952500D01*
X146158000Y-119427500D01*
X146156856Y-119450779D01*
X146153437Y-119473834D01*
X146147773Y-119496443D01*
X146139921Y-119518387D01*
X146129956Y-119539457D01*
X146117974Y-119559448D01*
X146104090Y-119578168D01*
X146088438Y-119595438D01*
X146071168Y-119611090D01*
X146052448Y-119624974D01*
X146032457Y-119636956D01*
X146011387Y-119646921D01*
X145989443Y-119654773D01*
X145966834Y-119660437D01*
X145943779Y-119663856D01*
X145920500Y-119665000D01*
X145345500Y-119665000D01*
X145322221Y-119663856D01*
X145299166Y-119660437D01*
X145276557Y-119654773D01*
X145254613Y-119646921D01*
X145233543Y-119636956D01*
X145213552Y-119624974D01*
X145194832Y-119611090D01*
X145177562Y-119595438D01*
X145161910Y-119578168D01*
X145148026Y-119559448D01*
X145136044Y-119539457D01*
X145126079Y-119518387D01*
X145118227Y-119496443D01*
X145112563Y-119473834D01*
X145109144Y-119450779D01*
X145108000Y-119427500D01*
X145108000Y-118952500D01*
X145109144Y-118929221D01*
X145112563Y-118906166D01*
X145118227Y-118883557D01*
X145126079Y-118861613D01*
X145136044Y-118840543D01*
X145148026Y-118820552D01*
X145161910Y-118801832D01*
X145177562Y-118784562D01*
X145194832Y-118768910D01*
X145213552Y-118755026D01*
X145233543Y-118743044D01*
X145254613Y-118733079D01*
X145276557Y-118725227D01*
X145299166Y-118719563D01*
X145322221Y-118716144D01*
X145345500Y-118715000D01*
X145920500Y-118715000D01*
X145943779Y-118716144D01*
X145943779Y-118716144D01*
G37*
D14*
X145633000Y-119190000D03*
D18*
X151224100Y-119631900D02*
X151603000Y-119253000D01*
X152525000Y-126492000D02*
X152025800Y-126492000D01*
X152025800Y-126492000D02*
X151224100Y-125690300D01*
X151224100Y-125690300D02*
X151224100Y-119631900D01*
X147383000Y-119190000D02*
X150782200Y-119190000D01*
X150782200Y-119190000D02*
X151224100Y-119631900D01*
X144876000Y-136144000D02*
X145895100Y-137163100D01*
X145895100Y-137163100D02*
X155238900Y-137163100D01*
X155238900Y-137163100D02*
X155896500Y-136505500D01*
X155896500Y-136505500D02*
X155896500Y-131815600D01*
X155896500Y-131815600D02*
X152525000Y-128444100D01*
X152525000Y-128444100D02*
X152525000Y-126492000D01*
X144744700Y-131014600D02*
X144876000Y-131146000D01*
X144876000Y-131146000D02*
X144876000Y-136144000D01*
X144744700Y-131014600D02*
X142500000Y-128770000D01*
X147575000Y-125222000D02*
X148015600Y-125222000D01*
X148015600Y-125222000D02*
X148900700Y-126107100D01*
X148900700Y-126107100D02*
X148900700Y-126858600D01*
X148900700Y-126858600D02*
X144744700Y-131014600D01*
X151603000Y-119253000D02*
X153440600Y-117415400D01*
X153440600Y-117415400D02*
X158248100Y-117415400D01*
X158248100Y-117415400D02*
X159233400Y-118400700D01*
X159233400Y-118400700D02*
X159233400Y-120625400D01*
X159233400Y-120625400D02*
X165100000Y-126492000D01*
X153353000Y-119253000D02*
X153353000Y-121854000D01*
X153353000Y-121854000D02*
X152525000Y-122682000D01*
X157740000Y-118610000D02*
X153996000Y-118610000D01*
X153996000Y-118610000D02*
X153353000Y-119253000D01*
X148032900Y-123952000D02*
X151325300Y-127244400D01*
X151325300Y-127244400D02*
X151325300Y-132593300D01*
X151325300Y-132593300D02*
X154876000Y-136144000D01*
X145633000Y-119190000D02*
X142061600Y-119190000D01*
X142061600Y-119190000D02*
X140797900Y-120453700D01*
X140797900Y-120453700D02*
X140797900Y-124527900D01*
X140797900Y-124527900D02*
X142500000Y-126230000D01*
X148032900Y-123952000D02*
X148881600Y-123103300D01*
X148881600Y-123103300D02*
X148881600Y-122286900D01*
X148881600Y-122286900D02*
X145784700Y-119190000D01*
X145784700Y-119190000D02*
X145633000Y-119190000D01*
X148032900Y-123952000D02*
X147575000Y-123952000D01*
X142500000Y-123690000D02*
X141283300Y-122473300D01*
X141283300Y-122473300D02*
X141283300Y-120605200D01*
X141283300Y-120605200D02*
X141984900Y-119903600D01*
X141984900Y-119903600D02*
X144796600Y-119903600D01*
X144796600Y-119903600D02*
X147575000Y-122682000D01*
X142500000Y-121150000D02*
X142500000Y-121894400D01*
X142500000Y-121894400D02*
X147097600Y-126492000D01*
X147097600Y-126492000D02*
X147575000Y-126492000D01*
D19*
X152525000Y-123952000D02*
X152935000Y-124362000D01*
X152935000Y-124362000D02*
X154144000Y-124362000D01*
X154144000Y-124362000D02*
X154974000Y-125192000D01*
X154974000Y-125192000D02*
X154974000Y-129510000D01*
X154974000Y-129510000D02*
X156557000Y-131093000D01*
X156557000Y-131093000D02*
X164880000Y-131093000D01*
X164880000Y-131093000D02*
X166907000Y-129066000D01*
X166907000Y-129066000D02*
X166907000Y-124935000D01*
X166907000Y-124935000D02*
X166464000Y-124492000D01*
X166464000Y-124492000D02*
X165100000Y-124492000D01*
X134620000Y-124396000D02*
X135395000Y-123621000D01*
X135395000Y-123621000D02*
X136793000Y-123621000D01*
X136793000Y-123621000D02*
X143603000Y-116811000D01*
X143603000Y-116811000D02*
X160054000Y-116811000D01*
X160054000Y-116811000D02*
X161382000Y-118140000D01*
X161382000Y-118140000D02*
X161382000Y-120774000D01*
X161382000Y-120774000D02*
X165100000Y-124492000D01*
X152525000Y-125222000D02*
X152935000Y-124812000D01*
X152935000Y-124812000D02*
X153958000Y-124812000D01*
X153958000Y-124812000D02*
X154524000Y-125379000D01*
X154524000Y-125379000D02*
X154524000Y-129697000D01*
X154524000Y-129697000D02*
X156371000Y-131543000D01*
X156371000Y-131543000D02*
X165066000Y-131543000D01*
X165066000Y-131543000D02*
X167357000Y-129252000D01*
X167357000Y-129252000D02*
X167357000Y-124749000D01*
X167357000Y-124749000D02*
X165100000Y-122492000D01*
X134620000Y-122396000D02*
X135395000Y-123171000D01*
X135395000Y-123171000D02*
X136607000Y-123171000D01*
X136607000Y-123171000D02*
X143417000Y-116361000D01*
X143417000Y-116361000D02*
X160240000Y-116361000D01*
X160240000Y-116361000D02*
X161832000Y-117953000D01*
X161832000Y-117953000D02*
X161832000Y-120588000D01*
X161832000Y-120588000D02*
X163736000Y-122492000D01*
X163736000Y-122492000D02*
X165100000Y-122492000D01*
M02*
