%MOIN*%
%OFA0B0*%
%FSLAX36Y36*%
%IPPOS*%
%LPD*%
%ADD10C,0*%
D10*
X000730481Y001811023D02*
X000730481Y001811023D01*
X000118110Y001811023D01*
X000104885Y001810281D01*
X000091827Y001808062D01*
X000079100Y001804395D01*
X000066864Y001799327D01*
X000055271Y001792920D01*
X000044469Y001785255D01*
X000034593Y001776429D01*
X000025767Y001766553D01*
X000018103Y001755752D01*
X000011696Y001744159D01*
X000006627Y001731922D01*
X000002960Y001719195D01*
X000000742Y001706137D01*
X000000000Y001692913D01*
X000000000Y000118110D01*
X000000742Y000104886D01*
X000002960Y000091828D01*
X000006627Y000079101D01*
X000011696Y000066864D01*
X000018103Y000055272D01*
X000025767Y000044470D01*
X000034593Y000034594D01*
X000044469Y000025768D01*
X000055271Y000018103D01*
X000066864Y000011696D01*
X000079100Y000006628D01*
X000091827Y000002961D01*
X000104885Y000000742D01*
X000118110Y000000000D01*
X001574803Y000000000D01*
X001588026Y000000742D01*
X001601084Y000002961D01*
X001613812Y000006628D01*
X001626048Y000011696D01*
X001637641Y000018103D01*
X001648442Y000025768D01*
X001658319Y000034593D01*
X001667144Y000044470D01*
X001674809Y000055272D01*
X001681216Y000066864D01*
X001686284Y000079101D01*
X001689951Y000091828D01*
X001692170Y000104886D01*
X001692913Y000118110D01*
X001692913Y000470876D01*
X001692980Y000473174D01*
X001693181Y000475464D01*
X001693515Y000477738D01*
X001693982Y000479989D01*
X001694579Y000482209D01*
X001695305Y000484390D01*
X001696157Y000486525D01*
X001697132Y000488607D01*
X001698226Y000490629D01*
X001699437Y000492583D01*
X001700760Y000494463D01*
X001702191Y000496262D01*
X001703723Y000497975D01*
X001705354Y000499596D01*
X001707076Y000501119D01*
X001708884Y000502538D01*
X001710772Y000503850D01*
X001712733Y000505049D01*
X001714761Y000506132D01*
X001716848Y000507094D01*
X001736533Y000515483D01*
X001740177Y000516828D01*
X001743935Y000517807D01*
X001747771Y000518411D01*
X001751648Y000518634D01*
X001755528Y000518473D01*
X001759374Y000517932D01*
X001763148Y000517014D01*
X001766812Y000515729D01*
X001770333Y000514089D01*
X001773674Y000512110D01*
X001776805Y000509812D01*
X001779693Y000507216D01*
X001782312Y000504349D01*
X001784636Y000501237D01*
X001786642Y000497912D01*
X001788310Y000494405D01*
X001789625Y000490751D01*
X001790574Y000486985D01*
X001791146Y000483144D01*
X001791338Y000479265D01*
X001791338Y000078740D01*
X001792307Y000066422D01*
X001795192Y000054408D01*
X001799920Y000042993D01*
X001806376Y000032458D01*
X001814400Y000023062D01*
X001823795Y000015038D01*
X001834330Y000008582D01*
X001845746Y000003853D01*
X001857760Y000000969D01*
X001870078Y000000000D01*
X003212597Y000000000D01*
X003224915Y000000969D01*
X003236930Y000003853D01*
X003248344Y000008582D01*
X003258879Y000015038D01*
X003268275Y000023062D01*
X003276300Y000032458D01*
X003282755Y000042993D01*
X003287484Y000054408D01*
X003290368Y000066422D01*
X003291338Y000078740D01*
X003291338Y001121259D01*
X003290368Y001133577D01*
X003287484Y001145592D01*
X003282755Y001157007D01*
X003276300Y001167541D01*
X003268275Y001176937D01*
X003258879Y001184962D01*
X003248345Y001191418D01*
X003236930Y001196146D01*
X003224915Y001199030D01*
X003212597Y001199999D01*
X002657313Y001199999D01*
X002654224Y001200121D01*
X002651154Y001200484D01*
X002648122Y001201087D01*
X002645147Y001201926D01*
X002642246Y001202996D01*
X002639439Y001204291D01*
X002636742Y001205801D01*
X002634172Y001207518D01*
X002631744Y001209432D01*
X002629474Y001211531D01*
X002627376Y001213801D01*
X002625462Y001216228D01*
X002623744Y001218799D01*
X002622234Y001221496D01*
X002620940Y001224303D01*
X002619870Y001227204D01*
X002619030Y001230179D01*
X002618427Y001233211D01*
X002618064Y001236281D01*
X002617943Y001239370D01*
X002617943Y001259055D01*
X002618064Y001262144D01*
X002618427Y001265214D01*
X002619030Y001268245D01*
X002619870Y001271221D01*
X002620940Y001274121D01*
X002622234Y001276928D01*
X002623744Y001279626D01*
X002625462Y001282196D01*
X002627376Y001284624D01*
X002629474Y001286894D01*
X002631744Y001288992D01*
X002634172Y001290906D01*
X002636742Y001292623D01*
X002639439Y001294134D01*
X002642246Y001295428D01*
X002645147Y001296498D01*
X002648122Y001297337D01*
X002651154Y001297940D01*
X002654224Y001298303D01*
X002657313Y001298425D01*
X003212597Y001298425D01*
X003224915Y001299394D01*
X003236930Y001302279D01*
X003248344Y001307007D01*
X003258879Y001313463D01*
X003268275Y001321487D01*
X003276300Y001330883D01*
X003282755Y001341418D01*
X003287484Y001352833D01*
X003290368Y001364847D01*
X003291338Y001377165D01*
X003291338Y002419684D01*
X003290368Y002432002D01*
X003287484Y002444017D01*
X003282755Y002455432D01*
X003276300Y002465967D01*
X003268275Y002475363D01*
X003258879Y002483387D01*
X003248345Y002489843D01*
X003236930Y002494571D01*
X003224915Y002497455D01*
X003212597Y002498425D01*
X002657313Y002498425D01*
X002654224Y002498546D01*
X002651154Y002498909D01*
X002648122Y002499512D01*
X002645147Y002500352D01*
X002642246Y002501421D01*
X002639439Y002502716D01*
X002636742Y002504226D01*
X002634172Y002505944D01*
X002631744Y002507857D01*
X002629474Y002509956D01*
X002627376Y002512226D01*
X002625462Y002514654D01*
X002623744Y002517224D01*
X002622234Y002519921D01*
X002620940Y002522728D01*
X002619870Y002525629D01*
X002619030Y002528604D01*
X002618427Y002531636D01*
X002618064Y002534706D01*
X002617943Y002537795D01*
X002617943Y002557480D01*
X002618064Y002560569D01*
X002618427Y002563639D01*
X002619030Y002566671D01*
X002619870Y002569646D01*
X002620940Y002572546D01*
X002622234Y002575353D01*
X002623744Y002578051D01*
X002625462Y002580621D01*
X002627376Y002583049D01*
X002629474Y002585319D01*
X002631744Y002587417D01*
X002634172Y002589331D01*
X002636742Y002591048D01*
X002639439Y002592559D01*
X002642246Y002593853D01*
X002645147Y002594923D01*
X002648122Y002595762D01*
X002651154Y002596365D01*
X002654224Y002596729D01*
X002657313Y002596850D01*
X003212597Y002596850D01*
X003224915Y002597820D01*
X003236930Y002600704D01*
X003248344Y002605432D01*
X003258879Y002611888D01*
X003268275Y002619912D01*
X003276300Y002629308D01*
X003282755Y002639843D01*
X003287484Y002651258D01*
X003290368Y002663273D01*
X003291338Y002675590D01*
X003291338Y003718110D01*
X003290368Y003730427D01*
X003287484Y003742442D01*
X003282755Y003753857D01*
X003276300Y003764392D01*
X003268275Y003773788D01*
X003258879Y003781812D01*
X003248345Y003788268D01*
X003236930Y003792996D01*
X003224915Y003795880D01*
X003212597Y003796850D01*
X001870078Y003796850D01*
X001857760Y003795880D01*
X001845746Y003792996D01*
X001834330Y003788268D01*
X001823795Y003781812D01*
X001814400Y003773788D01*
X001806376Y003764392D01*
X001799920Y003753857D01*
X001795192Y003742442D01*
X001792307Y003730427D01*
X001791338Y003718110D01*
X001791338Y003221522D01*
X001791146Y003217643D01*
X001790574Y003213802D01*
X001789625Y003210036D01*
X001788310Y003206382D01*
X001786642Y003202875D01*
X001784636Y003199549D01*
X001782312Y003196438D01*
X001779693Y003193570D01*
X001776805Y003190974D01*
X001773674Y003188676D01*
X001770333Y003186697D01*
X001766812Y003185057D01*
X001763148Y003183772D01*
X001759374Y003182854D01*
X001755528Y003182313D01*
X001751648Y003182153D01*
X001747771Y003182376D01*
X001743935Y003182980D01*
X001740177Y003183959D01*
X001736533Y003185303D01*
X001716848Y003193692D01*
X001714761Y003194654D01*
X001712733Y003195737D01*
X001710772Y003196937D01*
X001708884Y003198248D01*
X001707076Y003199668D01*
X001705354Y003201191D01*
X001703723Y003202811D01*
X001702191Y003204524D01*
X001700760Y003206324D01*
X001699437Y003208204D01*
X001698226Y003210158D01*
X001697132Y003212179D01*
X001696157Y003214261D01*
X001695305Y003216396D01*
X001694579Y003218577D01*
X001693982Y003220797D01*
X001693515Y003223048D01*
X001693181Y003225323D01*
X001692980Y003227613D01*
X001692913Y003229910D01*
X001692913Y003602362D01*
X001692170Y003615586D01*
X001689951Y003628644D01*
X001686284Y003641371D01*
X001681216Y003653608D01*
X001674809Y003665200D01*
X001667144Y003676002D01*
X001658319Y003685878D01*
X001648442Y003694704D01*
X001637641Y003702369D01*
X001626048Y003708775D01*
X001613812Y003713844D01*
X001601084Y003717511D01*
X001588026Y003719730D01*
X001574803Y003720472D01*
X000118110Y003720472D01*
X000104885Y003719730D01*
X000091827Y003717511D01*
X000079100Y003713844D01*
X000066864Y003708775D01*
X000055271Y003702369D01*
X000044469Y003694704D01*
X000034593Y003685878D01*
X000025767Y003676002D01*
X000018103Y003665200D01*
X000011696Y003653608D01*
X000006627Y003641371D01*
X000002960Y003628644D01*
X000000742Y003615586D01*
X000000000Y003602362D01*
X000000000Y002027559D01*
X000000742Y002014335D01*
X000002960Y002001277D01*
X000006627Y001988550D01*
X000011696Y001976313D01*
X000018103Y001964720D01*
X000025767Y001953918D01*
X000034593Y001944042D01*
X000044469Y001935217D01*
X000055271Y001927552D01*
X000066864Y001921145D01*
X000079100Y001916077D01*
X000091827Y001912410D01*
X000104885Y001910191D01*
X000118110Y001909449D01*
X000730481Y001909449D01*
X000733570Y001909327D01*
X000736640Y001908964D01*
X000739672Y001908361D01*
X000742647Y001907522D01*
X000745548Y001906452D01*
X000748355Y001905157D01*
X000751052Y001903647D01*
X000753623Y001901930D01*
X000756050Y001900016D01*
X000758320Y001897917D01*
X000760419Y001895647D01*
X000762332Y001893220D01*
X000764050Y001890649D01*
X000765560Y001887952D01*
X000766855Y001885145D01*
X000767925Y001882245D01*
X000768764Y001879269D01*
X000769367Y001876237D01*
X000769730Y001873167D01*
X000769851Y001870078D01*
X000769851Y001850393D01*
X000769730Y001847304D01*
X000769367Y001844234D01*
X000768764Y001841203D01*
X000767925Y001838227D01*
X000766855Y001835327D01*
X000765560Y001832520D01*
X000764050Y001829823D01*
X000762332Y001827252D01*
X000760419Y001824824D01*
X000758320Y001822554D01*
X000756050Y001820456D01*
X000753623Y001818542D01*
X000751052Y001816825D01*
X000748355Y001815314D01*
X000745548Y001814020D01*
X000742647Y001812950D01*
X000739672Y001812111D01*
X000736640Y001811508D01*
X000733570Y001811145D01*
X000730481Y001811023D01*
X001791338Y002355380D02*
X001791338Y002355380D01*
X001791146Y002351501D01*
X001790574Y002347660D01*
X001789625Y002343894D01*
X001788310Y002340240D01*
X001786642Y002336733D01*
X001784636Y002333408D01*
X001782312Y002330296D01*
X001779693Y002327428D01*
X001776805Y002324833D01*
X001773674Y002322534D01*
X001770333Y002320556D01*
X001766812Y002318916D01*
X001763148Y002317631D01*
X001759374Y002316713D01*
X001755528Y002316171D01*
X001751648Y002316011D01*
X001747771Y002316234D01*
X001743935Y002316838D01*
X001740177Y002317817D01*
X001736533Y002319161D01*
X001716848Y002327550D01*
X001714761Y002328513D01*
X001712733Y002329596D01*
X001710772Y002330795D01*
X001708884Y002332106D01*
X001707076Y002333526D01*
X001705354Y002335049D01*
X001703723Y002336670D01*
X001702191Y002338383D01*
X001700760Y002340182D01*
X001699437Y002342062D01*
X001698226Y002344016D01*
X001697132Y002346038D01*
X001696157Y002348119D01*
X001695305Y002350254D01*
X001694579Y002352436D01*
X001693982Y002354656D01*
X001693515Y002356907D01*
X001693181Y002359181D01*
X001692980Y002361471D01*
X001692913Y002363769D01*
X001692913Y002990561D01*
X001692980Y002992859D01*
X001693181Y002995149D01*
X001693515Y002997423D01*
X001693982Y002999674D01*
X001694579Y003001894D01*
X001695305Y003004075D01*
X001696157Y003006210D01*
X001697132Y003008292D01*
X001698226Y003010314D01*
X001699437Y003012268D01*
X001700760Y003014148D01*
X001702191Y003015947D01*
X001703723Y003017660D01*
X001705354Y003019281D01*
X001707076Y003020804D01*
X001708884Y003022223D01*
X001710772Y003023535D01*
X001712733Y003024734D01*
X001714761Y003025817D01*
X001716848Y003026780D01*
X001736533Y003035168D01*
X001740177Y003036513D01*
X001743935Y003037492D01*
X001747771Y003038096D01*
X001751648Y003038319D01*
X001755528Y003038159D01*
X001759374Y003037617D01*
X001763148Y003036699D01*
X001766812Y003035414D01*
X001770333Y003033774D01*
X001773674Y003031795D01*
X001776805Y003029497D01*
X001779693Y003026901D01*
X001782312Y003024034D01*
X001784636Y003020922D01*
X001786642Y003017597D01*
X001788310Y003014090D01*
X001789625Y003010436D01*
X001790574Y003006670D01*
X001791146Y003002829D01*
X001791338Y002998950D01*
X001791338Y002675590D01*
X001792307Y002663273D01*
X001795192Y002651258D01*
X001799920Y002639843D01*
X001806376Y002629308D01*
X001814400Y002619912D01*
X001823795Y002611888D01*
X001834330Y002605432D01*
X001845746Y002600704D01*
X001857760Y002597820D01*
X001870078Y002596850D01*
X002425363Y002596850D01*
X002428452Y002596729D01*
X002431522Y002596365D01*
X002434554Y002595762D01*
X002437529Y002594923D01*
X002440430Y002593853D01*
X002443237Y002592559D01*
X002445934Y002591048D01*
X002448504Y002589331D01*
X002450932Y002587417D01*
X002453202Y002585319D01*
X002455300Y002583049D01*
X002457214Y002580621D01*
X002458932Y002578051D01*
X002460442Y002575353D01*
X002461736Y002572546D01*
X002462806Y002569646D01*
X002463646Y002566671D01*
X002464249Y002563639D01*
X002464612Y002560569D01*
X002464733Y002557480D01*
X002464733Y002537795D01*
X002464612Y002534706D01*
X002464249Y002531636D01*
X002463646Y002528604D01*
X002462806Y002525629D01*
X002461736Y002522728D01*
X002460442Y002519921D01*
X002458932Y002517224D01*
X002457214Y002514654D01*
X002455300Y002512226D01*
X002453202Y002509956D01*
X002450932Y002507857D01*
X002448504Y002505944D01*
X002445934Y002504226D01*
X002443237Y002502716D01*
X002440430Y002501421D01*
X002437529Y002500352D01*
X002434554Y002499512D01*
X002431522Y002498909D01*
X002428452Y002498546D01*
X002425363Y002498425D01*
X001870078Y002498425D01*
X001857760Y002497455D01*
X001845746Y002494571D01*
X001834330Y002489843D01*
X001823795Y002483387D01*
X001814400Y002475363D01*
X001806376Y002465967D01*
X001799920Y002455432D01*
X001795192Y002444017D01*
X001792307Y002432002D01*
X001791338Y002419684D01*
X001791338Y002355380D01*
X001692913Y001455128D02*
X001692913Y001455128D01*
X001692980Y001457426D01*
X001693181Y001459716D01*
X001693515Y001461990D01*
X001693982Y001464241D01*
X001694579Y001466461D01*
X001695305Y001468642D01*
X001696157Y001470777D01*
X001697132Y001472859D01*
X001698226Y001474880D01*
X001699437Y001476834D01*
X001700760Y001478714D01*
X001702191Y001480514D01*
X001703723Y001482227D01*
X001705354Y001483848D01*
X001707076Y001485371D01*
X001708884Y001486790D01*
X001710772Y001488102D01*
X001712733Y001489301D01*
X001714761Y001490384D01*
X001716848Y001491346D01*
X001736533Y001499735D01*
X001740177Y001501080D01*
X001743935Y001502059D01*
X001747771Y001502662D01*
X001751648Y001502886D01*
X001755528Y001502725D01*
X001759374Y001502184D01*
X001763148Y001501266D01*
X001766812Y001499981D01*
X001770333Y001498341D01*
X001773674Y001496362D01*
X001776805Y001494064D01*
X001779693Y001491468D01*
X001782312Y001488601D01*
X001784636Y001485489D01*
X001786642Y001482164D01*
X001788310Y001478657D01*
X001789625Y001475003D01*
X001790574Y001471237D01*
X001791146Y001467396D01*
X001791338Y001463517D01*
X001791338Y001377165D01*
X001792307Y001364847D01*
X001795192Y001352833D01*
X001799920Y001341418D01*
X001806376Y001330883D01*
X001814400Y001321487D01*
X001823795Y001313463D01*
X001834330Y001307007D01*
X001845746Y001302279D01*
X001857760Y001299394D01*
X001870078Y001298425D01*
X002425363Y001298425D01*
X002428452Y001298303D01*
X002431522Y001297940D01*
X002434554Y001297337D01*
X002437529Y001296498D01*
X002440430Y001295428D01*
X002443237Y001294134D01*
X002445934Y001292623D01*
X002448504Y001290906D01*
X002450932Y001288992D01*
X002453202Y001286894D01*
X002455300Y001284624D01*
X002457214Y001282196D01*
X002458932Y001279626D01*
X002460442Y001276928D01*
X002461736Y001274121D01*
X002462806Y001271221D01*
X002463646Y001268245D01*
X002464249Y001265214D01*
X002464612Y001262144D01*
X002464733Y001259055D01*
X002464733Y001239370D01*
X002464612Y001236281D01*
X002464249Y001233211D01*
X002463646Y001230179D01*
X002462806Y001227204D01*
X002461736Y001224303D01*
X002460442Y001221496D01*
X002458932Y001218799D01*
X002457214Y001216228D01*
X002455300Y001213801D01*
X002453202Y001211531D01*
X002450932Y001209432D01*
X002448504Y001207518D01*
X002445934Y001205801D01*
X002443237Y001204291D01*
X002440430Y001202996D01*
X002437529Y001201926D01*
X002434554Y001201087D01*
X002431522Y001200484D01*
X002428452Y001200121D01*
X002425363Y001199999D01*
X001870078Y001199999D01*
X001857760Y001199030D01*
X001845746Y001196146D01*
X001834330Y001191418D01*
X001823795Y001184962D01*
X001814400Y001176937D01*
X001806376Y001167541D01*
X001799920Y001157007D01*
X001795192Y001145592D01*
X001792307Y001133577D01*
X001791338Y001121259D01*
X001791338Y000701837D01*
X001791146Y000697958D01*
X001790574Y000694117D01*
X001789625Y000690351D01*
X001788310Y000686697D01*
X001786642Y000683190D01*
X001784636Y000679864D01*
X001782312Y000676753D01*
X001779693Y000673885D01*
X001776805Y000671289D01*
X001773674Y000668991D01*
X001770333Y000667012D01*
X001766812Y000665372D01*
X001763148Y000664087D01*
X001759374Y000663169D01*
X001755528Y000662628D01*
X001751648Y000662468D01*
X001747771Y000662691D01*
X001743935Y000663295D01*
X001740177Y000664274D01*
X001736533Y000665618D01*
X001716848Y000674007D01*
X001714761Y000674969D01*
X001712733Y000676052D01*
X001710772Y000677251D01*
X001708884Y000678563D01*
X001707076Y000679983D01*
X001705354Y000681506D01*
X001703723Y000683126D01*
X001702191Y000684839D01*
X001700760Y000686639D01*
X001699437Y000688519D01*
X001698226Y000690473D01*
X001697132Y000692494D01*
X001696157Y000694576D01*
X001695305Y000696711D01*
X001694579Y000698892D01*
X001693982Y000701112D01*
X001693515Y000703363D01*
X001693181Y000705638D01*
X001692980Y000707928D01*
X001692913Y000710225D01*
X001692913Y001455128D01*
X001791338Y001686089D02*
X001791338Y001686089D01*
X001791129Y001682040D01*
X001790505Y001678034D01*
X001789472Y001674114D01*
X001788042Y001670320D01*
X001786229Y001666694D01*
X001784053Y001663273D01*
X001781537Y001660095D01*
X001778707Y001657192D01*
X001775593Y001654595D01*
X001772229Y001652332D01*
X001768650Y001650428D01*
X001764895Y001648901D01*
X001761002Y001647769D01*
X001757013Y001647043D01*
X001752971Y001646731D01*
X001748918Y001646837D01*
X001744898Y001647359D01*
X001740952Y001648291D01*
X001737124Y001649624D01*
X001733452Y001651344D01*
X001713619Y001661913D01*
X001711864Y001662907D01*
X001710161Y001663990D01*
X001708516Y001665159D01*
X001706934Y001666410D01*
X001705417Y001667741D01*
X001703971Y001669147D01*
X001702599Y001670626D01*
X001701304Y001672174D01*
X001700090Y001673785D01*
X001698960Y001675457D01*
X001697918Y001677184D01*
X001696965Y001678963D01*
X001696105Y001680788D01*
X001695339Y001682654D01*
X001694670Y001684558D01*
X001694099Y001686493D01*
X001693629Y001688455D01*
X001693259Y001690438D01*
X001692991Y001692438D01*
X001692827Y001694449D01*
X001692170Y001706137D01*
X001689951Y001719195D01*
X001686284Y001731922D01*
X001681216Y001744159D01*
X001674809Y001755752D01*
X001667144Y001766553D01*
X001658319Y001776429D01*
X001648442Y001785255D01*
X001637641Y001792920D01*
X001626048Y001799327D01*
X001613812Y001804395D01*
X001601084Y001808062D01*
X001588026Y001810281D01*
X001574803Y001811023D01*
X000962431Y001811023D01*
X000959342Y001811145D01*
X000956272Y001811508D01*
X000953240Y001812111D01*
X000950265Y001812950D01*
X000947365Y001814020D01*
X000944557Y001815314D01*
X000941860Y001816825D01*
X000939290Y001818542D01*
X000936862Y001820456D01*
X000934592Y001822554D01*
X000932494Y001824825D01*
X000930580Y001827252D01*
X000928862Y001829823D01*
X000927352Y001832520D01*
X000926058Y001835327D01*
X000924988Y001838227D01*
X000924149Y001841203D01*
X000923546Y001844234D01*
X000923182Y001847304D01*
X000923061Y001850393D01*
X000923061Y001870078D01*
X000923182Y001873167D01*
X000923546Y001876237D01*
X000924149Y001879269D01*
X000924988Y001882244D01*
X000926058Y001885145D01*
X000927352Y001887952D01*
X000928862Y001890649D01*
X000930580Y001893220D01*
X000932494Y001895647D01*
X000934592Y001897917D01*
X000936862Y001900016D01*
X000939290Y001901930D01*
X000941860Y001903647D01*
X000944557Y001905157D01*
X000947365Y001906452D01*
X000950265Y001907522D01*
X000953240Y001908361D01*
X000956272Y001908964D01*
X000959342Y001909327D01*
X000962431Y001909449D01*
X001574803Y001909448D01*
X001588026Y001910191D01*
X001601084Y001912410D01*
X001613812Y001916077D01*
X001626048Y001921145D01*
X001637641Y001927552D01*
X001648442Y001935217D01*
X001658319Y001944042D01*
X001667144Y001953918D01*
X001674809Y001964720D01*
X001681216Y001976313D01*
X001686284Y001988550D01*
X001689951Y002001277D01*
X001692170Y002014335D01*
X001692913Y002027559D01*
X001692913Y002124419D01*
X001692980Y002126717D01*
X001693181Y002129007D01*
X001693515Y002131281D01*
X001693982Y002133532D01*
X001694579Y002135752D01*
X001695305Y002137933D01*
X001696157Y002140069D01*
X001697132Y002142150D01*
X001698226Y002144172D01*
X001699437Y002146126D01*
X001700760Y002148006D01*
X001702191Y002149805D01*
X001703723Y002151518D01*
X001705354Y002153139D01*
X001707076Y002154662D01*
X001708884Y002156082D01*
X001710772Y002157393D01*
X001712733Y002158592D01*
X001714761Y002159675D01*
X001716848Y002160638D01*
X001736533Y002169027D01*
X001740177Y002170371D01*
X001743935Y002171350D01*
X001747771Y002171954D01*
X001751648Y002172177D01*
X001755528Y002172017D01*
X001759374Y002171475D01*
X001763148Y002170557D01*
X001766812Y002169272D01*
X001770333Y002167632D01*
X001773674Y002165654D01*
X001776805Y002163355D01*
X001779693Y002160760D01*
X001782312Y002157892D01*
X001784636Y002154780D01*
X001786642Y002151455D01*
X001788310Y002147948D01*
X001789625Y002144294D01*
X001790574Y002140528D01*
X001791146Y002136687D01*
X001791338Y002132808D01*
X001791338Y001686089D01*
M02*