%MOIN*%
%OFA0B0*%
%FSLAX46Y46*%
%IPPOS*%
%LPD*%
%ADD10C,0.0039370078740157488*%
%ADD21C,0.0039370078740157488*%
%ADD22C,0.0039370078740157488*%
%ADD23C,0.0039370078740157488*%
%ADD24C,0.0039370078740157488*%
D10*
G36*
X0001597207Y0000191969D02*
G01*
X0001611186Y0000186179D01*
X0001611186Y0000186179D01*
X0001623767Y0000177773D01*
X0001634466Y0000167074D01*
X0001642872Y0000154493D01*
X0001642872Y0000154493D01*
X0001648662Y0000140515D01*
X0001651614Y0000125675D01*
X0001651614Y0000110544D01*
X0001648662Y0000095705D01*
X0001642872Y0000081726D01*
X0001642872Y0000081726D01*
X0001634466Y0000069146D01*
X0001623767Y0000058447D01*
X0001611186Y0000050041D01*
X0001611186Y0000050041D01*
X0001611186Y0000050041D01*
X0001597207Y0000044250D01*
X0001582368Y0000041299D01*
X0001567237Y0000041299D01*
X0001552398Y0000044250D01*
X0001538419Y0000050041D01*
X0001538419Y0000050041D01*
X0001538419Y0000050041D01*
X0001525838Y0000058447D01*
X0001515140Y0000069146D01*
X0001506734Y0000081726D01*
X0001506733Y0000081726D01*
X0001500943Y0000095705D01*
X0001497992Y0000110544D01*
X0001497992Y0000125675D01*
X0001500943Y0000140515D01*
X0001506733Y0000154493D01*
X0001506734Y0000154493D01*
X0001515140Y0000167074D01*
X0001525838Y0000177773D01*
X0001538419Y0000186179D01*
X0001538419Y0000186179D01*
X0001552398Y0000191969D01*
X0001567237Y0000194921D01*
X0001582368Y0000194921D01*
X0001597207Y0000191969D01*
X0001597207Y0000191969D01*
G37*
G36*
X0000140515Y0000191969D02*
G01*
X0000154493Y0000186179D01*
X0000154493Y0000186179D01*
X0000167074Y0000177773D01*
X0000177773Y0000167074D01*
X0000186179Y0000154493D01*
X0000186179Y0000154493D01*
X0000191969Y0000140515D01*
X0000194921Y0000125675D01*
X0000194921Y0000110544D01*
X0000191969Y0000095705D01*
X0000186179Y0000081726D01*
X0000186179Y0000081726D01*
X0000177773Y0000069146D01*
X0000167074Y0000058447D01*
X0000154493Y0000050041D01*
X0000154493Y0000050041D01*
X0000154493Y0000050041D01*
X0000140515Y0000044250D01*
X0000125675Y0000041299D01*
X0000110544Y0000041299D01*
X0000095705Y0000044250D01*
X0000081726Y0000050041D01*
X0000081726Y0000050041D01*
X0000081726Y0000050041D01*
X0000069146Y0000058447D01*
X0000058447Y0000069146D01*
X0000050041Y0000081726D01*
X0000050041Y0000081726D01*
X0000044250Y0000095705D01*
X0000041299Y0000110544D01*
X0000041299Y0000125675D01*
X0000044250Y0000140515D01*
X0000050041Y0000154493D01*
X0000050041Y0000154493D01*
X0000058447Y0000167074D01*
X0000069146Y0000177773D01*
X0000081726Y0000186179D01*
X0000081726Y0000186179D01*
X0000095705Y0000191969D01*
X0000110544Y0000194921D01*
X0000125675Y0000194921D01*
X0000140515Y0000191969D01*
X0000140515Y0000191969D01*
G37*
G36*
X0001256662Y0000234617D02*
G01*
X0001262759Y0000232092D01*
X0001268247Y0000228425D01*
X0001272913Y0000223759D01*
X0001276580Y0000218271D01*
X0001279106Y0000212174D01*
X0001280393Y0000205701D01*
X0001280393Y0000199101D01*
X0001279106Y0000192628D01*
X0001276580Y0000186531D01*
X0001272913Y0000181044D01*
X0001268247Y0000176377D01*
X0001262759Y0000172710D01*
X0001256662Y0000170185D01*
X0001250189Y0000168897D01*
X0001243589Y0000168897D01*
X0001237116Y0000170185D01*
X0001231019Y0000172710D01*
X0001225532Y0000176377D01*
X0001220865Y0000181044D01*
X0001217198Y0000186531D01*
X0001214673Y0000192628D01*
X0001213385Y0000199101D01*
X0001213385Y0000205701D01*
X0001214673Y0000212174D01*
X0001217198Y0000218271D01*
X0001220865Y0000223759D01*
X0001225532Y0000228425D01*
X0001231019Y0000232092D01*
X0001237116Y0000234617D01*
X0001243589Y0000235905D01*
X0001250189Y0000235905D01*
X0001256662Y0000234617D01*
X0001256662Y0000234617D01*
G37*
G36*
X0001452381Y0000280197D02*
G01*
X0001461702Y0000276335D01*
X0001461702Y0000276335D01*
X0001470092Y0000270730D01*
X0001477226Y0000263596D01*
X0001482831Y0000255206D01*
X0001486692Y0000245885D01*
X0001488661Y0000235989D01*
X0001488661Y0000225900D01*
X0001486692Y0000216004D01*
X0001485106Y0000212174D01*
X0001482831Y0000206682D01*
X0001477226Y0000198293D01*
X0001470092Y0000191159D01*
X0001461702Y0000185553D01*
X0001461702Y0000185553D01*
X0001461702Y0000185553D01*
X0001452381Y0000181692D01*
X0001442485Y0000179724D01*
X0001432396Y0000179724D01*
X0001422500Y0000181692D01*
X0001413178Y0000185553D01*
X0001413178Y0000185553D01*
X0001413178Y0000185553D01*
X0001404789Y0000191159D01*
X0001397655Y0000198293D01*
X0001392049Y0000206682D01*
X0001389775Y0000212174D01*
X0001388188Y0000216004D01*
X0001386220Y0000225900D01*
X0001386220Y0000235989D01*
X0001388188Y0000245885D01*
X0001392049Y0000255206D01*
X0001397655Y0000263596D01*
X0001404789Y0000270730D01*
X0001413178Y0000276335D01*
X0001413178Y0000276335D01*
X0001422500Y0000280197D01*
X0001432396Y0000282165D01*
X0001442485Y0000282165D01*
X0001452381Y0000280197D01*
X0001452381Y0000280197D01*
G37*
G36*
X0001357810Y0000658285D02*
G01*
X0001364624Y0000655463D01*
X0001364624Y0000655463D01*
X0001370756Y0000651365D01*
X0001375971Y0000646150D01*
X0001375972Y0000646150D01*
X0001380069Y0000640018D01*
X0001382891Y0000633204D01*
X0001384330Y0000625971D01*
X0001384330Y0000618595D01*
X0001382891Y0000611362D01*
X0001380069Y0000604548D01*
X0001380069Y0000604548D01*
X0001375971Y0000598416D01*
X0001370756Y0000593201D01*
X0001367669Y0000591138D01*
X0001364624Y0000589103D01*
X0001359135Y0000586830D01*
X0001358284Y0000586375D01*
X0001357538Y0000585763D01*
X0001356926Y0000585017D01*
X0001356472Y0000584166D01*
X0001356192Y0000583243D01*
X0001356097Y0000582283D01*
X0001356192Y0000581323D01*
X0001356472Y0000580400D01*
X0001356926Y0000579549D01*
X0001357538Y0000578803D01*
X0001358284Y0000578191D01*
X0001359135Y0000577736D01*
X0001364624Y0000575463D01*
X0001367669Y0000573428D01*
X0001370756Y0000571365D01*
X0001375971Y0000566150D01*
X0001375972Y0000566150D01*
X0001380069Y0000560018D01*
X0001382891Y0000553204D01*
X0001384330Y0000545971D01*
X0001384330Y0000538595D01*
X0001382891Y0000531362D01*
X0001380069Y0000524548D01*
X0001380069Y0000524548D01*
X0001375971Y0000518416D01*
X0001370756Y0000513201D01*
X0001367669Y0000511138D01*
X0001364624Y0000509103D01*
X0001359135Y0000506830D01*
X0001358284Y0000506375D01*
X0001357538Y0000505763D01*
X0001356926Y0000505017D01*
X0001356472Y0000504166D01*
X0001356192Y0000503243D01*
X0001356097Y0000502283D01*
X0001356192Y0000501323D01*
X0001356472Y0000500400D01*
X0001356926Y0000499549D01*
X0001357538Y0000498803D01*
X0001358284Y0000498191D01*
X0001359135Y0000497736D01*
X0001364624Y0000495463D01*
X0001364624Y0000495463D01*
X0001370756Y0000491365D01*
X0001375971Y0000486150D01*
X0001375972Y0000486150D01*
X0001380069Y0000480018D01*
X0001382891Y0000473204D01*
X0001384330Y0000465971D01*
X0001384330Y0000458595D01*
X0001382891Y0000451362D01*
X0001380069Y0000444548D01*
X0001380069Y0000444548D01*
X0001375971Y0000438416D01*
X0001370756Y0000433201D01*
X0001367669Y0000431138D01*
X0001364624Y0000429103D01*
X0001359135Y0000426830D01*
X0001358284Y0000426375D01*
X0001357538Y0000425763D01*
X0001356926Y0000425017D01*
X0001356472Y0000424166D01*
X0001356192Y0000423243D01*
X0001356097Y0000422283D01*
X0001356192Y0000421323D01*
X0001356472Y0000420400D01*
X0001356926Y0000419549D01*
X0001357538Y0000418803D01*
X0001358284Y0000418191D01*
X0001359135Y0000417736D01*
X0001364624Y0000415463D01*
X0001364624Y0000415463D01*
X0001370756Y0000411365D01*
X0001375971Y0000406150D01*
X0001375972Y0000406150D01*
X0001380069Y0000400018D01*
X0001382891Y0000393204D01*
X0001384330Y0000385971D01*
X0001384330Y0000378595D01*
X0001382891Y0000371362D01*
X0001380069Y0000364548D01*
X0001380069Y0000364548D01*
X0001375971Y0000358416D01*
X0001370756Y0000353201D01*
X0001367669Y0000351138D01*
X0001364624Y0000349103D01*
X0001357810Y0000346281D01*
X0001350577Y0000344842D01*
X0001343202Y0000344842D01*
X0001335968Y0000346281D01*
X0001329154Y0000349103D01*
X0001326109Y0000351138D01*
X0001323022Y0000353201D01*
X0001317807Y0000358416D01*
X0001313709Y0000364548D01*
X0001313709Y0000364548D01*
X0001310887Y0000371362D01*
X0001309448Y0000378595D01*
X0001309448Y0000385971D01*
X0001310887Y0000393204D01*
X0001313709Y0000400018D01*
X0001317807Y0000406150D01*
X0001317807Y0000406150D01*
X0001323022Y0000411365D01*
X0001329154Y0000415463D01*
X0001329154Y0000415463D01*
X0001334643Y0000417736D01*
X0001335494Y0000418191D01*
X0001336240Y0000418803D01*
X0001336852Y0000419549D01*
X0001337307Y0000420400D01*
X0001337587Y0000421323D01*
X0001337681Y0000422283D01*
X0001337587Y0000423243D01*
X0001337307Y0000424166D01*
X0001336852Y0000425017D01*
X0001336240Y0000425763D01*
X0001335494Y0000426375D01*
X0001334643Y0000426830D01*
X0001329154Y0000429103D01*
X0001326109Y0000431138D01*
X0001323022Y0000433201D01*
X0001317807Y0000438416D01*
X0001313709Y0000444548D01*
X0001313709Y0000444548D01*
X0001310887Y0000451362D01*
X0001309448Y0000458595D01*
X0001309448Y0000465971D01*
X0001310887Y0000473204D01*
X0001313709Y0000480018D01*
X0001317807Y0000486150D01*
X0001317807Y0000486150D01*
X0001323022Y0000491365D01*
X0001329154Y0000495463D01*
X0001329154Y0000495463D01*
X0001334643Y0000497736D01*
X0001335494Y0000498191D01*
X0001336240Y0000498803D01*
X0001336852Y0000499549D01*
X0001337307Y0000500400D01*
X0001337587Y0000501323D01*
X0001337681Y0000502283D01*
X0001337587Y0000503243D01*
X0001337307Y0000504166D01*
X0001336852Y0000505017D01*
X0001336240Y0000505763D01*
X0001335494Y0000506375D01*
X0001334643Y0000506830D01*
X0001329154Y0000509103D01*
X0001326109Y0000511138D01*
X0001323022Y0000513201D01*
X0001317807Y0000518416D01*
X0001313709Y0000524548D01*
X0001313709Y0000524548D01*
X0001310887Y0000531362D01*
X0001309448Y0000538595D01*
X0001309448Y0000545971D01*
X0001310887Y0000553204D01*
X0001313709Y0000560018D01*
X0001317807Y0000566150D01*
X0001317807Y0000566150D01*
X0001323022Y0000571365D01*
X0001326109Y0000573428D01*
X0001329154Y0000575463D01*
X0001334643Y0000577736D01*
X0001335494Y0000578191D01*
X0001336240Y0000578803D01*
X0001336852Y0000579549D01*
X0001337307Y0000580400D01*
X0001337587Y0000581323D01*
X0001337681Y0000582283D01*
X0001337587Y0000583243D01*
X0001337307Y0000584166D01*
X0001336852Y0000585017D01*
X0001336240Y0000585763D01*
X0001335494Y0000586375D01*
X0001334643Y0000586830D01*
X0001329154Y0000589103D01*
X0001326109Y0000591138D01*
X0001323022Y0000593201D01*
X0001317807Y0000598416D01*
X0001313709Y0000604548D01*
X0001313709Y0000604548D01*
X0001310887Y0000611362D01*
X0001309448Y0000618595D01*
X0001309448Y0000625971D01*
X0001310887Y0000633204D01*
X0001313709Y0000640018D01*
X0001317807Y0000646150D01*
X0001317807Y0000646150D01*
X0001323022Y0000651365D01*
X0001329154Y0000655463D01*
X0001329154Y0000655463D01*
X0001335968Y0000658285D01*
X0001343202Y0000659724D01*
X0001350577Y0000659724D01*
X0001357810Y0000658285D01*
X0001357810Y0000658285D01*
G37*
G36*
X0001257810Y0000698285D02*
G01*
X0001264624Y0000695463D01*
X0001264624Y0000695463D01*
X0001270756Y0000691365D01*
X0001275971Y0000686150D01*
X0001275972Y0000686150D01*
X0001280069Y0000680018D01*
X0001282891Y0000673204D01*
X0001284330Y0000665971D01*
X0001284330Y0000658595D01*
X0001282891Y0000651362D01*
X0001280069Y0000644548D01*
X0001280069Y0000644548D01*
X0001275971Y0000638416D01*
X0001270756Y0000633201D01*
X0001267669Y0000631138D01*
X0001264624Y0000629103D01*
X0001259135Y0000626830D01*
X0001258284Y0000626375D01*
X0001257538Y0000625763D01*
X0001256926Y0000625017D01*
X0001256472Y0000624166D01*
X0001256192Y0000623243D01*
X0001256097Y0000622283D01*
X0001256192Y0000621323D01*
X0001256472Y0000620400D01*
X0001256926Y0000619549D01*
X0001257538Y0000618803D01*
X0001258284Y0000618191D01*
X0001259135Y0000617736D01*
X0001264624Y0000615463D01*
X0001264624Y0000615463D01*
X0001270756Y0000611365D01*
X0001275971Y0000606150D01*
X0001275972Y0000606150D01*
X0001280069Y0000600018D01*
X0001282891Y0000593204D01*
X0001284330Y0000585971D01*
X0001284330Y0000578595D01*
X0001282891Y0000571362D01*
X0001280069Y0000564548D01*
X0001280069Y0000564548D01*
X0001275971Y0000558416D01*
X0001270756Y0000553201D01*
X0001267669Y0000551138D01*
X0001264624Y0000549103D01*
X0001259135Y0000546830D01*
X0001258284Y0000546375D01*
X0001257538Y0000545763D01*
X0001256926Y0000545017D01*
X0001256472Y0000544166D01*
X0001256192Y0000543243D01*
X0001256097Y0000542283D01*
X0001256192Y0000541323D01*
X0001256472Y0000540400D01*
X0001256926Y0000539549D01*
X0001257538Y0000538803D01*
X0001258284Y0000538191D01*
X0001259135Y0000537736D01*
X0001264624Y0000535463D01*
X0001264624Y0000535463D01*
X0001270756Y0000531365D01*
X0001275971Y0000526150D01*
X0001275972Y0000526150D01*
X0001280069Y0000520018D01*
X0001282891Y0000513204D01*
X0001284330Y0000505971D01*
X0001284330Y0000498595D01*
X0001282891Y0000491362D01*
X0001280069Y0000484548D01*
X0001280069Y0000484548D01*
X0001275971Y0000478416D01*
X0001270756Y0000473201D01*
X0001267960Y0000471332D01*
X0001264624Y0000469103D01*
X0001259135Y0000466830D01*
X0001258284Y0000466375D01*
X0001257538Y0000465763D01*
X0001256926Y0000465017D01*
X0001256472Y0000464166D01*
X0001256192Y0000463243D01*
X0001256097Y0000462283D01*
X0001256192Y0000461323D01*
X0001256472Y0000460400D01*
X0001256926Y0000459549D01*
X0001257538Y0000458803D01*
X0001258284Y0000458191D01*
X0001259135Y0000457736D01*
X0001264624Y0000455463D01*
X0001264624Y0000455463D01*
X0001270756Y0000451365D01*
X0001275971Y0000446150D01*
X0001275972Y0000446150D01*
X0001280069Y0000440018D01*
X0001282891Y0000433204D01*
X0001284330Y0000425971D01*
X0001284330Y0000418595D01*
X0001282891Y0000411362D01*
X0001280069Y0000404548D01*
X0001280069Y0000404548D01*
X0001275971Y0000398416D01*
X0001270756Y0000393201D01*
X0001267669Y0000391138D01*
X0001264624Y0000389103D01*
X0001257810Y0000386281D01*
X0001250577Y0000384842D01*
X0001243202Y0000384842D01*
X0001235968Y0000386281D01*
X0001229154Y0000389103D01*
X0001226109Y0000391138D01*
X0001223022Y0000393201D01*
X0001217807Y0000398416D01*
X0001213709Y0000404548D01*
X0001213709Y0000404548D01*
X0001210887Y0000411362D01*
X0001209448Y0000418595D01*
X0001209448Y0000425971D01*
X0001210887Y0000433204D01*
X0001213709Y0000440018D01*
X0001217807Y0000446150D01*
X0001217807Y0000446150D01*
X0001223022Y0000451365D01*
X0001229154Y0000455463D01*
X0001229154Y0000455463D01*
X0001234643Y0000457736D01*
X0001235494Y0000458191D01*
X0001236240Y0000458803D01*
X0001236852Y0000459549D01*
X0001237307Y0000460400D01*
X0001237587Y0000461323D01*
X0001237681Y0000462283D01*
X0001237587Y0000463243D01*
X0001237307Y0000464166D01*
X0001236852Y0000465017D01*
X0001236240Y0000465763D01*
X0001235494Y0000466375D01*
X0001234643Y0000466830D01*
X0001229154Y0000469103D01*
X0001225818Y0000471332D01*
X0001223022Y0000473201D01*
X0001217807Y0000478416D01*
X0001213709Y0000484548D01*
X0001213709Y0000484548D01*
X0001210887Y0000491362D01*
X0001209448Y0000498595D01*
X0001209448Y0000505971D01*
X0001210887Y0000513204D01*
X0001213709Y0000520018D01*
X0001217807Y0000526150D01*
X0001217807Y0000526150D01*
X0001223022Y0000531365D01*
X0001229154Y0000535463D01*
X0001229154Y0000535463D01*
X0001234643Y0000537736D01*
X0001235494Y0000538191D01*
X0001236240Y0000538803D01*
X0001236852Y0000539549D01*
X0001237307Y0000540400D01*
X0001237587Y0000541323D01*
X0001237681Y0000542283D01*
X0001237587Y0000543243D01*
X0001237307Y0000544166D01*
X0001236852Y0000545017D01*
X0001236240Y0000545763D01*
X0001235494Y0000546375D01*
X0001234643Y0000546830D01*
X0001229154Y0000549103D01*
X0001226109Y0000551138D01*
X0001223022Y0000553201D01*
X0001217807Y0000558416D01*
X0001213709Y0000564548D01*
X0001213709Y0000564548D01*
X0001210887Y0000571362D01*
X0001209448Y0000578595D01*
X0001209448Y0000585971D01*
X0001210887Y0000593204D01*
X0001213709Y0000600018D01*
X0001217807Y0000606150D01*
X0001217807Y0000606150D01*
X0001223022Y0000611365D01*
X0001229154Y0000615463D01*
X0001229154Y0000615463D01*
X0001234643Y0000617736D01*
X0001235494Y0000618191D01*
X0001236240Y0000618803D01*
X0001236852Y0000619549D01*
X0001237307Y0000620400D01*
X0001237587Y0000621323D01*
X0001237681Y0000622283D01*
X0001237587Y0000623243D01*
X0001237307Y0000624166D01*
X0001236852Y0000625017D01*
X0001236240Y0000625763D01*
X0001235494Y0000626375D01*
X0001234643Y0000626830D01*
X0001229154Y0000629103D01*
X0001226109Y0000631138D01*
X0001223022Y0000633201D01*
X0001217807Y0000638416D01*
X0001213709Y0000644548D01*
X0001213709Y0000644548D01*
X0001210887Y0000651362D01*
X0001209448Y0000658595D01*
X0001209448Y0000665971D01*
X0001210887Y0000673204D01*
X0001213709Y0000680018D01*
X0001217807Y0000686150D01*
X0001217807Y0000686150D01*
X0001223022Y0000691365D01*
X0001229154Y0000695463D01*
X0001229154Y0000695463D01*
X0001235968Y0000698285D01*
X0001243202Y0000699724D01*
X0001250577Y0000699724D01*
X0001257810Y0000698285D01*
X0001257810Y0000698285D01*
G37*
G36*
X0000857500Y0000479057D02*
G01*
X0000863378Y0000477888D01*
X0000869833Y0000475214D01*
X0000875643Y0000471332D01*
X0000880584Y0000466391D01*
X0000884466Y0000460582D01*
X0000887140Y0000454126D01*
X0000888503Y0000447273D01*
X0000888503Y0000440285D01*
X0000887140Y0000433432D01*
X0000884466Y0000426977D01*
X0000880584Y0000421167D01*
X0000875643Y0000416226D01*
X0000869833Y0000412344D01*
X0000863378Y0000409670D01*
X0000857500Y0000408501D01*
X0000856525Y0000408307D01*
X0000849537Y0000408307D01*
X0000848562Y0000408501D01*
X0000842684Y0000409670D01*
X0000836228Y0000412344D01*
X0000830419Y0000416226D01*
X0000825478Y0000421167D01*
X0000821596Y0000426977D01*
X0000818922Y0000433432D01*
X0000817558Y0000440285D01*
X0000817558Y0000447273D01*
X0000818922Y0000454126D01*
X0000821596Y0000460582D01*
X0000825478Y0000466391D01*
X0000830419Y0000471332D01*
X0000836228Y0000475214D01*
X0000842684Y0000477888D01*
X0000848562Y0000479057D01*
X0000849537Y0000479251D01*
X0000856525Y0000479251D01*
X0000857500Y0000479057D01*
X0000857500Y0000479057D01*
G37*
G36*
X0000257500Y0000479057D02*
G01*
X0000263378Y0000477888D01*
X0000269833Y0000475214D01*
X0000275643Y0000471332D01*
X0000280584Y0000466391D01*
X0000284466Y0000460582D01*
X0000287140Y0000454126D01*
X0000288503Y0000447273D01*
X0000288503Y0000440285D01*
X0000287140Y0000433432D01*
X0000284466Y0000426977D01*
X0000280584Y0000421167D01*
X0000275643Y0000416226D01*
X0000269833Y0000412344D01*
X0000263378Y0000409670D01*
X0000257500Y0000408501D01*
X0000256525Y0000408307D01*
X0000249537Y0000408307D01*
X0000248562Y0000408501D01*
X0000242684Y0000409670D01*
X0000236228Y0000412344D01*
X0000230419Y0000416226D01*
X0000225478Y0000421167D01*
X0000221596Y0000426977D01*
X0000218922Y0000433432D01*
X0000217558Y0000440285D01*
X0000217558Y0000447273D01*
X0000218922Y0000454126D01*
X0000221596Y0000460582D01*
X0000225478Y0000466391D01*
X0000230419Y0000471332D01*
X0000236228Y0000475214D01*
X0000242684Y0000477888D01*
X0000248562Y0000479057D01*
X0000249537Y0000479251D01*
X0000256525Y0000479251D01*
X0000257500Y0000479057D01*
X0000257500Y0000479057D01*
G37*
G36*
X0000857500Y0000579057D02*
G01*
X0000863378Y0000577888D01*
X0000869833Y0000575214D01*
X0000875643Y0000571332D01*
X0000880584Y0000566391D01*
X0000884466Y0000560582D01*
X0000887140Y0000554126D01*
X0000888503Y0000547273D01*
X0000888503Y0000540285D01*
X0000887140Y0000533432D01*
X0000884466Y0000526977D01*
X0000880584Y0000521167D01*
X0000875643Y0000516226D01*
X0000869833Y0000512344D01*
X0000863378Y0000509670D01*
X0000857500Y0000508501D01*
X0000856525Y0000508307D01*
X0000849537Y0000508307D01*
X0000848562Y0000508501D01*
X0000842684Y0000509670D01*
X0000836228Y0000512344D01*
X0000830419Y0000516226D01*
X0000825478Y0000521167D01*
X0000821596Y0000526977D01*
X0000818922Y0000533432D01*
X0000817558Y0000540285D01*
X0000817558Y0000547273D01*
X0000818922Y0000554126D01*
X0000821596Y0000560582D01*
X0000825478Y0000566391D01*
X0000830419Y0000571332D01*
X0000836228Y0000575214D01*
X0000842684Y0000577888D01*
X0000848562Y0000579057D01*
X0000849537Y0000579251D01*
X0000856525Y0000579251D01*
X0000857500Y0000579057D01*
X0000857500Y0000579057D01*
G37*
G36*
X0000257500Y0000579057D02*
G01*
X0000263378Y0000577888D01*
X0000269833Y0000575214D01*
X0000275643Y0000571332D01*
X0000280584Y0000566391D01*
X0000284466Y0000560582D01*
X0000287140Y0000554126D01*
X0000288503Y0000547273D01*
X0000288503Y0000540285D01*
X0000287140Y0000533432D01*
X0000284466Y0000526977D01*
X0000280584Y0000521167D01*
X0000275643Y0000516226D01*
X0000269833Y0000512344D01*
X0000263378Y0000509670D01*
X0000257500Y0000508501D01*
X0000256525Y0000508307D01*
X0000249537Y0000508307D01*
X0000248562Y0000508501D01*
X0000242684Y0000509670D01*
X0000236228Y0000512344D01*
X0000230419Y0000516226D01*
X0000225478Y0000521167D01*
X0000221596Y0000526977D01*
X0000218922Y0000533432D01*
X0000217558Y0000540285D01*
X0000217558Y0000547273D01*
X0000218922Y0000554126D01*
X0000221596Y0000560582D01*
X0000225478Y0000566391D01*
X0000230419Y0000571332D01*
X0000236228Y0000575214D01*
X0000242684Y0000577888D01*
X0000248562Y0000579057D01*
X0000249537Y0000579251D01*
X0000256525Y0000579251D01*
X0000257500Y0000579057D01*
X0000257500Y0000579057D01*
G37*
G36*
X0000857500Y0000679057D02*
G01*
X0000863378Y0000677888D01*
X0000869833Y0000675214D01*
X0000875643Y0000671332D01*
X0000880584Y0000666391D01*
X0000884466Y0000660582D01*
X0000887140Y0000654126D01*
X0000888503Y0000647273D01*
X0000888503Y0000640285D01*
X0000887140Y0000633432D01*
X0000884466Y0000626977D01*
X0000880584Y0000621167D01*
X0000875643Y0000616226D01*
X0000869833Y0000612344D01*
X0000863378Y0000609670D01*
X0000857500Y0000608501D01*
X0000856525Y0000608307D01*
X0000849537Y0000608307D01*
X0000848562Y0000608501D01*
X0000842684Y0000609670D01*
X0000836228Y0000612344D01*
X0000830419Y0000616226D01*
X0000825478Y0000621167D01*
X0000821596Y0000626977D01*
X0000818922Y0000633432D01*
X0000817558Y0000640285D01*
X0000817558Y0000647273D01*
X0000818922Y0000654126D01*
X0000821596Y0000660582D01*
X0000825478Y0000666391D01*
X0000830419Y0000671332D01*
X0000836228Y0000675214D01*
X0000842684Y0000677888D01*
X0000848562Y0000679057D01*
X0000849537Y0000679251D01*
X0000856525Y0000679251D01*
X0000857500Y0000679057D01*
X0000857500Y0000679057D01*
G37*
G36*
X0000257500Y0000679057D02*
G01*
X0000263378Y0000677888D01*
X0000269833Y0000675214D01*
X0000275643Y0000671332D01*
X0000280584Y0000666391D01*
X0000284466Y0000660582D01*
X0000287140Y0000654126D01*
X0000288503Y0000647273D01*
X0000288503Y0000640285D01*
X0000287140Y0000633432D01*
X0000284466Y0000626977D01*
X0000280584Y0000621167D01*
X0000275643Y0000616226D01*
X0000269833Y0000612344D01*
X0000263378Y0000609670D01*
X0000257500Y0000608501D01*
X0000256525Y0000608307D01*
X0000249537Y0000608307D01*
X0000248562Y0000608501D01*
X0000242684Y0000609670D01*
X0000236228Y0000612344D01*
X0000230419Y0000616226D01*
X0000225478Y0000621167D01*
X0000221596Y0000626977D01*
X0000218922Y0000633432D01*
X0000217558Y0000640285D01*
X0000217558Y0000647273D01*
X0000218922Y0000654126D01*
X0000221596Y0000660582D01*
X0000225478Y0000666391D01*
X0000230419Y0000671332D01*
X0000236228Y0000675214D01*
X0000242684Y0000677888D01*
X0000248562Y0000679057D01*
X0000249537Y0000679251D01*
X0000256525Y0000679251D01*
X0000257500Y0000679057D01*
X0000257500Y0000679057D01*
G37*
G36*
X0000263815Y0000779331D02*
G01*
X0000270544Y0000776544D01*
X0000270544Y0000776544D01*
X0000276599Y0000772497D01*
X0000281749Y0000767348D01*
X0000283739Y0000764369D01*
X0000285796Y0000761292D01*
X0000288583Y0000754563D01*
X0000290003Y0000747421D01*
X0000290003Y0000740137D01*
X0000288583Y0000732995D01*
X0000285796Y0000726266D01*
X0000285795Y0000726266D01*
X0000281749Y0000720210D01*
X0000276599Y0000715061D01*
X0000270544Y0000711014D01*
X0000270544Y0000711014D01*
X0000270544Y0000711014D01*
X0000263815Y0000708227D01*
X0000256672Y0000706807D01*
X0000249389Y0000706807D01*
X0000242246Y0000708227D01*
X0000235518Y0000711014D01*
X0000235518Y0000711014D01*
X0000235518Y0000711014D01*
X0000229462Y0000715061D01*
X0000224313Y0000720210D01*
X0000220266Y0000726266D01*
X0000220266Y0000726266D01*
X0000217479Y0000732995D01*
X0000216058Y0000740137D01*
X0000216058Y0000747421D01*
X0000217479Y0000754563D01*
X0000220266Y0000761292D01*
X0000222323Y0000764369D01*
X0000224313Y0000767348D01*
X0000229462Y0000772497D01*
X0000235518Y0000776544D01*
X0000235518Y0000776544D01*
X0000242246Y0000779331D01*
X0000249389Y0000780751D01*
X0000256672Y0000780751D01*
X0000263815Y0000779331D01*
X0000263815Y0000779331D01*
G37*
G36*
X0000857500Y0000779057D02*
G01*
X0000863378Y0000777888D01*
X0000869833Y0000775214D01*
X0000875643Y0000771332D01*
X0000880584Y0000766391D01*
X0000884466Y0000760582D01*
X0000887140Y0000754126D01*
X0000888503Y0000747273D01*
X0000888503Y0000740285D01*
X0000887140Y0000733432D01*
X0000884466Y0000726976D01*
X0000880584Y0000721167D01*
X0000875643Y0000716226D01*
X0000869833Y0000712344D01*
X0000863378Y0000709670D01*
X0000857500Y0000708501D01*
X0000856525Y0000708307D01*
X0000849537Y0000708307D01*
X0000848562Y0000708501D01*
X0000842684Y0000709670D01*
X0000836228Y0000712344D01*
X0000830419Y0000716226D01*
X0000825478Y0000721167D01*
X0000821596Y0000726976D01*
X0000818922Y0000733432D01*
X0000817558Y0000740285D01*
X0000817558Y0000747273D01*
X0000818922Y0000754126D01*
X0000821596Y0000760582D01*
X0000825478Y0000766391D01*
X0000830419Y0000771332D01*
X0000836228Y0000775214D01*
X0000842684Y0000777888D01*
X0000848562Y0000779057D01*
X0000849537Y0000779251D01*
X0000856525Y0000779251D01*
X0000857500Y0000779057D01*
X0000857500Y0000779057D01*
G37*
G36*
X0001452381Y0000862874D02*
G01*
X0001461702Y0000859013D01*
X0001461702Y0000859013D01*
X0001469016Y0000854126D01*
X0001470092Y0000853407D01*
X0001477226Y0000846273D01*
X0001482831Y0000837883D01*
X0001486692Y0000828562D01*
X0001488661Y0000818666D01*
X0001488661Y0000808577D01*
X0001486692Y0000798681D01*
X0001482831Y0000789360D01*
X0001482831Y0000789360D01*
X0001477226Y0000780970D01*
X0001470092Y0000773836D01*
X0001461702Y0000768231D01*
X0001461702Y0000768231D01*
X0001461702Y0000768231D01*
X0001452381Y0000764369D01*
X0001442485Y0000762401D01*
X0001432396Y0000762401D01*
X0001422500Y0000764369D01*
X0001413178Y0000768231D01*
X0001413178Y0000768231D01*
X0001413178Y0000768231D01*
X0001404789Y0000773836D01*
X0001397655Y0000780970D01*
X0001392049Y0000789360D01*
X0001392049Y0000789360D01*
X0001388188Y0000798681D01*
X0001386220Y0000808577D01*
X0001386220Y0000818666D01*
X0001388188Y0000828562D01*
X0001392049Y0000837883D01*
X0001397655Y0000846273D01*
X0001404789Y0000853407D01*
X0001405865Y0000854126D01*
X0001413178Y0000859013D01*
X0001413178Y0000859013D01*
X0001422500Y0000862874D01*
X0001432396Y0000864842D01*
X0001442485Y0000864842D01*
X0001452381Y0000862874D01*
X0001452381Y0000862874D01*
G37*
G36*
X0000857500Y0000879057D02*
G01*
X0000863378Y0000877888D01*
X0000869833Y0000875214D01*
X0000875643Y0000871332D01*
X0000880584Y0000866391D01*
X0000884466Y0000860582D01*
X0000887140Y0000854126D01*
X0000888503Y0000847273D01*
X0000888503Y0000840285D01*
X0000887140Y0000833432D01*
X0000884466Y0000826977D01*
X0000880584Y0000821167D01*
X0000875643Y0000816226D01*
X0000869833Y0000812344D01*
X0000863378Y0000809670D01*
X0000857883Y0000808577D01*
X0000856525Y0000808307D01*
X0000849537Y0000808307D01*
X0000848179Y0000808577D01*
X0000842684Y0000809670D01*
X0000836228Y0000812344D01*
X0000830419Y0000816226D01*
X0000825478Y0000821167D01*
X0000821596Y0000826977D01*
X0000818922Y0000833432D01*
X0000817558Y0000840285D01*
X0000817558Y0000847273D01*
X0000818922Y0000854126D01*
X0000821596Y0000860582D01*
X0000825478Y0000866391D01*
X0000830419Y0000871332D01*
X0000836228Y0000875214D01*
X0000842684Y0000877888D01*
X0000848562Y0000879057D01*
X0000849537Y0000879251D01*
X0000856525Y0000879251D01*
X0000857500Y0000879057D01*
X0000857500Y0000879057D01*
G37*
G36*
X0001256662Y0000874381D02*
G01*
X0001262759Y0000871856D01*
X0001268247Y0000868189D01*
X0001272913Y0000863522D01*
X0001276580Y0000858035D01*
X0001279106Y0000851938D01*
X0001280393Y0000845465D01*
X0001280393Y0000838865D01*
X0001279106Y0000832392D01*
X0001276580Y0000826295D01*
X0001272913Y0000820807D01*
X0001268247Y0000816141D01*
X0001262759Y0000812474D01*
X0001256662Y0000809948D01*
X0001250189Y0000808661D01*
X0001243589Y0000808661D01*
X0001237116Y0000809948D01*
X0001231019Y0000812474D01*
X0001225532Y0000816141D01*
X0001220865Y0000820807D01*
X0001217198Y0000826295D01*
X0001214673Y0000832392D01*
X0001213385Y0000838865D01*
X0001213385Y0000845465D01*
X0001214673Y0000851938D01*
X0001217198Y0000858035D01*
X0001220865Y0000863522D01*
X0001225532Y0000868189D01*
X0001231019Y0000871856D01*
X0001237116Y0000874381D01*
X0001243589Y0000875669D01*
X0001250189Y0000875669D01*
X0001256662Y0000874381D01*
X0001256662Y0000874381D01*
G37*
G36*
X0001254182Y0001002098D02*
G01*
X0001260279Y0000999572D01*
X0001265766Y0000995906D01*
X0001270433Y0000991239D01*
X0001274100Y0000985751D01*
X0001276625Y0000979654D01*
X0001277913Y0000973181D01*
X0001277913Y0000966582D01*
X0001276625Y0000960109D01*
X0001274100Y0000954011D01*
X0001270433Y0000948524D01*
X0001265766Y0000943857D01*
X0001260279Y0000940191D01*
X0001254182Y0000937665D01*
X0001247709Y0000936377D01*
X0001241109Y0000936377D01*
X0001234636Y0000937665D01*
X0001228539Y0000940191D01*
X0001223051Y0000943857D01*
X0001218385Y0000948524D01*
X0001214718Y0000954011D01*
X0001212192Y0000960109D01*
X0001210905Y0000966582D01*
X0001210905Y0000973181D01*
X0001212192Y0000979654D01*
X0001214718Y0000985751D01*
X0001218385Y0000991239D01*
X0001223051Y0000995906D01*
X0001228539Y0000999572D01*
X0001234636Y0001002098D01*
X0001241109Y0001003385D01*
X0001247709Y0001003385D01*
X0001254182Y0001002098D01*
X0001254182Y0001002098D01*
G37*
G36*
X0001449900Y0001047677D02*
G01*
X0001459222Y0001043816D01*
X0001459222Y0001043816D01*
X0001467611Y0001038210D01*
X0001474746Y0001031076D01*
X0001480351Y0001022687D01*
X0001484212Y0001013365D01*
X0001486181Y0001003470D01*
X0001486181Y0000993380D01*
X0001484212Y0000983484D01*
X0001482626Y0000979654D01*
X0001480351Y0000974163D01*
X0001474746Y0000965774D01*
X0001467611Y0000958639D01*
X0001459222Y0000953034D01*
X0001459222Y0000953034D01*
X0001459222Y0000953034D01*
X0001449900Y0000949173D01*
X0001440005Y0000947204D01*
X0001429915Y0000947204D01*
X0001420020Y0000949173D01*
X0001410698Y0000953034D01*
X0001410698Y0000953034D01*
X0001410698Y0000953034D01*
X0001402309Y0000958639D01*
X0001395175Y0000965774D01*
X0001389569Y0000974163D01*
X0001387294Y0000979654D01*
X0001385708Y0000983484D01*
X0001383740Y0000993380D01*
X0001383740Y0001003470D01*
X0001385708Y0001013365D01*
X0001389569Y0001022687D01*
X0001395175Y0001031076D01*
X0001402309Y0001038210D01*
X0001410698Y0001043816D01*
X0001410698Y0001043816D01*
X0001420020Y0001047677D01*
X0001429915Y0001049645D01*
X0001440005Y0001049645D01*
X0001449900Y0001047677D01*
X0001449900Y0001047677D01*
G37*
G36*
X0001355330Y0001425765D02*
G01*
X0001362144Y0001422943D01*
X0001362144Y0001422943D01*
X0001368276Y0001418846D01*
X0001373491Y0001413630D01*
X0001373491Y0001413630D01*
X0001377589Y0001407498D01*
X0001380411Y0001400684D01*
X0001381850Y0001393451D01*
X0001381850Y0001386076D01*
X0001380411Y0001378842D01*
X0001377589Y0001372028D01*
X0001377589Y0001372028D01*
X0001373491Y0001365896D01*
X0001368276Y0001360681D01*
X0001367720Y0001360310D01*
X0001362144Y0001356584D01*
X0001356655Y0001354310D01*
X0001355804Y0001353855D01*
X0001355058Y0001353243D01*
X0001354446Y0001352497D01*
X0001353991Y0001351647D01*
X0001353711Y0001350723D01*
X0001353617Y0001349763D01*
X0001353711Y0001348803D01*
X0001353991Y0001347880D01*
X0001354446Y0001347029D01*
X0001355058Y0001346283D01*
X0001355804Y0001345671D01*
X0001356655Y0001345217D01*
X0001362144Y0001342943D01*
X0001365189Y0001340908D01*
X0001368276Y0001338846D01*
X0001373491Y0001333630D01*
X0001373491Y0001333630D01*
X0001377589Y0001327498D01*
X0001380411Y0001320684D01*
X0001381850Y0001313451D01*
X0001381850Y0001306076D01*
X0001380411Y0001298842D01*
X0001377589Y0001292028D01*
X0001377589Y0001292028D01*
X0001373491Y0001285896D01*
X0001368276Y0001280681D01*
X0001365189Y0001278618D01*
X0001362144Y0001276584D01*
X0001356655Y0001274310D01*
X0001355804Y0001273855D01*
X0001355058Y0001273243D01*
X0001354446Y0001272497D01*
X0001353991Y0001271647D01*
X0001353711Y0001270723D01*
X0001353617Y0001269763D01*
X0001353711Y0001268803D01*
X0001353991Y0001267880D01*
X0001354446Y0001267029D01*
X0001355058Y0001266283D01*
X0001355804Y0001265671D01*
X0001356655Y0001265217D01*
X0001362144Y0001262943D01*
X0001362144Y0001262943D01*
X0001368276Y0001258846D01*
X0001373491Y0001253630D01*
X0001373491Y0001253630D01*
X0001377589Y0001247498D01*
X0001380411Y0001240684D01*
X0001381850Y0001233451D01*
X0001381850Y0001226076D01*
X0001380411Y0001218842D01*
X0001377589Y0001212028D01*
X0001377589Y0001212028D01*
X0001373491Y0001205896D01*
X0001368276Y0001200681D01*
X0001365189Y0001198618D01*
X0001362144Y0001196584D01*
X0001356655Y0001194310D01*
X0001355804Y0001193855D01*
X0001355058Y0001193243D01*
X0001354446Y0001192497D01*
X0001353991Y0001191647D01*
X0001353711Y0001190723D01*
X0001353617Y0001189763D01*
X0001353711Y0001188803D01*
X0001353991Y0001187880D01*
X0001354446Y0001187029D01*
X0001355058Y0001186283D01*
X0001355804Y0001185671D01*
X0001356655Y0001185217D01*
X0001362144Y0001182943D01*
X0001362144Y0001182943D01*
X0001368276Y0001178846D01*
X0001373491Y0001173630D01*
X0001373491Y0001173630D01*
X0001377589Y0001167498D01*
X0001380411Y0001160684D01*
X0001381850Y0001153451D01*
X0001381850Y0001146076D01*
X0001380411Y0001138842D01*
X0001377589Y0001132028D01*
X0001377589Y0001132028D01*
X0001373491Y0001125896D01*
X0001368276Y0001120681D01*
X0001365189Y0001118618D01*
X0001362144Y0001116583D01*
X0001355330Y0001113761D01*
X0001348097Y0001112322D01*
X0001340721Y0001112322D01*
X0001333488Y0001113761D01*
X0001326674Y0001116583D01*
X0001323629Y0001118618D01*
X0001320542Y0001120681D01*
X0001315327Y0001125896D01*
X0001311229Y0001132028D01*
X0001311229Y0001132028D01*
X0001308407Y0001138842D01*
X0001306968Y0001146076D01*
X0001306968Y0001153451D01*
X0001308407Y0001160684D01*
X0001311229Y0001167498D01*
X0001315327Y0001173630D01*
X0001315327Y0001173630D01*
X0001320542Y0001178846D01*
X0001326674Y0001182943D01*
X0001326674Y0001182943D01*
X0001332163Y0001185217D01*
X0001333014Y0001185671D01*
X0001333760Y0001186283D01*
X0001334372Y0001187029D01*
X0001334826Y0001187880D01*
X0001335106Y0001188803D01*
X0001335201Y0001189763D01*
X0001335106Y0001190723D01*
X0001334826Y0001191647D01*
X0001334372Y0001192497D01*
X0001333760Y0001193243D01*
X0001333014Y0001193855D01*
X0001332163Y0001194310D01*
X0001326674Y0001196584D01*
X0001323629Y0001198618D01*
X0001320542Y0001200681D01*
X0001315327Y0001205896D01*
X0001311229Y0001212028D01*
X0001311229Y0001212028D01*
X0001308407Y0001218842D01*
X0001306968Y0001226076D01*
X0001306968Y0001233451D01*
X0001308407Y0001240684D01*
X0001311229Y0001247498D01*
X0001315327Y0001253630D01*
X0001315327Y0001253630D01*
X0001320542Y0001258846D01*
X0001326674Y0001262943D01*
X0001326674Y0001262943D01*
X0001332163Y0001265217D01*
X0001333014Y0001265671D01*
X0001333760Y0001266283D01*
X0001334372Y0001267029D01*
X0001334826Y0001267880D01*
X0001335106Y0001268803D01*
X0001335201Y0001269763D01*
X0001335106Y0001270723D01*
X0001334826Y0001271647D01*
X0001334372Y0001272497D01*
X0001333760Y0001273243D01*
X0001333014Y0001273855D01*
X0001332163Y0001274310D01*
X0001326674Y0001276584D01*
X0001323629Y0001278618D01*
X0001320542Y0001280681D01*
X0001315327Y0001285896D01*
X0001311229Y0001292028D01*
X0001311229Y0001292028D01*
X0001308407Y0001298842D01*
X0001306968Y0001306076D01*
X0001306968Y0001313451D01*
X0001308407Y0001320684D01*
X0001311229Y0001327498D01*
X0001315327Y0001333630D01*
X0001315327Y0001333630D01*
X0001320542Y0001338846D01*
X0001323629Y0001340908D01*
X0001326674Y0001342943D01*
X0001332163Y0001345217D01*
X0001333014Y0001345671D01*
X0001333760Y0001346283D01*
X0001334372Y0001347029D01*
X0001334826Y0001347880D01*
X0001335106Y0001348803D01*
X0001335201Y0001349763D01*
X0001335106Y0001350723D01*
X0001334826Y0001351647D01*
X0001334372Y0001352497D01*
X0001333760Y0001353243D01*
X0001333014Y0001353855D01*
X0001332163Y0001354310D01*
X0001326674Y0001356584D01*
X0001321098Y0001360310D01*
X0001320542Y0001360681D01*
X0001315327Y0001365896D01*
X0001311229Y0001372028D01*
X0001311229Y0001372028D01*
X0001308407Y0001378842D01*
X0001306968Y0001386076D01*
X0001306968Y0001393451D01*
X0001308407Y0001400684D01*
X0001311229Y0001407498D01*
X0001315327Y0001413630D01*
X0001315327Y0001413630D01*
X0001320542Y0001418846D01*
X0001326674Y0001422943D01*
X0001326674Y0001422943D01*
X0001333488Y0001425765D01*
X0001340721Y0001427204D01*
X0001348097Y0001427204D01*
X0001355330Y0001425765D01*
X0001355330Y0001425765D01*
G37*
G36*
X0001255330Y0001465765D02*
G01*
X0001262144Y0001462943D01*
X0001262144Y0001462943D01*
X0001268276Y0001458846D01*
X0001273491Y0001453630D01*
X0001273491Y0001453630D01*
X0001277589Y0001447498D01*
X0001280411Y0001440684D01*
X0001281850Y0001433451D01*
X0001281850Y0001426076D01*
X0001280411Y0001418842D01*
X0001277589Y0001412028D01*
X0001277589Y0001412028D01*
X0001273491Y0001405896D01*
X0001268276Y0001400681D01*
X0001267547Y0001400194D01*
X0001262144Y0001396584D01*
X0001256655Y0001394310D01*
X0001255804Y0001393855D01*
X0001255058Y0001393243D01*
X0001254446Y0001392497D01*
X0001253991Y0001391647D01*
X0001253711Y0001390723D01*
X0001253617Y0001389763D01*
X0001253711Y0001388803D01*
X0001253991Y0001387880D01*
X0001254446Y0001387029D01*
X0001255058Y0001386283D01*
X0001255804Y0001385671D01*
X0001256655Y0001385217D01*
X0001262144Y0001382943D01*
X0001262144Y0001382943D01*
X0001268276Y0001378846D01*
X0001273491Y0001373630D01*
X0001273491Y0001373630D01*
X0001277589Y0001367498D01*
X0001280411Y0001360684D01*
X0001281850Y0001353451D01*
X0001281850Y0001346076D01*
X0001280411Y0001338842D01*
X0001277589Y0001332028D01*
X0001277589Y0001332028D01*
X0001273491Y0001325896D01*
X0001268276Y0001320681D01*
X0001265189Y0001318618D01*
X0001262144Y0001316584D01*
X0001256655Y0001314310D01*
X0001255804Y0001313855D01*
X0001255058Y0001313243D01*
X0001254446Y0001312497D01*
X0001253991Y0001311647D01*
X0001253711Y0001310723D01*
X0001253617Y0001309763D01*
X0001253711Y0001308803D01*
X0001253991Y0001307880D01*
X0001254446Y0001307029D01*
X0001255058Y0001306283D01*
X0001255804Y0001305671D01*
X0001256655Y0001305217D01*
X0001262144Y0001302943D01*
X0001262144Y0001302943D01*
X0001268276Y0001298846D01*
X0001273491Y0001293630D01*
X0001273491Y0001293630D01*
X0001277589Y0001287498D01*
X0001280411Y0001280684D01*
X0001281850Y0001273451D01*
X0001281850Y0001266076D01*
X0001280411Y0001258842D01*
X0001277589Y0001252028D01*
X0001277589Y0001252028D01*
X0001273491Y0001245896D01*
X0001268276Y0001240681D01*
X0001265189Y0001238618D01*
X0001262144Y0001236583D01*
X0001256655Y0001234310D01*
X0001255804Y0001233855D01*
X0001255058Y0001233243D01*
X0001254446Y0001232497D01*
X0001253991Y0001231647D01*
X0001253711Y0001230723D01*
X0001253617Y0001229763D01*
X0001253711Y0001228803D01*
X0001253991Y0001227880D01*
X0001254446Y0001227029D01*
X0001255058Y0001226283D01*
X0001255804Y0001225671D01*
X0001256655Y0001225217D01*
X0001262144Y0001222943D01*
X0001262144Y0001222943D01*
X0001268276Y0001218846D01*
X0001273491Y0001213630D01*
X0001273491Y0001213630D01*
X0001277589Y0001207498D01*
X0001280411Y0001200684D01*
X0001281850Y0001193451D01*
X0001281850Y0001186076D01*
X0001280411Y0001178842D01*
X0001277589Y0001172028D01*
X0001277589Y0001172028D01*
X0001273491Y0001165896D01*
X0001268276Y0001160681D01*
X0001265189Y0001158618D01*
X0001262144Y0001156584D01*
X0001255330Y0001153761D01*
X0001248097Y0001152322D01*
X0001240721Y0001152322D01*
X0001233488Y0001153761D01*
X0001226674Y0001156584D01*
X0001223629Y0001158618D01*
X0001220542Y0001160681D01*
X0001215327Y0001165896D01*
X0001211229Y0001172028D01*
X0001211229Y0001172028D01*
X0001208407Y0001178842D01*
X0001206968Y0001186076D01*
X0001206968Y0001193451D01*
X0001208407Y0001200684D01*
X0001211229Y0001207498D01*
X0001215327Y0001213630D01*
X0001215327Y0001213630D01*
X0001220542Y0001218846D01*
X0001226674Y0001222943D01*
X0001226674Y0001222943D01*
X0001232163Y0001225217D01*
X0001233014Y0001225671D01*
X0001233760Y0001226283D01*
X0001234372Y0001227029D01*
X0001234826Y0001227880D01*
X0001235106Y0001228803D01*
X0001235201Y0001229763D01*
X0001235106Y0001230723D01*
X0001234826Y0001231647D01*
X0001234372Y0001232497D01*
X0001233760Y0001233243D01*
X0001233014Y0001233855D01*
X0001232163Y0001234310D01*
X0001226674Y0001236583D01*
X0001223629Y0001238618D01*
X0001220542Y0001240681D01*
X0001215327Y0001245896D01*
X0001211229Y0001252028D01*
X0001211229Y0001252028D01*
X0001208407Y0001258842D01*
X0001206968Y0001266076D01*
X0001206968Y0001273451D01*
X0001208407Y0001280684D01*
X0001211229Y0001287498D01*
X0001215327Y0001293630D01*
X0001215327Y0001293630D01*
X0001220542Y0001298846D01*
X0001226674Y0001302943D01*
X0001226674Y0001302943D01*
X0001232163Y0001305217D01*
X0001233014Y0001305671D01*
X0001233760Y0001306283D01*
X0001234372Y0001307029D01*
X0001234826Y0001307880D01*
X0001235106Y0001308803D01*
X0001235201Y0001309763D01*
X0001235106Y0001310723D01*
X0001234826Y0001311647D01*
X0001234372Y0001312497D01*
X0001233760Y0001313243D01*
X0001233014Y0001313855D01*
X0001232163Y0001314310D01*
X0001226674Y0001316584D01*
X0001223629Y0001318618D01*
X0001220542Y0001320681D01*
X0001215327Y0001325896D01*
X0001211229Y0001332028D01*
X0001211229Y0001332028D01*
X0001208407Y0001338842D01*
X0001206968Y0001346076D01*
X0001206968Y0001353451D01*
X0001208407Y0001360684D01*
X0001211229Y0001367498D01*
X0001215327Y0001373630D01*
X0001215327Y0001373630D01*
X0001220542Y0001378846D01*
X0001226674Y0001382943D01*
X0001226674Y0001382943D01*
X0001232163Y0001385217D01*
X0001233014Y0001385671D01*
X0001233760Y0001386283D01*
X0001234372Y0001387029D01*
X0001234826Y0001387880D01*
X0001235106Y0001388803D01*
X0001235201Y0001389763D01*
X0001235106Y0001390723D01*
X0001234826Y0001391647D01*
X0001234372Y0001392497D01*
X0001233760Y0001393243D01*
X0001233014Y0001393855D01*
X0001232163Y0001394310D01*
X0001226674Y0001396584D01*
X0001221270Y0001400194D01*
X0001220542Y0001400681D01*
X0001215327Y0001405896D01*
X0001211229Y0001412028D01*
X0001211229Y0001412028D01*
X0001208407Y0001418842D01*
X0001206968Y0001426076D01*
X0001206968Y0001433451D01*
X0001208407Y0001440684D01*
X0001211229Y0001447498D01*
X0001215327Y0001453630D01*
X0001215327Y0001453630D01*
X0001220542Y0001458846D01*
X0001226674Y0001462943D01*
X0001226674Y0001462943D01*
X0001233488Y0001465765D01*
X0001240721Y0001467204D01*
X0001248097Y0001467204D01*
X0001255330Y0001465765D01*
X0001255330Y0001465765D01*
G37*
G36*
X0000958757Y0001402479D02*
G01*
X0000961363Y0001402222D01*
X0000968049Y0001400194D01*
X0000974212Y0001396900D01*
X0000975619Y0001395745D01*
X0000979613Y0001392467D01*
X0000981832Y0001389763D01*
X0000984046Y0001387066D01*
X0000987340Y0001380904D01*
X0000989368Y0001374217D01*
X0000990053Y0001367263D01*
X0000989368Y0001360309D01*
X0000987340Y0001353623D01*
X0000984046Y0001347460D01*
X0000983835Y0001347204D01*
X0000979613Y0001342059D01*
X0000975697Y0001338846D01*
X0000974212Y0001337626D01*
X0000968049Y0001334332D01*
X0000961363Y0001332304D01*
X0000958757Y0001332047D01*
X0000956151Y0001331791D01*
X0000952666Y0001331791D01*
X0000950061Y0001332047D01*
X0000947455Y0001332304D01*
X0000940768Y0001334332D01*
X0000934606Y0001337626D01*
X0000933120Y0001338846D01*
X0000929205Y0001342059D01*
X0000924982Y0001347204D01*
X0000924772Y0001347460D01*
X0000921478Y0001353623D01*
X0000919450Y0001360309D01*
X0000918765Y0001367263D01*
X0000919450Y0001374217D01*
X0000921478Y0001380904D01*
X0000924772Y0001387066D01*
X0000926985Y0001389763D01*
X0000929205Y0001392467D01*
X0000933199Y0001395745D01*
X0000934606Y0001396900D01*
X0000940768Y0001400194D01*
X0000947455Y0001402222D01*
X0000950061Y0001402479D01*
X0000952666Y0001402736D01*
X0000956151Y0001402736D01*
X0000958757Y0001402479D01*
X0000958757Y0001402479D01*
G37*
G36*
X0000463719Y0001473801D02*
G01*
X0000468742Y0001471721D01*
X0000473262Y0001468700D01*
X0000477106Y0001464856D01*
X0000480126Y0001460336D01*
X0000482207Y0001455313D01*
X0000483267Y0001449982D01*
X0000483267Y0001444545D01*
X0000482207Y0001439213D01*
X0000480126Y0001434190D01*
X0000477106Y0001429670D01*
X0000473262Y0001425826D01*
X0000468742Y0001422806D01*
X0000463719Y0001420725D01*
X0000458387Y0001419665D01*
X0000452950Y0001419665D01*
X0000447619Y0001420725D01*
X0000442596Y0001422806D01*
X0000438076Y0001425826D01*
X0000434232Y0001429670D01*
X0000431211Y0001434190D01*
X0000429131Y0001439213D01*
X0000428070Y0001444545D01*
X0000428070Y0001449982D01*
X0000429131Y0001455313D01*
X0000431211Y0001460336D01*
X0000434232Y0001464856D01*
X0000438076Y0001468700D01*
X0000442596Y0001471721D01*
X0000447619Y0001473801D01*
X0000452950Y0001474862D01*
X0000458387Y0001474862D01*
X0000463719Y0001473801D01*
X0000463719Y0001473801D01*
G37*
G36*
X0000148758Y0001473801D02*
G01*
X0000153781Y0001471721D01*
X0000158301Y0001468700D01*
X0000162145Y0001464856D01*
X0000165165Y0001460336D01*
X0000167246Y0001455313D01*
X0000168307Y0001449982D01*
X0000168307Y0001444545D01*
X0000167246Y0001439213D01*
X0000165165Y0001434190D01*
X0000162145Y0001429670D01*
X0000158301Y0001425826D01*
X0000153781Y0001422806D01*
X0000148758Y0001420725D01*
X0000143426Y0001419665D01*
X0000137990Y0001419665D01*
X0000132658Y0001420725D01*
X0000127635Y0001422806D01*
X0000123115Y0001425826D01*
X0000119271Y0001429670D01*
X0000116251Y0001434190D01*
X0000114170Y0001439213D01*
X0000113110Y0001444545D01*
X0000113110Y0001449982D01*
X0000114170Y0001455313D01*
X0000116251Y0001460336D01*
X0000119271Y0001464856D01*
X0000123115Y0001468700D01*
X0000127635Y0001471721D01*
X0000132658Y0001473801D01*
X0000137990Y0001474862D01*
X0000143426Y0001474862D01*
X0000148758Y0001473801D01*
X0000148758Y0001473801D01*
G37*
G36*
X0000227498Y0001473801D02*
G01*
X0000232521Y0001471721D01*
X0000237041Y0001468700D01*
X0000240885Y0001464856D01*
X0000243906Y0001460336D01*
X0000245986Y0001455313D01*
X0000247047Y0001449982D01*
X0000247047Y0001444545D01*
X0000245986Y0001439213D01*
X0000243906Y0001434190D01*
X0000240885Y0001429670D01*
X0000237041Y0001425826D01*
X0000232521Y0001422806D01*
X0000227498Y0001420725D01*
X0000222167Y0001419665D01*
X0000216730Y0001419665D01*
X0000211398Y0001420725D01*
X0000206375Y0001422806D01*
X0000201855Y0001425826D01*
X0000198011Y0001429670D01*
X0000194991Y0001434190D01*
X0000192910Y0001439213D01*
X0000191850Y0001444545D01*
X0000191850Y0001449982D01*
X0000192910Y0001455313D01*
X0000194991Y0001460336D01*
X0000198011Y0001464856D01*
X0000201855Y0001468700D01*
X0000206375Y0001471721D01*
X0000211398Y0001473801D01*
X0000216730Y0001474862D01*
X0000222167Y0001474862D01*
X0000227498Y0001473801D01*
X0000227498Y0001473801D01*
G37*
G36*
X0000306238Y0001473801D02*
G01*
X0000311261Y0001471721D01*
X0000315781Y0001468700D01*
X0000319626Y0001464856D01*
X0000322646Y0001460336D01*
X0000324726Y0001455313D01*
X0000325787Y0001449982D01*
X0000325787Y0001444545D01*
X0000324726Y0001439213D01*
X0000322646Y0001434190D01*
X0000319626Y0001429670D01*
X0000315781Y0001425826D01*
X0000311261Y0001422806D01*
X0000306238Y0001420725D01*
X0000300907Y0001419665D01*
X0000295470Y0001419665D01*
X0000290138Y0001420725D01*
X0000285116Y0001422806D01*
X0000280596Y0001425826D01*
X0000276751Y0001429670D01*
X0000273731Y0001434190D01*
X0000271650Y0001439213D01*
X0000270590Y0001444545D01*
X0000270590Y0001449982D01*
X0000271650Y0001455313D01*
X0000273731Y0001460336D01*
X0000276751Y0001464856D01*
X0000280596Y0001468700D01*
X0000285116Y0001471721D01*
X0000290138Y0001473801D01*
X0000295470Y0001474862D01*
X0000300907Y0001474862D01*
X0000306238Y0001473801D01*
X0000306238Y0001473801D01*
G37*
G36*
X0000384979Y0001473801D02*
G01*
X0000390001Y0001471721D01*
X0000394521Y0001468700D01*
X0000398366Y0001464856D01*
X0000401386Y0001460336D01*
X0000403466Y0001455313D01*
X0000404527Y0001449982D01*
X0000404527Y0001444545D01*
X0000403466Y0001439213D01*
X0000401386Y0001434190D01*
X0000398366Y0001429670D01*
X0000394521Y0001425826D01*
X0000390001Y0001422806D01*
X0000384979Y0001420725D01*
X0000379647Y0001419665D01*
X0000374210Y0001419665D01*
X0000368878Y0001420725D01*
X0000363856Y0001422806D01*
X0000359336Y0001425826D01*
X0000355491Y0001429670D01*
X0000352471Y0001434190D01*
X0000350391Y0001439213D01*
X0000349330Y0001444545D01*
X0000349330Y0001449982D01*
X0000350391Y0001455313D01*
X0000352471Y0001460336D01*
X0000355491Y0001464856D01*
X0000359336Y0001468700D01*
X0000363856Y0001471721D01*
X0000368878Y0001473801D01*
X0000374210Y0001474862D01*
X0000379647Y0001474862D01*
X0000384979Y0001473801D01*
X0000384979Y0001473801D01*
G37*
G36*
X0000542459Y0001473801D02*
G01*
X0000547482Y0001471721D01*
X0000552002Y0001468700D01*
X0000555846Y0001464856D01*
X0000558866Y0001460336D01*
X0000560947Y0001455313D01*
X0000562007Y0001449982D01*
X0000562007Y0001444545D01*
X0000560947Y0001439213D01*
X0000558866Y0001434190D01*
X0000555846Y0001429670D01*
X0000552002Y0001425826D01*
X0000547482Y0001422806D01*
X0000542459Y0001420725D01*
X0000537127Y0001419665D01*
X0000531691Y0001419665D01*
X0000526359Y0001420725D01*
X0000521336Y0001422806D01*
X0000516816Y0001425826D01*
X0000512972Y0001429670D01*
X0000509951Y0001434190D01*
X0000507871Y0001439213D01*
X0000506810Y0001444545D01*
X0000506810Y0001449982D01*
X0000507871Y0001455313D01*
X0000509951Y0001460336D01*
X0000512972Y0001464856D01*
X0000516816Y0001468700D01*
X0000521336Y0001471721D01*
X0000526359Y0001473801D01*
X0000531691Y0001474862D01*
X0000537127Y0001474862D01*
X0000542459Y0001473801D01*
X0000542459Y0001473801D01*
G37*
G36*
X0000989881Y0001431791D02*
G01*
X0000918936Y0001431791D01*
X0000918936Y0001502736D01*
X0000989881Y0001502736D01*
X0000989881Y0001431791D01*
X0000989881Y0001431791D01*
G37*
G36*
X0001449900Y0001630354D02*
G01*
X0001459222Y0001626493D01*
X0001459222Y0001626493D01*
X0001461690Y0001624844D01*
X0001467611Y0001620887D01*
X0001474746Y0001613753D01*
X0001480351Y0001605364D01*
X0001484212Y0001596042D01*
X0001486181Y0001586147D01*
X0001486181Y0001576057D01*
X0001484212Y0001566161D01*
X0001480351Y0001556840D01*
X0001480351Y0001556840D01*
X0001474746Y0001548451D01*
X0001467611Y0001541316D01*
X0001459222Y0001535711D01*
X0001459222Y0001535711D01*
X0001459222Y0001535711D01*
X0001449900Y0001531850D01*
X0001440005Y0001529881D01*
X0001429915Y0001529881D01*
X0001420020Y0001531850D01*
X0001410698Y0001535711D01*
X0001410698Y0001535711D01*
X0001410698Y0001535711D01*
X0001402309Y0001541316D01*
X0001395175Y0001548451D01*
X0001389569Y0001556840D01*
X0001389569Y0001556840D01*
X0001385708Y0001566161D01*
X0001383740Y0001576057D01*
X0001383740Y0001586147D01*
X0001385708Y0001596042D01*
X0001389569Y0001605364D01*
X0001395175Y0001613753D01*
X0001402309Y0001620887D01*
X0001408230Y0001624844D01*
X0001410698Y0001626493D01*
X0001410698Y0001626493D01*
X0001420020Y0001630354D01*
X0001429915Y0001632322D01*
X0001440005Y0001632322D01*
X0001449900Y0001630354D01*
X0001449900Y0001630354D01*
G37*
G36*
X0001254182Y0001641862D02*
G01*
X0001260279Y0001639336D01*
X0001265766Y0001635669D01*
X0001270433Y0001631003D01*
X0001274100Y0001625515D01*
X0001276625Y0001619418D01*
X0001277913Y0001612945D01*
X0001277913Y0001606345D01*
X0001276625Y0001599872D01*
X0001274100Y0001593775D01*
X0001270433Y0001588288D01*
X0001265766Y0001583621D01*
X0001260279Y0001579954D01*
X0001254182Y0001577429D01*
X0001247709Y0001576141D01*
X0001241109Y0001576141D01*
X0001234636Y0001577429D01*
X0001228539Y0001579954D01*
X0001223051Y0001583621D01*
X0001218385Y0001588288D01*
X0001214718Y0001593775D01*
X0001212192Y0001599872D01*
X0001210905Y0001606345D01*
X0001210905Y0001612945D01*
X0001212192Y0001619418D01*
X0001214718Y0001625515D01*
X0001218385Y0001631003D01*
X0001223051Y0001635669D01*
X0001228539Y0001639336D01*
X0001234636Y0001641862D01*
X0001241109Y0001643149D01*
X0001247709Y0001643149D01*
X0001254182Y0001641862D01*
X0001254182Y0001641862D01*
G37*
G36*
X0001597207Y0001766772D02*
G01*
X0001611186Y0001760982D01*
X0001611186Y0001760982D01*
X0001623767Y0001752576D01*
X0001634466Y0001741877D01*
X0001642872Y0001729297D01*
X0001642872Y0001729296D01*
X0001648662Y0001715318D01*
X0001651614Y0001700478D01*
X0001651614Y0001685348D01*
X0001648662Y0001670508D01*
X0001642872Y0001656529D01*
X0001642872Y0001656529D01*
X0001634466Y0001643949D01*
X0001623767Y0001633250D01*
X0001611186Y0001624844D01*
X0001611186Y0001624844D01*
X0001611186Y0001624844D01*
X0001597207Y0001619054D01*
X0001582368Y0001616102D01*
X0001567237Y0001616102D01*
X0001552398Y0001619054D01*
X0001538419Y0001624844D01*
X0001538419Y0001624844D01*
X0001538419Y0001624844D01*
X0001525838Y0001633250D01*
X0001515140Y0001643949D01*
X0001506734Y0001656529D01*
X0001506733Y0001656529D01*
X0001500943Y0001670508D01*
X0001497992Y0001685348D01*
X0001497992Y0001700478D01*
X0001500943Y0001715318D01*
X0001506733Y0001729296D01*
X0001506734Y0001729297D01*
X0001515140Y0001741877D01*
X0001525838Y0001752576D01*
X0001538419Y0001760982D01*
X0001538419Y0001760982D01*
X0001552398Y0001766772D01*
X0001567237Y0001769724D01*
X0001582368Y0001769724D01*
X0001597207Y0001766772D01*
X0001597207Y0001766772D01*
G37*
G36*
X0000140515Y0001766772D02*
G01*
X0000154493Y0001760982D01*
X0000154493Y0001760982D01*
X0000167074Y0001752576D01*
X0000177773Y0001741877D01*
X0000186179Y0001729297D01*
X0000186179Y0001729296D01*
X0000191969Y0001715318D01*
X0000194921Y0001700478D01*
X0000194921Y0001685348D01*
X0000191969Y0001670508D01*
X0000186179Y0001656529D01*
X0000186179Y0001656529D01*
X0000177773Y0001643949D01*
X0000167074Y0001633250D01*
X0000154493Y0001624844D01*
X0000154493Y0001624844D01*
X0000154493Y0001624844D01*
X0000140515Y0001619054D01*
X0000125675Y0001616102D01*
X0000110544Y0001616102D01*
X0000095705Y0001619054D01*
X0000081726Y0001624844D01*
X0000081726Y0001624844D01*
X0000081726Y0001624844D01*
X0000069146Y0001633250D01*
X0000058447Y0001643949D01*
X0000050041Y0001656529D01*
X0000050041Y0001656529D01*
X0000044250Y0001670508D01*
X0000041299Y0001685348D01*
X0000041299Y0001700478D01*
X0000044250Y0001715318D01*
X0000050041Y0001729296D01*
X0000050041Y0001729297D01*
X0000058447Y0001741877D01*
X0000069146Y0001752576D01*
X0000081726Y0001760982D01*
X0000081726Y0001760982D01*
X0000095705Y0001766772D01*
X0000110544Y0001769724D01*
X0000125675Y0001769724D01*
X0000140515Y0001766772D01*
X0000140515Y0001766772D01*
G37*
G04 next file*
G04 #@! TF.GenerationSoftware,KiCad,Pcbnew,(5.1.2)-1*
G04 #@! TF.CreationDate,2020-12-30T23:25:53+09:00*
G04 #@! TF.ProjectId,M5Atom_CAN_RJ45,4d354174-6f6d-45f4-9341-4e5f524a3435,rev?*
G04 #@! TF.SameCoordinates,Original*
G04 #@! TF.FileFunction,Soldermask,Top*
G04 #@! TF.FilePolarity,Negative*
G04 Gerber Fmt 4.6, Leading zero omitted, Abs format (unit mm)*
G04 Created by KiCad (PCBNEW (5.1.2)-1) date 2020-12-30 23:25:53*
G04 APERTURE LIST*
G04 APERTURE END LIST*
D21*
G36*
X0001597207Y0002101418D02*
G01*
X0001611186Y0002095628D01*
X0001611186Y0002095628D01*
X0001623767Y0002087222D01*
X0001634466Y0002076523D01*
X0001642872Y0002063942D01*
X0001642872Y0002063942D01*
X0001648662Y0002049963D01*
X0001651614Y0002035124D01*
X0001651614Y0002019993D01*
X0001648662Y0002005154D01*
X0001642872Y0001991175D01*
X0001642872Y0001991175D01*
X0001634466Y0001978594D01*
X0001623767Y0001967895D01*
X0001611186Y0001959489D01*
X0001611186Y0001959489D01*
X0001611186Y0001959489D01*
X0001597207Y0001953699D01*
X0001582368Y0001950747D01*
X0001567237Y0001950747D01*
X0001552398Y0001953699D01*
X0001538419Y0001959489D01*
X0001538419Y0001959489D01*
X0001538419Y0001959489D01*
X0001525838Y0001967895D01*
X0001515140Y0001978594D01*
X0001506734Y0001991175D01*
X0001506733Y0001991175D01*
X0001500943Y0002005154D01*
X0001497992Y0002019993D01*
X0001497992Y0002035124D01*
X0001500943Y0002049963D01*
X0001506733Y0002063942D01*
X0001506734Y0002063942D01*
X0001515140Y0002076523D01*
X0001525838Y0002087222D01*
X0001538419Y0002095628D01*
X0001538419Y0002095628D01*
X0001552398Y0002101418D01*
X0001567237Y0002104370D01*
X0001582368Y0002104370D01*
X0001597207Y0002101418D01*
X0001597207Y0002101418D01*
G37*
G36*
X0000140515Y0002101418D02*
G01*
X0000154493Y0002095628D01*
X0000154493Y0002095628D01*
X0000167074Y0002087222D01*
X0000177773Y0002076523D01*
X0000186179Y0002063942D01*
X0000186179Y0002063942D01*
X0000191969Y0002049963D01*
X0000194921Y0002035124D01*
X0000194921Y0002019993D01*
X0000191969Y0002005154D01*
X0000186179Y0001991175D01*
X0000186179Y0001991175D01*
X0000177773Y0001978594D01*
X0000167074Y0001967895D01*
X0000154493Y0001959489D01*
X0000154493Y0001959489D01*
X0000154493Y0001959489D01*
X0000140515Y0001953699D01*
X0000125675Y0001950747D01*
X0000110544Y0001950747D01*
X0000095705Y0001953699D01*
X0000081726Y0001959489D01*
X0000081726Y0001959489D01*
X0000081726Y0001959489D01*
X0000069146Y0001967895D01*
X0000058447Y0001978594D01*
X0000050041Y0001991175D01*
X0000050041Y0001991175D01*
X0000044250Y0002005154D01*
X0000041299Y0002019993D01*
X0000041299Y0002035124D01*
X0000044250Y0002049963D01*
X0000050041Y0002063942D01*
X0000050041Y0002063942D01*
X0000058447Y0002076523D01*
X0000069146Y0002087222D01*
X0000081726Y0002095628D01*
X0000081726Y0002095628D01*
X0000095705Y0002101418D01*
X0000110544Y0002104370D01*
X0000125675Y0002104370D01*
X0000140515Y0002101418D01*
X0000140515Y0002101418D01*
G37*
G36*
X0001256662Y0002144066D02*
G01*
X0001262759Y0002141541D01*
X0001268247Y0002137874D01*
X0001272913Y0002133207D01*
X0001276580Y0002127720D01*
X0001279106Y0002121623D01*
X0001280393Y0002115150D01*
X0001280393Y0002108550D01*
X0001279106Y0002102077D01*
X0001276580Y0002095980D01*
X0001272913Y0002090492D01*
X0001268247Y0002085826D01*
X0001262759Y0002082159D01*
X0001256662Y0002079633D01*
X0001250189Y0002078346D01*
X0001243589Y0002078346D01*
X0001237116Y0002079633D01*
X0001231019Y0002082159D01*
X0001225532Y0002085826D01*
X0001220865Y0002090492D01*
X0001217198Y0002095980D01*
X0001214673Y0002102077D01*
X0001213385Y0002108550D01*
X0001213385Y0002115150D01*
X0001214673Y0002121623D01*
X0001217198Y0002127720D01*
X0001220865Y0002133207D01*
X0001225532Y0002137874D01*
X0001231019Y0002141541D01*
X0001237116Y0002144066D01*
X0001243589Y0002145354D01*
X0001250189Y0002145354D01*
X0001256662Y0002144066D01*
X0001256662Y0002144066D01*
G37*
G36*
X0001452381Y0002189645D02*
G01*
X0001461702Y0002185784D01*
X0001461702Y0002185784D01*
X0001470092Y0002180179D01*
X0001477226Y0002173044D01*
X0001482831Y0002164655D01*
X0001486692Y0002155334D01*
X0001488661Y0002145438D01*
X0001488661Y0002135348D01*
X0001486692Y0002125453D01*
X0001485106Y0002121623D01*
X0001482831Y0002116131D01*
X0001477226Y0002107742D01*
X0001470092Y0002100608D01*
X0001461702Y0002095002D01*
X0001461702Y0002095002D01*
X0001461702Y0002095002D01*
X0001452381Y0002091141D01*
X0001442485Y0002089173D01*
X0001432396Y0002089173D01*
X0001422500Y0002091141D01*
X0001413178Y0002095002D01*
X0001413178Y0002095002D01*
X0001413178Y0002095002D01*
X0001404789Y0002100608D01*
X0001397655Y0002107742D01*
X0001392049Y0002116131D01*
X0001389775Y0002121623D01*
X0001388188Y0002125453D01*
X0001386220Y0002135348D01*
X0001386220Y0002145438D01*
X0001388188Y0002155334D01*
X0001392049Y0002164655D01*
X0001397655Y0002173044D01*
X0001404789Y0002180179D01*
X0001413178Y0002185784D01*
X0001413178Y0002185784D01*
X0001422500Y0002189645D01*
X0001432396Y0002191614D01*
X0001442485Y0002191614D01*
X0001452381Y0002189645D01*
X0001452381Y0002189645D01*
G37*
G36*
X0001357810Y0002567734D02*
G01*
X0001364624Y0002564912D01*
X0001364624Y0002564911D01*
X0001370756Y0002560814D01*
X0001375971Y0002555599D01*
X0001375972Y0002555599D01*
X0001380069Y0002549467D01*
X0001382891Y0002542653D01*
X0001384330Y0002535419D01*
X0001384330Y0002528044D01*
X0001382891Y0002520811D01*
X0001380069Y0002513997D01*
X0001380069Y0002513997D01*
X0001375971Y0002507865D01*
X0001370756Y0002502649D01*
X0001367669Y0002500587D01*
X0001364624Y0002498552D01*
X0001359135Y0002496278D01*
X0001358284Y0002495824D01*
X0001357538Y0002495212D01*
X0001356926Y0002494466D01*
X0001356472Y0002493615D01*
X0001356192Y0002492692D01*
X0001356097Y0002491732D01*
X0001356192Y0002490772D01*
X0001356472Y0002489848D01*
X0001356926Y0002488998D01*
X0001357538Y0002488252D01*
X0001358284Y0002487640D01*
X0001359135Y0002487185D01*
X0001364624Y0002484911D01*
X0001367669Y0002482877D01*
X0001370756Y0002480814D01*
X0001375971Y0002475599D01*
X0001375972Y0002475599D01*
X0001380069Y0002469467D01*
X0001382891Y0002462653D01*
X0001384330Y0002455419D01*
X0001384330Y0002448044D01*
X0001382891Y0002440811D01*
X0001380069Y0002433997D01*
X0001380069Y0002433997D01*
X0001375971Y0002427865D01*
X0001370756Y0002422649D01*
X0001367669Y0002420587D01*
X0001364624Y0002418552D01*
X0001359135Y0002416278D01*
X0001358284Y0002415824D01*
X0001357538Y0002415212D01*
X0001356926Y0002414466D01*
X0001356472Y0002413615D01*
X0001356192Y0002412692D01*
X0001356097Y0002411732D01*
X0001356192Y0002410772D01*
X0001356472Y0002409848D01*
X0001356926Y0002408998D01*
X0001357538Y0002408252D01*
X0001358284Y0002407640D01*
X0001359135Y0002407185D01*
X0001364624Y0002404911D01*
X0001364624Y0002404911D01*
X0001370756Y0002400814D01*
X0001375971Y0002395599D01*
X0001375972Y0002395599D01*
X0001380069Y0002389467D01*
X0001382891Y0002382653D01*
X0001384330Y0002375419D01*
X0001384330Y0002368044D01*
X0001382891Y0002360811D01*
X0001380069Y0002353997D01*
X0001380069Y0002353997D01*
X0001375971Y0002347865D01*
X0001370756Y0002342649D01*
X0001367669Y0002340587D01*
X0001364624Y0002338552D01*
X0001359135Y0002336278D01*
X0001358284Y0002335824D01*
X0001357538Y0002335212D01*
X0001356926Y0002334466D01*
X0001356472Y0002333615D01*
X0001356192Y0002332692D01*
X0001356097Y0002331732D01*
X0001356192Y0002330772D01*
X0001356472Y0002329848D01*
X0001356926Y0002328998D01*
X0001357538Y0002328252D01*
X0001358284Y0002327640D01*
X0001359135Y0002327185D01*
X0001364624Y0002324911D01*
X0001364624Y0002324911D01*
X0001370756Y0002320814D01*
X0001375971Y0002315599D01*
X0001375972Y0002315599D01*
X0001380069Y0002309467D01*
X0001382891Y0002302653D01*
X0001384330Y0002295419D01*
X0001384330Y0002288044D01*
X0001382891Y0002280811D01*
X0001380069Y0002273997D01*
X0001380069Y0002273997D01*
X0001375971Y0002267865D01*
X0001370756Y0002262649D01*
X0001367669Y0002260587D01*
X0001364624Y0002258552D01*
X0001357810Y0002255730D01*
X0001350577Y0002254291D01*
X0001343202Y0002254291D01*
X0001335968Y0002255730D01*
X0001329154Y0002258552D01*
X0001326109Y0002260587D01*
X0001323022Y0002262649D01*
X0001317807Y0002267865D01*
X0001313709Y0002273997D01*
X0001313709Y0002273997D01*
X0001310887Y0002280811D01*
X0001309448Y0002288044D01*
X0001309448Y0002295419D01*
X0001310887Y0002302653D01*
X0001313709Y0002309467D01*
X0001317807Y0002315599D01*
X0001317807Y0002315599D01*
X0001323022Y0002320814D01*
X0001329154Y0002324911D01*
X0001329154Y0002324911D01*
X0001334643Y0002327185D01*
X0001335494Y0002327640D01*
X0001336240Y0002328252D01*
X0001336852Y0002328998D01*
X0001337307Y0002329848D01*
X0001337587Y0002330772D01*
X0001337681Y0002331732D01*
X0001337587Y0002332692D01*
X0001337307Y0002333615D01*
X0001336852Y0002334466D01*
X0001336240Y0002335212D01*
X0001335494Y0002335824D01*
X0001334643Y0002336278D01*
X0001329154Y0002338552D01*
X0001326109Y0002340587D01*
X0001323022Y0002342649D01*
X0001317807Y0002347865D01*
X0001313709Y0002353997D01*
X0001313709Y0002353997D01*
X0001310887Y0002360811D01*
X0001309448Y0002368044D01*
X0001309448Y0002375419D01*
X0001310887Y0002382653D01*
X0001313709Y0002389467D01*
X0001317807Y0002395599D01*
X0001317807Y0002395599D01*
X0001323022Y0002400814D01*
X0001329154Y0002404911D01*
X0001329154Y0002404911D01*
X0001334643Y0002407185D01*
X0001335494Y0002407640D01*
X0001336240Y0002408252D01*
X0001336852Y0002408998D01*
X0001337307Y0002409848D01*
X0001337587Y0002410772D01*
X0001337681Y0002411732D01*
X0001337587Y0002412692D01*
X0001337307Y0002413615D01*
X0001336852Y0002414466D01*
X0001336240Y0002415212D01*
X0001335494Y0002415824D01*
X0001334643Y0002416278D01*
X0001329154Y0002418552D01*
X0001326109Y0002420587D01*
X0001323022Y0002422649D01*
X0001317807Y0002427865D01*
X0001313709Y0002433997D01*
X0001313709Y0002433997D01*
X0001310887Y0002440811D01*
X0001309448Y0002448044D01*
X0001309448Y0002455419D01*
X0001310887Y0002462653D01*
X0001313709Y0002469467D01*
X0001317807Y0002475599D01*
X0001317807Y0002475599D01*
X0001323022Y0002480814D01*
X0001326109Y0002482877D01*
X0001329154Y0002484911D01*
X0001334643Y0002487185D01*
X0001335494Y0002487640D01*
X0001336240Y0002488252D01*
X0001336852Y0002488998D01*
X0001337307Y0002489848D01*
X0001337587Y0002490772D01*
X0001337681Y0002491732D01*
X0001337587Y0002492692D01*
X0001337307Y0002493615D01*
X0001336852Y0002494466D01*
X0001336240Y0002495212D01*
X0001335494Y0002495824D01*
X0001334643Y0002496278D01*
X0001329154Y0002498552D01*
X0001326109Y0002500587D01*
X0001323022Y0002502649D01*
X0001317807Y0002507865D01*
X0001313709Y0002513997D01*
X0001313709Y0002513997D01*
X0001310887Y0002520811D01*
X0001309448Y0002528044D01*
X0001309448Y0002535419D01*
X0001310887Y0002542653D01*
X0001313709Y0002549467D01*
X0001317807Y0002555599D01*
X0001317807Y0002555599D01*
X0001323022Y0002560814D01*
X0001329154Y0002564911D01*
X0001329154Y0002564912D01*
X0001335968Y0002567734D01*
X0001343202Y0002569173D01*
X0001350577Y0002569173D01*
X0001357810Y0002567734D01*
X0001357810Y0002567734D01*
G37*
G36*
X0001257810Y0002607734D02*
G01*
X0001264624Y0002604911D01*
X0001264624Y0002604911D01*
X0001270756Y0002600814D01*
X0001275971Y0002595599D01*
X0001275972Y0002595599D01*
X0001280069Y0002589467D01*
X0001282891Y0002582653D01*
X0001284330Y0002575419D01*
X0001284330Y0002568044D01*
X0001282891Y0002560811D01*
X0001280069Y0002553997D01*
X0001280069Y0002553997D01*
X0001275971Y0002547865D01*
X0001270756Y0002542649D01*
X0001267669Y0002540587D01*
X0001264624Y0002538552D01*
X0001259135Y0002536278D01*
X0001258284Y0002535824D01*
X0001257538Y0002535212D01*
X0001256926Y0002534466D01*
X0001256472Y0002533615D01*
X0001256192Y0002532692D01*
X0001256097Y0002531732D01*
X0001256192Y0002530772D01*
X0001256472Y0002529848D01*
X0001256926Y0002528998D01*
X0001257538Y0002528252D01*
X0001258284Y0002527640D01*
X0001259135Y0002527185D01*
X0001264624Y0002524911D01*
X0001264624Y0002524911D01*
X0001270756Y0002520814D01*
X0001275971Y0002515599D01*
X0001275972Y0002515599D01*
X0001280069Y0002509467D01*
X0001282891Y0002502653D01*
X0001284330Y0002495419D01*
X0001284330Y0002488044D01*
X0001282891Y0002480811D01*
X0001280069Y0002473997D01*
X0001280069Y0002473997D01*
X0001275971Y0002467865D01*
X0001270756Y0002462649D01*
X0001267669Y0002460587D01*
X0001264624Y0002458552D01*
X0001259135Y0002456278D01*
X0001258284Y0002455824D01*
X0001257538Y0002455212D01*
X0001256926Y0002454466D01*
X0001256472Y0002453615D01*
X0001256192Y0002452692D01*
X0001256097Y0002451732D01*
X0001256192Y0002450772D01*
X0001256472Y0002449848D01*
X0001256926Y0002448998D01*
X0001257538Y0002448252D01*
X0001258284Y0002447640D01*
X0001259135Y0002447185D01*
X0001264624Y0002444911D01*
X0001264624Y0002444911D01*
X0001270756Y0002440814D01*
X0001275971Y0002435599D01*
X0001275972Y0002435599D01*
X0001280069Y0002429467D01*
X0001282891Y0002422653D01*
X0001284330Y0002415419D01*
X0001284330Y0002408044D01*
X0001282891Y0002400811D01*
X0001280069Y0002393997D01*
X0001280069Y0002393997D01*
X0001275971Y0002387865D01*
X0001270756Y0002382649D01*
X0001267960Y0002380781D01*
X0001264624Y0002378552D01*
X0001259135Y0002376278D01*
X0001258284Y0002375824D01*
X0001257538Y0002375212D01*
X0001256926Y0002374466D01*
X0001256472Y0002373615D01*
X0001256192Y0002372692D01*
X0001256097Y0002371732D01*
X0001256192Y0002370772D01*
X0001256472Y0002369848D01*
X0001256926Y0002368998D01*
X0001257538Y0002368252D01*
X0001258284Y0002367640D01*
X0001259135Y0002367185D01*
X0001264624Y0002364911D01*
X0001264624Y0002364911D01*
X0001270756Y0002360814D01*
X0001275971Y0002355599D01*
X0001275972Y0002355599D01*
X0001280069Y0002349467D01*
X0001282891Y0002342653D01*
X0001284330Y0002335419D01*
X0001284330Y0002328044D01*
X0001282891Y0002320811D01*
X0001280069Y0002313997D01*
X0001280069Y0002313997D01*
X0001275971Y0002307865D01*
X0001270756Y0002302649D01*
X0001267669Y0002300587D01*
X0001264624Y0002298552D01*
X0001257810Y0002295730D01*
X0001250577Y0002294291D01*
X0001243202Y0002294291D01*
X0001235968Y0002295730D01*
X0001229154Y0002298552D01*
X0001226109Y0002300587D01*
X0001223022Y0002302649D01*
X0001217807Y0002307865D01*
X0001213709Y0002313997D01*
X0001213709Y0002313997D01*
X0001210887Y0002320811D01*
X0001209448Y0002328044D01*
X0001209448Y0002335419D01*
X0001210887Y0002342653D01*
X0001213709Y0002349467D01*
X0001217807Y0002355599D01*
X0001217807Y0002355599D01*
X0001223022Y0002360814D01*
X0001229154Y0002364911D01*
X0001229154Y0002364911D01*
X0001234643Y0002367185D01*
X0001235494Y0002367640D01*
X0001236240Y0002368252D01*
X0001236852Y0002368998D01*
X0001237307Y0002369848D01*
X0001237587Y0002370772D01*
X0001237681Y0002371732D01*
X0001237587Y0002372692D01*
X0001237307Y0002373615D01*
X0001236852Y0002374466D01*
X0001236240Y0002375212D01*
X0001235494Y0002375824D01*
X0001234643Y0002376278D01*
X0001229154Y0002378552D01*
X0001225818Y0002380781D01*
X0001223022Y0002382649D01*
X0001217807Y0002387865D01*
X0001213709Y0002393997D01*
X0001213709Y0002393997D01*
X0001210887Y0002400811D01*
X0001209448Y0002408044D01*
X0001209448Y0002415419D01*
X0001210887Y0002422653D01*
X0001213709Y0002429467D01*
X0001217807Y0002435599D01*
X0001217807Y0002435599D01*
X0001223022Y0002440814D01*
X0001229154Y0002444911D01*
X0001229154Y0002444911D01*
X0001234643Y0002447185D01*
X0001235494Y0002447640D01*
X0001236240Y0002448252D01*
X0001236852Y0002448998D01*
X0001237307Y0002449848D01*
X0001237587Y0002450772D01*
X0001237681Y0002451732D01*
X0001237587Y0002452692D01*
X0001237307Y0002453615D01*
X0001236852Y0002454466D01*
X0001236240Y0002455212D01*
X0001235494Y0002455824D01*
X0001234643Y0002456278D01*
X0001229154Y0002458552D01*
X0001226109Y0002460587D01*
X0001223022Y0002462649D01*
X0001217807Y0002467865D01*
X0001213709Y0002473997D01*
X0001213709Y0002473997D01*
X0001210887Y0002480811D01*
X0001209448Y0002488044D01*
X0001209448Y0002495419D01*
X0001210887Y0002502653D01*
X0001213709Y0002509467D01*
X0001217807Y0002515599D01*
X0001217807Y0002515599D01*
X0001223022Y0002520814D01*
X0001229154Y0002524911D01*
X0001229154Y0002524911D01*
X0001234643Y0002527185D01*
X0001235494Y0002527640D01*
X0001236240Y0002528252D01*
X0001236852Y0002528998D01*
X0001237307Y0002529848D01*
X0001237587Y0002530772D01*
X0001237681Y0002531732D01*
X0001237587Y0002532692D01*
X0001237307Y0002533615D01*
X0001236852Y0002534466D01*
X0001236240Y0002535212D01*
X0001235494Y0002535824D01*
X0001234643Y0002536278D01*
X0001229154Y0002538552D01*
X0001226109Y0002540587D01*
X0001223022Y0002542649D01*
X0001217807Y0002547865D01*
X0001213709Y0002553997D01*
X0001213709Y0002553997D01*
X0001210887Y0002560811D01*
X0001209448Y0002568044D01*
X0001209448Y0002575419D01*
X0001210887Y0002582653D01*
X0001213709Y0002589467D01*
X0001217807Y0002595599D01*
X0001217807Y0002595599D01*
X0001223022Y0002600814D01*
X0001229154Y0002604911D01*
X0001229154Y0002604911D01*
X0001235968Y0002607734D01*
X0001243202Y0002609173D01*
X0001250577Y0002609173D01*
X0001257810Y0002607734D01*
X0001257810Y0002607734D01*
G37*
G36*
X0000857500Y0002388506D02*
G01*
X0000863378Y0002387337D01*
X0000869833Y0002384663D01*
X0000875643Y0002380781D01*
X0000880584Y0002375840D01*
X0000884466Y0002370030D01*
X0000887140Y0002363575D01*
X0000888503Y0002356722D01*
X0000888503Y0002349734D01*
X0000887140Y0002342881D01*
X0000884466Y0002336425D01*
X0000880584Y0002330615D01*
X0000875643Y0002325675D01*
X0000869833Y0002321792D01*
X0000863378Y0002319118D01*
X0000857500Y0002317949D01*
X0000856525Y0002317755D01*
X0000849537Y0002317755D01*
X0000848562Y0002317949D01*
X0000842684Y0002319118D01*
X0000836228Y0002321792D01*
X0000830419Y0002325675D01*
X0000825478Y0002330615D01*
X0000821596Y0002336425D01*
X0000818922Y0002342881D01*
X0000817558Y0002349734D01*
X0000817558Y0002356722D01*
X0000818922Y0002363575D01*
X0000821596Y0002370030D01*
X0000825478Y0002375840D01*
X0000830419Y0002380781D01*
X0000836228Y0002384663D01*
X0000842684Y0002387337D01*
X0000848562Y0002388506D01*
X0000849537Y0002388700D01*
X0000856525Y0002388700D01*
X0000857500Y0002388506D01*
X0000857500Y0002388506D01*
G37*
G36*
X0000257500Y0002388506D02*
G01*
X0000263378Y0002387337D01*
X0000269833Y0002384663D01*
X0000275643Y0002380781D01*
X0000280584Y0002375840D01*
X0000284466Y0002370030D01*
X0000287140Y0002363575D01*
X0000288503Y0002356722D01*
X0000288503Y0002349734D01*
X0000287140Y0002342881D01*
X0000284466Y0002336425D01*
X0000280584Y0002330615D01*
X0000275643Y0002325675D01*
X0000269833Y0002321792D01*
X0000263378Y0002319118D01*
X0000257500Y0002317949D01*
X0000256525Y0002317755D01*
X0000249537Y0002317755D01*
X0000248562Y0002317949D01*
X0000242684Y0002319118D01*
X0000236228Y0002321792D01*
X0000230419Y0002325675D01*
X0000225478Y0002330615D01*
X0000221596Y0002336425D01*
X0000218922Y0002342881D01*
X0000217558Y0002349734D01*
X0000217558Y0002356722D01*
X0000218922Y0002363575D01*
X0000221596Y0002370030D01*
X0000225478Y0002375840D01*
X0000230419Y0002380781D01*
X0000236228Y0002384663D01*
X0000242684Y0002387337D01*
X0000248562Y0002388506D01*
X0000249537Y0002388700D01*
X0000256525Y0002388700D01*
X0000257500Y0002388506D01*
X0000257500Y0002388506D01*
G37*
G36*
X0000857500Y0002488506D02*
G01*
X0000863378Y0002487337D01*
X0000869833Y0002484663D01*
X0000875643Y0002480781D01*
X0000880584Y0002475840D01*
X0000884466Y0002470030D01*
X0000887140Y0002463575D01*
X0000888503Y0002456722D01*
X0000888503Y0002449734D01*
X0000887140Y0002442881D01*
X0000884466Y0002436425D01*
X0000880584Y0002430615D01*
X0000875643Y0002425675D01*
X0000869833Y0002421792D01*
X0000863378Y0002419119D01*
X0000857500Y0002417949D01*
X0000856525Y0002417755D01*
X0000849537Y0002417755D01*
X0000848562Y0002417949D01*
X0000842684Y0002419119D01*
X0000836228Y0002421792D01*
X0000830419Y0002425675D01*
X0000825478Y0002430615D01*
X0000821596Y0002436425D01*
X0000818922Y0002442881D01*
X0000817558Y0002449734D01*
X0000817558Y0002456722D01*
X0000818922Y0002463575D01*
X0000821596Y0002470030D01*
X0000825478Y0002475840D01*
X0000830419Y0002480781D01*
X0000836228Y0002484663D01*
X0000842684Y0002487337D01*
X0000848562Y0002488506D01*
X0000849537Y0002488700D01*
X0000856525Y0002488700D01*
X0000857500Y0002488506D01*
X0000857500Y0002488506D01*
G37*
G36*
X0000257500Y0002488506D02*
G01*
X0000263378Y0002487337D01*
X0000269833Y0002484663D01*
X0000275643Y0002480781D01*
X0000280584Y0002475840D01*
X0000284466Y0002470030D01*
X0000287140Y0002463575D01*
X0000288503Y0002456722D01*
X0000288503Y0002449734D01*
X0000287140Y0002442881D01*
X0000284466Y0002436425D01*
X0000280584Y0002430615D01*
X0000275643Y0002425675D01*
X0000269833Y0002421792D01*
X0000263378Y0002419119D01*
X0000257500Y0002417949D01*
X0000256525Y0002417755D01*
X0000249537Y0002417755D01*
X0000248562Y0002417949D01*
X0000242684Y0002419119D01*
X0000236228Y0002421792D01*
X0000230419Y0002425675D01*
X0000225478Y0002430615D01*
X0000221596Y0002436425D01*
X0000218922Y0002442881D01*
X0000217558Y0002449734D01*
X0000217558Y0002456722D01*
X0000218922Y0002463575D01*
X0000221596Y0002470030D01*
X0000225478Y0002475840D01*
X0000230419Y0002480781D01*
X0000236228Y0002484663D01*
X0000242684Y0002487337D01*
X0000248562Y0002488506D01*
X0000249537Y0002488700D01*
X0000256525Y0002488700D01*
X0000257500Y0002488506D01*
X0000257500Y0002488506D01*
G37*
G36*
X0000857500Y0002588506D02*
G01*
X0000863378Y0002587337D01*
X0000869833Y0002584663D01*
X0000875643Y0002580781D01*
X0000880584Y0002575840D01*
X0000884466Y0002570030D01*
X0000887140Y0002563575D01*
X0000888503Y0002556722D01*
X0000888503Y0002549734D01*
X0000887140Y0002542881D01*
X0000884466Y0002536425D01*
X0000880584Y0002530615D01*
X0000875643Y0002525675D01*
X0000869833Y0002521792D01*
X0000863378Y0002519118D01*
X0000857500Y0002517949D01*
X0000856525Y0002517755D01*
X0000849537Y0002517755D01*
X0000848562Y0002517949D01*
X0000842684Y0002519118D01*
X0000836228Y0002521792D01*
X0000830419Y0002525675D01*
X0000825478Y0002530615D01*
X0000821596Y0002536425D01*
X0000818922Y0002542881D01*
X0000817558Y0002549734D01*
X0000817558Y0002556722D01*
X0000818922Y0002563575D01*
X0000821596Y0002570030D01*
X0000825478Y0002575840D01*
X0000830419Y0002580781D01*
X0000836228Y0002584663D01*
X0000842684Y0002587337D01*
X0000848562Y0002588506D01*
X0000849537Y0002588700D01*
X0000856525Y0002588700D01*
X0000857500Y0002588506D01*
X0000857500Y0002588506D01*
G37*
G36*
X0000257500Y0002588506D02*
G01*
X0000263378Y0002587337D01*
X0000269833Y0002584663D01*
X0000275643Y0002580781D01*
X0000280584Y0002575840D01*
X0000284466Y0002570030D01*
X0000287140Y0002563575D01*
X0000288503Y0002556722D01*
X0000288503Y0002549734D01*
X0000287140Y0002542881D01*
X0000284466Y0002536425D01*
X0000280584Y0002530615D01*
X0000275643Y0002525675D01*
X0000269833Y0002521792D01*
X0000263378Y0002519118D01*
X0000257500Y0002517949D01*
X0000256525Y0002517755D01*
X0000249537Y0002517755D01*
X0000248562Y0002517949D01*
X0000242684Y0002519118D01*
X0000236228Y0002521792D01*
X0000230419Y0002525675D01*
X0000225478Y0002530615D01*
X0000221596Y0002536425D01*
X0000218922Y0002542881D01*
X0000217558Y0002549734D01*
X0000217558Y0002556722D01*
X0000218922Y0002563575D01*
X0000221596Y0002570030D01*
X0000225478Y0002575840D01*
X0000230419Y0002580781D01*
X0000236228Y0002584663D01*
X0000242684Y0002587337D01*
X0000248562Y0002588506D01*
X0000249537Y0002588700D01*
X0000256525Y0002588700D01*
X0000257500Y0002588506D01*
X0000257500Y0002588506D01*
G37*
G36*
X0000263815Y0002688779D02*
G01*
X0000270544Y0002685992D01*
X0000270544Y0002685992D01*
X0000276599Y0002681946D01*
X0000281749Y0002676796D01*
X0000283739Y0002673818D01*
X0000285796Y0002670741D01*
X0000288583Y0002664012D01*
X0000290003Y0002656869D01*
X0000290003Y0002649586D01*
X0000288583Y0002642443D01*
X0000285796Y0002635715D01*
X0000285795Y0002635715D01*
X0000281749Y0002629659D01*
X0000276599Y0002624509D01*
X0000270544Y0002620463D01*
X0000270544Y0002620463D01*
X0000270544Y0002620463D01*
X0000263815Y0002617676D01*
X0000256672Y0002616255D01*
X0000249389Y0002616255D01*
X0000242246Y0002617676D01*
X0000235518Y0002620463D01*
X0000235518Y0002620463D01*
X0000235518Y0002620463D01*
X0000229462Y0002624509D01*
X0000224313Y0002629659D01*
X0000220266Y0002635715D01*
X0000220266Y0002635715D01*
X0000217479Y0002642443D01*
X0000216058Y0002649586D01*
X0000216058Y0002656869D01*
X0000217479Y0002664012D01*
X0000220266Y0002670741D01*
X0000222323Y0002673818D01*
X0000224313Y0002676796D01*
X0000229462Y0002681946D01*
X0000235518Y0002685992D01*
X0000235518Y0002685992D01*
X0000242246Y0002688779D01*
X0000249389Y0002690200D01*
X0000256672Y0002690200D01*
X0000263815Y0002688779D01*
X0000263815Y0002688779D01*
G37*
G36*
X0000857500Y0002688506D02*
G01*
X0000863378Y0002687337D01*
X0000869833Y0002684663D01*
X0000875643Y0002680781D01*
X0000880584Y0002675840D01*
X0000884466Y0002670030D01*
X0000887140Y0002663575D01*
X0000888503Y0002656722D01*
X0000888503Y0002649734D01*
X0000887140Y0002642881D01*
X0000884466Y0002636425D01*
X0000880584Y0002630615D01*
X0000875643Y0002625675D01*
X0000869833Y0002621793D01*
X0000863378Y0002619118D01*
X0000857500Y0002617949D01*
X0000856525Y0002617755D01*
X0000849537Y0002617755D01*
X0000848562Y0002617949D01*
X0000842684Y0002619118D01*
X0000836228Y0002621793D01*
X0000830419Y0002625675D01*
X0000825478Y0002630615D01*
X0000821596Y0002636425D01*
X0000818922Y0002642881D01*
X0000817558Y0002649734D01*
X0000817558Y0002656722D01*
X0000818922Y0002663575D01*
X0000821596Y0002670030D01*
X0000825478Y0002675840D01*
X0000830419Y0002680781D01*
X0000836228Y0002684663D01*
X0000842684Y0002687337D01*
X0000848562Y0002688506D01*
X0000849537Y0002688700D01*
X0000856525Y0002688700D01*
X0000857500Y0002688506D01*
X0000857500Y0002688506D01*
G37*
G36*
X0001452381Y0002772322D02*
G01*
X0001461702Y0002768461D01*
X0001461702Y0002768461D01*
X0001469016Y0002763575D01*
X0001470092Y0002762856D01*
X0001477226Y0002755721D01*
X0001482831Y0002747332D01*
X0001486692Y0002738011D01*
X0001488661Y0002728115D01*
X0001488661Y0002718025D01*
X0001486692Y0002708130D01*
X0001482831Y0002698808D01*
X0001482831Y0002698808D01*
X0001477226Y0002690419D01*
X0001470092Y0002683285D01*
X0001461702Y0002677679D01*
X0001461702Y0002677679D01*
X0001461702Y0002677679D01*
X0001452381Y0002673818D01*
X0001442485Y0002671850D01*
X0001432396Y0002671850D01*
X0001422500Y0002673818D01*
X0001413178Y0002677679D01*
X0001413178Y0002677679D01*
X0001413178Y0002677679D01*
X0001404789Y0002683285D01*
X0001397655Y0002690419D01*
X0001392049Y0002698808D01*
X0001392049Y0002698808D01*
X0001388188Y0002708130D01*
X0001386220Y0002718025D01*
X0001386220Y0002728115D01*
X0001388188Y0002738011D01*
X0001392049Y0002747332D01*
X0001397655Y0002755721D01*
X0001404789Y0002762856D01*
X0001405865Y0002763575D01*
X0001413178Y0002768461D01*
X0001413178Y0002768461D01*
X0001422500Y0002772322D01*
X0001432396Y0002774291D01*
X0001442485Y0002774291D01*
X0001452381Y0002772322D01*
X0001452381Y0002772322D01*
G37*
G36*
X0000857500Y0002788506D02*
G01*
X0000863378Y0002787337D01*
X0000869833Y0002784663D01*
X0000875643Y0002780781D01*
X0000880584Y0002775840D01*
X0000884466Y0002770030D01*
X0000887140Y0002763575D01*
X0000888503Y0002756722D01*
X0000888503Y0002749734D01*
X0000887140Y0002742881D01*
X0000884466Y0002736425D01*
X0000880584Y0002730615D01*
X0000875643Y0002725675D01*
X0000869833Y0002721792D01*
X0000863378Y0002719118D01*
X0000857883Y0002718025D01*
X0000856525Y0002717755D01*
X0000849537Y0002717755D01*
X0000848179Y0002718025D01*
X0000842684Y0002719118D01*
X0000836228Y0002721792D01*
X0000830419Y0002725675D01*
X0000825478Y0002730615D01*
X0000821596Y0002736425D01*
X0000818922Y0002742881D01*
X0000817558Y0002749734D01*
X0000817558Y0002756722D01*
X0000818922Y0002763575D01*
X0000821596Y0002770030D01*
X0000825478Y0002775840D01*
X0000830419Y0002780781D01*
X0000836228Y0002784663D01*
X0000842684Y0002787337D01*
X0000848562Y0002788506D01*
X0000849537Y0002788700D01*
X0000856525Y0002788700D01*
X0000857500Y0002788506D01*
X0000857500Y0002788506D01*
G37*
G36*
X0001256662Y0002783830D02*
G01*
X0001262759Y0002781304D01*
X0001268247Y0002777638D01*
X0001272913Y0002772971D01*
X0001276580Y0002767484D01*
X0001279106Y0002761386D01*
X0001280393Y0002754913D01*
X0001280393Y0002748314D01*
X0001279106Y0002741841D01*
X0001276580Y0002735744D01*
X0001272913Y0002730256D01*
X0001268247Y0002725589D01*
X0001262759Y0002721923D01*
X0001256662Y0002719397D01*
X0001250189Y0002718110D01*
X0001243589Y0002718110D01*
X0001237116Y0002719397D01*
X0001231019Y0002721923D01*
X0001225532Y0002725589D01*
X0001220865Y0002730256D01*
X0001217198Y0002735744D01*
X0001214673Y0002741841D01*
X0001213385Y0002748314D01*
X0001213385Y0002754913D01*
X0001214673Y0002761386D01*
X0001217198Y0002767484D01*
X0001220865Y0002772971D01*
X0001225532Y0002777638D01*
X0001231019Y0002781304D01*
X0001237116Y0002783830D01*
X0001243589Y0002785118D01*
X0001250189Y0002785118D01*
X0001256662Y0002783830D01*
X0001256662Y0002783830D01*
G37*
G36*
X0001254182Y0002911547D02*
G01*
X0001260279Y0002909021D01*
X0001265766Y0002905354D01*
X0001270433Y0002900688D01*
X0001274100Y0002895200D01*
X0001276625Y0002889103D01*
X0001277913Y0002882630D01*
X0001277913Y0002876030D01*
X0001276625Y0002869557D01*
X0001274100Y0002863460D01*
X0001270433Y0002857973D01*
X0001265766Y0002853306D01*
X0001260279Y0002849639D01*
X0001254182Y0002847114D01*
X0001247709Y0002845826D01*
X0001241109Y0002845826D01*
X0001234636Y0002847114D01*
X0001228539Y0002849639D01*
X0001223051Y0002853306D01*
X0001218385Y0002857973D01*
X0001214718Y0002863460D01*
X0001212192Y0002869557D01*
X0001210905Y0002876030D01*
X0001210905Y0002882630D01*
X0001212192Y0002889103D01*
X0001214718Y0002895200D01*
X0001218385Y0002900688D01*
X0001223051Y0002905354D01*
X0001228539Y0002909021D01*
X0001234636Y0002911547D01*
X0001241109Y0002912834D01*
X0001247709Y0002912834D01*
X0001254182Y0002911547D01*
X0001254182Y0002911547D01*
G37*
G36*
X0001449900Y0002957126D02*
G01*
X0001459222Y0002953265D01*
X0001459222Y0002953264D01*
X0001467611Y0002947659D01*
X0001474746Y0002940525D01*
X0001480351Y0002932135D01*
X0001484212Y0002922814D01*
X0001486181Y0002912918D01*
X0001486181Y0002902829D01*
X0001484212Y0002892933D01*
X0001482626Y0002889103D01*
X0001480351Y0002883611D01*
X0001474746Y0002875222D01*
X0001467611Y0002868088D01*
X0001459222Y0002862482D01*
X0001459222Y0002862482D01*
X0001459222Y0002862482D01*
X0001449900Y0002858621D01*
X0001440005Y0002856653D01*
X0001429915Y0002856653D01*
X0001420020Y0002858621D01*
X0001410698Y0002862482D01*
X0001410698Y0002862482D01*
X0001410698Y0002862482D01*
X0001402309Y0002868088D01*
X0001395175Y0002875222D01*
X0001389569Y0002883611D01*
X0001387294Y0002889103D01*
X0001385708Y0002892933D01*
X0001383740Y0002902829D01*
X0001383740Y0002912918D01*
X0001385708Y0002922814D01*
X0001389569Y0002932135D01*
X0001395175Y0002940525D01*
X0001402309Y0002947659D01*
X0001410698Y0002953264D01*
X0001410698Y0002953265D01*
X0001420020Y0002957126D01*
X0001429915Y0002959094D01*
X0001440005Y0002959094D01*
X0001449900Y0002957126D01*
X0001449900Y0002957126D01*
G37*
G36*
X0001355330Y0003335214D02*
G01*
X0001362144Y0003332392D01*
X0001362144Y0003332392D01*
X0001368276Y0003328294D01*
X0001373491Y0003323079D01*
X0001373491Y0003323079D01*
X0001377589Y0003316947D01*
X0001380411Y0003310133D01*
X0001381850Y0003302900D01*
X0001381850Y0003295524D01*
X0001380411Y0003288291D01*
X0001377589Y0003281477D01*
X0001377589Y0003281477D01*
X0001373491Y0003275345D01*
X0001368276Y0003270130D01*
X0001367720Y0003269758D01*
X0001362144Y0003266032D01*
X0001356655Y0003263759D01*
X0001355804Y0003263304D01*
X0001355058Y0003262692D01*
X0001354446Y0003261946D01*
X0001353991Y0003261095D01*
X0001353711Y0003260172D01*
X0001353617Y0003259212D01*
X0001353711Y0003258252D01*
X0001353991Y0003257329D01*
X0001354446Y0003256478D01*
X0001355058Y0003255732D01*
X0001355804Y0003255120D01*
X0001356655Y0003254665D01*
X0001362144Y0003252392D01*
X0001365189Y0003250357D01*
X0001368276Y0003248294D01*
X0001373491Y0003243079D01*
X0001373491Y0003243079D01*
X0001377589Y0003236947D01*
X0001380411Y0003230133D01*
X0001381850Y0003222900D01*
X0001381850Y0003215524D01*
X0001380411Y0003208291D01*
X0001377589Y0003201477D01*
X0001377589Y0003201477D01*
X0001373491Y0003195345D01*
X0001368276Y0003190130D01*
X0001365189Y0003188067D01*
X0001362144Y0003186032D01*
X0001356655Y0003183759D01*
X0001355804Y0003183304D01*
X0001355058Y0003182692D01*
X0001354446Y0003181946D01*
X0001353991Y0003181095D01*
X0001353711Y0003180172D01*
X0001353617Y0003179212D01*
X0001353711Y0003178252D01*
X0001353991Y0003177329D01*
X0001354446Y0003176478D01*
X0001355058Y0003175732D01*
X0001355804Y0003175120D01*
X0001356655Y0003174665D01*
X0001362144Y0003172392D01*
X0001362144Y0003172392D01*
X0001368276Y0003168294D01*
X0001373491Y0003163079D01*
X0001373491Y0003163079D01*
X0001377589Y0003156947D01*
X0001380411Y0003150133D01*
X0001381850Y0003142900D01*
X0001381850Y0003135524D01*
X0001380411Y0003128291D01*
X0001377589Y0003121477D01*
X0001377589Y0003121477D01*
X0001373491Y0003115345D01*
X0001368276Y0003110130D01*
X0001365189Y0003108067D01*
X0001362144Y0003106032D01*
X0001356655Y0003103759D01*
X0001355804Y0003103304D01*
X0001355058Y0003102692D01*
X0001354446Y0003101946D01*
X0001353991Y0003101095D01*
X0001353711Y0003100172D01*
X0001353617Y0003099212D01*
X0001353711Y0003098252D01*
X0001353991Y0003097329D01*
X0001354446Y0003096478D01*
X0001355058Y0003095732D01*
X0001355804Y0003095120D01*
X0001356655Y0003094665D01*
X0001362144Y0003092392D01*
X0001362144Y0003092392D01*
X0001368276Y0003088294D01*
X0001373491Y0003083079D01*
X0001373491Y0003083079D01*
X0001377589Y0003076947D01*
X0001380411Y0003070133D01*
X0001381850Y0003062900D01*
X0001381850Y0003055524D01*
X0001380411Y0003048291D01*
X0001377589Y0003041477D01*
X0001377589Y0003041477D01*
X0001373491Y0003035345D01*
X0001368276Y0003030130D01*
X0001365189Y0003028067D01*
X0001362144Y0003026032D01*
X0001355330Y0003023210D01*
X0001348097Y0003021771D01*
X0001340721Y0003021771D01*
X0001333488Y0003023210D01*
X0001326674Y0003026032D01*
X0001323629Y0003028067D01*
X0001320542Y0003030130D01*
X0001315327Y0003035345D01*
X0001311229Y0003041477D01*
X0001311229Y0003041477D01*
X0001308407Y0003048291D01*
X0001306968Y0003055524D01*
X0001306968Y0003062900D01*
X0001308407Y0003070133D01*
X0001311229Y0003076947D01*
X0001315327Y0003083079D01*
X0001315327Y0003083079D01*
X0001320542Y0003088294D01*
X0001326674Y0003092392D01*
X0001326674Y0003092392D01*
X0001332163Y0003094665D01*
X0001333014Y0003095120D01*
X0001333760Y0003095732D01*
X0001334372Y0003096478D01*
X0001334826Y0003097329D01*
X0001335106Y0003098252D01*
X0001335201Y0003099212D01*
X0001335106Y0003100172D01*
X0001334826Y0003101095D01*
X0001334372Y0003101946D01*
X0001333760Y0003102692D01*
X0001333014Y0003103304D01*
X0001332163Y0003103759D01*
X0001326674Y0003106032D01*
X0001323629Y0003108067D01*
X0001320542Y0003110130D01*
X0001315327Y0003115345D01*
X0001311229Y0003121477D01*
X0001311229Y0003121477D01*
X0001308407Y0003128291D01*
X0001306968Y0003135524D01*
X0001306968Y0003142900D01*
X0001308407Y0003150133D01*
X0001311229Y0003156947D01*
X0001315327Y0003163079D01*
X0001315327Y0003163079D01*
X0001320542Y0003168294D01*
X0001326674Y0003172392D01*
X0001326674Y0003172392D01*
X0001332163Y0003174665D01*
X0001333014Y0003175120D01*
X0001333760Y0003175732D01*
X0001334372Y0003176478D01*
X0001334826Y0003177329D01*
X0001335106Y0003178252D01*
X0001335201Y0003179212D01*
X0001335106Y0003180172D01*
X0001334826Y0003181095D01*
X0001334372Y0003181946D01*
X0001333760Y0003182692D01*
X0001333014Y0003183304D01*
X0001332163Y0003183759D01*
X0001326674Y0003186032D01*
X0001323629Y0003188067D01*
X0001320542Y0003190130D01*
X0001315327Y0003195345D01*
X0001311229Y0003201477D01*
X0001311229Y0003201477D01*
X0001308407Y0003208291D01*
X0001306968Y0003215524D01*
X0001306968Y0003222900D01*
X0001308407Y0003230133D01*
X0001311229Y0003236947D01*
X0001315327Y0003243079D01*
X0001315327Y0003243079D01*
X0001320542Y0003248294D01*
X0001323629Y0003250357D01*
X0001326674Y0003252392D01*
X0001332163Y0003254665D01*
X0001333014Y0003255120D01*
X0001333760Y0003255732D01*
X0001334372Y0003256478D01*
X0001334826Y0003257329D01*
X0001335106Y0003258252D01*
X0001335201Y0003259212D01*
X0001335106Y0003260172D01*
X0001334826Y0003261095D01*
X0001334372Y0003261946D01*
X0001333760Y0003262692D01*
X0001333014Y0003263304D01*
X0001332163Y0003263759D01*
X0001326674Y0003266032D01*
X0001321098Y0003269758D01*
X0001320542Y0003270130D01*
X0001315327Y0003275345D01*
X0001311229Y0003281477D01*
X0001311229Y0003281477D01*
X0001308407Y0003288291D01*
X0001306968Y0003295524D01*
X0001306968Y0003302900D01*
X0001308407Y0003310133D01*
X0001311229Y0003316947D01*
X0001315327Y0003323079D01*
X0001315327Y0003323079D01*
X0001320542Y0003328294D01*
X0001326674Y0003332392D01*
X0001326674Y0003332392D01*
X0001333488Y0003335214D01*
X0001340721Y0003336653D01*
X0001348097Y0003336653D01*
X0001355330Y0003335214D01*
X0001355330Y0003335214D01*
G37*
G36*
X0001255330Y0003375214D02*
G01*
X0001262144Y0003372392D01*
X0001262144Y0003372392D01*
X0001268276Y0003368294D01*
X0001273491Y0003363079D01*
X0001273491Y0003363079D01*
X0001277589Y0003356947D01*
X0001280411Y0003350133D01*
X0001281850Y0003342900D01*
X0001281850Y0003335524D01*
X0001280411Y0003328291D01*
X0001277589Y0003321477D01*
X0001277589Y0003321477D01*
X0001273491Y0003315345D01*
X0001268276Y0003310130D01*
X0001267547Y0003309643D01*
X0001262144Y0003306032D01*
X0001256655Y0003303759D01*
X0001255804Y0003303304D01*
X0001255058Y0003302692D01*
X0001254446Y0003301946D01*
X0001253991Y0003301095D01*
X0001253711Y0003300172D01*
X0001253617Y0003299212D01*
X0001253711Y0003298252D01*
X0001253991Y0003297329D01*
X0001254446Y0003296478D01*
X0001255058Y0003295732D01*
X0001255804Y0003295120D01*
X0001256655Y0003294665D01*
X0001262144Y0003292392D01*
X0001262144Y0003292392D01*
X0001268276Y0003288294D01*
X0001273491Y0003283079D01*
X0001273491Y0003283079D01*
X0001277589Y0003276947D01*
X0001280411Y0003270133D01*
X0001281850Y0003262900D01*
X0001281850Y0003255524D01*
X0001280411Y0003248291D01*
X0001277589Y0003241477D01*
X0001277589Y0003241477D01*
X0001273491Y0003235345D01*
X0001268276Y0003230130D01*
X0001265189Y0003228067D01*
X0001262144Y0003226032D01*
X0001256655Y0003223759D01*
X0001255804Y0003223304D01*
X0001255058Y0003222692D01*
X0001254446Y0003221946D01*
X0001253991Y0003221095D01*
X0001253711Y0003220172D01*
X0001253617Y0003219212D01*
X0001253711Y0003218252D01*
X0001253991Y0003217329D01*
X0001254446Y0003216478D01*
X0001255058Y0003215732D01*
X0001255804Y0003215120D01*
X0001256655Y0003214665D01*
X0001262144Y0003212392D01*
X0001262144Y0003212392D01*
X0001268276Y0003208294D01*
X0001273491Y0003203079D01*
X0001273491Y0003203079D01*
X0001277589Y0003196947D01*
X0001280411Y0003190133D01*
X0001281850Y0003182900D01*
X0001281850Y0003175524D01*
X0001280411Y0003168291D01*
X0001277589Y0003161477D01*
X0001277589Y0003161477D01*
X0001273491Y0003155345D01*
X0001268276Y0003150130D01*
X0001265189Y0003148067D01*
X0001262144Y0003146032D01*
X0001256655Y0003143759D01*
X0001255804Y0003143304D01*
X0001255058Y0003142692D01*
X0001254446Y0003141946D01*
X0001253991Y0003141095D01*
X0001253711Y0003140172D01*
X0001253617Y0003139212D01*
X0001253711Y0003138252D01*
X0001253991Y0003137329D01*
X0001254446Y0003136478D01*
X0001255058Y0003135732D01*
X0001255804Y0003135120D01*
X0001256655Y0003134665D01*
X0001262144Y0003132392D01*
X0001262144Y0003132392D01*
X0001268276Y0003128294D01*
X0001273491Y0003123079D01*
X0001273491Y0003123079D01*
X0001277589Y0003116947D01*
X0001280411Y0003110133D01*
X0001281850Y0003102900D01*
X0001281850Y0003095524D01*
X0001280411Y0003088291D01*
X0001277589Y0003081477D01*
X0001277589Y0003081477D01*
X0001273491Y0003075345D01*
X0001268276Y0003070130D01*
X0001265189Y0003068067D01*
X0001262144Y0003066032D01*
X0001255330Y0003063210D01*
X0001248097Y0003061771D01*
X0001240721Y0003061771D01*
X0001233488Y0003063210D01*
X0001226674Y0003066032D01*
X0001223629Y0003068067D01*
X0001220542Y0003070130D01*
X0001215327Y0003075345D01*
X0001211229Y0003081477D01*
X0001211229Y0003081477D01*
X0001208407Y0003088291D01*
X0001206968Y0003095524D01*
X0001206968Y0003102900D01*
X0001208407Y0003110133D01*
X0001211229Y0003116947D01*
X0001215327Y0003123079D01*
X0001215327Y0003123079D01*
X0001220542Y0003128294D01*
X0001226674Y0003132392D01*
X0001226674Y0003132392D01*
X0001232163Y0003134665D01*
X0001233014Y0003135120D01*
X0001233760Y0003135732D01*
X0001234372Y0003136478D01*
X0001234826Y0003137329D01*
X0001235106Y0003138252D01*
X0001235201Y0003139212D01*
X0001235106Y0003140172D01*
X0001234826Y0003141095D01*
X0001234372Y0003141946D01*
X0001233760Y0003142692D01*
X0001233014Y0003143304D01*
X0001232163Y0003143759D01*
X0001226674Y0003146032D01*
X0001223629Y0003148067D01*
X0001220542Y0003150130D01*
X0001215327Y0003155345D01*
X0001211229Y0003161477D01*
X0001211229Y0003161477D01*
X0001208407Y0003168291D01*
X0001206968Y0003175524D01*
X0001206968Y0003182900D01*
X0001208407Y0003190133D01*
X0001211229Y0003196947D01*
X0001215327Y0003203079D01*
X0001215327Y0003203079D01*
X0001220542Y0003208294D01*
X0001226674Y0003212392D01*
X0001226674Y0003212392D01*
X0001232163Y0003214665D01*
X0001233014Y0003215120D01*
X0001233760Y0003215732D01*
X0001234372Y0003216478D01*
X0001234826Y0003217329D01*
X0001235106Y0003218252D01*
X0001235201Y0003219212D01*
X0001235106Y0003220172D01*
X0001234826Y0003221095D01*
X0001234372Y0003221946D01*
X0001233760Y0003222692D01*
X0001233014Y0003223304D01*
X0001232163Y0003223759D01*
X0001226674Y0003226032D01*
X0001223629Y0003228067D01*
X0001220542Y0003230130D01*
X0001215327Y0003235345D01*
X0001211229Y0003241477D01*
X0001211229Y0003241477D01*
X0001208407Y0003248291D01*
X0001206968Y0003255524D01*
X0001206968Y0003262900D01*
X0001208407Y0003270133D01*
X0001211229Y0003276947D01*
X0001215327Y0003283079D01*
X0001215327Y0003283079D01*
X0001220542Y0003288294D01*
X0001226674Y0003292392D01*
X0001226674Y0003292392D01*
X0001232163Y0003294665D01*
X0001233014Y0003295120D01*
X0001233760Y0003295732D01*
X0001234372Y0003296478D01*
X0001234826Y0003297329D01*
X0001235106Y0003298252D01*
X0001235201Y0003299212D01*
X0001235106Y0003300172D01*
X0001234826Y0003301095D01*
X0001234372Y0003301946D01*
X0001233760Y0003302692D01*
X0001233014Y0003303304D01*
X0001232163Y0003303759D01*
X0001226674Y0003306032D01*
X0001221270Y0003309643D01*
X0001220542Y0003310130D01*
X0001215327Y0003315345D01*
X0001211229Y0003321477D01*
X0001211229Y0003321477D01*
X0001208407Y0003328291D01*
X0001206968Y0003335524D01*
X0001206968Y0003342900D01*
X0001208407Y0003350133D01*
X0001211229Y0003356947D01*
X0001215327Y0003363079D01*
X0001215327Y0003363079D01*
X0001220542Y0003368294D01*
X0001226674Y0003372392D01*
X0001226674Y0003372392D01*
X0001233488Y0003375214D01*
X0001240721Y0003376653D01*
X0001248097Y0003376653D01*
X0001255330Y0003375214D01*
X0001255330Y0003375214D01*
G37*
G36*
X0000958757Y0003311928D02*
G01*
X0000961363Y0003311671D01*
X0000968049Y0003309643D01*
X0000974212Y0003306349D01*
X0000975619Y0003305194D01*
X0000979613Y0003301916D01*
X0000981832Y0003299212D01*
X0000984046Y0003296515D01*
X0000987340Y0003290352D01*
X0000989368Y0003283666D01*
X0000990053Y0003276712D01*
X0000989368Y0003269758D01*
X0000987340Y0003263072D01*
X0000984046Y0003256909D01*
X0000983835Y0003256653D01*
X0000979613Y0003251508D01*
X0000975697Y0003248294D01*
X0000974212Y0003247075D01*
X0000968049Y0003243781D01*
X0000961363Y0003241753D01*
X0000958757Y0003241496D01*
X0000956151Y0003241240D01*
X0000952666Y0003241240D01*
X0000950061Y0003241496D01*
X0000947455Y0003241753D01*
X0000940768Y0003243781D01*
X0000934606Y0003247075D01*
X0000933120Y0003248294D01*
X0000929205Y0003251508D01*
X0000924982Y0003256653D01*
X0000924772Y0003256909D01*
X0000921478Y0003263072D01*
X0000919450Y0003269758D01*
X0000918765Y0003276712D01*
X0000919450Y0003283666D01*
X0000921478Y0003290352D01*
X0000924772Y0003296515D01*
X0000926985Y0003299212D01*
X0000929205Y0003301916D01*
X0000933199Y0003305194D01*
X0000934606Y0003306349D01*
X0000940768Y0003309643D01*
X0000947455Y0003311671D01*
X0000950061Y0003311928D01*
X0000952666Y0003312185D01*
X0000956151Y0003312185D01*
X0000958757Y0003311928D01*
X0000958757Y0003311928D01*
G37*
G36*
X0000463719Y0003383250D02*
G01*
X0000468742Y0003381169D01*
X0000473262Y0003378149D01*
X0000477106Y0003374305D01*
X0000480126Y0003369785D01*
X0000482207Y0003364762D01*
X0000483267Y0003359430D01*
X0000483267Y0003353994D01*
X0000482207Y0003348662D01*
X0000480126Y0003343639D01*
X0000477106Y0003339119D01*
X0000473262Y0003335275D01*
X0000468742Y0003332255D01*
X0000463719Y0003330174D01*
X0000458387Y0003329114D01*
X0000452950Y0003329114D01*
X0000447619Y0003330174D01*
X0000442596Y0003332255D01*
X0000438076Y0003335275D01*
X0000434232Y0003339119D01*
X0000431211Y0003343639D01*
X0000429131Y0003348662D01*
X0000428070Y0003353994D01*
X0000428070Y0003359430D01*
X0000429131Y0003364762D01*
X0000431211Y0003369785D01*
X0000434232Y0003374305D01*
X0000438076Y0003378149D01*
X0000442596Y0003381169D01*
X0000447619Y0003383250D01*
X0000452950Y0003384310D01*
X0000458387Y0003384310D01*
X0000463719Y0003383250D01*
X0000463719Y0003383250D01*
G37*
G36*
X0000148758Y0003383250D02*
G01*
X0000153781Y0003381169D01*
X0000158301Y0003378149D01*
X0000162145Y0003374305D01*
X0000165165Y0003369785D01*
X0000167246Y0003364762D01*
X0000168307Y0003359430D01*
X0000168307Y0003353994D01*
X0000167246Y0003348662D01*
X0000165165Y0003343639D01*
X0000162145Y0003339119D01*
X0000158301Y0003335275D01*
X0000153781Y0003332255D01*
X0000148758Y0003330174D01*
X0000143426Y0003329114D01*
X0000137990Y0003329114D01*
X0000132658Y0003330174D01*
X0000127635Y0003332255D01*
X0000123115Y0003335275D01*
X0000119271Y0003339119D01*
X0000116251Y0003343639D01*
X0000114170Y0003348662D01*
X0000113110Y0003353994D01*
X0000113110Y0003359430D01*
X0000114170Y0003364762D01*
X0000116251Y0003369785D01*
X0000119271Y0003374305D01*
X0000123115Y0003378149D01*
X0000127635Y0003381169D01*
X0000132658Y0003383250D01*
X0000137990Y0003384310D01*
X0000143426Y0003384310D01*
X0000148758Y0003383250D01*
X0000148758Y0003383250D01*
G37*
G36*
X0000227498Y0003383250D02*
G01*
X0000232521Y0003381169D01*
X0000237041Y0003378149D01*
X0000240885Y0003374305D01*
X0000243906Y0003369785D01*
X0000245986Y0003364762D01*
X0000247047Y0003359430D01*
X0000247047Y0003353994D01*
X0000245986Y0003348662D01*
X0000243906Y0003343639D01*
X0000240885Y0003339119D01*
X0000237041Y0003335275D01*
X0000232521Y0003332255D01*
X0000227498Y0003330174D01*
X0000222167Y0003329114D01*
X0000216730Y0003329114D01*
X0000211398Y0003330174D01*
X0000206375Y0003332255D01*
X0000201855Y0003335275D01*
X0000198011Y0003339119D01*
X0000194991Y0003343639D01*
X0000192910Y0003348662D01*
X0000191850Y0003353994D01*
X0000191850Y0003359430D01*
X0000192910Y0003364762D01*
X0000194991Y0003369785D01*
X0000198011Y0003374305D01*
X0000201855Y0003378149D01*
X0000206375Y0003381169D01*
X0000211398Y0003383250D01*
X0000216730Y0003384310D01*
X0000222167Y0003384310D01*
X0000227498Y0003383250D01*
X0000227498Y0003383250D01*
G37*
G36*
X0000306238Y0003383250D02*
G01*
X0000311261Y0003381169D01*
X0000315781Y0003378149D01*
X0000319626Y0003374305D01*
X0000322646Y0003369785D01*
X0000324726Y0003364762D01*
X0000325787Y0003359430D01*
X0000325787Y0003353994D01*
X0000324726Y0003348662D01*
X0000322646Y0003343639D01*
X0000319626Y0003339119D01*
X0000315781Y0003335275D01*
X0000311261Y0003332255D01*
X0000306238Y0003330174D01*
X0000300907Y0003329114D01*
X0000295470Y0003329114D01*
X0000290138Y0003330174D01*
X0000285116Y0003332255D01*
X0000280596Y0003335275D01*
X0000276751Y0003339119D01*
X0000273731Y0003343639D01*
X0000271650Y0003348662D01*
X0000270590Y0003353994D01*
X0000270590Y0003359430D01*
X0000271650Y0003364762D01*
X0000273731Y0003369785D01*
X0000276751Y0003374305D01*
X0000280596Y0003378149D01*
X0000285116Y0003381169D01*
X0000290138Y0003383250D01*
X0000295470Y0003384310D01*
X0000300907Y0003384310D01*
X0000306238Y0003383250D01*
X0000306238Y0003383250D01*
G37*
G36*
X0000384979Y0003383250D02*
G01*
X0000390001Y0003381169D01*
X0000394521Y0003378149D01*
X0000398366Y0003374305D01*
X0000401386Y0003369785D01*
X0000403466Y0003364762D01*
X0000404527Y0003359430D01*
X0000404527Y0003353994D01*
X0000403466Y0003348662D01*
X0000401386Y0003343639D01*
X0000398366Y0003339119D01*
X0000394521Y0003335275D01*
X0000390001Y0003332255D01*
X0000384979Y0003330174D01*
X0000379647Y0003329114D01*
X0000374210Y0003329114D01*
X0000368878Y0003330174D01*
X0000363856Y0003332255D01*
X0000359336Y0003335275D01*
X0000355491Y0003339119D01*
X0000352471Y0003343639D01*
X0000350391Y0003348662D01*
X0000349330Y0003353994D01*
X0000349330Y0003359430D01*
X0000350391Y0003364762D01*
X0000352471Y0003369785D01*
X0000355491Y0003374305D01*
X0000359336Y0003378149D01*
X0000363856Y0003381169D01*
X0000368878Y0003383250D01*
X0000374210Y0003384310D01*
X0000379647Y0003384310D01*
X0000384979Y0003383250D01*
X0000384979Y0003383250D01*
G37*
G36*
X0000542459Y0003383250D02*
G01*
X0000547482Y0003381169D01*
X0000552002Y0003378149D01*
X0000555846Y0003374305D01*
X0000558866Y0003369785D01*
X0000560947Y0003364762D01*
X0000562007Y0003359430D01*
X0000562007Y0003353994D01*
X0000560947Y0003348662D01*
X0000558866Y0003343639D01*
X0000555846Y0003339119D01*
X0000552002Y0003335275D01*
X0000547482Y0003332255D01*
X0000542459Y0003330174D01*
X0000537127Y0003329114D01*
X0000531691Y0003329114D01*
X0000526359Y0003330174D01*
X0000521336Y0003332255D01*
X0000516816Y0003335275D01*
X0000512972Y0003339119D01*
X0000509951Y0003343639D01*
X0000507871Y0003348662D01*
X0000506810Y0003353994D01*
X0000506810Y0003359430D01*
X0000507871Y0003364762D01*
X0000509951Y0003369785D01*
X0000512972Y0003374305D01*
X0000516816Y0003378149D01*
X0000521336Y0003381169D01*
X0000526359Y0003383250D01*
X0000531691Y0003384310D01*
X0000537127Y0003384310D01*
X0000542459Y0003383250D01*
X0000542459Y0003383250D01*
G37*
G36*
X0000989881Y0003341240D02*
G01*
X0000918936Y0003341240D01*
X0000918936Y0003412184D01*
X0000989881Y0003412184D01*
X0000989881Y0003341240D01*
X0000989881Y0003341240D01*
G37*
G36*
X0001449900Y0003539803D02*
G01*
X0001459222Y0003535942D01*
X0001459222Y0003535942D01*
X0001461690Y0003534293D01*
X0001467611Y0003530336D01*
X0001474746Y0003523202D01*
X0001480351Y0003514813D01*
X0001484212Y0003505491D01*
X0001486181Y0003495595D01*
X0001486181Y0003485506D01*
X0001484212Y0003475610D01*
X0001480351Y0003466289D01*
X0001480351Y0003466289D01*
X0001474746Y0003457900D01*
X0001467611Y0003450765D01*
X0001459222Y0003445160D01*
X0001459222Y0003445160D01*
X0001459222Y0003445160D01*
X0001449900Y0003441298D01*
X0001440005Y0003439330D01*
X0001429915Y0003439330D01*
X0001420020Y0003441298D01*
X0001410698Y0003445160D01*
X0001410698Y0003445160D01*
X0001410698Y0003445160D01*
X0001402309Y0003450765D01*
X0001395175Y0003457900D01*
X0001389569Y0003466289D01*
X0001389569Y0003466289D01*
X0001385708Y0003475610D01*
X0001383740Y0003485506D01*
X0001383740Y0003495595D01*
X0001385708Y0003505491D01*
X0001389569Y0003514813D01*
X0001395175Y0003523202D01*
X0001402309Y0003530336D01*
X0001408230Y0003534293D01*
X0001410698Y0003535942D01*
X0001410698Y0003535942D01*
X0001420020Y0003539803D01*
X0001429915Y0003541771D01*
X0001440005Y0003541771D01*
X0001449900Y0003539803D01*
X0001449900Y0003539803D01*
G37*
G36*
X0001254182Y0003551310D02*
G01*
X0001260279Y0003548785D01*
X0001265766Y0003545118D01*
X0001270433Y0003540451D01*
X0001274100Y0003534964D01*
X0001276625Y0003528867D01*
X0001277913Y0003522394D01*
X0001277913Y0003515794D01*
X0001276625Y0003509321D01*
X0001274100Y0003503224D01*
X0001270433Y0003497736D01*
X0001265766Y0003493070D01*
X0001260279Y0003489403D01*
X0001254182Y0003486877D01*
X0001247709Y0003485590D01*
X0001241109Y0003485590D01*
X0001234636Y0003486877D01*
X0001228539Y0003489403D01*
X0001223051Y0003493070D01*
X0001218385Y0003497736D01*
X0001214718Y0003503224D01*
X0001212192Y0003509321D01*
X0001210905Y0003515794D01*
X0001210905Y0003522394D01*
X0001212192Y0003528867D01*
X0001214718Y0003534964D01*
X0001218385Y0003540451D01*
X0001223051Y0003545118D01*
X0001228539Y0003548785D01*
X0001234636Y0003551310D01*
X0001241109Y0003552598D01*
X0001247709Y0003552598D01*
X0001254182Y0003551310D01*
X0001254182Y0003551310D01*
G37*
G36*
X0001597207Y0003676221D02*
G01*
X0001611186Y0003670431D01*
X0001611186Y0003670431D01*
X0001623767Y0003662025D01*
X0001634466Y0003651326D01*
X0001642872Y0003638745D01*
X0001642872Y0003638745D01*
X0001648662Y0003624767D01*
X0001651614Y0003609927D01*
X0001651614Y0003594796D01*
X0001648662Y0003579957D01*
X0001642872Y0003565978D01*
X0001642872Y0003565978D01*
X0001634466Y0003553397D01*
X0001623767Y0003542699D01*
X0001611186Y0003534293D01*
X0001611186Y0003534292D01*
X0001611186Y0003534292D01*
X0001597207Y0003528502D01*
X0001582368Y0003525551D01*
X0001567237Y0003525551D01*
X0001552398Y0003528502D01*
X0001538419Y0003534292D01*
X0001538419Y0003534292D01*
X0001538419Y0003534293D01*
X0001525838Y0003542699D01*
X0001515140Y0003553397D01*
X0001506734Y0003565978D01*
X0001506733Y0003565978D01*
X0001500943Y0003579957D01*
X0001497992Y0003594796D01*
X0001497992Y0003609927D01*
X0001500943Y0003624767D01*
X0001506733Y0003638745D01*
X0001506734Y0003638745D01*
X0001515140Y0003651326D01*
X0001525838Y0003662025D01*
X0001538419Y0003670431D01*
X0001538419Y0003670431D01*
X0001552398Y0003676221D01*
X0001567237Y0003679173D01*
X0001582368Y0003679173D01*
X0001597207Y0003676221D01*
X0001597207Y0003676221D01*
G37*
G36*
X0000140515Y0003676221D02*
G01*
X0000154493Y0003670431D01*
X0000154493Y0003670431D01*
X0000167074Y0003662025D01*
X0000177773Y0003651326D01*
X0000186179Y0003638745D01*
X0000186179Y0003638745D01*
X0000191969Y0003624767D01*
X0000194921Y0003609927D01*
X0000194921Y0003594796D01*
X0000191969Y0003579957D01*
X0000186179Y0003565978D01*
X0000186179Y0003565978D01*
X0000177773Y0003553397D01*
X0000167074Y0003542699D01*
X0000154493Y0003534293D01*
X0000154493Y0003534292D01*
X0000154493Y0003534292D01*
X0000140515Y0003528502D01*
X0000125675Y0003525551D01*
X0000110544Y0003525551D01*
X0000095705Y0003528502D01*
X0000081726Y0003534292D01*
X0000081726Y0003534292D01*
X0000081726Y0003534293D01*
X0000069146Y0003542699D01*
X0000058447Y0003553397D01*
X0000050041Y0003565978D01*
X0000050041Y0003565978D01*
X0000044250Y0003579957D01*
X0000041299Y0003594796D01*
X0000041299Y0003609927D01*
X0000044250Y0003624767D01*
X0000050041Y0003638745D01*
X0000050041Y0003638745D01*
X0000058447Y0003651326D01*
X0000069146Y0003662025D01*
X0000081726Y0003670431D01*
X0000081726Y0003670431D01*
X0000095705Y0003676221D01*
X0000110544Y0003679173D01*
X0000125675Y0003679173D01*
X0000140515Y0003676221D01*
X0000140515Y0003676221D01*
G37*
G04 next file*
G04 #@! TF.GenerationSoftware,KiCad,Pcbnew,(5.1.2)-1*
G04 #@! TF.CreationDate,2020-12-30T14:45:37+09:00*
G04 #@! TF.ProjectId,M5Atom_CAN,4d354174-6f6d-45f4-9341-4e2e6b696361,rev?*
G04 #@! TF.SameCoordinates,Original*
G04 #@! TF.FileFunction,Soldermask,Top*
G04 #@! TF.FilePolarity,Negative*
G04 Gerber Fmt 4.6, Leading zero omitted, Abs format (unit mm)*
G04 Created by KiCad (PCBNEW (5.1.2)-1) date 2020-12-30 14:45:37*
G04 APERTURE LIST*
G04 APERTURE END LIST*
D22*
G36*
X0003195633Y0000191969D02*
G01*
X0003209611Y0000186179D01*
X0003209611Y0000186179D01*
X0003222192Y0000177773D01*
X0003232891Y0000167074D01*
X0003238247Y0000159057D01*
X0003241297Y0000154493D01*
X0003247087Y0000140515D01*
X0003250039Y0000125675D01*
X0003250039Y0000110544D01*
X0003247087Y0000095705D01*
X0003241297Y0000081726D01*
X0003241297Y0000081726D01*
X0003232891Y0000069146D01*
X0003222192Y0000058447D01*
X0003209611Y0000050041D01*
X0003209611Y0000050041D01*
X0003209611Y0000050041D01*
X0003195633Y0000044250D01*
X0003180793Y0000041299D01*
X0003165662Y0000041299D01*
X0003150823Y0000044250D01*
X0003136844Y0000050041D01*
X0003136844Y0000050041D01*
X0003136844Y0000050041D01*
X0003124264Y0000058447D01*
X0003113565Y0000069146D01*
X0003105159Y0000081726D01*
X0003105159Y0000081726D01*
X0003099369Y0000095705D01*
X0003096417Y0000110544D01*
X0003096417Y0000125675D01*
X0003099369Y0000140515D01*
X0003105159Y0000154493D01*
X0003108208Y0000159057D01*
X0003113565Y0000167074D01*
X0003124264Y0000177773D01*
X0003136844Y0000186179D01*
X0003136844Y0000186179D01*
X0003150823Y0000191969D01*
X0003165662Y0000194921D01*
X0003180793Y0000194921D01*
X0003195633Y0000191969D01*
X0003195633Y0000191969D01*
G37*
G36*
X0001931853Y0000191969D02*
G01*
X0001945832Y0000186179D01*
X0001945832Y0000186179D01*
X0001958412Y0000177773D01*
X0001969111Y0000167074D01*
X0001974468Y0000159057D01*
X0001977517Y0000154493D01*
X0001983307Y0000140515D01*
X0001986259Y0000125675D01*
X0001986259Y0000110544D01*
X0001983307Y0000095705D01*
X0001977517Y0000081726D01*
X0001977517Y0000081726D01*
X0001969111Y0000069146D01*
X0001958412Y0000058447D01*
X0001945832Y0000050041D01*
X0001945832Y0000050041D01*
X0001945832Y0000050041D01*
X0001931853Y0000044250D01*
X0001917014Y0000041299D01*
X0001901883Y0000041299D01*
X0001887043Y0000044250D01*
X0001873065Y0000050041D01*
X0001873065Y0000050041D01*
X0001873065Y0000050041D01*
X0001860484Y0000058447D01*
X0001849785Y0000069146D01*
X0001841379Y0000081726D01*
X0001841379Y0000081726D01*
X0001835589Y0000095705D01*
X0001832637Y0000110544D01*
X0001832637Y0000125675D01*
X0001835589Y0000140515D01*
X0001841379Y0000154493D01*
X0001844429Y0000159057D01*
X0001849785Y0000167074D01*
X0001860484Y0000177773D01*
X0001873065Y0000186179D01*
X0001873065Y0000186179D01*
X0001887043Y0000191969D01*
X0001901883Y0000194921D01*
X0001917014Y0000194921D01*
X0001931853Y0000191969D01*
X0001931853Y0000191969D01*
G37*
G36*
X0002423936Y0000104921D02*
G01*
X0002368740Y0000104921D01*
X0002368740Y0000160118D01*
X0002423936Y0000160118D01*
X0002423936Y0000104921D01*
X0002423936Y0000104921D01*
G37*
G36*
X0002325648Y0000159057D02*
G01*
X0002330671Y0000156977D01*
X0002335191Y0000153956D01*
X0002339035Y0000150112D01*
X0002342055Y0000145592D01*
X0002344136Y0000140569D01*
X0002345196Y0000135237D01*
X0002345196Y0000129801D01*
X0002344136Y0000124469D01*
X0002342055Y0000119446D01*
X0002339035Y0000114926D01*
X0002335191Y0000111082D01*
X0002330671Y0000108062D01*
X0002325648Y0000105981D01*
X0002320316Y0000104921D01*
X0002314880Y0000104921D01*
X0002309548Y0000105981D01*
X0002304525Y0000108062D01*
X0002300005Y0000111082D01*
X0002296161Y0000114926D01*
X0002293140Y0000119446D01*
X0002291060Y0000124469D01*
X0002289999Y0000129801D01*
X0002289999Y0000135237D01*
X0002291060Y0000140569D01*
X0002293140Y0000145592D01*
X0002296161Y0000150112D01*
X0002300005Y0000153956D01*
X0002304525Y0000156977D01*
X0002309548Y0000159057D01*
X0002314880Y0000160118D01*
X0002320316Y0000160118D01*
X0002325648Y0000159057D01*
X0002325648Y0000159057D01*
G37*
G36*
X0002246908Y0000159057D02*
G01*
X0002251930Y0000156977D01*
X0002256451Y0000153956D01*
X0002260295Y0000150112D01*
X0002263315Y0000145592D01*
X0002265396Y0000140569D01*
X0002266456Y0000135237D01*
X0002266456Y0000129801D01*
X0002265396Y0000124469D01*
X0002263315Y0000119446D01*
X0002260295Y0000114926D01*
X0002256451Y0000111082D01*
X0002251930Y0000108062D01*
X0002246908Y0000105981D01*
X0002241576Y0000104921D01*
X0002236139Y0000104921D01*
X0002230808Y0000105981D01*
X0002225785Y0000108062D01*
X0002221265Y0000111082D01*
X0002217420Y0000114926D01*
X0002214400Y0000119446D01*
X0002212320Y0000124469D01*
X0002211259Y0000129801D01*
X0002211259Y0000135237D01*
X0002212320Y0000140569D01*
X0002214400Y0000145592D01*
X0002217420Y0000150112D01*
X0002221265Y0000153956D01*
X0002225785Y0000156977D01*
X0002230808Y0000159057D01*
X0002236139Y0000160118D01*
X0002241576Y0000160118D01*
X0002246908Y0000159057D01*
X0002246908Y0000159057D01*
G37*
G36*
X0002168168Y0000159057D02*
G01*
X0002173190Y0000156977D01*
X0002177710Y0000153956D01*
X0002181555Y0000150112D01*
X0002184575Y0000145592D01*
X0002186655Y0000140569D01*
X0002187716Y0000135237D01*
X0002187716Y0000129801D01*
X0002186655Y0000124469D01*
X0002184575Y0000119446D01*
X0002181555Y0000114926D01*
X0002177710Y0000111082D01*
X0002173190Y0000108062D01*
X0002168168Y0000105981D01*
X0002162836Y0000104921D01*
X0002157399Y0000104921D01*
X0002152067Y0000105981D01*
X0002147045Y0000108062D01*
X0002142525Y0000111082D01*
X0002138680Y0000114926D01*
X0002135660Y0000119446D01*
X0002133580Y0000124469D01*
X0002132519Y0000129801D01*
X0002132519Y0000135237D01*
X0002133580Y0000140569D01*
X0002135660Y0000145592D01*
X0002138680Y0000150112D01*
X0002142525Y0000153956D01*
X0002147045Y0000156977D01*
X0002152067Y0000159057D01*
X0002157399Y0000160118D01*
X0002162836Y0000160118D01*
X0002168168Y0000159057D01*
X0002168168Y0000159057D01*
G37*
G36*
X0002933936Y0000104921D02*
G01*
X0002878740Y0000104921D01*
X0002878740Y0000160118D01*
X0002933936Y0000160118D01*
X0002933936Y0000104921D01*
X0002933936Y0000104921D01*
G37*
G36*
X0002835648Y0000159057D02*
G01*
X0002840671Y0000156977D01*
X0002845191Y0000153956D01*
X0002849035Y0000150112D01*
X0002852055Y0000145592D01*
X0002854136Y0000140569D01*
X0002855196Y0000135237D01*
X0002855196Y0000129801D01*
X0002854136Y0000124469D01*
X0002852055Y0000119446D01*
X0002849035Y0000114926D01*
X0002845191Y0000111082D01*
X0002840671Y0000108062D01*
X0002835648Y0000105981D01*
X0002830316Y0000104921D01*
X0002824880Y0000104921D01*
X0002819548Y0000105981D01*
X0002814525Y0000108062D01*
X0002810005Y0000111082D01*
X0002806161Y0000114926D01*
X0002803140Y0000119446D01*
X0002801060Y0000124469D01*
X0002799999Y0000129801D01*
X0002799999Y0000135237D01*
X0002801060Y0000140569D01*
X0002803140Y0000145592D01*
X0002806161Y0000150112D01*
X0002810005Y0000153956D01*
X0002814525Y0000156977D01*
X0002819548Y0000159057D01*
X0002824880Y0000160118D01*
X0002830316Y0000160118D01*
X0002835648Y0000159057D01*
X0002835648Y0000159057D01*
G37*
G36*
X0002756908Y0000159057D02*
G01*
X0002761930Y0000156977D01*
X0002766451Y0000153956D01*
X0002770295Y0000150112D01*
X0002773315Y0000145592D01*
X0002775396Y0000140569D01*
X0002776456Y0000135237D01*
X0002776456Y0000129801D01*
X0002775396Y0000124469D01*
X0002773315Y0000119446D01*
X0002770295Y0000114926D01*
X0002766451Y0000111082D01*
X0002761930Y0000108062D01*
X0002756908Y0000105981D01*
X0002751576Y0000104921D01*
X0002746139Y0000104921D01*
X0002740808Y0000105981D01*
X0002735785Y0000108062D01*
X0002731265Y0000111082D01*
X0002727420Y0000114926D01*
X0002724400Y0000119446D01*
X0002722320Y0000124469D01*
X0002721259Y0000129801D01*
X0002721259Y0000135237D01*
X0002722320Y0000140569D01*
X0002724400Y0000145592D01*
X0002727420Y0000150112D01*
X0002731265Y0000153956D01*
X0002735785Y0000156977D01*
X0002740808Y0000159057D01*
X0002746139Y0000160118D01*
X0002751576Y0000160118D01*
X0002756908Y0000159057D01*
X0002756908Y0000159057D01*
G37*
G36*
X0002678168Y0000159057D02*
G01*
X0002683190Y0000156977D01*
X0002687710Y0000153956D01*
X0002691555Y0000150112D01*
X0002694575Y0000145592D01*
X0002696655Y0000140569D01*
X0002697716Y0000135237D01*
X0002697716Y0000129801D01*
X0002696655Y0000124469D01*
X0002694575Y0000119446D01*
X0002691555Y0000114926D01*
X0002687710Y0000111082D01*
X0002683190Y0000108062D01*
X0002678168Y0000105981D01*
X0002672836Y0000104921D01*
X0002667399Y0000104921D01*
X0002662067Y0000105981D01*
X0002657045Y0000108062D01*
X0002652525Y0000111082D01*
X0002648680Y0000114926D01*
X0002645660Y0000119446D01*
X0002643580Y0000124469D01*
X0002642519Y0000129801D01*
X0002642519Y0000135237D01*
X0002643580Y0000140569D01*
X0002645660Y0000145592D01*
X0002648680Y0000150112D01*
X0002652525Y0000153956D01*
X0002657045Y0000156977D01*
X0002662067Y0000159057D01*
X0002667399Y0000160118D01*
X0002672836Y0000160118D01*
X0002678168Y0000159057D01*
X0002678168Y0000159057D01*
G37*
G36*
X0001951908Y0000471537D02*
G01*
X0001956930Y0000469457D01*
X0001961451Y0000466437D01*
X0001965295Y0000462592D01*
X0001968315Y0000458072D01*
X0001970396Y0000453050D01*
X0001971456Y0000447718D01*
X0001971456Y0000442281D01*
X0001970396Y0000436949D01*
X0001968315Y0000431927D01*
X0001965295Y0000427407D01*
X0001961451Y0000423562D01*
X0001956930Y0000420542D01*
X0001951908Y0000418462D01*
X0001946576Y0000417401D01*
X0001941139Y0000417401D01*
X0001935808Y0000418462D01*
X0001930785Y0000420542D01*
X0001926265Y0000423562D01*
X0001922420Y0000427407D01*
X0001919400Y0000431927D01*
X0001917320Y0000436949D01*
X0001916259Y0000442281D01*
X0001916259Y0000447718D01*
X0001917320Y0000453050D01*
X0001919400Y0000458072D01*
X0001922420Y0000462592D01*
X0001926265Y0000466437D01*
X0001930785Y0000469457D01*
X0001935808Y0000471537D01*
X0001941139Y0000472598D01*
X0001946576Y0000472598D01*
X0001951908Y0000471537D01*
X0001951908Y0000471537D01*
G37*
G36*
X0001951908Y0000550277D02*
G01*
X0001956930Y0000548197D01*
X0001961451Y0000545177D01*
X0001965295Y0000541332D01*
X0001968315Y0000536812D01*
X0001970396Y0000531790D01*
X0001971456Y0000526458D01*
X0001971456Y0000521021D01*
X0001970396Y0000515690D01*
X0001968315Y0000510667D01*
X0001965295Y0000506147D01*
X0001961451Y0000502302D01*
X0001956930Y0000499282D01*
X0001951908Y0000497202D01*
X0001946576Y0000496141D01*
X0001941139Y0000496141D01*
X0001935808Y0000497202D01*
X0001930785Y0000499282D01*
X0001926265Y0000502302D01*
X0001922420Y0000506147D01*
X0001919400Y0000510667D01*
X0001917320Y0000515690D01*
X0001916259Y0000521021D01*
X0001916259Y0000526458D01*
X0001917320Y0000531790D01*
X0001919400Y0000536812D01*
X0001922420Y0000541332D01*
X0001926265Y0000545177D01*
X0001930785Y0000548197D01*
X0001935808Y0000550277D01*
X0001941139Y0000551338D01*
X0001946576Y0000551338D01*
X0001951908Y0000550277D01*
X0001951908Y0000550277D01*
G37*
G36*
X0003185686Y0000584231D02*
G01*
X0003188292Y0000583974D01*
X0003194978Y0000581946D01*
X0003201141Y0000578652D01*
X0003201908Y0000578022D01*
X0003206542Y0000574219D01*
X0003209820Y0000570225D01*
X0003210975Y0000568818D01*
X0003214269Y0000562656D01*
X0003216297Y0000555969D01*
X0003216982Y0000549015D01*
X0003216297Y0000542061D01*
X0003214269Y0000535375D01*
X0003210975Y0000529212D01*
X0003209820Y0000527805D01*
X0003206542Y0000523811D01*
X0003203143Y0000521021D01*
X0003201141Y0000519378D01*
X0003194978Y0000516084D01*
X0003188292Y0000514056D01*
X0003185686Y0000513799D01*
X0003183081Y0000513543D01*
X0003179595Y0000513543D01*
X0003176990Y0000513799D01*
X0003174384Y0000514056D01*
X0003167698Y0000516084D01*
X0003161535Y0000519378D01*
X0003159533Y0000521021D01*
X0003156134Y0000523811D01*
X0003152856Y0000527805D01*
X0003151701Y0000529212D01*
X0003148407Y0000535375D01*
X0003146379Y0000542061D01*
X0003145694Y0000549015D01*
X0003146379Y0000555969D01*
X0003148407Y0000562656D01*
X0003151701Y0000568818D01*
X0003152856Y0000570225D01*
X0003156134Y0000574219D01*
X0003160768Y0000578022D01*
X0003161535Y0000578652D01*
X0003167698Y0000581946D01*
X0003174384Y0000583974D01*
X0003176990Y0000584231D01*
X0003179595Y0000584488D01*
X0003183081Y0000584488D01*
X0003185686Y0000584231D01*
X0003185686Y0000584231D01*
G37*
G36*
X0001951908Y0000629018D02*
G01*
X0001956930Y0000626937D01*
X0001961451Y0000623917D01*
X0001965295Y0000620073D01*
X0001968315Y0000615553D01*
X0001970396Y0000610530D01*
X0001971456Y0000605198D01*
X0001971456Y0000599762D01*
X0001970396Y0000594430D01*
X0001968315Y0000589407D01*
X0001965295Y0000584887D01*
X0001961451Y0000581043D01*
X0001956930Y0000578022D01*
X0001951908Y0000575942D01*
X0001946576Y0000574881D01*
X0001941139Y0000574881D01*
X0001935808Y0000575942D01*
X0001930785Y0000578022D01*
X0001926265Y0000581043D01*
X0001922420Y0000584887D01*
X0001919400Y0000589407D01*
X0001917320Y0000594430D01*
X0001916259Y0000599762D01*
X0001916259Y0000605198D01*
X0001917320Y0000610530D01*
X0001919400Y0000615553D01*
X0001922420Y0000620073D01*
X0001926265Y0000623917D01*
X0001930785Y0000626937D01*
X0001935808Y0000629018D01*
X0001941139Y0000630078D01*
X0001946576Y0000630078D01*
X0001951908Y0000629018D01*
X0001951908Y0000629018D01*
G37*
G36*
X0002245807Y0000662758D02*
G01*
X0002251685Y0000661589D01*
X0002258141Y0000658915D01*
X0002263950Y0000655033D01*
X0002268891Y0000650092D01*
X0002272773Y0000644282D01*
X0002275447Y0000637827D01*
X0002276810Y0000630974D01*
X0002276810Y0000623986D01*
X0002275447Y0000617133D01*
X0002272773Y0000610677D01*
X0002268891Y0000604867D01*
X0002263950Y0000599927D01*
X0002258141Y0000596045D01*
X0002251685Y0000593370D01*
X0002245807Y0000592201D01*
X0002244832Y0000592007D01*
X0002237844Y0000592007D01*
X0002236869Y0000592201D01*
X0002230991Y0000593370D01*
X0002224535Y0000596045D01*
X0002218726Y0000599927D01*
X0002213785Y0000604867D01*
X0002209903Y0000610677D01*
X0002207229Y0000617133D01*
X0002205866Y0000623986D01*
X0002205866Y0000630974D01*
X0002207229Y0000637827D01*
X0002209903Y0000644282D01*
X0002213785Y0000650092D01*
X0002218726Y0000655033D01*
X0002224535Y0000658915D01*
X0002230991Y0000661589D01*
X0002236869Y0000662758D01*
X0002237844Y0000662952D01*
X0002244832Y0000662952D01*
X0002245807Y0000662758D01*
X0002245807Y0000662758D01*
G37*
G36*
X0003216810Y0000613543D02*
G01*
X0003145866Y0000613543D01*
X0003145866Y0000684488D01*
X0003216810Y0000684488D01*
X0003216810Y0000613543D01*
X0003216810Y0000613543D01*
G37*
G36*
X0001951908Y0000707758D02*
G01*
X0001956930Y0000705677D01*
X0001961451Y0000702657D01*
X0001965295Y0000698813D01*
X0001968315Y0000694293D01*
X0001970396Y0000689270D01*
X0001971456Y0000683938D01*
X0001971456Y0000678502D01*
X0001970396Y0000673170D01*
X0001968315Y0000668147D01*
X0001965295Y0000663627D01*
X0001961451Y0000659783D01*
X0001956930Y0000656763D01*
X0001951908Y0000654682D01*
X0001946576Y0000653622D01*
X0001941139Y0000653622D01*
X0001935808Y0000654682D01*
X0001930785Y0000656763D01*
X0001926265Y0000659783D01*
X0001922420Y0000663627D01*
X0001919400Y0000668147D01*
X0001917320Y0000673170D01*
X0001916259Y0000678502D01*
X0001916259Y0000683938D01*
X0001917320Y0000689270D01*
X0001919400Y0000694293D01*
X0001922420Y0000698813D01*
X0001926265Y0000702657D01*
X0001930785Y0000705677D01*
X0001935808Y0000707758D01*
X0001941139Y0000708818D01*
X0001946576Y0000708818D01*
X0001951908Y0000707758D01*
X0001951908Y0000707758D01*
G37*
G36*
X0002852122Y0000763031D02*
G01*
X0002858851Y0000760244D01*
X0002858851Y0000760244D01*
X0002860840Y0000758915D01*
X0002864907Y0000756198D01*
X0002870056Y0000751048D01*
X0002874103Y0000744993D01*
X0002876890Y0000738264D01*
X0002878310Y0000731121D01*
X0002878310Y0000723838D01*
X0002876890Y0000716695D01*
X0002874103Y0000709967D01*
X0002874103Y0000709967D01*
X0002870056Y0000703911D01*
X0002864907Y0000698761D01*
X0002858851Y0000694715D01*
X0002858851Y0000694715D01*
X0002858851Y0000694715D01*
X0002852122Y0000691928D01*
X0002844980Y0000690507D01*
X0002837696Y0000690507D01*
X0002830554Y0000691928D01*
X0002823825Y0000694715D01*
X0002823825Y0000694715D01*
X0002823825Y0000694715D01*
X0002817769Y0000698761D01*
X0002812620Y0000703911D01*
X0002808573Y0000709967D01*
X0002808573Y0000709967D01*
X0002805786Y0000716695D01*
X0002804366Y0000723838D01*
X0002804366Y0000731121D01*
X0002805786Y0000738264D01*
X0002808573Y0000744993D01*
X0002812620Y0000751048D01*
X0002817769Y0000756198D01*
X0002821836Y0000758915D01*
X0002823825Y0000760244D01*
X0002823825Y0000760244D01*
X0002830554Y0000763031D01*
X0002837696Y0000764452D01*
X0002844980Y0000764452D01*
X0002852122Y0000763031D01*
X0002852122Y0000763031D01*
G37*
G36*
X0002245807Y0000762758D02*
G01*
X0002251685Y0000761589D01*
X0002258141Y0000758915D01*
X0002263950Y0000755033D01*
X0002268891Y0000750092D01*
X0002272773Y0000744282D01*
X0002275447Y0000737827D01*
X0002276810Y0000730974D01*
X0002276810Y0000723986D01*
X0002275447Y0000717133D01*
X0002272773Y0000710677D01*
X0002268891Y0000704867D01*
X0002263950Y0000699927D01*
X0002258141Y0000696045D01*
X0002251685Y0000693370D01*
X0002245807Y0000692201D01*
X0002244832Y0000692007D01*
X0002237844Y0000692007D01*
X0002236869Y0000692201D01*
X0002230991Y0000693370D01*
X0002224535Y0000696045D01*
X0002218726Y0000699927D01*
X0002213785Y0000704867D01*
X0002209903Y0000710677D01*
X0002207229Y0000717133D01*
X0002205866Y0000723986D01*
X0002205866Y0000730974D01*
X0002207229Y0000737827D01*
X0002209903Y0000744282D01*
X0002213785Y0000750092D01*
X0002218726Y0000755033D01*
X0002224535Y0000758915D01*
X0002230991Y0000761589D01*
X0002236869Y0000762758D01*
X0002237844Y0000762952D01*
X0002244832Y0000762952D01*
X0002245807Y0000762758D01*
X0002245807Y0000762758D01*
G37*
G36*
X0001951908Y0000786498D02*
G01*
X0001956930Y0000784417D01*
X0001961451Y0000781397D01*
X0001965295Y0000777553D01*
X0001968315Y0000773033D01*
X0001970396Y0000768010D01*
X0001971456Y0000762678D01*
X0001971456Y0000757242D01*
X0001970396Y0000751910D01*
X0001968315Y0000746887D01*
X0001965295Y0000742367D01*
X0001961451Y0000738523D01*
X0001956930Y0000735503D01*
X0001951908Y0000733422D01*
X0001946576Y0000732362D01*
X0001941139Y0000732362D01*
X0001935808Y0000733422D01*
X0001930785Y0000735503D01*
X0001926265Y0000738523D01*
X0001922420Y0000742367D01*
X0001919400Y0000746887D01*
X0001917320Y0000751910D01*
X0001916259Y0000757242D01*
X0001916259Y0000762678D01*
X0001917320Y0000768010D01*
X0001919400Y0000773033D01*
X0001922420Y0000777553D01*
X0001926265Y0000781397D01*
X0001930785Y0000784417D01*
X0001935808Y0000786498D01*
X0001941139Y0000787559D01*
X0001946576Y0000787559D01*
X0001951908Y0000786498D01*
X0001951908Y0000786498D01*
G37*
G36*
X0002245807Y0000862758D02*
G01*
X0002251685Y0000861589D01*
X0002258141Y0000858915D01*
X0002263950Y0000855033D01*
X0002268891Y0000850092D01*
X0002272773Y0000844282D01*
X0002275447Y0000837827D01*
X0002276810Y0000830974D01*
X0002276810Y0000823986D01*
X0002275447Y0000817133D01*
X0002272773Y0000810677D01*
X0002268891Y0000804867D01*
X0002263950Y0000799927D01*
X0002258141Y0000796045D01*
X0002251685Y0000793370D01*
X0002245807Y0000792201D01*
X0002244832Y0000792007D01*
X0002237844Y0000792007D01*
X0002236869Y0000792201D01*
X0002230991Y0000793370D01*
X0002224535Y0000796045D01*
X0002218726Y0000799927D01*
X0002213785Y0000804867D01*
X0002209903Y0000810677D01*
X0002207229Y0000817133D01*
X0002205866Y0000823986D01*
X0002205866Y0000830974D01*
X0002207229Y0000837827D01*
X0002209903Y0000844282D01*
X0002213785Y0000850092D01*
X0002218726Y0000855033D01*
X0002224535Y0000858915D01*
X0002230991Y0000861589D01*
X0002236869Y0000862758D01*
X0002237844Y0000862952D01*
X0002244832Y0000862952D01*
X0002245807Y0000862758D01*
X0002245807Y0000862758D01*
G37*
G36*
X0002845807Y0000862758D02*
G01*
X0002851685Y0000861589D01*
X0002858141Y0000858915D01*
X0002863950Y0000855033D01*
X0002868891Y0000850092D01*
X0002872773Y0000844282D01*
X0002875447Y0000837827D01*
X0002876810Y0000830974D01*
X0002876810Y0000823986D01*
X0002875447Y0000817133D01*
X0002872773Y0000810677D01*
X0002868891Y0000804867D01*
X0002863950Y0000799927D01*
X0002858141Y0000796045D01*
X0002851685Y0000793370D01*
X0002845807Y0000792201D01*
X0002844832Y0000792007D01*
X0002837844Y0000792007D01*
X0002836869Y0000792201D01*
X0002830991Y0000793370D01*
X0002824535Y0000796045D01*
X0002818726Y0000799927D01*
X0002813785Y0000804867D01*
X0002809903Y0000810677D01*
X0002807229Y0000817133D01*
X0002805866Y0000823986D01*
X0002805866Y0000830974D01*
X0002807229Y0000837827D01*
X0002809903Y0000844282D01*
X0002813785Y0000850092D01*
X0002818726Y0000855033D01*
X0002824535Y0000858915D01*
X0002830991Y0000861589D01*
X0002836869Y0000862758D01*
X0002837844Y0000862952D01*
X0002844832Y0000862952D01*
X0002845807Y0000862758D01*
X0002845807Y0000862758D01*
G37*
G36*
X0001951908Y0000865238D02*
G01*
X0001956930Y0000863158D01*
X0001961451Y0000860137D01*
X0001965295Y0000856293D01*
X0001968315Y0000851773D01*
X0001970396Y0000846750D01*
X0001971456Y0000841419D01*
X0001971456Y0000835982D01*
X0001970396Y0000830650D01*
X0001968315Y0000825627D01*
X0001965295Y0000821107D01*
X0001961451Y0000817263D01*
X0001956930Y0000814243D01*
X0001951908Y0000812162D01*
X0001946576Y0000811102D01*
X0001941139Y0000811102D01*
X0001935808Y0000812162D01*
X0001930785Y0000814243D01*
X0001926265Y0000817263D01*
X0001922420Y0000821107D01*
X0001919400Y0000825627D01*
X0001917320Y0000830650D01*
X0001916259Y0000835982D01*
X0001916259Y0000841419D01*
X0001917320Y0000846750D01*
X0001919400Y0000851773D01*
X0001922420Y0000856293D01*
X0001926265Y0000860137D01*
X0001930785Y0000863158D01*
X0001935808Y0000865238D01*
X0001941139Y0000866299D01*
X0001946576Y0000866299D01*
X0001951908Y0000865238D01*
X0001951908Y0000865238D01*
G37*
G36*
X0002845807Y0000962758D02*
G01*
X0002851685Y0000961589D01*
X0002858141Y0000958915D01*
X0002863950Y0000955033D01*
X0002868891Y0000950092D01*
X0002872773Y0000944282D01*
X0002875447Y0000937827D01*
X0002876810Y0000930974D01*
X0002876810Y0000923986D01*
X0002875447Y0000917133D01*
X0002872773Y0000910677D01*
X0002868891Y0000904867D01*
X0002863950Y0000899927D01*
X0002858141Y0000896045D01*
X0002851685Y0000893370D01*
X0002845807Y0000892201D01*
X0002844832Y0000892007D01*
X0002837844Y0000892007D01*
X0002836869Y0000892201D01*
X0002830991Y0000893370D01*
X0002824535Y0000896045D01*
X0002818726Y0000899927D01*
X0002813785Y0000904867D01*
X0002809903Y0000910677D01*
X0002807229Y0000917133D01*
X0002805866Y0000923986D01*
X0002805866Y0000930974D01*
X0002807229Y0000937827D01*
X0002809903Y0000944282D01*
X0002813785Y0000950092D01*
X0002818726Y0000955033D01*
X0002824535Y0000958915D01*
X0002830991Y0000961589D01*
X0002836869Y0000962758D01*
X0002837844Y0000962952D01*
X0002844832Y0000962952D01*
X0002845807Y0000962758D01*
X0002845807Y0000962758D01*
G37*
G36*
X0002245807Y0000962758D02*
G01*
X0002251685Y0000961589D01*
X0002258141Y0000958915D01*
X0002263950Y0000955033D01*
X0002268891Y0000950092D01*
X0002272773Y0000944282D01*
X0002275447Y0000937827D01*
X0002276810Y0000930974D01*
X0002276810Y0000923986D01*
X0002275447Y0000917133D01*
X0002272773Y0000910677D01*
X0002268891Y0000904867D01*
X0002263950Y0000899927D01*
X0002258141Y0000896045D01*
X0002251685Y0000893370D01*
X0002245807Y0000892201D01*
X0002244832Y0000892007D01*
X0002237844Y0000892007D01*
X0002236869Y0000892201D01*
X0002230991Y0000893370D01*
X0002224535Y0000896045D01*
X0002218726Y0000899927D01*
X0002213785Y0000904867D01*
X0002209903Y0000910677D01*
X0002207229Y0000917133D01*
X0002205866Y0000923986D01*
X0002205866Y0000930974D01*
X0002207229Y0000937827D01*
X0002209903Y0000944282D01*
X0002213785Y0000950092D01*
X0002218726Y0000955033D01*
X0002224535Y0000958915D01*
X0002230991Y0000961589D01*
X0002236869Y0000962758D01*
X0002237844Y0000962952D01*
X0002244832Y0000962952D01*
X0002245807Y0000962758D01*
X0002245807Y0000962758D01*
G37*
G36*
X0002845807Y0001062758D02*
G01*
X0002851685Y0001061589D01*
X0002858141Y0001058915D01*
X0002863950Y0001055033D01*
X0002868891Y0001050092D01*
X0002872773Y0001044282D01*
X0002875447Y0001037827D01*
X0002876810Y0001030974D01*
X0002876810Y0001023986D01*
X0002875447Y0001017133D01*
X0002872773Y0001010677D01*
X0002868891Y0001004867D01*
X0002863950Y0000999927D01*
X0002858141Y0000996045D01*
X0002851685Y0000993370D01*
X0002845807Y0000992201D01*
X0002844832Y0000992007D01*
X0002837844Y0000992007D01*
X0002836869Y0000992201D01*
X0002830991Y0000993370D01*
X0002824535Y0000996045D01*
X0002818726Y0000999927D01*
X0002813785Y0001004867D01*
X0002809903Y0001010677D01*
X0002807229Y0001017133D01*
X0002805866Y0001023986D01*
X0002805866Y0001030974D01*
X0002807229Y0001037827D01*
X0002809903Y0001044282D01*
X0002813785Y0001050092D01*
X0002818726Y0001055033D01*
X0002824535Y0001058915D01*
X0002830991Y0001061589D01*
X0002836869Y0001062758D01*
X0002837844Y0001062952D01*
X0002844832Y0001062952D01*
X0002845807Y0001062758D01*
X0002845807Y0001062758D01*
G37*
G36*
X0002245807Y0001062758D02*
G01*
X0002251685Y0001061589D01*
X0002258141Y0001058915D01*
X0002263950Y0001055033D01*
X0002268891Y0001050092D01*
X0002272773Y0001044282D01*
X0002275447Y0001037827D01*
X0002276810Y0001030974D01*
X0002276810Y0001023986D01*
X0002275447Y0001017133D01*
X0002272773Y0001010677D01*
X0002268891Y0001004867D01*
X0002263950Y0000999927D01*
X0002258141Y0000996045D01*
X0002251685Y0000993370D01*
X0002245807Y0000992201D01*
X0002244832Y0000992007D01*
X0002237844Y0000992007D01*
X0002236869Y0000992201D01*
X0002230991Y0000993370D01*
X0002224535Y0000996045D01*
X0002218726Y0000999927D01*
X0002213785Y0001004867D01*
X0002209903Y0001010677D01*
X0002207229Y0001017133D01*
X0002205866Y0001023986D01*
X0002205866Y0001030974D01*
X0002207229Y0001037827D01*
X0002209903Y0001044282D01*
X0002213785Y0001050092D01*
X0002218726Y0001055033D01*
X0002224535Y0001058915D01*
X0002230991Y0001061589D01*
X0002236869Y0001062758D01*
X0002237844Y0001062952D01*
X0002244832Y0001062952D01*
X0002245807Y0001062758D01*
X0002245807Y0001062758D01*
G37*
G36*
X0001931853Y0001155748D02*
G01*
X0001945832Y0001149958D01*
X0001945832Y0001149958D01*
X0001958412Y0001141552D01*
X0001969111Y0001130853D01*
X0001977517Y0001118273D01*
X0001977517Y0001118273D01*
X0001983307Y0001104294D01*
X0001986259Y0001089455D01*
X0001986259Y0001074324D01*
X0001983307Y0001059484D01*
X0001979417Y0001050092D01*
X0001977517Y0001045506D01*
X0001969111Y0001032925D01*
X0001958412Y0001022226D01*
X0001945832Y0001013820D01*
X0001945832Y0001013820D01*
X0001945832Y0001013820D01*
X0001931853Y0001008030D01*
X0001917014Y0001005078D01*
X0001901883Y0001005078D01*
X0001887043Y0001008030D01*
X0001873065Y0001013820D01*
X0001873065Y0001013820D01*
X0001873065Y0001013820D01*
X0001860484Y0001022226D01*
X0001849785Y0001032925D01*
X0001841379Y0001045506D01*
X0001839479Y0001050092D01*
X0001835589Y0001059484D01*
X0001832637Y0001074324D01*
X0001832637Y0001089455D01*
X0001835589Y0001104294D01*
X0001841379Y0001118273D01*
X0001841379Y0001118273D01*
X0001849785Y0001130853D01*
X0001860484Y0001141552D01*
X0001873065Y0001149958D01*
X0001873065Y0001149958D01*
X0001887043Y0001155748D01*
X0001901883Y0001158700D01*
X0001917014Y0001158700D01*
X0001931853Y0001155748D01*
X0001931853Y0001155748D01*
G37*
G36*
X0003195633Y0001155748D02*
G01*
X0003209611Y0001149958D01*
X0003209611Y0001149958D01*
X0003222192Y0001141552D01*
X0003232891Y0001130853D01*
X0003241297Y0001118273D01*
X0003241297Y0001118273D01*
X0003247087Y0001104294D01*
X0003250039Y0001089455D01*
X0003250039Y0001074324D01*
X0003247087Y0001059484D01*
X0003243197Y0001050092D01*
X0003241297Y0001045506D01*
X0003232891Y0001032925D01*
X0003222192Y0001022226D01*
X0003209611Y0001013820D01*
X0003209611Y0001013820D01*
X0003209611Y0001013820D01*
X0003195633Y0001008030D01*
X0003180793Y0001005078D01*
X0003165662Y0001005078D01*
X0003150823Y0001008030D01*
X0003136844Y0001013820D01*
X0003136844Y0001013820D01*
X0003136844Y0001013820D01*
X0003124264Y0001022226D01*
X0003113565Y0001032925D01*
X0003105159Y0001045506D01*
X0003103259Y0001050092D01*
X0003099369Y0001059484D01*
X0003096417Y0001074324D01*
X0003096417Y0001089455D01*
X0003099369Y0001104294D01*
X0003105159Y0001118273D01*
X0003105159Y0001118273D01*
X0003113565Y0001130853D01*
X0003124264Y0001141552D01*
X0003136844Y0001149958D01*
X0003136844Y0001149958D01*
X0003150823Y0001155748D01*
X0003165662Y0001158700D01*
X0003180793Y0001158700D01*
X0003195633Y0001155748D01*
X0003195633Y0001155748D01*
G37*
G04 next file*
G04 #@! TF.GenerationSoftware,KiCad,Pcbnew,(5.1.2)-1*
G04 #@! TF.CreationDate,2020-12-30T14:45:37+09:00*
G04 #@! TF.ProjectId,M5Atom_CAN,4d354174-6f6d-45f4-9341-4e2e6b696361,rev?*
G04 #@! TF.SameCoordinates,Original*
G04 #@! TF.FileFunction,Soldermask,Top*
G04 #@! TF.FilePolarity,Negative*
G04 Gerber Fmt 4.6, Leading zero omitted, Abs format (unit mm)*
G04 Created by KiCad (PCBNEW (5.1.2)-1) date 2020-12-30 14:45:37*
G04 APERTURE LIST*
G04 APERTURE END LIST*
D23*
G36*
X0003195633Y0001490394D02*
G01*
X0003209611Y0001484604D01*
X0003209611Y0001484604D01*
X0003222192Y0001476198D01*
X0003232891Y0001465499D01*
X0003238247Y0001457482D01*
X0003241297Y0001452918D01*
X0003247087Y0001438940D01*
X0003250039Y0001424100D01*
X0003250039Y0001408970D01*
X0003247087Y0001394130D01*
X0003241297Y0001380151D01*
X0003241297Y0001380151D01*
X0003232891Y0001367571D01*
X0003222192Y0001356872D01*
X0003209611Y0001348466D01*
X0003209611Y0001348466D01*
X0003209611Y0001348466D01*
X0003195633Y0001342676D01*
X0003180793Y0001339724D01*
X0003165662Y0001339724D01*
X0003150823Y0001342676D01*
X0003136844Y0001348466D01*
X0003136844Y0001348466D01*
X0003136844Y0001348466D01*
X0003124264Y0001356872D01*
X0003113565Y0001367571D01*
X0003105159Y0001380151D01*
X0003105159Y0001380151D01*
X0003099369Y0001394130D01*
X0003096417Y0001408970D01*
X0003096417Y0001424100D01*
X0003099369Y0001438940D01*
X0003105159Y0001452918D01*
X0003108208Y0001457482D01*
X0003113565Y0001465499D01*
X0003124264Y0001476198D01*
X0003136844Y0001484604D01*
X0003136844Y0001484604D01*
X0003150823Y0001490394D01*
X0003165662Y0001493346D01*
X0003180793Y0001493346D01*
X0003195633Y0001490394D01*
X0003195633Y0001490394D01*
G37*
G36*
X0001931853Y0001490394D02*
G01*
X0001945832Y0001484604D01*
X0001945832Y0001484604D01*
X0001958412Y0001476198D01*
X0001969111Y0001465499D01*
X0001974468Y0001457482D01*
X0001977517Y0001452918D01*
X0001983307Y0001438940D01*
X0001986259Y0001424100D01*
X0001986259Y0001408970D01*
X0001983307Y0001394130D01*
X0001977517Y0001380151D01*
X0001977517Y0001380151D01*
X0001969111Y0001367571D01*
X0001958412Y0001356872D01*
X0001945832Y0001348466D01*
X0001945832Y0001348466D01*
X0001945832Y0001348466D01*
X0001931853Y0001342676D01*
X0001917014Y0001339724D01*
X0001901883Y0001339724D01*
X0001887043Y0001342676D01*
X0001873065Y0001348466D01*
X0001873065Y0001348466D01*
X0001873065Y0001348466D01*
X0001860484Y0001356872D01*
X0001849785Y0001367571D01*
X0001841379Y0001380151D01*
X0001841379Y0001380151D01*
X0001835589Y0001394130D01*
X0001832637Y0001408970D01*
X0001832637Y0001424100D01*
X0001835589Y0001438940D01*
X0001841379Y0001452918D01*
X0001844429Y0001457482D01*
X0001849785Y0001465499D01*
X0001860484Y0001476198D01*
X0001873065Y0001484604D01*
X0001873065Y0001484604D01*
X0001887043Y0001490394D01*
X0001901883Y0001493346D01*
X0001917014Y0001493346D01*
X0001931853Y0001490394D01*
X0001931853Y0001490394D01*
G37*
G36*
X0002423936Y0001403346D02*
G01*
X0002368740Y0001403346D01*
X0002368740Y0001458543D01*
X0002423936Y0001458543D01*
X0002423936Y0001403346D01*
X0002423936Y0001403346D01*
G37*
G36*
X0002325648Y0001457482D02*
G01*
X0002330671Y0001455402D01*
X0002335191Y0001452382D01*
X0002339035Y0001448537D01*
X0002342055Y0001444017D01*
X0002344136Y0001438994D01*
X0002345196Y0001433663D01*
X0002345196Y0001428226D01*
X0002344136Y0001422894D01*
X0002342055Y0001417872D01*
X0002339035Y0001413351D01*
X0002335191Y0001409507D01*
X0002330671Y0001406487D01*
X0002325648Y0001404406D01*
X0002320316Y0001403346D01*
X0002314880Y0001403346D01*
X0002309548Y0001404406D01*
X0002304525Y0001406487D01*
X0002300005Y0001409507D01*
X0002296161Y0001413351D01*
X0002293140Y0001417872D01*
X0002291060Y0001422894D01*
X0002289999Y0001428226D01*
X0002289999Y0001433663D01*
X0002291060Y0001438994D01*
X0002293140Y0001444017D01*
X0002296161Y0001448537D01*
X0002300005Y0001452382D01*
X0002304525Y0001455402D01*
X0002309548Y0001457482D01*
X0002314880Y0001458543D01*
X0002320316Y0001458543D01*
X0002325648Y0001457482D01*
X0002325648Y0001457482D01*
G37*
G36*
X0002246908Y0001457482D02*
G01*
X0002251930Y0001455402D01*
X0002256451Y0001452382D01*
X0002260295Y0001448537D01*
X0002263315Y0001444017D01*
X0002265396Y0001438994D01*
X0002266456Y0001433663D01*
X0002266456Y0001428226D01*
X0002265396Y0001422894D01*
X0002263315Y0001417872D01*
X0002260295Y0001413351D01*
X0002256451Y0001409507D01*
X0002251930Y0001406487D01*
X0002246908Y0001404406D01*
X0002241576Y0001403346D01*
X0002236139Y0001403346D01*
X0002230808Y0001404406D01*
X0002225785Y0001406487D01*
X0002221265Y0001409507D01*
X0002217420Y0001413351D01*
X0002214400Y0001417872D01*
X0002212320Y0001422894D01*
X0002211259Y0001428226D01*
X0002211259Y0001433663D01*
X0002212320Y0001438994D01*
X0002214400Y0001444017D01*
X0002217420Y0001448537D01*
X0002221265Y0001452382D01*
X0002225785Y0001455402D01*
X0002230808Y0001457482D01*
X0002236139Y0001458543D01*
X0002241576Y0001458543D01*
X0002246908Y0001457482D01*
X0002246908Y0001457482D01*
G37*
G36*
X0002168168Y0001457482D02*
G01*
X0002173190Y0001455402D01*
X0002177710Y0001452382D01*
X0002181555Y0001448537D01*
X0002184575Y0001444017D01*
X0002186655Y0001438994D01*
X0002187716Y0001433663D01*
X0002187716Y0001428226D01*
X0002186655Y0001422894D01*
X0002184575Y0001417872D01*
X0002181555Y0001413351D01*
X0002177710Y0001409507D01*
X0002173190Y0001406487D01*
X0002168168Y0001404406D01*
X0002162836Y0001403346D01*
X0002157399Y0001403346D01*
X0002152067Y0001404406D01*
X0002147045Y0001406487D01*
X0002142525Y0001409507D01*
X0002138680Y0001413351D01*
X0002135660Y0001417872D01*
X0002133580Y0001422894D01*
X0002132519Y0001428226D01*
X0002132519Y0001433663D01*
X0002133580Y0001438994D01*
X0002135660Y0001444017D01*
X0002138680Y0001448537D01*
X0002142525Y0001452382D01*
X0002147045Y0001455402D01*
X0002152067Y0001457482D01*
X0002157399Y0001458543D01*
X0002162836Y0001458543D01*
X0002168168Y0001457482D01*
X0002168168Y0001457482D01*
G37*
G36*
X0002933936Y0001403346D02*
G01*
X0002878740Y0001403346D01*
X0002878740Y0001458543D01*
X0002933936Y0001458543D01*
X0002933936Y0001403346D01*
X0002933936Y0001403346D01*
G37*
G36*
X0002835648Y0001457482D02*
G01*
X0002840671Y0001455402D01*
X0002845191Y0001452382D01*
X0002849035Y0001448537D01*
X0002852055Y0001444017D01*
X0002854136Y0001438994D01*
X0002855196Y0001433663D01*
X0002855196Y0001428226D01*
X0002854136Y0001422894D01*
X0002852055Y0001417872D01*
X0002849035Y0001413351D01*
X0002845191Y0001409507D01*
X0002840671Y0001406487D01*
X0002835648Y0001404406D01*
X0002830316Y0001403346D01*
X0002824880Y0001403346D01*
X0002819548Y0001404406D01*
X0002814525Y0001406487D01*
X0002810005Y0001409507D01*
X0002806161Y0001413351D01*
X0002803140Y0001417872D01*
X0002801060Y0001422894D01*
X0002799999Y0001428226D01*
X0002799999Y0001433663D01*
X0002801060Y0001438994D01*
X0002803140Y0001444017D01*
X0002806161Y0001448537D01*
X0002810005Y0001452382D01*
X0002814525Y0001455402D01*
X0002819548Y0001457482D01*
X0002824880Y0001458543D01*
X0002830316Y0001458543D01*
X0002835648Y0001457482D01*
X0002835648Y0001457482D01*
G37*
G36*
X0002756908Y0001457482D02*
G01*
X0002761930Y0001455402D01*
X0002766451Y0001452382D01*
X0002770295Y0001448537D01*
X0002773315Y0001444017D01*
X0002775396Y0001438994D01*
X0002776456Y0001433663D01*
X0002776456Y0001428226D01*
X0002775396Y0001422894D01*
X0002773315Y0001417872D01*
X0002770295Y0001413351D01*
X0002766451Y0001409507D01*
X0002761930Y0001406487D01*
X0002756908Y0001404406D01*
X0002751576Y0001403346D01*
X0002746139Y0001403346D01*
X0002740808Y0001404406D01*
X0002735785Y0001406487D01*
X0002731265Y0001409507D01*
X0002727420Y0001413351D01*
X0002724400Y0001417872D01*
X0002722320Y0001422894D01*
X0002721259Y0001428226D01*
X0002721259Y0001433663D01*
X0002722320Y0001438994D01*
X0002724400Y0001444017D01*
X0002727420Y0001448537D01*
X0002731265Y0001452382D01*
X0002735785Y0001455402D01*
X0002740808Y0001457482D01*
X0002746139Y0001458543D01*
X0002751576Y0001458543D01*
X0002756908Y0001457482D01*
X0002756908Y0001457482D01*
G37*
G36*
X0002678168Y0001457482D02*
G01*
X0002683190Y0001455402D01*
X0002687710Y0001452382D01*
X0002691555Y0001448537D01*
X0002694575Y0001444017D01*
X0002696655Y0001438994D01*
X0002697716Y0001433663D01*
X0002697716Y0001428226D01*
X0002696655Y0001422894D01*
X0002694575Y0001417872D01*
X0002691555Y0001413351D01*
X0002687710Y0001409507D01*
X0002683190Y0001406487D01*
X0002678168Y0001404406D01*
X0002672836Y0001403346D01*
X0002667399Y0001403346D01*
X0002662067Y0001404406D01*
X0002657045Y0001406487D01*
X0002652525Y0001409507D01*
X0002648680Y0001413351D01*
X0002645660Y0001417872D01*
X0002643580Y0001422894D01*
X0002642519Y0001428226D01*
X0002642519Y0001433663D01*
X0002643580Y0001438994D01*
X0002645660Y0001444017D01*
X0002648680Y0001448537D01*
X0002652525Y0001452382D01*
X0002657045Y0001455402D01*
X0002662067Y0001457482D01*
X0002667399Y0001458543D01*
X0002672836Y0001458543D01*
X0002678168Y0001457482D01*
X0002678168Y0001457482D01*
G37*
G36*
X0001951908Y0001769962D02*
G01*
X0001956930Y0001767882D01*
X0001961451Y0001764862D01*
X0001965295Y0001761017D01*
X0001968315Y0001756497D01*
X0001970396Y0001751475D01*
X0001971456Y0001746143D01*
X0001971456Y0001740706D01*
X0001970396Y0001735375D01*
X0001968315Y0001730352D01*
X0001965295Y0001725832D01*
X0001961451Y0001721987D01*
X0001956930Y0001718967D01*
X0001951908Y0001716887D01*
X0001946576Y0001715826D01*
X0001941139Y0001715826D01*
X0001935808Y0001716887D01*
X0001930785Y0001718967D01*
X0001926265Y0001721987D01*
X0001922420Y0001725832D01*
X0001919400Y0001730352D01*
X0001917320Y0001735375D01*
X0001916259Y0001740706D01*
X0001916259Y0001746143D01*
X0001917320Y0001751475D01*
X0001919400Y0001756497D01*
X0001922420Y0001761017D01*
X0001926265Y0001764862D01*
X0001930785Y0001767882D01*
X0001935808Y0001769962D01*
X0001941139Y0001771023D01*
X0001946576Y0001771023D01*
X0001951908Y0001769962D01*
X0001951908Y0001769962D01*
G37*
G36*
X0001951908Y0001848703D02*
G01*
X0001956930Y0001846622D01*
X0001961451Y0001843602D01*
X0001965295Y0001839758D01*
X0001968315Y0001835238D01*
X0001970396Y0001830215D01*
X0001971456Y0001824883D01*
X0001971456Y0001819447D01*
X0001970396Y0001814115D01*
X0001968315Y0001809092D01*
X0001965295Y0001804572D01*
X0001961451Y0001800728D01*
X0001956930Y0001797707D01*
X0001951908Y0001795627D01*
X0001946576Y0001794566D01*
X0001941139Y0001794566D01*
X0001935808Y0001795627D01*
X0001930785Y0001797707D01*
X0001926265Y0001800728D01*
X0001922420Y0001804572D01*
X0001919400Y0001809092D01*
X0001917320Y0001814115D01*
X0001916259Y0001819447D01*
X0001916259Y0001824883D01*
X0001917320Y0001830215D01*
X0001919400Y0001835238D01*
X0001922420Y0001839758D01*
X0001926265Y0001843602D01*
X0001930785Y0001846622D01*
X0001935808Y0001848703D01*
X0001941139Y0001849763D01*
X0001946576Y0001849763D01*
X0001951908Y0001848703D01*
X0001951908Y0001848703D01*
G37*
G36*
X0003185686Y0001882656D02*
G01*
X0003188292Y0001882400D01*
X0003194978Y0001880371D01*
X0003201141Y0001877077D01*
X0003201908Y0001876448D01*
X0003206542Y0001872645D01*
X0003209820Y0001868650D01*
X0003210975Y0001867243D01*
X0003214269Y0001861081D01*
X0003216297Y0001854394D01*
X0003216982Y0001847440D01*
X0003216297Y0001840487D01*
X0003214269Y0001833800D01*
X0003210975Y0001827638D01*
X0003209820Y0001826231D01*
X0003206542Y0001822236D01*
X0003203143Y0001819447D01*
X0003201141Y0001817803D01*
X0003194978Y0001814510D01*
X0003188292Y0001812481D01*
X0003185686Y0001812225D01*
X0003183081Y0001811968D01*
X0003179595Y0001811968D01*
X0003176990Y0001812225D01*
X0003174384Y0001812481D01*
X0003167698Y0001814510D01*
X0003161535Y0001817803D01*
X0003159533Y0001819447D01*
X0003156134Y0001822236D01*
X0003152856Y0001826231D01*
X0003151701Y0001827638D01*
X0003148407Y0001833800D01*
X0003146379Y0001840487D01*
X0003145694Y0001847440D01*
X0003146379Y0001854394D01*
X0003148407Y0001861081D01*
X0003151701Y0001867243D01*
X0003152856Y0001868650D01*
X0003156134Y0001872645D01*
X0003160768Y0001876448D01*
X0003161535Y0001877077D01*
X0003167698Y0001880371D01*
X0003174384Y0001882400D01*
X0003176990Y0001882656D01*
X0003179595Y0001882913D01*
X0003183081Y0001882913D01*
X0003185686Y0001882656D01*
X0003185686Y0001882656D01*
G37*
G36*
X0001951908Y0001927443D02*
G01*
X0001956930Y0001925362D01*
X0001961451Y0001922342D01*
X0001965295Y0001918498D01*
X0001968315Y0001913978D01*
X0001970396Y0001908955D01*
X0001971456Y0001903623D01*
X0001971456Y0001898187D01*
X0001970396Y0001892855D01*
X0001968315Y0001887832D01*
X0001965295Y0001883312D01*
X0001961451Y0001879468D01*
X0001956930Y0001876448D01*
X0001951908Y0001874367D01*
X0001946576Y0001873307D01*
X0001941139Y0001873307D01*
X0001935808Y0001874367D01*
X0001930785Y0001876448D01*
X0001926265Y0001879468D01*
X0001922420Y0001883312D01*
X0001919400Y0001887832D01*
X0001917320Y0001892855D01*
X0001916259Y0001898187D01*
X0001916259Y0001903623D01*
X0001917320Y0001908955D01*
X0001919400Y0001913978D01*
X0001922420Y0001918498D01*
X0001926265Y0001922342D01*
X0001930785Y0001925362D01*
X0001935808Y0001927443D01*
X0001941139Y0001928503D01*
X0001946576Y0001928503D01*
X0001951908Y0001927443D01*
X0001951908Y0001927443D01*
G37*
G36*
X0002245807Y0001961183D02*
G01*
X0002251685Y0001960014D01*
X0002258141Y0001957340D01*
X0002263950Y0001953458D01*
X0002268891Y0001948517D01*
X0002272773Y0001942707D01*
X0002275447Y0001936252D01*
X0002276810Y0001929399D01*
X0002276810Y0001922411D01*
X0002275447Y0001915558D01*
X0002272773Y0001909102D01*
X0002268891Y0001903293D01*
X0002263950Y0001898352D01*
X0002258141Y0001894470D01*
X0002251685Y0001891796D01*
X0002245807Y0001890626D01*
X0002244832Y0001890432D01*
X0002237844Y0001890432D01*
X0002236869Y0001890626D01*
X0002230991Y0001891796D01*
X0002224535Y0001894470D01*
X0002218726Y0001898352D01*
X0002213785Y0001903293D01*
X0002209903Y0001909102D01*
X0002207229Y0001915558D01*
X0002205866Y0001922411D01*
X0002205866Y0001929399D01*
X0002207229Y0001936252D01*
X0002209903Y0001942707D01*
X0002213785Y0001948517D01*
X0002218726Y0001953458D01*
X0002224535Y0001957340D01*
X0002230991Y0001960014D01*
X0002236869Y0001961183D01*
X0002237844Y0001961377D01*
X0002244832Y0001961377D01*
X0002245807Y0001961183D01*
X0002245807Y0001961183D01*
G37*
G36*
X0003216810Y0001911968D02*
G01*
X0003145866Y0001911968D01*
X0003145866Y0001982913D01*
X0003216810Y0001982913D01*
X0003216810Y0001911968D01*
X0003216810Y0001911968D01*
G37*
G36*
X0001951908Y0002006183D02*
G01*
X0001956930Y0002004102D01*
X0001961451Y0002001082D01*
X0001965295Y0001997238D01*
X0001968315Y0001992718D01*
X0001970396Y0001987695D01*
X0001971456Y0001982363D01*
X0001971456Y0001976927D01*
X0001970396Y0001971595D01*
X0001968315Y0001966572D01*
X0001965295Y0001962052D01*
X0001961451Y0001958208D01*
X0001956930Y0001955188D01*
X0001951908Y0001953107D01*
X0001946576Y0001952047D01*
X0001941139Y0001952047D01*
X0001935808Y0001953107D01*
X0001930785Y0001955188D01*
X0001926265Y0001958208D01*
X0001922420Y0001962052D01*
X0001919400Y0001966572D01*
X0001917320Y0001971595D01*
X0001916259Y0001976927D01*
X0001916259Y0001982363D01*
X0001917320Y0001987695D01*
X0001919400Y0001992718D01*
X0001922420Y0001997238D01*
X0001926265Y0002001082D01*
X0001930785Y0002004102D01*
X0001935808Y0002006183D01*
X0001941139Y0002007244D01*
X0001946576Y0002007244D01*
X0001951908Y0002006183D01*
X0001951908Y0002006183D01*
G37*
G36*
X0002852122Y0002061457D02*
G01*
X0002858851Y0002058670D01*
X0002858851Y0002058670D01*
X0002860840Y0002057340D01*
X0002864907Y0002054623D01*
X0002870056Y0002049473D01*
X0002874103Y0002043418D01*
X0002876890Y0002036689D01*
X0002878310Y0002029546D01*
X0002878310Y0002022263D01*
X0002876890Y0002015120D01*
X0002874103Y0002008392D01*
X0002874103Y0002008392D01*
X0002870056Y0002002336D01*
X0002864907Y0001997187D01*
X0002858851Y0001993140D01*
X0002858851Y0001993140D01*
X0002858851Y0001993140D01*
X0002852122Y0001990353D01*
X0002844980Y0001988932D01*
X0002837696Y0001988932D01*
X0002830554Y0001990353D01*
X0002823825Y0001993140D01*
X0002823825Y0001993140D01*
X0002823825Y0001993140D01*
X0002817769Y0001997187D01*
X0002812620Y0002002336D01*
X0002808573Y0002008392D01*
X0002808573Y0002008392D01*
X0002805786Y0002015120D01*
X0002804366Y0002022263D01*
X0002804366Y0002029546D01*
X0002805786Y0002036689D01*
X0002808573Y0002043418D01*
X0002812620Y0002049473D01*
X0002817769Y0002054623D01*
X0002821836Y0002057340D01*
X0002823825Y0002058670D01*
X0002823825Y0002058670D01*
X0002830554Y0002061457D01*
X0002837696Y0002062877D01*
X0002844980Y0002062877D01*
X0002852122Y0002061457D01*
X0002852122Y0002061457D01*
G37*
G36*
X0002245807Y0002061183D02*
G01*
X0002251685Y0002060014D01*
X0002258141Y0002057340D01*
X0002263950Y0002053458D01*
X0002268891Y0002048517D01*
X0002272773Y0002042707D01*
X0002275447Y0002036252D01*
X0002276810Y0002029399D01*
X0002276810Y0002022411D01*
X0002275447Y0002015558D01*
X0002272773Y0002009102D01*
X0002268891Y0002003293D01*
X0002263950Y0001998352D01*
X0002258141Y0001994470D01*
X0002251685Y0001991796D01*
X0002245807Y0001990626D01*
X0002244832Y0001990432D01*
X0002237844Y0001990432D01*
X0002236869Y0001990626D01*
X0002230991Y0001991796D01*
X0002224535Y0001994470D01*
X0002218726Y0001998352D01*
X0002213785Y0002003293D01*
X0002209903Y0002009102D01*
X0002207229Y0002015558D01*
X0002205866Y0002022411D01*
X0002205866Y0002029399D01*
X0002207229Y0002036252D01*
X0002209903Y0002042707D01*
X0002213785Y0002048517D01*
X0002218726Y0002053458D01*
X0002224535Y0002057340D01*
X0002230991Y0002060014D01*
X0002236869Y0002061183D01*
X0002237844Y0002061377D01*
X0002244832Y0002061377D01*
X0002245807Y0002061183D01*
X0002245807Y0002061183D01*
G37*
G36*
X0001951908Y0002084923D02*
G01*
X0001956930Y0002082843D01*
X0001961451Y0002079822D01*
X0001965295Y0002075978D01*
X0001968315Y0002071458D01*
X0001970396Y0002066435D01*
X0001971456Y0002061104D01*
X0001971456Y0002055667D01*
X0001970396Y0002050335D01*
X0001968315Y0002045312D01*
X0001965295Y0002040792D01*
X0001961451Y0002036948D01*
X0001956930Y0002033928D01*
X0001951908Y0002031847D01*
X0001946576Y0002030787D01*
X0001941139Y0002030787D01*
X0001935808Y0002031847D01*
X0001930785Y0002033928D01*
X0001926265Y0002036948D01*
X0001922420Y0002040792D01*
X0001919400Y0002045312D01*
X0001917320Y0002050335D01*
X0001916259Y0002055667D01*
X0001916259Y0002061104D01*
X0001917320Y0002066435D01*
X0001919400Y0002071458D01*
X0001922420Y0002075978D01*
X0001926265Y0002079822D01*
X0001930785Y0002082843D01*
X0001935808Y0002084923D01*
X0001941139Y0002085984D01*
X0001946576Y0002085984D01*
X0001951908Y0002084923D01*
X0001951908Y0002084923D01*
G37*
G36*
X0002245807Y0002161183D02*
G01*
X0002251685Y0002160014D01*
X0002258141Y0002157340D01*
X0002263950Y0002153458D01*
X0002268891Y0002148517D01*
X0002272773Y0002142707D01*
X0002275447Y0002136252D01*
X0002276810Y0002129399D01*
X0002276810Y0002122411D01*
X0002275447Y0002115558D01*
X0002272773Y0002109102D01*
X0002268891Y0002103293D01*
X0002263950Y0002098352D01*
X0002258141Y0002094470D01*
X0002251685Y0002091796D01*
X0002245807Y0002090626D01*
X0002244832Y0002090432D01*
X0002237844Y0002090432D01*
X0002236869Y0002090626D01*
X0002230991Y0002091796D01*
X0002224535Y0002094470D01*
X0002218726Y0002098352D01*
X0002213785Y0002103293D01*
X0002209903Y0002109102D01*
X0002207229Y0002115558D01*
X0002205866Y0002122411D01*
X0002205866Y0002129399D01*
X0002207229Y0002136252D01*
X0002209903Y0002142707D01*
X0002213785Y0002148517D01*
X0002218726Y0002153458D01*
X0002224535Y0002157340D01*
X0002230991Y0002160014D01*
X0002236869Y0002161183D01*
X0002237844Y0002161377D01*
X0002244832Y0002161377D01*
X0002245807Y0002161183D01*
X0002245807Y0002161183D01*
G37*
G36*
X0002845807Y0002161183D02*
G01*
X0002851685Y0002160014D01*
X0002858141Y0002157340D01*
X0002863950Y0002153458D01*
X0002868891Y0002148517D01*
X0002872773Y0002142707D01*
X0002875447Y0002136252D01*
X0002876810Y0002129399D01*
X0002876810Y0002122411D01*
X0002875447Y0002115558D01*
X0002872773Y0002109102D01*
X0002868891Y0002103293D01*
X0002863950Y0002098352D01*
X0002858141Y0002094470D01*
X0002851685Y0002091796D01*
X0002845807Y0002090626D01*
X0002844832Y0002090432D01*
X0002837844Y0002090432D01*
X0002836869Y0002090626D01*
X0002830991Y0002091796D01*
X0002824535Y0002094470D01*
X0002818726Y0002098352D01*
X0002813785Y0002103293D01*
X0002809903Y0002109102D01*
X0002807229Y0002115558D01*
X0002805866Y0002122411D01*
X0002805866Y0002129399D01*
X0002807229Y0002136252D01*
X0002809903Y0002142707D01*
X0002813785Y0002148517D01*
X0002818726Y0002153458D01*
X0002824535Y0002157340D01*
X0002830991Y0002160014D01*
X0002836869Y0002161183D01*
X0002837844Y0002161377D01*
X0002844832Y0002161377D01*
X0002845807Y0002161183D01*
X0002845807Y0002161183D01*
G37*
G36*
X0001951908Y0002163663D02*
G01*
X0001956930Y0002161583D01*
X0001961451Y0002158563D01*
X0001965295Y0002154718D01*
X0001968315Y0002150198D01*
X0001970396Y0002145176D01*
X0001971456Y0002139844D01*
X0001971456Y0002134407D01*
X0001970396Y0002129075D01*
X0001968315Y0002124053D01*
X0001965295Y0002119533D01*
X0001961451Y0002115688D01*
X0001956930Y0002112668D01*
X0001951908Y0002110588D01*
X0001946576Y0002109527D01*
X0001941139Y0002109527D01*
X0001935808Y0002110588D01*
X0001930785Y0002112668D01*
X0001926265Y0002115688D01*
X0001922420Y0002119533D01*
X0001919400Y0002124053D01*
X0001917320Y0002129075D01*
X0001916259Y0002134407D01*
X0001916259Y0002139844D01*
X0001917320Y0002145176D01*
X0001919400Y0002150198D01*
X0001922420Y0002154718D01*
X0001926265Y0002158563D01*
X0001930785Y0002161583D01*
X0001935808Y0002163663D01*
X0001941139Y0002164724D01*
X0001946576Y0002164724D01*
X0001951908Y0002163663D01*
X0001951908Y0002163663D01*
G37*
G36*
X0002845807Y0002261183D02*
G01*
X0002851685Y0002260014D01*
X0002858141Y0002257340D01*
X0002863950Y0002253458D01*
X0002868891Y0002248517D01*
X0002872773Y0002242707D01*
X0002875447Y0002236252D01*
X0002876810Y0002229399D01*
X0002876810Y0002222411D01*
X0002875447Y0002215558D01*
X0002872773Y0002209102D01*
X0002868891Y0002203293D01*
X0002863950Y0002198352D01*
X0002858141Y0002194470D01*
X0002851685Y0002191796D01*
X0002845807Y0002190626D01*
X0002844832Y0002190432D01*
X0002837844Y0002190432D01*
X0002836869Y0002190626D01*
X0002830991Y0002191796D01*
X0002824535Y0002194470D01*
X0002818726Y0002198352D01*
X0002813785Y0002203293D01*
X0002809903Y0002209102D01*
X0002807229Y0002215558D01*
X0002805866Y0002222411D01*
X0002805866Y0002229399D01*
X0002807229Y0002236252D01*
X0002809903Y0002242707D01*
X0002813785Y0002248517D01*
X0002818726Y0002253458D01*
X0002824535Y0002257340D01*
X0002830991Y0002260014D01*
X0002836869Y0002261183D01*
X0002837844Y0002261377D01*
X0002844832Y0002261377D01*
X0002845807Y0002261183D01*
X0002845807Y0002261183D01*
G37*
G36*
X0002245807Y0002261183D02*
G01*
X0002251685Y0002260014D01*
X0002258141Y0002257340D01*
X0002263950Y0002253458D01*
X0002268891Y0002248517D01*
X0002272773Y0002242707D01*
X0002275447Y0002236252D01*
X0002276810Y0002229399D01*
X0002276810Y0002222411D01*
X0002275447Y0002215558D01*
X0002272773Y0002209102D01*
X0002268891Y0002203293D01*
X0002263950Y0002198352D01*
X0002258141Y0002194470D01*
X0002251685Y0002191796D01*
X0002245807Y0002190626D01*
X0002244832Y0002190432D01*
X0002237844Y0002190432D01*
X0002236869Y0002190626D01*
X0002230991Y0002191796D01*
X0002224535Y0002194470D01*
X0002218726Y0002198352D01*
X0002213785Y0002203293D01*
X0002209903Y0002209102D01*
X0002207229Y0002215558D01*
X0002205866Y0002222411D01*
X0002205866Y0002229399D01*
X0002207229Y0002236252D01*
X0002209903Y0002242707D01*
X0002213785Y0002248517D01*
X0002218726Y0002253458D01*
X0002224535Y0002257340D01*
X0002230991Y0002260014D01*
X0002236869Y0002261183D01*
X0002237844Y0002261377D01*
X0002244832Y0002261377D01*
X0002245807Y0002261183D01*
X0002245807Y0002261183D01*
G37*
G36*
X0002845807Y0002361183D02*
G01*
X0002851685Y0002360014D01*
X0002858141Y0002357340D01*
X0002863950Y0002353458D01*
X0002868891Y0002348517D01*
X0002872773Y0002342707D01*
X0002875447Y0002336252D01*
X0002876810Y0002329399D01*
X0002876810Y0002322411D01*
X0002875447Y0002315558D01*
X0002872773Y0002309102D01*
X0002868891Y0002303293D01*
X0002863950Y0002298352D01*
X0002858141Y0002294470D01*
X0002851685Y0002291796D01*
X0002845807Y0002290626D01*
X0002844832Y0002290432D01*
X0002837844Y0002290432D01*
X0002836869Y0002290626D01*
X0002830991Y0002291796D01*
X0002824535Y0002294470D01*
X0002818726Y0002298352D01*
X0002813785Y0002303293D01*
X0002809903Y0002309102D01*
X0002807229Y0002315558D01*
X0002805866Y0002322411D01*
X0002805866Y0002329399D01*
X0002807229Y0002336252D01*
X0002809903Y0002342707D01*
X0002813785Y0002348517D01*
X0002818726Y0002353458D01*
X0002824535Y0002357340D01*
X0002830991Y0002360014D01*
X0002836869Y0002361183D01*
X0002837844Y0002361377D01*
X0002844832Y0002361377D01*
X0002845807Y0002361183D01*
X0002845807Y0002361183D01*
G37*
G36*
X0002245807Y0002361183D02*
G01*
X0002251685Y0002360014D01*
X0002258141Y0002357340D01*
X0002263950Y0002353458D01*
X0002268891Y0002348517D01*
X0002272773Y0002342707D01*
X0002275447Y0002336252D01*
X0002276810Y0002329399D01*
X0002276810Y0002322411D01*
X0002275447Y0002315558D01*
X0002272773Y0002309102D01*
X0002268891Y0002303293D01*
X0002263950Y0002298352D01*
X0002258141Y0002294470D01*
X0002251685Y0002291796D01*
X0002245807Y0002290626D01*
X0002244832Y0002290432D01*
X0002237844Y0002290432D01*
X0002236869Y0002290626D01*
X0002230991Y0002291796D01*
X0002224535Y0002294470D01*
X0002218726Y0002298352D01*
X0002213785Y0002303293D01*
X0002209903Y0002309102D01*
X0002207229Y0002315558D01*
X0002205866Y0002322411D01*
X0002205866Y0002329399D01*
X0002207229Y0002336252D01*
X0002209903Y0002342707D01*
X0002213785Y0002348517D01*
X0002218726Y0002353458D01*
X0002224535Y0002357340D01*
X0002230991Y0002360014D01*
X0002236869Y0002361183D01*
X0002237844Y0002361377D01*
X0002244832Y0002361377D01*
X0002245807Y0002361183D01*
X0002245807Y0002361183D01*
G37*
G36*
X0001931853Y0002454174D02*
G01*
X0001945832Y0002448383D01*
X0001945832Y0002448383D01*
X0001958412Y0002439977D01*
X0001969111Y0002429279D01*
X0001977517Y0002416698D01*
X0001977517Y0002416698D01*
X0001983307Y0002402719D01*
X0001986259Y0002387880D01*
X0001986259Y0002372749D01*
X0001983307Y0002357909D01*
X0001979417Y0002348517D01*
X0001977517Y0002343931D01*
X0001969111Y0002331350D01*
X0001958412Y0002320651D01*
X0001945832Y0002312245D01*
X0001945832Y0002312245D01*
X0001945832Y0002312245D01*
X0001931853Y0002306455D01*
X0001917014Y0002303503D01*
X0001901883Y0002303503D01*
X0001887043Y0002306455D01*
X0001873065Y0002312245D01*
X0001873065Y0002312245D01*
X0001873065Y0002312245D01*
X0001860484Y0002320651D01*
X0001849785Y0002331350D01*
X0001841379Y0002343931D01*
X0001839479Y0002348517D01*
X0001835589Y0002357909D01*
X0001832637Y0002372749D01*
X0001832637Y0002387880D01*
X0001835589Y0002402719D01*
X0001841379Y0002416698D01*
X0001841379Y0002416698D01*
X0001849785Y0002429279D01*
X0001860484Y0002439977D01*
X0001873065Y0002448383D01*
X0001873065Y0002448383D01*
X0001887043Y0002454174D01*
X0001901883Y0002457125D01*
X0001917014Y0002457125D01*
X0001931853Y0002454174D01*
X0001931853Y0002454174D01*
G37*
G36*
X0003195633Y0002454174D02*
G01*
X0003209611Y0002448383D01*
X0003209611Y0002448383D01*
X0003222192Y0002439977D01*
X0003232891Y0002429279D01*
X0003241297Y0002416698D01*
X0003241297Y0002416698D01*
X0003247087Y0002402719D01*
X0003250039Y0002387880D01*
X0003250039Y0002372749D01*
X0003247087Y0002357909D01*
X0003243197Y0002348517D01*
X0003241297Y0002343931D01*
X0003232891Y0002331350D01*
X0003222192Y0002320651D01*
X0003209611Y0002312245D01*
X0003209611Y0002312245D01*
X0003209611Y0002312245D01*
X0003195633Y0002306455D01*
X0003180793Y0002303503D01*
X0003165662Y0002303503D01*
X0003150823Y0002306455D01*
X0003136844Y0002312245D01*
X0003136844Y0002312245D01*
X0003136844Y0002312245D01*
X0003124264Y0002320651D01*
X0003113565Y0002331350D01*
X0003105159Y0002343931D01*
X0003103259Y0002348517D01*
X0003099369Y0002357909D01*
X0003096417Y0002372749D01*
X0003096417Y0002387880D01*
X0003099369Y0002402719D01*
X0003105159Y0002416698D01*
X0003105159Y0002416698D01*
X0003113565Y0002429279D01*
X0003124264Y0002439977D01*
X0003136844Y0002448383D01*
X0003136844Y0002448383D01*
X0003150823Y0002454174D01*
X0003165662Y0002457125D01*
X0003180793Y0002457125D01*
X0003195633Y0002454174D01*
X0003195633Y0002454174D01*
G37*
G04 next file*
G04 #@! TF.GenerationSoftware,KiCad,Pcbnew,(5.1.2)-1*
G04 #@! TF.CreationDate,2020-12-30T14:45:37+09:00*
G04 #@! TF.ProjectId,M5Atom_CAN,4d354174-6f6d-45f4-9341-4e2e6b696361,rev?*
G04 #@! TF.SameCoordinates,Original*
G04 #@! TF.FileFunction,Soldermask,Top*
G04 #@! TF.FilePolarity,Negative*
G04 Gerber Fmt 4.6, Leading zero omitted, Abs format (unit mm)*
G04 Created by KiCad (PCBNEW (5.1.2)-1) date 2020-12-30 14:45:37*
G04 APERTURE LIST*
G04 APERTURE END LIST*
D24*
G36*
X0003195633Y0002788819D02*
G01*
X0003209611Y0002783029D01*
X0003209611Y0002783029D01*
X0003222192Y0002774623D01*
X0003232891Y0002763924D01*
X0003238247Y0002755907D01*
X0003241297Y0002751344D01*
X0003247087Y0002737365D01*
X0003250039Y0002722525D01*
X0003250039Y0002707395D01*
X0003247087Y0002692555D01*
X0003241297Y0002678576D01*
X0003241297Y0002678576D01*
X0003232891Y0002665996D01*
X0003222192Y0002655297D01*
X0003209611Y0002646891D01*
X0003209611Y0002646891D01*
X0003209611Y0002646891D01*
X0003195633Y0002641101D01*
X0003180793Y0002638149D01*
X0003165662Y0002638149D01*
X0003150823Y0002641101D01*
X0003136844Y0002646891D01*
X0003136844Y0002646891D01*
X0003136844Y0002646891D01*
X0003124264Y0002655297D01*
X0003113565Y0002665996D01*
X0003105159Y0002678576D01*
X0003105159Y0002678576D01*
X0003099369Y0002692555D01*
X0003096417Y0002707395D01*
X0003096417Y0002722525D01*
X0003099369Y0002737365D01*
X0003105159Y0002751344D01*
X0003108208Y0002755907D01*
X0003113565Y0002763924D01*
X0003124264Y0002774623D01*
X0003136844Y0002783029D01*
X0003136844Y0002783029D01*
X0003150823Y0002788819D01*
X0003165662Y0002791771D01*
X0003180793Y0002791771D01*
X0003195633Y0002788819D01*
X0003195633Y0002788819D01*
G37*
G36*
X0001931853Y0002788819D02*
G01*
X0001945832Y0002783029D01*
X0001945832Y0002783029D01*
X0001958412Y0002774623D01*
X0001969111Y0002763924D01*
X0001974468Y0002755907D01*
X0001977517Y0002751344D01*
X0001983307Y0002737365D01*
X0001986259Y0002722525D01*
X0001986259Y0002707395D01*
X0001983307Y0002692555D01*
X0001977517Y0002678576D01*
X0001977517Y0002678576D01*
X0001969111Y0002665996D01*
X0001958412Y0002655297D01*
X0001945832Y0002646891D01*
X0001945832Y0002646891D01*
X0001945832Y0002646891D01*
X0001931853Y0002641101D01*
X0001917014Y0002638149D01*
X0001901883Y0002638149D01*
X0001887043Y0002641101D01*
X0001873065Y0002646891D01*
X0001873065Y0002646891D01*
X0001873065Y0002646891D01*
X0001860484Y0002655297D01*
X0001849785Y0002665996D01*
X0001841379Y0002678576D01*
X0001841379Y0002678576D01*
X0001835589Y0002692555D01*
X0001832637Y0002707395D01*
X0001832637Y0002722525D01*
X0001835589Y0002737365D01*
X0001841379Y0002751344D01*
X0001844429Y0002755907D01*
X0001849785Y0002763924D01*
X0001860484Y0002774623D01*
X0001873065Y0002783029D01*
X0001873065Y0002783029D01*
X0001887043Y0002788819D01*
X0001901883Y0002791771D01*
X0001917014Y0002791771D01*
X0001931853Y0002788819D01*
X0001931853Y0002788819D01*
G37*
G36*
X0002423936Y0002701771D02*
G01*
X0002368740Y0002701771D01*
X0002368740Y0002756968D01*
X0002423936Y0002756968D01*
X0002423936Y0002701771D01*
X0002423936Y0002701771D01*
G37*
G36*
X0002325648Y0002755907D02*
G01*
X0002330671Y0002753827D01*
X0002335191Y0002750807D01*
X0002339035Y0002746962D01*
X0002342055Y0002742442D01*
X0002344136Y0002737420D01*
X0002345196Y0002732088D01*
X0002345196Y0002726651D01*
X0002344136Y0002721319D01*
X0002342055Y0002716297D01*
X0002339035Y0002711777D01*
X0002335191Y0002707932D01*
X0002330671Y0002704912D01*
X0002325648Y0002702832D01*
X0002320316Y0002701771D01*
X0002314880Y0002701771D01*
X0002309548Y0002702832D01*
X0002304525Y0002704912D01*
X0002300005Y0002707932D01*
X0002296161Y0002711777D01*
X0002293140Y0002716297D01*
X0002291060Y0002721319D01*
X0002289999Y0002726651D01*
X0002289999Y0002732088D01*
X0002291060Y0002737420D01*
X0002293140Y0002742442D01*
X0002296161Y0002746962D01*
X0002300005Y0002750807D01*
X0002304525Y0002753827D01*
X0002309548Y0002755907D01*
X0002314880Y0002756968D01*
X0002320316Y0002756968D01*
X0002325648Y0002755907D01*
X0002325648Y0002755907D01*
G37*
G36*
X0002246908Y0002755907D02*
G01*
X0002251930Y0002753827D01*
X0002256451Y0002750807D01*
X0002260295Y0002746962D01*
X0002263315Y0002742442D01*
X0002265396Y0002737420D01*
X0002266456Y0002732088D01*
X0002266456Y0002726651D01*
X0002265396Y0002721319D01*
X0002263315Y0002716297D01*
X0002260295Y0002711777D01*
X0002256451Y0002707932D01*
X0002251930Y0002704912D01*
X0002246908Y0002702832D01*
X0002241576Y0002701771D01*
X0002236139Y0002701771D01*
X0002230808Y0002702832D01*
X0002225785Y0002704912D01*
X0002221265Y0002707932D01*
X0002217420Y0002711777D01*
X0002214400Y0002716297D01*
X0002212320Y0002721319D01*
X0002211259Y0002726651D01*
X0002211259Y0002732088D01*
X0002212320Y0002737420D01*
X0002214400Y0002742442D01*
X0002217420Y0002746962D01*
X0002221265Y0002750807D01*
X0002225785Y0002753827D01*
X0002230808Y0002755907D01*
X0002236139Y0002756968D01*
X0002241576Y0002756968D01*
X0002246908Y0002755907D01*
X0002246908Y0002755907D01*
G37*
G36*
X0002168168Y0002755907D02*
G01*
X0002173190Y0002753827D01*
X0002177710Y0002750807D01*
X0002181555Y0002746962D01*
X0002184575Y0002742442D01*
X0002186655Y0002737420D01*
X0002187716Y0002732088D01*
X0002187716Y0002726651D01*
X0002186655Y0002721319D01*
X0002184575Y0002716297D01*
X0002181555Y0002711777D01*
X0002177710Y0002707932D01*
X0002173190Y0002704912D01*
X0002168168Y0002702832D01*
X0002162836Y0002701771D01*
X0002157399Y0002701771D01*
X0002152067Y0002702832D01*
X0002147045Y0002704912D01*
X0002142525Y0002707932D01*
X0002138680Y0002711777D01*
X0002135660Y0002716297D01*
X0002133580Y0002721319D01*
X0002132519Y0002726651D01*
X0002132519Y0002732088D01*
X0002133580Y0002737420D01*
X0002135660Y0002742442D01*
X0002138680Y0002746962D01*
X0002142525Y0002750807D01*
X0002147045Y0002753827D01*
X0002152067Y0002755907D01*
X0002157399Y0002756968D01*
X0002162836Y0002756968D01*
X0002168168Y0002755907D01*
X0002168168Y0002755907D01*
G37*
G36*
X0002933936Y0002701771D02*
G01*
X0002878740Y0002701771D01*
X0002878740Y0002756968D01*
X0002933936Y0002756968D01*
X0002933936Y0002701771D01*
X0002933936Y0002701771D01*
G37*
G36*
X0002835648Y0002755907D02*
G01*
X0002840671Y0002753827D01*
X0002845191Y0002750807D01*
X0002849035Y0002746962D01*
X0002852055Y0002742442D01*
X0002854136Y0002737420D01*
X0002855196Y0002732088D01*
X0002855196Y0002726651D01*
X0002854136Y0002721319D01*
X0002852055Y0002716297D01*
X0002849035Y0002711777D01*
X0002845191Y0002707932D01*
X0002840671Y0002704912D01*
X0002835648Y0002702832D01*
X0002830316Y0002701771D01*
X0002824880Y0002701771D01*
X0002819548Y0002702832D01*
X0002814525Y0002704912D01*
X0002810005Y0002707932D01*
X0002806161Y0002711777D01*
X0002803140Y0002716297D01*
X0002801060Y0002721319D01*
X0002799999Y0002726651D01*
X0002799999Y0002732088D01*
X0002801060Y0002737420D01*
X0002803140Y0002742442D01*
X0002806161Y0002746962D01*
X0002810005Y0002750807D01*
X0002814525Y0002753827D01*
X0002819548Y0002755907D01*
X0002824880Y0002756968D01*
X0002830316Y0002756968D01*
X0002835648Y0002755907D01*
X0002835648Y0002755907D01*
G37*
G36*
X0002756908Y0002755907D02*
G01*
X0002761930Y0002753827D01*
X0002766451Y0002750807D01*
X0002770295Y0002746962D01*
X0002773315Y0002742442D01*
X0002775396Y0002737420D01*
X0002776456Y0002732088D01*
X0002776456Y0002726651D01*
X0002775396Y0002721319D01*
X0002773315Y0002716297D01*
X0002770295Y0002711777D01*
X0002766451Y0002707932D01*
X0002761930Y0002704912D01*
X0002756908Y0002702832D01*
X0002751576Y0002701771D01*
X0002746139Y0002701771D01*
X0002740808Y0002702832D01*
X0002735785Y0002704912D01*
X0002731265Y0002707932D01*
X0002727420Y0002711777D01*
X0002724400Y0002716297D01*
X0002722320Y0002721319D01*
X0002721259Y0002726651D01*
X0002721259Y0002732088D01*
X0002722320Y0002737420D01*
X0002724400Y0002742442D01*
X0002727420Y0002746962D01*
X0002731265Y0002750807D01*
X0002735785Y0002753827D01*
X0002740808Y0002755907D01*
X0002746139Y0002756968D01*
X0002751576Y0002756968D01*
X0002756908Y0002755907D01*
X0002756908Y0002755907D01*
G37*
G36*
X0002678168Y0002755907D02*
G01*
X0002683190Y0002753827D01*
X0002687710Y0002750807D01*
X0002691555Y0002746962D01*
X0002694575Y0002742442D01*
X0002696655Y0002737420D01*
X0002697716Y0002732088D01*
X0002697716Y0002726651D01*
X0002696655Y0002721319D01*
X0002694575Y0002716297D01*
X0002691555Y0002711777D01*
X0002687710Y0002707932D01*
X0002683190Y0002704912D01*
X0002678168Y0002702832D01*
X0002672836Y0002701771D01*
X0002667399Y0002701771D01*
X0002662067Y0002702832D01*
X0002657045Y0002704912D01*
X0002652525Y0002707932D01*
X0002648680Y0002711777D01*
X0002645660Y0002716297D01*
X0002643580Y0002721319D01*
X0002642519Y0002726651D01*
X0002642519Y0002732088D01*
X0002643580Y0002737420D01*
X0002645660Y0002742442D01*
X0002648680Y0002746962D01*
X0002652525Y0002750807D01*
X0002657045Y0002753827D01*
X0002662067Y0002755907D01*
X0002667399Y0002756968D01*
X0002672836Y0002756968D01*
X0002678168Y0002755907D01*
X0002678168Y0002755907D01*
G37*
G36*
X0001951908Y0003068388D02*
G01*
X0001956930Y0003066307D01*
X0001961451Y0003063287D01*
X0001965295Y0003059443D01*
X0001968315Y0003054923D01*
X0001970396Y0003049900D01*
X0001971456Y0003044568D01*
X0001971456Y0003039132D01*
X0001970396Y0003033800D01*
X0001968315Y0003028777D01*
X0001965295Y0003024257D01*
X0001961451Y0003020413D01*
X0001956930Y0003017392D01*
X0001951908Y0003015312D01*
X0001946576Y0003014251D01*
X0001941139Y0003014251D01*
X0001935808Y0003015312D01*
X0001930785Y0003017392D01*
X0001926265Y0003020413D01*
X0001922420Y0003024257D01*
X0001919400Y0003028777D01*
X0001917320Y0003033800D01*
X0001916259Y0003039132D01*
X0001916259Y0003044568D01*
X0001917320Y0003049900D01*
X0001919400Y0003054923D01*
X0001922420Y0003059443D01*
X0001926265Y0003063287D01*
X0001930785Y0003066307D01*
X0001935808Y0003068388D01*
X0001941139Y0003069448D01*
X0001946576Y0003069448D01*
X0001951908Y0003068388D01*
X0001951908Y0003068388D01*
G37*
G36*
X0001951908Y0003147128D02*
G01*
X0001956930Y0003145047D01*
X0001961451Y0003142027D01*
X0001965295Y0003138183D01*
X0001968315Y0003133663D01*
X0001970396Y0003128640D01*
X0001971456Y0003123308D01*
X0001971456Y0003117872D01*
X0001970396Y0003112540D01*
X0001968315Y0003107517D01*
X0001965295Y0003102997D01*
X0001961451Y0003099153D01*
X0001956930Y0003096133D01*
X0001951908Y0003094052D01*
X0001946576Y0003092992D01*
X0001941139Y0003092992D01*
X0001935808Y0003094052D01*
X0001930785Y0003096133D01*
X0001926265Y0003099153D01*
X0001922420Y0003102997D01*
X0001919400Y0003107517D01*
X0001917320Y0003112540D01*
X0001916259Y0003117872D01*
X0001916259Y0003123308D01*
X0001917320Y0003128640D01*
X0001919400Y0003133663D01*
X0001922420Y0003138183D01*
X0001926265Y0003142027D01*
X0001930785Y0003145047D01*
X0001935808Y0003147128D01*
X0001941139Y0003148188D01*
X0001946576Y0003148188D01*
X0001951908Y0003147128D01*
X0001951908Y0003147128D01*
G37*
G36*
X0003185686Y0003181081D02*
G01*
X0003188292Y0003180825D01*
X0003194978Y0003178796D01*
X0003201141Y0003175502D01*
X0003201908Y0003174873D01*
X0003206542Y0003171070D01*
X0003209820Y0003167075D01*
X0003210975Y0003165668D01*
X0003214269Y0003159506D01*
X0003216297Y0003152819D01*
X0003216982Y0003145866D01*
X0003216297Y0003138912D01*
X0003214269Y0003132225D01*
X0003210975Y0003126063D01*
X0003209820Y0003124656D01*
X0003206542Y0003120661D01*
X0003203143Y0003117872D01*
X0003201141Y0003116229D01*
X0003194978Y0003112935D01*
X0003188292Y0003110906D01*
X0003185686Y0003110650D01*
X0003183081Y0003110393D01*
X0003179595Y0003110393D01*
X0003176990Y0003110650D01*
X0003174384Y0003110906D01*
X0003167698Y0003112935D01*
X0003161535Y0003116229D01*
X0003159533Y0003117872D01*
X0003156134Y0003120661D01*
X0003152856Y0003124656D01*
X0003151701Y0003126063D01*
X0003148407Y0003132225D01*
X0003146379Y0003138912D01*
X0003145694Y0003145866D01*
X0003146379Y0003152819D01*
X0003148407Y0003159506D01*
X0003151701Y0003165668D01*
X0003152856Y0003167075D01*
X0003156134Y0003171070D01*
X0003160768Y0003174873D01*
X0003161535Y0003175502D01*
X0003167698Y0003178796D01*
X0003174384Y0003180825D01*
X0003176990Y0003181081D01*
X0003179595Y0003181338D01*
X0003183081Y0003181338D01*
X0003185686Y0003181081D01*
X0003185686Y0003181081D01*
G37*
G36*
X0001951908Y0003225868D02*
G01*
X0001956930Y0003223787D01*
X0001961451Y0003220767D01*
X0001965295Y0003216923D01*
X0001968315Y0003212403D01*
X0001970396Y0003207380D01*
X0001971456Y0003202048D01*
X0001971456Y0003196612D01*
X0001970396Y0003191280D01*
X0001968315Y0003186257D01*
X0001965295Y0003181737D01*
X0001961451Y0003177893D01*
X0001956930Y0003174873D01*
X0001951908Y0003172792D01*
X0001946576Y0003171732D01*
X0001941139Y0003171732D01*
X0001935808Y0003172792D01*
X0001930785Y0003174873D01*
X0001926265Y0003177893D01*
X0001922420Y0003181737D01*
X0001919400Y0003186257D01*
X0001917320Y0003191280D01*
X0001916259Y0003196612D01*
X0001916259Y0003202048D01*
X0001917320Y0003207380D01*
X0001919400Y0003212403D01*
X0001922420Y0003216923D01*
X0001926265Y0003220767D01*
X0001930785Y0003223787D01*
X0001935808Y0003225868D01*
X0001941139Y0003226929D01*
X0001946576Y0003226929D01*
X0001951908Y0003225868D01*
X0001951908Y0003225868D01*
G37*
G36*
X0002245807Y0003259609D02*
G01*
X0002251685Y0003258439D01*
X0002258141Y0003255765D01*
X0002263950Y0003251883D01*
X0002268891Y0003246942D01*
X0002272773Y0003241133D01*
X0002275447Y0003234677D01*
X0002276810Y0003227824D01*
X0002276810Y0003220836D01*
X0002275447Y0003213983D01*
X0002272773Y0003207528D01*
X0002268891Y0003201718D01*
X0002263950Y0003196777D01*
X0002258141Y0003192895D01*
X0002251685Y0003190221D01*
X0002245807Y0003189052D01*
X0002244832Y0003188858D01*
X0002237844Y0003188858D01*
X0002236869Y0003189052D01*
X0002230991Y0003190221D01*
X0002224535Y0003192895D01*
X0002218726Y0003196777D01*
X0002213785Y0003201718D01*
X0002209903Y0003207528D01*
X0002207229Y0003213983D01*
X0002205866Y0003220836D01*
X0002205866Y0003227824D01*
X0002207229Y0003234677D01*
X0002209903Y0003241133D01*
X0002213785Y0003246942D01*
X0002218726Y0003251883D01*
X0002224535Y0003255765D01*
X0002230991Y0003258439D01*
X0002236869Y0003259609D01*
X0002237844Y0003259803D01*
X0002244832Y0003259803D01*
X0002245807Y0003259609D01*
X0002245807Y0003259609D01*
G37*
G36*
X0003216810Y0003210393D02*
G01*
X0003145866Y0003210393D01*
X0003145866Y0003281338D01*
X0003216810Y0003281338D01*
X0003216810Y0003210393D01*
X0003216810Y0003210393D01*
G37*
G36*
X0001951908Y0003304608D02*
G01*
X0001956930Y0003302528D01*
X0001961451Y0003299507D01*
X0001965295Y0003295663D01*
X0001968315Y0003291143D01*
X0001970396Y0003286120D01*
X0001971456Y0003280789D01*
X0001971456Y0003275352D01*
X0001970396Y0003270020D01*
X0001968315Y0003264997D01*
X0001965295Y0003260477D01*
X0001961451Y0003256633D01*
X0001956930Y0003253613D01*
X0001951908Y0003251532D01*
X0001946576Y0003250472D01*
X0001941139Y0003250472D01*
X0001935808Y0003251532D01*
X0001930785Y0003253613D01*
X0001926265Y0003256633D01*
X0001922420Y0003260477D01*
X0001919400Y0003264997D01*
X0001917320Y0003270020D01*
X0001916259Y0003275352D01*
X0001916259Y0003280789D01*
X0001917320Y0003286120D01*
X0001919400Y0003291143D01*
X0001922420Y0003295663D01*
X0001926265Y0003299507D01*
X0001930785Y0003302528D01*
X0001935808Y0003304608D01*
X0001941139Y0003305669D01*
X0001946576Y0003305669D01*
X0001951908Y0003304608D01*
X0001951908Y0003304608D01*
G37*
G36*
X0002852122Y0003359882D02*
G01*
X0002858851Y0003357095D01*
X0002858851Y0003357095D01*
X0002860840Y0003355765D01*
X0002864907Y0003353048D01*
X0002870056Y0003347899D01*
X0002874103Y0003341843D01*
X0002876890Y0003335115D01*
X0002878310Y0003327972D01*
X0002878310Y0003320689D01*
X0002876890Y0003313546D01*
X0002874103Y0003306817D01*
X0002874103Y0003306817D01*
X0002870056Y0003300762D01*
X0002864907Y0003295612D01*
X0002858851Y0003291566D01*
X0002858851Y0003291565D01*
X0002858851Y0003291565D01*
X0002852122Y0003288778D01*
X0002844980Y0003287358D01*
X0002837696Y0003287358D01*
X0002830554Y0003288778D01*
X0002823825Y0003291565D01*
X0002823825Y0003291565D01*
X0002823825Y0003291566D01*
X0002817769Y0003295612D01*
X0002812620Y0003300762D01*
X0002808573Y0003306817D01*
X0002808573Y0003306817D01*
X0002805786Y0003313546D01*
X0002804366Y0003320689D01*
X0002804366Y0003327972D01*
X0002805786Y0003335115D01*
X0002808573Y0003341843D01*
X0002812620Y0003347899D01*
X0002817769Y0003353048D01*
X0002821836Y0003355765D01*
X0002823825Y0003357095D01*
X0002823825Y0003357095D01*
X0002830554Y0003359882D01*
X0002837696Y0003361303D01*
X0002844980Y0003361303D01*
X0002852122Y0003359882D01*
X0002852122Y0003359882D01*
G37*
G36*
X0002245807Y0003359609D02*
G01*
X0002251685Y0003358439D01*
X0002258141Y0003355765D01*
X0002263950Y0003351883D01*
X0002268891Y0003346942D01*
X0002272773Y0003341133D01*
X0002275447Y0003334677D01*
X0002276810Y0003327824D01*
X0002276810Y0003320836D01*
X0002275447Y0003313983D01*
X0002272773Y0003307528D01*
X0002268891Y0003301718D01*
X0002263950Y0003296777D01*
X0002258141Y0003292895D01*
X0002251685Y0003290221D01*
X0002245807Y0003289052D01*
X0002244832Y0003288858D01*
X0002237844Y0003288858D01*
X0002236869Y0003289052D01*
X0002230991Y0003290221D01*
X0002224535Y0003292895D01*
X0002218726Y0003296777D01*
X0002213785Y0003301718D01*
X0002209903Y0003307528D01*
X0002207229Y0003313983D01*
X0002205866Y0003320836D01*
X0002205866Y0003327824D01*
X0002207229Y0003334677D01*
X0002209903Y0003341133D01*
X0002213785Y0003346942D01*
X0002218726Y0003351883D01*
X0002224535Y0003355765D01*
X0002230991Y0003358439D01*
X0002236869Y0003359609D01*
X0002237844Y0003359803D01*
X0002244832Y0003359803D01*
X0002245807Y0003359609D01*
X0002245807Y0003359609D01*
G37*
G36*
X0001951908Y0003383348D02*
G01*
X0001956930Y0003381268D01*
X0001961451Y0003378248D01*
X0001965295Y0003374403D01*
X0001968315Y0003369883D01*
X0001970396Y0003364861D01*
X0001971456Y0003359529D01*
X0001971456Y0003354092D01*
X0001970396Y0003348760D01*
X0001968315Y0003343738D01*
X0001965295Y0003339218D01*
X0001961451Y0003335373D01*
X0001956930Y0003332353D01*
X0001951908Y0003330273D01*
X0001946576Y0003329212D01*
X0001941139Y0003329212D01*
X0001935808Y0003330273D01*
X0001930785Y0003332353D01*
X0001926265Y0003335373D01*
X0001922420Y0003339218D01*
X0001919400Y0003343738D01*
X0001917320Y0003348760D01*
X0001916259Y0003354092D01*
X0001916259Y0003359529D01*
X0001917320Y0003364861D01*
X0001919400Y0003369883D01*
X0001922420Y0003374403D01*
X0001926265Y0003378248D01*
X0001930785Y0003381268D01*
X0001935808Y0003383348D01*
X0001941139Y0003384409D01*
X0001946576Y0003384409D01*
X0001951908Y0003383348D01*
X0001951908Y0003383348D01*
G37*
G36*
X0002245807Y0003459609D02*
G01*
X0002251685Y0003458439D01*
X0002258141Y0003455765D01*
X0002263950Y0003451883D01*
X0002268891Y0003446942D01*
X0002272773Y0003441133D01*
X0002275447Y0003434677D01*
X0002276810Y0003427824D01*
X0002276810Y0003420836D01*
X0002275447Y0003413983D01*
X0002272773Y0003407528D01*
X0002268891Y0003401718D01*
X0002263950Y0003396777D01*
X0002258141Y0003392895D01*
X0002251685Y0003390221D01*
X0002245807Y0003389052D01*
X0002244832Y0003388858D01*
X0002237844Y0003388858D01*
X0002236869Y0003389052D01*
X0002230991Y0003390221D01*
X0002224535Y0003392895D01*
X0002218726Y0003396777D01*
X0002213785Y0003401718D01*
X0002209903Y0003407528D01*
X0002207229Y0003413983D01*
X0002205866Y0003420836D01*
X0002205866Y0003427824D01*
X0002207229Y0003434677D01*
X0002209903Y0003441133D01*
X0002213785Y0003446942D01*
X0002218726Y0003451883D01*
X0002224535Y0003455765D01*
X0002230991Y0003458439D01*
X0002236869Y0003459609D01*
X0002237844Y0003459803D01*
X0002244832Y0003459803D01*
X0002245807Y0003459609D01*
X0002245807Y0003459609D01*
G37*
G36*
X0002845807Y0003459609D02*
G01*
X0002851685Y0003458439D01*
X0002858141Y0003455765D01*
X0002863950Y0003451883D01*
X0002868891Y0003446942D01*
X0002872773Y0003441133D01*
X0002875447Y0003434677D01*
X0002876810Y0003427824D01*
X0002876810Y0003420836D01*
X0002875447Y0003413983D01*
X0002872773Y0003407528D01*
X0002868891Y0003401718D01*
X0002863950Y0003396777D01*
X0002858141Y0003392895D01*
X0002851685Y0003390221D01*
X0002845807Y0003389052D01*
X0002844832Y0003388858D01*
X0002837844Y0003388858D01*
X0002836869Y0003389052D01*
X0002830991Y0003390221D01*
X0002824535Y0003392895D01*
X0002818726Y0003396777D01*
X0002813785Y0003401718D01*
X0002809903Y0003407528D01*
X0002807229Y0003413983D01*
X0002805866Y0003420836D01*
X0002805866Y0003427824D01*
X0002807229Y0003434677D01*
X0002809903Y0003441133D01*
X0002813785Y0003446942D01*
X0002818726Y0003451883D01*
X0002824535Y0003455765D01*
X0002830991Y0003458439D01*
X0002836869Y0003459609D01*
X0002837844Y0003459803D01*
X0002844832Y0003459803D01*
X0002845807Y0003459609D01*
X0002845807Y0003459609D01*
G37*
G36*
X0001951908Y0003462088D02*
G01*
X0001956930Y0003460008D01*
X0001961451Y0003456988D01*
X0001965295Y0003453143D01*
X0001968315Y0003448623D01*
X0001970396Y0003443601D01*
X0001971456Y0003438269D01*
X0001971456Y0003432832D01*
X0001970396Y0003427500D01*
X0001968315Y0003422478D01*
X0001965295Y0003417958D01*
X0001961451Y0003414113D01*
X0001956930Y0003411093D01*
X0001951908Y0003409013D01*
X0001946576Y0003407952D01*
X0001941139Y0003407952D01*
X0001935808Y0003409013D01*
X0001930785Y0003411093D01*
X0001926265Y0003414113D01*
X0001922420Y0003417958D01*
X0001919400Y0003422478D01*
X0001917320Y0003427500D01*
X0001916259Y0003432832D01*
X0001916259Y0003438269D01*
X0001917320Y0003443601D01*
X0001919400Y0003448623D01*
X0001922420Y0003453143D01*
X0001926265Y0003456988D01*
X0001930785Y0003460008D01*
X0001935808Y0003462088D01*
X0001941139Y0003463149D01*
X0001946576Y0003463149D01*
X0001951908Y0003462088D01*
X0001951908Y0003462088D01*
G37*
G36*
X0002845807Y0003559609D02*
G01*
X0002851685Y0003558439D01*
X0002858141Y0003555765D01*
X0002863950Y0003551883D01*
X0002868891Y0003546942D01*
X0002872773Y0003541133D01*
X0002875447Y0003534677D01*
X0002876810Y0003527824D01*
X0002876810Y0003520836D01*
X0002875447Y0003513983D01*
X0002872773Y0003507528D01*
X0002868891Y0003501718D01*
X0002863950Y0003496777D01*
X0002858141Y0003492895D01*
X0002851685Y0003490221D01*
X0002845807Y0003489052D01*
X0002844832Y0003488858D01*
X0002837844Y0003488858D01*
X0002836869Y0003489052D01*
X0002830991Y0003490221D01*
X0002824535Y0003492895D01*
X0002818726Y0003496777D01*
X0002813785Y0003501718D01*
X0002809903Y0003507528D01*
X0002807229Y0003513983D01*
X0002805866Y0003520836D01*
X0002805866Y0003527824D01*
X0002807229Y0003534677D01*
X0002809903Y0003541133D01*
X0002813785Y0003546942D01*
X0002818726Y0003551883D01*
X0002824535Y0003555765D01*
X0002830991Y0003558439D01*
X0002836869Y0003559609D01*
X0002837844Y0003559803D01*
X0002844832Y0003559803D01*
X0002845807Y0003559609D01*
X0002845807Y0003559609D01*
G37*
G36*
X0002245807Y0003559609D02*
G01*
X0002251685Y0003558439D01*
X0002258141Y0003555765D01*
X0002263950Y0003551883D01*
X0002268891Y0003546942D01*
X0002272773Y0003541133D01*
X0002275447Y0003534677D01*
X0002276810Y0003527824D01*
X0002276810Y0003520836D01*
X0002275447Y0003513983D01*
X0002272773Y0003507528D01*
X0002268891Y0003501718D01*
X0002263950Y0003496777D01*
X0002258141Y0003492895D01*
X0002251685Y0003490221D01*
X0002245807Y0003489052D01*
X0002244832Y0003488858D01*
X0002237844Y0003488858D01*
X0002236869Y0003489052D01*
X0002230991Y0003490221D01*
X0002224535Y0003492895D01*
X0002218726Y0003496777D01*
X0002213785Y0003501718D01*
X0002209903Y0003507528D01*
X0002207229Y0003513983D01*
X0002205866Y0003520836D01*
X0002205866Y0003527824D01*
X0002207229Y0003534677D01*
X0002209903Y0003541133D01*
X0002213785Y0003546942D01*
X0002218726Y0003551883D01*
X0002224535Y0003555765D01*
X0002230991Y0003558439D01*
X0002236869Y0003559609D01*
X0002237844Y0003559803D01*
X0002244832Y0003559803D01*
X0002245807Y0003559609D01*
X0002245807Y0003559609D01*
G37*
G36*
X0002845807Y0003659609D02*
G01*
X0002851685Y0003658439D01*
X0002858141Y0003655765D01*
X0002863950Y0003651883D01*
X0002868891Y0003646942D01*
X0002872773Y0003641133D01*
X0002875447Y0003634677D01*
X0002876810Y0003627824D01*
X0002876810Y0003620836D01*
X0002875447Y0003613983D01*
X0002872773Y0003607528D01*
X0002868891Y0003601718D01*
X0002863950Y0003596777D01*
X0002858141Y0003592895D01*
X0002851685Y0003590221D01*
X0002845807Y0003589052D01*
X0002844832Y0003588858D01*
X0002837844Y0003588858D01*
X0002836869Y0003589052D01*
X0002830991Y0003590221D01*
X0002824535Y0003592895D01*
X0002818726Y0003596777D01*
X0002813785Y0003601718D01*
X0002809903Y0003607528D01*
X0002807229Y0003613983D01*
X0002805866Y0003620836D01*
X0002805866Y0003627824D01*
X0002807229Y0003634677D01*
X0002809903Y0003641133D01*
X0002813785Y0003646942D01*
X0002818726Y0003651883D01*
X0002824535Y0003655765D01*
X0002830991Y0003658439D01*
X0002836869Y0003659609D01*
X0002837844Y0003659803D01*
X0002844832Y0003659803D01*
X0002845807Y0003659609D01*
X0002845807Y0003659609D01*
G37*
G36*
X0002245807Y0003659609D02*
G01*
X0002251685Y0003658439D01*
X0002258141Y0003655765D01*
X0002263950Y0003651883D01*
X0002268891Y0003646942D01*
X0002272773Y0003641133D01*
X0002275447Y0003634677D01*
X0002276810Y0003627824D01*
X0002276810Y0003620836D01*
X0002275447Y0003613983D01*
X0002272773Y0003607528D01*
X0002268891Y0003601718D01*
X0002263950Y0003596777D01*
X0002258141Y0003592895D01*
X0002251685Y0003590221D01*
X0002245807Y0003589052D01*
X0002244832Y0003588858D01*
X0002237844Y0003588858D01*
X0002236869Y0003589052D01*
X0002230991Y0003590221D01*
X0002224535Y0003592895D01*
X0002218726Y0003596777D01*
X0002213785Y0003601718D01*
X0002209903Y0003607528D01*
X0002207229Y0003613983D01*
X0002205866Y0003620836D01*
X0002205866Y0003627824D01*
X0002207229Y0003634677D01*
X0002209903Y0003641133D01*
X0002213785Y0003646942D01*
X0002218726Y0003651883D01*
X0002224535Y0003655765D01*
X0002230991Y0003658439D01*
X0002236869Y0003659609D01*
X0002237844Y0003659803D01*
X0002244832Y0003659803D01*
X0002245807Y0003659609D01*
X0002245807Y0003659609D01*
G37*
G36*
X0001931853Y0003752599D02*
G01*
X0001945832Y0003746809D01*
X0001945832Y0003746809D01*
X0001958412Y0003738403D01*
X0001969111Y0003727704D01*
X0001977517Y0003715123D01*
X0001977517Y0003715123D01*
X0001983307Y0003701144D01*
X0001986259Y0003686305D01*
X0001986259Y0003671174D01*
X0001983307Y0003656335D01*
X0001979417Y0003646942D01*
X0001977517Y0003642356D01*
X0001969111Y0003629775D01*
X0001958412Y0003619077D01*
X0001945832Y0003610670D01*
X0001945832Y0003610670D01*
X0001945832Y0003610670D01*
X0001931853Y0003604880D01*
X0001917014Y0003601929D01*
X0001901883Y0003601929D01*
X0001887043Y0003604880D01*
X0001873065Y0003610670D01*
X0001873065Y0003610670D01*
X0001873065Y0003610670D01*
X0001860484Y0003619077D01*
X0001849785Y0003629775D01*
X0001841379Y0003642356D01*
X0001839479Y0003646942D01*
X0001835589Y0003656335D01*
X0001832637Y0003671174D01*
X0001832637Y0003686305D01*
X0001835589Y0003701144D01*
X0001841379Y0003715123D01*
X0001841379Y0003715123D01*
X0001849785Y0003727704D01*
X0001860484Y0003738403D01*
X0001873065Y0003746809D01*
X0001873065Y0003746809D01*
X0001887043Y0003752599D01*
X0001901883Y0003755551D01*
X0001917014Y0003755551D01*
X0001931853Y0003752599D01*
X0001931853Y0003752599D01*
G37*
G36*
X0003195633Y0003752599D02*
G01*
X0003209611Y0003746809D01*
X0003209611Y0003746809D01*
X0003222192Y0003738403D01*
X0003232891Y0003727704D01*
X0003241297Y0003715123D01*
X0003241297Y0003715123D01*
X0003247087Y0003701144D01*
X0003250039Y0003686305D01*
X0003250039Y0003671174D01*
X0003247087Y0003656335D01*
X0003243197Y0003646942D01*
X0003241297Y0003642356D01*
X0003232891Y0003629775D01*
X0003222192Y0003619077D01*
X0003209611Y0003610670D01*
X0003209611Y0003610670D01*
X0003209611Y0003610670D01*
X0003195633Y0003604880D01*
X0003180793Y0003601929D01*
X0003165662Y0003601929D01*
X0003150823Y0003604880D01*
X0003136844Y0003610670D01*
X0003136844Y0003610670D01*
X0003136844Y0003610670D01*
X0003124264Y0003619077D01*
X0003113565Y0003629775D01*
X0003105159Y0003642356D01*
X0003103259Y0003646942D01*
X0003099369Y0003656335D01*
X0003096417Y0003671174D01*
X0003096417Y0003686305D01*
X0003099369Y0003701144D01*
X0003105159Y0003715123D01*
X0003105159Y0003715123D01*
X0003113565Y0003727704D01*
X0003124264Y0003738403D01*
X0003136844Y0003746809D01*
X0003136844Y0003746809D01*
X0003150823Y0003752599D01*
X0003165662Y0003755551D01*
X0003180793Y0003755551D01*
X0003195633Y0003752599D01*
X0003195633Y0003752599D01*
G37*
M02*