%MOIN*%
%OFA0B0*%
%FSLAX46Y46*%
%IPPOS*%
%LPD*%
%ADD10C,0.0047244094488188976*%
%ADD11C,0.005905511811023622*%
%ADD22C,0.0047244094488188976*%
%ADD23C,0.005905511811023622*%
%ADD24C,0.005905511811023622*%
%ADD25C,0.0047244094488188976*%
%ADD26C,0.005905511811023622*%
%ADD27C,0.0047244094488188976*%
%ADD28C,0.005905511811023622*%
%ADD29C,0.0047244094488188976*%
D10*
X0000530905Y0000483622D02*
X0000530905Y0000363543D01*
X0000593897Y0000483622D02*
X0000530905Y0000483622D01*
X0000593897Y0000363543D02*
X0000593897Y0000483622D01*
X0000554409Y0000803976D02*
X0000418582Y0000803976D01*
X0000554409Y0000803976D02*
X0000631181Y0000803976D01*
X0000554409Y0001005551D02*
X0000477637Y0001005551D01*
X0000554409Y0001005551D02*
X0000631181Y0001005551D01*
X0000779488Y0001452057D02*
X0000779488Y0001438572D01*
X0000739330Y0001452057D02*
X0000739330Y0001438572D01*
X0000438099Y0000564842D02*
X0000451585Y0000564842D01*
X0000438099Y0000524685D02*
X0000451585Y0000524685D01*
X0000663217Y0000579842D02*
X0000676703Y0000579842D01*
X0000663217Y0000539685D02*
X0000676703Y0000539685D01*
D11*
X0000517219Y0000441814D02*
X0000477849Y0000441814D01*
X0000477849Y0000432440D01*
X0000479724Y0000426816D01*
X0000483473Y0000423067D01*
X0000487223Y0000421192D01*
X0000494722Y0000419317D01*
X0000500346Y0000419317D01*
X0000507845Y0000421192D01*
X0000511595Y0000423067D01*
X0000515344Y0000426816D01*
X0000517219Y0000432440D01*
X0000517219Y0000441814D01*
X0000517219Y0000381822D02*
X0000517219Y0000404319D01*
X0000517219Y0000393070D02*
X0000477849Y0000393070D01*
X0000483473Y0000396820D01*
X0000487223Y0000400569D01*
X0000489098Y0000404319D01*
X0000584405Y0000792465D02*
X0000584405Y0000760594D01*
X0000582530Y0000756844D01*
X0000580656Y0000754970D01*
X0000576906Y0000753095D01*
X0000569407Y0000753095D01*
X0000565657Y0000754970D01*
X0000563783Y0000756844D01*
X0000561908Y0000760594D01*
X0000561908Y0000792465D01*
X0000522538Y0000753095D02*
X0000545035Y0000753095D01*
X0000533786Y0000753095D02*
X0000533786Y0000792465D01*
X0000537536Y0000786841D01*
X0000541285Y0000783091D01*
X0000545035Y0000781216D01*
X0000720920Y0001451876D02*
X0000702172Y0001465000D01*
X0000720920Y0001474373D02*
X0000681550Y0001474373D01*
X0000681550Y0001459375D01*
X0000683425Y0001455626D01*
X0000685299Y0001453751D01*
X0000689049Y0001451876D01*
X0000694673Y0001451876D01*
X0000698423Y0001453751D01*
X0000700297Y0001455626D01*
X0000702172Y0001459375D01*
X0000702172Y0001474373D01*
X0000720920Y0001414381D02*
X0000720920Y0001436878D01*
X0000720920Y0001425629D02*
X0000681550Y0001425629D01*
X0000687174Y0001429379D01*
X0000690924Y0001433129D01*
X0000692798Y0001436878D01*
X0000451404Y0000474403D02*
X0000453278Y0000472529D01*
X0000458903Y0000470654D01*
X0000462652Y0000470654D01*
X0000468277Y0000472529D01*
X0000472026Y0000476278D01*
X0000473901Y0000480028D01*
X0000475776Y0000487527D01*
X0000475776Y0000493151D01*
X0000473901Y0000500650D01*
X0000472026Y0000504400D01*
X0000468277Y0000508149D01*
X0000462652Y0000510024D01*
X0000458903Y0000510024D01*
X0000453278Y0000508149D01*
X0000451404Y0000506274D01*
X0000436405Y0000506274D02*
X0000434531Y0000508149D01*
X0000430781Y0000510024D01*
X0000421407Y0000510024D01*
X0000417658Y0000508149D01*
X0000415783Y0000506274D01*
X0000413908Y0000502525D01*
X0000413908Y0000498775D01*
X0000415783Y0000493151D01*
X0000438280Y0000470654D01*
X0000413908Y0000470654D01*
X0000676522Y0000489403D02*
X0000678396Y0000487529D01*
X0000684021Y0000485654D01*
X0000687770Y0000485654D01*
X0000693395Y0000487529D01*
X0000697144Y0000491278D01*
X0000699019Y0000495028D01*
X0000700894Y0000502527D01*
X0000700894Y0000508151D01*
X0000699019Y0000515650D01*
X0000697144Y0000519400D01*
X0000693395Y0000523149D01*
X0000687770Y0000525024D01*
X0000684021Y0000525024D01*
X0000678396Y0000523149D01*
X0000676522Y0000521274D01*
X0000639026Y0000485654D02*
X0000661524Y0000485654D01*
X0000650275Y0000485654D02*
X0000650275Y0000525024D01*
X0000654025Y0000519400D01*
X0000657774Y0000515650D01*
X0000661524Y0000513775D01*
G04 next file*
G04 #@! TF.GenerationSoftware,KiCad,Pcbnew,(5.1.2)-1*
G04 #@! TF.CreationDate,2020-12-31T00:30:43+09:00*
G04 #@! TF.ProjectId,M5Atom_CAN_RJ45,4d354174-6f6d-45f4-9341-4e5f524a3435,rev?*
G04 #@! TF.SameCoordinates,Original*
G04 #@! TF.FileFunction,Legend,Bot*
G04 #@! TF.FilePolarity,Positive*
G04 Gerber Fmt 4.6, Leading zero omitted, Abs format (unit mm)*
G04 Created by KiCad (PCBNEW (5.1.2)-1) date 2020-12-31 00:30:43*
G04 APERTURE LIST*
G04 APERTURE END LIST*
D22*
X0000530905Y0002393070D02*
X0000530905Y0002272992D01*
X0000593897Y0002393070D02*
X0000530905Y0002393070D01*
X0000593897Y0002272992D02*
X0000593897Y0002393070D01*
X0000554409Y0002713425D02*
X0000418582Y0002713425D01*
X0000554409Y0002713425D02*
X0000631181Y0002713425D01*
X0000554409Y0002914999D02*
X0000477637Y0002914999D01*
X0000554409Y0002914999D02*
X0000631181Y0002914999D01*
X0000779488Y0003361506D02*
X0000779488Y0003348020D01*
X0000739330Y0003361506D02*
X0000739330Y0003348020D01*
X0000438099Y0002474291D02*
X0000451585Y0002474291D01*
X0000438099Y0002434133D02*
X0000451585Y0002434133D01*
X0000663217Y0002489291D02*
X0000676703Y0002489291D01*
X0000663217Y0002449133D02*
X0000676703Y0002449133D01*
D23*
X0000517219Y0002351263D02*
X0000477849Y0002351263D01*
X0000477849Y0002341889D01*
X0000479724Y0002336265D01*
X0000483473Y0002332515D01*
X0000487223Y0002330641D01*
X0000494722Y0002328766D01*
X0000500346Y0002328766D01*
X0000507845Y0002330641D01*
X0000511595Y0002332515D01*
X0000515344Y0002336265D01*
X0000517219Y0002341889D01*
X0000517219Y0002351263D01*
X0000517219Y0002291271D02*
X0000517219Y0002313768D01*
X0000517219Y0002302519D02*
X0000477849Y0002302519D01*
X0000483473Y0002306269D01*
X0000487223Y0002310018D01*
X0000489098Y0002313768D01*
X0000584405Y0002701914D02*
X0000584405Y0002670043D01*
X0000582530Y0002666293D01*
X0000580656Y0002664418D01*
X0000576906Y0002662544D01*
X0000569407Y0002662544D01*
X0000565657Y0002664418D01*
X0000563783Y0002666293D01*
X0000561908Y0002670043D01*
X0000561908Y0002701914D01*
X0000522538Y0002662544D02*
X0000545035Y0002662544D01*
X0000533786Y0002662544D02*
X0000533786Y0002701914D01*
X0000537536Y0002696289D01*
X0000541285Y0002692540D01*
X0000545035Y0002690665D01*
X0000720920Y0003361325D02*
X0000702172Y0003374448D01*
X0000720920Y0003383822D02*
X0000681550Y0003383822D01*
X0000681550Y0003368824D01*
X0000683425Y0003365074D01*
X0000685299Y0003363200D01*
X0000689049Y0003361325D01*
X0000694673Y0003361325D01*
X0000698423Y0003363200D01*
X0000700297Y0003365074D01*
X0000702172Y0003368824D01*
X0000702172Y0003383822D01*
X0000720920Y0003323830D02*
X0000720920Y0003346327D01*
X0000720920Y0003335078D02*
X0000681550Y0003335078D01*
X0000687174Y0003338828D01*
X0000690924Y0003342577D01*
X0000692798Y0003346327D01*
X0000451404Y0002383852D02*
X0000453278Y0002381977D01*
X0000458903Y0002380103D01*
X0000462652Y0002380103D01*
X0000468277Y0002381977D01*
X0000472026Y0002385727D01*
X0000473901Y0002389476D01*
X0000475776Y0002396975D01*
X0000475776Y0002402600D01*
X0000473901Y0002410099D01*
X0000472026Y0002413848D01*
X0000468277Y0002417598D01*
X0000462652Y0002419473D01*
X0000458903Y0002419473D01*
X0000453278Y0002417598D01*
X0000451404Y0002415723D01*
X0000436405Y0002415723D02*
X0000434531Y0002417598D01*
X0000430781Y0002419473D01*
X0000421407Y0002419473D01*
X0000417658Y0002417598D01*
X0000415783Y0002415723D01*
X0000413908Y0002411974D01*
X0000413908Y0002408224D01*
X0000415783Y0002402600D01*
X0000438280Y0002380103D01*
X0000413908Y0002380103D01*
X0000676522Y0002398852D02*
X0000678396Y0002396977D01*
X0000684021Y0002395103D01*
X0000687770Y0002395103D01*
X0000693395Y0002396977D01*
X0000697144Y0002400727D01*
X0000699019Y0002404476D01*
X0000700894Y0002411975D01*
X0000700894Y0002417600D01*
X0000699019Y0002425099D01*
X0000697144Y0002428848D01*
X0000693395Y0002432598D01*
X0000687770Y0002434473D01*
X0000684021Y0002434473D01*
X0000678396Y0002432598D01*
X0000676522Y0002430723D01*
X0000639026Y0002395103D02*
X0000661524Y0002395103D01*
X0000650275Y0002395103D02*
X0000650275Y0002434473D01*
X0000654025Y0002428848D01*
X0000657774Y0002425099D01*
X0000661524Y0002423224D01*
G04 next file*
G04 #@! TF.GenerationSoftware,KiCad,Pcbnew,(5.1.2)-1*
G04 #@! TF.CreationDate,2020-12-30T14:45:37+09:00*
G04 #@! TF.ProjectId,M5Atom_CAN,4d354174-6f6d-45f4-9341-4e2e6b696361,rev?*
G04 #@! TF.SameCoordinates,Original*
G04 #@! TF.FileFunction,Legend,Bot*
G04 #@! TF.FilePolarity,Positive*
G04 Gerber Fmt 4.6, Leading zero omitted, Abs format (unit mm)*
G04 Created by KiCad (PCBNEW (5.1.2)-1) date 2020-12-30 14:45:37*
G04 APERTURE LIST*
G04 APERTURE END LIST*
D24*
X0002906026Y0000196881D02*
X0002906026Y0000226877D01*
X0002891028Y0000211879D02*
X0002921024Y0000211879D01*
X0002930398Y0000264372D02*
X0002930398Y0000245625D01*
X0002911650Y0000243750D01*
X0002913525Y0000245625D01*
X0002915400Y0000249374D01*
X0002915400Y0000258748D01*
X0002913525Y0000262498D01*
X0002911650Y0000264372D01*
X0002907901Y0000266247D01*
X0002898527Y0000266247D01*
X0002894777Y0000264372D01*
X0002892902Y0000262498D01*
X0002891028Y0000258748D01*
X0002891028Y0000249374D01*
X0002892902Y0000245625D01*
X0002894777Y0000243750D01*
X0002930398Y0000277496D02*
X0002891028Y0000290619D01*
X0002930398Y0000303742D01*
X0002688523Y0000207503D02*
X0002690398Y0000203754D01*
X0002690398Y0000198129D01*
X0002688523Y0000192505D01*
X0002684773Y0000188756D01*
X0002681024Y0000186881D01*
X0002673525Y0000185006D01*
X0002667901Y0000185006D01*
X0002660402Y0000186881D01*
X0002656652Y0000188756D01*
X0002652902Y0000192505D01*
X0002651028Y0000198129D01*
X0002651028Y0000201879D01*
X0002652902Y0000207503D01*
X0002654777Y0000209378D01*
X0002667901Y0000209378D01*
X0002667901Y0000201879D01*
X0002651028Y0000226251D02*
X0002690398Y0000226251D01*
X0002651028Y0000248748D01*
X0002690398Y0000248748D01*
X0002651028Y0000267496D02*
X0002690398Y0000267496D01*
X0002690398Y0000276870D01*
X0002688523Y0000282494D01*
X0002684773Y0000286243D01*
X0002681024Y0000288118D01*
X0002673525Y0000289993D01*
X0002667901Y0000289993D01*
X0002660402Y0000288118D01*
X0002656652Y0000286243D01*
X0002652902Y0000282494D01*
X0002651028Y0000276870D01*
X0002651028Y0000267496D01*
X0002729777Y0000216257D02*
X0002727902Y0000214382D01*
X0002726028Y0000208757D01*
X0002726028Y0000205008D01*
X0002727902Y0000199384D01*
X0002731652Y0000195634D01*
X0002735402Y0000193759D01*
X0002742901Y0000191885D01*
X0002748525Y0000191885D01*
X0002756024Y0000193759D01*
X0002759773Y0000195634D01*
X0002763523Y0000199384D01*
X0002765398Y0000205008D01*
X0002765398Y0000208757D01*
X0002763523Y0000214382D01*
X0002761648Y0000216257D01*
X0002737276Y0000231255D02*
X0002737276Y0000250002D01*
X0002726028Y0000227505D02*
X0002765398Y0000240628D01*
X0002726028Y0000253752D01*
X0002726028Y0000266875D02*
X0002765398Y0000266875D01*
X0002726028Y0000289372D01*
X0002765398Y0000289372D01*
X0002722278Y0000298746D02*
X0002722278Y0000328742D01*
X0002726028Y0000356864D02*
X0002726028Y0000338116D01*
X0002765398Y0000338116D01*
X0002812277Y0000211570D02*
X0002810402Y0000209695D01*
X0002808528Y0000204071D01*
X0002808528Y0000200321D01*
X0002810402Y0000194697D01*
X0002814152Y0000190947D01*
X0002817902Y0000189072D01*
X0002825401Y0000187198D01*
X0002831025Y0000187198D01*
X0002838524Y0000189072D01*
X0002842273Y0000190947D01*
X0002846023Y0000194697D01*
X0002847898Y0000200321D01*
X0002847898Y0000204071D01*
X0002846023Y0000209695D01*
X0002844148Y0000211570D01*
X0002819776Y0000226568D02*
X0002819776Y0000245315D01*
X0002808528Y0000222818D02*
X0002847898Y0000235942D01*
X0002808528Y0000249065D01*
X0002808528Y0000262188D02*
X0002847898Y0000262188D01*
X0002808528Y0000284685D01*
X0002847898Y0000284685D01*
X0002804778Y0000294059D02*
X0002804778Y0000324056D01*
X0002808528Y0000333429D02*
X0002847898Y0000333429D01*
X0002829150Y0000333429D02*
X0002829150Y0000355927D01*
X0002808528Y0000355927D02*
X0002847898Y0000355927D01*
X0002181023Y0000210003D02*
X0002182898Y0000206254D01*
X0002182898Y0000200629D01*
X0002181023Y0000195005D01*
X0002177273Y0000191256D01*
X0002173524Y0000189381D01*
X0002166025Y0000187506D01*
X0002160401Y0000187506D01*
X0002152902Y0000189381D01*
X0002149152Y0000191256D01*
X0002145402Y0000195005D01*
X0002143528Y0000200629D01*
X0002143528Y0000204379D01*
X0002145402Y0000210003D01*
X0002147277Y0000211878D01*
X0002160401Y0000211878D01*
X0002160401Y0000204379D01*
X0002143528Y0000228751D02*
X0002182898Y0000228751D01*
X0002143528Y0000251248D01*
X0002182898Y0000251248D01*
X0002143528Y0000269996D02*
X0002182898Y0000269996D01*
X0002182898Y0000279370D01*
X0002181023Y0000284994D01*
X0002177273Y0000288743D01*
X0002173524Y0000290618D01*
X0002166025Y0000292493D01*
X0002160401Y0000292493D01*
X0002152902Y0000290618D01*
X0002149152Y0000288743D01*
X0002145402Y0000284994D01*
X0002143528Y0000279370D01*
X0002143528Y0000269996D01*
X0002222277Y0000218757D02*
X0002220402Y0000216882D01*
X0002218528Y0000211257D01*
X0002218528Y0000207508D01*
X0002220402Y0000201884D01*
X0002224152Y0000198134D01*
X0002227902Y0000196259D01*
X0002235401Y0000194385D01*
X0002241025Y0000194385D01*
X0002248524Y0000196259D01*
X0002252273Y0000198134D01*
X0002256023Y0000201884D01*
X0002257898Y0000207508D01*
X0002257898Y0000211257D01*
X0002256023Y0000216882D01*
X0002254148Y0000218757D01*
X0002229776Y0000233755D02*
X0002229776Y0000252502D01*
X0002218528Y0000230005D02*
X0002257898Y0000243129D01*
X0002218528Y0000256252D01*
X0002218528Y0000269375D02*
X0002257898Y0000269375D01*
X0002218528Y0000291872D01*
X0002257898Y0000291872D01*
X0002214778Y0000301246D02*
X0002214778Y0000331242D01*
X0002218528Y0000359364D02*
X0002218528Y0000340616D01*
X0002257898Y0000340616D01*
X0002304777Y0000214070D02*
X0002302902Y0000212195D01*
X0002301028Y0000206571D01*
X0002301028Y0000202821D01*
X0002302902Y0000197197D01*
X0002306652Y0000193447D01*
X0002310402Y0000191572D01*
X0002317901Y0000189698D01*
X0002323525Y0000189698D01*
X0002331024Y0000191572D01*
X0002334773Y0000193447D01*
X0002338523Y0000197197D01*
X0002340398Y0000202821D01*
X0002340398Y0000206571D01*
X0002338523Y0000212195D01*
X0002336648Y0000214070D01*
X0002312276Y0000229068D02*
X0002312276Y0000247815D01*
X0002301028Y0000225318D02*
X0002340398Y0000238442D01*
X0002301028Y0000251565D01*
X0002301028Y0000264688D02*
X0002340398Y0000264688D01*
X0002301028Y0000287185D01*
X0002340398Y0000287185D01*
X0002297278Y0000296559D02*
X0002297278Y0000326556D01*
X0002301028Y0000335929D02*
X0002340398Y0000335929D01*
X0002321650Y0000335929D02*
X0002321650Y0000358427D01*
X0002301028Y0000358427D02*
X0002340398Y0000358427D01*
X0002398526Y0000199381D02*
X0002398526Y0000229377D01*
X0002383528Y0000214379D02*
X0002413524Y0000214379D01*
X0002422898Y0000266872D02*
X0002422898Y0000248125D01*
X0002404150Y0000246250D01*
X0002406025Y0000248125D01*
X0002407900Y0000251874D01*
X0002407900Y0000261248D01*
X0002406025Y0000264998D01*
X0002404150Y0000266872D01*
X0002400401Y0000268747D01*
X0002391027Y0000268747D01*
X0002387277Y0000266872D01*
X0002385402Y0000264998D01*
X0002383528Y0000261248D01*
X0002383528Y0000251874D01*
X0002385402Y0000248125D01*
X0002387277Y0000246250D01*
X0002422898Y0000279996D02*
X0002383528Y0000293119D01*
X0002422898Y0000306242D01*
X0002126957Y0000434687D02*
X0002096960Y0000434687D01*
X0002111959Y0000419689D02*
X0002111959Y0000449685D01*
X0002059465Y0000459059D02*
X0002078213Y0000459059D01*
X0002080088Y0000440312D01*
X0002078213Y0000442186D01*
X0002074463Y0000444061D01*
X0002065089Y0000444061D01*
X0002061340Y0000442186D01*
X0002059465Y0000440312D01*
X0002057590Y0000436562D01*
X0002057590Y0000427188D01*
X0002059465Y0000423439D01*
X0002061340Y0000421564D01*
X0002065089Y0000419689D01*
X0002074463Y0000419689D01*
X0002078213Y0000421564D01*
X0002080088Y0000423439D01*
X0002046342Y0000459059D02*
X0002033218Y0000419689D01*
X0002020095Y0000459059D01*
X0002121956Y0000502189D02*
X0002121956Y0000541559D01*
X0002095709Y0000541559D02*
X0002088210Y0000541559D01*
X0002084460Y0000539685D01*
X0002080711Y0000535935D01*
X0002078836Y0000528436D01*
X0002078836Y0000515313D01*
X0002080711Y0000507814D01*
X0002084460Y0000504064D01*
X0002088210Y0000502189D01*
X0002095709Y0000502189D01*
X0002099459Y0000504064D01*
X0002103208Y0000507814D01*
X0002105083Y0000515313D01*
X0002105083Y0000528436D01*
X0002103208Y0000535935D01*
X0002099459Y0000539685D01*
X0002095709Y0000541559D01*
X0002063838Y0000537810D02*
X0002061963Y0000539685D01*
X0002058214Y0000541559D01*
X0002048840Y0000541559D01*
X0002045090Y0000539685D01*
X0002043216Y0000537810D01*
X0002041341Y0000534060D01*
X0002041341Y0000530311D01*
X0002043216Y0000524686D01*
X0002065713Y0000502189D01*
X0002041341Y0000502189D01*
X0002026343Y0000537810D02*
X0002024468Y0000539685D01*
X0002020718Y0000541559D01*
X0002011345Y0000541559D01*
X0002007595Y0000539685D01*
X0002005720Y0000537810D01*
X0002003845Y0000534060D01*
X0002003845Y0000530311D01*
X0002005720Y0000524686D01*
X0002028217Y0000502189D01*
X0002003845Y0000502189D01*
X0002124456Y0000584689D02*
X0002124456Y0000624059D01*
X0002098209Y0000624059D02*
X0002090710Y0000624059D01*
X0002086960Y0000622185D01*
X0002083211Y0000618435D01*
X0002081336Y0000610936D01*
X0002081336Y0000597813D01*
X0002083211Y0000590314D01*
X0002086960Y0000586564D01*
X0002090710Y0000584689D01*
X0002098209Y0000584689D01*
X0002101959Y0000586564D01*
X0002105708Y0000590314D01*
X0002107583Y0000597813D01*
X0002107583Y0000610936D01*
X0002105708Y0000618435D01*
X0002101959Y0000622185D01*
X0002098209Y0000624059D01*
X0002043841Y0000584689D02*
X0002066338Y0000584689D01*
X0002055089Y0000584689D02*
X0002055089Y0000624059D01*
X0002058839Y0000618435D01*
X0002062588Y0000614685D01*
X0002066338Y0000612811D01*
X0002025093Y0000584689D02*
X0002017594Y0000584689D01*
X0002013845Y0000586564D01*
X0002011970Y0000588439D01*
X0002008220Y0000594063D01*
X0002006345Y0000601562D01*
X0002006345Y0000616560D01*
X0002008220Y0000620310D01*
X0002010095Y0000622185D01*
X0002013845Y0000624059D01*
X0002021344Y0000624059D01*
X0002025093Y0000622185D01*
X0002026968Y0000620310D01*
X0002028843Y0000616560D01*
X0002028843Y0000607186D01*
X0002026968Y0000603437D01*
X0002025093Y0000601562D01*
X0002021344Y0000599687D01*
X0002013845Y0000599687D01*
X0002010095Y0000601562D01*
X0002008220Y0000603437D01*
X0002006345Y0000607186D01*
X0002124456Y0000659689D02*
X0002124456Y0000699059D01*
X0002098209Y0000699059D02*
X0002090710Y0000699059D01*
X0002086960Y0000697185D01*
X0002083211Y0000693435D01*
X0002081336Y0000685936D01*
X0002081336Y0000672813D01*
X0002083211Y0000665314D01*
X0002086960Y0000661564D01*
X0002090710Y0000659689D01*
X0002098209Y0000659689D01*
X0002101959Y0000661564D01*
X0002105708Y0000665314D01*
X0002107583Y0000672813D01*
X0002107583Y0000685936D01*
X0002105708Y0000693435D01*
X0002101959Y0000697185D01*
X0002098209Y0000699059D01*
X0002066338Y0000695310D02*
X0002064463Y0000697185D01*
X0002060714Y0000699059D01*
X0002051340Y0000699059D01*
X0002047590Y0000697185D01*
X0002045716Y0000695310D01*
X0002043841Y0000691560D01*
X0002043841Y0000687811D01*
X0002045716Y0000682186D01*
X0002068213Y0000659689D01*
X0002043841Y0000659689D01*
X0002030717Y0000699059D02*
X0002006345Y0000699059D01*
X0002019469Y0000684061D01*
X0002013845Y0000684061D01*
X0002010095Y0000682186D01*
X0002008220Y0000680312D01*
X0002006345Y0000676562D01*
X0002006345Y0000667188D01*
X0002008220Y0000663439D01*
X0002010095Y0000661564D01*
X0002013845Y0000659689D01*
X0002025093Y0000659689D01*
X0002028843Y0000661564D01*
X0002030717Y0000663439D01*
X0002126956Y0000739689D02*
X0002126956Y0000779059D01*
X0002100709Y0000779059D02*
X0002093210Y0000779059D01*
X0002089460Y0000777185D01*
X0002085711Y0000773435D01*
X0002083836Y0000765936D01*
X0002083836Y0000752813D01*
X0002085711Y0000745314D01*
X0002089460Y0000741564D01*
X0002093210Y0000739689D01*
X0002100709Y0000739689D01*
X0002104459Y0000741564D01*
X0002108208Y0000745314D01*
X0002110083Y0000752813D01*
X0002110083Y0000765936D01*
X0002108208Y0000773435D01*
X0002104459Y0000777185D01*
X0002100709Y0000779059D01*
X0002070713Y0000779059D02*
X0002046341Y0000779059D01*
X0002059464Y0000764061D01*
X0002053840Y0000764061D01*
X0002050090Y0000762186D01*
X0002048216Y0000760312D01*
X0002046341Y0000756562D01*
X0002046341Y0000747188D01*
X0002048216Y0000743439D01*
X0002050090Y0000741564D01*
X0002053840Y0000739689D01*
X0002065088Y0000739689D01*
X0002068838Y0000741564D01*
X0002070713Y0000743439D01*
X0002033217Y0000779059D02*
X0002008845Y0000779059D01*
X0002021969Y0000764061D01*
X0002016345Y0000764061D01*
X0002012595Y0000762186D01*
X0002010720Y0000760312D01*
X0002008845Y0000756562D01*
X0002008845Y0000747188D01*
X0002010720Y0000743439D01*
X0002012595Y0000741564D01*
X0002016345Y0000739689D01*
X0002027593Y0000739689D01*
X0002031343Y0000741564D01*
X0002033217Y0000743439D01*
X0002096334Y0000864685D02*
X0002100084Y0000866559D01*
X0002105708Y0000866559D01*
X0002111332Y0000864685D01*
X0002115082Y0000860935D01*
X0002116957Y0000857185D01*
X0002118831Y0000849686D01*
X0002118831Y0000844062D01*
X0002116957Y0000836563D01*
X0002115082Y0000832814D01*
X0002111332Y0000829064D01*
X0002105708Y0000827189D01*
X0002101959Y0000827189D01*
X0002096334Y0000829064D01*
X0002094459Y0000830939D01*
X0002094459Y0000844062D01*
X0002101959Y0000844062D01*
X0002077587Y0000827189D02*
X0002077587Y0000866559D01*
X0002055089Y0000827189D01*
X0002055089Y0000866559D01*
X0002036342Y0000827189D02*
X0002036342Y0000866559D01*
X0002026968Y0000866559D01*
X0002021344Y0000864685D01*
X0002017594Y0000860935D01*
X0002015719Y0000857185D01*
X0002013845Y0000849686D01*
X0002013845Y0000844062D01*
X0002015719Y0000836563D01*
X0002017594Y0000832814D01*
X0002021344Y0000829064D01*
X0002026968Y0000827189D01*
X0002036342Y0000827189D01*
D25*
X0002151850Y0000565275D02*
X0002151850Y0000445196D01*
X0002214842Y0000565275D02*
X0002151850Y0000565275D01*
X0002214842Y0000445196D02*
X0002214842Y0000565275D01*
X0003048897Y0000611191D02*
X0003048897Y0000597705D01*
X0003008740Y0000611191D02*
X0003008740Y0000597705D01*
X0002538818Y0000494212D02*
X0002402992Y0000494212D01*
X0002538818Y0000494212D02*
X0002615590Y0000494212D01*
X0002538818Y0000695787D02*
X0002462047Y0000695787D01*
X0002538818Y0000695787D02*
X0002615590Y0000695787D01*
X0002658081Y0000784921D02*
X0002644595Y0000784921D01*
X0002658081Y0000825078D02*
X0002644595Y0000825078D01*
X0002414044Y0000827559D02*
X0002427530Y0000827559D01*
X0002414044Y0000787401D02*
X0002427530Y0000787401D01*
D24*
X0002268148Y0000496058D02*
X0002228778Y0000496058D01*
X0002228778Y0000486685D01*
X0002230653Y0000481060D01*
X0002234402Y0000477311D01*
X0002238152Y0000475436D01*
X0002245651Y0000473561D01*
X0002251275Y0000473561D01*
X0002258774Y0000475436D01*
X0002262524Y0000477311D01*
X0002266273Y0000481060D01*
X0002268148Y0000486685D01*
X0002268148Y0000496058D01*
X0002268148Y0000436066D02*
X0002268148Y0000458563D01*
X0002268148Y0000447314D02*
X0002228778Y0000447314D01*
X0002234402Y0000451064D01*
X0002238152Y0000454814D01*
X0002240027Y0000458563D01*
X0002990329Y0000611010D02*
X0002971582Y0000624133D01*
X0002990329Y0000633507D02*
X0002950959Y0000633507D01*
X0002950959Y0000618509D01*
X0002952834Y0000614760D01*
X0002954709Y0000612885D01*
X0002958458Y0000611010D01*
X0002964083Y0000611010D01*
X0002967832Y0000612885D01*
X0002969707Y0000614760D01*
X0002971582Y0000618509D01*
X0002971582Y0000633507D01*
X0002990329Y0000573515D02*
X0002990329Y0000596012D01*
X0002990329Y0000584763D02*
X0002950959Y0000584763D01*
X0002956584Y0000588513D01*
X0002960333Y0000592262D01*
X0002962208Y0000596012D01*
X0002568815Y0000482701D02*
X0002568815Y0000450830D01*
X0002566940Y0000447080D01*
X0002565065Y0000445206D01*
X0002561315Y0000443331D01*
X0002553816Y0000443331D01*
X0002550067Y0000445206D01*
X0002548192Y0000447080D01*
X0002546317Y0000450830D01*
X0002546317Y0000482701D01*
X0002506947Y0000443331D02*
X0002529444Y0000443331D01*
X0002518196Y0000443331D02*
X0002518196Y0000482701D01*
X0002521945Y0000477077D01*
X0002525695Y0000473327D01*
X0002529444Y0000471452D01*
X0002657900Y0000735919D02*
X0002659774Y0000734044D01*
X0002665399Y0000732170D01*
X0002669148Y0000732170D01*
X0002674773Y0000734044D01*
X0002678522Y0000737794D01*
X0002680397Y0000741543D01*
X0002682272Y0000749042D01*
X0002682272Y0000754667D01*
X0002680397Y0000762166D01*
X0002678522Y0000765915D01*
X0002674773Y0000769665D01*
X0002669148Y0000771540D01*
X0002665399Y0000771540D01*
X0002659774Y0000769665D01*
X0002657900Y0000767790D01*
X0002620404Y0000732170D02*
X0002642902Y0000732170D01*
X0002631653Y0000732170D02*
X0002631653Y0000771540D01*
X0002635402Y0000765915D01*
X0002639152Y0000762166D01*
X0002642902Y0000760291D01*
X0002427348Y0000737120D02*
X0002429223Y0000735245D01*
X0002434848Y0000733370D01*
X0002438597Y0000733370D01*
X0002444221Y0000735245D01*
X0002447971Y0000738995D01*
X0002449846Y0000742744D01*
X0002451720Y0000750243D01*
X0002451720Y0000755867D01*
X0002449846Y0000763367D01*
X0002447971Y0000767116D01*
X0002444221Y0000770866D01*
X0002438597Y0000772740D01*
X0002434848Y0000772740D01*
X0002429223Y0000770866D01*
X0002427348Y0000768991D01*
X0002412350Y0000768991D02*
X0002410476Y0000770866D01*
X0002406726Y0000772740D01*
X0002397352Y0000772740D01*
X0002393603Y0000770866D01*
X0002391728Y0000768991D01*
X0002389853Y0000765241D01*
X0002389853Y0000761492D01*
X0002391728Y0000755867D01*
X0002414225Y0000733370D01*
X0002389853Y0000733370D01*
G04 next file*
G04 #@! TF.GenerationSoftware,KiCad,Pcbnew,(5.1.2)-1*
G04 #@! TF.CreationDate,2020-12-30T14:45:37+09:00*
G04 #@! TF.ProjectId,M5Atom_CAN,4d354174-6f6d-45f4-9341-4e2e6b696361,rev?*
G04 #@! TF.SameCoordinates,Original*
G04 #@! TF.FileFunction,Legend,Bot*
G04 #@! TF.FilePolarity,Positive*
G04 Gerber Fmt 4.6, Leading zero omitted, Abs format (unit mm)*
G04 Created by KiCad (PCBNEW (5.1.2)-1) date 2020-12-30 14:45:37*
G04 APERTURE LIST*
G04 APERTURE END LIST*
D26*
X0002906026Y0001495306D02*
X0002906026Y0001525302D01*
X0002891028Y0001510304D02*
X0002921024Y0001510304D01*
X0002930398Y0001562798D02*
X0002930398Y0001544050D01*
X0002911650Y0001542175D01*
X0002913525Y0001544050D01*
X0002915400Y0001547799D01*
X0002915400Y0001557173D01*
X0002913525Y0001560923D01*
X0002911650Y0001562798D01*
X0002907901Y0001564672D01*
X0002898527Y0001564672D01*
X0002894777Y0001562798D01*
X0002892902Y0001560923D01*
X0002891028Y0001557173D01*
X0002891028Y0001547799D01*
X0002892902Y0001544050D01*
X0002894777Y0001542175D01*
X0002930398Y0001575921D02*
X0002891028Y0001589044D01*
X0002930398Y0001602168D01*
X0002688523Y0001505928D02*
X0002690398Y0001502179D01*
X0002690398Y0001496555D01*
X0002688523Y0001490930D01*
X0002684773Y0001487181D01*
X0002681024Y0001485306D01*
X0002673525Y0001483431D01*
X0002667901Y0001483431D01*
X0002660402Y0001485306D01*
X0002656652Y0001487181D01*
X0002652902Y0001490930D01*
X0002651028Y0001496555D01*
X0002651028Y0001500304D01*
X0002652902Y0001505928D01*
X0002654777Y0001507803D01*
X0002667901Y0001507803D01*
X0002667901Y0001500304D01*
X0002651028Y0001524676D02*
X0002690398Y0001524676D01*
X0002651028Y0001547173D01*
X0002690398Y0001547173D01*
X0002651028Y0001565921D02*
X0002690398Y0001565921D01*
X0002690398Y0001575295D01*
X0002688523Y0001580919D01*
X0002684773Y0001584669D01*
X0002681024Y0001586543D01*
X0002673525Y0001588418D01*
X0002667901Y0001588418D01*
X0002660402Y0001586543D01*
X0002656652Y0001584669D01*
X0002652902Y0001580919D01*
X0002651028Y0001575295D01*
X0002651028Y0001565921D01*
X0002729777Y0001514682D02*
X0002727902Y0001512807D01*
X0002726028Y0001507183D01*
X0002726028Y0001503433D01*
X0002727902Y0001497809D01*
X0002731652Y0001494059D01*
X0002735402Y0001492184D01*
X0002742901Y0001490310D01*
X0002748525Y0001490310D01*
X0002756024Y0001492184D01*
X0002759773Y0001494059D01*
X0002763523Y0001497809D01*
X0002765398Y0001503433D01*
X0002765398Y0001507183D01*
X0002763523Y0001512807D01*
X0002761648Y0001514682D01*
X0002737276Y0001529680D02*
X0002737276Y0001548427D01*
X0002726028Y0001525930D02*
X0002765398Y0001539054D01*
X0002726028Y0001552177D01*
X0002726028Y0001565300D02*
X0002765398Y0001565300D01*
X0002726028Y0001587798D01*
X0002765398Y0001587798D01*
X0002722278Y0001597171D02*
X0002722278Y0001627168D01*
X0002726028Y0001655289D02*
X0002726028Y0001636541D01*
X0002765398Y0001636541D01*
X0002812277Y0001509995D02*
X0002810402Y0001508120D01*
X0002808528Y0001502496D01*
X0002808528Y0001498746D01*
X0002810402Y0001493122D01*
X0002814152Y0001489372D01*
X0002817902Y0001487498D01*
X0002825401Y0001485623D01*
X0002831025Y0001485623D01*
X0002838524Y0001487498D01*
X0002842273Y0001489372D01*
X0002846023Y0001493122D01*
X0002847898Y0001498746D01*
X0002847898Y0001502496D01*
X0002846023Y0001508120D01*
X0002844148Y0001509995D01*
X0002819776Y0001524993D02*
X0002819776Y0001543741D01*
X0002808528Y0001521243D02*
X0002847898Y0001534367D01*
X0002808528Y0001547490D01*
X0002808528Y0001560613D02*
X0002847898Y0001560613D01*
X0002808528Y0001583111D01*
X0002847898Y0001583111D01*
X0002804778Y0001592484D02*
X0002804778Y0001622481D01*
X0002808528Y0001631855D02*
X0002847898Y0001631855D01*
X0002829150Y0001631855D02*
X0002829150Y0001654352D01*
X0002808528Y0001654352D02*
X0002847898Y0001654352D01*
X0002181023Y0001508428D02*
X0002182898Y0001504679D01*
X0002182898Y0001499055D01*
X0002181023Y0001493430D01*
X0002177273Y0001489681D01*
X0002173524Y0001487806D01*
X0002166025Y0001485931D01*
X0002160401Y0001485931D01*
X0002152902Y0001487806D01*
X0002149152Y0001489681D01*
X0002145402Y0001493430D01*
X0002143528Y0001499055D01*
X0002143528Y0001502804D01*
X0002145402Y0001508428D01*
X0002147277Y0001510303D01*
X0002160401Y0001510303D01*
X0002160401Y0001502804D01*
X0002143528Y0001527176D02*
X0002182898Y0001527176D01*
X0002143528Y0001549673D01*
X0002182898Y0001549673D01*
X0002143528Y0001568421D02*
X0002182898Y0001568421D01*
X0002182898Y0001577795D01*
X0002181023Y0001583419D01*
X0002177273Y0001587169D01*
X0002173524Y0001589043D01*
X0002166025Y0001590918D01*
X0002160401Y0001590918D01*
X0002152902Y0001589043D01*
X0002149152Y0001587169D01*
X0002145402Y0001583419D01*
X0002143528Y0001577795D01*
X0002143528Y0001568421D01*
X0002222277Y0001517182D02*
X0002220402Y0001515307D01*
X0002218528Y0001509683D01*
X0002218528Y0001505933D01*
X0002220402Y0001500309D01*
X0002224152Y0001496559D01*
X0002227902Y0001494684D01*
X0002235401Y0001492810D01*
X0002241025Y0001492810D01*
X0002248524Y0001494684D01*
X0002252273Y0001496559D01*
X0002256023Y0001500309D01*
X0002257898Y0001505933D01*
X0002257898Y0001509683D01*
X0002256023Y0001515307D01*
X0002254148Y0001517182D01*
X0002229776Y0001532180D02*
X0002229776Y0001550927D01*
X0002218528Y0001528430D02*
X0002257898Y0001541554D01*
X0002218528Y0001554677D01*
X0002218528Y0001567800D02*
X0002257898Y0001567800D01*
X0002218528Y0001590298D01*
X0002257898Y0001590298D01*
X0002214778Y0001599671D02*
X0002214778Y0001629668D01*
X0002218528Y0001657789D02*
X0002218528Y0001639041D01*
X0002257898Y0001639041D01*
X0002304777Y0001512495D02*
X0002302902Y0001510620D01*
X0002301028Y0001504996D01*
X0002301028Y0001501246D01*
X0002302902Y0001495622D01*
X0002306652Y0001491872D01*
X0002310402Y0001489998D01*
X0002317901Y0001488123D01*
X0002323525Y0001488123D01*
X0002331024Y0001489998D01*
X0002334773Y0001491872D01*
X0002338523Y0001495622D01*
X0002340398Y0001501246D01*
X0002340398Y0001504996D01*
X0002338523Y0001510620D01*
X0002336648Y0001512495D01*
X0002312276Y0001527493D02*
X0002312276Y0001546241D01*
X0002301028Y0001523743D02*
X0002340398Y0001536867D01*
X0002301028Y0001549990D01*
X0002301028Y0001563113D02*
X0002340398Y0001563113D01*
X0002301028Y0001585611D01*
X0002340398Y0001585611D01*
X0002297278Y0001594984D02*
X0002297278Y0001624981D01*
X0002301028Y0001634355D02*
X0002340398Y0001634355D01*
X0002321650Y0001634355D02*
X0002321650Y0001656852D01*
X0002301028Y0001656852D02*
X0002340398Y0001656852D01*
X0002398526Y0001497806D02*
X0002398526Y0001527802D01*
X0002383528Y0001512804D02*
X0002413524Y0001512804D01*
X0002422898Y0001565298D02*
X0002422898Y0001546550D01*
X0002404150Y0001544675D01*
X0002406025Y0001546550D01*
X0002407900Y0001550299D01*
X0002407900Y0001559673D01*
X0002406025Y0001563423D01*
X0002404150Y0001565298D01*
X0002400401Y0001567172D01*
X0002391027Y0001567172D01*
X0002387277Y0001565298D01*
X0002385402Y0001563423D01*
X0002383528Y0001559673D01*
X0002383528Y0001550299D01*
X0002385402Y0001546550D01*
X0002387277Y0001544675D01*
X0002422898Y0001578421D02*
X0002383528Y0001591544D01*
X0002422898Y0001604668D01*
X0002126957Y0001733112D02*
X0002096960Y0001733112D01*
X0002111959Y0001718114D02*
X0002111959Y0001748111D01*
X0002059465Y0001757484D02*
X0002078213Y0001757484D01*
X0002080088Y0001738737D01*
X0002078213Y0001740612D01*
X0002074463Y0001742486D01*
X0002065089Y0001742486D01*
X0002061340Y0001740612D01*
X0002059465Y0001738737D01*
X0002057590Y0001734987D01*
X0002057590Y0001725613D01*
X0002059465Y0001721864D01*
X0002061340Y0001719989D01*
X0002065089Y0001718114D01*
X0002074463Y0001718114D01*
X0002078213Y0001719989D01*
X0002080088Y0001721864D01*
X0002046342Y0001757484D02*
X0002033218Y0001718114D01*
X0002020095Y0001757484D01*
X0002121956Y0001800614D02*
X0002121956Y0001839984D01*
X0002095709Y0001839984D02*
X0002088210Y0001839984D01*
X0002084460Y0001838110D01*
X0002080711Y0001834360D01*
X0002078836Y0001826861D01*
X0002078836Y0001813738D01*
X0002080711Y0001806239D01*
X0002084460Y0001802489D01*
X0002088210Y0001800614D01*
X0002095709Y0001800614D01*
X0002099459Y0001802489D01*
X0002103208Y0001806239D01*
X0002105083Y0001813738D01*
X0002105083Y0001826861D01*
X0002103208Y0001834360D01*
X0002099459Y0001838110D01*
X0002095709Y0001839984D01*
X0002063838Y0001836235D02*
X0002061963Y0001838110D01*
X0002058214Y0001839984D01*
X0002048840Y0001839984D01*
X0002045090Y0001838110D01*
X0002043216Y0001836235D01*
X0002041341Y0001832485D01*
X0002041341Y0001828736D01*
X0002043216Y0001823112D01*
X0002065713Y0001800614D01*
X0002041341Y0001800614D01*
X0002026343Y0001836235D02*
X0002024468Y0001838110D01*
X0002020718Y0001839984D01*
X0002011345Y0001839984D01*
X0002007595Y0001838110D01*
X0002005720Y0001836235D01*
X0002003845Y0001832485D01*
X0002003845Y0001828736D01*
X0002005720Y0001823112D01*
X0002028217Y0001800614D01*
X0002003845Y0001800614D01*
X0002124456Y0001883114D02*
X0002124456Y0001922484D01*
X0002098209Y0001922484D02*
X0002090710Y0001922484D01*
X0002086960Y0001920610D01*
X0002083211Y0001916860D01*
X0002081336Y0001909361D01*
X0002081336Y0001896238D01*
X0002083211Y0001888739D01*
X0002086960Y0001884989D01*
X0002090710Y0001883114D01*
X0002098209Y0001883114D01*
X0002101959Y0001884989D01*
X0002105708Y0001888739D01*
X0002107583Y0001896238D01*
X0002107583Y0001909361D01*
X0002105708Y0001916860D01*
X0002101959Y0001920610D01*
X0002098209Y0001922484D01*
X0002043841Y0001883114D02*
X0002066338Y0001883114D01*
X0002055089Y0001883114D02*
X0002055089Y0001922484D01*
X0002058839Y0001916860D01*
X0002062588Y0001913111D01*
X0002066338Y0001911236D01*
X0002025093Y0001883114D02*
X0002017594Y0001883114D01*
X0002013845Y0001884989D01*
X0002011970Y0001886864D01*
X0002008220Y0001892488D01*
X0002006345Y0001899987D01*
X0002006345Y0001914985D01*
X0002008220Y0001918735D01*
X0002010095Y0001920610D01*
X0002013845Y0001922484D01*
X0002021344Y0001922484D01*
X0002025093Y0001920610D01*
X0002026968Y0001918735D01*
X0002028843Y0001914985D01*
X0002028843Y0001905612D01*
X0002026968Y0001901862D01*
X0002025093Y0001899987D01*
X0002021344Y0001898112D01*
X0002013845Y0001898112D01*
X0002010095Y0001899987D01*
X0002008220Y0001901862D01*
X0002006345Y0001905612D01*
X0002124456Y0001958114D02*
X0002124456Y0001997484D01*
X0002098209Y0001997484D02*
X0002090710Y0001997484D01*
X0002086960Y0001995610D01*
X0002083211Y0001991860D01*
X0002081336Y0001984361D01*
X0002081336Y0001971238D01*
X0002083211Y0001963739D01*
X0002086960Y0001959989D01*
X0002090710Y0001958114D01*
X0002098209Y0001958114D01*
X0002101959Y0001959989D01*
X0002105708Y0001963739D01*
X0002107583Y0001971238D01*
X0002107583Y0001984361D01*
X0002105708Y0001991860D01*
X0002101959Y0001995610D01*
X0002098209Y0001997484D01*
X0002066338Y0001993735D02*
X0002064463Y0001995610D01*
X0002060714Y0001997484D01*
X0002051340Y0001997484D01*
X0002047590Y0001995610D01*
X0002045716Y0001993735D01*
X0002043841Y0001989985D01*
X0002043841Y0001986236D01*
X0002045716Y0001980612D01*
X0002068213Y0001958114D01*
X0002043841Y0001958114D01*
X0002030717Y0001997484D02*
X0002006345Y0001997484D01*
X0002019469Y0001982486D01*
X0002013845Y0001982486D01*
X0002010095Y0001980612D01*
X0002008220Y0001978737D01*
X0002006345Y0001974987D01*
X0002006345Y0001965613D01*
X0002008220Y0001961864D01*
X0002010095Y0001959989D01*
X0002013845Y0001958114D01*
X0002025093Y0001958114D01*
X0002028843Y0001959989D01*
X0002030717Y0001961864D01*
X0002126956Y0002038114D02*
X0002126956Y0002077484D01*
X0002100709Y0002077484D02*
X0002093210Y0002077484D01*
X0002089460Y0002075610D01*
X0002085711Y0002071860D01*
X0002083836Y0002064361D01*
X0002083836Y0002051238D01*
X0002085711Y0002043739D01*
X0002089460Y0002039989D01*
X0002093210Y0002038114D01*
X0002100709Y0002038114D01*
X0002104459Y0002039989D01*
X0002108208Y0002043739D01*
X0002110083Y0002051238D01*
X0002110083Y0002064361D01*
X0002108208Y0002071860D01*
X0002104459Y0002075610D01*
X0002100709Y0002077484D01*
X0002070713Y0002077484D02*
X0002046341Y0002077484D01*
X0002059464Y0002062486D01*
X0002053840Y0002062486D01*
X0002050090Y0002060612D01*
X0002048216Y0002058737D01*
X0002046341Y0002054987D01*
X0002046341Y0002045613D01*
X0002048216Y0002041864D01*
X0002050090Y0002039989D01*
X0002053840Y0002038114D01*
X0002065088Y0002038114D01*
X0002068838Y0002039989D01*
X0002070713Y0002041864D01*
X0002033217Y0002077484D02*
X0002008845Y0002077484D01*
X0002021969Y0002062486D01*
X0002016345Y0002062486D01*
X0002012595Y0002060612D01*
X0002010720Y0002058737D01*
X0002008845Y0002054987D01*
X0002008845Y0002045613D01*
X0002010720Y0002041864D01*
X0002012595Y0002039989D01*
X0002016345Y0002038114D01*
X0002027593Y0002038114D01*
X0002031343Y0002039989D01*
X0002033217Y0002041864D01*
X0002096334Y0002163110D02*
X0002100084Y0002164984D01*
X0002105708Y0002164984D01*
X0002111332Y0002163110D01*
X0002115082Y0002159360D01*
X0002116957Y0002155611D01*
X0002118831Y0002148112D01*
X0002118831Y0002142487D01*
X0002116957Y0002134988D01*
X0002115082Y0002131239D01*
X0002111332Y0002127489D01*
X0002105708Y0002125614D01*
X0002101959Y0002125614D01*
X0002096334Y0002127489D01*
X0002094459Y0002129364D01*
X0002094459Y0002142487D01*
X0002101959Y0002142487D01*
X0002077587Y0002125614D02*
X0002077587Y0002164984D01*
X0002055089Y0002125614D01*
X0002055089Y0002164984D01*
X0002036342Y0002125614D02*
X0002036342Y0002164984D01*
X0002026968Y0002164984D01*
X0002021344Y0002163110D01*
X0002017594Y0002159360D01*
X0002015719Y0002155611D01*
X0002013845Y0002148112D01*
X0002013845Y0002142487D01*
X0002015719Y0002134988D01*
X0002017594Y0002131239D01*
X0002021344Y0002127489D01*
X0002026968Y0002125614D01*
X0002036342Y0002125614D01*
D27*
X0002151850Y0001863700D02*
X0002151850Y0001743621D01*
X0002214842Y0001863700D02*
X0002151850Y0001863700D01*
X0002214842Y0001743621D02*
X0002214842Y0001863700D01*
X0003048897Y0001909616D02*
X0003048897Y0001896131D01*
X0003008740Y0001909616D02*
X0003008740Y0001896131D01*
X0002538818Y0001792637D02*
X0002402992Y0001792637D01*
X0002538818Y0001792637D02*
X0002615590Y0001792637D01*
X0002538818Y0001994212D02*
X0002462047Y0001994212D01*
X0002538818Y0001994212D02*
X0002615590Y0001994212D01*
X0002658081Y0002083346D02*
X0002644595Y0002083346D01*
X0002658081Y0002123503D02*
X0002644595Y0002123503D01*
X0002414044Y0002125984D02*
X0002427530Y0002125984D01*
X0002414044Y0002085826D02*
X0002427530Y0002085826D01*
D26*
X0002268148Y0001794484D02*
X0002228778Y0001794484D01*
X0002228778Y0001785110D01*
X0002230653Y0001779485D01*
X0002234402Y0001775736D01*
X0002238152Y0001773861D01*
X0002245651Y0001771986D01*
X0002251275Y0001771986D01*
X0002258774Y0001773861D01*
X0002262524Y0001775736D01*
X0002266273Y0001779485D01*
X0002268148Y0001785110D01*
X0002268148Y0001794484D01*
X0002268148Y0001734491D02*
X0002268148Y0001756988D01*
X0002268148Y0001745740D02*
X0002228778Y0001745740D01*
X0002234402Y0001749489D01*
X0002238152Y0001753239D01*
X0002240027Y0001756988D01*
X0002990329Y0001909435D02*
X0002971582Y0001922558D01*
X0002990329Y0001931932D02*
X0002950959Y0001931932D01*
X0002950959Y0001916934D01*
X0002952834Y0001913185D01*
X0002954709Y0001911310D01*
X0002958458Y0001909435D01*
X0002964083Y0001909435D01*
X0002967832Y0001911310D01*
X0002969707Y0001913185D01*
X0002971582Y0001916934D01*
X0002971582Y0001931932D01*
X0002990329Y0001871940D02*
X0002990329Y0001894437D01*
X0002990329Y0001883188D02*
X0002950959Y0001883188D01*
X0002956584Y0001886938D01*
X0002960333Y0001890687D01*
X0002962208Y0001894437D01*
X0002568815Y0001781126D02*
X0002568815Y0001749255D01*
X0002566940Y0001745506D01*
X0002565065Y0001743631D01*
X0002561315Y0001741756D01*
X0002553816Y0001741756D01*
X0002550067Y0001743631D01*
X0002548192Y0001745506D01*
X0002546317Y0001749255D01*
X0002546317Y0001781126D01*
X0002506947Y0001741756D02*
X0002529444Y0001741756D01*
X0002518196Y0001741756D02*
X0002518196Y0001781126D01*
X0002521945Y0001775502D01*
X0002525695Y0001771752D01*
X0002529444Y0001769878D01*
X0002657900Y0002034344D02*
X0002659774Y0002032469D01*
X0002665399Y0002030595D01*
X0002669148Y0002030595D01*
X0002674773Y0002032469D01*
X0002678522Y0002036219D01*
X0002680397Y0002039969D01*
X0002682272Y0002047468D01*
X0002682272Y0002053092D01*
X0002680397Y0002060591D01*
X0002678522Y0002064340D01*
X0002674773Y0002068090D01*
X0002669148Y0002069965D01*
X0002665399Y0002069965D01*
X0002659774Y0002068090D01*
X0002657900Y0002066215D01*
X0002620404Y0002030595D02*
X0002642902Y0002030595D01*
X0002631653Y0002030595D02*
X0002631653Y0002069965D01*
X0002635402Y0002064340D01*
X0002639152Y0002060591D01*
X0002642902Y0002058716D01*
X0002427348Y0002035545D02*
X0002429223Y0002033670D01*
X0002434848Y0002031795D01*
X0002438597Y0002031795D01*
X0002444221Y0002033670D01*
X0002447971Y0002037420D01*
X0002449846Y0002041169D01*
X0002451720Y0002048668D01*
X0002451720Y0002054293D01*
X0002449846Y0002061792D01*
X0002447971Y0002065541D01*
X0002444221Y0002069291D01*
X0002438597Y0002071166D01*
X0002434848Y0002071166D01*
X0002429223Y0002069291D01*
X0002427348Y0002067416D01*
X0002412350Y0002067416D02*
X0002410476Y0002069291D01*
X0002406726Y0002071166D01*
X0002397352Y0002071166D01*
X0002393603Y0002069291D01*
X0002391728Y0002067416D01*
X0002389853Y0002063666D01*
X0002389853Y0002059917D01*
X0002391728Y0002054293D01*
X0002414225Y0002031795D01*
X0002389853Y0002031795D01*
G04 next file*
G04 #@! TF.GenerationSoftware,KiCad,Pcbnew,(5.1.2)-1*
G04 #@! TF.CreationDate,2020-12-30T14:45:37+09:00*
G04 #@! TF.ProjectId,M5Atom_CAN,4d354174-6f6d-45f4-9341-4e2e6b696361,rev?*
G04 #@! TF.SameCoordinates,Original*
G04 #@! TF.FileFunction,Legend,Bot*
G04 #@! TF.FilePolarity,Positive*
G04 Gerber Fmt 4.6, Leading zero omitted, Abs format (unit mm)*
G04 Created by KiCad (PCBNEW (5.1.2)-1) date 2020-12-30 14:45:37*
G04 APERTURE LIST*
G04 APERTURE END LIST*
D28*
X0002906026Y0002793731D02*
X0002906026Y0002823727D01*
X0002891028Y0002808729D02*
X0002921024Y0002808729D01*
X0002930398Y0002861223D02*
X0002930398Y0002842475D01*
X0002911650Y0002840600D01*
X0002913525Y0002842475D01*
X0002915400Y0002846225D01*
X0002915400Y0002855598D01*
X0002913525Y0002859348D01*
X0002911650Y0002861223D01*
X0002907901Y0002863097D01*
X0002898527Y0002863097D01*
X0002894777Y0002861223D01*
X0002892902Y0002859348D01*
X0002891028Y0002855598D01*
X0002891028Y0002846225D01*
X0002892902Y0002842475D01*
X0002894777Y0002840600D01*
X0002930398Y0002874346D02*
X0002891028Y0002887469D01*
X0002930398Y0002900593D01*
X0002688523Y0002804354D02*
X0002690398Y0002800604D01*
X0002690398Y0002794980D01*
X0002688523Y0002789355D01*
X0002684773Y0002785606D01*
X0002681024Y0002783731D01*
X0002673525Y0002781856D01*
X0002667901Y0002781856D01*
X0002660402Y0002783731D01*
X0002656652Y0002785606D01*
X0002652902Y0002789355D01*
X0002651028Y0002794980D01*
X0002651028Y0002798729D01*
X0002652902Y0002804354D01*
X0002654777Y0002806228D01*
X0002667901Y0002806228D01*
X0002667901Y0002798729D01*
X0002651028Y0002823101D02*
X0002690398Y0002823101D01*
X0002651028Y0002845598D01*
X0002690398Y0002845598D01*
X0002651028Y0002864346D02*
X0002690398Y0002864346D01*
X0002690398Y0002873720D01*
X0002688523Y0002879344D01*
X0002684773Y0002883094D01*
X0002681024Y0002884968D01*
X0002673525Y0002886843D01*
X0002667901Y0002886843D01*
X0002660402Y0002884968D01*
X0002656652Y0002883094D01*
X0002652902Y0002879344D01*
X0002651028Y0002873720D01*
X0002651028Y0002864346D01*
X0002729777Y0002813107D02*
X0002727902Y0002811232D01*
X0002726028Y0002805608D01*
X0002726028Y0002801858D01*
X0002727902Y0002796234D01*
X0002731652Y0002792484D01*
X0002735402Y0002790610D01*
X0002742901Y0002788735D01*
X0002748525Y0002788735D01*
X0002756024Y0002790610D01*
X0002759773Y0002792484D01*
X0002763523Y0002796234D01*
X0002765398Y0002801858D01*
X0002765398Y0002805608D01*
X0002763523Y0002811232D01*
X0002761648Y0002813107D01*
X0002737276Y0002828105D02*
X0002737276Y0002846853D01*
X0002726028Y0002824355D02*
X0002765398Y0002837479D01*
X0002726028Y0002850602D01*
X0002726028Y0002863725D02*
X0002765398Y0002863725D01*
X0002726028Y0002886223D01*
X0002765398Y0002886223D01*
X0002722278Y0002895597D02*
X0002722278Y0002925593D01*
X0002726028Y0002953714D02*
X0002726028Y0002934967D01*
X0002765398Y0002934967D01*
X0002812277Y0002808420D02*
X0002810402Y0002806545D01*
X0002808528Y0002800921D01*
X0002808528Y0002797171D01*
X0002810402Y0002791547D01*
X0002814152Y0002787797D01*
X0002817902Y0002785923D01*
X0002825401Y0002784048D01*
X0002831025Y0002784048D01*
X0002838524Y0002785923D01*
X0002842273Y0002787797D01*
X0002846023Y0002791547D01*
X0002847898Y0002797171D01*
X0002847898Y0002800921D01*
X0002846023Y0002806545D01*
X0002844148Y0002808420D01*
X0002819776Y0002823418D02*
X0002819776Y0002842166D01*
X0002808528Y0002819669D02*
X0002847898Y0002832792D01*
X0002808528Y0002845915D01*
X0002808528Y0002859039D02*
X0002847898Y0002859039D01*
X0002808528Y0002881536D01*
X0002847898Y0002881536D01*
X0002804778Y0002890910D02*
X0002804778Y0002920906D01*
X0002808528Y0002930280D02*
X0002847898Y0002930280D01*
X0002829150Y0002930280D02*
X0002829150Y0002952777D01*
X0002808528Y0002952777D02*
X0002847898Y0002952777D01*
X0002181023Y0002806854D02*
X0002182898Y0002803104D01*
X0002182898Y0002797480D01*
X0002181023Y0002791855D01*
X0002177273Y0002788106D01*
X0002173524Y0002786231D01*
X0002166025Y0002784356D01*
X0002160401Y0002784356D01*
X0002152902Y0002786231D01*
X0002149152Y0002788106D01*
X0002145402Y0002791855D01*
X0002143528Y0002797480D01*
X0002143528Y0002801229D01*
X0002145402Y0002806854D01*
X0002147277Y0002808728D01*
X0002160401Y0002808728D01*
X0002160401Y0002801229D01*
X0002143528Y0002825601D02*
X0002182898Y0002825601D01*
X0002143528Y0002848098D01*
X0002182898Y0002848098D01*
X0002143528Y0002866846D02*
X0002182898Y0002866846D01*
X0002182898Y0002876220D01*
X0002181023Y0002881844D01*
X0002177273Y0002885594D01*
X0002173524Y0002887468D01*
X0002166025Y0002889343D01*
X0002160401Y0002889343D01*
X0002152902Y0002887468D01*
X0002149152Y0002885594D01*
X0002145402Y0002881844D01*
X0002143528Y0002876220D01*
X0002143528Y0002866846D01*
X0002222277Y0002815607D02*
X0002220402Y0002813732D01*
X0002218528Y0002808108D01*
X0002218528Y0002804358D01*
X0002220402Y0002798734D01*
X0002224152Y0002794984D01*
X0002227902Y0002793110D01*
X0002235401Y0002791235D01*
X0002241025Y0002791235D01*
X0002248524Y0002793110D01*
X0002252273Y0002794984D01*
X0002256023Y0002798734D01*
X0002257898Y0002804358D01*
X0002257898Y0002808108D01*
X0002256023Y0002813732D01*
X0002254148Y0002815607D01*
X0002229776Y0002830605D02*
X0002229776Y0002849353D01*
X0002218528Y0002826855D02*
X0002257898Y0002839979D01*
X0002218528Y0002853102D01*
X0002218528Y0002866225D02*
X0002257898Y0002866225D01*
X0002218528Y0002888723D01*
X0002257898Y0002888723D01*
X0002214778Y0002898097D02*
X0002214778Y0002928093D01*
X0002218528Y0002956214D02*
X0002218528Y0002937467D01*
X0002257898Y0002937467D01*
X0002304777Y0002810920D02*
X0002302902Y0002809045D01*
X0002301028Y0002803421D01*
X0002301028Y0002799671D01*
X0002302902Y0002794047D01*
X0002306652Y0002790297D01*
X0002310402Y0002788423D01*
X0002317901Y0002786548D01*
X0002323525Y0002786548D01*
X0002331024Y0002788423D01*
X0002334773Y0002790297D01*
X0002338523Y0002794047D01*
X0002340398Y0002799671D01*
X0002340398Y0002803421D01*
X0002338523Y0002809045D01*
X0002336648Y0002810920D01*
X0002312276Y0002825918D02*
X0002312276Y0002844666D01*
X0002301028Y0002822169D02*
X0002340398Y0002835292D01*
X0002301028Y0002848415D01*
X0002301028Y0002861539D02*
X0002340398Y0002861539D01*
X0002301028Y0002884036D01*
X0002340398Y0002884036D01*
X0002297278Y0002893410D02*
X0002297278Y0002923406D01*
X0002301028Y0002932780D02*
X0002340398Y0002932780D01*
X0002321650Y0002932780D02*
X0002321650Y0002955277D01*
X0002301028Y0002955277D02*
X0002340398Y0002955277D01*
X0002398526Y0002796231D02*
X0002398526Y0002826227D01*
X0002383528Y0002811229D02*
X0002413524Y0002811229D01*
X0002422898Y0002863723D02*
X0002422898Y0002844975D01*
X0002404150Y0002843100D01*
X0002406025Y0002844975D01*
X0002407900Y0002848725D01*
X0002407900Y0002858098D01*
X0002406025Y0002861848D01*
X0002404150Y0002863723D01*
X0002400401Y0002865597D01*
X0002391027Y0002865597D01*
X0002387277Y0002863723D01*
X0002385402Y0002861848D01*
X0002383528Y0002858098D01*
X0002383528Y0002848725D01*
X0002385402Y0002844975D01*
X0002387277Y0002843100D01*
X0002422898Y0002876846D02*
X0002383528Y0002889969D01*
X0002422898Y0002903093D01*
X0002126957Y0003031538D02*
X0002096960Y0003031538D01*
X0002111959Y0003016540D02*
X0002111959Y0003046536D01*
X0002059465Y0003055910D02*
X0002078213Y0003055910D01*
X0002080088Y0003037162D01*
X0002078213Y0003039037D01*
X0002074463Y0003040911D01*
X0002065089Y0003040911D01*
X0002061340Y0003039037D01*
X0002059465Y0003037162D01*
X0002057590Y0003033412D01*
X0002057590Y0003024039D01*
X0002059465Y0003020289D01*
X0002061340Y0003018414D01*
X0002065089Y0003016540D01*
X0002074463Y0003016540D01*
X0002078213Y0003018414D01*
X0002080088Y0003020289D01*
X0002046342Y0003055910D02*
X0002033218Y0003016540D01*
X0002020095Y0003055910D01*
X0002121956Y0003099040D02*
X0002121956Y0003138410D01*
X0002095709Y0003138410D02*
X0002088210Y0003138410D01*
X0002084460Y0003136535D01*
X0002080711Y0003132785D01*
X0002078836Y0003125286D01*
X0002078836Y0003112163D01*
X0002080711Y0003104664D01*
X0002084460Y0003100914D01*
X0002088210Y0003099040D01*
X0002095709Y0003099040D01*
X0002099459Y0003100914D01*
X0002103208Y0003104664D01*
X0002105083Y0003112163D01*
X0002105083Y0003125286D01*
X0002103208Y0003132785D01*
X0002099459Y0003136535D01*
X0002095709Y0003138410D01*
X0002063838Y0003134660D02*
X0002061963Y0003136535D01*
X0002058214Y0003138410D01*
X0002048840Y0003138410D01*
X0002045090Y0003136535D01*
X0002043216Y0003134660D01*
X0002041341Y0003130911D01*
X0002041341Y0003127161D01*
X0002043216Y0003121537D01*
X0002065713Y0003099040D01*
X0002041341Y0003099040D01*
X0002026343Y0003134660D02*
X0002024468Y0003136535D01*
X0002020718Y0003138410D01*
X0002011345Y0003138410D01*
X0002007595Y0003136535D01*
X0002005720Y0003134660D01*
X0002003845Y0003130911D01*
X0002003845Y0003127161D01*
X0002005720Y0003121537D01*
X0002028217Y0003099040D01*
X0002003845Y0003099040D01*
X0002124456Y0003181540D02*
X0002124456Y0003220910D01*
X0002098209Y0003220910D02*
X0002090710Y0003220910D01*
X0002086960Y0003219035D01*
X0002083211Y0003215285D01*
X0002081336Y0003207786D01*
X0002081336Y0003194663D01*
X0002083211Y0003187164D01*
X0002086960Y0003183414D01*
X0002090710Y0003181540D01*
X0002098209Y0003181540D01*
X0002101959Y0003183414D01*
X0002105708Y0003187164D01*
X0002107583Y0003194663D01*
X0002107583Y0003207786D01*
X0002105708Y0003215285D01*
X0002101959Y0003219035D01*
X0002098209Y0003220910D01*
X0002043841Y0003181540D02*
X0002066338Y0003181540D01*
X0002055089Y0003181540D02*
X0002055089Y0003220910D01*
X0002058839Y0003215285D01*
X0002062588Y0003211536D01*
X0002066338Y0003209661D01*
X0002025093Y0003181540D02*
X0002017594Y0003181540D01*
X0002013845Y0003183414D01*
X0002011970Y0003185289D01*
X0002008220Y0003190913D01*
X0002006345Y0003198412D01*
X0002006345Y0003213411D01*
X0002008220Y0003217160D01*
X0002010095Y0003219035D01*
X0002013845Y0003220910D01*
X0002021344Y0003220910D01*
X0002025093Y0003219035D01*
X0002026968Y0003217160D01*
X0002028843Y0003213411D01*
X0002028843Y0003204037D01*
X0002026968Y0003200287D01*
X0002025093Y0003198412D01*
X0002021344Y0003196538D01*
X0002013845Y0003196538D01*
X0002010095Y0003198412D01*
X0002008220Y0003200287D01*
X0002006345Y0003204037D01*
X0002124456Y0003256540D02*
X0002124456Y0003295910D01*
X0002098209Y0003295910D02*
X0002090710Y0003295910D01*
X0002086960Y0003294035D01*
X0002083211Y0003290285D01*
X0002081336Y0003282786D01*
X0002081336Y0003269663D01*
X0002083211Y0003262164D01*
X0002086960Y0003258414D01*
X0002090710Y0003256540D01*
X0002098209Y0003256540D01*
X0002101959Y0003258414D01*
X0002105708Y0003262164D01*
X0002107583Y0003269663D01*
X0002107583Y0003282786D01*
X0002105708Y0003290285D01*
X0002101959Y0003294035D01*
X0002098209Y0003295910D01*
X0002066338Y0003292160D02*
X0002064463Y0003294035D01*
X0002060714Y0003295910D01*
X0002051340Y0003295910D01*
X0002047590Y0003294035D01*
X0002045716Y0003292160D01*
X0002043841Y0003288411D01*
X0002043841Y0003284661D01*
X0002045716Y0003279037D01*
X0002068213Y0003256540D01*
X0002043841Y0003256540D01*
X0002030717Y0003295910D02*
X0002006345Y0003295910D01*
X0002019469Y0003280911D01*
X0002013845Y0003280911D01*
X0002010095Y0003279037D01*
X0002008220Y0003277162D01*
X0002006345Y0003273412D01*
X0002006345Y0003264039D01*
X0002008220Y0003260289D01*
X0002010095Y0003258414D01*
X0002013845Y0003256540D01*
X0002025093Y0003256540D01*
X0002028843Y0003258414D01*
X0002030717Y0003260289D01*
X0002126956Y0003336540D02*
X0002126956Y0003375910D01*
X0002100709Y0003375910D02*
X0002093210Y0003375910D01*
X0002089460Y0003374035D01*
X0002085711Y0003370285D01*
X0002083836Y0003362786D01*
X0002083836Y0003349663D01*
X0002085711Y0003342164D01*
X0002089460Y0003338414D01*
X0002093210Y0003336540D01*
X0002100709Y0003336540D01*
X0002104459Y0003338414D01*
X0002108208Y0003342164D01*
X0002110083Y0003349663D01*
X0002110083Y0003362786D01*
X0002108208Y0003370285D01*
X0002104459Y0003374035D01*
X0002100709Y0003375910D01*
X0002070713Y0003375910D02*
X0002046341Y0003375910D01*
X0002059464Y0003360911D01*
X0002053840Y0003360911D01*
X0002050090Y0003359037D01*
X0002048216Y0003357162D01*
X0002046341Y0003353412D01*
X0002046341Y0003344039D01*
X0002048216Y0003340289D01*
X0002050090Y0003338414D01*
X0002053840Y0003336540D01*
X0002065088Y0003336540D01*
X0002068838Y0003338414D01*
X0002070713Y0003340289D01*
X0002033217Y0003375910D02*
X0002008845Y0003375910D01*
X0002021969Y0003360911D01*
X0002016345Y0003360911D01*
X0002012595Y0003359037D01*
X0002010720Y0003357162D01*
X0002008845Y0003353412D01*
X0002008845Y0003344039D01*
X0002010720Y0003340289D01*
X0002012595Y0003338414D01*
X0002016345Y0003336540D01*
X0002027593Y0003336540D01*
X0002031343Y0003338414D01*
X0002033217Y0003340289D01*
X0002096334Y0003461535D02*
X0002100084Y0003463410D01*
X0002105708Y0003463410D01*
X0002111332Y0003461535D01*
X0002115082Y0003457785D01*
X0002116957Y0003454036D01*
X0002118831Y0003446537D01*
X0002118831Y0003440912D01*
X0002116957Y0003433413D01*
X0002115082Y0003429664D01*
X0002111332Y0003425914D01*
X0002105708Y0003424040D01*
X0002101959Y0003424040D01*
X0002096334Y0003425914D01*
X0002094459Y0003427789D01*
X0002094459Y0003440912D01*
X0002101959Y0003440912D01*
X0002077587Y0003424040D02*
X0002077587Y0003463410D01*
X0002055089Y0003424040D01*
X0002055089Y0003463410D01*
X0002036342Y0003424040D02*
X0002036342Y0003463410D01*
X0002026968Y0003463410D01*
X0002021344Y0003461535D01*
X0002017594Y0003457785D01*
X0002015719Y0003454036D01*
X0002013845Y0003446537D01*
X0002013845Y0003440912D01*
X0002015719Y0003433413D01*
X0002017594Y0003429664D01*
X0002021344Y0003425914D01*
X0002026968Y0003424040D01*
X0002036342Y0003424040D01*
D29*
X0002151850Y0003162125D02*
X0002151850Y0003042047D01*
X0002214842Y0003162125D02*
X0002151850Y0003162125D01*
X0002214842Y0003042047D02*
X0002214842Y0003162125D01*
X0003048897Y0003208041D02*
X0003048897Y0003194556D01*
X0003008740Y0003208041D02*
X0003008740Y0003194556D01*
X0002538818Y0003091062D02*
X0002402992Y0003091062D01*
X0002538818Y0003091062D02*
X0002615590Y0003091062D01*
X0002538818Y0003292637D02*
X0002462047Y0003292637D01*
X0002538818Y0003292637D02*
X0002615590Y0003292637D01*
X0002658081Y0003381771D02*
X0002644595Y0003381771D01*
X0002658081Y0003421929D02*
X0002644595Y0003421929D01*
X0002414044Y0003424409D02*
X0002427530Y0003424409D01*
X0002414044Y0003384251D02*
X0002427530Y0003384251D01*
D28*
X0002268148Y0003092909D02*
X0002228778Y0003092909D01*
X0002228778Y0003083535D01*
X0002230653Y0003077911D01*
X0002234402Y0003074161D01*
X0002238152Y0003072286D01*
X0002245651Y0003070411D01*
X0002251275Y0003070411D01*
X0002258774Y0003072286D01*
X0002262524Y0003074161D01*
X0002266273Y0003077911D01*
X0002268148Y0003083535D01*
X0002268148Y0003092909D01*
X0002268148Y0003032916D02*
X0002268148Y0003055413D01*
X0002268148Y0003044165D02*
X0002228778Y0003044165D01*
X0002234402Y0003047914D01*
X0002238152Y0003051664D01*
X0002240027Y0003055413D01*
X0002990329Y0003207860D02*
X0002971582Y0003220984D01*
X0002990329Y0003230357D02*
X0002950959Y0003230357D01*
X0002950959Y0003215359D01*
X0002952834Y0003211610D01*
X0002954709Y0003209735D01*
X0002958458Y0003207860D01*
X0002964083Y0003207860D01*
X0002967832Y0003209735D01*
X0002969707Y0003211610D01*
X0002971582Y0003215359D01*
X0002971582Y0003230357D01*
X0002990329Y0003170365D02*
X0002990329Y0003192862D01*
X0002990329Y0003181614D02*
X0002950959Y0003181614D01*
X0002956584Y0003185363D01*
X0002960333Y0003189113D01*
X0002962208Y0003192862D01*
X0002568815Y0003079551D02*
X0002568815Y0003047680D01*
X0002566940Y0003043931D01*
X0002565065Y0003042056D01*
X0002561315Y0003040181D01*
X0002553816Y0003040181D01*
X0002550067Y0003042056D01*
X0002548192Y0003043931D01*
X0002546317Y0003047680D01*
X0002546317Y0003079551D01*
X0002506947Y0003040181D02*
X0002529444Y0003040181D01*
X0002518196Y0003040181D02*
X0002518196Y0003079551D01*
X0002521945Y0003073927D01*
X0002525695Y0003070177D01*
X0002529444Y0003068303D01*
X0002657900Y0003332769D02*
X0002659774Y0003330895D01*
X0002665399Y0003329020D01*
X0002669148Y0003329020D01*
X0002674773Y0003330895D01*
X0002678522Y0003334644D01*
X0002680397Y0003338394D01*
X0002682272Y0003345893D01*
X0002682272Y0003351517D01*
X0002680397Y0003359016D01*
X0002678522Y0003362766D01*
X0002674773Y0003366515D01*
X0002669148Y0003368390D01*
X0002665399Y0003368390D01*
X0002659774Y0003366515D01*
X0002657900Y0003364640D01*
X0002620404Y0003329020D02*
X0002642902Y0003329020D01*
X0002631653Y0003329020D02*
X0002631653Y0003368390D01*
X0002635402Y0003362766D01*
X0002639152Y0003359016D01*
X0002642902Y0003357141D01*
X0002427348Y0003333970D02*
X0002429223Y0003332095D01*
X0002434848Y0003330221D01*
X0002438597Y0003330221D01*
X0002444221Y0003332095D01*
X0002447971Y0003335845D01*
X0002449846Y0003339594D01*
X0002451720Y0003347094D01*
X0002451720Y0003352718D01*
X0002449846Y0003360217D01*
X0002447971Y0003363966D01*
X0002444221Y0003367716D01*
X0002438597Y0003369591D01*
X0002434848Y0003369591D01*
X0002429223Y0003367716D01*
X0002427348Y0003365841D01*
X0002412350Y0003365841D02*
X0002410476Y0003367716D01*
X0002406726Y0003369591D01*
X0002397352Y0003369591D01*
X0002393603Y0003367716D01*
X0002391728Y0003365841D01*
X0002389853Y0003362092D01*
X0002389853Y0003358342D01*
X0002391728Y0003352718D01*
X0002414225Y0003330221D01*
X0002389853Y0003330221D01*
M02*