%
M48
METRIC,000.000
T01C1.50
T02C2.40
T10C0.40
T11C0.80
T12C1.00
T13C2.20
T14C0.50
%
T01
X031671Y021390
X031671Y005140
X031607Y040885
X031607Y024634
X031671Y069890
X031671Y053640
X031607Y089385
X031607Y073134
T02
X036510Y020667
X036510Y005866
X036449Y040159
X036449Y025360
X036510Y069167
X036510Y054366
X036449Y088659
X036449Y073860
T10
X009197Y021840
X018212Y024431
X038194Y016250
X039245Y016250
X009197Y070340
X018212Y072931
X038194Y064748
X039245Y064748
X056630Y013200
X056630Y046180
X056630Y079160
T11
X031671Y016821
X031671Y014789
X031671Y012757
X031671Y010725
X034211Y015805
X034211Y013773
X034211Y011741
X034211Y009709
X003574Y036760
X005572Y036760
X007574Y036760
X009573Y036760
X011575Y036760
X013573Y036760
X031607Y036316
X031607Y034284
X031607Y032252
X031607Y030220
X034147Y035300
X034147Y033268
X034147Y031236
X034147Y029204
X031671Y065321
X031671Y063289
X031671Y061257
X031671Y059225
X034211Y064305
X034211Y062273
X034211Y060241
X034211Y058209
X003574Y085260
X005572Y085260
X007574Y085260
X009573Y085260
X011575Y085260
X013573Y085260
X031607Y084815
X031607Y082783
X031607Y080751
X031607Y078719
X034147Y083799
X034147Y081767
X034147Y079735
X034147Y077703
X054867Y003365
X056866Y003365
X058868Y003365
X060866Y003365
X067821Y003365
X069820Y003365
X071822Y003365
X073820Y003365
X049373Y021302
X049373Y019303
X049373Y017302
X049373Y015303
X049373Y013301
X049373Y011302
X054867Y036345
X056866Y036345
X058868Y036345
X060866Y036345
X067821Y036345
X069820Y036345
X071822Y036345
X073820Y036345
X049373Y054282
X049373Y052283
X049373Y050282
X049373Y048283
X049373Y046281
X049373Y044282
X054867Y069325
X056866Y069325
X058868Y069325
X060866Y069325
X067821Y069325
X069820Y069325
X071822Y069325
X073820Y069325
X049373Y087262
X049373Y085263
X049373Y083262
X049373Y081263
X049373Y079261
X049373Y077262
T12
X006426Y018891
X006426Y016351
X006426Y013811
X006426Y011271
X021666Y021431
X021666Y018891
X021666Y016351
X021666Y013811
X021666Y011271
X024241Y037268
X024241Y034728
X006426Y067391
X006426Y064851
X006426Y062311
X006426Y059771
X021666Y069931
X021666Y067391
X021666Y064851
X021666Y062311
X021666Y059771
X024241Y085768
X024241Y083228
X056929Y026098
X056929Y023558
X056929Y021018
X056929Y018478
X056929Y015938
X072169Y026098
X072169Y023558
X072169Y021018
X072169Y018478
X080805Y016484
X080805Y013944
X056929Y059078
X056929Y056538
X056929Y053998
X056929Y051458
X056929Y048918
X072169Y059078
X072169Y056538
X072169Y053998
X072169Y051458
X080805Y049464
X080805Y046924
X056929Y092058
X056929Y089518
X056929Y086978
X056929Y084438
X056929Y081898
X072169Y092058
X072169Y089518
X072169Y086978
X072169Y084438
X080805Y082444
X080805Y079904
T13
X002999Y002998
X002999Y042998
X040000Y002998
X040000Y042998
X002999Y051498
X002999Y091498
X040000Y051498
X040000Y091498
X080600Y002999
X048499Y002999
X080600Y027480
X048499Y027480
X080600Y035979
X048499Y035979
X080600Y060460
X048499Y060460
X080600Y068959
X048499Y068959
X080600Y093440
X048499Y093440
T14
X024204Y046250
X023204Y046250
X022204Y046250
X021204Y046250
X020204Y046250
X019204Y046250
X018590Y048250
X019590Y048250
X020590Y048250
X021590Y048250
X022590Y048250
X023590Y048250
X043249Y036897
X043249Y037897
X043249Y038897
X043249Y039897
X043249Y040897
X043249Y041897
X043249Y042897
X045249Y042632
X045249Y041632
X045249Y040632
X045249Y039632
X045249Y038632
X045249Y037632
X043249Y054397
X043249Y055397
X043249Y056397
X043249Y057397
X043249Y058397
X043249Y059397
X045249Y059632
X045249Y058632
X045249Y057632
X045249Y056632
X045249Y055632
X045249Y054632
X067141Y030729
X066141Y030729
X065141Y030729
X064141Y030729
X063141Y030729
X062141Y030729
X062317Y032729
X063317Y032729
X064316Y032729
X065316Y032729
X066317Y032729
X067317Y032729
X043249Y011897
X043249Y012897
X043249Y013897
X043249Y014897
X043249Y015897
X043249Y016897
X043249Y017897
X045249Y017652
X045249Y016652
X045249Y015652
X045249Y014652
X045249Y013652
X045249Y012652
X067141Y063709
X066141Y063709
X065141Y063709
X064141Y063709
X063141Y063709
X062141Y063709
X062317Y065709
X063317Y065709
X064316Y065709
X065316Y065709
X066317Y065709
X067317Y065709
X043249Y076397
X043249Y077397
X043249Y078397
X043249Y079397
X043249Y080397
X043249Y081397
X045249Y081612
X045249Y080612
X045249Y079612
X045249Y078612
X045249Y077612
X045249Y076612
M30