G04 #@! TF.GenerationSoftware,KiCad,Pcbnew,(5.1.2)-1*
G04 #@! TF.CreationDate,2020-12-18T00:18:44+09:00*
G04 #@! TF.ProjectId,M5Atom_CAN,4d354174-6f6d-45f4-9341-4e2e6b696361,rev?*
G04 #@! TF.SameCoordinates,Original*
G04 #@! TF.FileFunction,Copper,L1,Top*
G04 #@! TF.FilePolarity,Positive*
%FSLAX46Y46*%
G04 Gerber Fmt 4.6, Leading zero omitted, Abs format (unit mm)*
G04 Created by KiCad (PCBNEW (5.1.2)-1) date 2020-12-18 00:18:44*
%MOMM*%
%LPD*%
G04 APERTURE LIST*
%ADD10C,1.300000*%
%ADD11R,1.300000X1.300000*%
%ADD12O,1.700000X1.700000*%
%ADD13R,1.700000X1.700000*%
%ADD14C,1.700000*%
%ADD15C,1.776200*%
%ADD16C,3.800000*%
%ADD17C,0.250000*%
%ADD18C,0.254000*%
G04 APERTURE END LIST*
D10*
X153385000Y-136334000D03*
X155385000Y-136334000D03*
X157385000Y-136334000D03*
D11*
X159385000Y-136334000D03*
D12*
X166370000Y-125755000D03*
D13*
X166370000Y-123215000D03*
D14*
X142494000Y-123762000D03*
X142494000Y-121222000D03*
X142494000Y-118682000D03*
X142494000Y-116142000D03*
X142494000Y-113602000D03*
X157734000Y-113602000D03*
X157734000Y-116142000D03*
X157734000Y-118682000D03*
D15*
X157734000Y-121222000D03*
D16*
X134064000Y-112220000D03*
X166164000Y-112220000D03*
X166164000Y-136700000D03*
X134064000Y-136700000D03*
D10*
X134938000Y-118397000D03*
X134938000Y-120397000D03*
X134938000Y-122397000D03*
X134938000Y-124397000D03*
X134938000Y-126397000D03*
X134938000Y-128397000D03*
X140431000Y-136334000D03*
X142431000Y-136334000D03*
X144431000Y-136334000D03*
D11*
X146431000Y-136334000D03*
D17*
X140431000Y-136334000D02*
X141406300Y-137309300D01*
X141406300Y-137309300D02*
X152409700Y-137309300D01*
X152409700Y-137309300D02*
X153385000Y-136334000D01*
X146431000Y-136334000D02*
X145455700Y-136334000D01*
X134938000Y-128397000D02*
X137884400Y-128397000D01*
X137884400Y-128397000D02*
X145455700Y-135968300D01*
X145455700Y-135968300D02*
X145455700Y-136334000D01*
X159007000Y-134980700D02*
X159385000Y-135358700D01*
X157734000Y-116142000D02*
X159007000Y-117415000D01*
X159007000Y-117415000D02*
X159007000Y-134980700D01*
X147406300Y-136334000D02*
X148759600Y-134980700D01*
X148759600Y-134980700D02*
X159007000Y-134980700D01*
X159385000Y-136334000D02*
X159385000Y-135358700D01*
X146431000Y-136334000D02*
X147406300Y-136334000D01*
X134938000Y-120397000D02*
X141733000Y-113602000D01*
X141733000Y-113602000D02*
X142494000Y-113602000D01*
X134938000Y-126397000D02*
X140113000Y-121222000D01*
X140113000Y-121222000D02*
X142494000Y-121222000D01*
D18*
G36*
X164963227Y-109973512D02*
G01*
X164548032Y-110250937D01*
X164194937Y-110604032D01*
X163917512Y-111019227D01*
X163726418Y-111480568D01*
X163629000Y-111970324D01*
X163629000Y-112469676D01*
X163726418Y-112959432D01*
X163917512Y-113420773D01*
X164194937Y-113835968D01*
X164548032Y-114189063D01*
X164963227Y-114466488D01*
X165424568Y-114657582D01*
X165914324Y-114755000D01*
X166413676Y-114755000D01*
X166903432Y-114657582D01*
X167364773Y-114466488D01*
X167779968Y-114189063D01*
X168133063Y-113835968D01*
X168410488Y-113420773D01*
X168504001Y-113195013D01*
X168504000Y-135724985D01*
X168410488Y-135499227D01*
X168133063Y-135084032D01*
X167779968Y-134730937D01*
X167364773Y-134453512D01*
X166903432Y-134262418D01*
X166413676Y-134165000D01*
X165914324Y-134165000D01*
X165424568Y-134262418D01*
X164963227Y-134453512D01*
X164548032Y-134730937D01*
X164194937Y-135084032D01*
X163917512Y-135499227D01*
X163726418Y-135960568D01*
X163629000Y-136450324D01*
X163629000Y-136949676D01*
X163726418Y-137439432D01*
X163917512Y-137900773D01*
X164194937Y-138315968D01*
X164548032Y-138669063D01*
X164963227Y-138946488D01*
X165188987Y-139040001D01*
X135039018Y-139039999D01*
X135264773Y-138946488D01*
X135679968Y-138669063D01*
X136033063Y-138315968D01*
X136310488Y-137900773D01*
X136501582Y-137439432D01*
X136545323Y-137219527D01*
X139725078Y-137219527D01*
X139778466Y-137448201D01*
X140008374Y-137554095D01*
X140254524Y-137613102D01*
X140507455Y-137622952D01*
X140757449Y-137583270D01*
X140994896Y-137495578D01*
X141083534Y-137448201D01*
X141136922Y-137219527D01*
X140431000Y-136513605D01*
X139725078Y-137219527D01*
X136545323Y-137219527D01*
X136599000Y-136949676D01*
X136599000Y-136450324D01*
X136591070Y-136410455D01*
X139142048Y-136410455D01*
X139181730Y-136660449D01*
X139269422Y-136897896D01*
X139316799Y-136986534D01*
X139545473Y-137039922D01*
X140251395Y-136334000D01*
X139545473Y-135628078D01*
X139316799Y-135681466D01*
X139210905Y-135911374D01*
X139151898Y-136157524D01*
X139142048Y-136410455D01*
X136591070Y-136410455D01*
X136501582Y-135960568D01*
X136310488Y-135499227D01*
X136276576Y-135448473D01*
X139725078Y-135448473D01*
X140431000Y-136154395D01*
X141136922Y-135448473D01*
X141083534Y-135219799D01*
X140853626Y-135113905D01*
X140607476Y-135054898D01*
X140354545Y-135045048D01*
X140104551Y-135084730D01*
X139867104Y-135172422D01*
X139778466Y-135219799D01*
X139725078Y-135448473D01*
X136276576Y-135448473D01*
X136033063Y-135084032D01*
X135679968Y-134730937D01*
X135264773Y-134453512D01*
X134803432Y-134262418D01*
X134313676Y-134165000D01*
X133814324Y-134165000D01*
X133324568Y-134262418D01*
X132863227Y-134453512D01*
X132448032Y-134730937D01*
X132094937Y-135084032D01*
X131817512Y-135499227D01*
X131724000Y-135724985D01*
X131724000Y-120270439D01*
X133653000Y-120270439D01*
X133653000Y-120523561D01*
X133702381Y-120771821D01*
X133799247Y-121005676D01*
X133939875Y-121216140D01*
X134118860Y-121395125D01*
X134121666Y-121397000D01*
X134118860Y-121398875D01*
X133939875Y-121577860D01*
X133799247Y-121788324D01*
X133702381Y-122022179D01*
X133653000Y-122270439D01*
X133653000Y-122523561D01*
X133702381Y-122771821D01*
X133799247Y-123005676D01*
X133939875Y-123216140D01*
X134118860Y-123395125D01*
X134121666Y-123397000D01*
X134118860Y-123398875D01*
X133939875Y-123577860D01*
X133799247Y-123788324D01*
X133702381Y-124022179D01*
X133653000Y-124270439D01*
X133653000Y-124523561D01*
X133702381Y-124771821D01*
X133799247Y-125005676D01*
X133939875Y-125216140D01*
X134118860Y-125395125D01*
X134121666Y-125397000D01*
X134118860Y-125398875D01*
X133939875Y-125577860D01*
X133799247Y-125788324D01*
X133702381Y-126022179D01*
X133653000Y-126270439D01*
X133653000Y-126523561D01*
X133702381Y-126771821D01*
X133799247Y-127005676D01*
X133939875Y-127216140D01*
X134118860Y-127395125D01*
X134121666Y-127397000D01*
X134118860Y-127398875D01*
X133939875Y-127577860D01*
X133799247Y-127788324D01*
X133702381Y-128022179D01*
X133653000Y-128270439D01*
X133653000Y-128523561D01*
X133702381Y-128771821D01*
X133799247Y-129005676D01*
X133939875Y-129216140D01*
X134118860Y-129395125D01*
X134329324Y-129535753D01*
X134563179Y-129632619D01*
X134811439Y-129682000D01*
X135064561Y-129682000D01*
X135312821Y-129632619D01*
X135546676Y-129535753D01*
X135757140Y-129395125D01*
X135936125Y-129216140D01*
X135975641Y-129157000D01*
X137569599Y-129157000D01*
X143693754Y-135281155D01*
X143611860Y-135335875D01*
X143432875Y-135514860D01*
X143431000Y-135517666D01*
X143429125Y-135514860D01*
X143250140Y-135335875D01*
X143039676Y-135195247D01*
X142805821Y-135098381D01*
X142557561Y-135049000D01*
X142304439Y-135049000D01*
X142056179Y-135098381D01*
X141822324Y-135195247D01*
X141611860Y-135335875D01*
X141432875Y-135514860D01*
X141351733Y-135636297D01*
X141316527Y-135628078D01*
X140610605Y-136334000D01*
X141316527Y-137039922D01*
X141351733Y-137031703D01*
X141432875Y-137153140D01*
X141611860Y-137332125D01*
X141822324Y-137472753D01*
X142056179Y-137569619D01*
X142304439Y-137619000D01*
X142557561Y-137619000D01*
X142805821Y-137569619D01*
X143039676Y-137472753D01*
X143250140Y-137332125D01*
X143429125Y-137153140D01*
X143431000Y-137150334D01*
X143432875Y-137153140D01*
X143611860Y-137332125D01*
X143822324Y-137472753D01*
X144056179Y-137569619D01*
X144304439Y-137619000D01*
X144557561Y-137619000D01*
X144805821Y-137569619D01*
X145039676Y-137472753D01*
X145247870Y-137333642D01*
X145250463Y-137338494D01*
X145329815Y-137435185D01*
X145426506Y-137514537D01*
X145536820Y-137573502D01*
X145656518Y-137609812D01*
X145781000Y-137622072D01*
X147081000Y-137622072D01*
X147205482Y-137609812D01*
X147325180Y-137573502D01*
X147435494Y-137514537D01*
X147532185Y-137435185D01*
X147611537Y-137338494D01*
X147670502Y-137228180D01*
X147673126Y-137219527D01*
X152679078Y-137219527D01*
X152732466Y-137448201D01*
X152962374Y-137554095D01*
X153208524Y-137613102D01*
X153461455Y-137622952D01*
X153711449Y-137583270D01*
X153948896Y-137495578D01*
X154037534Y-137448201D01*
X154090922Y-137219527D01*
X153385000Y-136513605D01*
X152679078Y-137219527D01*
X147673126Y-137219527D01*
X147706812Y-137108482D01*
X147714438Y-137031052D01*
X147830576Y-136968974D01*
X147946301Y-136874001D01*
X147970104Y-136844997D01*
X149074402Y-135740700D01*
X152243516Y-135740700D01*
X152164905Y-135911374D01*
X152105898Y-136157524D01*
X152096048Y-136410455D01*
X152135730Y-136660449D01*
X152223422Y-136897896D01*
X152270799Y-136986534D01*
X152499473Y-137039922D01*
X153205395Y-136334000D01*
X153191253Y-136319858D01*
X153370858Y-136140253D01*
X153385000Y-136154395D01*
X153399143Y-136140253D01*
X153578748Y-136319858D01*
X153564605Y-136334000D01*
X154270527Y-137039922D01*
X154305733Y-137031703D01*
X154386875Y-137153140D01*
X154565860Y-137332125D01*
X154776324Y-137472753D01*
X155010179Y-137569619D01*
X155258439Y-137619000D01*
X155511561Y-137619000D01*
X155759821Y-137569619D01*
X155993676Y-137472753D01*
X156204140Y-137332125D01*
X156383125Y-137153140D01*
X156385000Y-137150334D01*
X156386875Y-137153140D01*
X156565860Y-137332125D01*
X156776324Y-137472753D01*
X157010179Y-137569619D01*
X157258439Y-137619000D01*
X157511561Y-137619000D01*
X157759821Y-137569619D01*
X157993676Y-137472753D01*
X158201870Y-137333642D01*
X158204463Y-137338494D01*
X158283815Y-137435185D01*
X158380506Y-137514537D01*
X158490820Y-137573502D01*
X158610518Y-137609812D01*
X158735000Y-137622072D01*
X160035000Y-137622072D01*
X160159482Y-137609812D01*
X160279180Y-137573502D01*
X160389494Y-137514537D01*
X160486185Y-137435185D01*
X160565537Y-137338494D01*
X160624502Y-137228180D01*
X160660812Y-137108482D01*
X160673072Y-136984000D01*
X160673072Y-135684000D01*
X160660812Y-135559518D01*
X160624502Y-135439820D01*
X160565537Y-135329506D01*
X160486185Y-135232815D01*
X160389494Y-135153463D01*
X160279180Y-135094498D01*
X160159482Y-135058188D01*
X160082052Y-135050562D01*
X160019974Y-134934424D01*
X159925001Y-134818699D01*
X159895997Y-134794896D01*
X159767000Y-134665899D01*
X159767000Y-125755000D01*
X164877815Y-125755000D01*
X164906487Y-126046111D01*
X164991401Y-126326034D01*
X165129294Y-126584014D01*
X165314866Y-126810134D01*
X165540986Y-126995706D01*
X165798966Y-127133599D01*
X166078889Y-127218513D01*
X166297050Y-127240000D01*
X166442950Y-127240000D01*
X166661111Y-127218513D01*
X166941034Y-127133599D01*
X167199014Y-126995706D01*
X167425134Y-126810134D01*
X167610706Y-126584014D01*
X167748599Y-126326034D01*
X167833513Y-126046111D01*
X167862185Y-125755000D01*
X167833513Y-125463889D01*
X167748599Y-125183966D01*
X167610706Y-124925986D01*
X167425134Y-124699866D01*
X167395313Y-124675393D01*
X167464180Y-124654502D01*
X167574494Y-124595537D01*
X167671185Y-124516185D01*
X167750537Y-124419494D01*
X167809502Y-124309180D01*
X167845812Y-124189482D01*
X167858072Y-124065000D01*
X167858072Y-122365000D01*
X167845812Y-122240518D01*
X167809502Y-122120820D01*
X167750537Y-122010506D01*
X167671185Y-121913815D01*
X167574494Y-121834463D01*
X167464180Y-121775498D01*
X167344482Y-121739188D01*
X167220000Y-121726928D01*
X165520000Y-121726928D01*
X165395518Y-121739188D01*
X165275820Y-121775498D01*
X165165506Y-121834463D01*
X165068815Y-121913815D01*
X164989463Y-122010506D01*
X164930498Y-122120820D01*
X164894188Y-122240518D01*
X164881928Y-122365000D01*
X164881928Y-124065000D01*
X164894188Y-124189482D01*
X164930498Y-124309180D01*
X164989463Y-124419494D01*
X165068815Y-124516185D01*
X165165506Y-124595537D01*
X165275820Y-124654502D01*
X165344687Y-124675393D01*
X165314866Y-124699866D01*
X165129294Y-124925986D01*
X164991401Y-125183966D01*
X164906487Y-125463889D01*
X164877815Y-125755000D01*
X159767000Y-125755000D01*
X159767000Y-117452323D01*
X159770676Y-117415000D01*
X159767000Y-117377677D01*
X159767000Y-117377667D01*
X159756003Y-117266014D01*
X159712546Y-117122753D01*
X159641974Y-116990724D01*
X159547001Y-116874999D01*
X159518004Y-116851202D01*
X159175210Y-116508408D01*
X159219000Y-116288260D01*
X159219000Y-115995740D01*
X159161932Y-115708842D01*
X159049990Y-115438589D01*
X158887475Y-115195368D01*
X158680632Y-114988525D01*
X158507271Y-114872689D01*
X158582792Y-114630397D01*
X157734000Y-113781605D01*
X156885208Y-114630397D01*
X156960729Y-114872689D01*
X156787368Y-114988525D01*
X156580525Y-115195368D01*
X156418010Y-115438589D01*
X156306068Y-115708842D01*
X156249000Y-115995740D01*
X156249000Y-116288260D01*
X156306068Y-116575158D01*
X156418010Y-116845411D01*
X156580525Y-117088632D01*
X156787368Y-117295475D01*
X156961760Y-117412000D01*
X156787368Y-117528525D01*
X156580525Y-117735368D01*
X156418010Y-117978589D01*
X156306068Y-118248842D01*
X156249000Y-118535740D01*
X156249000Y-118828260D01*
X156306068Y-119115158D01*
X156418010Y-119385411D01*
X156580525Y-119628632D01*
X156787368Y-119835475D01*
X156927471Y-119929088D01*
X156763080Y-120038931D01*
X156550931Y-120251080D01*
X156384246Y-120500541D01*
X156269432Y-120777728D01*
X156210900Y-121071988D01*
X156210900Y-121372012D01*
X156269432Y-121666272D01*
X156384246Y-121943459D01*
X156550931Y-122192920D01*
X156763080Y-122405069D01*
X157012541Y-122571754D01*
X157289728Y-122686568D01*
X157583988Y-122745100D01*
X157884012Y-122745100D01*
X158178272Y-122686568D01*
X158247000Y-122658100D01*
X158247001Y-134220700D01*
X148796922Y-134220700D01*
X148759599Y-134217024D01*
X148722276Y-134220700D01*
X148722267Y-134220700D01*
X148610614Y-134231697D01*
X148467353Y-134275154D01*
X148335324Y-134345726D01*
X148219599Y-134440699D01*
X148195801Y-134469697D01*
X147477534Y-135187964D01*
X147435494Y-135153463D01*
X147325180Y-135094498D01*
X147205482Y-135058188D01*
X147081000Y-135045928D01*
X145781000Y-135045928D01*
X145656518Y-135058188D01*
X145628799Y-135066597D01*
X138448204Y-127886003D01*
X138424401Y-127856999D01*
X138308676Y-127762026D01*
X138176647Y-127691454D01*
X138033386Y-127647997D01*
X137921733Y-127637000D01*
X137921722Y-127637000D01*
X137884400Y-127633324D01*
X137847078Y-127637000D01*
X135975641Y-127637000D01*
X135936125Y-127577860D01*
X135757140Y-127398875D01*
X135754334Y-127397000D01*
X135757140Y-127395125D01*
X135936125Y-127216140D01*
X136076753Y-127005676D01*
X136173619Y-126771821D01*
X136223000Y-126523561D01*
X136223000Y-126270439D01*
X136209124Y-126200677D01*
X140427802Y-121982000D01*
X141215822Y-121982000D01*
X141340525Y-122168632D01*
X141547368Y-122375475D01*
X141721760Y-122492000D01*
X141547368Y-122608525D01*
X141340525Y-122815368D01*
X141178010Y-123058589D01*
X141066068Y-123328842D01*
X141009000Y-123615740D01*
X141009000Y-123908260D01*
X141066068Y-124195158D01*
X141178010Y-124465411D01*
X141340525Y-124708632D01*
X141547368Y-124915475D01*
X141790589Y-125077990D01*
X142060842Y-125189932D01*
X142347740Y-125247000D01*
X142640260Y-125247000D01*
X142927158Y-125189932D01*
X143197411Y-125077990D01*
X143440632Y-124915475D01*
X143647475Y-124708632D01*
X143809990Y-124465411D01*
X143921932Y-124195158D01*
X143979000Y-123908260D01*
X143979000Y-123615740D01*
X143921932Y-123328842D01*
X143809990Y-123058589D01*
X143647475Y-122815368D01*
X143440632Y-122608525D01*
X143266240Y-122492000D01*
X143440632Y-122375475D01*
X143647475Y-122168632D01*
X143809990Y-121925411D01*
X143921932Y-121655158D01*
X143979000Y-121368260D01*
X143979000Y-121075740D01*
X143921932Y-120788842D01*
X143809990Y-120518589D01*
X143647475Y-120275368D01*
X143440632Y-120068525D01*
X143266240Y-119952000D01*
X143440632Y-119835475D01*
X143647475Y-119628632D01*
X143809990Y-119385411D01*
X143921932Y-119115158D01*
X143979000Y-118828260D01*
X143979000Y-118535740D01*
X143921932Y-118248842D01*
X143809990Y-117978589D01*
X143647475Y-117735368D01*
X143440632Y-117528525D01*
X143266240Y-117412000D01*
X143440632Y-117295475D01*
X143647475Y-117088632D01*
X143809990Y-116845411D01*
X143921932Y-116575158D01*
X143979000Y-116288260D01*
X143979000Y-115995740D01*
X143921932Y-115708842D01*
X143809990Y-115438589D01*
X143647475Y-115195368D01*
X143440632Y-114988525D01*
X143266240Y-114872000D01*
X143440632Y-114755475D01*
X143647475Y-114548632D01*
X143809990Y-114305411D01*
X143921932Y-114035158D01*
X143979000Y-113748260D01*
X143979000Y-113670531D01*
X156243389Y-113670531D01*
X156285401Y-113960019D01*
X156383081Y-114235747D01*
X156456528Y-114373157D01*
X156705603Y-114450792D01*
X157554395Y-113602000D01*
X157913605Y-113602000D01*
X158762397Y-114450792D01*
X159011472Y-114373157D01*
X159137371Y-114109117D01*
X159209339Y-113825589D01*
X159224611Y-113533469D01*
X159182599Y-113243981D01*
X159084919Y-112968253D01*
X159011472Y-112830843D01*
X158762397Y-112753208D01*
X157913605Y-113602000D01*
X157554395Y-113602000D01*
X156705603Y-112753208D01*
X156456528Y-112830843D01*
X156330629Y-113094883D01*
X156258661Y-113378411D01*
X156243389Y-113670531D01*
X143979000Y-113670531D01*
X143979000Y-113455740D01*
X143921932Y-113168842D01*
X143809990Y-112898589D01*
X143647475Y-112655368D01*
X143565710Y-112573603D01*
X156885208Y-112573603D01*
X157734000Y-113422395D01*
X158582792Y-112573603D01*
X158505157Y-112324528D01*
X158241117Y-112198629D01*
X157957589Y-112126661D01*
X157665469Y-112111389D01*
X157375981Y-112153401D01*
X157100253Y-112251081D01*
X156962843Y-112324528D01*
X156885208Y-112573603D01*
X143565710Y-112573603D01*
X143440632Y-112448525D01*
X143197411Y-112286010D01*
X142927158Y-112174068D01*
X142640260Y-112117000D01*
X142347740Y-112117000D01*
X142060842Y-112174068D01*
X141790589Y-112286010D01*
X141547368Y-112448525D01*
X141340525Y-112655368D01*
X141178010Y-112898589D01*
X141066068Y-113168842D01*
X141059789Y-113200409D01*
X136187596Y-118072603D01*
X136187270Y-118070551D01*
X136099578Y-117833104D01*
X136052201Y-117744466D01*
X135823527Y-117691078D01*
X135117605Y-118397000D01*
X135131748Y-118411143D01*
X134952143Y-118590748D01*
X134938000Y-118576605D01*
X134232078Y-119282527D01*
X134240297Y-119317733D01*
X134118860Y-119398875D01*
X133939875Y-119577860D01*
X133799247Y-119788324D01*
X133702381Y-120022179D01*
X133653000Y-120270439D01*
X131724000Y-120270439D01*
X131724000Y-118473455D01*
X133649048Y-118473455D01*
X133688730Y-118723449D01*
X133776422Y-118960896D01*
X133823799Y-119049534D01*
X134052473Y-119102922D01*
X134758395Y-118397000D01*
X134052473Y-117691078D01*
X133823799Y-117744466D01*
X133717905Y-117974374D01*
X133658898Y-118220524D01*
X133649048Y-118473455D01*
X131724000Y-118473455D01*
X131724000Y-117511473D01*
X134232078Y-117511473D01*
X134938000Y-118217395D01*
X135643922Y-117511473D01*
X135590534Y-117282799D01*
X135360626Y-117176905D01*
X135114476Y-117117898D01*
X134861545Y-117108048D01*
X134611551Y-117147730D01*
X134374104Y-117235422D01*
X134285466Y-117282799D01*
X134232078Y-117511473D01*
X131724000Y-117511473D01*
X131724000Y-113195015D01*
X131817512Y-113420773D01*
X132094937Y-113835968D01*
X132448032Y-114189063D01*
X132863227Y-114466488D01*
X133324568Y-114657582D01*
X133814324Y-114755000D01*
X134313676Y-114755000D01*
X134803432Y-114657582D01*
X135264773Y-114466488D01*
X135679968Y-114189063D01*
X136033063Y-113835968D01*
X136310488Y-113420773D01*
X136501582Y-112959432D01*
X136599000Y-112469676D01*
X136599000Y-111970324D01*
X136501582Y-111480568D01*
X136310488Y-111019227D01*
X136033063Y-110604032D01*
X135679968Y-110250937D01*
X135264773Y-109973512D01*
X135039018Y-109880001D01*
X165188982Y-109880001D01*
X164963227Y-109973512D01*
X164963227Y-109973512D01*
G37*
X164963227Y-109973512D02*
X164548032Y-110250937D01*
X164194937Y-110604032D01*
X163917512Y-111019227D01*
X163726418Y-111480568D01*
X163629000Y-111970324D01*
X163629000Y-112469676D01*
X163726418Y-112959432D01*
X163917512Y-113420773D01*
X164194937Y-113835968D01*
X164548032Y-114189063D01*
X164963227Y-114466488D01*
X165424568Y-114657582D01*
X165914324Y-114755000D01*
X166413676Y-114755000D01*
X166903432Y-114657582D01*
X167364773Y-114466488D01*
X167779968Y-114189063D01*
X168133063Y-113835968D01*
X168410488Y-113420773D01*
X168504001Y-113195013D01*
X168504000Y-135724985D01*
X168410488Y-135499227D01*
X168133063Y-135084032D01*
X167779968Y-134730937D01*
X167364773Y-134453512D01*
X166903432Y-134262418D01*
X166413676Y-134165000D01*
X165914324Y-134165000D01*
X165424568Y-134262418D01*
X164963227Y-134453512D01*
X164548032Y-134730937D01*
X164194937Y-135084032D01*
X163917512Y-135499227D01*
X163726418Y-135960568D01*
X163629000Y-136450324D01*
X163629000Y-136949676D01*
X163726418Y-137439432D01*
X163917512Y-137900773D01*
X164194937Y-138315968D01*
X164548032Y-138669063D01*
X164963227Y-138946488D01*
X165188987Y-139040001D01*
X135039018Y-139039999D01*
X135264773Y-138946488D01*
X135679968Y-138669063D01*
X136033063Y-138315968D01*
X136310488Y-137900773D01*
X136501582Y-137439432D01*
X136545323Y-137219527D01*
X139725078Y-137219527D01*
X139778466Y-137448201D01*
X140008374Y-137554095D01*
X140254524Y-137613102D01*
X140507455Y-137622952D01*
X140757449Y-137583270D01*
X140994896Y-137495578D01*
X141083534Y-137448201D01*
X141136922Y-137219527D01*
X140431000Y-136513605D01*
X139725078Y-137219527D01*
X136545323Y-137219527D01*
X136599000Y-136949676D01*
X136599000Y-136450324D01*
X136591070Y-136410455D01*
X139142048Y-136410455D01*
X139181730Y-136660449D01*
X139269422Y-136897896D01*
X139316799Y-136986534D01*
X139545473Y-137039922D01*
X140251395Y-136334000D01*
X139545473Y-135628078D01*
X139316799Y-135681466D01*
X139210905Y-135911374D01*
X139151898Y-136157524D01*
X139142048Y-136410455D01*
X136591070Y-136410455D01*
X136501582Y-135960568D01*
X136310488Y-135499227D01*
X136276576Y-135448473D01*
X139725078Y-135448473D01*
X140431000Y-136154395D01*
X141136922Y-135448473D01*
X141083534Y-135219799D01*
X140853626Y-135113905D01*
X140607476Y-135054898D01*
X140354545Y-135045048D01*
X140104551Y-135084730D01*
X139867104Y-135172422D01*
X139778466Y-135219799D01*
X139725078Y-135448473D01*
X136276576Y-135448473D01*
X136033063Y-135084032D01*
X135679968Y-134730937D01*
X135264773Y-134453512D01*
X134803432Y-134262418D01*
X134313676Y-134165000D01*
X133814324Y-134165000D01*
X133324568Y-134262418D01*
X132863227Y-134453512D01*
X132448032Y-134730937D01*
X132094937Y-135084032D01*
X131817512Y-135499227D01*
X131724000Y-135724985D01*
X131724000Y-120270439D01*
X133653000Y-120270439D01*
X133653000Y-120523561D01*
X133702381Y-120771821D01*
X133799247Y-121005676D01*
X133939875Y-121216140D01*
X134118860Y-121395125D01*
X134121666Y-121397000D01*
X134118860Y-121398875D01*
X133939875Y-121577860D01*
X133799247Y-121788324D01*
X133702381Y-122022179D01*
X133653000Y-122270439D01*
X133653000Y-122523561D01*
X133702381Y-122771821D01*
X133799247Y-123005676D01*
X133939875Y-123216140D01*
X134118860Y-123395125D01*
X134121666Y-123397000D01*
X134118860Y-123398875D01*
X133939875Y-123577860D01*
X133799247Y-123788324D01*
X133702381Y-124022179D01*
X133653000Y-124270439D01*
X133653000Y-124523561D01*
X133702381Y-124771821D01*
X133799247Y-125005676D01*
X133939875Y-125216140D01*
X134118860Y-125395125D01*
X134121666Y-125397000D01*
X134118860Y-125398875D01*
X133939875Y-125577860D01*
X133799247Y-125788324D01*
X133702381Y-126022179D01*
X133653000Y-126270439D01*
X133653000Y-126523561D01*
X133702381Y-126771821D01*
X133799247Y-127005676D01*
X133939875Y-127216140D01*
X134118860Y-127395125D01*
X134121666Y-127397000D01*
X134118860Y-127398875D01*
X133939875Y-127577860D01*
X133799247Y-127788324D01*
X133702381Y-128022179D01*
X133653000Y-128270439D01*
X133653000Y-128523561D01*
X133702381Y-128771821D01*
X133799247Y-129005676D01*
X133939875Y-129216140D01*
X134118860Y-129395125D01*
X134329324Y-129535753D01*
X134563179Y-129632619D01*
X134811439Y-129682000D01*
X135064561Y-129682000D01*
X135312821Y-129632619D01*
X135546676Y-129535753D01*
X135757140Y-129395125D01*
X135936125Y-129216140D01*
X135975641Y-129157000D01*
X137569599Y-129157000D01*
X143693754Y-135281155D01*
X143611860Y-135335875D01*
X143432875Y-135514860D01*
X143431000Y-135517666D01*
X143429125Y-135514860D01*
X143250140Y-135335875D01*
X143039676Y-135195247D01*
X142805821Y-135098381D01*
X142557561Y-135049000D01*
X142304439Y-135049000D01*
X142056179Y-135098381D01*
X141822324Y-135195247D01*
X141611860Y-135335875D01*
X141432875Y-135514860D01*
X141351733Y-135636297D01*
X141316527Y-135628078D01*
X140610605Y-136334000D01*
X141316527Y-137039922D01*
X141351733Y-137031703D01*
X141432875Y-137153140D01*
X141611860Y-137332125D01*
X141822324Y-137472753D01*
X142056179Y-137569619D01*
X142304439Y-137619000D01*
X142557561Y-137619000D01*
X142805821Y-137569619D01*
X143039676Y-137472753D01*
X143250140Y-137332125D01*
X143429125Y-137153140D01*
X143431000Y-137150334D01*
X143432875Y-137153140D01*
X143611860Y-137332125D01*
X143822324Y-137472753D01*
X144056179Y-137569619D01*
X144304439Y-137619000D01*
X144557561Y-137619000D01*
X144805821Y-137569619D01*
X145039676Y-137472753D01*
X145247870Y-137333642D01*
X145250463Y-137338494D01*
X145329815Y-137435185D01*
X145426506Y-137514537D01*
X145536820Y-137573502D01*
X145656518Y-137609812D01*
X145781000Y-137622072D01*
X147081000Y-137622072D01*
X147205482Y-137609812D01*
X147325180Y-137573502D01*
X147435494Y-137514537D01*
X147532185Y-137435185D01*
X147611537Y-137338494D01*
X147670502Y-137228180D01*
X147673126Y-137219527D01*
X152679078Y-137219527D01*
X152732466Y-137448201D01*
X152962374Y-137554095D01*
X153208524Y-137613102D01*
X153461455Y-137622952D01*
X153711449Y-137583270D01*
X153948896Y-137495578D01*
X154037534Y-137448201D01*
X154090922Y-137219527D01*
X153385000Y-136513605D01*
X152679078Y-137219527D01*
X147673126Y-137219527D01*
X147706812Y-137108482D01*
X147714438Y-137031052D01*
X147830576Y-136968974D01*
X147946301Y-136874001D01*
X147970104Y-136844997D01*
X149074402Y-135740700D01*
X152243516Y-135740700D01*
X152164905Y-135911374D01*
X152105898Y-136157524D01*
X152096048Y-136410455D01*
X152135730Y-136660449D01*
X152223422Y-136897896D01*
X152270799Y-136986534D01*
X152499473Y-137039922D01*
X153205395Y-136334000D01*
X153191253Y-136319858D01*
X153370858Y-136140253D01*
X153385000Y-136154395D01*
X153399143Y-136140253D01*
X153578748Y-136319858D01*
X153564605Y-136334000D01*
X154270527Y-137039922D01*
X154305733Y-137031703D01*
X154386875Y-137153140D01*
X154565860Y-137332125D01*
X154776324Y-137472753D01*
X155010179Y-137569619D01*
X155258439Y-137619000D01*
X155511561Y-137619000D01*
X155759821Y-137569619D01*
X155993676Y-137472753D01*
X156204140Y-137332125D01*
X156383125Y-137153140D01*
X156385000Y-137150334D01*
X156386875Y-137153140D01*
X156565860Y-137332125D01*
X156776324Y-137472753D01*
X157010179Y-137569619D01*
X157258439Y-137619000D01*
X157511561Y-137619000D01*
X157759821Y-137569619D01*
X157993676Y-137472753D01*
X158201870Y-137333642D01*
X158204463Y-137338494D01*
X158283815Y-137435185D01*
X158380506Y-137514537D01*
X158490820Y-137573502D01*
X158610518Y-137609812D01*
X158735000Y-137622072D01*
X160035000Y-137622072D01*
X160159482Y-137609812D01*
X160279180Y-137573502D01*
X160389494Y-137514537D01*
X160486185Y-137435185D01*
X160565537Y-137338494D01*
X160624502Y-137228180D01*
X160660812Y-137108482D01*
X160673072Y-136984000D01*
X160673072Y-135684000D01*
X160660812Y-135559518D01*
X160624502Y-135439820D01*
X160565537Y-135329506D01*
X160486185Y-135232815D01*
X160389494Y-135153463D01*
X160279180Y-135094498D01*
X160159482Y-135058188D01*
X160082052Y-135050562D01*
X160019974Y-134934424D01*
X159925001Y-134818699D01*
X159895997Y-134794896D01*
X159767000Y-134665899D01*
X159767000Y-125755000D01*
X164877815Y-125755000D01*
X164906487Y-126046111D01*
X164991401Y-126326034D01*
X165129294Y-126584014D01*
X165314866Y-126810134D01*
X165540986Y-126995706D01*
X165798966Y-127133599D01*
X166078889Y-127218513D01*
X166297050Y-127240000D01*
X166442950Y-127240000D01*
X166661111Y-127218513D01*
X166941034Y-127133599D01*
X167199014Y-126995706D01*
X167425134Y-126810134D01*
X167610706Y-126584014D01*
X167748599Y-126326034D01*
X167833513Y-126046111D01*
X167862185Y-125755000D01*
X167833513Y-125463889D01*
X167748599Y-125183966D01*
X167610706Y-124925986D01*
X167425134Y-124699866D01*
X167395313Y-124675393D01*
X167464180Y-124654502D01*
X167574494Y-124595537D01*
X167671185Y-124516185D01*
X167750537Y-124419494D01*
X167809502Y-124309180D01*
X167845812Y-124189482D01*
X167858072Y-124065000D01*
X167858072Y-122365000D01*
X167845812Y-122240518D01*
X167809502Y-122120820D01*
X167750537Y-122010506D01*
X167671185Y-121913815D01*
X167574494Y-121834463D01*
X167464180Y-121775498D01*
X167344482Y-121739188D01*
X167220000Y-121726928D01*
X165520000Y-121726928D01*
X165395518Y-121739188D01*
X165275820Y-121775498D01*
X165165506Y-121834463D01*
X165068815Y-121913815D01*
X164989463Y-122010506D01*
X164930498Y-122120820D01*
X164894188Y-122240518D01*
X164881928Y-122365000D01*
X164881928Y-124065000D01*
X164894188Y-124189482D01*
X164930498Y-124309180D01*
X164989463Y-124419494D01*
X165068815Y-124516185D01*
X165165506Y-124595537D01*
X165275820Y-124654502D01*
X165344687Y-124675393D01*
X165314866Y-124699866D01*
X165129294Y-124925986D01*
X164991401Y-125183966D01*
X164906487Y-125463889D01*
X164877815Y-125755000D01*
X159767000Y-125755000D01*
X159767000Y-117452323D01*
X159770676Y-117415000D01*
X159767000Y-117377677D01*
X159767000Y-117377667D01*
X159756003Y-117266014D01*
X159712546Y-117122753D01*
X159641974Y-116990724D01*
X159547001Y-116874999D01*
X159518004Y-116851202D01*
X159175210Y-116508408D01*
X159219000Y-116288260D01*
X159219000Y-115995740D01*
X159161932Y-115708842D01*
X159049990Y-115438589D01*
X158887475Y-115195368D01*
X158680632Y-114988525D01*
X158507271Y-114872689D01*
X158582792Y-114630397D01*
X157734000Y-113781605D01*
X156885208Y-114630397D01*
X156960729Y-114872689D01*
X156787368Y-114988525D01*
X156580525Y-115195368D01*
X156418010Y-115438589D01*
X156306068Y-115708842D01*
X156249000Y-115995740D01*
X156249000Y-116288260D01*
X156306068Y-116575158D01*
X156418010Y-116845411D01*
X156580525Y-117088632D01*
X156787368Y-117295475D01*
X156961760Y-117412000D01*
X156787368Y-117528525D01*
X156580525Y-117735368D01*
X156418010Y-117978589D01*
X156306068Y-118248842D01*
X156249000Y-118535740D01*
X156249000Y-118828260D01*
X156306068Y-119115158D01*
X156418010Y-119385411D01*
X156580525Y-119628632D01*
X156787368Y-119835475D01*
X156927471Y-119929088D01*
X156763080Y-120038931D01*
X156550931Y-120251080D01*
X156384246Y-120500541D01*
X156269432Y-120777728D01*
X156210900Y-121071988D01*
X156210900Y-121372012D01*
X156269432Y-121666272D01*
X156384246Y-121943459D01*
X156550931Y-122192920D01*
X156763080Y-122405069D01*
X157012541Y-122571754D01*
X157289728Y-122686568D01*
X157583988Y-122745100D01*
X157884012Y-122745100D01*
X158178272Y-122686568D01*
X158247000Y-122658100D01*
X158247001Y-134220700D01*
X148796922Y-134220700D01*
X148759599Y-134217024D01*
X148722276Y-134220700D01*
X148722267Y-134220700D01*
X148610614Y-134231697D01*
X148467353Y-134275154D01*
X148335324Y-134345726D01*
X148219599Y-134440699D01*
X148195801Y-134469697D01*
X147477534Y-135187964D01*
X147435494Y-135153463D01*
X147325180Y-135094498D01*
X147205482Y-135058188D01*
X147081000Y-135045928D01*
X145781000Y-135045928D01*
X145656518Y-135058188D01*
X145628799Y-135066597D01*
X138448204Y-127886003D01*
X138424401Y-127856999D01*
X138308676Y-127762026D01*
X138176647Y-127691454D01*
X138033386Y-127647997D01*
X137921733Y-127637000D01*
X137921722Y-127637000D01*
X137884400Y-127633324D01*
X137847078Y-127637000D01*
X135975641Y-127637000D01*
X135936125Y-127577860D01*
X135757140Y-127398875D01*
X135754334Y-127397000D01*
X135757140Y-127395125D01*
X135936125Y-127216140D01*
X136076753Y-127005676D01*
X136173619Y-126771821D01*
X136223000Y-126523561D01*
X136223000Y-126270439D01*
X136209124Y-126200677D01*
X140427802Y-121982000D01*
X141215822Y-121982000D01*
X141340525Y-122168632D01*
X141547368Y-122375475D01*
X141721760Y-122492000D01*
X141547368Y-122608525D01*
X141340525Y-122815368D01*
X141178010Y-123058589D01*
X141066068Y-123328842D01*
X141009000Y-123615740D01*
X141009000Y-123908260D01*
X141066068Y-124195158D01*
X141178010Y-124465411D01*
X141340525Y-124708632D01*
X141547368Y-124915475D01*
X141790589Y-125077990D01*
X142060842Y-125189932D01*
X142347740Y-125247000D01*
X142640260Y-125247000D01*
X142927158Y-125189932D01*
X143197411Y-125077990D01*
X143440632Y-124915475D01*
X143647475Y-124708632D01*
X143809990Y-124465411D01*
X143921932Y-124195158D01*
X143979000Y-123908260D01*
X143979000Y-123615740D01*
X143921932Y-123328842D01*
X143809990Y-123058589D01*
X143647475Y-122815368D01*
X143440632Y-122608525D01*
X143266240Y-122492000D01*
X143440632Y-122375475D01*
X143647475Y-122168632D01*
X143809990Y-121925411D01*
X143921932Y-121655158D01*
X143979000Y-121368260D01*
X143979000Y-121075740D01*
X143921932Y-120788842D01*
X143809990Y-120518589D01*
X143647475Y-120275368D01*
X143440632Y-120068525D01*
X143266240Y-119952000D01*
X143440632Y-119835475D01*
X143647475Y-119628632D01*
X143809990Y-119385411D01*
X143921932Y-119115158D01*
X143979000Y-118828260D01*
X143979000Y-118535740D01*
X143921932Y-118248842D01*
X143809990Y-117978589D01*
X143647475Y-117735368D01*
X143440632Y-117528525D01*
X143266240Y-117412000D01*
X143440632Y-117295475D01*
X143647475Y-117088632D01*
X143809990Y-116845411D01*
X143921932Y-116575158D01*
X143979000Y-116288260D01*
X143979000Y-115995740D01*
X143921932Y-115708842D01*
X143809990Y-115438589D01*
X143647475Y-115195368D01*
X143440632Y-114988525D01*
X143266240Y-114872000D01*
X143440632Y-114755475D01*
X143647475Y-114548632D01*
X143809990Y-114305411D01*
X143921932Y-114035158D01*
X143979000Y-113748260D01*
X143979000Y-113670531D01*
X156243389Y-113670531D01*
X156285401Y-113960019D01*
X156383081Y-114235747D01*
X156456528Y-114373157D01*
X156705603Y-114450792D01*
X157554395Y-113602000D01*
X157913605Y-113602000D01*
X158762397Y-114450792D01*
X159011472Y-114373157D01*
X159137371Y-114109117D01*
X159209339Y-113825589D01*
X159224611Y-113533469D01*
X159182599Y-113243981D01*
X159084919Y-112968253D01*
X159011472Y-112830843D01*
X158762397Y-112753208D01*
X157913605Y-113602000D01*
X157554395Y-113602000D01*
X156705603Y-112753208D01*
X156456528Y-112830843D01*
X156330629Y-113094883D01*
X156258661Y-113378411D01*
X156243389Y-113670531D01*
X143979000Y-113670531D01*
X143979000Y-113455740D01*
X143921932Y-113168842D01*
X143809990Y-112898589D01*
X143647475Y-112655368D01*
X143565710Y-112573603D01*
X156885208Y-112573603D01*
X157734000Y-113422395D01*
X158582792Y-112573603D01*
X158505157Y-112324528D01*
X158241117Y-112198629D01*
X157957589Y-112126661D01*
X157665469Y-112111389D01*
X157375981Y-112153401D01*
X157100253Y-112251081D01*
X156962843Y-112324528D01*
X156885208Y-112573603D01*
X143565710Y-112573603D01*
X143440632Y-112448525D01*
X143197411Y-112286010D01*
X142927158Y-112174068D01*
X142640260Y-112117000D01*
X142347740Y-112117000D01*
X142060842Y-112174068D01*
X141790589Y-112286010D01*
X141547368Y-112448525D01*
X141340525Y-112655368D01*
X141178010Y-112898589D01*
X141066068Y-113168842D01*
X141059789Y-113200409D01*
X136187596Y-118072603D01*
X136187270Y-118070551D01*
X136099578Y-117833104D01*
X136052201Y-117744466D01*
X135823527Y-117691078D01*
X135117605Y-118397000D01*
X135131748Y-118411143D01*
X134952143Y-118590748D01*
X134938000Y-118576605D01*
X134232078Y-119282527D01*
X134240297Y-119317733D01*
X134118860Y-119398875D01*
X133939875Y-119577860D01*
X133799247Y-119788324D01*
X133702381Y-120022179D01*
X133653000Y-120270439D01*
X131724000Y-120270439D01*
X131724000Y-118473455D01*
X133649048Y-118473455D01*
X133688730Y-118723449D01*
X133776422Y-118960896D01*
X133823799Y-119049534D01*
X134052473Y-119102922D01*
X134758395Y-118397000D01*
X134052473Y-117691078D01*
X133823799Y-117744466D01*
X133717905Y-117974374D01*
X133658898Y-118220524D01*
X133649048Y-118473455D01*
X131724000Y-118473455D01*
X131724000Y-117511473D01*
X134232078Y-117511473D01*
X134938000Y-118217395D01*
X135643922Y-117511473D01*
X135590534Y-117282799D01*
X135360626Y-117176905D01*
X135114476Y-117117898D01*
X134861545Y-117108048D01*
X134611551Y-117147730D01*
X134374104Y-117235422D01*
X134285466Y-117282799D01*
X134232078Y-117511473D01*
X131724000Y-117511473D01*
X131724000Y-113195015D01*
X131817512Y-113420773D01*
X132094937Y-113835968D01*
X132448032Y-114189063D01*
X132863227Y-114466488D01*
X133324568Y-114657582D01*
X133814324Y-114755000D01*
X134313676Y-114755000D01*
X134803432Y-114657582D01*
X135264773Y-114466488D01*
X135679968Y-114189063D01*
X136033063Y-113835968D01*
X136310488Y-113420773D01*
X136501582Y-112959432D01*
X136599000Y-112469676D01*
X136599000Y-111970324D01*
X136501582Y-111480568D01*
X136310488Y-111019227D01*
X136033063Y-110604032D01*
X135679968Y-110250937D01*
X135264773Y-109973512D01*
X135039018Y-109880001D01*
X165188982Y-109880001D01*
X164963227Y-109973512D01*
M02*
