G04 #@! TF.GenerationSoftware,KiCad,Pcbnew,(5.1.2)-1*
G04 #@! TF.CreationDate,2020-12-30T14:45:37+09:00*
G04 #@! TF.ProjectId,M5Atom_CAN,4d354174-6f6d-45f4-9341-4e2e6b696361,rev?*
G04 #@! TF.SameCoordinates,Original*
G04 #@! TF.FileFunction,Soldermask,Top*
G04 #@! TF.FilePolarity,Negative*
%FSLAX46Y46*%
G04 Gerber Fmt 4.6, Leading zero omitted, Abs format (unit mm)*
G04 Created by KiCad (PCBNEW (5.1.2)-1) date 2020-12-30 14:45:37*
%MOMM*%
%LPD*%
G04 APERTURE LIST*
%ADD10C,0.100000*%
G04 APERTURE END LIST*
D10*
G36*
X166733085Y-134823975D02*
G01*
X167088143Y-134971045D01*
X167088145Y-134971046D01*
X167407690Y-135184559D01*
X167679441Y-135456310D01*
X167815501Y-135659939D01*
X167892955Y-135775857D01*
X168040025Y-136130915D01*
X168115000Y-136507842D01*
X168115000Y-136892158D01*
X168040025Y-137269085D01*
X167892955Y-137624143D01*
X167892954Y-137624145D01*
X167679441Y-137943690D01*
X167407690Y-138215441D01*
X167088145Y-138428954D01*
X167088144Y-138428955D01*
X167088143Y-138428955D01*
X166733085Y-138576025D01*
X166356158Y-138651000D01*
X165971842Y-138651000D01*
X165594915Y-138576025D01*
X165239857Y-138428955D01*
X165239856Y-138428955D01*
X165239855Y-138428954D01*
X164920310Y-138215441D01*
X164648559Y-137943690D01*
X164435046Y-137624145D01*
X164435045Y-137624143D01*
X164287975Y-137269085D01*
X164213000Y-136892158D01*
X164213000Y-136507842D01*
X164287975Y-136130915D01*
X164435045Y-135775857D01*
X164512499Y-135659939D01*
X164648559Y-135456310D01*
X164920310Y-135184559D01*
X165239855Y-134971046D01*
X165239857Y-134971045D01*
X165594915Y-134823975D01*
X165971842Y-134749000D01*
X166356158Y-134749000D01*
X166733085Y-134823975D01*
X166733085Y-134823975D01*
G37*
G36*
X134633085Y-134823975D02*
G01*
X134988143Y-134971045D01*
X134988145Y-134971046D01*
X135307690Y-135184559D01*
X135579441Y-135456310D01*
X135715501Y-135659939D01*
X135792955Y-135775857D01*
X135940025Y-136130915D01*
X136015000Y-136507842D01*
X136015000Y-136892158D01*
X135940025Y-137269085D01*
X135792955Y-137624143D01*
X135792954Y-137624145D01*
X135579441Y-137943690D01*
X135307690Y-138215441D01*
X134988145Y-138428954D01*
X134988144Y-138428955D01*
X134988143Y-138428955D01*
X134633085Y-138576025D01*
X134256158Y-138651000D01*
X133871842Y-138651000D01*
X133494915Y-138576025D01*
X133139857Y-138428955D01*
X133139856Y-138428955D01*
X133139855Y-138428954D01*
X132820310Y-138215441D01*
X132548559Y-137943690D01*
X132335046Y-137624145D01*
X132335045Y-137624143D01*
X132187975Y-137269085D01*
X132113000Y-136892158D01*
X132113000Y-136507842D01*
X132187975Y-136130915D01*
X132335045Y-135775857D01*
X132412499Y-135659939D01*
X132548559Y-135456310D01*
X132820310Y-135184559D01*
X133139855Y-134971046D01*
X133139857Y-134971045D01*
X133494915Y-134823975D01*
X133871842Y-134749000D01*
X134256158Y-134749000D01*
X134633085Y-134823975D01*
X134633085Y-134823975D01*
G37*
G36*
X147132000Y-137035000D02*
G01*
X145730000Y-137035000D01*
X145730000Y-135633000D01*
X147132000Y-135633000D01*
X147132000Y-137035000D01*
X147132000Y-137035000D01*
G37*
G36*
X144635473Y-135659938D02*
G01*
X144763049Y-135712782D01*
X144877859Y-135789495D01*
X144975505Y-135887141D01*
X145052218Y-136001951D01*
X145105062Y-136129527D01*
X145132000Y-136264956D01*
X145132000Y-136403044D01*
X145105062Y-136538473D01*
X145052218Y-136666049D01*
X144975505Y-136780859D01*
X144877859Y-136878505D01*
X144763049Y-136955218D01*
X144635473Y-137008062D01*
X144500044Y-137035000D01*
X144361956Y-137035000D01*
X144226527Y-137008062D01*
X144098951Y-136955218D01*
X143984141Y-136878505D01*
X143886495Y-136780859D01*
X143809782Y-136666049D01*
X143756938Y-136538473D01*
X143730000Y-136403044D01*
X143730000Y-136264956D01*
X143756938Y-136129527D01*
X143809782Y-136001951D01*
X143886495Y-135887141D01*
X143984141Y-135789495D01*
X144098951Y-135712782D01*
X144226527Y-135659938D01*
X144361956Y-135633000D01*
X144500044Y-135633000D01*
X144635473Y-135659938D01*
X144635473Y-135659938D01*
G37*
G36*
X142635473Y-135659938D02*
G01*
X142763049Y-135712782D01*
X142877859Y-135789495D01*
X142975505Y-135887141D01*
X143052218Y-136001951D01*
X143105062Y-136129527D01*
X143132000Y-136264956D01*
X143132000Y-136403044D01*
X143105062Y-136538473D01*
X143052218Y-136666049D01*
X142975505Y-136780859D01*
X142877859Y-136878505D01*
X142763049Y-136955218D01*
X142635473Y-137008062D01*
X142500044Y-137035000D01*
X142361956Y-137035000D01*
X142226527Y-137008062D01*
X142098951Y-136955218D01*
X141984141Y-136878505D01*
X141886495Y-136780859D01*
X141809782Y-136666049D01*
X141756938Y-136538473D01*
X141730000Y-136403044D01*
X141730000Y-136264956D01*
X141756938Y-136129527D01*
X141809782Y-136001951D01*
X141886495Y-135887141D01*
X141984141Y-135789495D01*
X142098951Y-135712782D01*
X142226527Y-135659938D01*
X142361956Y-135633000D01*
X142500044Y-135633000D01*
X142635473Y-135659938D01*
X142635473Y-135659938D01*
G37*
G36*
X140635473Y-135659938D02*
G01*
X140763049Y-135712782D01*
X140877859Y-135789495D01*
X140975505Y-135887141D01*
X141052218Y-136001951D01*
X141105062Y-136129527D01*
X141132000Y-136264956D01*
X141132000Y-136403044D01*
X141105062Y-136538473D01*
X141052218Y-136666049D01*
X140975505Y-136780859D01*
X140877859Y-136878505D01*
X140763049Y-136955218D01*
X140635473Y-137008062D01*
X140500044Y-137035000D01*
X140361956Y-137035000D01*
X140226527Y-137008062D01*
X140098951Y-136955218D01*
X139984141Y-136878505D01*
X139886495Y-136780859D01*
X139809782Y-136666049D01*
X139756938Y-136538473D01*
X139730000Y-136403044D01*
X139730000Y-136264956D01*
X139756938Y-136129527D01*
X139809782Y-136001951D01*
X139886495Y-135887141D01*
X139984141Y-135789495D01*
X140098951Y-135712782D01*
X140226527Y-135659938D01*
X140361956Y-135633000D01*
X140500044Y-135633000D01*
X140635473Y-135659938D01*
X140635473Y-135659938D01*
G37*
G36*
X160086000Y-137035000D02*
G01*
X158684000Y-137035000D01*
X158684000Y-135633000D01*
X160086000Y-135633000D01*
X160086000Y-137035000D01*
X160086000Y-137035000D01*
G37*
G36*
X157589473Y-135659938D02*
G01*
X157717049Y-135712782D01*
X157831859Y-135789495D01*
X157929505Y-135887141D01*
X158006218Y-136001951D01*
X158059062Y-136129527D01*
X158086000Y-136264956D01*
X158086000Y-136403044D01*
X158059062Y-136538473D01*
X158006218Y-136666049D01*
X157929505Y-136780859D01*
X157831859Y-136878505D01*
X157717049Y-136955218D01*
X157589473Y-137008062D01*
X157454044Y-137035000D01*
X157315956Y-137035000D01*
X157180527Y-137008062D01*
X157052951Y-136955218D01*
X156938141Y-136878505D01*
X156840495Y-136780859D01*
X156763782Y-136666049D01*
X156710938Y-136538473D01*
X156684000Y-136403044D01*
X156684000Y-136264956D01*
X156710938Y-136129527D01*
X156763782Y-136001951D01*
X156840495Y-135887141D01*
X156938141Y-135789495D01*
X157052951Y-135712782D01*
X157180527Y-135659938D01*
X157315956Y-135633000D01*
X157454044Y-135633000D01*
X157589473Y-135659938D01*
X157589473Y-135659938D01*
G37*
G36*
X155589473Y-135659938D02*
G01*
X155717049Y-135712782D01*
X155831859Y-135789495D01*
X155929505Y-135887141D01*
X156006218Y-136001951D01*
X156059062Y-136129527D01*
X156086000Y-136264956D01*
X156086000Y-136403044D01*
X156059062Y-136538473D01*
X156006218Y-136666049D01*
X155929505Y-136780859D01*
X155831859Y-136878505D01*
X155717049Y-136955218D01*
X155589473Y-137008062D01*
X155454044Y-137035000D01*
X155315956Y-137035000D01*
X155180527Y-137008062D01*
X155052951Y-136955218D01*
X154938141Y-136878505D01*
X154840495Y-136780859D01*
X154763782Y-136666049D01*
X154710938Y-136538473D01*
X154684000Y-136403044D01*
X154684000Y-136264956D01*
X154710938Y-136129527D01*
X154763782Y-136001951D01*
X154840495Y-135887141D01*
X154938141Y-135789495D01*
X155052951Y-135712782D01*
X155180527Y-135659938D01*
X155315956Y-135633000D01*
X155454044Y-135633000D01*
X155589473Y-135659938D01*
X155589473Y-135659938D01*
G37*
G36*
X153589473Y-135659938D02*
G01*
X153717049Y-135712782D01*
X153831859Y-135789495D01*
X153929505Y-135887141D01*
X154006218Y-136001951D01*
X154059062Y-136129527D01*
X154086000Y-136264956D01*
X154086000Y-136403044D01*
X154059062Y-136538473D01*
X154006218Y-136666049D01*
X153929505Y-136780859D01*
X153831859Y-136878505D01*
X153717049Y-136955218D01*
X153589473Y-137008062D01*
X153454044Y-137035000D01*
X153315956Y-137035000D01*
X153180527Y-137008062D01*
X153052951Y-136955218D01*
X152938141Y-136878505D01*
X152840495Y-136780859D01*
X152763782Y-136666049D01*
X152710938Y-136538473D01*
X152684000Y-136403044D01*
X152684000Y-136264956D01*
X152710938Y-136129527D01*
X152763782Y-136001951D01*
X152840495Y-135887141D01*
X152938141Y-135789495D01*
X153052951Y-135712782D01*
X153180527Y-135659938D01*
X153315956Y-135633000D01*
X153454044Y-135633000D01*
X153589473Y-135659938D01*
X153589473Y-135659938D01*
G37*
G36*
X135142473Y-127722938D02*
G01*
X135270049Y-127775782D01*
X135384859Y-127852495D01*
X135482505Y-127950141D01*
X135559218Y-128064951D01*
X135612062Y-128192527D01*
X135639000Y-128327956D01*
X135639000Y-128466044D01*
X135612062Y-128601473D01*
X135559218Y-128729049D01*
X135482505Y-128843859D01*
X135384859Y-128941505D01*
X135270049Y-129018218D01*
X135142473Y-129071062D01*
X135007044Y-129098000D01*
X134868956Y-129098000D01*
X134733527Y-129071062D01*
X134605951Y-129018218D01*
X134491141Y-128941505D01*
X134393495Y-128843859D01*
X134316782Y-128729049D01*
X134263938Y-128601473D01*
X134237000Y-128466044D01*
X134237000Y-128327956D01*
X134263938Y-128192527D01*
X134316782Y-128064951D01*
X134393495Y-127950141D01*
X134491141Y-127852495D01*
X134605951Y-127775782D01*
X134733527Y-127722938D01*
X134868956Y-127696000D01*
X135007044Y-127696000D01*
X135142473Y-127722938D01*
X135142473Y-127722938D01*
G37*
G36*
X135142473Y-125722938D02*
G01*
X135270049Y-125775782D01*
X135384859Y-125852495D01*
X135482505Y-125950141D01*
X135559218Y-126064951D01*
X135612062Y-126192527D01*
X135639000Y-126327956D01*
X135639000Y-126466044D01*
X135612062Y-126601473D01*
X135559218Y-126729049D01*
X135482505Y-126843859D01*
X135384859Y-126941505D01*
X135270049Y-127018218D01*
X135142473Y-127071062D01*
X135007044Y-127098000D01*
X134868956Y-127098000D01*
X134733527Y-127071062D01*
X134605951Y-127018218D01*
X134491141Y-126941505D01*
X134393495Y-126843859D01*
X134316782Y-126729049D01*
X134263938Y-126601473D01*
X134237000Y-126466044D01*
X134237000Y-126327956D01*
X134263938Y-126192527D01*
X134316782Y-126064951D01*
X134393495Y-125950141D01*
X134491141Y-125852495D01*
X134605951Y-125775782D01*
X134733527Y-125722938D01*
X134868956Y-125696000D01*
X135007044Y-125696000D01*
X135142473Y-125722938D01*
X135142473Y-125722938D01*
G37*
G36*
X166480443Y-124860519D02*
G01*
X166546627Y-124867037D01*
X166716466Y-124918557D01*
X166872991Y-125002222D01*
X166892482Y-125018218D01*
X167010186Y-125114814D01*
X167093448Y-125216271D01*
X167122778Y-125252009D01*
X167206443Y-125408534D01*
X167257963Y-125578373D01*
X167275359Y-125755000D01*
X167257963Y-125931627D01*
X167206443Y-126101466D01*
X167122778Y-126257991D01*
X167093448Y-126293729D01*
X167010186Y-126395186D01*
X166923846Y-126466042D01*
X166872991Y-126507778D01*
X166716466Y-126591443D01*
X166546627Y-126642963D01*
X166480443Y-126649481D01*
X166414260Y-126656000D01*
X166325740Y-126656000D01*
X166259557Y-126649481D01*
X166193373Y-126642963D01*
X166023534Y-126591443D01*
X165867009Y-126507778D01*
X165816154Y-126466042D01*
X165729814Y-126395186D01*
X165646552Y-126293729D01*
X165617222Y-126257991D01*
X165533557Y-126101466D01*
X165482037Y-125931627D01*
X165464641Y-125755000D01*
X165482037Y-125578373D01*
X165533557Y-125408534D01*
X165617222Y-125252009D01*
X165646552Y-125216271D01*
X165729814Y-125114814D01*
X165847518Y-125018218D01*
X165867009Y-125002222D01*
X166023534Y-124918557D01*
X166193373Y-124867037D01*
X166259557Y-124860519D01*
X166325740Y-124854000D01*
X166414260Y-124854000D01*
X166480443Y-124860519D01*
X166480443Y-124860519D01*
G37*
G36*
X135142473Y-123722938D02*
G01*
X135270049Y-123775782D01*
X135384859Y-123852495D01*
X135482505Y-123950141D01*
X135559218Y-124064951D01*
X135612062Y-124192527D01*
X135639000Y-124327956D01*
X135639000Y-124466044D01*
X135612062Y-124601473D01*
X135559218Y-124729049D01*
X135482505Y-124843859D01*
X135384859Y-124941505D01*
X135270049Y-125018218D01*
X135142473Y-125071062D01*
X135007044Y-125098000D01*
X134868956Y-125098000D01*
X134733527Y-125071062D01*
X134605951Y-125018218D01*
X134491141Y-124941505D01*
X134393495Y-124843859D01*
X134316782Y-124729049D01*
X134263938Y-124601473D01*
X134237000Y-124466044D01*
X134237000Y-124327956D01*
X134263938Y-124192527D01*
X134316782Y-124064951D01*
X134393495Y-123950141D01*
X134491141Y-123852495D01*
X134605951Y-123775782D01*
X134733527Y-123722938D01*
X134868956Y-123696000D01*
X135007044Y-123696000D01*
X135142473Y-123722938D01*
X135142473Y-123722938D01*
G37*
G36*
X142607512Y-122865927D02*
G01*
X142756812Y-122895624D01*
X142920784Y-122963544D01*
X143068354Y-123062147D01*
X143193853Y-123187646D01*
X143292456Y-123335216D01*
X143360376Y-123499188D01*
X143395000Y-123673259D01*
X143395000Y-123850741D01*
X143360376Y-124024812D01*
X143292456Y-124188784D01*
X143193853Y-124336354D01*
X143068354Y-124461853D01*
X142920784Y-124560456D01*
X142756812Y-124628376D01*
X142607512Y-124658073D01*
X142582742Y-124663000D01*
X142405258Y-124663000D01*
X142380488Y-124658073D01*
X142231188Y-124628376D01*
X142067216Y-124560456D01*
X141919646Y-124461853D01*
X141794147Y-124336354D01*
X141695544Y-124188784D01*
X141627624Y-124024812D01*
X141593000Y-123850741D01*
X141593000Y-123673259D01*
X141627624Y-123499188D01*
X141695544Y-123335216D01*
X141794147Y-123187646D01*
X141919646Y-123062147D01*
X142067216Y-122963544D01*
X142231188Y-122895624D01*
X142380488Y-122865927D01*
X142405258Y-122861000D01*
X142582742Y-122861000D01*
X142607512Y-122865927D01*
X142607512Y-122865927D01*
G37*
G36*
X167271000Y-124116000D02*
G01*
X165469000Y-124116000D01*
X165469000Y-122314000D01*
X167271000Y-122314000D01*
X167271000Y-124116000D01*
X167271000Y-124116000D01*
G37*
G36*
X135142473Y-121722938D02*
G01*
X135270049Y-121775782D01*
X135384859Y-121852495D01*
X135482505Y-121950141D01*
X135559218Y-122064951D01*
X135612062Y-122192527D01*
X135639000Y-122327956D01*
X135639000Y-122466044D01*
X135612062Y-122601473D01*
X135559218Y-122729049D01*
X135482505Y-122843859D01*
X135384859Y-122941505D01*
X135270049Y-123018218D01*
X135142473Y-123071062D01*
X135007044Y-123098000D01*
X134868956Y-123098000D01*
X134733527Y-123071062D01*
X134605951Y-123018218D01*
X134491141Y-122941505D01*
X134393495Y-122843859D01*
X134316782Y-122729049D01*
X134263938Y-122601473D01*
X134237000Y-122466044D01*
X134237000Y-122327956D01*
X134263938Y-122192527D01*
X134316782Y-122064951D01*
X134393495Y-121950141D01*
X134491141Y-121852495D01*
X134605951Y-121775782D01*
X134733527Y-121722938D01*
X134868956Y-121696000D01*
X135007044Y-121696000D01*
X135142473Y-121722938D01*
X135142473Y-121722938D01*
G37*
G36*
X158007925Y-120318988D02*
G01*
X158178829Y-120389779D01*
X158178831Y-120389780D01*
X158229362Y-120423544D01*
X158332641Y-120492553D01*
X158463447Y-120623359D01*
X158566221Y-120777171D01*
X158637012Y-120948075D01*
X158673100Y-121129505D01*
X158673100Y-121314495D01*
X158637012Y-121495925D01*
X158566221Y-121666829D01*
X158566220Y-121666831D01*
X158463447Y-121820641D01*
X158332641Y-121951447D01*
X158178831Y-122054220D01*
X158178830Y-122054221D01*
X158178829Y-122054221D01*
X158007925Y-122125012D01*
X157826495Y-122161100D01*
X157641505Y-122161100D01*
X157460075Y-122125012D01*
X157289171Y-122054221D01*
X157289170Y-122054221D01*
X157289169Y-122054220D01*
X157135359Y-121951447D01*
X157004553Y-121820641D01*
X156901780Y-121666831D01*
X156901779Y-121666829D01*
X156830988Y-121495925D01*
X156794900Y-121314495D01*
X156794900Y-121129505D01*
X156830988Y-120948075D01*
X156901779Y-120777171D01*
X157004553Y-120623359D01*
X157135359Y-120492553D01*
X157238638Y-120423544D01*
X157289169Y-120389780D01*
X157289171Y-120389779D01*
X157460075Y-120318988D01*
X157641505Y-120282900D01*
X157826495Y-120282900D01*
X158007925Y-120318988D01*
X158007925Y-120318988D01*
G37*
G36*
X142607512Y-120325927D02*
G01*
X142756812Y-120355624D01*
X142920784Y-120423544D01*
X143068354Y-120522147D01*
X143193853Y-120647646D01*
X143292456Y-120795216D01*
X143360376Y-120959188D01*
X143395000Y-121133259D01*
X143395000Y-121310741D01*
X143360376Y-121484812D01*
X143292456Y-121648784D01*
X143193853Y-121796354D01*
X143068354Y-121921853D01*
X142920784Y-122020456D01*
X142756812Y-122088376D01*
X142607512Y-122118073D01*
X142582742Y-122123000D01*
X142405258Y-122123000D01*
X142380488Y-122118073D01*
X142231188Y-122088376D01*
X142067216Y-122020456D01*
X141919646Y-121921853D01*
X141794147Y-121796354D01*
X141695544Y-121648784D01*
X141627624Y-121484812D01*
X141593000Y-121310741D01*
X141593000Y-121133259D01*
X141627624Y-120959188D01*
X141695544Y-120795216D01*
X141794147Y-120647646D01*
X141919646Y-120522147D01*
X142067216Y-120423544D01*
X142231188Y-120355624D01*
X142380488Y-120325927D01*
X142405258Y-120321000D01*
X142582742Y-120321000D01*
X142607512Y-120325927D01*
X142607512Y-120325927D01*
G37*
G36*
X135142473Y-119722938D02*
G01*
X135270049Y-119775782D01*
X135384859Y-119852495D01*
X135482505Y-119950141D01*
X135559218Y-120064951D01*
X135612062Y-120192527D01*
X135639000Y-120327956D01*
X135639000Y-120466044D01*
X135612062Y-120601473D01*
X135559218Y-120729049D01*
X135482505Y-120843859D01*
X135384859Y-120941505D01*
X135270049Y-121018218D01*
X135142473Y-121071062D01*
X135007044Y-121098000D01*
X134868956Y-121098000D01*
X134733527Y-121071062D01*
X134605951Y-121018218D01*
X134491141Y-120941505D01*
X134393495Y-120843859D01*
X134316782Y-120729049D01*
X134263938Y-120601473D01*
X134237000Y-120466044D01*
X134237000Y-120327956D01*
X134263938Y-120192527D01*
X134316782Y-120064951D01*
X134393495Y-119950141D01*
X134491141Y-119852495D01*
X134605951Y-119775782D01*
X134733527Y-119722938D01*
X134868956Y-119696000D01*
X135007044Y-119696000D01*
X135142473Y-119722938D01*
X135142473Y-119722938D01*
G37*
G36*
X142607512Y-117785927D02*
G01*
X142756812Y-117815624D01*
X142920784Y-117883544D01*
X143068354Y-117982147D01*
X143193853Y-118107646D01*
X143292456Y-118255216D01*
X143360376Y-118419188D01*
X143395000Y-118593259D01*
X143395000Y-118770741D01*
X143360376Y-118944812D01*
X143292456Y-119108784D01*
X143193853Y-119256354D01*
X143068354Y-119381853D01*
X142920784Y-119480456D01*
X142756812Y-119548376D01*
X142607512Y-119578073D01*
X142582742Y-119583000D01*
X142405258Y-119583000D01*
X142380488Y-119578073D01*
X142231188Y-119548376D01*
X142067216Y-119480456D01*
X141919646Y-119381853D01*
X141794147Y-119256354D01*
X141695544Y-119108784D01*
X141627624Y-118944812D01*
X141593000Y-118770741D01*
X141593000Y-118593259D01*
X141627624Y-118419188D01*
X141695544Y-118255216D01*
X141794147Y-118107646D01*
X141919646Y-117982147D01*
X142067216Y-117883544D01*
X142231188Y-117815624D01*
X142380488Y-117785927D01*
X142405258Y-117781000D01*
X142582742Y-117781000D01*
X142607512Y-117785927D01*
X142607512Y-117785927D01*
G37*
G36*
X157847512Y-117785927D02*
G01*
X157996812Y-117815624D01*
X158160784Y-117883544D01*
X158308354Y-117982147D01*
X158433853Y-118107646D01*
X158532456Y-118255216D01*
X158600376Y-118419188D01*
X158635000Y-118593259D01*
X158635000Y-118770741D01*
X158600376Y-118944812D01*
X158532456Y-119108784D01*
X158433853Y-119256354D01*
X158308354Y-119381853D01*
X158160784Y-119480456D01*
X157996812Y-119548376D01*
X157847512Y-119578073D01*
X157822742Y-119583000D01*
X157645258Y-119583000D01*
X157620488Y-119578073D01*
X157471188Y-119548376D01*
X157307216Y-119480456D01*
X157159646Y-119381853D01*
X157034147Y-119256354D01*
X156935544Y-119108784D01*
X156867624Y-118944812D01*
X156833000Y-118770741D01*
X156833000Y-118593259D01*
X156867624Y-118419188D01*
X156935544Y-118255216D01*
X157034147Y-118107646D01*
X157159646Y-117982147D01*
X157307216Y-117883544D01*
X157471188Y-117815624D01*
X157620488Y-117785927D01*
X157645258Y-117781000D01*
X157822742Y-117781000D01*
X157847512Y-117785927D01*
X157847512Y-117785927D01*
G37*
G36*
X135142473Y-117722938D02*
G01*
X135270049Y-117775782D01*
X135384859Y-117852495D01*
X135482505Y-117950141D01*
X135559218Y-118064951D01*
X135612062Y-118192527D01*
X135639000Y-118327956D01*
X135639000Y-118466044D01*
X135612062Y-118601473D01*
X135559218Y-118729049D01*
X135482505Y-118843859D01*
X135384859Y-118941505D01*
X135270049Y-119018218D01*
X135142473Y-119071062D01*
X135007044Y-119098000D01*
X134868956Y-119098000D01*
X134733527Y-119071062D01*
X134605951Y-119018218D01*
X134491141Y-118941505D01*
X134393495Y-118843859D01*
X134316782Y-118729049D01*
X134263938Y-118601473D01*
X134237000Y-118466044D01*
X134237000Y-118327956D01*
X134263938Y-118192527D01*
X134316782Y-118064951D01*
X134393495Y-117950141D01*
X134491141Y-117852495D01*
X134605951Y-117775782D01*
X134733527Y-117722938D01*
X134868956Y-117696000D01*
X135007044Y-117696000D01*
X135142473Y-117722938D01*
X135142473Y-117722938D01*
G37*
G36*
X157847512Y-115245927D02*
G01*
X157996812Y-115275624D01*
X158160784Y-115343544D01*
X158308354Y-115442147D01*
X158433853Y-115567646D01*
X158532456Y-115715216D01*
X158600376Y-115879188D01*
X158635000Y-116053259D01*
X158635000Y-116230741D01*
X158600376Y-116404812D01*
X158532456Y-116568784D01*
X158433853Y-116716354D01*
X158308354Y-116841853D01*
X158160784Y-116940456D01*
X157996812Y-117008376D01*
X157847512Y-117038073D01*
X157822742Y-117043000D01*
X157645258Y-117043000D01*
X157620488Y-117038073D01*
X157471188Y-117008376D01*
X157307216Y-116940456D01*
X157159646Y-116841853D01*
X157034147Y-116716354D01*
X156935544Y-116568784D01*
X156867624Y-116404812D01*
X156833000Y-116230741D01*
X156833000Y-116053259D01*
X156867624Y-115879188D01*
X156935544Y-115715216D01*
X157034147Y-115567646D01*
X157159646Y-115442147D01*
X157307216Y-115343544D01*
X157471188Y-115275624D01*
X157620488Y-115245927D01*
X157645258Y-115241000D01*
X157822742Y-115241000D01*
X157847512Y-115245927D01*
X157847512Y-115245927D01*
G37*
G36*
X142607512Y-115245927D02*
G01*
X142756812Y-115275624D01*
X142920784Y-115343544D01*
X143068354Y-115442147D01*
X143193853Y-115567646D01*
X143292456Y-115715216D01*
X143360376Y-115879188D01*
X143395000Y-116053259D01*
X143395000Y-116230741D01*
X143360376Y-116404812D01*
X143292456Y-116568784D01*
X143193853Y-116716354D01*
X143068354Y-116841853D01*
X142920784Y-116940456D01*
X142756812Y-117008376D01*
X142607512Y-117038073D01*
X142582742Y-117043000D01*
X142405258Y-117043000D01*
X142380488Y-117038073D01*
X142231188Y-117008376D01*
X142067216Y-116940456D01*
X141919646Y-116841853D01*
X141794147Y-116716354D01*
X141695544Y-116568784D01*
X141627624Y-116404812D01*
X141593000Y-116230741D01*
X141593000Y-116053259D01*
X141627624Y-115879188D01*
X141695544Y-115715216D01*
X141794147Y-115567646D01*
X141919646Y-115442147D01*
X142067216Y-115343544D01*
X142231188Y-115275624D01*
X142380488Y-115245927D01*
X142405258Y-115241000D01*
X142582742Y-115241000D01*
X142607512Y-115245927D01*
X142607512Y-115245927D01*
G37*
G36*
X157847512Y-112705927D02*
G01*
X157996812Y-112735624D01*
X158160784Y-112803544D01*
X158308354Y-112902147D01*
X158433853Y-113027646D01*
X158532456Y-113175216D01*
X158600376Y-113339188D01*
X158635000Y-113513259D01*
X158635000Y-113690741D01*
X158600376Y-113864812D01*
X158532456Y-114028784D01*
X158433853Y-114176354D01*
X158308354Y-114301853D01*
X158160784Y-114400456D01*
X157996812Y-114468376D01*
X157847512Y-114498073D01*
X157822742Y-114503000D01*
X157645258Y-114503000D01*
X157620488Y-114498073D01*
X157471188Y-114468376D01*
X157307216Y-114400456D01*
X157159646Y-114301853D01*
X157034147Y-114176354D01*
X156935544Y-114028784D01*
X156867624Y-113864812D01*
X156833000Y-113690741D01*
X156833000Y-113513259D01*
X156867624Y-113339188D01*
X156935544Y-113175216D01*
X157034147Y-113027646D01*
X157159646Y-112902147D01*
X157307216Y-112803544D01*
X157471188Y-112735624D01*
X157620488Y-112705927D01*
X157645258Y-112701000D01*
X157822742Y-112701000D01*
X157847512Y-112705927D01*
X157847512Y-112705927D01*
G37*
G36*
X142607512Y-112705927D02*
G01*
X142756812Y-112735624D01*
X142920784Y-112803544D01*
X143068354Y-112902147D01*
X143193853Y-113027646D01*
X143292456Y-113175216D01*
X143360376Y-113339188D01*
X143395000Y-113513259D01*
X143395000Y-113690741D01*
X143360376Y-113864812D01*
X143292456Y-114028784D01*
X143193853Y-114176354D01*
X143068354Y-114301853D01*
X142920784Y-114400456D01*
X142756812Y-114468376D01*
X142607512Y-114498073D01*
X142582742Y-114503000D01*
X142405258Y-114503000D01*
X142380488Y-114498073D01*
X142231188Y-114468376D01*
X142067216Y-114400456D01*
X141919646Y-114301853D01*
X141794147Y-114176354D01*
X141695544Y-114028784D01*
X141627624Y-113864812D01*
X141593000Y-113690741D01*
X141593000Y-113513259D01*
X141627624Y-113339188D01*
X141695544Y-113175216D01*
X141794147Y-113027646D01*
X141919646Y-112902147D01*
X142067216Y-112803544D01*
X142231188Y-112735624D01*
X142380488Y-112705927D01*
X142405258Y-112701000D01*
X142582742Y-112701000D01*
X142607512Y-112705927D01*
X142607512Y-112705927D01*
G37*
G36*
X134633085Y-110343975D02*
G01*
X134988143Y-110491045D01*
X134988145Y-110491046D01*
X135307690Y-110704559D01*
X135579441Y-110976310D01*
X135792954Y-111295855D01*
X135792955Y-111295857D01*
X135940025Y-111650915D01*
X136015000Y-112027842D01*
X136015000Y-112412158D01*
X135940025Y-112789085D01*
X135841209Y-113027647D01*
X135792954Y-113144145D01*
X135579441Y-113463690D01*
X135307690Y-113735441D01*
X134988145Y-113948954D01*
X134988144Y-113948955D01*
X134988143Y-113948955D01*
X134633085Y-114096025D01*
X134256158Y-114171000D01*
X133871842Y-114171000D01*
X133494915Y-114096025D01*
X133139857Y-113948955D01*
X133139856Y-113948955D01*
X133139855Y-113948954D01*
X132820310Y-113735441D01*
X132548559Y-113463690D01*
X132335046Y-113144145D01*
X132286791Y-113027647D01*
X132187975Y-112789085D01*
X132113000Y-112412158D01*
X132113000Y-112027842D01*
X132187975Y-111650915D01*
X132335045Y-111295857D01*
X132335046Y-111295855D01*
X132548559Y-110976310D01*
X132820310Y-110704559D01*
X133139855Y-110491046D01*
X133139857Y-110491045D01*
X133494915Y-110343975D01*
X133871842Y-110269000D01*
X134256158Y-110269000D01*
X134633085Y-110343975D01*
X134633085Y-110343975D01*
G37*
G36*
X166733085Y-110343975D02*
G01*
X167088143Y-110491045D01*
X167088145Y-110491046D01*
X167407690Y-110704559D01*
X167679441Y-110976310D01*
X167892954Y-111295855D01*
X167892955Y-111295857D01*
X168040025Y-111650915D01*
X168115000Y-112027842D01*
X168115000Y-112412158D01*
X168040025Y-112789085D01*
X167941209Y-113027647D01*
X167892954Y-113144145D01*
X167679441Y-113463690D01*
X167407690Y-113735441D01*
X167088145Y-113948954D01*
X167088144Y-113948955D01*
X167088143Y-113948955D01*
X166733085Y-114096025D01*
X166356158Y-114171000D01*
X165971842Y-114171000D01*
X165594915Y-114096025D01*
X165239857Y-113948955D01*
X165239856Y-113948955D01*
X165239855Y-113948954D01*
X164920310Y-113735441D01*
X164648559Y-113463690D01*
X164435046Y-113144145D01*
X164386791Y-113027647D01*
X164287975Y-112789085D01*
X164213000Y-112412158D01*
X164213000Y-112027842D01*
X164287975Y-111650915D01*
X164435045Y-111295857D01*
X164435046Y-111295855D01*
X164648559Y-110976310D01*
X164920310Y-110704559D01*
X165239855Y-110491046D01*
X165239857Y-110491045D01*
X165594915Y-110343975D01*
X165971842Y-110269000D01*
X166356158Y-110269000D01*
X166733085Y-110343975D01*
X166733085Y-110343975D01*
G37*
M02*
