%MOIN*%
%OFA0B0*%
%FSLAX46Y46*%
%IPPOS*%
%LPD*%
%ADD10C,0.005905511811023622*%
%ADD11C,0.0047244094488188976*%
%ADD22C,0.005905511811023622*%
%ADD23C,0.0047244094488188976*%
%ADD24C,0.005905511811023622*%
%ADD25C,0.0047244094488188976*%
%ADD26C,0.005905511811023622*%
%ADD27C,0.0047244094488188976*%
%ADD28C,0.005905511811023622*%
%ADD29C,0.0047244094488188976*%
%ADD30C,0.005905511811023622*%
%ADD31C,0.0047244094488188976*%
D10*
X0001117207Y0000326802D02*
X0001117207Y0000356798D01*
X0001102209Y0000341800D02*
X0001132205Y0000341800D01*
X0001141579Y0000394294D02*
X0001141579Y0000375546D01*
X0001122831Y0000373671D01*
X0001124706Y0000375546D01*
X0001126581Y0000379296D01*
X0001126581Y0000388669D01*
X0001124706Y0000392419D01*
X0001122831Y0000394294D01*
X0001119082Y0000396168D01*
X0001109708Y0000396168D01*
X0001105958Y0000394294D01*
X0001104084Y0000392419D01*
X0001102209Y0000388669D01*
X0001102209Y0000379296D01*
X0001104084Y0000375546D01*
X0001105958Y0000373671D01*
X0001141579Y0000407417D02*
X0001102209Y0000420540D01*
X0001141579Y0000433664D01*
X0000899704Y0000337425D02*
X0000901579Y0000333675D01*
X0000901579Y0000328051D01*
X0000899704Y0000322426D01*
X0000895955Y0000318677D01*
X0000892205Y0000316802D01*
X0000884706Y0000314927D01*
X0000879082Y0000314927D01*
X0000871583Y0000316802D01*
X0000867833Y0000318677D01*
X0000864084Y0000322426D01*
X0000862209Y0000328051D01*
X0000862209Y0000331800D01*
X0000864084Y0000337425D01*
X0000865958Y0000339299D01*
X0000879082Y0000339299D01*
X0000879082Y0000331800D01*
X0000862209Y0000356172D02*
X0000901579Y0000356172D01*
X0000862209Y0000378669D01*
X0000901579Y0000378669D01*
X0000862209Y0000397417D02*
X0000901579Y0000397417D01*
X0000901579Y0000406791D01*
X0000899704Y0000412415D01*
X0000895955Y0000416165D01*
X0000892205Y0000418039D01*
X0000884706Y0000419914D01*
X0000879082Y0000419914D01*
X0000871583Y0000418039D01*
X0000867833Y0000416165D01*
X0000864084Y0000412415D01*
X0000862209Y0000406791D01*
X0000862209Y0000397417D01*
X0000940958Y0000346178D02*
X0000939084Y0000344303D01*
X0000937209Y0000338679D01*
X0000937209Y0000334929D01*
X0000939084Y0000329305D01*
X0000942833Y0000325555D01*
X0000946583Y0000323681D01*
X0000954082Y0000321806D01*
X0000959706Y0000321806D01*
X0000967205Y0000323681D01*
X0000970955Y0000325555D01*
X0000974704Y0000329305D01*
X0000976579Y0000334929D01*
X0000976579Y0000338679D01*
X0000974704Y0000344303D01*
X0000972829Y0000346178D01*
X0000948457Y0000361176D02*
X0000948457Y0000379924D01*
X0000937209Y0000357426D02*
X0000976579Y0000370550D01*
X0000937209Y0000383673D01*
X0000937209Y0000396796D02*
X0000976579Y0000396796D01*
X0000937209Y0000419294D01*
X0000976579Y0000419294D01*
X0000933459Y0000428667D02*
X0000933459Y0000458664D01*
X0000937209Y0000486785D02*
X0000937209Y0000468038D01*
X0000976579Y0000468038D01*
X0001023458Y0000341491D02*
X0001021584Y0000339616D01*
X0001019709Y0000333992D01*
X0001019709Y0000330242D01*
X0001021584Y0000324618D01*
X0001025333Y0000320868D01*
X0001029083Y0000318994D01*
X0001036582Y0000317119D01*
X0001042206Y0000317119D01*
X0001049705Y0000318994D01*
X0001053455Y0000320868D01*
X0001057204Y0000324618D01*
X0001059079Y0000330242D01*
X0001059079Y0000333992D01*
X0001057204Y0000339616D01*
X0001055329Y0000341491D01*
X0001030957Y0000356489D02*
X0001030957Y0000375237D01*
X0001019709Y0000352740D02*
X0001059079Y0000365863D01*
X0001019709Y0000378986D01*
X0001019709Y0000392110D02*
X0001059079Y0000392110D01*
X0001019709Y0000414607D01*
X0001059079Y0000414607D01*
X0001015959Y0000423981D02*
X0001015959Y0000453977D01*
X0001019709Y0000463351D02*
X0001059079Y0000463351D01*
X0001040331Y0000463351D02*
X0001040331Y0000485848D01*
X0001019709Y0000485848D02*
X0001059079Y0000485848D01*
X0000392204Y0000339925D02*
X0000394079Y0000336175D01*
X0000394079Y0000330551D01*
X0000392204Y0000324926D01*
X0000388455Y0000321177D01*
X0000384705Y0000319302D01*
X0000377206Y0000317427D01*
X0000371582Y0000317427D01*
X0000364083Y0000319302D01*
X0000360333Y0000321177D01*
X0000356584Y0000324926D01*
X0000354709Y0000330551D01*
X0000354709Y0000334300D01*
X0000356584Y0000339925D01*
X0000358458Y0000341799D01*
X0000371582Y0000341799D01*
X0000371582Y0000334300D01*
X0000354709Y0000358672D02*
X0000394079Y0000358672D01*
X0000354709Y0000381169D01*
X0000394079Y0000381169D01*
X0000354709Y0000399917D02*
X0000394079Y0000399917D01*
X0000394079Y0000409291D01*
X0000392204Y0000414915D01*
X0000388455Y0000418665D01*
X0000384705Y0000420539D01*
X0000377206Y0000422414D01*
X0000371582Y0000422414D01*
X0000364083Y0000420539D01*
X0000360333Y0000418665D01*
X0000356584Y0000414915D01*
X0000354709Y0000409291D01*
X0000354709Y0000399917D01*
X0000433458Y0000348678D02*
X0000431584Y0000346803D01*
X0000429709Y0000341179D01*
X0000429709Y0000337429D01*
X0000431584Y0000331805D01*
X0000435333Y0000328055D01*
X0000439083Y0000326181D01*
X0000446582Y0000324306D01*
X0000452206Y0000324306D01*
X0000459705Y0000326181D01*
X0000463455Y0000328055D01*
X0000467204Y0000331805D01*
X0000469079Y0000337429D01*
X0000469079Y0000341179D01*
X0000467204Y0000346803D01*
X0000465329Y0000348678D01*
X0000440957Y0000363676D02*
X0000440957Y0000382424D01*
X0000429709Y0000359926D02*
X0000469079Y0000373050D01*
X0000429709Y0000386173D01*
X0000429709Y0000399296D02*
X0000469079Y0000399296D01*
X0000429709Y0000421794D01*
X0000469079Y0000421794D01*
X0000425959Y0000431167D02*
X0000425959Y0000461164D01*
X0000429709Y0000489285D02*
X0000429709Y0000470538D01*
X0000469079Y0000470538D01*
X0000515958Y0000343991D02*
X0000514084Y0000342116D01*
X0000512209Y0000336492D01*
X0000512209Y0000332742D01*
X0000514084Y0000327118D01*
X0000517833Y0000323368D01*
X0000521583Y0000321494D01*
X0000529082Y0000319619D01*
X0000534706Y0000319619D01*
X0000542205Y0000321494D01*
X0000545955Y0000323368D01*
X0000549704Y0000327118D01*
X0000551579Y0000332742D01*
X0000551579Y0000336492D01*
X0000549704Y0000342116D01*
X0000547829Y0000343991D01*
X0000523457Y0000358989D02*
X0000523457Y0000377737D01*
X0000512209Y0000355240D02*
X0000551579Y0000368363D01*
X0000512209Y0000381486D01*
X0000512209Y0000394610D02*
X0000551579Y0000394610D01*
X0000512209Y0000417107D01*
X0000551579Y0000417107D01*
X0000508459Y0000426481D02*
X0000508459Y0000456477D01*
X0000512209Y0000465851D02*
X0000551579Y0000465851D01*
X0000532831Y0000465851D02*
X0000532831Y0000488348D01*
X0000512209Y0000488348D02*
X0000551579Y0000488348D01*
X0000609707Y0000329302D02*
X0000609707Y0000359298D01*
X0000594709Y0000344300D02*
X0000624705Y0000344300D01*
X0000634079Y0000396794D02*
X0000634079Y0000378046D01*
X0000615331Y0000376171D01*
X0000617206Y0000378046D01*
X0000619081Y0000381796D01*
X0000619081Y0000391169D01*
X0000617206Y0000394919D01*
X0000615331Y0000396794D01*
X0000611582Y0000398668D01*
X0000602208Y0000398668D01*
X0000598458Y0000396794D01*
X0000596584Y0000394919D01*
X0000594709Y0000391169D01*
X0000594709Y0000381796D01*
X0000596584Y0000378046D01*
X0000598458Y0000376171D01*
X0000634079Y0000409917D02*
X0000594709Y0000423040D01*
X0000634079Y0000436164D01*
X0000338138Y0000564609D02*
X0000308142Y0000564609D01*
X0000323140Y0000549610D02*
X0000323140Y0000579607D01*
X0000270646Y0000588981D02*
X0000289394Y0000588981D01*
X0000291269Y0000570233D01*
X0000289394Y0000572108D01*
X0000285644Y0000573982D01*
X0000276271Y0000573982D01*
X0000272521Y0000572108D01*
X0000270646Y0000570233D01*
X0000268771Y0000566483D01*
X0000268771Y0000557110D01*
X0000270646Y0000553360D01*
X0000272521Y0000551485D01*
X0000276271Y0000549610D01*
X0000285644Y0000549610D01*
X0000289394Y0000551485D01*
X0000291269Y0000553360D01*
X0000257523Y0000588981D02*
X0000244400Y0000549610D01*
X0000231276Y0000588981D01*
X0000333137Y0000632111D02*
X0000333137Y0000671481D01*
X0000306890Y0000671481D02*
X0000299391Y0000671481D01*
X0000295642Y0000669606D01*
X0000291892Y0000665856D01*
X0000290017Y0000658357D01*
X0000290017Y0000645234D01*
X0000291892Y0000637735D01*
X0000295642Y0000633985D01*
X0000299391Y0000632111D01*
X0000306890Y0000632111D01*
X0000310640Y0000633985D01*
X0000314389Y0000637735D01*
X0000316264Y0000645234D01*
X0000316264Y0000658357D01*
X0000314389Y0000665856D01*
X0000310640Y0000669606D01*
X0000306890Y0000671481D01*
X0000275019Y0000667731D02*
X0000273144Y0000669606D01*
X0000269395Y0000671481D01*
X0000260021Y0000671481D01*
X0000256272Y0000669606D01*
X0000254397Y0000667731D01*
X0000252522Y0000663982D01*
X0000252522Y0000660232D01*
X0000254397Y0000654608D01*
X0000276894Y0000632111D01*
X0000252522Y0000632111D01*
X0000237524Y0000667731D02*
X0000235649Y0000669606D01*
X0000231900Y0000671481D01*
X0000222526Y0000671481D01*
X0000218776Y0000669606D01*
X0000216901Y0000667731D01*
X0000215027Y0000663982D01*
X0000215027Y0000660232D01*
X0000216901Y0000654608D01*
X0000239399Y0000632111D01*
X0000215027Y0000632111D01*
X0000335637Y0000714611D02*
X0000335637Y0000753981D01*
X0000309390Y0000753981D02*
X0000301891Y0000753981D01*
X0000298142Y0000752106D01*
X0000294392Y0000748356D01*
X0000292517Y0000740857D01*
X0000292517Y0000727734D01*
X0000294392Y0000720235D01*
X0000298142Y0000716485D01*
X0000301891Y0000714611D01*
X0000309390Y0000714611D01*
X0000313140Y0000716485D01*
X0000316889Y0000720235D01*
X0000318764Y0000727734D01*
X0000318764Y0000740857D01*
X0000316889Y0000748356D01*
X0000313140Y0000752106D01*
X0000309390Y0000753981D01*
X0000255022Y0000714611D02*
X0000277519Y0000714611D01*
X0000266271Y0000714611D02*
X0000266271Y0000753981D01*
X0000270020Y0000748356D01*
X0000273770Y0000744607D01*
X0000277519Y0000742732D01*
X0000236274Y0000714611D02*
X0000228775Y0000714611D01*
X0000225026Y0000716485D01*
X0000223151Y0000718360D01*
X0000219401Y0000723984D01*
X0000217527Y0000731483D01*
X0000217527Y0000746482D01*
X0000219401Y0000750231D01*
X0000221276Y0000752106D01*
X0000225026Y0000753981D01*
X0000232525Y0000753981D01*
X0000236274Y0000752106D01*
X0000238149Y0000750231D01*
X0000240024Y0000746482D01*
X0000240024Y0000737108D01*
X0000238149Y0000733358D01*
X0000236274Y0000731483D01*
X0000232525Y0000729609D01*
X0000225026Y0000729609D01*
X0000221276Y0000731483D01*
X0000219401Y0000733358D01*
X0000217527Y0000737108D01*
X0000335637Y0000789611D02*
X0000335637Y0000828981D01*
X0000309390Y0000828981D02*
X0000301891Y0000828981D01*
X0000298142Y0000827106D01*
X0000294392Y0000823356D01*
X0000292517Y0000815857D01*
X0000292517Y0000802734D01*
X0000294392Y0000795235D01*
X0000298142Y0000791485D01*
X0000301891Y0000789611D01*
X0000309390Y0000789611D01*
X0000313140Y0000791485D01*
X0000316889Y0000795235D01*
X0000318764Y0000802734D01*
X0000318764Y0000815857D01*
X0000316889Y0000823356D01*
X0000313140Y0000827106D01*
X0000309390Y0000828981D01*
X0000277519Y0000825231D02*
X0000275644Y0000827106D01*
X0000271895Y0000828981D01*
X0000262521Y0000828981D01*
X0000258772Y0000827106D01*
X0000256897Y0000825231D01*
X0000255022Y0000821482D01*
X0000255022Y0000817732D01*
X0000256897Y0000812108D01*
X0000279394Y0000789611D01*
X0000255022Y0000789611D01*
X0000241899Y0000828981D02*
X0000217527Y0000828981D01*
X0000230650Y0000813982D01*
X0000225026Y0000813982D01*
X0000221276Y0000812108D01*
X0000219401Y0000810233D01*
X0000217527Y0000806483D01*
X0000217527Y0000797110D01*
X0000219401Y0000793360D01*
X0000221276Y0000791485D01*
X0000225026Y0000789611D01*
X0000236274Y0000789611D01*
X0000240024Y0000791485D01*
X0000241899Y0000793360D01*
X0000338137Y0000869611D02*
X0000338137Y0000908981D01*
X0000311890Y0000908981D02*
X0000304391Y0000908981D01*
X0000300642Y0000907106D01*
X0000296892Y0000903356D01*
X0000295017Y0000895857D01*
X0000295017Y0000882734D01*
X0000296892Y0000875235D01*
X0000300642Y0000871485D01*
X0000304391Y0000869611D01*
X0000311890Y0000869611D01*
X0000315640Y0000871485D01*
X0000319389Y0000875235D01*
X0000321264Y0000882734D01*
X0000321264Y0000895857D01*
X0000319389Y0000903356D01*
X0000315640Y0000907106D01*
X0000311890Y0000908981D01*
X0000281894Y0000908981D02*
X0000257522Y0000908981D01*
X0000270645Y0000893982D01*
X0000265021Y0000893982D01*
X0000261272Y0000892108D01*
X0000259397Y0000890233D01*
X0000257522Y0000886483D01*
X0000257522Y0000877110D01*
X0000259397Y0000873360D01*
X0000261272Y0000871485D01*
X0000265021Y0000869611D01*
X0000276270Y0000869611D01*
X0000280019Y0000871485D01*
X0000281894Y0000873360D01*
X0000244399Y0000908981D02*
X0000220027Y0000908981D01*
X0000233150Y0000893982D01*
X0000227526Y0000893982D01*
X0000223776Y0000892108D01*
X0000221901Y0000890233D01*
X0000220027Y0000886483D01*
X0000220027Y0000877110D01*
X0000221901Y0000873360D01*
X0000223776Y0000871485D01*
X0000227526Y0000869611D01*
X0000238774Y0000869611D01*
X0000242524Y0000871485D01*
X0000244399Y0000873360D01*
X0000307515Y0000994606D02*
X0000311265Y0000996481D01*
X0000316889Y0000996481D01*
X0000322514Y0000994606D01*
X0000326263Y0000990856D01*
X0000328138Y0000987107D01*
X0000330013Y0000979608D01*
X0000330013Y0000973983D01*
X0000328138Y0000966484D01*
X0000326263Y0000962735D01*
X0000322514Y0000958985D01*
X0000316889Y0000957111D01*
X0000313140Y0000957111D01*
X0000307515Y0000958985D01*
X0000305641Y0000960860D01*
X0000305641Y0000973983D01*
X0000313140Y0000973983D01*
X0000288768Y0000957111D02*
X0000288768Y0000996481D01*
X0000266271Y0000957111D01*
X0000266271Y0000996481D01*
X0000247523Y0000957111D02*
X0000247523Y0000996481D01*
X0000238149Y0000996481D01*
X0000232525Y0000994606D01*
X0000228775Y0000990856D01*
X0000226900Y0000987107D01*
X0000225026Y0000979608D01*
X0000225026Y0000973983D01*
X0000226900Y0000966484D01*
X0000228775Y0000962735D01*
X0000232525Y0000958985D01*
X0000238149Y0000957111D01*
X0000247523Y0000957111D01*
D11*
X0001260098Y0000741112D02*
X0001260098Y0000727627D01*
X0001219940Y0000741112D02*
X0001219940Y0000727627D01*
X0000750000Y0000624133D02*
X0000614173Y0000624133D01*
X0000750000Y0000624133D02*
X0000826771Y0000624133D01*
X0000750000Y0000825708D02*
X0000673228Y0000825708D01*
X0000750000Y0000825708D02*
X0000826771Y0000825708D01*
X0000869262Y0000914842D02*
X0000855776Y0000914842D01*
X0000869262Y0000955000D02*
X0000855776Y0000955000D01*
X0000625225Y0000957480D02*
X0000638711Y0000957480D01*
X0000625225Y0000917322D02*
X0000638711Y0000917322D01*
D10*
X0001201530Y0000740931D02*
X0001182783Y0000754055D01*
X0001201530Y0000763428D02*
X0001162160Y0000763428D01*
X0001162160Y0000748430D01*
X0001164035Y0000744681D01*
X0001165910Y0000742806D01*
X0001169659Y0000740931D01*
X0001175284Y0000740931D01*
X0001179033Y0000742806D01*
X0001180908Y0000744681D01*
X0001182783Y0000748430D01*
X0001182783Y0000763428D01*
X0001201530Y0000703436D02*
X0001201530Y0000725933D01*
X0001201530Y0000714685D02*
X0001162160Y0000714685D01*
X0001167784Y0000718434D01*
X0001171534Y0000722184D01*
X0001173409Y0000725933D01*
X0000779996Y0000612622D02*
X0000779996Y0000580751D01*
X0000778121Y0000577002D01*
X0000776246Y0000575127D01*
X0000772497Y0000573252D01*
X0000764998Y0000573252D01*
X0000761248Y0000575127D01*
X0000759373Y0000577002D01*
X0000757499Y0000580751D01*
X0000757499Y0000612622D01*
X0000718128Y0000573252D02*
X0000740626Y0000573252D01*
X0000729377Y0000573252D02*
X0000729377Y0000612622D01*
X0000733127Y0000606998D01*
X0000736876Y0000603248D01*
X0000740626Y0000601374D01*
X0000869081Y0000865840D02*
X0000870956Y0000863966D01*
X0000876580Y0000862091D01*
X0000880329Y0000862091D01*
X0000885954Y0000863966D01*
X0000889703Y0000867715D01*
X0000891578Y0000871465D01*
X0000893453Y0000878964D01*
X0000893453Y0000884588D01*
X0000891578Y0000892087D01*
X0000889703Y0000895837D01*
X0000885954Y0000899586D01*
X0000880329Y0000901461D01*
X0000876580Y0000901461D01*
X0000870956Y0000899586D01*
X0000869081Y0000897711D01*
X0000831586Y0000862091D02*
X0000854083Y0000862091D01*
X0000842834Y0000862091D02*
X0000842834Y0000901461D01*
X0000846584Y0000895837D01*
X0000850333Y0000892087D01*
X0000854083Y0000890212D01*
X0000638530Y0000867041D02*
X0000640404Y0000865166D01*
X0000646029Y0000863292D01*
X0000649778Y0000863292D01*
X0000655403Y0000865166D01*
X0000659152Y0000868916D01*
X0000661027Y0000872665D01*
X0000662902Y0000880164D01*
X0000662902Y0000885789D01*
X0000661027Y0000893288D01*
X0000659152Y0000897037D01*
X0000655403Y0000900787D01*
X0000649778Y0000902662D01*
X0000646029Y0000902662D01*
X0000640404Y0000900787D01*
X0000638530Y0000898912D01*
X0000623532Y0000898912D02*
X0000621657Y0000900787D01*
X0000617907Y0000902662D01*
X0000608533Y0000902662D01*
X0000604784Y0000900787D01*
X0000602909Y0000898912D01*
X0000601034Y0000895163D01*
X0000601034Y0000891413D01*
X0000602909Y0000885789D01*
X0000625406Y0000863292D01*
X0000601034Y0000863292D01*
G04 next file*
G04 #@! TF.GenerationSoftware,KiCad,Pcbnew,(5.1.2)-1*
G04 #@! TF.CreationDate,2020-12-05T19:35:51+09:00*
G04 #@! TF.ProjectId,M5Atom_CAN,4d354174-6f6d-45f4-9341-4e2e6b696361,rev?*
G04 #@! TF.SameCoordinates,Original*
G04 #@! TF.FileFunction,Legend,Bot*
G04 #@! TF.FilePolarity,Positive*
G04 Gerber Fmt 4.6, Leading zero omitted, Abs format (unit mm)*
G04 Created by KiCad (PCBNEW (5.1.2)-1) date 2020-12-05 19:35:51*
G04 APERTURE LIST*
G04 APERTURE END LIST*
D22*
X0002731380Y0000326802D02*
X0002731380Y0000356798D01*
X0002716382Y0000341800D02*
X0002746378Y0000341800D01*
X0002755752Y0000394294D02*
X0002755752Y0000375546D01*
X0002737005Y0000373671D01*
X0002738879Y0000375546D01*
X0002740754Y0000379296D01*
X0002740754Y0000388669D01*
X0002738879Y0000392419D01*
X0002737005Y0000394294D01*
X0002733255Y0000396168D01*
X0002723881Y0000396168D01*
X0002720132Y0000394294D01*
X0002718257Y0000392419D01*
X0002716382Y0000388669D01*
X0002716382Y0000379296D01*
X0002718257Y0000375546D01*
X0002720132Y0000373671D01*
X0002755752Y0000407417D02*
X0002716382Y0000420540D01*
X0002755752Y0000433664D01*
X0002513877Y0000337425D02*
X0002515752Y0000333675D01*
X0002515752Y0000328051D01*
X0002513877Y0000322426D01*
X0002510128Y0000318677D01*
X0002506378Y0000316802D01*
X0002498879Y0000314927D01*
X0002493255Y0000314927D01*
X0002485756Y0000316802D01*
X0002482006Y0000318677D01*
X0002478257Y0000322426D01*
X0002476382Y0000328051D01*
X0002476382Y0000331800D01*
X0002478257Y0000337425D01*
X0002480132Y0000339299D01*
X0002493255Y0000339299D01*
X0002493255Y0000331800D01*
X0002476382Y0000356172D02*
X0002515752Y0000356172D01*
X0002476382Y0000378669D01*
X0002515752Y0000378669D01*
X0002476382Y0000397417D02*
X0002515752Y0000397417D01*
X0002515752Y0000406791D01*
X0002513877Y0000412415D01*
X0002510128Y0000416165D01*
X0002506378Y0000418039D01*
X0002498879Y0000419914D01*
X0002493255Y0000419914D01*
X0002485756Y0000418039D01*
X0002482006Y0000416165D01*
X0002478257Y0000412415D01*
X0002476382Y0000406791D01*
X0002476382Y0000397417D01*
X0002555132Y0000346178D02*
X0002553257Y0000344303D01*
X0002551382Y0000338679D01*
X0002551382Y0000334929D01*
X0002553257Y0000329305D01*
X0002557006Y0000325555D01*
X0002560756Y0000323681D01*
X0002568255Y0000321806D01*
X0002573879Y0000321806D01*
X0002581378Y0000323681D01*
X0002585128Y0000325555D01*
X0002588877Y0000329305D01*
X0002590752Y0000334929D01*
X0002590752Y0000338679D01*
X0002588877Y0000344303D01*
X0002587003Y0000346178D01*
X0002562631Y0000361176D02*
X0002562631Y0000379924D01*
X0002551382Y0000357426D02*
X0002590752Y0000370550D01*
X0002551382Y0000383673D01*
X0002551382Y0000396796D02*
X0002590752Y0000396796D01*
X0002551382Y0000419294D01*
X0002590752Y0000419294D01*
X0002547633Y0000428667D02*
X0002547633Y0000458664D01*
X0002551382Y0000486785D02*
X0002551382Y0000468038D01*
X0002590752Y0000468038D01*
X0002637632Y0000341491D02*
X0002635757Y0000339616D01*
X0002633882Y0000333992D01*
X0002633882Y0000330242D01*
X0002635757Y0000324618D01*
X0002639506Y0000320868D01*
X0002643256Y0000318994D01*
X0002650755Y0000317119D01*
X0002656379Y0000317119D01*
X0002663878Y0000318994D01*
X0002667628Y0000320868D01*
X0002671377Y0000324618D01*
X0002673252Y0000330242D01*
X0002673252Y0000333992D01*
X0002671377Y0000339616D01*
X0002669503Y0000341491D01*
X0002645131Y0000356489D02*
X0002645131Y0000375237D01*
X0002633882Y0000352740D02*
X0002673252Y0000365863D01*
X0002633882Y0000378986D01*
X0002633882Y0000392110D02*
X0002673252Y0000392110D01*
X0002633882Y0000414607D01*
X0002673252Y0000414607D01*
X0002630133Y0000423981D02*
X0002630133Y0000453977D01*
X0002633882Y0000463351D02*
X0002673252Y0000463351D01*
X0002654505Y0000463351D02*
X0002654505Y0000485848D01*
X0002633882Y0000485848D02*
X0002673252Y0000485848D01*
X0002006377Y0000339925D02*
X0002008252Y0000336175D01*
X0002008252Y0000330551D01*
X0002006377Y0000324926D01*
X0002002628Y0000321177D01*
X0001998878Y0000319302D01*
X0001991379Y0000317427D01*
X0001985755Y0000317427D01*
X0001978256Y0000319302D01*
X0001974506Y0000321177D01*
X0001970757Y0000324926D01*
X0001968882Y0000330551D01*
X0001968882Y0000334300D01*
X0001970757Y0000339925D01*
X0001972632Y0000341799D01*
X0001985755Y0000341799D01*
X0001985755Y0000334300D01*
X0001968882Y0000358672D02*
X0002008252Y0000358672D01*
X0001968882Y0000381169D01*
X0002008252Y0000381169D01*
X0001968882Y0000399917D02*
X0002008252Y0000399917D01*
X0002008252Y0000409291D01*
X0002006377Y0000414915D01*
X0002002628Y0000418665D01*
X0001998878Y0000420539D01*
X0001991379Y0000422414D01*
X0001985755Y0000422414D01*
X0001978256Y0000420539D01*
X0001974506Y0000418665D01*
X0001970757Y0000414915D01*
X0001968882Y0000409291D01*
X0001968882Y0000399917D01*
X0002047632Y0000348678D02*
X0002045757Y0000346803D01*
X0002043882Y0000341179D01*
X0002043882Y0000337429D01*
X0002045757Y0000331805D01*
X0002049506Y0000328055D01*
X0002053256Y0000326181D01*
X0002060755Y0000324306D01*
X0002066379Y0000324306D01*
X0002073878Y0000326181D01*
X0002077628Y0000328055D01*
X0002081377Y0000331805D01*
X0002083252Y0000337429D01*
X0002083252Y0000341179D01*
X0002081377Y0000346803D01*
X0002079503Y0000348678D01*
X0002055131Y0000363676D02*
X0002055131Y0000382424D01*
X0002043882Y0000359926D02*
X0002083252Y0000373050D01*
X0002043882Y0000386173D01*
X0002043882Y0000399296D02*
X0002083252Y0000399296D01*
X0002043882Y0000421794D01*
X0002083252Y0000421794D01*
X0002040133Y0000431167D02*
X0002040133Y0000461164D01*
X0002043882Y0000489285D02*
X0002043882Y0000470538D01*
X0002083252Y0000470538D01*
X0002130132Y0000343991D02*
X0002128257Y0000342116D01*
X0002126382Y0000336492D01*
X0002126382Y0000332742D01*
X0002128257Y0000327118D01*
X0002132006Y0000323368D01*
X0002135756Y0000321494D01*
X0002143255Y0000319619D01*
X0002148879Y0000319619D01*
X0002156378Y0000321494D01*
X0002160128Y0000323368D01*
X0002163877Y0000327118D01*
X0002165752Y0000332742D01*
X0002165752Y0000336492D01*
X0002163877Y0000342116D01*
X0002162003Y0000343991D01*
X0002137631Y0000358989D02*
X0002137631Y0000377737D01*
X0002126382Y0000355240D02*
X0002165752Y0000368363D01*
X0002126382Y0000381486D01*
X0002126382Y0000394610D02*
X0002165752Y0000394610D01*
X0002126382Y0000417107D01*
X0002165752Y0000417107D01*
X0002122633Y0000426481D02*
X0002122633Y0000456477D01*
X0002126382Y0000465851D02*
X0002165752Y0000465851D01*
X0002147005Y0000465851D02*
X0002147005Y0000488348D01*
X0002126382Y0000488348D02*
X0002165752Y0000488348D01*
X0002223880Y0000329302D02*
X0002223880Y0000359298D01*
X0002208882Y0000344300D02*
X0002238878Y0000344300D01*
X0002248252Y0000396794D02*
X0002248252Y0000378046D01*
X0002229505Y0000376171D01*
X0002231379Y0000378046D01*
X0002233254Y0000381796D01*
X0002233254Y0000391169D01*
X0002231379Y0000394919D01*
X0002229505Y0000396794D01*
X0002225755Y0000398668D01*
X0002216381Y0000398668D01*
X0002212632Y0000396794D01*
X0002210757Y0000394919D01*
X0002208882Y0000391169D01*
X0002208882Y0000381796D01*
X0002210757Y0000378046D01*
X0002212632Y0000376171D01*
X0002248252Y0000409917D02*
X0002208882Y0000423040D01*
X0002248252Y0000436164D01*
X0001952311Y0000564609D02*
X0001922315Y0000564609D01*
X0001937313Y0000549610D02*
X0001937313Y0000579607D01*
X0001884819Y0000588981D02*
X0001903567Y0000588981D01*
X0001905442Y0000570233D01*
X0001903567Y0000572108D01*
X0001899818Y0000573982D01*
X0001890444Y0000573982D01*
X0001886694Y0000572108D01*
X0001884819Y0000570233D01*
X0001882945Y0000566483D01*
X0001882945Y0000557110D01*
X0001884819Y0000553360D01*
X0001886694Y0000551485D01*
X0001890444Y0000549610D01*
X0001899818Y0000549610D01*
X0001903567Y0000551485D01*
X0001905442Y0000553360D01*
X0001871696Y0000588981D02*
X0001858573Y0000549610D01*
X0001845449Y0000588981D01*
X0001947310Y0000632111D02*
X0001947310Y0000671481D01*
X0001921063Y0000671481D02*
X0001913564Y0000671481D01*
X0001909815Y0000669606D01*
X0001906065Y0000665856D01*
X0001904191Y0000658357D01*
X0001904191Y0000645234D01*
X0001906065Y0000637735D01*
X0001909815Y0000633985D01*
X0001913564Y0000632111D01*
X0001921063Y0000632111D01*
X0001924813Y0000633985D01*
X0001928562Y0000637735D01*
X0001930437Y0000645234D01*
X0001930437Y0000658357D01*
X0001928562Y0000665856D01*
X0001924813Y0000669606D01*
X0001921063Y0000671481D01*
X0001889192Y0000667731D02*
X0001887318Y0000669606D01*
X0001883568Y0000671481D01*
X0001874194Y0000671481D01*
X0001870445Y0000669606D01*
X0001868570Y0000667731D01*
X0001866695Y0000663982D01*
X0001866695Y0000660232D01*
X0001868570Y0000654608D01*
X0001891067Y0000632111D01*
X0001866695Y0000632111D01*
X0001851697Y0000667731D02*
X0001849822Y0000669606D01*
X0001846073Y0000671481D01*
X0001836699Y0000671481D01*
X0001832949Y0000669606D01*
X0001831075Y0000667731D01*
X0001829200Y0000663982D01*
X0001829200Y0000660232D01*
X0001831075Y0000654608D01*
X0001853572Y0000632111D01*
X0001829200Y0000632111D01*
X0001949810Y0000714611D02*
X0001949810Y0000753981D01*
X0001923563Y0000753981D02*
X0001916064Y0000753981D01*
X0001912315Y0000752106D01*
X0001908565Y0000748356D01*
X0001906690Y0000740857D01*
X0001906690Y0000727734D01*
X0001908565Y0000720235D01*
X0001912315Y0000716485D01*
X0001916064Y0000714611D01*
X0001923563Y0000714611D01*
X0001927313Y0000716485D01*
X0001931062Y0000720235D01*
X0001932937Y0000727734D01*
X0001932937Y0000740857D01*
X0001931062Y0000748356D01*
X0001927313Y0000752106D01*
X0001923563Y0000753981D01*
X0001869195Y0000714611D02*
X0001891692Y0000714611D01*
X0001880444Y0000714611D02*
X0001880444Y0000753981D01*
X0001884193Y0000748356D01*
X0001887943Y0000744607D01*
X0001891692Y0000742732D01*
X0001850448Y0000714611D02*
X0001842948Y0000714611D01*
X0001839199Y0000716485D01*
X0001837324Y0000718360D01*
X0001833575Y0000723984D01*
X0001831700Y0000731483D01*
X0001831700Y0000746482D01*
X0001833575Y0000750231D01*
X0001835449Y0000752106D01*
X0001839199Y0000753981D01*
X0001846698Y0000753981D01*
X0001850448Y0000752106D01*
X0001852322Y0000750231D01*
X0001854197Y0000746482D01*
X0001854197Y0000737108D01*
X0001852322Y0000733358D01*
X0001850448Y0000731483D01*
X0001846698Y0000729609D01*
X0001839199Y0000729609D01*
X0001835449Y0000731483D01*
X0001833575Y0000733358D01*
X0001831700Y0000737108D01*
X0001949810Y0000789611D02*
X0001949810Y0000828981D01*
X0001923563Y0000828981D02*
X0001916064Y0000828981D01*
X0001912315Y0000827106D01*
X0001908565Y0000823356D01*
X0001906690Y0000815857D01*
X0001906690Y0000802734D01*
X0001908565Y0000795235D01*
X0001912315Y0000791485D01*
X0001916064Y0000789611D01*
X0001923563Y0000789611D01*
X0001927313Y0000791485D01*
X0001931062Y0000795235D01*
X0001932937Y0000802734D01*
X0001932937Y0000815857D01*
X0001931062Y0000823356D01*
X0001927313Y0000827106D01*
X0001923563Y0000828981D01*
X0001891692Y0000825231D02*
X0001889818Y0000827106D01*
X0001886068Y0000828981D01*
X0001876694Y0000828981D01*
X0001872945Y0000827106D01*
X0001871070Y0000825231D01*
X0001869195Y0000821482D01*
X0001869195Y0000817732D01*
X0001871070Y0000812108D01*
X0001893567Y0000789611D01*
X0001869195Y0000789611D01*
X0001856072Y0000828981D02*
X0001831700Y0000828981D01*
X0001844823Y0000813982D01*
X0001839199Y0000813982D01*
X0001835449Y0000812108D01*
X0001833575Y0000810233D01*
X0001831700Y0000806483D01*
X0001831700Y0000797110D01*
X0001833575Y0000793360D01*
X0001835449Y0000791485D01*
X0001839199Y0000789611D01*
X0001850448Y0000789611D01*
X0001854197Y0000791485D01*
X0001856072Y0000793360D01*
X0001952310Y0000869611D02*
X0001952310Y0000908981D01*
X0001926063Y0000908981D02*
X0001918564Y0000908981D01*
X0001914815Y0000907106D01*
X0001911065Y0000903356D01*
X0001909190Y0000895857D01*
X0001909190Y0000882734D01*
X0001911065Y0000875235D01*
X0001914815Y0000871485D01*
X0001918564Y0000869611D01*
X0001926063Y0000869611D01*
X0001929813Y0000871485D01*
X0001933562Y0000875235D01*
X0001935437Y0000882734D01*
X0001935437Y0000895857D01*
X0001933562Y0000903356D01*
X0001929813Y0000907106D01*
X0001926063Y0000908981D01*
X0001896067Y0000908981D02*
X0001871695Y0000908981D01*
X0001884819Y0000893982D01*
X0001879194Y0000893982D01*
X0001875445Y0000892108D01*
X0001873570Y0000890233D01*
X0001871695Y0000886483D01*
X0001871695Y0000877110D01*
X0001873570Y0000873360D01*
X0001875445Y0000871485D01*
X0001879194Y0000869611D01*
X0001890443Y0000869611D01*
X0001894192Y0000871485D01*
X0001896067Y0000873360D01*
X0001858572Y0000908981D02*
X0001834200Y0000908981D01*
X0001847323Y0000893982D01*
X0001841699Y0000893982D01*
X0001837949Y0000892108D01*
X0001836075Y0000890233D01*
X0001834200Y0000886483D01*
X0001834200Y0000877110D01*
X0001836075Y0000873360D01*
X0001837949Y0000871485D01*
X0001841699Y0000869611D01*
X0001852947Y0000869611D01*
X0001856697Y0000871485D01*
X0001858572Y0000873360D01*
X0001921689Y0000994606D02*
X0001925438Y0000996481D01*
X0001931062Y0000996481D01*
X0001936687Y0000994606D01*
X0001940436Y0000990856D01*
X0001942311Y0000987107D01*
X0001944186Y0000979608D01*
X0001944186Y0000973983D01*
X0001942311Y0000966484D01*
X0001940436Y0000962735D01*
X0001936687Y0000958985D01*
X0001931062Y0000957111D01*
X0001927313Y0000957111D01*
X0001921689Y0000958985D01*
X0001919814Y0000960860D01*
X0001919814Y0000973983D01*
X0001927313Y0000973983D01*
X0001902941Y0000957111D02*
X0001902941Y0000996481D01*
X0001880444Y0000957111D01*
X0001880444Y0000996481D01*
X0001861696Y0000957111D02*
X0001861696Y0000996481D01*
X0001852322Y0000996481D01*
X0001846698Y0000994606D01*
X0001842948Y0000990856D01*
X0001841074Y0000987107D01*
X0001839199Y0000979608D01*
X0001839199Y0000973983D01*
X0001841074Y0000966484D01*
X0001842948Y0000962735D01*
X0001846698Y0000958985D01*
X0001852322Y0000957111D01*
X0001861696Y0000957111D01*
D23*
X0002874271Y0000741112D02*
X0002874271Y0000727627D01*
X0002834114Y0000741112D02*
X0002834114Y0000727627D01*
X0002364173Y0000624133D02*
X0002228346Y0000624133D01*
X0002364173Y0000624133D02*
X0002440944Y0000624133D01*
X0002364173Y0000825708D02*
X0002287401Y0000825708D01*
X0002364173Y0000825708D02*
X0002440944Y0000825708D01*
X0002483435Y0000914842D02*
X0002469950Y0000914842D01*
X0002483435Y0000955000D02*
X0002469950Y0000955000D01*
X0002239398Y0000957480D02*
X0002252884Y0000957480D01*
X0002239398Y0000917322D02*
X0002252884Y0000917322D01*
D22*
X0002815703Y0000740931D02*
X0002796956Y0000754055D01*
X0002815703Y0000763428D02*
X0002776333Y0000763428D01*
X0002776333Y0000748430D01*
X0002778208Y0000744681D01*
X0002780083Y0000742806D01*
X0002783832Y0000740931D01*
X0002789457Y0000740931D01*
X0002793206Y0000742806D01*
X0002795081Y0000744681D01*
X0002796956Y0000748430D01*
X0002796956Y0000763428D01*
X0002815703Y0000703436D02*
X0002815703Y0000725933D01*
X0002815703Y0000714685D02*
X0002776333Y0000714685D01*
X0002781958Y0000718434D01*
X0002785707Y0000722184D01*
X0002787582Y0000725933D01*
X0002394169Y0000612622D02*
X0002394169Y0000580751D01*
X0002392294Y0000577002D01*
X0002390419Y0000575127D01*
X0002386670Y0000573252D01*
X0002379171Y0000573252D01*
X0002375421Y0000575127D01*
X0002373547Y0000577002D01*
X0002371672Y0000580751D01*
X0002371672Y0000612622D01*
X0002332302Y0000573252D02*
X0002354799Y0000573252D01*
X0002343550Y0000573252D02*
X0002343550Y0000612622D01*
X0002347300Y0000606998D01*
X0002351049Y0000603248D01*
X0002354799Y0000601374D01*
X0002483254Y0000865840D02*
X0002485129Y0000863966D01*
X0002490753Y0000862091D01*
X0002494503Y0000862091D01*
X0002500127Y0000863966D01*
X0002503877Y0000867715D01*
X0002505751Y0000871465D01*
X0002507626Y0000878964D01*
X0002507626Y0000884588D01*
X0002505751Y0000892087D01*
X0002503877Y0000895837D01*
X0002500127Y0000899586D01*
X0002494503Y0000901461D01*
X0002490753Y0000901461D01*
X0002485129Y0000899586D01*
X0002483254Y0000897711D01*
X0002445759Y0000862091D02*
X0002468256Y0000862091D01*
X0002457007Y0000862091D02*
X0002457007Y0000901461D01*
X0002460757Y0000895837D01*
X0002464506Y0000892087D01*
X0002468256Y0000890212D01*
X0002252703Y0000867041D02*
X0002254578Y0000865166D01*
X0002260202Y0000863292D01*
X0002263951Y0000863292D01*
X0002269576Y0000865166D01*
X0002273325Y0000868916D01*
X0002275200Y0000872665D01*
X0002277075Y0000880164D01*
X0002277075Y0000885789D01*
X0002275200Y0000893288D01*
X0002273325Y0000897037D01*
X0002269576Y0000900787D01*
X0002263951Y0000902662D01*
X0002260202Y0000902662D01*
X0002254578Y0000900787D01*
X0002252703Y0000898912D01*
X0002237705Y0000898912D02*
X0002235830Y0000900787D01*
X0002232080Y0000902662D01*
X0002222707Y0000902662D01*
X0002218957Y0000900787D01*
X0002217082Y0000898912D01*
X0002215208Y0000895163D01*
X0002215208Y0000891413D01*
X0002217082Y0000885789D01*
X0002239580Y0000863292D01*
X0002215208Y0000863292D01*
G04 next file*
G04 #@! TF.GenerationSoftware,KiCad,Pcbnew,(5.1.2)-1*
G04 #@! TF.CreationDate,2020-12-05T19:35:51+09:00*
G04 #@! TF.ProjectId,M5Atom_CAN,4d354174-6f6d-45f4-9341-4e2e6b696361,rev?*
G04 #@! TF.SameCoordinates,Original*
G04 #@! TF.FileFunction,Legend,Bot*
G04 #@! TF.FilePolarity,Positive*
G04 Gerber Fmt 4.6, Leading zero omitted, Abs format (unit mm)*
G04 Created by KiCad (PCBNEW (5.1.2)-1) date 2020-12-05 19:35:51*
G04 APERTURE LIST*
G04 APERTURE END LIST*
D24*
X0001117207Y0001626015D02*
X0001117207Y0001656011D01*
X0001102209Y0001641013D02*
X0001132205Y0001641013D01*
X0001141579Y0001693506D02*
X0001141579Y0001674759D01*
X0001122831Y0001672884D01*
X0001124706Y0001674759D01*
X0001126581Y0001678508D01*
X0001126581Y0001687882D01*
X0001124706Y0001691632D01*
X0001122831Y0001693506D01*
X0001119082Y0001695381D01*
X0001109708Y0001695381D01*
X0001105958Y0001693506D01*
X0001104084Y0001691632D01*
X0001102209Y0001687882D01*
X0001102209Y0001678508D01*
X0001104084Y0001674759D01*
X0001105958Y0001672884D01*
X0001141579Y0001706630D02*
X0001102209Y0001719753D01*
X0001141579Y0001732876D01*
X0000899704Y0001636637D02*
X0000901579Y0001632888D01*
X0000901579Y0001627263D01*
X0000899704Y0001621639D01*
X0000895955Y0001617889D01*
X0000892205Y0001616015D01*
X0000884706Y0001614140D01*
X0000879082Y0001614140D01*
X0000871583Y0001616015D01*
X0000867833Y0001617889D01*
X0000864084Y0001621639D01*
X0000862209Y0001627263D01*
X0000862209Y0001631013D01*
X0000864084Y0001636637D01*
X0000865958Y0001638512D01*
X0000879082Y0001638512D01*
X0000879082Y0001631013D01*
X0000862209Y0001655385D02*
X0000901579Y0001655385D01*
X0000862209Y0001677882D01*
X0000901579Y0001677882D01*
X0000862209Y0001696630D02*
X0000901579Y0001696630D01*
X0000901579Y0001706003D01*
X0000899704Y0001711628D01*
X0000895955Y0001715377D01*
X0000892205Y0001717252D01*
X0000884706Y0001719127D01*
X0000879082Y0001719127D01*
X0000871583Y0001717252D01*
X0000867833Y0001715377D01*
X0000864084Y0001711628D01*
X0000862209Y0001706003D01*
X0000862209Y0001696630D01*
X0000940958Y0001645390D02*
X0000939084Y0001643516D01*
X0000937209Y0001637891D01*
X0000937209Y0001634142D01*
X0000939084Y0001628518D01*
X0000942833Y0001624768D01*
X0000946583Y0001622893D01*
X0000954082Y0001621018D01*
X0000959706Y0001621018D01*
X0000967205Y0001622893D01*
X0000970955Y0001624768D01*
X0000974704Y0001628518D01*
X0000976579Y0001634142D01*
X0000976579Y0001637891D01*
X0000974704Y0001643516D01*
X0000972829Y0001645390D01*
X0000948457Y0001660388D02*
X0000948457Y0001679136D01*
X0000937209Y0001656639D02*
X0000976579Y0001669762D01*
X0000937209Y0001682886D01*
X0000937209Y0001696009D02*
X0000976579Y0001696009D01*
X0000937209Y0001718506D01*
X0000976579Y0001718506D01*
X0000933459Y0001727880D02*
X0000933459Y0001757876D01*
X0000937209Y0001785998D02*
X0000937209Y0001767250D01*
X0000976579Y0001767250D01*
X0001023458Y0001640703D02*
X0001021584Y0001638829D01*
X0001019709Y0001633204D01*
X0001019709Y0001629455D01*
X0001021584Y0001623831D01*
X0001025333Y0001620081D01*
X0001029083Y0001618206D01*
X0001036582Y0001616332D01*
X0001042206Y0001616332D01*
X0001049705Y0001618206D01*
X0001053455Y0001620081D01*
X0001057204Y0001623831D01*
X0001059079Y0001629455D01*
X0001059079Y0001633204D01*
X0001057204Y0001638829D01*
X0001055329Y0001640703D01*
X0001030957Y0001655702D02*
X0001030957Y0001674449D01*
X0001019709Y0001651952D02*
X0001059079Y0001665075D01*
X0001019709Y0001678199D01*
X0001019709Y0001691322D02*
X0001059079Y0001691322D01*
X0001019709Y0001713819D01*
X0001059079Y0001713819D01*
X0001015959Y0001723193D02*
X0001015959Y0001753189D01*
X0001019709Y0001762563D02*
X0001059079Y0001762563D01*
X0001040331Y0001762563D02*
X0001040331Y0001785060D01*
X0001019709Y0001785060D02*
X0001059079Y0001785060D01*
X0000392204Y0001639137D02*
X0000394079Y0001635388D01*
X0000394079Y0001629763D01*
X0000392204Y0001624139D01*
X0000388455Y0001620389D01*
X0000384705Y0001618515D01*
X0000377206Y0001616640D01*
X0000371582Y0001616640D01*
X0000364083Y0001618515D01*
X0000360333Y0001620389D01*
X0000356584Y0001624139D01*
X0000354709Y0001629763D01*
X0000354709Y0001633513D01*
X0000356584Y0001639137D01*
X0000358458Y0001641012D01*
X0000371582Y0001641012D01*
X0000371582Y0001633513D01*
X0000354709Y0001657885D02*
X0000394079Y0001657885D01*
X0000354709Y0001680382D01*
X0000394079Y0001680382D01*
X0000354709Y0001699130D02*
X0000394079Y0001699130D01*
X0000394079Y0001708503D01*
X0000392204Y0001714128D01*
X0000388455Y0001717877D01*
X0000384705Y0001719752D01*
X0000377206Y0001721627D01*
X0000371582Y0001721627D01*
X0000364083Y0001719752D01*
X0000360333Y0001717877D01*
X0000356584Y0001714128D01*
X0000354709Y0001708503D01*
X0000354709Y0001699130D01*
X0000433458Y0001647890D02*
X0000431584Y0001646016D01*
X0000429709Y0001640391D01*
X0000429709Y0001636642D01*
X0000431584Y0001631017D01*
X0000435333Y0001627268D01*
X0000439083Y0001625393D01*
X0000446582Y0001623518D01*
X0000452206Y0001623518D01*
X0000459705Y0001625393D01*
X0000463455Y0001627268D01*
X0000467204Y0001631017D01*
X0000469079Y0001636642D01*
X0000469079Y0001640391D01*
X0000467204Y0001646016D01*
X0000465329Y0001647890D01*
X0000440957Y0001662889D02*
X0000440957Y0001681636D01*
X0000429709Y0001659139D02*
X0000469079Y0001672262D01*
X0000429709Y0001685386D01*
X0000429709Y0001698509D02*
X0000469079Y0001698509D01*
X0000429709Y0001721006D01*
X0000469079Y0001721006D01*
X0000425959Y0001730380D02*
X0000425959Y0001760376D01*
X0000429709Y0001788498D02*
X0000429709Y0001769750D01*
X0000469079Y0001769750D01*
X0000515958Y0001643203D02*
X0000514084Y0001641329D01*
X0000512209Y0001635704D01*
X0000512209Y0001631955D01*
X0000514084Y0001626331D01*
X0000517833Y0001622581D01*
X0000521583Y0001620706D01*
X0000529082Y0001618832D01*
X0000534706Y0001618832D01*
X0000542205Y0001620706D01*
X0000545955Y0001622581D01*
X0000549704Y0001626331D01*
X0000551579Y0001631955D01*
X0000551579Y0001635704D01*
X0000549704Y0001641329D01*
X0000547829Y0001643203D01*
X0000523457Y0001658202D02*
X0000523457Y0001676949D01*
X0000512209Y0001654452D02*
X0000551579Y0001667575D01*
X0000512209Y0001680699D01*
X0000512209Y0001693822D02*
X0000551579Y0001693822D01*
X0000512209Y0001716319D01*
X0000551579Y0001716319D01*
X0000508459Y0001725693D02*
X0000508459Y0001755689D01*
X0000512209Y0001765063D02*
X0000551579Y0001765063D01*
X0000532831Y0001765063D02*
X0000532831Y0001787560D01*
X0000512209Y0001787560D02*
X0000551579Y0001787560D01*
X0000609707Y0001628515D02*
X0000609707Y0001658511D01*
X0000594709Y0001643513D02*
X0000624705Y0001643513D01*
X0000634079Y0001696006D02*
X0000634079Y0001677259D01*
X0000615331Y0001675384D01*
X0000617206Y0001677259D01*
X0000619081Y0001681008D01*
X0000619081Y0001690382D01*
X0000617206Y0001694132D01*
X0000615331Y0001696006D01*
X0000611582Y0001697881D01*
X0000602208Y0001697881D01*
X0000598458Y0001696006D01*
X0000596584Y0001694132D01*
X0000594709Y0001690382D01*
X0000594709Y0001681008D01*
X0000596584Y0001677259D01*
X0000598458Y0001675384D01*
X0000634079Y0001709130D02*
X0000594709Y0001722253D01*
X0000634079Y0001735376D01*
X0000338138Y0001863821D02*
X0000308142Y0001863821D01*
X0000323140Y0001848823D02*
X0000323140Y0001878819D01*
X0000270646Y0001888193D02*
X0000289394Y0001888193D01*
X0000291269Y0001869445D01*
X0000289394Y0001871320D01*
X0000285644Y0001873195D01*
X0000276271Y0001873195D01*
X0000272521Y0001871320D01*
X0000270646Y0001869445D01*
X0000268771Y0001865696D01*
X0000268771Y0001856322D01*
X0000270646Y0001852573D01*
X0000272521Y0001850698D01*
X0000276271Y0001848823D01*
X0000285644Y0001848823D01*
X0000289394Y0001850698D01*
X0000291269Y0001852573D01*
X0000257523Y0001888193D02*
X0000244400Y0001848823D01*
X0000231276Y0001888193D01*
X0000333137Y0001931323D02*
X0000333137Y0001970693D01*
X0000306890Y0001970693D02*
X0000299391Y0001970693D01*
X0000295642Y0001968818D01*
X0000291892Y0001965069D01*
X0000290017Y0001957570D01*
X0000290017Y0001944446D01*
X0000291892Y0001936947D01*
X0000295642Y0001933198D01*
X0000299391Y0001931323D01*
X0000306890Y0001931323D01*
X0000310640Y0001933198D01*
X0000314389Y0001936947D01*
X0000316264Y0001944446D01*
X0000316264Y0001957570D01*
X0000314389Y0001965069D01*
X0000310640Y0001968818D01*
X0000306890Y0001970693D01*
X0000275019Y0001966944D02*
X0000273144Y0001968818D01*
X0000269395Y0001970693D01*
X0000260021Y0001970693D01*
X0000256272Y0001968818D01*
X0000254397Y0001966944D01*
X0000252522Y0001963194D01*
X0000252522Y0001959445D01*
X0000254397Y0001953820D01*
X0000276894Y0001931323D01*
X0000252522Y0001931323D01*
X0000237524Y0001966944D02*
X0000235649Y0001968818D01*
X0000231900Y0001970693D01*
X0000222526Y0001970693D01*
X0000218776Y0001968818D01*
X0000216901Y0001966944D01*
X0000215027Y0001963194D01*
X0000215027Y0001959445D01*
X0000216901Y0001953820D01*
X0000239399Y0001931323D01*
X0000215027Y0001931323D01*
X0000335637Y0002013823D02*
X0000335637Y0002053193D01*
X0000309390Y0002053193D02*
X0000301891Y0002053193D01*
X0000298142Y0002051318D01*
X0000294392Y0002047569D01*
X0000292517Y0002040070D01*
X0000292517Y0002026946D01*
X0000294392Y0002019447D01*
X0000298142Y0002015698D01*
X0000301891Y0002013823D01*
X0000309390Y0002013823D01*
X0000313140Y0002015698D01*
X0000316889Y0002019447D01*
X0000318764Y0002026946D01*
X0000318764Y0002040070D01*
X0000316889Y0002047569D01*
X0000313140Y0002051318D01*
X0000309390Y0002053193D01*
X0000255022Y0002013823D02*
X0000277519Y0002013823D01*
X0000266271Y0002013823D02*
X0000266271Y0002053193D01*
X0000270020Y0002047569D01*
X0000273770Y0002043819D01*
X0000277519Y0002041945D01*
X0000236274Y0002013823D02*
X0000228775Y0002013823D01*
X0000225026Y0002015698D01*
X0000223151Y0002017573D01*
X0000219401Y0002023197D01*
X0000217527Y0002030696D01*
X0000217527Y0002045694D01*
X0000219401Y0002049444D01*
X0000221276Y0002051318D01*
X0000225026Y0002053193D01*
X0000232525Y0002053193D01*
X0000236274Y0002051318D01*
X0000238149Y0002049444D01*
X0000240024Y0002045694D01*
X0000240024Y0002036320D01*
X0000238149Y0002032571D01*
X0000236274Y0002030696D01*
X0000232525Y0002028821D01*
X0000225026Y0002028821D01*
X0000221276Y0002030696D01*
X0000219401Y0002032571D01*
X0000217527Y0002036320D01*
X0000335637Y0002088823D02*
X0000335637Y0002128193D01*
X0000309390Y0002128193D02*
X0000301891Y0002128193D01*
X0000298142Y0002126318D01*
X0000294392Y0002122569D01*
X0000292517Y0002115070D01*
X0000292517Y0002101946D01*
X0000294392Y0002094447D01*
X0000298142Y0002090698D01*
X0000301891Y0002088823D01*
X0000309390Y0002088823D01*
X0000313140Y0002090698D01*
X0000316889Y0002094447D01*
X0000318764Y0002101946D01*
X0000318764Y0002115070D01*
X0000316889Y0002122569D01*
X0000313140Y0002126318D01*
X0000309390Y0002128193D01*
X0000277519Y0002124444D02*
X0000275644Y0002126318D01*
X0000271895Y0002128193D01*
X0000262521Y0002128193D01*
X0000258772Y0002126318D01*
X0000256897Y0002124444D01*
X0000255022Y0002120694D01*
X0000255022Y0002116945D01*
X0000256897Y0002111320D01*
X0000279394Y0002088823D01*
X0000255022Y0002088823D01*
X0000241899Y0002128193D02*
X0000217527Y0002128193D01*
X0000230650Y0002113195D01*
X0000225026Y0002113195D01*
X0000221276Y0002111320D01*
X0000219401Y0002109446D01*
X0000217527Y0002105696D01*
X0000217527Y0002096322D01*
X0000219401Y0002092573D01*
X0000221276Y0002090698D01*
X0000225026Y0002088823D01*
X0000236274Y0002088823D01*
X0000240024Y0002090698D01*
X0000241899Y0002092573D01*
X0000338137Y0002168823D02*
X0000338137Y0002208193D01*
X0000311890Y0002208193D02*
X0000304391Y0002208193D01*
X0000300642Y0002206318D01*
X0000296892Y0002202569D01*
X0000295017Y0002195070D01*
X0000295017Y0002181946D01*
X0000296892Y0002174447D01*
X0000300642Y0002170698D01*
X0000304391Y0002168823D01*
X0000311890Y0002168823D01*
X0000315640Y0002170698D01*
X0000319389Y0002174447D01*
X0000321264Y0002181946D01*
X0000321264Y0002195070D01*
X0000319389Y0002202569D01*
X0000315640Y0002206318D01*
X0000311890Y0002208193D01*
X0000281894Y0002208193D02*
X0000257522Y0002208193D01*
X0000270645Y0002193195D01*
X0000265021Y0002193195D01*
X0000261272Y0002191320D01*
X0000259397Y0002189446D01*
X0000257522Y0002185696D01*
X0000257522Y0002176322D01*
X0000259397Y0002172573D01*
X0000261272Y0002170698D01*
X0000265021Y0002168823D01*
X0000276270Y0002168823D01*
X0000280019Y0002170698D01*
X0000281894Y0002172573D01*
X0000244399Y0002208193D02*
X0000220027Y0002208193D01*
X0000233150Y0002193195D01*
X0000227526Y0002193195D01*
X0000223776Y0002191320D01*
X0000221901Y0002189446D01*
X0000220027Y0002185696D01*
X0000220027Y0002176322D01*
X0000221901Y0002172573D01*
X0000223776Y0002170698D01*
X0000227526Y0002168823D01*
X0000238774Y0002168823D01*
X0000242524Y0002170698D01*
X0000244399Y0002172573D01*
X0000307515Y0002293818D02*
X0000311265Y0002295693D01*
X0000316889Y0002295693D01*
X0000322514Y0002293818D01*
X0000326263Y0002290069D01*
X0000328138Y0002286319D01*
X0000330013Y0002278820D01*
X0000330013Y0002273196D01*
X0000328138Y0002265697D01*
X0000326263Y0002261947D01*
X0000322514Y0002258198D01*
X0000316889Y0002256323D01*
X0000313140Y0002256323D01*
X0000307515Y0002258198D01*
X0000305641Y0002260073D01*
X0000305641Y0002273196D01*
X0000313140Y0002273196D01*
X0000288768Y0002256323D02*
X0000288768Y0002295693D01*
X0000266271Y0002256323D01*
X0000266271Y0002295693D01*
X0000247523Y0002256323D02*
X0000247523Y0002295693D01*
X0000238149Y0002295693D01*
X0000232525Y0002293818D01*
X0000228775Y0002290069D01*
X0000226900Y0002286319D01*
X0000225026Y0002278820D01*
X0000225026Y0002273196D01*
X0000226900Y0002265697D01*
X0000228775Y0002261947D01*
X0000232525Y0002258198D01*
X0000238149Y0002256323D01*
X0000247523Y0002256323D01*
D25*
X0001260098Y0002040325D02*
X0001260098Y0002026839D01*
X0001219940Y0002040325D02*
X0001219940Y0002026839D01*
X0000750000Y0001923346D02*
X0000614173Y0001923346D01*
X0000750000Y0001923346D02*
X0000826771Y0001923346D01*
X0000750000Y0002124921D02*
X0000673228Y0002124921D01*
X0000750000Y0002124921D02*
X0000826771Y0002124921D01*
X0000869262Y0002214055D02*
X0000855776Y0002214055D01*
X0000869262Y0002254212D02*
X0000855776Y0002254212D01*
X0000625225Y0002256692D02*
X0000638711Y0002256692D01*
X0000625225Y0002216535D02*
X0000638711Y0002216535D01*
D24*
X0001201530Y0002040144D02*
X0001182783Y0002053267D01*
X0001201530Y0002062641D02*
X0001162160Y0002062641D01*
X0001162160Y0002047643D01*
X0001164035Y0002043893D01*
X0001165910Y0002042019D01*
X0001169659Y0002040144D01*
X0001175284Y0002040144D01*
X0001179033Y0002042019D01*
X0001180908Y0002043893D01*
X0001182783Y0002047643D01*
X0001182783Y0002062641D01*
X0001201530Y0002002649D02*
X0001201530Y0002025146D01*
X0001201530Y0002013897D02*
X0001162160Y0002013897D01*
X0001167784Y0002017647D01*
X0001171534Y0002021396D01*
X0001173409Y0002025146D01*
X0000779996Y0001911835D02*
X0000779996Y0001879964D01*
X0000778121Y0001876214D01*
X0000776246Y0001874340D01*
X0000772497Y0001872465D01*
X0000764998Y0001872465D01*
X0000761248Y0001874340D01*
X0000759373Y0001876214D01*
X0000757499Y0001879964D01*
X0000757499Y0001911835D01*
X0000718128Y0001872465D02*
X0000740626Y0001872465D01*
X0000729377Y0001872465D02*
X0000729377Y0001911835D01*
X0000733127Y0001906211D01*
X0000736876Y0001902461D01*
X0000740626Y0001900586D01*
X0000869081Y0002165053D02*
X0000870956Y0002163178D01*
X0000876580Y0002161303D01*
X0000880329Y0002161303D01*
X0000885954Y0002163178D01*
X0000889703Y0002166928D01*
X0000891578Y0002170677D01*
X0000893453Y0002178176D01*
X0000893453Y0002183801D01*
X0000891578Y0002191300D01*
X0000889703Y0002195049D01*
X0000885954Y0002198799D01*
X0000880329Y0002200674D01*
X0000876580Y0002200674D01*
X0000870956Y0002198799D01*
X0000869081Y0002196924D01*
X0000831586Y0002161303D02*
X0000854083Y0002161303D01*
X0000842834Y0002161303D02*
X0000842834Y0002200674D01*
X0000846584Y0002195049D01*
X0000850333Y0002191300D01*
X0000854083Y0002189425D01*
X0000638530Y0002166254D02*
X0000640404Y0002164379D01*
X0000646029Y0002162504D01*
X0000649778Y0002162504D01*
X0000655403Y0002164379D01*
X0000659152Y0002168129D01*
X0000661027Y0002171878D01*
X0000662902Y0002179377D01*
X0000662902Y0002185001D01*
X0000661027Y0002192500D01*
X0000659152Y0002196250D01*
X0000655403Y0002199999D01*
X0000649778Y0002201874D01*
X0000646029Y0002201874D01*
X0000640404Y0002199999D01*
X0000638530Y0002198125D01*
X0000623532Y0002198125D02*
X0000621657Y0002199999D01*
X0000617907Y0002201874D01*
X0000608533Y0002201874D01*
X0000604784Y0002199999D01*
X0000602909Y0002198125D01*
X0000601034Y0002194375D01*
X0000601034Y0002190626D01*
X0000602909Y0002185001D01*
X0000625406Y0002162504D01*
X0000601034Y0002162504D01*
G04 next file*
G04 #@! TF.GenerationSoftware,KiCad,Pcbnew,(5.1.2)-1*
G04 #@! TF.CreationDate,2020-12-05T19:35:51+09:00*
G04 #@! TF.ProjectId,M5Atom_CAN,4d354174-6f6d-45f4-9341-4e2e6b696361,rev?*
G04 #@! TF.SameCoordinates,Original*
G04 #@! TF.FileFunction,Legend,Bot*
G04 #@! TF.FilePolarity,Positive*
G04 Gerber Fmt 4.6, Leading zero omitted, Abs format (unit mm)*
G04 Created by KiCad (PCBNEW (5.1.2)-1) date 2020-12-05 19:35:51*
G04 APERTURE LIST*
G04 APERTURE END LIST*
D26*
X0001117207Y0002925227D02*
X0001117207Y0002955224D01*
X0001102209Y0002940225D02*
X0001132205Y0002940225D01*
X0001141579Y0002992719D02*
X0001141579Y0002973971D01*
X0001122831Y0002972096D01*
X0001124706Y0002973971D01*
X0001126581Y0002977721D01*
X0001126581Y0002987095D01*
X0001124706Y0002990844D01*
X0001122831Y0002992719D01*
X0001119082Y0002994594D01*
X0001109708Y0002994594D01*
X0001105958Y0002992719D01*
X0001104084Y0002990844D01*
X0001102209Y0002987095D01*
X0001102209Y0002977721D01*
X0001104084Y0002973971D01*
X0001105958Y0002972096D01*
X0001141579Y0003005842D02*
X0001102209Y0003018966D01*
X0001141579Y0003032089D01*
X0000899704Y0002935850D02*
X0000901579Y0002932100D01*
X0000901579Y0002926476D01*
X0000899704Y0002920852D01*
X0000895955Y0002917102D01*
X0000892205Y0002915227D01*
X0000884706Y0002913353D01*
X0000879082Y0002913353D01*
X0000871583Y0002915227D01*
X0000867833Y0002917102D01*
X0000864084Y0002920852D01*
X0000862209Y0002926476D01*
X0000862209Y0002930225D01*
X0000864084Y0002935850D01*
X0000865958Y0002937724D01*
X0000879082Y0002937724D01*
X0000879082Y0002930225D01*
X0000862209Y0002954597D02*
X0000901579Y0002954597D01*
X0000862209Y0002977095D01*
X0000901579Y0002977095D01*
X0000862209Y0002995842D02*
X0000901579Y0002995842D01*
X0000901579Y0003005216D01*
X0000899704Y0003010840D01*
X0000895955Y0003014590D01*
X0000892205Y0003016465D01*
X0000884706Y0003018339D01*
X0000879082Y0003018339D01*
X0000871583Y0003016465D01*
X0000867833Y0003014590D01*
X0000864084Y0003010840D01*
X0000862209Y0003005216D01*
X0000862209Y0002995842D01*
X0000940958Y0002944603D02*
X0000939084Y0002942728D01*
X0000937209Y0002937104D01*
X0000937209Y0002933354D01*
X0000939084Y0002927730D01*
X0000942833Y0002923981D01*
X0000946583Y0002922106D01*
X0000954082Y0002920231D01*
X0000959706Y0002920231D01*
X0000967205Y0002922106D01*
X0000970955Y0002923981D01*
X0000974704Y0002927730D01*
X0000976579Y0002933354D01*
X0000976579Y0002937104D01*
X0000974704Y0002942728D01*
X0000972829Y0002944603D01*
X0000948457Y0002959601D02*
X0000948457Y0002978349D01*
X0000937209Y0002955852D02*
X0000976579Y0002968975D01*
X0000937209Y0002982098D01*
X0000937209Y0002995222D02*
X0000976579Y0002995222D01*
X0000937209Y0003017719D01*
X0000976579Y0003017719D01*
X0000933459Y0003027093D02*
X0000933459Y0003057089D01*
X0000937209Y0003085210D02*
X0000937209Y0003066463D01*
X0000976579Y0003066463D01*
X0001023458Y0002939916D02*
X0001021584Y0002938041D01*
X0001019709Y0002932417D01*
X0001019709Y0002928667D01*
X0001021584Y0002923043D01*
X0001025333Y0002919294D01*
X0001029083Y0002917419D01*
X0001036582Y0002915544D01*
X0001042206Y0002915544D01*
X0001049705Y0002917419D01*
X0001053455Y0002919294D01*
X0001057204Y0002923043D01*
X0001059079Y0002928667D01*
X0001059079Y0002932417D01*
X0001057204Y0002938041D01*
X0001055329Y0002939916D01*
X0001030957Y0002954914D02*
X0001030957Y0002973662D01*
X0001019709Y0002951165D02*
X0001059079Y0002964288D01*
X0001019709Y0002977411D01*
X0001019709Y0002990535D02*
X0001059079Y0002990535D01*
X0001019709Y0003013032D01*
X0001059079Y0003013032D01*
X0001015959Y0003022406D02*
X0001015959Y0003052402D01*
X0001019709Y0003061776D02*
X0001059079Y0003061776D01*
X0001040331Y0003061776D02*
X0001040331Y0003084273D01*
X0001019709Y0003084273D02*
X0001059079Y0003084273D01*
X0000392204Y0002938350D02*
X0000394079Y0002934600D01*
X0000394079Y0002928976D01*
X0000392204Y0002923352D01*
X0000388455Y0002919602D01*
X0000384705Y0002917727D01*
X0000377206Y0002915853D01*
X0000371582Y0002915853D01*
X0000364083Y0002917727D01*
X0000360333Y0002919602D01*
X0000356584Y0002923352D01*
X0000354709Y0002928976D01*
X0000354709Y0002932725D01*
X0000356584Y0002938350D01*
X0000358458Y0002940225D01*
X0000371582Y0002940225D01*
X0000371582Y0002932725D01*
X0000354709Y0002957097D02*
X0000394079Y0002957097D01*
X0000354709Y0002979595D01*
X0000394079Y0002979595D01*
X0000354709Y0002998342D02*
X0000394079Y0002998342D01*
X0000394079Y0003007716D01*
X0000392204Y0003013340D01*
X0000388455Y0003017090D01*
X0000384705Y0003018965D01*
X0000377206Y0003020839D01*
X0000371582Y0003020839D01*
X0000364083Y0003018965D01*
X0000360333Y0003017090D01*
X0000356584Y0003013340D01*
X0000354709Y0003007716D01*
X0000354709Y0002998342D01*
X0000433458Y0002947103D02*
X0000431584Y0002945228D01*
X0000429709Y0002939604D01*
X0000429709Y0002935854D01*
X0000431584Y0002930230D01*
X0000435333Y0002926481D01*
X0000439083Y0002924606D01*
X0000446582Y0002922731D01*
X0000452206Y0002922731D01*
X0000459705Y0002924606D01*
X0000463455Y0002926481D01*
X0000467204Y0002930230D01*
X0000469079Y0002935854D01*
X0000469079Y0002939604D01*
X0000467204Y0002945228D01*
X0000465329Y0002947103D01*
X0000440957Y0002962101D02*
X0000440957Y0002980849D01*
X0000429709Y0002958352D02*
X0000469079Y0002971475D01*
X0000429709Y0002984598D01*
X0000429709Y0002997722D02*
X0000469079Y0002997722D01*
X0000429709Y0003020219D01*
X0000469079Y0003020219D01*
X0000425959Y0003029593D02*
X0000425959Y0003059589D01*
X0000429709Y0003087710D02*
X0000429709Y0003068963D01*
X0000469079Y0003068963D01*
X0000515958Y0002942416D02*
X0000514084Y0002940541D01*
X0000512209Y0002934917D01*
X0000512209Y0002931167D01*
X0000514084Y0002925543D01*
X0000517833Y0002921794D01*
X0000521583Y0002919919D01*
X0000529082Y0002918044D01*
X0000534706Y0002918044D01*
X0000542205Y0002919919D01*
X0000545955Y0002921794D01*
X0000549704Y0002925543D01*
X0000551579Y0002931167D01*
X0000551579Y0002934917D01*
X0000549704Y0002940541D01*
X0000547829Y0002942416D01*
X0000523457Y0002957414D02*
X0000523457Y0002976162D01*
X0000512209Y0002953665D02*
X0000551579Y0002966788D01*
X0000512209Y0002979911D01*
X0000512209Y0002993035D02*
X0000551579Y0002993035D01*
X0000512209Y0003015532D01*
X0000551579Y0003015532D01*
X0000508459Y0003024906D02*
X0000508459Y0003054902D01*
X0000512209Y0003064276D02*
X0000551579Y0003064276D01*
X0000532831Y0003064276D02*
X0000532831Y0003086773D01*
X0000512209Y0003086773D02*
X0000551579Y0003086773D01*
X0000609707Y0002927727D02*
X0000609707Y0002957724D01*
X0000594709Y0002942725D02*
X0000624705Y0002942725D01*
X0000634079Y0002995219D02*
X0000634079Y0002976471D01*
X0000615331Y0002974596D01*
X0000617206Y0002976471D01*
X0000619081Y0002980221D01*
X0000619081Y0002989595D01*
X0000617206Y0002993344D01*
X0000615331Y0002995219D01*
X0000611582Y0002997094D01*
X0000602208Y0002997094D01*
X0000598458Y0002995219D01*
X0000596584Y0002993344D01*
X0000594709Y0002989595D01*
X0000594709Y0002980221D01*
X0000596584Y0002976471D01*
X0000598458Y0002974596D01*
X0000634079Y0003008342D02*
X0000594709Y0003021466D01*
X0000634079Y0003034589D01*
X0000338138Y0003163034D02*
X0000308142Y0003163034D01*
X0000323140Y0003148036D02*
X0000323140Y0003178032D01*
X0000270646Y0003187406D02*
X0000289394Y0003187406D01*
X0000291269Y0003168658D01*
X0000289394Y0003170533D01*
X0000285644Y0003172408D01*
X0000276271Y0003172408D01*
X0000272521Y0003170533D01*
X0000270646Y0003168658D01*
X0000268771Y0003164909D01*
X0000268771Y0003155535D01*
X0000270646Y0003151785D01*
X0000272521Y0003149910D01*
X0000276271Y0003148036D01*
X0000285644Y0003148036D01*
X0000289394Y0003149910D01*
X0000291269Y0003151785D01*
X0000257523Y0003187406D02*
X0000244400Y0003148036D01*
X0000231276Y0003187406D01*
X0000333137Y0003230536D02*
X0000333137Y0003269906D01*
X0000306890Y0003269906D02*
X0000299391Y0003269906D01*
X0000295642Y0003268031D01*
X0000291892Y0003264281D01*
X0000290017Y0003256782D01*
X0000290017Y0003243659D01*
X0000291892Y0003236160D01*
X0000295642Y0003232410D01*
X0000299391Y0003230536D01*
X0000306890Y0003230536D01*
X0000310640Y0003232410D01*
X0000314389Y0003236160D01*
X0000316264Y0003243659D01*
X0000316264Y0003256782D01*
X0000314389Y0003264281D01*
X0000310640Y0003268031D01*
X0000306890Y0003269906D01*
X0000275019Y0003266156D02*
X0000273144Y0003268031D01*
X0000269395Y0003269906D01*
X0000260021Y0003269906D01*
X0000256272Y0003268031D01*
X0000254397Y0003266156D01*
X0000252522Y0003262407D01*
X0000252522Y0003258657D01*
X0000254397Y0003253033D01*
X0000276894Y0003230536D01*
X0000252522Y0003230536D01*
X0000237524Y0003266156D02*
X0000235649Y0003268031D01*
X0000231900Y0003269906D01*
X0000222526Y0003269906D01*
X0000218776Y0003268031D01*
X0000216901Y0003266156D01*
X0000215027Y0003262407D01*
X0000215027Y0003258657D01*
X0000216901Y0003253033D01*
X0000239399Y0003230536D01*
X0000215027Y0003230536D01*
X0000335637Y0003313036D02*
X0000335637Y0003352406D01*
X0000309390Y0003352406D02*
X0000301891Y0003352406D01*
X0000298142Y0003350531D01*
X0000294392Y0003346781D01*
X0000292517Y0003339282D01*
X0000292517Y0003326159D01*
X0000294392Y0003318660D01*
X0000298142Y0003314910D01*
X0000301891Y0003313036D01*
X0000309390Y0003313036D01*
X0000313140Y0003314910D01*
X0000316889Y0003318660D01*
X0000318764Y0003326159D01*
X0000318764Y0003339282D01*
X0000316889Y0003346781D01*
X0000313140Y0003350531D01*
X0000309390Y0003352406D01*
X0000255022Y0003313036D02*
X0000277519Y0003313036D01*
X0000266271Y0003313036D02*
X0000266271Y0003352406D01*
X0000270020Y0003346781D01*
X0000273770Y0003343032D01*
X0000277519Y0003341157D01*
X0000236274Y0003313036D02*
X0000228775Y0003313036D01*
X0000225026Y0003314910D01*
X0000223151Y0003316785D01*
X0000219401Y0003322410D01*
X0000217527Y0003329909D01*
X0000217527Y0003344907D01*
X0000219401Y0003348656D01*
X0000221276Y0003350531D01*
X0000225026Y0003352406D01*
X0000232525Y0003352406D01*
X0000236274Y0003350531D01*
X0000238149Y0003348656D01*
X0000240024Y0003344907D01*
X0000240024Y0003335533D01*
X0000238149Y0003331783D01*
X0000236274Y0003329909D01*
X0000232525Y0003328034D01*
X0000225026Y0003328034D01*
X0000221276Y0003329909D01*
X0000219401Y0003331783D01*
X0000217527Y0003335533D01*
X0000335637Y0003388036D02*
X0000335637Y0003427406D01*
X0000309390Y0003427406D02*
X0000301891Y0003427406D01*
X0000298142Y0003425531D01*
X0000294392Y0003421781D01*
X0000292517Y0003414282D01*
X0000292517Y0003401159D01*
X0000294392Y0003393660D01*
X0000298142Y0003389910D01*
X0000301891Y0003388036D01*
X0000309390Y0003388036D01*
X0000313140Y0003389910D01*
X0000316889Y0003393660D01*
X0000318764Y0003401159D01*
X0000318764Y0003414282D01*
X0000316889Y0003421781D01*
X0000313140Y0003425531D01*
X0000309390Y0003427406D01*
X0000277519Y0003423656D02*
X0000275644Y0003425531D01*
X0000271895Y0003427406D01*
X0000262521Y0003427406D01*
X0000258772Y0003425531D01*
X0000256897Y0003423656D01*
X0000255022Y0003419907D01*
X0000255022Y0003416157D01*
X0000256897Y0003410533D01*
X0000279394Y0003388036D01*
X0000255022Y0003388036D01*
X0000241899Y0003427406D02*
X0000217527Y0003427406D01*
X0000230650Y0003412408D01*
X0000225026Y0003412408D01*
X0000221276Y0003410533D01*
X0000219401Y0003408658D01*
X0000217527Y0003404909D01*
X0000217527Y0003395535D01*
X0000219401Y0003391785D01*
X0000221276Y0003389910D01*
X0000225026Y0003388036D01*
X0000236274Y0003388036D01*
X0000240024Y0003389910D01*
X0000241899Y0003391785D01*
X0000338137Y0003468036D02*
X0000338137Y0003507406D01*
X0000311890Y0003507406D02*
X0000304391Y0003507406D01*
X0000300642Y0003505531D01*
X0000296892Y0003501781D01*
X0000295017Y0003494282D01*
X0000295017Y0003481159D01*
X0000296892Y0003473660D01*
X0000300642Y0003469910D01*
X0000304391Y0003468036D01*
X0000311890Y0003468036D01*
X0000315640Y0003469910D01*
X0000319389Y0003473660D01*
X0000321264Y0003481159D01*
X0000321264Y0003494282D01*
X0000319389Y0003501781D01*
X0000315640Y0003505531D01*
X0000311890Y0003507406D01*
X0000281894Y0003507406D02*
X0000257522Y0003507406D01*
X0000270645Y0003492408D01*
X0000265021Y0003492408D01*
X0000261272Y0003490533D01*
X0000259397Y0003488658D01*
X0000257522Y0003484909D01*
X0000257522Y0003475535D01*
X0000259397Y0003471785D01*
X0000261272Y0003469910D01*
X0000265021Y0003468036D01*
X0000276270Y0003468036D01*
X0000280019Y0003469910D01*
X0000281894Y0003471785D01*
X0000244399Y0003507406D02*
X0000220027Y0003507406D01*
X0000233150Y0003492408D01*
X0000227526Y0003492408D01*
X0000223776Y0003490533D01*
X0000221901Y0003488658D01*
X0000220027Y0003484909D01*
X0000220027Y0003475535D01*
X0000221901Y0003471785D01*
X0000223776Y0003469910D01*
X0000227526Y0003468036D01*
X0000238774Y0003468036D01*
X0000242524Y0003469910D01*
X0000244399Y0003471785D01*
X0000307515Y0003593031D02*
X0000311265Y0003594906D01*
X0000316889Y0003594906D01*
X0000322514Y0003593031D01*
X0000326263Y0003589281D01*
X0000328138Y0003585532D01*
X0000330013Y0003578033D01*
X0000330013Y0003572409D01*
X0000328138Y0003564910D01*
X0000326263Y0003561160D01*
X0000322514Y0003557410D01*
X0000316889Y0003555536D01*
X0000313140Y0003555536D01*
X0000307515Y0003557410D01*
X0000305641Y0003559285D01*
X0000305641Y0003572409D01*
X0000313140Y0003572409D01*
X0000288768Y0003555536D02*
X0000288768Y0003594906D01*
X0000266271Y0003555536D01*
X0000266271Y0003594906D01*
X0000247523Y0003555536D02*
X0000247523Y0003594906D01*
X0000238149Y0003594906D01*
X0000232525Y0003593031D01*
X0000228775Y0003589281D01*
X0000226900Y0003585532D01*
X0000225026Y0003578033D01*
X0000225026Y0003572409D01*
X0000226900Y0003564910D01*
X0000228775Y0003561160D01*
X0000232525Y0003557410D01*
X0000238149Y0003555536D01*
X0000247523Y0003555536D01*
D27*
X0001260098Y0003339538D02*
X0001260098Y0003326052D01*
X0001219940Y0003339538D02*
X0001219940Y0003326052D01*
X0000750000Y0003222559D02*
X0000614173Y0003222559D01*
X0000750000Y0003222559D02*
X0000826771Y0003222559D01*
X0000750000Y0003424133D02*
X0000673228Y0003424133D01*
X0000750000Y0003424133D02*
X0000826771Y0003424133D01*
X0000869262Y0003513267D02*
X0000855776Y0003513267D01*
X0000869262Y0003553425D02*
X0000855776Y0003553425D01*
X0000625225Y0003555905D02*
X0000638711Y0003555905D01*
X0000625225Y0003515748D02*
X0000638711Y0003515748D01*
D26*
X0001201530Y0003339356D02*
X0001182783Y0003352480D01*
X0001201530Y0003361854D02*
X0001162160Y0003361854D01*
X0001162160Y0003346856D01*
X0001164035Y0003343106D01*
X0001165910Y0003341231D01*
X0001169659Y0003339356D01*
X0001175284Y0003339356D01*
X0001179033Y0003341231D01*
X0001180908Y0003343106D01*
X0001182783Y0003346856D01*
X0001182783Y0003361854D01*
X0001201530Y0003301861D02*
X0001201530Y0003324358D01*
X0001201530Y0003313110D02*
X0001162160Y0003313110D01*
X0001167784Y0003316859D01*
X0001171534Y0003320609D01*
X0001173409Y0003324358D01*
X0000779996Y0003211048D02*
X0000779996Y0003179176D01*
X0000778121Y0003175427D01*
X0000776246Y0003173552D01*
X0000772497Y0003171677D01*
X0000764998Y0003171677D01*
X0000761248Y0003173552D01*
X0000759373Y0003175427D01*
X0000757499Y0003179176D01*
X0000757499Y0003211048D01*
X0000718128Y0003171677D02*
X0000740626Y0003171677D01*
X0000729377Y0003171677D02*
X0000729377Y0003211048D01*
X0000733127Y0003205423D01*
X0000736876Y0003201674D01*
X0000740626Y0003199799D01*
X0000869081Y0003464266D02*
X0000870956Y0003462391D01*
X0000876580Y0003460516D01*
X0000880329Y0003460516D01*
X0000885954Y0003462391D01*
X0000889703Y0003466140D01*
X0000891578Y0003469890D01*
X0000893453Y0003477389D01*
X0000893453Y0003483013D01*
X0000891578Y0003490512D01*
X0000889703Y0003494262D01*
X0000885954Y0003498011D01*
X0000880329Y0003499886D01*
X0000876580Y0003499886D01*
X0000870956Y0003498011D01*
X0000869081Y0003496137D01*
X0000831586Y0003460516D02*
X0000854083Y0003460516D01*
X0000842834Y0003460516D02*
X0000842834Y0003499886D01*
X0000846584Y0003494262D01*
X0000850333Y0003490512D01*
X0000854083Y0003488637D01*
X0000638530Y0003465466D02*
X0000640404Y0003463592D01*
X0000646029Y0003461717D01*
X0000649778Y0003461717D01*
X0000655403Y0003463592D01*
X0000659152Y0003467341D01*
X0000661027Y0003471091D01*
X0000662902Y0003478590D01*
X0000662902Y0003484214D01*
X0000661027Y0003491713D01*
X0000659152Y0003495463D01*
X0000655403Y0003499212D01*
X0000649778Y0003501087D01*
X0000646029Y0003501087D01*
X0000640404Y0003499212D01*
X0000638530Y0003497337D01*
X0000623532Y0003497337D02*
X0000621657Y0003499212D01*
X0000617907Y0003501087D01*
X0000608533Y0003501087D01*
X0000604784Y0003499212D01*
X0000602909Y0003497337D01*
X0000601034Y0003493588D01*
X0000601034Y0003489838D01*
X0000602909Y0003484214D01*
X0000625406Y0003461717D01*
X0000601034Y0003461717D01*
G04 next file*
G04 #@! TF.GenerationSoftware,KiCad,Pcbnew,(5.1.2)-1*
G04 #@! TF.CreationDate,2020-12-05T19:35:51+09:00*
G04 #@! TF.ProjectId,M5Atom_CAN,4d354174-6f6d-45f4-9341-4e2e6b696361,rev?*
G04 #@! TF.SameCoordinates,Original*
G04 #@! TF.FileFunction,Legend,Bot*
G04 #@! TF.FilePolarity,Positive*
G04 Gerber Fmt 4.6, Leading zero omitted, Abs format (unit mm)*
G04 Created by KiCad (PCBNEW (5.1.2)-1) date 2020-12-05 19:35:51*
G04 APERTURE LIST*
G04 APERTURE END LIST*
D28*
X0002731380Y0001626015D02*
X0002731380Y0001656011D01*
X0002716382Y0001641013D02*
X0002746378Y0001641013D01*
X0002755752Y0001693506D02*
X0002755752Y0001674759D01*
X0002737005Y0001672884D01*
X0002738879Y0001674759D01*
X0002740754Y0001678508D01*
X0002740754Y0001687882D01*
X0002738879Y0001691632D01*
X0002737005Y0001693506D01*
X0002733255Y0001695381D01*
X0002723881Y0001695381D01*
X0002720132Y0001693506D01*
X0002718257Y0001691632D01*
X0002716382Y0001687882D01*
X0002716382Y0001678508D01*
X0002718257Y0001674759D01*
X0002720132Y0001672884D01*
X0002755752Y0001706630D02*
X0002716382Y0001719753D01*
X0002755752Y0001732876D01*
X0002513877Y0001636637D02*
X0002515752Y0001632888D01*
X0002515752Y0001627263D01*
X0002513877Y0001621639D01*
X0002510128Y0001617889D01*
X0002506378Y0001616015D01*
X0002498879Y0001614140D01*
X0002493255Y0001614140D01*
X0002485756Y0001616015D01*
X0002482006Y0001617889D01*
X0002478257Y0001621639D01*
X0002476382Y0001627263D01*
X0002476382Y0001631013D01*
X0002478257Y0001636637D01*
X0002480132Y0001638512D01*
X0002493255Y0001638512D01*
X0002493255Y0001631013D01*
X0002476382Y0001655385D02*
X0002515752Y0001655385D01*
X0002476382Y0001677882D01*
X0002515752Y0001677882D01*
X0002476382Y0001696630D02*
X0002515752Y0001696630D01*
X0002515752Y0001706003D01*
X0002513877Y0001711628D01*
X0002510128Y0001715377D01*
X0002506378Y0001717252D01*
X0002498879Y0001719127D01*
X0002493255Y0001719127D01*
X0002485756Y0001717252D01*
X0002482006Y0001715377D01*
X0002478257Y0001711628D01*
X0002476382Y0001706003D01*
X0002476382Y0001696630D01*
X0002555132Y0001645390D02*
X0002553257Y0001643516D01*
X0002551382Y0001637891D01*
X0002551382Y0001634142D01*
X0002553257Y0001628518D01*
X0002557006Y0001624768D01*
X0002560756Y0001622893D01*
X0002568255Y0001621018D01*
X0002573879Y0001621018D01*
X0002581378Y0001622893D01*
X0002585128Y0001624768D01*
X0002588877Y0001628518D01*
X0002590752Y0001634142D01*
X0002590752Y0001637891D01*
X0002588877Y0001643516D01*
X0002587003Y0001645390D01*
X0002562631Y0001660388D02*
X0002562631Y0001679136D01*
X0002551382Y0001656639D02*
X0002590752Y0001669762D01*
X0002551382Y0001682886D01*
X0002551382Y0001696009D02*
X0002590752Y0001696009D01*
X0002551382Y0001718506D01*
X0002590752Y0001718506D01*
X0002547633Y0001727880D02*
X0002547633Y0001757876D01*
X0002551382Y0001785998D02*
X0002551382Y0001767250D01*
X0002590752Y0001767250D01*
X0002637632Y0001640703D02*
X0002635757Y0001638829D01*
X0002633882Y0001633204D01*
X0002633882Y0001629455D01*
X0002635757Y0001623831D01*
X0002639506Y0001620081D01*
X0002643256Y0001618206D01*
X0002650755Y0001616332D01*
X0002656379Y0001616332D01*
X0002663878Y0001618206D01*
X0002667628Y0001620081D01*
X0002671377Y0001623831D01*
X0002673252Y0001629455D01*
X0002673252Y0001633204D01*
X0002671377Y0001638829D01*
X0002669503Y0001640703D01*
X0002645131Y0001655702D02*
X0002645131Y0001674449D01*
X0002633882Y0001651952D02*
X0002673252Y0001665075D01*
X0002633882Y0001678199D01*
X0002633882Y0001691322D02*
X0002673252Y0001691322D01*
X0002633882Y0001713819D01*
X0002673252Y0001713819D01*
X0002630133Y0001723193D02*
X0002630133Y0001753189D01*
X0002633882Y0001762563D02*
X0002673252Y0001762563D01*
X0002654505Y0001762563D02*
X0002654505Y0001785060D01*
X0002633882Y0001785060D02*
X0002673252Y0001785060D01*
X0002006377Y0001639137D02*
X0002008252Y0001635388D01*
X0002008252Y0001629763D01*
X0002006377Y0001624139D01*
X0002002628Y0001620389D01*
X0001998878Y0001618515D01*
X0001991379Y0001616640D01*
X0001985755Y0001616640D01*
X0001978256Y0001618515D01*
X0001974506Y0001620389D01*
X0001970757Y0001624139D01*
X0001968882Y0001629763D01*
X0001968882Y0001633513D01*
X0001970757Y0001639137D01*
X0001972632Y0001641012D01*
X0001985755Y0001641012D01*
X0001985755Y0001633513D01*
X0001968882Y0001657885D02*
X0002008252Y0001657885D01*
X0001968882Y0001680382D01*
X0002008252Y0001680382D01*
X0001968882Y0001699130D02*
X0002008252Y0001699130D01*
X0002008252Y0001708503D01*
X0002006377Y0001714128D01*
X0002002628Y0001717877D01*
X0001998878Y0001719752D01*
X0001991379Y0001721627D01*
X0001985755Y0001721627D01*
X0001978256Y0001719752D01*
X0001974506Y0001717877D01*
X0001970757Y0001714128D01*
X0001968882Y0001708503D01*
X0001968882Y0001699130D01*
X0002047632Y0001647890D02*
X0002045757Y0001646016D01*
X0002043882Y0001640391D01*
X0002043882Y0001636642D01*
X0002045757Y0001631017D01*
X0002049506Y0001627268D01*
X0002053256Y0001625393D01*
X0002060755Y0001623518D01*
X0002066379Y0001623518D01*
X0002073878Y0001625393D01*
X0002077628Y0001627268D01*
X0002081377Y0001631017D01*
X0002083252Y0001636642D01*
X0002083252Y0001640391D01*
X0002081377Y0001646016D01*
X0002079503Y0001647890D01*
X0002055131Y0001662889D02*
X0002055131Y0001681636D01*
X0002043882Y0001659139D02*
X0002083252Y0001672262D01*
X0002043882Y0001685386D01*
X0002043882Y0001698509D02*
X0002083252Y0001698509D01*
X0002043882Y0001721006D01*
X0002083252Y0001721006D01*
X0002040133Y0001730380D02*
X0002040133Y0001760376D01*
X0002043882Y0001788498D02*
X0002043882Y0001769750D01*
X0002083252Y0001769750D01*
X0002130132Y0001643203D02*
X0002128257Y0001641329D01*
X0002126382Y0001635704D01*
X0002126382Y0001631955D01*
X0002128257Y0001626331D01*
X0002132006Y0001622581D01*
X0002135756Y0001620706D01*
X0002143255Y0001618832D01*
X0002148879Y0001618832D01*
X0002156378Y0001620706D01*
X0002160128Y0001622581D01*
X0002163877Y0001626331D01*
X0002165752Y0001631955D01*
X0002165752Y0001635704D01*
X0002163877Y0001641329D01*
X0002162003Y0001643203D01*
X0002137631Y0001658202D02*
X0002137631Y0001676949D01*
X0002126382Y0001654452D02*
X0002165752Y0001667575D01*
X0002126382Y0001680699D01*
X0002126382Y0001693822D02*
X0002165752Y0001693822D01*
X0002126382Y0001716319D01*
X0002165752Y0001716319D01*
X0002122633Y0001725693D02*
X0002122633Y0001755689D01*
X0002126382Y0001765063D02*
X0002165752Y0001765063D01*
X0002147005Y0001765063D02*
X0002147005Y0001787560D01*
X0002126382Y0001787560D02*
X0002165752Y0001787560D01*
X0002223880Y0001628515D02*
X0002223880Y0001658511D01*
X0002208882Y0001643513D02*
X0002238878Y0001643513D01*
X0002248252Y0001696006D02*
X0002248252Y0001677259D01*
X0002229505Y0001675384D01*
X0002231379Y0001677259D01*
X0002233254Y0001681008D01*
X0002233254Y0001690382D01*
X0002231379Y0001694132D01*
X0002229505Y0001696006D01*
X0002225755Y0001697881D01*
X0002216381Y0001697881D01*
X0002212632Y0001696006D01*
X0002210757Y0001694132D01*
X0002208882Y0001690382D01*
X0002208882Y0001681008D01*
X0002210757Y0001677259D01*
X0002212632Y0001675384D01*
X0002248252Y0001709130D02*
X0002208882Y0001722253D01*
X0002248252Y0001735376D01*
X0001952311Y0001863821D02*
X0001922315Y0001863821D01*
X0001937313Y0001848823D02*
X0001937313Y0001878819D01*
X0001884819Y0001888193D02*
X0001903567Y0001888193D01*
X0001905442Y0001869445D01*
X0001903567Y0001871320D01*
X0001899818Y0001873195D01*
X0001890444Y0001873195D01*
X0001886694Y0001871320D01*
X0001884819Y0001869445D01*
X0001882945Y0001865696D01*
X0001882945Y0001856322D01*
X0001884819Y0001852573D01*
X0001886694Y0001850698D01*
X0001890444Y0001848823D01*
X0001899818Y0001848823D01*
X0001903567Y0001850698D01*
X0001905442Y0001852573D01*
X0001871696Y0001888193D02*
X0001858573Y0001848823D01*
X0001845449Y0001888193D01*
X0001947310Y0001931323D02*
X0001947310Y0001970693D01*
X0001921063Y0001970693D02*
X0001913564Y0001970693D01*
X0001909815Y0001968818D01*
X0001906065Y0001965069D01*
X0001904191Y0001957570D01*
X0001904191Y0001944446D01*
X0001906065Y0001936947D01*
X0001909815Y0001933198D01*
X0001913564Y0001931323D01*
X0001921063Y0001931323D01*
X0001924813Y0001933198D01*
X0001928562Y0001936947D01*
X0001930437Y0001944446D01*
X0001930437Y0001957570D01*
X0001928562Y0001965069D01*
X0001924813Y0001968818D01*
X0001921063Y0001970693D01*
X0001889192Y0001966944D02*
X0001887318Y0001968818D01*
X0001883568Y0001970693D01*
X0001874194Y0001970693D01*
X0001870445Y0001968818D01*
X0001868570Y0001966944D01*
X0001866695Y0001963194D01*
X0001866695Y0001959445D01*
X0001868570Y0001953820D01*
X0001891067Y0001931323D01*
X0001866695Y0001931323D01*
X0001851697Y0001966944D02*
X0001849822Y0001968818D01*
X0001846073Y0001970693D01*
X0001836699Y0001970693D01*
X0001832949Y0001968818D01*
X0001831075Y0001966944D01*
X0001829200Y0001963194D01*
X0001829200Y0001959445D01*
X0001831075Y0001953820D01*
X0001853572Y0001931323D01*
X0001829200Y0001931323D01*
X0001949810Y0002013823D02*
X0001949810Y0002053193D01*
X0001923563Y0002053193D02*
X0001916064Y0002053193D01*
X0001912315Y0002051318D01*
X0001908565Y0002047569D01*
X0001906690Y0002040070D01*
X0001906690Y0002026946D01*
X0001908565Y0002019447D01*
X0001912315Y0002015698D01*
X0001916064Y0002013823D01*
X0001923563Y0002013823D01*
X0001927313Y0002015698D01*
X0001931062Y0002019447D01*
X0001932937Y0002026946D01*
X0001932937Y0002040070D01*
X0001931062Y0002047569D01*
X0001927313Y0002051318D01*
X0001923563Y0002053193D01*
X0001869195Y0002013823D02*
X0001891692Y0002013823D01*
X0001880444Y0002013823D02*
X0001880444Y0002053193D01*
X0001884193Y0002047569D01*
X0001887943Y0002043819D01*
X0001891692Y0002041945D01*
X0001850448Y0002013823D02*
X0001842948Y0002013823D01*
X0001839199Y0002015698D01*
X0001837324Y0002017573D01*
X0001833575Y0002023197D01*
X0001831700Y0002030696D01*
X0001831700Y0002045694D01*
X0001833575Y0002049444D01*
X0001835449Y0002051318D01*
X0001839199Y0002053193D01*
X0001846698Y0002053193D01*
X0001850448Y0002051318D01*
X0001852322Y0002049444D01*
X0001854197Y0002045694D01*
X0001854197Y0002036320D01*
X0001852322Y0002032571D01*
X0001850448Y0002030696D01*
X0001846698Y0002028821D01*
X0001839199Y0002028821D01*
X0001835449Y0002030696D01*
X0001833575Y0002032571D01*
X0001831700Y0002036320D01*
X0001949810Y0002088823D02*
X0001949810Y0002128193D01*
X0001923563Y0002128193D02*
X0001916064Y0002128193D01*
X0001912315Y0002126318D01*
X0001908565Y0002122569D01*
X0001906690Y0002115070D01*
X0001906690Y0002101946D01*
X0001908565Y0002094447D01*
X0001912315Y0002090698D01*
X0001916064Y0002088823D01*
X0001923563Y0002088823D01*
X0001927313Y0002090698D01*
X0001931062Y0002094447D01*
X0001932937Y0002101946D01*
X0001932937Y0002115070D01*
X0001931062Y0002122569D01*
X0001927313Y0002126318D01*
X0001923563Y0002128193D01*
X0001891692Y0002124444D02*
X0001889818Y0002126318D01*
X0001886068Y0002128193D01*
X0001876694Y0002128193D01*
X0001872945Y0002126318D01*
X0001871070Y0002124444D01*
X0001869195Y0002120694D01*
X0001869195Y0002116945D01*
X0001871070Y0002111320D01*
X0001893567Y0002088823D01*
X0001869195Y0002088823D01*
X0001856072Y0002128193D02*
X0001831700Y0002128193D01*
X0001844823Y0002113195D01*
X0001839199Y0002113195D01*
X0001835449Y0002111320D01*
X0001833575Y0002109446D01*
X0001831700Y0002105696D01*
X0001831700Y0002096322D01*
X0001833575Y0002092573D01*
X0001835449Y0002090698D01*
X0001839199Y0002088823D01*
X0001850448Y0002088823D01*
X0001854197Y0002090698D01*
X0001856072Y0002092573D01*
X0001952310Y0002168823D02*
X0001952310Y0002208193D01*
X0001926063Y0002208193D02*
X0001918564Y0002208193D01*
X0001914815Y0002206318D01*
X0001911065Y0002202569D01*
X0001909190Y0002195070D01*
X0001909190Y0002181946D01*
X0001911065Y0002174447D01*
X0001914815Y0002170698D01*
X0001918564Y0002168823D01*
X0001926063Y0002168823D01*
X0001929813Y0002170698D01*
X0001933562Y0002174447D01*
X0001935437Y0002181946D01*
X0001935437Y0002195070D01*
X0001933562Y0002202569D01*
X0001929813Y0002206318D01*
X0001926063Y0002208193D01*
X0001896067Y0002208193D02*
X0001871695Y0002208193D01*
X0001884819Y0002193195D01*
X0001879194Y0002193195D01*
X0001875445Y0002191320D01*
X0001873570Y0002189446D01*
X0001871695Y0002185696D01*
X0001871695Y0002176322D01*
X0001873570Y0002172573D01*
X0001875445Y0002170698D01*
X0001879194Y0002168823D01*
X0001890443Y0002168823D01*
X0001894192Y0002170698D01*
X0001896067Y0002172573D01*
X0001858572Y0002208193D02*
X0001834200Y0002208193D01*
X0001847323Y0002193195D01*
X0001841699Y0002193195D01*
X0001837949Y0002191320D01*
X0001836075Y0002189446D01*
X0001834200Y0002185696D01*
X0001834200Y0002176322D01*
X0001836075Y0002172573D01*
X0001837949Y0002170698D01*
X0001841699Y0002168823D01*
X0001852947Y0002168823D01*
X0001856697Y0002170698D01*
X0001858572Y0002172573D01*
X0001921689Y0002293818D02*
X0001925438Y0002295693D01*
X0001931062Y0002295693D01*
X0001936687Y0002293818D01*
X0001940436Y0002290069D01*
X0001942311Y0002286319D01*
X0001944186Y0002278820D01*
X0001944186Y0002273196D01*
X0001942311Y0002265697D01*
X0001940436Y0002261947D01*
X0001936687Y0002258198D01*
X0001931062Y0002256323D01*
X0001927313Y0002256323D01*
X0001921689Y0002258198D01*
X0001919814Y0002260073D01*
X0001919814Y0002273196D01*
X0001927313Y0002273196D01*
X0001902941Y0002256323D02*
X0001902941Y0002295693D01*
X0001880444Y0002256323D01*
X0001880444Y0002295693D01*
X0001861696Y0002256323D02*
X0001861696Y0002295693D01*
X0001852322Y0002295693D01*
X0001846698Y0002293818D01*
X0001842948Y0002290069D01*
X0001841074Y0002286319D01*
X0001839199Y0002278820D01*
X0001839199Y0002273196D01*
X0001841074Y0002265697D01*
X0001842948Y0002261947D01*
X0001846698Y0002258198D01*
X0001852322Y0002256323D01*
X0001861696Y0002256323D01*
D29*
X0002874271Y0002040325D02*
X0002874271Y0002026839D01*
X0002834114Y0002040325D02*
X0002834114Y0002026839D01*
X0002364173Y0001923346D02*
X0002228346Y0001923346D01*
X0002364173Y0001923346D02*
X0002440944Y0001923346D01*
X0002364173Y0002124921D02*
X0002287401Y0002124921D01*
X0002364173Y0002124921D02*
X0002440944Y0002124921D01*
X0002483435Y0002214055D02*
X0002469950Y0002214055D01*
X0002483435Y0002254212D02*
X0002469950Y0002254212D01*
X0002239398Y0002256692D02*
X0002252884Y0002256692D01*
X0002239398Y0002216535D02*
X0002252884Y0002216535D01*
D28*
X0002815703Y0002040144D02*
X0002796956Y0002053267D01*
X0002815703Y0002062641D02*
X0002776333Y0002062641D01*
X0002776333Y0002047643D01*
X0002778208Y0002043893D01*
X0002780083Y0002042019D01*
X0002783832Y0002040144D01*
X0002789457Y0002040144D01*
X0002793206Y0002042019D01*
X0002795081Y0002043893D01*
X0002796956Y0002047643D01*
X0002796956Y0002062641D01*
X0002815703Y0002002649D02*
X0002815703Y0002025146D01*
X0002815703Y0002013897D02*
X0002776333Y0002013897D01*
X0002781958Y0002017647D01*
X0002785707Y0002021396D01*
X0002787582Y0002025146D01*
X0002394169Y0001911835D02*
X0002394169Y0001879964D01*
X0002392294Y0001876214D01*
X0002390419Y0001874340D01*
X0002386670Y0001872465D01*
X0002379171Y0001872465D01*
X0002375421Y0001874340D01*
X0002373547Y0001876214D01*
X0002371672Y0001879964D01*
X0002371672Y0001911835D01*
X0002332302Y0001872465D02*
X0002354799Y0001872465D01*
X0002343550Y0001872465D02*
X0002343550Y0001911835D01*
X0002347300Y0001906211D01*
X0002351049Y0001902461D01*
X0002354799Y0001900586D01*
X0002483254Y0002165053D02*
X0002485129Y0002163178D01*
X0002490753Y0002161303D01*
X0002494503Y0002161303D01*
X0002500127Y0002163178D01*
X0002503877Y0002166928D01*
X0002505751Y0002170677D01*
X0002507626Y0002178176D01*
X0002507626Y0002183801D01*
X0002505751Y0002191300D01*
X0002503877Y0002195049D01*
X0002500127Y0002198799D01*
X0002494503Y0002200674D01*
X0002490753Y0002200674D01*
X0002485129Y0002198799D01*
X0002483254Y0002196924D01*
X0002445759Y0002161303D02*
X0002468256Y0002161303D01*
X0002457007Y0002161303D02*
X0002457007Y0002200674D01*
X0002460757Y0002195049D01*
X0002464506Y0002191300D01*
X0002468256Y0002189425D01*
X0002252703Y0002166254D02*
X0002254578Y0002164379D01*
X0002260202Y0002162504D01*
X0002263951Y0002162504D01*
X0002269576Y0002164379D01*
X0002273325Y0002168129D01*
X0002275200Y0002171878D01*
X0002277075Y0002179377D01*
X0002277075Y0002185001D01*
X0002275200Y0002192500D01*
X0002273325Y0002196250D01*
X0002269576Y0002199999D01*
X0002263951Y0002201874D01*
X0002260202Y0002201874D01*
X0002254578Y0002199999D01*
X0002252703Y0002198125D01*
X0002237705Y0002198125D02*
X0002235830Y0002199999D01*
X0002232080Y0002201874D01*
X0002222707Y0002201874D01*
X0002218957Y0002199999D01*
X0002217082Y0002198125D01*
X0002215208Y0002194375D01*
X0002215208Y0002190626D01*
X0002217082Y0002185001D01*
X0002239580Y0002162504D01*
X0002215208Y0002162504D01*
G04 next file*
G04 #@! TF.GenerationSoftware,KiCad,Pcbnew,(5.1.2)-1*
G04 #@! TF.CreationDate,2020-12-05T19:35:51+09:00*
G04 #@! TF.ProjectId,M5Atom_CAN,4d354174-6f6d-45f4-9341-4e2e6b696361,rev?*
G04 #@! TF.SameCoordinates,Original*
G04 #@! TF.FileFunction,Legend,Bot*
G04 #@! TF.FilePolarity,Positive*
G04 Gerber Fmt 4.6, Leading zero omitted, Abs format (unit mm)*
G04 Created by KiCad (PCBNEW (5.1.2)-1) date 2020-12-05 19:35:51*
G04 APERTURE LIST*
G04 APERTURE END LIST*
D30*
X0002731380Y0002925227D02*
X0002731380Y0002955224D01*
X0002716382Y0002940225D02*
X0002746378Y0002940225D01*
X0002755752Y0002992719D02*
X0002755752Y0002973971D01*
X0002737005Y0002972096D01*
X0002738879Y0002973971D01*
X0002740754Y0002977721D01*
X0002740754Y0002987095D01*
X0002738879Y0002990844D01*
X0002737005Y0002992719D01*
X0002733255Y0002994594D01*
X0002723881Y0002994594D01*
X0002720132Y0002992719D01*
X0002718257Y0002990844D01*
X0002716382Y0002987095D01*
X0002716382Y0002977721D01*
X0002718257Y0002973971D01*
X0002720132Y0002972096D01*
X0002755752Y0003005842D02*
X0002716382Y0003018966D01*
X0002755752Y0003032089D01*
X0002513877Y0002935850D02*
X0002515752Y0002932100D01*
X0002515752Y0002926476D01*
X0002513877Y0002920852D01*
X0002510128Y0002917102D01*
X0002506378Y0002915227D01*
X0002498879Y0002913353D01*
X0002493255Y0002913353D01*
X0002485756Y0002915227D01*
X0002482006Y0002917102D01*
X0002478257Y0002920852D01*
X0002476382Y0002926476D01*
X0002476382Y0002930225D01*
X0002478257Y0002935850D01*
X0002480132Y0002937724D01*
X0002493255Y0002937724D01*
X0002493255Y0002930225D01*
X0002476382Y0002954597D02*
X0002515752Y0002954597D01*
X0002476382Y0002977095D01*
X0002515752Y0002977095D01*
X0002476382Y0002995842D02*
X0002515752Y0002995842D01*
X0002515752Y0003005216D01*
X0002513877Y0003010840D01*
X0002510128Y0003014590D01*
X0002506378Y0003016465D01*
X0002498879Y0003018339D01*
X0002493255Y0003018339D01*
X0002485756Y0003016465D01*
X0002482006Y0003014590D01*
X0002478257Y0003010840D01*
X0002476382Y0003005216D01*
X0002476382Y0002995842D01*
X0002555132Y0002944603D02*
X0002553257Y0002942728D01*
X0002551382Y0002937104D01*
X0002551382Y0002933354D01*
X0002553257Y0002927730D01*
X0002557006Y0002923981D01*
X0002560756Y0002922106D01*
X0002568255Y0002920231D01*
X0002573879Y0002920231D01*
X0002581378Y0002922106D01*
X0002585128Y0002923981D01*
X0002588877Y0002927730D01*
X0002590752Y0002933354D01*
X0002590752Y0002937104D01*
X0002588877Y0002942728D01*
X0002587003Y0002944603D01*
X0002562631Y0002959601D02*
X0002562631Y0002978349D01*
X0002551382Y0002955852D02*
X0002590752Y0002968975D01*
X0002551382Y0002982098D01*
X0002551382Y0002995222D02*
X0002590752Y0002995222D01*
X0002551382Y0003017719D01*
X0002590752Y0003017719D01*
X0002547633Y0003027093D02*
X0002547633Y0003057089D01*
X0002551382Y0003085210D02*
X0002551382Y0003066463D01*
X0002590752Y0003066463D01*
X0002637632Y0002939916D02*
X0002635757Y0002938041D01*
X0002633882Y0002932417D01*
X0002633882Y0002928667D01*
X0002635757Y0002923043D01*
X0002639506Y0002919294D01*
X0002643256Y0002917419D01*
X0002650755Y0002915544D01*
X0002656379Y0002915544D01*
X0002663878Y0002917419D01*
X0002667628Y0002919294D01*
X0002671377Y0002923043D01*
X0002673252Y0002928667D01*
X0002673252Y0002932417D01*
X0002671377Y0002938041D01*
X0002669503Y0002939916D01*
X0002645131Y0002954914D02*
X0002645131Y0002973662D01*
X0002633882Y0002951165D02*
X0002673252Y0002964288D01*
X0002633882Y0002977411D01*
X0002633882Y0002990535D02*
X0002673252Y0002990535D01*
X0002633882Y0003013032D01*
X0002673252Y0003013032D01*
X0002630133Y0003022406D02*
X0002630133Y0003052402D01*
X0002633882Y0003061776D02*
X0002673252Y0003061776D01*
X0002654505Y0003061776D02*
X0002654505Y0003084273D01*
X0002633882Y0003084273D02*
X0002673252Y0003084273D01*
X0002006377Y0002938350D02*
X0002008252Y0002934600D01*
X0002008252Y0002928976D01*
X0002006377Y0002923352D01*
X0002002628Y0002919602D01*
X0001998878Y0002917727D01*
X0001991379Y0002915853D01*
X0001985755Y0002915853D01*
X0001978256Y0002917727D01*
X0001974506Y0002919602D01*
X0001970757Y0002923352D01*
X0001968882Y0002928976D01*
X0001968882Y0002932725D01*
X0001970757Y0002938350D01*
X0001972632Y0002940225D01*
X0001985755Y0002940225D01*
X0001985755Y0002932725D01*
X0001968882Y0002957097D02*
X0002008252Y0002957097D01*
X0001968882Y0002979595D01*
X0002008252Y0002979595D01*
X0001968882Y0002998342D02*
X0002008252Y0002998342D01*
X0002008252Y0003007716D01*
X0002006377Y0003013340D01*
X0002002628Y0003017090D01*
X0001998878Y0003018965D01*
X0001991379Y0003020839D01*
X0001985755Y0003020839D01*
X0001978256Y0003018965D01*
X0001974506Y0003017090D01*
X0001970757Y0003013340D01*
X0001968882Y0003007716D01*
X0001968882Y0002998342D01*
X0002047632Y0002947103D02*
X0002045757Y0002945228D01*
X0002043882Y0002939604D01*
X0002043882Y0002935854D01*
X0002045757Y0002930230D01*
X0002049506Y0002926481D01*
X0002053256Y0002924606D01*
X0002060755Y0002922731D01*
X0002066379Y0002922731D01*
X0002073878Y0002924606D01*
X0002077628Y0002926481D01*
X0002081377Y0002930230D01*
X0002083252Y0002935854D01*
X0002083252Y0002939604D01*
X0002081377Y0002945228D01*
X0002079503Y0002947103D01*
X0002055131Y0002962101D02*
X0002055131Y0002980849D01*
X0002043882Y0002958352D02*
X0002083252Y0002971475D01*
X0002043882Y0002984598D01*
X0002043882Y0002997722D02*
X0002083252Y0002997722D01*
X0002043882Y0003020219D01*
X0002083252Y0003020219D01*
X0002040133Y0003029593D02*
X0002040133Y0003059589D01*
X0002043882Y0003087710D02*
X0002043882Y0003068963D01*
X0002083252Y0003068963D01*
X0002130132Y0002942416D02*
X0002128257Y0002940541D01*
X0002126382Y0002934917D01*
X0002126382Y0002931167D01*
X0002128257Y0002925543D01*
X0002132006Y0002921794D01*
X0002135756Y0002919919D01*
X0002143255Y0002918044D01*
X0002148879Y0002918044D01*
X0002156378Y0002919919D01*
X0002160128Y0002921794D01*
X0002163877Y0002925543D01*
X0002165752Y0002931167D01*
X0002165752Y0002934917D01*
X0002163877Y0002940541D01*
X0002162003Y0002942416D01*
X0002137631Y0002957414D02*
X0002137631Y0002976162D01*
X0002126382Y0002953665D02*
X0002165752Y0002966788D01*
X0002126382Y0002979911D01*
X0002126382Y0002993035D02*
X0002165752Y0002993035D01*
X0002126382Y0003015532D01*
X0002165752Y0003015532D01*
X0002122633Y0003024906D02*
X0002122633Y0003054902D01*
X0002126382Y0003064276D02*
X0002165752Y0003064276D01*
X0002147005Y0003064276D02*
X0002147005Y0003086773D01*
X0002126382Y0003086773D02*
X0002165752Y0003086773D01*
X0002223880Y0002927727D02*
X0002223880Y0002957724D01*
X0002208882Y0002942725D02*
X0002238878Y0002942725D01*
X0002248252Y0002995219D02*
X0002248252Y0002976471D01*
X0002229505Y0002974596D01*
X0002231379Y0002976471D01*
X0002233254Y0002980221D01*
X0002233254Y0002989595D01*
X0002231379Y0002993344D01*
X0002229505Y0002995219D01*
X0002225755Y0002997094D01*
X0002216381Y0002997094D01*
X0002212632Y0002995219D01*
X0002210757Y0002993344D01*
X0002208882Y0002989595D01*
X0002208882Y0002980221D01*
X0002210757Y0002976471D01*
X0002212632Y0002974596D01*
X0002248252Y0003008342D02*
X0002208882Y0003021466D01*
X0002248252Y0003034589D01*
X0001952311Y0003163034D02*
X0001922315Y0003163034D01*
X0001937313Y0003148036D02*
X0001937313Y0003178032D01*
X0001884819Y0003187406D02*
X0001903567Y0003187406D01*
X0001905442Y0003168658D01*
X0001903567Y0003170533D01*
X0001899818Y0003172408D01*
X0001890444Y0003172408D01*
X0001886694Y0003170533D01*
X0001884819Y0003168658D01*
X0001882945Y0003164909D01*
X0001882945Y0003155535D01*
X0001884819Y0003151785D01*
X0001886694Y0003149910D01*
X0001890444Y0003148036D01*
X0001899818Y0003148036D01*
X0001903567Y0003149910D01*
X0001905442Y0003151785D01*
X0001871696Y0003187406D02*
X0001858573Y0003148036D01*
X0001845449Y0003187406D01*
X0001947310Y0003230536D02*
X0001947310Y0003269906D01*
X0001921063Y0003269906D02*
X0001913564Y0003269906D01*
X0001909815Y0003268031D01*
X0001906065Y0003264281D01*
X0001904191Y0003256782D01*
X0001904191Y0003243659D01*
X0001906065Y0003236160D01*
X0001909815Y0003232410D01*
X0001913564Y0003230536D01*
X0001921063Y0003230536D01*
X0001924813Y0003232410D01*
X0001928562Y0003236160D01*
X0001930437Y0003243659D01*
X0001930437Y0003256782D01*
X0001928562Y0003264281D01*
X0001924813Y0003268031D01*
X0001921063Y0003269906D01*
X0001889192Y0003266156D02*
X0001887318Y0003268031D01*
X0001883568Y0003269906D01*
X0001874194Y0003269906D01*
X0001870445Y0003268031D01*
X0001868570Y0003266156D01*
X0001866695Y0003262407D01*
X0001866695Y0003258657D01*
X0001868570Y0003253033D01*
X0001891067Y0003230536D01*
X0001866695Y0003230536D01*
X0001851697Y0003266156D02*
X0001849822Y0003268031D01*
X0001846073Y0003269906D01*
X0001836699Y0003269906D01*
X0001832949Y0003268031D01*
X0001831075Y0003266156D01*
X0001829200Y0003262407D01*
X0001829200Y0003258657D01*
X0001831075Y0003253033D01*
X0001853572Y0003230536D01*
X0001829200Y0003230536D01*
X0001949810Y0003313036D02*
X0001949810Y0003352406D01*
X0001923563Y0003352406D02*
X0001916064Y0003352406D01*
X0001912315Y0003350531D01*
X0001908565Y0003346781D01*
X0001906690Y0003339282D01*
X0001906690Y0003326159D01*
X0001908565Y0003318660D01*
X0001912315Y0003314910D01*
X0001916064Y0003313036D01*
X0001923563Y0003313036D01*
X0001927313Y0003314910D01*
X0001931062Y0003318660D01*
X0001932937Y0003326159D01*
X0001932937Y0003339282D01*
X0001931062Y0003346781D01*
X0001927313Y0003350531D01*
X0001923563Y0003352406D01*
X0001869195Y0003313036D02*
X0001891692Y0003313036D01*
X0001880444Y0003313036D02*
X0001880444Y0003352406D01*
X0001884193Y0003346781D01*
X0001887943Y0003343032D01*
X0001891692Y0003341157D01*
X0001850448Y0003313036D02*
X0001842948Y0003313036D01*
X0001839199Y0003314910D01*
X0001837324Y0003316785D01*
X0001833575Y0003322410D01*
X0001831700Y0003329909D01*
X0001831700Y0003344907D01*
X0001833575Y0003348656D01*
X0001835449Y0003350531D01*
X0001839199Y0003352406D01*
X0001846698Y0003352406D01*
X0001850448Y0003350531D01*
X0001852322Y0003348656D01*
X0001854197Y0003344907D01*
X0001854197Y0003335533D01*
X0001852322Y0003331783D01*
X0001850448Y0003329909D01*
X0001846698Y0003328034D01*
X0001839199Y0003328034D01*
X0001835449Y0003329909D01*
X0001833575Y0003331783D01*
X0001831700Y0003335533D01*
X0001949810Y0003388036D02*
X0001949810Y0003427406D01*
X0001923563Y0003427406D02*
X0001916064Y0003427406D01*
X0001912315Y0003425531D01*
X0001908565Y0003421781D01*
X0001906690Y0003414282D01*
X0001906690Y0003401159D01*
X0001908565Y0003393660D01*
X0001912315Y0003389910D01*
X0001916064Y0003388036D01*
X0001923563Y0003388036D01*
X0001927313Y0003389910D01*
X0001931062Y0003393660D01*
X0001932937Y0003401159D01*
X0001932937Y0003414282D01*
X0001931062Y0003421781D01*
X0001927313Y0003425531D01*
X0001923563Y0003427406D01*
X0001891692Y0003423656D02*
X0001889818Y0003425531D01*
X0001886068Y0003427406D01*
X0001876694Y0003427406D01*
X0001872945Y0003425531D01*
X0001871070Y0003423656D01*
X0001869195Y0003419907D01*
X0001869195Y0003416157D01*
X0001871070Y0003410533D01*
X0001893567Y0003388036D01*
X0001869195Y0003388036D01*
X0001856072Y0003427406D02*
X0001831700Y0003427406D01*
X0001844823Y0003412408D01*
X0001839199Y0003412408D01*
X0001835449Y0003410533D01*
X0001833575Y0003408658D01*
X0001831700Y0003404909D01*
X0001831700Y0003395535D01*
X0001833575Y0003391785D01*
X0001835449Y0003389910D01*
X0001839199Y0003388036D01*
X0001850448Y0003388036D01*
X0001854197Y0003389910D01*
X0001856072Y0003391785D01*
X0001952310Y0003468036D02*
X0001952310Y0003507406D01*
X0001926063Y0003507406D02*
X0001918564Y0003507406D01*
X0001914815Y0003505531D01*
X0001911065Y0003501781D01*
X0001909190Y0003494282D01*
X0001909190Y0003481159D01*
X0001911065Y0003473660D01*
X0001914815Y0003469910D01*
X0001918564Y0003468036D01*
X0001926063Y0003468036D01*
X0001929813Y0003469910D01*
X0001933562Y0003473660D01*
X0001935437Y0003481159D01*
X0001935437Y0003494282D01*
X0001933562Y0003501781D01*
X0001929813Y0003505531D01*
X0001926063Y0003507406D01*
X0001896067Y0003507406D02*
X0001871695Y0003507406D01*
X0001884819Y0003492408D01*
X0001879194Y0003492408D01*
X0001875445Y0003490533D01*
X0001873570Y0003488658D01*
X0001871695Y0003484909D01*
X0001871695Y0003475535D01*
X0001873570Y0003471785D01*
X0001875445Y0003469910D01*
X0001879194Y0003468036D01*
X0001890443Y0003468036D01*
X0001894192Y0003469910D01*
X0001896067Y0003471785D01*
X0001858572Y0003507406D02*
X0001834200Y0003507406D01*
X0001847323Y0003492408D01*
X0001841699Y0003492408D01*
X0001837949Y0003490533D01*
X0001836075Y0003488658D01*
X0001834200Y0003484909D01*
X0001834200Y0003475535D01*
X0001836075Y0003471785D01*
X0001837949Y0003469910D01*
X0001841699Y0003468036D01*
X0001852947Y0003468036D01*
X0001856697Y0003469910D01*
X0001858572Y0003471785D01*
X0001921689Y0003593031D02*
X0001925438Y0003594906D01*
X0001931062Y0003594906D01*
X0001936687Y0003593031D01*
X0001940436Y0003589281D01*
X0001942311Y0003585532D01*
X0001944186Y0003578033D01*
X0001944186Y0003572409D01*
X0001942311Y0003564910D01*
X0001940436Y0003561160D01*
X0001936687Y0003557410D01*
X0001931062Y0003555536D01*
X0001927313Y0003555536D01*
X0001921689Y0003557410D01*
X0001919814Y0003559285D01*
X0001919814Y0003572409D01*
X0001927313Y0003572409D01*
X0001902941Y0003555536D02*
X0001902941Y0003594906D01*
X0001880444Y0003555536D01*
X0001880444Y0003594906D01*
X0001861696Y0003555536D02*
X0001861696Y0003594906D01*
X0001852322Y0003594906D01*
X0001846698Y0003593031D01*
X0001842948Y0003589281D01*
X0001841074Y0003585532D01*
X0001839199Y0003578033D01*
X0001839199Y0003572409D01*
X0001841074Y0003564910D01*
X0001842948Y0003561160D01*
X0001846698Y0003557410D01*
X0001852322Y0003555536D01*
X0001861696Y0003555536D01*
D31*
X0002874271Y0003339538D02*
X0002874271Y0003326052D01*
X0002834114Y0003339538D02*
X0002834114Y0003326052D01*
X0002364173Y0003222559D02*
X0002228346Y0003222559D01*
X0002364173Y0003222559D02*
X0002440944Y0003222559D01*
X0002364173Y0003424133D02*
X0002287401Y0003424133D01*
X0002364173Y0003424133D02*
X0002440944Y0003424133D01*
X0002483435Y0003513267D02*
X0002469950Y0003513267D01*
X0002483435Y0003553425D02*
X0002469950Y0003553425D01*
X0002239398Y0003555905D02*
X0002252884Y0003555905D01*
X0002239398Y0003515748D02*
X0002252884Y0003515748D01*
D30*
X0002815703Y0003339356D02*
X0002796956Y0003352480D01*
X0002815703Y0003361854D02*
X0002776333Y0003361854D01*
X0002776333Y0003346856D01*
X0002778208Y0003343106D01*
X0002780083Y0003341231D01*
X0002783832Y0003339356D01*
X0002789457Y0003339356D01*
X0002793206Y0003341231D01*
X0002795081Y0003343106D01*
X0002796956Y0003346856D01*
X0002796956Y0003361854D01*
X0002815703Y0003301861D02*
X0002815703Y0003324358D01*
X0002815703Y0003313110D02*
X0002776333Y0003313110D01*
X0002781958Y0003316859D01*
X0002785707Y0003320609D01*
X0002787582Y0003324358D01*
X0002394169Y0003211048D02*
X0002394169Y0003179176D01*
X0002392294Y0003175427D01*
X0002390419Y0003173552D01*
X0002386670Y0003171677D01*
X0002379171Y0003171677D01*
X0002375421Y0003173552D01*
X0002373547Y0003175427D01*
X0002371672Y0003179176D01*
X0002371672Y0003211048D01*
X0002332302Y0003171677D02*
X0002354799Y0003171677D01*
X0002343550Y0003171677D02*
X0002343550Y0003211048D01*
X0002347300Y0003205423D01*
X0002351049Y0003201674D01*
X0002354799Y0003199799D01*
X0002483254Y0003464266D02*
X0002485129Y0003462391D01*
X0002490753Y0003460516D01*
X0002494503Y0003460516D01*
X0002500127Y0003462391D01*
X0002503877Y0003466140D01*
X0002505751Y0003469890D01*
X0002507626Y0003477389D01*
X0002507626Y0003483013D01*
X0002505751Y0003490512D01*
X0002503877Y0003494262D01*
X0002500127Y0003498011D01*
X0002494503Y0003499886D01*
X0002490753Y0003499886D01*
X0002485129Y0003498011D01*
X0002483254Y0003496137D01*
X0002445759Y0003460516D02*
X0002468256Y0003460516D01*
X0002457007Y0003460516D02*
X0002457007Y0003499886D01*
X0002460757Y0003494262D01*
X0002464506Y0003490512D01*
X0002468256Y0003488637D01*
X0002252703Y0003465466D02*
X0002254578Y0003463592D01*
X0002260202Y0003461717D01*
X0002263951Y0003461717D01*
X0002269576Y0003463592D01*
X0002273325Y0003467341D01*
X0002275200Y0003471091D01*
X0002277075Y0003478590D01*
X0002277075Y0003484214D01*
X0002275200Y0003491713D01*
X0002273325Y0003495463D01*
X0002269576Y0003499212D01*
X0002263951Y0003501087D01*
X0002260202Y0003501087D01*
X0002254578Y0003499212D01*
X0002252703Y0003497337D01*
X0002237705Y0003497337D02*
X0002235830Y0003499212D01*
X0002232080Y0003501087D01*
X0002222707Y0003501087D01*
X0002218957Y0003499212D01*
X0002217082Y0003497337D01*
X0002215208Y0003493588D01*
X0002215208Y0003489838D01*
X0002217082Y0003484214D01*
X0002239580Y0003461717D01*
X0002215208Y0003461717D01*
M02*