%MOIN*%
%OFA0B0*%
%FSLAX46Y46*%
%IPPOS*%
%LPD*%
%ADD10C,0.0039370078740157488*%
%ADD21C,0.0039370078740157488*%
%ADD22C,0.0039370078740157488*%
%ADD23C,0.0039370078740157488*%
%ADD24C,0.0039370078740157488*%
%ADD25C,0.0039370078740157488*%
D10*
G36*
X0001406814Y0000321890D02*
G01*
X0001420793Y0000316100D01*
X0001420793Y0000316100D01*
X0001433373Y0000307694D01*
X0001444072Y0000296995D01*
X0001449429Y0000288978D01*
X0001452478Y0000284415D01*
X0001458268Y0000270436D01*
X0001461220Y0000255596D01*
X0001461220Y0000240466D01*
X0001458268Y0000225626D01*
X0001452478Y0000211647D01*
X0001452478Y0000211647D01*
X0001444072Y0000199067D01*
X0001433373Y0000188368D01*
X0001420793Y0000179962D01*
X0001420793Y0000179962D01*
X0001420793Y0000179962D01*
X0001406814Y0000174172D01*
X0001391974Y0000171220D01*
X0001376844Y0000171220D01*
X0001362004Y0000174172D01*
X0001348025Y0000179962D01*
X0001348025Y0000179962D01*
X0001348025Y0000179962D01*
X0001335445Y0000188368D01*
X0001324746Y0000199067D01*
X0001316340Y0000211647D01*
X0001316340Y0000211647D01*
X0001310550Y0000225626D01*
X0001307598Y0000240466D01*
X0001307598Y0000255596D01*
X0001310550Y0000270436D01*
X0001316340Y0000284415D01*
X0001319389Y0000288978D01*
X0001324746Y0000296995D01*
X0001335445Y0000307694D01*
X0001348025Y0000316100D01*
X0001348025Y0000316100D01*
X0001362004Y0000321890D01*
X0001376844Y0000324842D01*
X0001391974Y0000324842D01*
X0001406814Y0000321890D01*
X0001406814Y0000321890D01*
G37*
G36*
X0000143034Y0000321890D02*
G01*
X0000157013Y0000316100D01*
X0000157013Y0000316100D01*
X0000169594Y0000307694D01*
X0000180292Y0000296995D01*
X0000185649Y0000288978D01*
X0000188699Y0000284415D01*
X0000194489Y0000270436D01*
X0000197440Y0000255596D01*
X0000197440Y0000240466D01*
X0000194489Y0000225626D01*
X0000188699Y0000211647D01*
X0000188698Y0000211647D01*
X0000180292Y0000199067D01*
X0000169594Y0000188368D01*
X0000157013Y0000179962D01*
X0000157013Y0000179962D01*
X0000157013Y0000179962D01*
X0000143034Y0000174172D01*
X0000128195Y0000171220D01*
X0000113064Y0000171220D01*
X0000098224Y0000174172D01*
X0000084246Y0000179962D01*
X0000084246Y0000179962D01*
X0000084246Y0000179962D01*
X0000071665Y0000188368D01*
X0000060966Y0000199067D01*
X0000052560Y0000211647D01*
X0000052560Y0000211647D01*
X0000046770Y0000225626D01*
X0000043818Y0000240466D01*
X0000043818Y0000255596D01*
X0000046770Y0000270436D01*
X0000052560Y0000284415D01*
X0000055610Y0000288978D01*
X0000060966Y0000296995D01*
X0000071665Y0000307694D01*
X0000084246Y0000316100D01*
X0000084246Y0000316100D01*
X0000098224Y0000321890D01*
X0000113064Y0000324842D01*
X0000128195Y0000324842D01*
X0000143034Y0000321890D01*
X0000143034Y0000321890D01*
G37*
G36*
X0000635118Y0000234842D02*
G01*
X0000579921Y0000234842D01*
X0000579921Y0000290039D01*
X0000635118Y0000290039D01*
X0000635118Y0000234842D01*
X0000635118Y0000234842D01*
G37*
G36*
X0000536829Y0000288978D02*
G01*
X0000541852Y0000286898D01*
X0000546372Y0000283878D01*
X0000550216Y0000280033D01*
X0000553236Y0000275513D01*
X0000555317Y0000270491D01*
X0000556377Y0000265159D01*
X0000556377Y0000259722D01*
X0000555317Y0000254390D01*
X0000553236Y0000249368D01*
X0000550216Y0000244848D01*
X0000546372Y0000241003D01*
X0000541852Y0000237983D01*
X0000536829Y0000235903D01*
X0000531497Y0000234842D01*
X0000526061Y0000234842D01*
X0000520729Y0000235903D01*
X0000515706Y0000237983D01*
X0000511186Y0000241003D01*
X0000507342Y0000244848D01*
X0000504322Y0000249368D01*
X0000502241Y0000254390D01*
X0000501181Y0000259722D01*
X0000501181Y0000265159D01*
X0000502241Y0000270491D01*
X0000504322Y0000275513D01*
X0000507342Y0000280033D01*
X0000511186Y0000283878D01*
X0000515706Y0000286898D01*
X0000520729Y0000288978D01*
X0000526061Y0000290039D01*
X0000531497Y0000290039D01*
X0000536829Y0000288978D01*
X0000536829Y0000288978D01*
G37*
G36*
X0000458089Y0000288978D02*
G01*
X0000463112Y0000286898D01*
X0000467632Y0000283878D01*
X0000471476Y0000280033D01*
X0000474496Y0000275513D01*
X0000476577Y0000270491D01*
X0000477637Y0000265159D01*
X0000477637Y0000259722D01*
X0000476577Y0000254390D01*
X0000474496Y0000249368D01*
X0000471476Y0000244848D01*
X0000467632Y0000241003D01*
X0000463112Y0000237983D01*
X0000458089Y0000235903D01*
X0000452757Y0000234842D01*
X0000447321Y0000234842D01*
X0000441989Y0000235903D01*
X0000436966Y0000237983D01*
X0000432446Y0000241003D01*
X0000428602Y0000244848D01*
X0000425581Y0000249368D01*
X0000423501Y0000254390D01*
X0000422440Y0000259722D01*
X0000422440Y0000265159D01*
X0000423501Y0000270491D01*
X0000425581Y0000275513D01*
X0000428602Y0000280033D01*
X0000432446Y0000283878D01*
X0000436966Y0000286898D01*
X0000441989Y0000288978D01*
X0000447321Y0000290039D01*
X0000452757Y0000290039D01*
X0000458089Y0000288978D01*
X0000458089Y0000288978D01*
G37*
G36*
X0000379349Y0000288978D02*
G01*
X0000384371Y0000286898D01*
X0000388892Y0000283878D01*
X0000392736Y0000280033D01*
X0000395756Y0000275513D01*
X0000397837Y0000270491D01*
X0000398897Y0000265159D01*
X0000398897Y0000259722D01*
X0000397837Y0000254390D01*
X0000395756Y0000249368D01*
X0000392736Y0000244848D01*
X0000388892Y0000241003D01*
X0000384371Y0000237983D01*
X0000379349Y0000235903D01*
X0000374017Y0000234842D01*
X0000368580Y0000234842D01*
X0000363249Y0000235903D01*
X0000358226Y0000237983D01*
X0000353706Y0000241003D01*
X0000349861Y0000244848D01*
X0000346841Y0000249368D01*
X0000344761Y0000254390D01*
X0000343700Y0000259722D01*
X0000343700Y0000265159D01*
X0000344761Y0000270491D01*
X0000346841Y0000275513D01*
X0000349861Y0000280033D01*
X0000353706Y0000283878D01*
X0000358226Y0000286898D01*
X0000363249Y0000288978D01*
X0000368580Y0000290039D01*
X0000374017Y0000290039D01*
X0000379349Y0000288978D01*
X0000379349Y0000288978D01*
G37*
G36*
X0001145118Y0000234842D02*
G01*
X0001089921Y0000234842D01*
X0001089921Y0000290039D01*
X0001145118Y0000290039D01*
X0001145118Y0000234842D01*
X0001145118Y0000234842D01*
G37*
G36*
X0001046829Y0000288978D02*
G01*
X0001051852Y0000286898D01*
X0001056372Y0000283878D01*
X0001060216Y0000280033D01*
X0001063236Y0000275513D01*
X0001065317Y0000270491D01*
X0001066377Y0000265159D01*
X0001066377Y0000259722D01*
X0001065317Y0000254390D01*
X0001063236Y0000249368D01*
X0001060216Y0000244848D01*
X0001056372Y0000241003D01*
X0001051852Y0000237983D01*
X0001046829Y0000235903D01*
X0001041497Y0000234842D01*
X0001036061Y0000234842D01*
X0001030729Y0000235903D01*
X0001025706Y0000237983D01*
X0001021186Y0000241003D01*
X0001017342Y0000244848D01*
X0001014322Y0000249368D01*
X0001012241Y0000254390D01*
X0001011181Y0000259722D01*
X0001011181Y0000265159D01*
X0001012241Y0000270491D01*
X0001014322Y0000275513D01*
X0001017342Y0000280033D01*
X0001021186Y0000283878D01*
X0001025706Y0000286898D01*
X0001030729Y0000288978D01*
X0001036061Y0000290039D01*
X0001041497Y0000290039D01*
X0001046829Y0000288978D01*
X0001046829Y0000288978D01*
G37*
G36*
X0000968089Y0000288978D02*
G01*
X0000973112Y0000286898D01*
X0000977632Y0000283878D01*
X0000981476Y0000280033D01*
X0000984496Y0000275513D01*
X0000986577Y0000270491D01*
X0000987637Y0000265159D01*
X0000987637Y0000259722D01*
X0000986577Y0000254390D01*
X0000984496Y0000249368D01*
X0000981476Y0000244848D01*
X0000977632Y0000241003D01*
X0000973112Y0000237983D01*
X0000968089Y0000235903D01*
X0000962757Y0000234842D01*
X0000957321Y0000234842D01*
X0000951989Y0000235903D01*
X0000946966Y0000237983D01*
X0000942446Y0000241003D01*
X0000938602Y0000244848D01*
X0000935581Y0000249368D01*
X0000933501Y0000254390D01*
X0000932440Y0000259722D01*
X0000932440Y0000265159D01*
X0000933501Y0000270491D01*
X0000935581Y0000275513D01*
X0000938602Y0000280033D01*
X0000942446Y0000283878D01*
X0000946966Y0000286898D01*
X0000951989Y0000288978D01*
X0000957321Y0000290039D01*
X0000962757Y0000290039D01*
X0000968089Y0000288978D01*
X0000968089Y0000288978D01*
G37*
G36*
X0000889349Y0000288978D02*
G01*
X0000894372Y0000286898D01*
X0000898892Y0000283878D01*
X0000902736Y0000280033D01*
X0000905756Y0000275513D01*
X0000907837Y0000270491D01*
X0000908897Y0000265159D01*
X0000908897Y0000259722D01*
X0000907837Y0000254390D01*
X0000905756Y0000249368D01*
X0000902736Y0000244848D01*
X0000898892Y0000241003D01*
X0000894372Y0000237983D01*
X0000889349Y0000235903D01*
X0000884017Y0000234842D01*
X0000878580Y0000234842D01*
X0000873249Y0000235903D01*
X0000868226Y0000237983D01*
X0000863706Y0000241003D01*
X0000859862Y0000244848D01*
X0000856841Y0000249368D01*
X0000854761Y0000254390D01*
X0000853700Y0000259722D01*
X0000853700Y0000265159D01*
X0000854761Y0000270491D01*
X0000856841Y0000275513D01*
X0000859862Y0000280033D01*
X0000863706Y0000283878D01*
X0000868226Y0000286898D01*
X0000873249Y0000288978D01*
X0000878580Y0000290039D01*
X0000884017Y0000290039D01*
X0000889349Y0000288978D01*
X0000889349Y0000288978D01*
G37*
G36*
X0000163089Y0000601459D02*
G01*
X0000168112Y0000599378D01*
X0000172632Y0000596358D01*
X0000176476Y0000592514D01*
X0000179496Y0000587994D01*
X0000181577Y0000582971D01*
X0000182637Y0000577639D01*
X0000182637Y0000572202D01*
X0000181577Y0000566871D01*
X0000179496Y0000561848D01*
X0000176476Y0000557328D01*
X0000172632Y0000553484D01*
X0000168112Y0000550463D01*
X0000163089Y0000548383D01*
X0000157757Y0000547322D01*
X0000152321Y0000547322D01*
X0000146989Y0000548383D01*
X0000141966Y0000550463D01*
X0000137446Y0000553484D01*
X0000133602Y0000557328D01*
X0000130581Y0000561848D01*
X0000128501Y0000566871D01*
X0000127440Y0000572202D01*
X0000127440Y0000577639D01*
X0000128501Y0000582971D01*
X0000130581Y0000587994D01*
X0000133602Y0000592514D01*
X0000137446Y0000596358D01*
X0000141966Y0000599378D01*
X0000146989Y0000601459D01*
X0000152321Y0000602519D01*
X0000157757Y0000602519D01*
X0000163089Y0000601459D01*
X0000163089Y0000601459D01*
G37*
G36*
X0000163089Y0000680199D02*
G01*
X0000168112Y0000678118D01*
X0000172632Y0000675098D01*
X0000176476Y0000671254D01*
X0000179496Y0000666734D01*
X0000181577Y0000661711D01*
X0000182637Y0000656379D01*
X0000182637Y0000650943D01*
X0000181577Y0000645611D01*
X0000179496Y0000640588D01*
X0000176476Y0000636068D01*
X0000172632Y0000632224D01*
X0000168112Y0000629203D01*
X0000163089Y0000627123D01*
X0000157757Y0000626062D01*
X0000152321Y0000626062D01*
X0000146989Y0000627123D01*
X0000141966Y0000629203D01*
X0000137446Y0000632224D01*
X0000133602Y0000636068D01*
X0000130581Y0000640588D01*
X0000128501Y0000645611D01*
X0000127440Y0000650943D01*
X0000127440Y0000656379D01*
X0000128501Y0000661711D01*
X0000130581Y0000666734D01*
X0000133602Y0000671254D01*
X0000137446Y0000675098D01*
X0000141966Y0000678118D01*
X0000146989Y0000680199D01*
X0000152321Y0000681259D01*
X0000157757Y0000681259D01*
X0000163089Y0000680199D01*
X0000163089Y0000680199D01*
G37*
G36*
X0001396867Y0000714152D02*
G01*
X0001399473Y0000713896D01*
X0001406160Y0000711867D01*
X0001412322Y0000708573D01*
X0001413089Y0000707944D01*
X0001417723Y0000704141D01*
X0001421001Y0000700146D01*
X0001422156Y0000698739D01*
X0001425450Y0000692577D01*
X0001427478Y0000685890D01*
X0001428163Y0000678937D01*
X0001427478Y0000671983D01*
X0001425450Y0000665296D01*
X0001422156Y0000659134D01*
X0001421001Y0000657727D01*
X0001417723Y0000653732D01*
X0001414324Y0000650943D01*
X0001412322Y0000649300D01*
X0001406160Y0000646006D01*
X0001399473Y0000643977D01*
X0001396867Y0000643721D01*
X0001394262Y0000643464D01*
X0001390777Y0000643464D01*
X0001388171Y0000643721D01*
X0001385565Y0000643977D01*
X0001378879Y0000646006D01*
X0001372716Y0000649300D01*
X0001370714Y0000650943D01*
X0001367315Y0000653732D01*
X0001364037Y0000657727D01*
X0001362882Y0000659134D01*
X0001359588Y0000665296D01*
X0001357560Y0000671983D01*
X0001356875Y0000678937D01*
X0001357560Y0000685890D01*
X0001359588Y0000692577D01*
X0001362882Y0000698739D01*
X0001364037Y0000700146D01*
X0001367315Y0000704141D01*
X0001371949Y0000707944D01*
X0001372716Y0000708573D01*
X0001378879Y0000711867D01*
X0001385565Y0000713896D01*
X0001388171Y0000714152D01*
X0001390777Y0000714409D01*
X0001394262Y0000714409D01*
X0001396867Y0000714152D01*
X0001396867Y0000714152D01*
G37*
G36*
X0000163089Y0000758939D02*
G01*
X0000168112Y0000756858D01*
X0000172632Y0000753838D01*
X0000176476Y0000749994D01*
X0000179496Y0000745474D01*
X0000181577Y0000740451D01*
X0000182637Y0000735119D01*
X0000182637Y0000729683D01*
X0000181577Y0000724351D01*
X0000179496Y0000719328D01*
X0000176476Y0000714808D01*
X0000172632Y0000710964D01*
X0000168112Y0000707944D01*
X0000163089Y0000705863D01*
X0000157757Y0000704803D01*
X0000152321Y0000704803D01*
X0000146989Y0000705863D01*
X0000141966Y0000707944D01*
X0000137446Y0000710964D01*
X0000133602Y0000714808D01*
X0000130581Y0000719328D01*
X0000128501Y0000724351D01*
X0000127440Y0000729683D01*
X0000127440Y0000735119D01*
X0000128501Y0000740451D01*
X0000130581Y0000745474D01*
X0000133602Y0000749994D01*
X0000137446Y0000753838D01*
X0000141966Y0000756858D01*
X0000146989Y0000758939D01*
X0000152321Y0000760000D01*
X0000157757Y0000760000D01*
X0000163089Y0000758939D01*
X0000163089Y0000758939D01*
G37*
G36*
X0000456988Y0000792680D02*
G01*
X0000462866Y0000791510D01*
X0000469322Y0000788836D01*
X0000475132Y0000784954D01*
X0000480072Y0000780013D01*
X0000483954Y0000774204D01*
X0000486628Y0000767748D01*
X0000487992Y0000760895D01*
X0000487992Y0000753907D01*
X0000486628Y0000747054D01*
X0000483954Y0000740599D01*
X0000480072Y0000734789D01*
X0000475132Y0000729848D01*
X0000469322Y0000725966D01*
X0000462866Y0000723292D01*
X0000456988Y0000722123D01*
X0000456013Y0000721929D01*
X0000449025Y0000721929D01*
X0000448050Y0000722123D01*
X0000442172Y0000723292D01*
X0000435717Y0000725966D01*
X0000429907Y0000729848D01*
X0000424966Y0000734789D01*
X0000421084Y0000740599D01*
X0000418410Y0000747054D01*
X0000417047Y0000753907D01*
X0000417047Y0000760895D01*
X0000418410Y0000767748D01*
X0000421084Y0000774204D01*
X0000424966Y0000780013D01*
X0000429907Y0000784954D01*
X0000435717Y0000788836D01*
X0000442172Y0000791510D01*
X0000448050Y0000792680D01*
X0000449025Y0000792873D01*
X0000456013Y0000792873D01*
X0000456988Y0000792680D01*
X0000456988Y0000792680D01*
G37*
G36*
X0001427992Y0000743464D02*
G01*
X0001357047Y0000743464D01*
X0001357047Y0000814409D01*
X0001427992Y0000814409D01*
X0001427992Y0000743464D01*
X0001427992Y0000743464D01*
G37*
G36*
X0000163089Y0000837679D02*
G01*
X0000168112Y0000835599D01*
X0000172632Y0000832578D01*
X0000176476Y0000828734D01*
X0000179496Y0000824214D01*
X0000181577Y0000819191D01*
X0000182637Y0000813860D01*
X0000182637Y0000808423D01*
X0000181577Y0000803091D01*
X0000179496Y0000798068D01*
X0000176476Y0000793548D01*
X0000172632Y0000789704D01*
X0000168112Y0000786684D01*
X0000163089Y0000784603D01*
X0000157757Y0000783543D01*
X0000152321Y0000783543D01*
X0000146989Y0000784603D01*
X0000141966Y0000786684D01*
X0000137446Y0000789704D01*
X0000133602Y0000793548D01*
X0000130581Y0000798068D01*
X0000128501Y0000803091D01*
X0000127440Y0000808423D01*
X0000127440Y0000813860D01*
X0000128501Y0000819191D01*
X0000130581Y0000824214D01*
X0000133602Y0000828734D01*
X0000137446Y0000832578D01*
X0000141966Y0000835599D01*
X0000146989Y0000837679D01*
X0000152321Y0000838740D01*
X0000157757Y0000838740D01*
X0000163089Y0000837679D01*
X0000163089Y0000837679D01*
G37*
G36*
X0001063304Y0000892953D02*
G01*
X0001070032Y0000890166D01*
X0001070032Y0000890166D01*
X0001072022Y0000888836D01*
X0001076088Y0000886119D01*
X0001081238Y0000880970D01*
X0001085284Y0000874914D01*
X0001088071Y0000868185D01*
X0001089492Y0000861043D01*
X0001089492Y0000853760D01*
X0001088071Y0000846617D01*
X0001085284Y0000839888D01*
X0001085284Y0000839888D01*
X0001081238Y0000833833D01*
X0001076088Y0000828683D01*
X0001070032Y0000824637D01*
X0001070032Y0000824636D01*
X0001070032Y0000824636D01*
X0001063304Y0000821849D01*
X0001056161Y0000820429D01*
X0001048878Y0000820429D01*
X0001041735Y0000821849D01*
X0001035006Y0000824636D01*
X0001035006Y0000824636D01*
X0001035006Y0000824637D01*
X0001028951Y0000828683D01*
X0001023801Y0000833833D01*
X0001019755Y0000839888D01*
X0001019755Y0000839888D01*
X0001016967Y0000846617D01*
X0001015547Y0000853760D01*
X0001015547Y0000861043D01*
X0001016967Y0000868185D01*
X0001019755Y0000874914D01*
X0001023801Y0000880970D01*
X0001028951Y0000886119D01*
X0001033017Y0000888836D01*
X0001035006Y0000890166D01*
X0001035006Y0000890166D01*
X0001041735Y0000892953D01*
X0001048878Y0000894374D01*
X0001056161Y0000894374D01*
X0001063304Y0000892953D01*
X0001063304Y0000892953D01*
G37*
G36*
X0000456988Y0000892680D02*
G01*
X0000462866Y0000891510D01*
X0000469322Y0000888836D01*
X0000475132Y0000884954D01*
X0000480072Y0000880013D01*
X0000483954Y0000874204D01*
X0000486628Y0000867748D01*
X0000487992Y0000860895D01*
X0000487992Y0000853907D01*
X0000486628Y0000847054D01*
X0000483954Y0000840599D01*
X0000480072Y0000834789D01*
X0000475132Y0000829848D01*
X0000469322Y0000825966D01*
X0000462866Y0000823292D01*
X0000456988Y0000822123D01*
X0000456013Y0000821929D01*
X0000449025Y0000821929D01*
X0000448050Y0000822123D01*
X0000442172Y0000823292D01*
X0000435717Y0000825966D01*
X0000429907Y0000829848D01*
X0000424966Y0000834789D01*
X0000421084Y0000840599D01*
X0000418410Y0000847054D01*
X0000417047Y0000853907D01*
X0000417047Y0000860895D01*
X0000418410Y0000867748D01*
X0000421084Y0000874204D01*
X0000424966Y0000880013D01*
X0000429907Y0000884954D01*
X0000435717Y0000888836D01*
X0000442172Y0000891510D01*
X0000448050Y0000892680D01*
X0000449025Y0000892874D01*
X0000456013Y0000892874D01*
X0000456988Y0000892680D01*
X0000456988Y0000892680D01*
G37*
G36*
X0000163089Y0000916419D02*
G01*
X0000168112Y0000914339D01*
X0000172632Y0000911319D01*
X0000176476Y0000907474D01*
X0000179496Y0000902954D01*
X0000181577Y0000897932D01*
X0000182637Y0000892600D01*
X0000182637Y0000887163D01*
X0000181577Y0000881831D01*
X0000179496Y0000876809D01*
X0000176476Y0000872289D01*
X0000172632Y0000868444D01*
X0000168112Y0000865424D01*
X0000163089Y0000863344D01*
X0000157757Y0000862283D01*
X0000152321Y0000862283D01*
X0000146989Y0000863344D01*
X0000141966Y0000865424D01*
X0000137446Y0000868444D01*
X0000133602Y0000872289D01*
X0000130581Y0000876809D01*
X0000128501Y0000881831D01*
X0000127440Y0000887163D01*
X0000127440Y0000892600D01*
X0000128501Y0000897932D01*
X0000130581Y0000902954D01*
X0000133602Y0000907474D01*
X0000137446Y0000911319D01*
X0000141966Y0000914339D01*
X0000146989Y0000916419D01*
X0000152321Y0000917480D01*
X0000157757Y0000917480D01*
X0000163089Y0000916419D01*
X0000163089Y0000916419D01*
G37*
G36*
X0000456988Y0000992680D02*
G01*
X0000462866Y0000991510D01*
X0000469322Y0000988836D01*
X0000475132Y0000984954D01*
X0000480072Y0000980013D01*
X0000483954Y0000974204D01*
X0000486628Y0000967748D01*
X0000487992Y0000960895D01*
X0000487992Y0000953907D01*
X0000486628Y0000947054D01*
X0000483954Y0000940599D01*
X0000480072Y0000934789D01*
X0000475132Y0000929848D01*
X0000469322Y0000925966D01*
X0000462866Y0000923292D01*
X0000456988Y0000922123D01*
X0000456013Y0000921929D01*
X0000449025Y0000921929D01*
X0000448050Y0000922123D01*
X0000442172Y0000923292D01*
X0000435717Y0000925966D01*
X0000429907Y0000929848D01*
X0000424966Y0000934789D01*
X0000421084Y0000940599D01*
X0000418410Y0000947054D01*
X0000417047Y0000953907D01*
X0000417047Y0000960895D01*
X0000418410Y0000967748D01*
X0000421084Y0000974204D01*
X0000424966Y0000980013D01*
X0000429907Y0000984954D01*
X0000435717Y0000988836D01*
X0000442172Y0000991510D01*
X0000448050Y0000992680D01*
X0000449025Y0000992873D01*
X0000456013Y0000992873D01*
X0000456988Y0000992680D01*
X0000456988Y0000992680D01*
G37*
G36*
X0001056988Y0000992680D02*
G01*
X0001062866Y0000991510D01*
X0001069322Y0000988836D01*
X0001075132Y0000984954D01*
X0001080072Y0000980013D01*
X0001083954Y0000974204D01*
X0001086628Y0000967748D01*
X0001087992Y0000960895D01*
X0001087992Y0000953907D01*
X0001086628Y0000947054D01*
X0001083954Y0000940599D01*
X0001080072Y0000934789D01*
X0001075132Y0000929848D01*
X0001069322Y0000925966D01*
X0001062866Y0000923292D01*
X0001056988Y0000922123D01*
X0001056013Y0000921929D01*
X0001049025Y0000921929D01*
X0001048050Y0000922123D01*
X0001042172Y0000923292D01*
X0001035717Y0000925966D01*
X0001029907Y0000929848D01*
X0001024966Y0000934789D01*
X0001021084Y0000940599D01*
X0001018410Y0000947054D01*
X0001017047Y0000953907D01*
X0001017047Y0000960895D01*
X0001018410Y0000967748D01*
X0001021084Y0000974204D01*
X0001024966Y0000980013D01*
X0001029907Y0000984954D01*
X0001035717Y0000988836D01*
X0001042172Y0000991510D01*
X0001048050Y0000992680D01*
X0001049025Y0000992873D01*
X0001056013Y0000992873D01*
X0001056988Y0000992680D01*
X0001056988Y0000992680D01*
G37*
G36*
X0000163089Y0000995159D02*
G01*
X0000168112Y0000993079D01*
X0000172632Y0000990059D01*
X0000176476Y0000986214D01*
X0000179496Y0000981694D01*
X0000181577Y0000976672D01*
X0000182637Y0000971340D01*
X0000182637Y0000965903D01*
X0000181577Y0000960571D01*
X0000179496Y0000955549D01*
X0000176476Y0000951029D01*
X0000172632Y0000947184D01*
X0000168112Y0000944164D01*
X0000163089Y0000942084D01*
X0000157757Y0000941023D01*
X0000152321Y0000941023D01*
X0000146989Y0000942084D01*
X0000141966Y0000944164D01*
X0000137446Y0000947184D01*
X0000133602Y0000951029D01*
X0000130581Y0000955549D01*
X0000128501Y0000960571D01*
X0000127440Y0000965903D01*
X0000127440Y0000971340D01*
X0000128501Y0000976672D01*
X0000130581Y0000981694D01*
X0000133602Y0000986214D01*
X0000137446Y0000990059D01*
X0000141966Y0000993079D01*
X0000146989Y0000995159D01*
X0000152321Y0000996220D01*
X0000157757Y0000996220D01*
X0000163089Y0000995159D01*
X0000163089Y0000995159D01*
G37*
G36*
X0001056988Y0001092680D02*
G01*
X0001062866Y0001091510D01*
X0001069322Y0001088836D01*
X0001075132Y0001084954D01*
X0001080072Y0001080013D01*
X0001083954Y0001074204D01*
X0001086628Y0001067748D01*
X0001087992Y0001060895D01*
X0001087992Y0001053907D01*
X0001086628Y0001047054D01*
X0001083954Y0001040599D01*
X0001080072Y0001034789D01*
X0001075132Y0001029848D01*
X0001069322Y0001025966D01*
X0001062866Y0001023292D01*
X0001056988Y0001022123D01*
X0001056013Y0001021929D01*
X0001049025Y0001021929D01*
X0001048050Y0001022123D01*
X0001042172Y0001023292D01*
X0001035717Y0001025966D01*
X0001029907Y0001029848D01*
X0001024966Y0001034789D01*
X0001021084Y0001040599D01*
X0001018410Y0001047054D01*
X0001017047Y0001053907D01*
X0001017047Y0001060895D01*
X0001018410Y0001067748D01*
X0001021084Y0001074204D01*
X0001024966Y0001080013D01*
X0001029907Y0001084954D01*
X0001035717Y0001088836D01*
X0001042172Y0001091510D01*
X0001048050Y0001092680D01*
X0001049025Y0001092874D01*
X0001056013Y0001092874D01*
X0001056988Y0001092680D01*
X0001056988Y0001092680D01*
G37*
G36*
X0000456988Y0001092680D02*
G01*
X0000462866Y0001091510D01*
X0000469322Y0001088836D01*
X0000475132Y0001084954D01*
X0000480072Y0001080013D01*
X0000483954Y0001074204D01*
X0000486628Y0001067748D01*
X0000487992Y0001060895D01*
X0000487992Y0001053907D01*
X0000486628Y0001047054D01*
X0000483954Y0001040599D01*
X0000480072Y0001034789D01*
X0000475132Y0001029848D01*
X0000469322Y0001025966D01*
X0000462866Y0001023292D01*
X0000456988Y0001022123D01*
X0000456013Y0001021929D01*
X0000449025Y0001021929D01*
X0000448050Y0001022123D01*
X0000442172Y0001023292D01*
X0000435717Y0001025966D01*
X0000429907Y0001029848D01*
X0000424966Y0001034789D01*
X0000421084Y0001040599D01*
X0000418410Y0001047054D01*
X0000417047Y0001053907D01*
X0000417047Y0001060895D01*
X0000418410Y0001067748D01*
X0000421084Y0001074204D01*
X0000424966Y0001080013D01*
X0000429907Y0001084954D01*
X0000435717Y0001088836D01*
X0000442172Y0001091510D01*
X0000448050Y0001092680D01*
X0000449025Y0001092874D01*
X0000456013Y0001092874D01*
X0000456988Y0001092680D01*
X0000456988Y0001092680D01*
G37*
G36*
X0001056988Y0001192680D02*
G01*
X0001062866Y0001191510D01*
X0001069322Y0001188836D01*
X0001075132Y0001184954D01*
X0001080072Y0001180013D01*
X0001083954Y0001174204D01*
X0001086628Y0001167748D01*
X0001087992Y0001160895D01*
X0001087992Y0001153907D01*
X0001086628Y0001147054D01*
X0001083954Y0001140599D01*
X0001080072Y0001134789D01*
X0001075132Y0001129848D01*
X0001069322Y0001125966D01*
X0001062866Y0001123292D01*
X0001056988Y0001122123D01*
X0001056013Y0001121929D01*
X0001049025Y0001121929D01*
X0001048050Y0001122123D01*
X0001042172Y0001123292D01*
X0001035717Y0001125966D01*
X0001029907Y0001129848D01*
X0001024966Y0001134789D01*
X0001021084Y0001140599D01*
X0001018410Y0001147054D01*
X0001017047Y0001153907D01*
X0001017047Y0001160895D01*
X0001018410Y0001167748D01*
X0001021084Y0001174204D01*
X0001024966Y0001180013D01*
X0001029907Y0001184954D01*
X0001035717Y0001188836D01*
X0001042172Y0001191510D01*
X0001048050Y0001192680D01*
X0001049025Y0001192874D01*
X0001056013Y0001192874D01*
X0001056988Y0001192680D01*
X0001056988Y0001192680D01*
G37*
G36*
X0000456988Y0001192680D02*
G01*
X0000462866Y0001191510D01*
X0000469322Y0001188836D01*
X0000475132Y0001184954D01*
X0000480072Y0001180013D01*
X0000483954Y0001174204D01*
X0000486628Y0001167748D01*
X0000487992Y0001160895D01*
X0000487992Y0001153907D01*
X0000486628Y0001147054D01*
X0000483954Y0001140599D01*
X0000480072Y0001134789D01*
X0000475132Y0001129848D01*
X0000469322Y0001125966D01*
X0000462866Y0001123292D01*
X0000456988Y0001122123D01*
X0000456013Y0001121929D01*
X0000449025Y0001121929D01*
X0000448050Y0001122123D01*
X0000442172Y0001123292D01*
X0000435717Y0001125966D01*
X0000429907Y0001129848D01*
X0000424966Y0001134789D01*
X0000421084Y0001140599D01*
X0000418410Y0001147054D01*
X0000417047Y0001153907D01*
X0000417047Y0001160895D01*
X0000418410Y0001167748D01*
X0000421084Y0001174204D01*
X0000424966Y0001180013D01*
X0000429907Y0001184954D01*
X0000435717Y0001188836D01*
X0000442172Y0001191510D01*
X0000448050Y0001192680D01*
X0000449025Y0001192874D01*
X0000456013Y0001192874D01*
X0000456988Y0001192680D01*
X0000456988Y0001192680D01*
G37*
G36*
X0000143034Y0001285670D02*
G01*
X0000157013Y0001279880D01*
X0000157013Y0001279880D01*
X0000169594Y0001271474D01*
X0000180292Y0001260775D01*
X0000188698Y0001248194D01*
X0000188699Y0001248194D01*
X0000194489Y0001234215D01*
X0000197440Y0001219376D01*
X0000197440Y0001204245D01*
X0000194489Y0001189406D01*
X0000190598Y0001180013D01*
X0000188698Y0001175427D01*
X0000180292Y0001162846D01*
X0000169594Y0001152147D01*
X0000157013Y0001143741D01*
X0000157013Y0001143741D01*
X0000157013Y0001143741D01*
X0000143034Y0001137951D01*
X0000128195Y0001134999D01*
X0000113064Y0001134999D01*
X0000098224Y0001137951D01*
X0000084246Y0001143741D01*
X0000084246Y0001143741D01*
X0000084246Y0001143741D01*
X0000071665Y0001152147D01*
X0000060966Y0001162846D01*
X0000052560Y0001175427D01*
X0000050661Y0001180013D01*
X0000046770Y0001189406D01*
X0000043818Y0001204245D01*
X0000043818Y0001219376D01*
X0000046770Y0001234215D01*
X0000052560Y0001248194D01*
X0000052560Y0001248194D01*
X0000060966Y0001260775D01*
X0000071665Y0001271474D01*
X0000084246Y0001279880D01*
X0000084246Y0001279880D01*
X0000098224Y0001285670D01*
X0000113064Y0001288622D01*
X0000128195Y0001288622D01*
X0000143034Y0001285670D01*
X0000143034Y0001285670D01*
G37*
G36*
X0001406814Y0001285670D02*
G01*
X0001420793Y0001279880D01*
X0001420793Y0001279880D01*
X0001433373Y0001271474D01*
X0001444072Y0001260775D01*
X0001452478Y0001248194D01*
X0001452478Y0001248194D01*
X0001458268Y0001234215D01*
X0001461220Y0001219376D01*
X0001461220Y0001204245D01*
X0001458268Y0001189406D01*
X0001454378Y0001180013D01*
X0001452478Y0001175427D01*
X0001444072Y0001162846D01*
X0001433373Y0001152147D01*
X0001420793Y0001143741D01*
X0001420793Y0001143741D01*
X0001420793Y0001143741D01*
X0001406814Y0001137951D01*
X0001391974Y0001134999D01*
X0001376844Y0001134999D01*
X0001362004Y0001137951D01*
X0001348025Y0001143741D01*
X0001348025Y0001143741D01*
X0001348025Y0001143741D01*
X0001335445Y0001152147D01*
X0001324746Y0001162846D01*
X0001316340Y0001175427D01*
X0001314440Y0001180013D01*
X0001310550Y0001189406D01*
X0001307598Y0001204245D01*
X0001307598Y0001219376D01*
X0001310550Y0001234215D01*
X0001316340Y0001248194D01*
X0001316340Y0001248194D01*
X0001324746Y0001260775D01*
X0001335445Y0001271474D01*
X0001348025Y0001279880D01*
X0001348025Y0001279880D01*
X0001362004Y0001285670D01*
X0001376844Y0001288622D01*
X0001391974Y0001288622D01*
X0001406814Y0001285670D01*
X0001406814Y0001285670D01*
G37*
G04 next file*
G04 #@! TF.GenerationSoftware,KiCad,Pcbnew,(5.1.2)-1*
G04 #@! TF.CreationDate,2020-12-05T19:35:51+09:00*
G04 #@! TF.ProjectId,M5Atom_CAN,4d354174-6f6d-45f4-9341-4e2e6b696361,rev?*
G04 #@! TF.SameCoordinates,Original*
G04 #@! TF.FileFunction,Soldermask,Top*
G04 #@! TF.FilePolarity,Negative*
G04 Gerber Fmt 4.6, Leading zero omitted, Abs format (unit mm)*
G04 Created by KiCad (PCBNEW (5.1.2)-1) date 2020-12-05 19:35:51*
G04 APERTURE LIST*
G04 APERTURE END LIST*
D21*
G36*
X0003020987Y0000321890D02*
G01*
X0003034966Y0000316100D01*
X0003034966Y0000316100D01*
X0003047546Y0000307694D01*
X0003058245Y0000296995D01*
X0003063602Y0000288978D01*
X0003066651Y0000284415D01*
X0003072441Y0000270436D01*
X0003075393Y0000255596D01*
X0003075393Y0000240466D01*
X0003072441Y0000225626D01*
X0003066651Y0000211647D01*
X0003066651Y0000211647D01*
X0003058245Y0000199067D01*
X0003047546Y0000188368D01*
X0003034966Y0000179962D01*
X0003034966Y0000179962D01*
X0003034966Y0000179962D01*
X0003020987Y0000174172D01*
X0003006147Y0000171220D01*
X0002991017Y0000171220D01*
X0002976177Y0000174172D01*
X0002962199Y0000179962D01*
X0002962199Y0000179962D01*
X0002962199Y0000179962D01*
X0002949618Y0000188368D01*
X0002938919Y0000199067D01*
X0002930513Y0000211647D01*
X0002930513Y0000211647D01*
X0002924723Y0000225626D01*
X0002921771Y0000240466D01*
X0002921771Y0000255596D01*
X0002924723Y0000270436D01*
X0002930513Y0000284415D01*
X0002933562Y0000288978D01*
X0002938919Y0000296995D01*
X0002949618Y0000307694D01*
X0002962199Y0000316100D01*
X0002962199Y0000316100D01*
X0002976177Y0000321890D01*
X0002991017Y0000324842D01*
X0003006147Y0000324842D01*
X0003020987Y0000321890D01*
X0003020987Y0000321890D01*
G37*
G36*
X0001757208Y0000321890D02*
G01*
X0001771186Y0000316100D01*
X0001771186Y0000316100D01*
X0001783767Y0000307694D01*
X0001794466Y0000296995D01*
X0001799822Y0000288978D01*
X0001802872Y0000284415D01*
X0001808662Y0000270436D01*
X0001811614Y0000255596D01*
X0001811614Y0000240466D01*
X0001808662Y0000225626D01*
X0001802872Y0000211647D01*
X0001802872Y0000211647D01*
X0001794466Y0000199067D01*
X0001783767Y0000188368D01*
X0001771186Y0000179962D01*
X0001771186Y0000179962D01*
X0001771186Y0000179962D01*
X0001757208Y0000174172D01*
X0001742368Y0000171220D01*
X0001727237Y0000171220D01*
X0001712398Y0000174172D01*
X0001698419Y0000179962D01*
X0001698419Y0000179962D01*
X0001698419Y0000179962D01*
X0001685838Y0000188368D01*
X0001675140Y0000199067D01*
X0001666734Y0000211647D01*
X0001666734Y0000211647D01*
X0001660943Y0000225626D01*
X0001657992Y0000240466D01*
X0001657992Y0000255596D01*
X0001660943Y0000270436D01*
X0001666734Y0000284415D01*
X0001669783Y0000288978D01*
X0001675140Y0000296995D01*
X0001685838Y0000307694D01*
X0001698419Y0000316100D01*
X0001698419Y0000316100D01*
X0001712398Y0000321890D01*
X0001727237Y0000324842D01*
X0001742368Y0000324842D01*
X0001757208Y0000321890D01*
X0001757208Y0000321890D01*
G37*
G36*
X0002249291Y0000234842D02*
G01*
X0002194094Y0000234842D01*
X0002194094Y0000290039D01*
X0002249291Y0000290039D01*
X0002249291Y0000234842D01*
X0002249291Y0000234842D01*
G37*
G36*
X0002151002Y0000288978D02*
G01*
X0002156025Y0000286898D01*
X0002160545Y0000283878D01*
X0002164389Y0000280033D01*
X0002167410Y0000275513D01*
X0002169490Y0000270491D01*
X0002170551Y0000265159D01*
X0002170551Y0000259722D01*
X0002169490Y0000254390D01*
X0002167410Y0000249368D01*
X0002164389Y0000244848D01*
X0002160545Y0000241003D01*
X0002156025Y0000237983D01*
X0002151002Y0000235903D01*
X0002145671Y0000234842D01*
X0002140234Y0000234842D01*
X0002134902Y0000235903D01*
X0002129879Y0000237983D01*
X0002125359Y0000241003D01*
X0002121515Y0000244848D01*
X0002118495Y0000249368D01*
X0002116414Y0000254390D01*
X0002115354Y0000259722D01*
X0002115354Y0000265159D01*
X0002116414Y0000270491D01*
X0002118495Y0000275513D01*
X0002121515Y0000280033D01*
X0002125359Y0000283878D01*
X0002129879Y0000286898D01*
X0002134902Y0000288978D01*
X0002140234Y0000290039D01*
X0002145671Y0000290039D01*
X0002151002Y0000288978D01*
X0002151002Y0000288978D01*
G37*
G36*
X0002072262Y0000288978D02*
G01*
X0002077285Y0000286898D01*
X0002081805Y0000283878D01*
X0002085649Y0000280033D01*
X0002088670Y0000275513D01*
X0002090750Y0000270491D01*
X0002091811Y0000265159D01*
X0002091811Y0000259722D01*
X0002090750Y0000254390D01*
X0002088670Y0000249368D01*
X0002085649Y0000244848D01*
X0002081805Y0000241003D01*
X0002077285Y0000237983D01*
X0002072262Y0000235903D01*
X0002066930Y0000234842D01*
X0002061494Y0000234842D01*
X0002056162Y0000235903D01*
X0002051139Y0000237983D01*
X0002046619Y0000241003D01*
X0002042775Y0000244848D01*
X0002039755Y0000249368D01*
X0002037674Y0000254390D01*
X0002036614Y0000259722D01*
X0002036614Y0000265159D01*
X0002037674Y0000270491D01*
X0002039755Y0000275513D01*
X0002042775Y0000280033D01*
X0002046619Y0000283878D01*
X0002051139Y0000286898D01*
X0002056162Y0000288978D01*
X0002061494Y0000290039D01*
X0002066930Y0000290039D01*
X0002072262Y0000288978D01*
X0002072262Y0000288978D01*
G37*
G36*
X0001993522Y0000288978D02*
G01*
X0001998545Y0000286898D01*
X0002003065Y0000283878D01*
X0002006909Y0000280033D01*
X0002009929Y0000275513D01*
X0002012010Y0000270491D01*
X0002013070Y0000265159D01*
X0002013070Y0000259722D01*
X0002012010Y0000254390D01*
X0002009929Y0000249368D01*
X0002006909Y0000244848D01*
X0002003065Y0000241003D01*
X0001998545Y0000237983D01*
X0001993522Y0000235903D01*
X0001988190Y0000234842D01*
X0001982754Y0000234842D01*
X0001977422Y0000235903D01*
X0001972399Y0000237983D01*
X0001967879Y0000241003D01*
X0001964035Y0000244848D01*
X0001961015Y0000249368D01*
X0001958934Y0000254390D01*
X0001957873Y0000259722D01*
X0001957873Y0000265159D01*
X0001958934Y0000270491D01*
X0001961015Y0000275513D01*
X0001964035Y0000280033D01*
X0001967879Y0000283878D01*
X0001972399Y0000286898D01*
X0001977422Y0000288978D01*
X0001982754Y0000290039D01*
X0001988190Y0000290039D01*
X0001993522Y0000288978D01*
X0001993522Y0000288978D01*
G37*
G36*
X0002759291Y0000234842D02*
G01*
X0002704094Y0000234842D01*
X0002704094Y0000290039D01*
X0002759291Y0000290039D01*
X0002759291Y0000234842D01*
X0002759291Y0000234842D01*
G37*
G36*
X0002661002Y0000288978D02*
G01*
X0002666025Y0000286898D01*
X0002670545Y0000283878D01*
X0002674389Y0000280033D01*
X0002677410Y0000275513D01*
X0002679490Y0000270491D01*
X0002680551Y0000265159D01*
X0002680551Y0000259722D01*
X0002679490Y0000254390D01*
X0002677410Y0000249368D01*
X0002674389Y0000244848D01*
X0002670545Y0000241003D01*
X0002666025Y0000237983D01*
X0002661002Y0000235903D01*
X0002655671Y0000234842D01*
X0002650234Y0000234842D01*
X0002644902Y0000235903D01*
X0002639879Y0000237983D01*
X0002635359Y0000241003D01*
X0002631515Y0000244848D01*
X0002628495Y0000249368D01*
X0002626414Y0000254390D01*
X0002625354Y0000259722D01*
X0002625354Y0000265159D01*
X0002626414Y0000270491D01*
X0002628495Y0000275513D01*
X0002631515Y0000280033D01*
X0002635359Y0000283878D01*
X0002639879Y0000286898D01*
X0002644902Y0000288978D01*
X0002650234Y0000290039D01*
X0002655671Y0000290039D01*
X0002661002Y0000288978D01*
X0002661002Y0000288978D01*
G37*
G36*
X0002582262Y0000288978D02*
G01*
X0002587285Y0000286898D01*
X0002591805Y0000283878D01*
X0002595649Y0000280033D01*
X0002598669Y0000275513D01*
X0002600750Y0000270491D01*
X0002601811Y0000265159D01*
X0002601811Y0000259722D01*
X0002600750Y0000254390D01*
X0002598669Y0000249368D01*
X0002595649Y0000244848D01*
X0002591805Y0000241003D01*
X0002587285Y0000237983D01*
X0002582262Y0000235903D01*
X0002576930Y0000234842D01*
X0002571494Y0000234842D01*
X0002566162Y0000235903D01*
X0002561139Y0000237983D01*
X0002556619Y0000241003D01*
X0002552775Y0000244848D01*
X0002549755Y0000249368D01*
X0002547674Y0000254390D01*
X0002546614Y0000259722D01*
X0002546614Y0000265159D01*
X0002547674Y0000270491D01*
X0002549755Y0000275513D01*
X0002552775Y0000280033D01*
X0002556619Y0000283878D01*
X0002561139Y0000286898D01*
X0002566162Y0000288978D01*
X0002571494Y0000290039D01*
X0002576930Y0000290039D01*
X0002582262Y0000288978D01*
X0002582262Y0000288978D01*
G37*
G36*
X0002503522Y0000288978D02*
G01*
X0002508545Y0000286898D01*
X0002513065Y0000283878D01*
X0002516909Y0000280033D01*
X0002519929Y0000275513D01*
X0002522010Y0000270491D01*
X0002523070Y0000265159D01*
X0002523070Y0000259722D01*
X0002522010Y0000254390D01*
X0002519929Y0000249368D01*
X0002516909Y0000244848D01*
X0002513065Y0000241003D01*
X0002508545Y0000237983D01*
X0002503522Y0000235903D01*
X0002498190Y0000234842D01*
X0002492754Y0000234842D01*
X0002487422Y0000235903D01*
X0002482399Y0000237983D01*
X0002477879Y0000241003D01*
X0002474035Y0000244848D01*
X0002471015Y0000249368D01*
X0002468934Y0000254390D01*
X0002467874Y0000259722D01*
X0002467874Y0000265159D01*
X0002468934Y0000270491D01*
X0002471015Y0000275513D01*
X0002474035Y0000280033D01*
X0002477879Y0000283878D01*
X0002482399Y0000286898D01*
X0002487422Y0000288978D01*
X0002492754Y0000290039D01*
X0002498190Y0000290039D01*
X0002503522Y0000288978D01*
X0002503522Y0000288978D01*
G37*
G36*
X0001777262Y0000601459D02*
G01*
X0001782285Y0000599378D01*
X0001786805Y0000596358D01*
X0001790649Y0000592514D01*
X0001793669Y0000587994D01*
X0001795750Y0000582971D01*
X0001796811Y0000577639D01*
X0001796811Y0000572202D01*
X0001795750Y0000566871D01*
X0001793669Y0000561848D01*
X0001790649Y0000557328D01*
X0001786805Y0000553484D01*
X0001782285Y0000550463D01*
X0001777262Y0000548383D01*
X0001771930Y0000547322D01*
X0001766494Y0000547322D01*
X0001761162Y0000548383D01*
X0001756139Y0000550463D01*
X0001751619Y0000553484D01*
X0001747775Y0000557328D01*
X0001744755Y0000561848D01*
X0001742674Y0000566871D01*
X0001741614Y0000572202D01*
X0001741614Y0000577639D01*
X0001742674Y0000582971D01*
X0001744755Y0000587994D01*
X0001747775Y0000592514D01*
X0001751619Y0000596358D01*
X0001756139Y0000599378D01*
X0001761162Y0000601459D01*
X0001766494Y0000602519D01*
X0001771930Y0000602519D01*
X0001777262Y0000601459D01*
X0001777262Y0000601459D01*
G37*
G36*
X0001777262Y0000680199D02*
G01*
X0001782285Y0000678118D01*
X0001786805Y0000675098D01*
X0001790649Y0000671254D01*
X0001793669Y0000666734D01*
X0001795750Y0000661711D01*
X0001796811Y0000656379D01*
X0001796811Y0000650943D01*
X0001795750Y0000645611D01*
X0001793669Y0000640588D01*
X0001790649Y0000636068D01*
X0001786805Y0000632224D01*
X0001782285Y0000629203D01*
X0001777262Y0000627123D01*
X0001771930Y0000626062D01*
X0001766494Y0000626062D01*
X0001761162Y0000627123D01*
X0001756139Y0000629203D01*
X0001751619Y0000632224D01*
X0001747775Y0000636068D01*
X0001744755Y0000640588D01*
X0001742674Y0000645611D01*
X0001741614Y0000650943D01*
X0001741614Y0000656379D01*
X0001742674Y0000661711D01*
X0001744755Y0000666734D01*
X0001747775Y0000671254D01*
X0001751619Y0000675098D01*
X0001756139Y0000678118D01*
X0001761162Y0000680199D01*
X0001766494Y0000681259D01*
X0001771930Y0000681259D01*
X0001777262Y0000680199D01*
X0001777262Y0000680199D01*
G37*
G36*
X0003011041Y0000714152D02*
G01*
X0003013646Y0000713896D01*
X0003020333Y0000711867D01*
X0003026495Y0000708573D01*
X0003027263Y0000707944D01*
X0003031897Y0000704141D01*
X0003035175Y0000700146D01*
X0003036329Y0000698739D01*
X0003039623Y0000692577D01*
X0003041652Y0000685890D01*
X0003042336Y0000678937D01*
X0003041652Y0000671983D01*
X0003039623Y0000665296D01*
X0003036329Y0000659134D01*
X0003035175Y0000657727D01*
X0003031897Y0000653732D01*
X0003028497Y0000650943D01*
X0003026495Y0000649300D01*
X0003020333Y0000646006D01*
X0003013646Y0000643977D01*
X0003011041Y0000643721D01*
X0003008435Y0000643464D01*
X0003004950Y0000643464D01*
X0003002344Y0000643721D01*
X0002999739Y0000643977D01*
X0002993052Y0000646006D01*
X0002986890Y0000649300D01*
X0002984887Y0000650943D01*
X0002981488Y0000653732D01*
X0002978210Y0000657727D01*
X0002977055Y0000659134D01*
X0002973762Y0000665296D01*
X0002971733Y0000671983D01*
X0002971048Y0000678937D01*
X0002971733Y0000685890D01*
X0002973762Y0000692577D01*
X0002977055Y0000698739D01*
X0002978210Y0000700146D01*
X0002981488Y0000704141D01*
X0002986122Y0000707944D01*
X0002986890Y0000708573D01*
X0002993052Y0000711867D01*
X0002999739Y0000713896D01*
X0003002344Y0000714152D01*
X0003004950Y0000714409D01*
X0003008435Y0000714409D01*
X0003011041Y0000714152D01*
X0003011041Y0000714152D01*
G37*
G36*
X0001777262Y0000758939D02*
G01*
X0001782285Y0000756858D01*
X0001786805Y0000753838D01*
X0001790649Y0000749994D01*
X0001793669Y0000745474D01*
X0001795750Y0000740451D01*
X0001796811Y0000735119D01*
X0001796811Y0000729683D01*
X0001795750Y0000724351D01*
X0001793669Y0000719328D01*
X0001790649Y0000714808D01*
X0001786805Y0000710964D01*
X0001782285Y0000707944D01*
X0001777262Y0000705863D01*
X0001771930Y0000704803D01*
X0001766494Y0000704803D01*
X0001761162Y0000705863D01*
X0001756139Y0000707944D01*
X0001751619Y0000710964D01*
X0001747775Y0000714808D01*
X0001744755Y0000719328D01*
X0001742674Y0000724351D01*
X0001741614Y0000729683D01*
X0001741614Y0000735119D01*
X0001742674Y0000740451D01*
X0001744755Y0000745474D01*
X0001747775Y0000749994D01*
X0001751619Y0000753838D01*
X0001756139Y0000756858D01*
X0001761162Y0000758939D01*
X0001766494Y0000760000D01*
X0001771930Y0000760000D01*
X0001777262Y0000758939D01*
X0001777262Y0000758939D01*
G37*
G36*
X0002071161Y0000792680D02*
G01*
X0002077039Y0000791510D01*
X0002083495Y0000788836D01*
X0002089305Y0000784954D01*
X0002094246Y0000780013D01*
X0002098128Y0000774204D01*
X0002100802Y0000767748D01*
X0002102165Y0000760895D01*
X0002102165Y0000753907D01*
X0002100802Y0000747054D01*
X0002098128Y0000740599D01*
X0002094246Y0000734789D01*
X0002089305Y0000729848D01*
X0002083495Y0000725966D01*
X0002077039Y0000723292D01*
X0002071161Y0000722123D01*
X0002070186Y0000721929D01*
X0002063199Y0000721929D01*
X0002062223Y0000722123D01*
X0002056345Y0000723292D01*
X0002049890Y0000725966D01*
X0002044080Y0000729848D01*
X0002039139Y0000734789D01*
X0002035257Y0000740599D01*
X0002032583Y0000747054D01*
X0002031220Y0000753907D01*
X0002031220Y0000760895D01*
X0002032583Y0000767748D01*
X0002035257Y0000774204D01*
X0002039139Y0000780013D01*
X0002044080Y0000784954D01*
X0002049890Y0000788836D01*
X0002056345Y0000791510D01*
X0002062223Y0000792680D01*
X0002063199Y0000792873D01*
X0002070186Y0000792873D01*
X0002071161Y0000792680D01*
X0002071161Y0000792680D01*
G37*
G36*
X0003042165Y0000743464D02*
G01*
X0002971220Y0000743464D01*
X0002971220Y0000814409D01*
X0003042165Y0000814409D01*
X0003042165Y0000743464D01*
X0003042165Y0000743464D01*
G37*
G36*
X0001777262Y0000837679D02*
G01*
X0001782285Y0000835599D01*
X0001786805Y0000832578D01*
X0001790649Y0000828734D01*
X0001793669Y0000824214D01*
X0001795750Y0000819191D01*
X0001796811Y0000813860D01*
X0001796811Y0000808423D01*
X0001795750Y0000803091D01*
X0001793669Y0000798068D01*
X0001790649Y0000793548D01*
X0001786805Y0000789704D01*
X0001782285Y0000786684D01*
X0001777262Y0000784603D01*
X0001771930Y0000783543D01*
X0001766494Y0000783543D01*
X0001761162Y0000784603D01*
X0001756139Y0000786684D01*
X0001751619Y0000789704D01*
X0001747775Y0000793548D01*
X0001744755Y0000798068D01*
X0001742674Y0000803091D01*
X0001741614Y0000808423D01*
X0001741614Y0000813860D01*
X0001742674Y0000819191D01*
X0001744755Y0000824214D01*
X0001747775Y0000828734D01*
X0001751619Y0000832578D01*
X0001756139Y0000835599D01*
X0001761162Y0000837679D01*
X0001766494Y0000838740D01*
X0001771930Y0000838740D01*
X0001777262Y0000837679D01*
X0001777262Y0000837679D01*
G37*
G36*
X0002677477Y0000892953D02*
G01*
X0002684205Y0000890166D01*
X0002684205Y0000890166D01*
X0002686195Y0000888836D01*
X0002690261Y0000886119D01*
X0002695411Y0000880970D01*
X0002699457Y0000874914D01*
X0002702244Y0000868185D01*
X0002703665Y0000861043D01*
X0002703665Y0000853760D01*
X0002702244Y0000846617D01*
X0002699457Y0000839888D01*
X0002699457Y0000839888D01*
X0002695411Y0000833833D01*
X0002690261Y0000828683D01*
X0002684205Y0000824637D01*
X0002684205Y0000824636D01*
X0002684205Y0000824636D01*
X0002677477Y0000821849D01*
X0002670334Y0000820429D01*
X0002663051Y0000820429D01*
X0002655908Y0000821849D01*
X0002649179Y0000824636D01*
X0002649179Y0000824636D01*
X0002649179Y0000824637D01*
X0002643124Y0000828683D01*
X0002637974Y0000833833D01*
X0002633928Y0000839888D01*
X0002633928Y0000839888D01*
X0002631141Y0000846617D01*
X0002629720Y0000853760D01*
X0002629720Y0000861043D01*
X0002631141Y0000868185D01*
X0002633928Y0000874914D01*
X0002637974Y0000880970D01*
X0002643124Y0000886119D01*
X0002647190Y0000888836D01*
X0002649179Y0000890166D01*
X0002649179Y0000890166D01*
X0002655908Y0000892953D01*
X0002663051Y0000894374D01*
X0002670334Y0000894374D01*
X0002677477Y0000892953D01*
X0002677477Y0000892953D01*
G37*
G36*
X0002071161Y0000892680D02*
G01*
X0002077039Y0000891510D01*
X0002083495Y0000888836D01*
X0002089305Y0000884954D01*
X0002094246Y0000880013D01*
X0002098128Y0000874204D01*
X0002100802Y0000867748D01*
X0002102165Y0000860895D01*
X0002102165Y0000853907D01*
X0002100802Y0000847054D01*
X0002098128Y0000840599D01*
X0002094246Y0000834789D01*
X0002089305Y0000829848D01*
X0002083495Y0000825966D01*
X0002077039Y0000823292D01*
X0002071161Y0000822123D01*
X0002070186Y0000821929D01*
X0002063199Y0000821929D01*
X0002062223Y0000822123D01*
X0002056345Y0000823292D01*
X0002049890Y0000825966D01*
X0002044080Y0000829848D01*
X0002039139Y0000834789D01*
X0002035257Y0000840599D01*
X0002032583Y0000847054D01*
X0002031220Y0000853907D01*
X0002031220Y0000860895D01*
X0002032583Y0000867748D01*
X0002035257Y0000874204D01*
X0002039139Y0000880013D01*
X0002044080Y0000884954D01*
X0002049890Y0000888836D01*
X0002056345Y0000891510D01*
X0002062223Y0000892680D01*
X0002063199Y0000892874D01*
X0002070186Y0000892874D01*
X0002071161Y0000892680D01*
X0002071161Y0000892680D01*
G37*
G36*
X0001777262Y0000916419D02*
G01*
X0001782285Y0000914339D01*
X0001786805Y0000911319D01*
X0001790649Y0000907474D01*
X0001793669Y0000902954D01*
X0001795750Y0000897932D01*
X0001796811Y0000892600D01*
X0001796811Y0000887163D01*
X0001795750Y0000881831D01*
X0001793669Y0000876809D01*
X0001790649Y0000872289D01*
X0001786805Y0000868444D01*
X0001782285Y0000865424D01*
X0001777262Y0000863344D01*
X0001771930Y0000862283D01*
X0001766494Y0000862283D01*
X0001761162Y0000863344D01*
X0001756139Y0000865424D01*
X0001751619Y0000868444D01*
X0001747775Y0000872289D01*
X0001744755Y0000876809D01*
X0001742674Y0000881831D01*
X0001741614Y0000887163D01*
X0001741614Y0000892600D01*
X0001742674Y0000897932D01*
X0001744755Y0000902954D01*
X0001747775Y0000907474D01*
X0001751619Y0000911319D01*
X0001756139Y0000914339D01*
X0001761162Y0000916419D01*
X0001766494Y0000917480D01*
X0001771930Y0000917480D01*
X0001777262Y0000916419D01*
X0001777262Y0000916419D01*
G37*
G36*
X0002071161Y0000992680D02*
G01*
X0002077039Y0000991510D01*
X0002083495Y0000988836D01*
X0002089305Y0000984954D01*
X0002094246Y0000980013D01*
X0002098128Y0000974204D01*
X0002100802Y0000967748D01*
X0002102165Y0000960895D01*
X0002102165Y0000953907D01*
X0002100802Y0000947054D01*
X0002098128Y0000940599D01*
X0002094246Y0000934789D01*
X0002089305Y0000929848D01*
X0002083495Y0000925966D01*
X0002077039Y0000923292D01*
X0002071161Y0000922123D01*
X0002070186Y0000921929D01*
X0002063199Y0000921929D01*
X0002062223Y0000922123D01*
X0002056345Y0000923292D01*
X0002049890Y0000925966D01*
X0002044080Y0000929848D01*
X0002039139Y0000934789D01*
X0002035257Y0000940599D01*
X0002032583Y0000947054D01*
X0002031220Y0000953907D01*
X0002031220Y0000960895D01*
X0002032583Y0000967748D01*
X0002035257Y0000974204D01*
X0002039139Y0000980013D01*
X0002044080Y0000984954D01*
X0002049890Y0000988836D01*
X0002056345Y0000991510D01*
X0002062223Y0000992680D01*
X0002063199Y0000992873D01*
X0002070186Y0000992873D01*
X0002071161Y0000992680D01*
X0002071161Y0000992680D01*
G37*
G36*
X0002671161Y0000992680D02*
G01*
X0002677039Y0000991510D01*
X0002683495Y0000988836D01*
X0002689305Y0000984954D01*
X0002694246Y0000980013D01*
X0002698128Y0000974204D01*
X0002700802Y0000967748D01*
X0002702165Y0000960895D01*
X0002702165Y0000953907D01*
X0002700802Y0000947054D01*
X0002698128Y0000940599D01*
X0002694246Y0000934789D01*
X0002689305Y0000929848D01*
X0002683495Y0000925966D01*
X0002677039Y0000923292D01*
X0002671161Y0000922123D01*
X0002670186Y0000921929D01*
X0002663199Y0000921929D01*
X0002662223Y0000922123D01*
X0002656345Y0000923292D01*
X0002649890Y0000925966D01*
X0002644080Y0000929848D01*
X0002639139Y0000934789D01*
X0002635257Y0000940599D01*
X0002632583Y0000947054D01*
X0002631220Y0000953907D01*
X0002631220Y0000960895D01*
X0002632583Y0000967748D01*
X0002635257Y0000974204D01*
X0002639139Y0000980013D01*
X0002644080Y0000984954D01*
X0002649890Y0000988836D01*
X0002656345Y0000991510D01*
X0002662223Y0000992680D01*
X0002663199Y0000992873D01*
X0002670186Y0000992873D01*
X0002671161Y0000992680D01*
X0002671161Y0000992680D01*
G37*
G36*
X0001777262Y0000995159D02*
G01*
X0001782285Y0000993079D01*
X0001786805Y0000990059D01*
X0001790649Y0000986214D01*
X0001793669Y0000981694D01*
X0001795750Y0000976672D01*
X0001796811Y0000971340D01*
X0001796811Y0000965903D01*
X0001795750Y0000960571D01*
X0001793669Y0000955549D01*
X0001790649Y0000951029D01*
X0001786805Y0000947184D01*
X0001782285Y0000944164D01*
X0001777262Y0000942084D01*
X0001771930Y0000941023D01*
X0001766494Y0000941023D01*
X0001761162Y0000942084D01*
X0001756139Y0000944164D01*
X0001751619Y0000947184D01*
X0001747775Y0000951029D01*
X0001744755Y0000955549D01*
X0001742674Y0000960571D01*
X0001741614Y0000965903D01*
X0001741614Y0000971340D01*
X0001742674Y0000976672D01*
X0001744755Y0000981694D01*
X0001747775Y0000986214D01*
X0001751619Y0000990059D01*
X0001756139Y0000993079D01*
X0001761162Y0000995159D01*
X0001766494Y0000996220D01*
X0001771930Y0000996220D01*
X0001777262Y0000995159D01*
X0001777262Y0000995159D01*
G37*
G36*
X0002671161Y0001092680D02*
G01*
X0002677039Y0001091510D01*
X0002683495Y0001088836D01*
X0002689305Y0001084954D01*
X0002694246Y0001080013D01*
X0002698128Y0001074204D01*
X0002700802Y0001067748D01*
X0002702165Y0001060895D01*
X0002702165Y0001053907D01*
X0002700802Y0001047054D01*
X0002698128Y0001040599D01*
X0002694246Y0001034789D01*
X0002689305Y0001029848D01*
X0002683495Y0001025966D01*
X0002677039Y0001023292D01*
X0002671161Y0001022123D01*
X0002670186Y0001021929D01*
X0002663199Y0001021929D01*
X0002662223Y0001022123D01*
X0002656345Y0001023292D01*
X0002649890Y0001025966D01*
X0002644080Y0001029848D01*
X0002639139Y0001034789D01*
X0002635257Y0001040599D01*
X0002632583Y0001047054D01*
X0002631220Y0001053907D01*
X0002631220Y0001060895D01*
X0002632583Y0001067748D01*
X0002635257Y0001074204D01*
X0002639139Y0001080013D01*
X0002644080Y0001084954D01*
X0002649890Y0001088836D01*
X0002656345Y0001091510D01*
X0002662223Y0001092680D01*
X0002663199Y0001092874D01*
X0002670186Y0001092874D01*
X0002671161Y0001092680D01*
X0002671161Y0001092680D01*
G37*
G36*
X0002071161Y0001092680D02*
G01*
X0002077039Y0001091510D01*
X0002083495Y0001088836D01*
X0002089305Y0001084954D01*
X0002094246Y0001080013D01*
X0002098128Y0001074204D01*
X0002100802Y0001067748D01*
X0002102165Y0001060895D01*
X0002102165Y0001053907D01*
X0002100802Y0001047054D01*
X0002098128Y0001040599D01*
X0002094246Y0001034789D01*
X0002089305Y0001029848D01*
X0002083495Y0001025966D01*
X0002077039Y0001023292D01*
X0002071161Y0001022123D01*
X0002070186Y0001021929D01*
X0002063199Y0001021929D01*
X0002062223Y0001022123D01*
X0002056345Y0001023292D01*
X0002049890Y0001025966D01*
X0002044080Y0001029848D01*
X0002039139Y0001034789D01*
X0002035257Y0001040599D01*
X0002032583Y0001047054D01*
X0002031220Y0001053907D01*
X0002031220Y0001060895D01*
X0002032583Y0001067748D01*
X0002035257Y0001074204D01*
X0002039139Y0001080013D01*
X0002044080Y0001084954D01*
X0002049890Y0001088836D01*
X0002056345Y0001091510D01*
X0002062223Y0001092680D01*
X0002063199Y0001092874D01*
X0002070186Y0001092874D01*
X0002071161Y0001092680D01*
X0002071161Y0001092680D01*
G37*
G36*
X0002671161Y0001192680D02*
G01*
X0002677039Y0001191510D01*
X0002683495Y0001188836D01*
X0002689305Y0001184954D01*
X0002694246Y0001180013D01*
X0002698128Y0001174204D01*
X0002700802Y0001167748D01*
X0002702165Y0001160895D01*
X0002702165Y0001153907D01*
X0002700802Y0001147054D01*
X0002698128Y0001140599D01*
X0002694246Y0001134789D01*
X0002689305Y0001129848D01*
X0002683495Y0001125966D01*
X0002677039Y0001123292D01*
X0002671161Y0001122123D01*
X0002670186Y0001121929D01*
X0002663199Y0001121929D01*
X0002662223Y0001122123D01*
X0002656345Y0001123292D01*
X0002649890Y0001125966D01*
X0002644080Y0001129848D01*
X0002639139Y0001134789D01*
X0002635257Y0001140599D01*
X0002632583Y0001147054D01*
X0002631220Y0001153907D01*
X0002631220Y0001160895D01*
X0002632583Y0001167748D01*
X0002635257Y0001174204D01*
X0002639139Y0001180013D01*
X0002644080Y0001184954D01*
X0002649890Y0001188836D01*
X0002656345Y0001191510D01*
X0002662223Y0001192680D01*
X0002663199Y0001192874D01*
X0002670186Y0001192874D01*
X0002671161Y0001192680D01*
X0002671161Y0001192680D01*
G37*
G36*
X0002071161Y0001192680D02*
G01*
X0002077039Y0001191510D01*
X0002083495Y0001188836D01*
X0002089305Y0001184954D01*
X0002094246Y0001180013D01*
X0002098128Y0001174204D01*
X0002100802Y0001167748D01*
X0002102165Y0001160895D01*
X0002102165Y0001153907D01*
X0002100802Y0001147054D01*
X0002098128Y0001140599D01*
X0002094246Y0001134789D01*
X0002089305Y0001129848D01*
X0002083495Y0001125966D01*
X0002077039Y0001123292D01*
X0002071161Y0001122123D01*
X0002070186Y0001121929D01*
X0002063199Y0001121929D01*
X0002062223Y0001122123D01*
X0002056345Y0001123292D01*
X0002049890Y0001125966D01*
X0002044080Y0001129848D01*
X0002039139Y0001134789D01*
X0002035257Y0001140599D01*
X0002032583Y0001147054D01*
X0002031220Y0001153907D01*
X0002031220Y0001160895D01*
X0002032583Y0001167748D01*
X0002035257Y0001174204D01*
X0002039139Y0001180013D01*
X0002044080Y0001184954D01*
X0002049890Y0001188836D01*
X0002056345Y0001191510D01*
X0002062223Y0001192680D01*
X0002063199Y0001192874D01*
X0002070186Y0001192874D01*
X0002071161Y0001192680D01*
X0002071161Y0001192680D01*
G37*
G36*
X0001757208Y0001285670D02*
G01*
X0001771186Y0001279880D01*
X0001771186Y0001279880D01*
X0001783767Y0001271474D01*
X0001794466Y0001260775D01*
X0001802872Y0001248194D01*
X0001802872Y0001248194D01*
X0001808662Y0001234215D01*
X0001811614Y0001219376D01*
X0001811614Y0001204245D01*
X0001808662Y0001189406D01*
X0001804771Y0001180013D01*
X0001802872Y0001175427D01*
X0001794466Y0001162846D01*
X0001783767Y0001152147D01*
X0001771186Y0001143741D01*
X0001771186Y0001143741D01*
X0001771186Y0001143741D01*
X0001757208Y0001137951D01*
X0001742368Y0001134999D01*
X0001727237Y0001134999D01*
X0001712398Y0001137951D01*
X0001698419Y0001143741D01*
X0001698419Y0001143741D01*
X0001698419Y0001143741D01*
X0001685838Y0001152147D01*
X0001675140Y0001162846D01*
X0001666734Y0001175427D01*
X0001664834Y0001180013D01*
X0001660943Y0001189406D01*
X0001657992Y0001204245D01*
X0001657992Y0001219376D01*
X0001660943Y0001234215D01*
X0001666734Y0001248194D01*
X0001666734Y0001248194D01*
X0001675140Y0001260775D01*
X0001685838Y0001271474D01*
X0001698419Y0001279880D01*
X0001698419Y0001279880D01*
X0001712398Y0001285670D01*
X0001727237Y0001288622D01*
X0001742368Y0001288622D01*
X0001757208Y0001285670D01*
X0001757208Y0001285670D01*
G37*
G36*
X0003020987Y0001285670D02*
G01*
X0003034966Y0001279880D01*
X0003034966Y0001279880D01*
X0003047546Y0001271474D01*
X0003058245Y0001260775D01*
X0003066651Y0001248194D01*
X0003066651Y0001248194D01*
X0003072441Y0001234215D01*
X0003075393Y0001219376D01*
X0003075393Y0001204245D01*
X0003072441Y0001189406D01*
X0003068551Y0001180013D01*
X0003066651Y0001175427D01*
X0003058245Y0001162846D01*
X0003047546Y0001152147D01*
X0003034966Y0001143741D01*
X0003034966Y0001143741D01*
X0003034966Y0001143741D01*
X0003020987Y0001137951D01*
X0003006147Y0001134999D01*
X0002991017Y0001134999D01*
X0002976177Y0001137951D01*
X0002962199Y0001143741D01*
X0002962199Y0001143741D01*
X0002962199Y0001143741D01*
X0002949618Y0001152147D01*
X0002938919Y0001162846D01*
X0002930513Y0001175427D01*
X0002928613Y0001180013D01*
X0002924723Y0001189406D01*
X0002921771Y0001204245D01*
X0002921771Y0001219376D01*
X0002924723Y0001234215D01*
X0002930513Y0001248194D01*
X0002930513Y0001248194D01*
X0002938919Y0001260775D01*
X0002949618Y0001271474D01*
X0002962199Y0001279880D01*
X0002962199Y0001279880D01*
X0002976177Y0001285670D01*
X0002991017Y0001288622D01*
X0003006147Y0001288622D01*
X0003020987Y0001285670D01*
X0003020987Y0001285670D01*
G37*
G04 next file*
G04 #@! TF.GenerationSoftware,KiCad,Pcbnew,(5.1.2)-1*
G04 #@! TF.CreationDate,2020-12-05T19:35:51+09:00*
G04 #@! TF.ProjectId,M5Atom_CAN,4d354174-6f6d-45f4-9341-4e2e6b696361,rev?*
G04 #@! TF.SameCoordinates,Original*
G04 #@! TF.FileFunction,Soldermask,Top*
G04 #@! TF.FilePolarity,Negative*
G04 Gerber Fmt 4.6, Leading zero omitted, Abs format (unit mm)*
G04 Created by KiCad (PCBNEW (5.1.2)-1) date 2020-12-05 19:35:51*
G04 APERTURE LIST*
G04 APERTURE END LIST*
D22*
G36*
X0001406814Y0001621103D02*
G01*
X0001420793Y0001615313D01*
X0001420793Y0001615313D01*
X0001433373Y0001606907D01*
X0001444072Y0001596208D01*
X0001449429Y0001588191D01*
X0001452478Y0001583627D01*
X0001458268Y0001569649D01*
X0001461220Y0001554809D01*
X0001461220Y0001539678D01*
X0001458268Y0001524839D01*
X0001452478Y0001510860D01*
X0001452478Y0001510860D01*
X0001444072Y0001498279D01*
X0001433373Y0001487581D01*
X0001420793Y0001479175D01*
X0001420793Y0001479175D01*
X0001420793Y0001479175D01*
X0001406814Y0001473384D01*
X0001391974Y0001470433D01*
X0001376844Y0001470433D01*
X0001362004Y0001473384D01*
X0001348025Y0001479175D01*
X0001348025Y0001479175D01*
X0001348025Y0001479175D01*
X0001335445Y0001487581D01*
X0001324746Y0001498279D01*
X0001316340Y0001510860D01*
X0001316340Y0001510860D01*
X0001310550Y0001524839D01*
X0001307598Y0001539678D01*
X0001307598Y0001554809D01*
X0001310550Y0001569649D01*
X0001316340Y0001583627D01*
X0001319389Y0001588191D01*
X0001324746Y0001596208D01*
X0001335445Y0001606907D01*
X0001348025Y0001615313D01*
X0001348025Y0001615313D01*
X0001362004Y0001621103D01*
X0001376844Y0001624055D01*
X0001391974Y0001624055D01*
X0001406814Y0001621103D01*
X0001406814Y0001621103D01*
G37*
G36*
X0000143034Y0001621103D02*
G01*
X0000157013Y0001615313D01*
X0000157013Y0001615313D01*
X0000169594Y0001606907D01*
X0000180292Y0001596208D01*
X0000185649Y0001588191D01*
X0000188699Y0001583627D01*
X0000194489Y0001569649D01*
X0000197440Y0001554809D01*
X0000197440Y0001539678D01*
X0000194489Y0001524839D01*
X0000188699Y0001510860D01*
X0000188698Y0001510860D01*
X0000180292Y0001498279D01*
X0000169594Y0001487581D01*
X0000157013Y0001479175D01*
X0000157013Y0001479175D01*
X0000157013Y0001479175D01*
X0000143034Y0001473384D01*
X0000128195Y0001470433D01*
X0000113064Y0001470433D01*
X0000098224Y0001473384D01*
X0000084246Y0001479175D01*
X0000084246Y0001479175D01*
X0000084246Y0001479175D01*
X0000071665Y0001487581D01*
X0000060966Y0001498279D01*
X0000052560Y0001510860D01*
X0000052560Y0001510860D01*
X0000046770Y0001524839D01*
X0000043818Y0001539678D01*
X0000043818Y0001554809D01*
X0000046770Y0001569649D01*
X0000052560Y0001583627D01*
X0000055610Y0001588191D01*
X0000060966Y0001596208D01*
X0000071665Y0001606907D01*
X0000084246Y0001615313D01*
X0000084246Y0001615313D01*
X0000098224Y0001621103D01*
X0000113064Y0001624055D01*
X0000128195Y0001624055D01*
X0000143034Y0001621103D01*
X0000143034Y0001621103D01*
G37*
G36*
X0000635118Y0001534055D02*
G01*
X0000579921Y0001534055D01*
X0000579921Y0001589251D01*
X0000635118Y0001589251D01*
X0000635118Y0001534055D01*
X0000635118Y0001534055D01*
G37*
G36*
X0000536829Y0001588191D02*
G01*
X0000541852Y0001586110D01*
X0000546372Y0001583090D01*
X0000550216Y0001579246D01*
X0000553236Y0001574726D01*
X0000555317Y0001569703D01*
X0000556377Y0001564371D01*
X0000556377Y0001558935D01*
X0000555317Y0001553603D01*
X0000553236Y0001548580D01*
X0000550216Y0001544060D01*
X0000546372Y0001540216D01*
X0000541852Y0001537196D01*
X0000536829Y0001535115D01*
X0000531497Y0001534055D01*
X0000526061Y0001534055D01*
X0000520729Y0001535115D01*
X0000515706Y0001537196D01*
X0000511186Y0001540216D01*
X0000507342Y0001544060D01*
X0000504322Y0001548580D01*
X0000502241Y0001553603D01*
X0000501181Y0001558935D01*
X0000501181Y0001564371D01*
X0000502241Y0001569703D01*
X0000504322Y0001574726D01*
X0000507342Y0001579246D01*
X0000511186Y0001583090D01*
X0000515706Y0001586110D01*
X0000520729Y0001588191D01*
X0000526061Y0001589251D01*
X0000531497Y0001589251D01*
X0000536829Y0001588191D01*
X0000536829Y0001588191D01*
G37*
G36*
X0000458089Y0001588191D02*
G01*
X0000463112Y0001586110D01*
X0000467632Y0001583090D01*
X0000471476Y0001579246D01*
X0000474496Y0001574726D01*
X0000476577Y0001569703D01*
X0000477637Y0001564371D01*
X0000477637Y0001558935D01*
X0000476577Y0001553603D01*
X0000474496Y0001548580D01*
X0000471476Y0001544060D01*
X0000467632Y0001540216D01*
X0000463112Y0001537196D01*
X0000458089Y0001535115D01*
X0000452757Y0001534055D01*
X0000447321Y0001534055D01*
X0000441989Y0001535115D01*
X0000436966Y0001537196D01*
X0000432446Y0001540216D01*
X0000428602Y0001544060D01*
X0000425581Y0001548580D01*
X0000423501Y0001553603D01*
X0000422440Y0001558935D01*
X0000422440Y0001564371D01*
X0000423501Y0001569703D01*
X0000425581Y0001574726D01*
X0000428602Y0001579246D01*
X0000432446Y0001583090D01*
X0000436966Y0001586110D01*
X0000441989Y0001588191D01*
X0000447321Y0001589251D01*
X0000452757Y0001589251D01*
X0000458089Y0001588191D01*
X0000458089Y0001588191D01*
G37*
G36*
X0000379349Y0001588191D02*
G01*
X0000384371Y0001586110D01*
X0000388892Y0001583090D01*
X0000392736Y0001579246D01*
X0000395756Y0001574726D01*
X0000397837Y0001569703D01*
X0000398897Y0001564371D01*
X0000398897Y0001558935D01*
X0000397837Y0001553603D01*
X0000395756Y0001548580D01*
X0000392736Y0001544060D01*
X0000388892Y0001540216D01*
X0000384371Y0001537196D01*
X0000379349Y0001535115D01*
X0000374017Y0001534055D01*
X0000368580Y0001534055D01*
X0000363249Y0001535115D01*
X0000358226Y0001537196D01*
X0000353706Y0001540216D01*
X0000349861Y0001544060D01*
X0000346841Y0001548580D01*
X0000344761Y0001553603D01*
X0000343700Y0001558935D01*
X0000343700Y0001564371D01*
X0000344761Y0001569703D01*
X0000346841Y0001574726D01*
X0000349861Y0001579246D01*
X0000353706Y0001583090D01*
X0000358226Y0001586110D01*
X0000363249Y0001588191D01*
X0000368580Y0001589251D01*
X0000374017Y0001589251D01*
X0000379349Y0001588191D01*
X0000379349Y0001588191D01*
G37*
G36*
X0001145118Y0001534055D02*
G01*
X0001089921Y0001534055D01*
X0001089921Y0001589251D01*
X0001145118Y0001589251D01*
X0001145118Y0001534055D01*
X0001145118Y0001534055D01*
G37*
G36*
X0001046829Y0001588191D02*
G01*
X0001051852Y0001586110D01*
X0001056372Y0001583090D01*
X0001060216Y0001579246D01*
X0001063236Y0001574726D01*
X0001065317Y0001569703D01*
X0001066377Y0001564371D01*
X0001066377Y0001558935D01*
X0001065317Y0001553603D01*
X0001063236Y0001548580D01*
X0001060216Y0001544060D01*
X0001056372Y0001540216D01*
X0001051852Y0001537196D01*
X0001046829Y0001535115D01*
X0001041497Y0001534055D01*
X0001036061Y0001534055D01*
X0001030729Y0001535115D01*
X0001025706Y0001537196D01*
X0001021186Y0001540216D01*
X0001017342Y0001544060D01*
X0001014322Y0001548580D01*
X0001012241Y0001553603D01*
X0001011181Y0001558935D01*
X0001011181Y0001564371D01*
X0001012241Y0001569703D01*
X0001014322Y0001574726D01*
X0001017342Y0001579246D01*
X0001021186Y0001583090D01*
X0001025706Y0001586110D01*
X0001030729Y0001588191D01*
X0001036061Y0001589251D01*
X0001041497Y0001589251D01*
X0001046829Y0001588191D01*
X0001046829Y0001588191D01*
G37*
G36*
X0000968089Y0001588191D02*
G01*
X0000973112Y0001586110D01*
X0000977632Y0001583090D01*
X0000981476Y0001579246D01*
X0000984496Y0001574726D01*
X0000986577Y0001569703D01*
X0000987637Y0001564371D01*
X0000987637Y0001558935D01*
X0000986577Y0001553603D01*
X0000984496Y0001548580D01*
X0000981476Y0001544060D01*
X0000977632Y0001540216D01*
X0000973112Y0001537196D01*
X0000968089Y0001535115D01*
X0000962757Y0001534055D01*
X0000957321Y0001534055D01*
X0000951989Y0001535115D01*
X0000946966Y0001537196D01*
X0000942446Y0001540216D01*
X0000938602Y0001544060D01*
X0000935581Y0001548580D01*
X0000933501Y0001553603D01*
X0000932440Y0001558935D01*
X0000932440Y0001564371D01*
X0000933501Y0001569703D01*
X0000935581Y0001574726D01*
X0000938602Y0001579246D01*
X0000942446Y0001583090D01*
X0000946966Y0001586110D01*
X0000951989Y0001588191D01*
X0000957321Y0001589251D01*
X0000962757Y0001589251D01*
X0000968089Y0001588191D01*
X0000968089Y0001588191D01*
G37*
G36*
X0000889349Y0001588191D02*
G01*
X0000894372Y0001586110D01*
X0000898892Y0001583090D01*
X0000902736Y0001579246D01*
X0000905756Y0001574726D01*
X0000907837Y0001569703D01*
X0000908897Y0001564371D01*
X0000908897Y0001558935D01*
X0000907837Y0001553603D01*
X0000905756Y0001548580D01*
X0000902736Y0001544060D01*
X0000898892Y0001540216D01*
X0000894372Y0001537196D01*
X0000889349Y0001535115D01*
X0000884017Y0001534055D01*
X0000878580Y0001534055D01*
X0000873249Y0001535115D01*
X0000868226Y0001537196D01*
X0000863706Y0001540216D01*
X0000859862Y0001544060D01*
X0000856841Y0001548580D01*
X0000854761Y0001553603D01*
X0000853700Y0001558935D01*
X0000853700Y0001564371D01*
X0000854761Y0001569703D01*
X0000856841Y0001574726D01*
X0000859862Y0001579246D01*
X0000863706Y0001583090D01*
X0000868226Y0001586110D01*
X0000873249Y0001588191D01*
X0000878580Y0001589251D01*
X0000884017Y0001589251D01*
X0000889349Y0001588191D01*
X0000889349Y0001588191D01*
G37*
G36*
X0000163089Y0001900671D02*
G01*
X0000168112Y0001898591D01*
X0000172632Y0001895571D01*
X0000176476Y0001891726D01*
X0000179496Y0001887206D01*
X0000181577Y0001882183D01*
X0000182637Y0001876852D01*
X0000182637Y0001871415D01*
X0000181577Y0001866083D01*
X0000179496Y0001861061D01*
X0000176476Y0001856540D01*
X0000172632Y0001852696D01*
X0000168112Y0001849676D01*
X0000163089Y0001847595D01*
X0000157757Y0001846535D01*
X0000152321Y0001846535D01*
X0000146989Y0001847595D01*
X0000141966Y0001849676D01*
X0000137446Y0001852696D01*
X0000133602Y0001856540D01*
X0000130581Y0001861061D01*
X0000128501Y0001866083D01*
X0000127440Y0001871415D01*
X0000127440Y0001876852D01*
X0000128501Y0001882183D01*
X0000130581Y0001887206D01*
X0000133602Y0001891726D01*
X0000137446Y0001895571D01*
X0000141966Y0001898591D01*
X0000146989Y0001900671D01*
X0000152321Y0001901732D01*
X0000157757Y0001901732D01*
X0000163089Y0001900671D01*
X0000163089Y0001900671D01*
G37*
G36*
X0000163089Y0001979411D02*
G01*
X0000168112Y0001977331D01*
X0000172632Y0001974311D01*
X0000176476Y0001970466D01*
X0000179496Y0001965946D01*
X0000181577Y0001960924D01*
X0000182637Y0001955592D01*
X0000182637Y0001950155D01*
X0000181577Y0001944823D01*
X0000179496Y0001939801D01*
X0000176476Y0001935281D01*
X0000172632Y0001931436D01*
X0000168112Y0001928416D01*
X0000163089Y0001926336D01*
X0000157757Y0001925275D01*
X0000152321Y0001925275D01*
X0000146989Y0001926336D01*
X0000141966Y0001928416D01*
X0000137446Y0001931436D01*
X0000133602Y0001935281D01*
X0000130581Y0001939801D01*
X0000128501Y0001944823D01*
X0000127440Y0001950155D01*
X0000127440Y0001955592D01*
X0000128501Y0001960924D01*
X0000130581Y0001965946D01*
X0000133602Y0001970466D01*
X0000137446Y0001974311D01*
X0000141966Y0001977331D01*
X0000146989Y0001979411D01*
X0000152321Y0001980472D01*
X0000157757Y0001980472D01*
X0000163089Y0001979411D01*
X0000163089Y0001979411D01*
G37*
G36*
X0001396867Y0002013365D02*
G01*
X0001399473Y0002013108D01*
X0001406160Y0002011080D01*
X0001412322Y0002007786D01*
X0001413089Y0002007156D01*
X0001417723Y0002003353D01*
X0001421001Y0001999359D01*
X0001422156Y0001997952D01*
X0001425450Y0001991790D01*
X0001427478Y0001985103D01*
X0001428163Y0001978149D01*
X0001427478Y0001971195D01*
X0001425450Y0001964509D01*
X0001422156Y0001958346D01*
X0001421001Y0001956939D01*
X0001417723Y0001952945D01*
X0001414324Y0001950155D01*
X0001412322Y0001948512D01*
X0001406160Y0001945218D01*
X0001399473Y0001943190D01*
X0001396867Y0001942933D01*
X0001394262Y0001942677D01*
X0001390777Y0001942677D01*
X0001388171Y0001942933D01*
X0001385565Y0001943190D01*
X0001378879Y0001945218D01*
X0001372716Y0001948512D01*
X0001370714Y0001950155D01*
X0001367315Y0001952945D01*
X0001364037Y0001956939D01*
X0001362882Y0001958346D01*
X0001359588Y0001964509D01*
X0001357560Y0001971195D01*
X0001356875Y0001978149D01*
X0001357560Y0001985103D01*
X0001359588Y0001991790D01*
X0001362882Y0001997952D01*
X0001364037Y0001999359D01*
X0001367315Y0002003353D01*
X0001371949Y0002007156D01*
X0001372716Y0002007786D01*
X0001378879Y0002011080D01*
X0001385565Y0002013108D01*
X0001388171Y0002013365D01*
X0001390777Y0002013622D01*
X0001394262Y0002013622D01*
X0001396867Y0002013365D01*
X0001396867Y0002013365D01*
G37*
G36*
X0000163089Y0002058152D02*
G01*
X0000168112Y0002056071D01*
X0000172632Y0002053051D01*
X0000176476Y0002049207D01*
X0000179496Y0002044686D01*
X0000181577Y0002039664D01*
X0000182637Y0002034332D01*
X0000182637Y0002028895D01*
X0000181577Y0002023564D01*
X0000179496Y0002018541D01*
X0000176476Y0002014021D01*
X0000172632Y0002010176D01*
X0000168112Y0002007156D01*
X0000163089Y0002005076D01*
X0000157757Y0002004015D01*
X0000152321Y0002004015D01*
X0000146989Y0002005076D01*
X0000141966Y0002007156D01*
X0000137446Y0002010176D01*
X0000133602Y0002014021D01*
X0000130581Y0002018541D01*
X0000128501Y0002023564D01*
X0000127440Y0002028895D01*
X0000127440Y0002034332D01*
X0000128501Y0002039664D01*
X0000130581Y0002044686D01*
X0000133602Y0002049207D01*
X0000137446Y0002053051D01*
X0000141966Y0002056071D01*
X0000146989Y0002058152D01*
X0000152321Y0002059212D01*
X0000157757Y0002059212D01*
X0000163089Y0002058152D01*
X0000163089Y0002058152D01*
G37*
G36*
X0000456988Y0002091892D02*
G01*
X0000462866Y0002090723D01*
X0000469322Y0002088049D01*
X0000475132Y0002084167D01*
X0000480072Y0002079226D01*
X0000483954Y0002073416D01*
X0000486628Y0002066961D01*
X0000487992Y0002060107D01*
X0000487992Y0002053120D01*
X0000486628Y0002046267D01*
X0000483954Y0002039811D01*
X0000480072Y0002034001D01*
X0000475132Y0002029060D01*
X0000469322Y0002025178D01*
X0000462866Y0002022504D01*
X0000456988Y0002021335D01*
X0000456013Y0002021141D01*
X0000449025Y0002021141D01*
X0000448050Y0002021335D01*
X0000442172Y0002022504D01*
X0000435717Y0002025178D01*
X0000429907Y0002029060D01*
X0000424966Y0002034001D01*
X0000421084Y0002039811D01*
X0000418410Y0002046267D01*
X0000417047Y0002053120D01*
X0000417047Y0002060107D01*
X0000418410Y0002066961D01*
X0000421084Y0002073416D01*
X0000424966Y0002079226D01*
X0000429907Y0002084167D01*
X0000435717Y0002088049D01*
X0000442172Y0002090723D01*
X0000448050Y0002091892D01*
X0000449025Y0002092086D01*
X0000456013Y0002092086D01*
X0000456988Y0002091892D01*
X0000456988Y0002091892D01*
G37*
G36*
X0001427992Y0002042677D02*
G01*
X0001357047Y0002042677D01*
X0001357047Y0002113622D01*
X0001427992Y0002113622D01*
X0001427992Y0002042677D01*
X0001427992Y0002042677D01*
G37*
G36*
X0000163089Y0002136892D02*
G01*
X0000168112Y0002134811D01*
X0000172632Y0002131791D01*
X0000176476Y0002127947D01*
X0000179496Y0002123427D01*
X0000181577Y0002118404D01*
X0000182637Y0002113072D01*
X0000182637Y0002107636D01*
X0000181577Y0002102304D01*
X0000179496Y0002097281D01*
X0000176476Y0002092761D01*
X0000172632Y0002088917D01*
X0000168112Y0002085896D01*
X0000163089Y0002083816D01*
X0000157757Y0002082755D01*
X0000152321Y0002082755D01*
X0000146989Y0002083816D01*
X0000141966Y0002085896D01*
X0000137446Y0002088917D01*
X0000133602Y0002092761D01*
X0000130581Y0002097281D01*
X0000128501Y0002102304D01*
X0000127440Y0002107636D01*
X0000127440Y0002113072D01*
X0000128501Y0002118404D01*
X0000130581Y0002123427D01*
X0000133602Y0002127947D01*
X0000137446Y0002131791D01*
X0000141966Y0002134811D01*
X0000146989Y0002136892D01*
X0000152321Y0002137952D01*
X0000157757Y0002137952D01*
X0000163089Y0002136892D01*
X0000163089Y0002136892D01*
G37*
G36*
X0001063304Y0002192165D02*
G01*
X0001070032Y0002189378D01*
X0001070032Y0002189378D01*
X0001072022Y0002188049D01*
X0001076088Y0002185332D01*
X0001081238Y0002180182D01*
X0001085284Y0002174127D01*
X0001088071Y0002167398D01*
X0001089492Y0002160255D01*
X0001089492Y0002152972D01*
X0001088071Y0002145829D01*
X0001085284Y0002139101D01*
X0001085284Y0002139101D01*
X0001081238Y0002133045D01*
X0001076088Y0002127895D01*
X0001070032Y0002123849D01*
X0001070032Y0002123849D01*
X0001070032Y0002123849D01*
X0001063304Y0002121062D01*
X0001056161Y0002119641D01*
X0001048878Y0002119641D01*
X0001041735Y0002121062D01*
X0001035006Y0002123849D01*
X0001035006Y0002123849D01*
X0001035006Y0002123849D01*
X0001028951Y0002127895D01*
X0001023801Y0002133045D01*
X0001019755Y0002139101D01*
X0001019755Y0002139101D01*
X0001016967Y0002145829D01*
X0001015547Y0002152972D01*
X0001015547Y0002160255D01*
X0001016967Y0002167398D01*
X0001019755Y0002174127D01*
X0001023801Y0002180182D01*
X0001028951Y0002185332D01*
X0001033017Y0002188049D01*
X0001035006Y0002189378D01*
X0001035006Y0002189378D01*
X0001041735Y0002192165D01*
X0001048878Y0002193586D01*
X0001056161Y0002193586D01*
X0001063304Y0002192165D01*
X0001063304Y0002192165D01*
G37*
G36*
X0000456988Y0002191892D02*
G01*
X0000462866Y0002190723D01*
X0000469322Y0002188049D01*
X0000475132Y0002184167D01*
X0000480072Y0002179226D01*
X0000483954Y0002173416D01*
X0000486628Y0002166961D01*
X0000487992Y0002160107D01*
X0000487992Y0002153120D01*
X0000486628Y0002146267D01*
X0000483954Y0002139811D01*
X0000480072Y0002134001D01*
X0000475132Y0002129060D01*
X0000469322Y0002125178D01*
X0000462866Y0002122504D01*
X0000456988Y0002121335D01*
X0000456013Y0002121141D01*
X0000449025Y0002121141D01*
X0000448050Y0002121335D01*
X0000442172Y0002122504D01*
X0000435717Y0002125178D01*
X0000429907Y0002129060D01*
X0000424966Y0002134001D01*
X0000421084Y0002139811D01*
X0000418410Y0002146267D01*
X0000417047Y0002153120D01*
X0000417047Y0002160107D01*
X0000418410Y0002166961D01*
X0000421084Y0002173416D01*
X0000424966Y0002179226D01*
X0000429907Y0002184167D01*
X0000435717Y0002188049D01*
X0000442172Y0002190723D01*
X0000448050Y0002191892D01*
X0000449025Y0002192086D01*
X0000456013Y0002192086D01*
X0000456988Y0002191892D01*
X0000456988Y0002191892D01*
G37*
G36*
X0000163089Y0002215632D02*
G01*
X0000168112Y0002213551D01*
X0000172632Y0002210531D01*
X0000176476Y0002206687D01*
X0000179496Y0002202167D01*
X0000181577Y0002197144D01*
X0000182637Y0002191812D01*
X0000182637Y0002186376D01*
X0000181577Y0002181044D01*
X0000179496Y0002176021D01*
X0000176476Y0002171501D01*
X0000172632Y0002167657D01*
X0000168112Y0002164637D01*
X0000163089Y0002162556D01*
X0000157757Y0002161496D01*
X0000152321Y0002161496D01*
X0000146989Y0002162556D01*
X0000141966Y0002164637D01*
X0000137446Y0002167657D01*
X0000133602Y0002171501D01*
X0000130581Y0002176021D01*
X0000128501Y0002181044D01*
X0000127440Y0002186376D01*
X0000127440Y0002191812D01*
X0000128501Y0002197144D01*
X0000130581Y0002202167D01*
X0000133602Y0002206687D01*
X0000137446Y0002210531D01*
X0000141966Y0002213551D01*
X0000146989Y0002215632D01*
X0000152321Y0002216692D01*
X0000157757Y0002216692D01*
X0000163089Y0002215632D01*
X0000163089Y0002215632D01*
G37*
G36*
X0000456988Y0002291892D02*
G01*
X0000462866Y0002290723D01*
X0000469322Y0002288049D01*
X0000475132Y0002284167D01*
X0000480072Y0002279226D01*
X0000483954Y0002273416D01*
X0000486628Y0002266961D01*
X0000487992Y0002260107D01*
X0000487992Y0002253120D01*
X0000486628Y0002246267D01*
X0000483954Y0002239811D01*
X0000480072Y0002234001D01*
X0000475132Y0002229060D01*
X0000469322Y0002225178D01*
X0000462866Y0002222504D01*
X0000456988Y0002221335D01*
X0000456013Y0002221141D01*
X0000449025Y0002221141D01*
X0000448050Y0002221335D01*
X0000442172Y0002222504D01*
X0000435717Y0002225178D01*
X0000429907Y0002229060D01*
X0000424966Y0002234001D01*
X0000421084Y0002239811D01*
X0000418410Y0002246267D01*
X0000417047Y0002253120D01*
X0000417047Y0002260107D01*
X0000418410Y0002266961D01*
X0000421084Y0002273416D01*
X0000424966Y0002279226D01*
X0000429907Y0002284167D01*
X0000435717Y0002288049D01*
X0000442172Y0002290723D01*
X0000448050Y0002291892D01*
X0000449025Y0002292086D01*
X0000456013Y0002292086D01*
X0000456988Y0002291892D01*
X0000456988Y0002291892D01*
G37*
G36*
X0001056988Y0002291892D02*
G01*
X0001062866Y0002290723D01*
X0001069322Y0002288049D01*
X0001075132Y0002284167D01*
X0001080072Y0002279226D01*
X0001083954Y0002273416D01*
X0001086628Y0002266961D01*
X0001087992Y0002260107D01*
X0001087992Y0002253120D01*
X0001086628Y0002246267D01*
X0001083954Y0002239811D01*
X0001080072Y0002234001D01*
X0001075132Y0002229060D01*
X0001069322Y0002225178D01*
X0001062866Y0002222504D01*
X0001056988Y0002221335D01*
X0001056013Y0002221141D01*
X0001049025Y0002221141D01*
X0001048050Y0002221335D01*
X0001042172Y0002222504D01*
X0001035717Y0002225178D01*
X0001029907Y0002229060D01*
X0001024966Y0002234001D01*
X0001021084Y0002239811D01*
X0001018410Y0002246267D01*
X0001017047Y0002253120D01*
X0001017047Y0002260107D01*
X0001018410Y0002266961D01*
X0001021084Y0002273416D01*
X0001024966Y0002279226D01*
X0001029907Y0002284167D01*
X0001035717Y0002288049D01*
X0001042172Y0002290723D01*
X0001048050Y0002291892D01*
X0001049025Y0002292086D01*
X0001056013Y0002292086D01*
X0001056988Y0002291892D01*
X0001056988Y0002291892D01*
G37*
G36*
X0000163089Y0002294372D02*
G01*
X0000168112Y0002292292D01*
X0000172632Y0002289271D01*
X0000176476Y0002285427D01*
X0000179496Y0002280907D01*
X0000181577Y0002275884D01*
X0000182637Y0002270552D01*
X0000182637Y0002265116D01*
X0000181577Y0002259784D01*
X0000179496Y0002254761D01*
X0000176476Y0002250241D01*
X0000172632Y0002246397D01*
X0000168112Y0002243377D01*
X0000163089Y0002241296D01*
X0000157757Y0002240236D01*
X0000152321Y0002240236D01*
X0000146989Y0002241296D01*
X0000141966Y0002243377D01*
X0000137446Y0002246397D01*
X0000133602Y0002250241D01*
X0000130581Y0002254761D01*
X0000128501Y0002259784D01*
X0000127440Y0002265116D01*
X0000127440Y0002270552D01*
X0000128501Y0002275884D01*
X0000130581Y0002280907D01*
X0000133602Y0002285427D01*
X0000137446Y0002289271D01*
X0000141966Y0002292292D01*
X0000146989Y0002294372D01*
X0000152321Y0002295433D01*
X0000157757Y0002295433D01*
X0000163089Y0002294372D01*
X0000163089Y0002294372D01*
G37*
G36*
X0001056988Y0002391892D02*
G01*
X0001062866Y0002390723D01*
X0001069322Y0002388049D01*
X0001075132Y0002384167D01*
X0001080072Y0002379226D01*
X0001083954Y0002373416D01*
X0001086628Y0002366961D01*
X0001087992Y0002360107D01*
X0001087992Y0002353120D01*
X0001086628Y0002346267D01*
X0001083954Y0002339811D01*
X0001080072Y0002334001D01*
X0001075132Y0002329060D01*
X0001069322Y0002325178D01*
X0001062866Y0002322504D01*
X0001056988Y0002321335D01*
X0001056013Y0002321141D01*
X0001049025Y0002321141D01*
X0001048050Y0002321335D01*
X0001042172Y0002322504D01*
X0001035717Y0002325178D01*
X0001029907Y0002329060D01*
X0001024966Y0002334001D01*
X0001021084Y0002339811D01*
X0001018410Y0002346267D01*
X0001017047Y0002353120D01*
X0001017047Y0002360107D01*
X0001018410Y0002366961D01*
X0001021084Y0002373416D01*
X0001024966Y0002379226D01*
X0001029907Y0002384167D01*
X0001035717Y0002388049D01*
X0001042172Y0002390723D01*
X0001048050Y0002391892D01*
X0001049025Y0002392086D01*
X0001056013Y0002392086D01*
X0001056988Y0002391892D01*
X0001056988Y0002391892D01*
G37*
G36*
X0000456988Y0002391892D02*
G01*
X0000462866Y0002390723D01*
X0000469322Y0002388049D01*
X0000475132Y0002384167D01*
X0000480072Y0002379226D01*
X0000483954Y0002373416D01*
X0000486628Y0002366961D01*
X0000487992Y0002360107D01*
X0000487992Y0002353120D01*
X0000486628Y0002346267D01*
X0000483954Y0002339811D01*
X0000480072Y0002334001D01*
X0000475132Y0002329060D01*
X0000469322Y0002325178D01*
X0000462866Y0002322504D01*
X0000456988Y0002321335D01*
X0000456013Y0002321141D01*
X0000449025Y0002321141D01*
X0000448050Y0002321335D01*
X0000442172Y0002322504D01*
X0000435717Y0002325178D01*
X0000429907Y0002329060D01*
X0000424966Y0002334001D01*
X0000421084Y0002339811D01*
X0000418410Y0002346267D01*
X0000417047Y0002353120D01*
X0000417047Y0002360107D01*
X0000418410Y0002366961D01*
X0000421084Y0002373416D01*
X0000424966Y0002379226D01*
X0000429907Y0002384167D01*
X0000435717Y0002388049D01*
X0000442172Y0002390723D01*
X0000448050Y0002391892D01*
X0000449025Y0002392086D01*
X0000456013Y0002392086D01*
X0000456988Y0002391892D01*
X0000456988Y0002391892D01*
G37*
G36*
X0001056988Y0002491892D02*
G01*
X0001062866Y0002490723D01*
X0001069322Y0002488049D01*
X0001075132Y0002484167D01*
X0001080072Y0002479226D01*
X0001083954Y0002473416D01*
X0001086628Y0002466961D01*
X0001087992Y0002460107D01*
X0001087992Y0002453120D01*
X0001086628Y0002446267D01*
X0001083954Y0002439811D01*
X0001080072Y0002434001D01*
X0001075132Y0002429060D01*
X0001069322Y0002425178D01*
X0001062866Y0002422504D01*
X0001056988Y0002421335D01*
X0001056013Y0002421141D01*
X0001049025Y0002421141D01*
X0001048050Y0002421335D01*
X0001042172Y0002422504D01*
X0001035717Y0002425178D01*
X0001029907Y0002429060D01*
X0001024966Y0002434001D01*
X0001021084Y0002439811D01*
X0001018410Y0002446267D01*
X0001017047Y0002453120D01*
X0001017047Y0002460107D01*
X0001018410Y0002466961D01*
X0001021084Y0002473416D01*
X0001024966Y0002479226D01*
X0001029907Y0002484167D01*
X0001035717Y0002488049D01*
X0001042172Y0002490723D01*
X0001048050Y0002491892D01*
X0001049025Y0002492086D01*
X0001056013Y0002492086D01*
X0001056988Y0002491892D01*
X0001056988Y0002491892D01*
G37*
G36*
X0000456988Y0002491892D02*
G01*
X0000462866Y0002490723D01*
X0000469322Y0002488049D01*
X0000475132Y0002484167D01*
X0000480072Y0002479226D01*
X0000483954Y0002473416D01*
X0000486628Y0002466961D01*
X0000487992Y0002460107D01*
X0000487992Y0002453120D01*
X0000486628Y0002446267D01*
X0000483954Y0002439811D01*
X0000480072Y0002434001D01*
X0000475132Y0002429060D01*
X0000469322Y0002425178D01*
X0000462866Y0002422504D01*
X0000456988Y0002421335D01*
X0000456013Y0002421141D01*
X0000449025Y0002421141D01*
X0000448050Y0002421335D01*
X0000442172Y0002422504D01*
X0000435717Y0002425178D01*
X0000429907Y0002429060D01*
X0000424966Y0002434001D01*
X0000421084Y0002439811D01*
X0000418410Y0002446267D01*
X0000417047Y0002453120D01*
X0000417047Y0002460107D01*
X0000418410Y0002466961D01*
X0000421084Y0002473416D01*
X0000424966Y0002479226D01*
X0000429907Y0002484167D01*
X0000435717Y0002488049D01*
X0000442172Y0002490723D01*
X0000448050Y0002491892D01*
X0000449025Y0002492086D01*
X0000456013Y0002492086D01*
X0000456988Y0002491892D01*
X0000456988Y0002491892D01*
G37*
G36*
X0000143034Y0002584882D02*
G01*
X0000157013Y0002579092D01*
X0000157013Y0002579092D01*
X0000169594Y0002570686D01*
X0000180292Y0002559987D01*
X0000188698Y0002547407D01*
X0000188699Y0002547407D01*
X0000194489Y0002533428D01*
X0000197440Y0002518588D01*
X0000197440Y0002503458D01*
X0000194489Y0002488618D01*
X0000190598Y0002479226D01*
X0000188698Y0002474639D01*
X0000180292Y0002462059D01*
X0000169594Y0002451360D01*
X0000157013Y0002442954D01*
X0000157013Y0002442954D01*
X0000157013Y0002442954D01*
X0000143034Y0002437164D01*
X0000128195Y0002434212D01*
X0000113064Y0002434212D01*
X0000098224Y0002437164D01*
X0000084246Y0002442954D01*
X0000084246Y0002442954D01*
X0000084246Y0002442954D01*
X0000071665Y0002451360D01*
X0000060966Y0002462059D01*
X0000052560Y0002474639D01*
X0000050661Y0002479226D01*
X0000046770Y0002488618D01*
X0000043818Y0002503458D01*
X0000043818Y0002518588D01*
X0000046770Y0002533428D01*
X0000052560Y0002547407D01*
X0000052560Y0002547407D01*
X0000060966Y0002559987D01*
X0000071665Y0002570686D01*
X0000084246Y0002579092D01*
X0000084246Y0002579092D01*
X0000098224Y0002584882D01*
X0000113064Y0002587834D01*
X0000128195Y0002587834D01*
X0000143034Y0002584882D01*
X0000143034Y0002584882D01*
G37*
G36*
X0001406814Y0002584882D02*
G01*
X0001420793Y0002579092D01*
X0001420793Y0002579092D01*
X0001433373Y0002570686D01*
X0001444072Y0002559987D01*
X0001452478Y0002547407D01*
X0001452478Y0002547407D01*
X0001458268Y0002533428D01*
X0001461220Y0002518588D01*
X0001461220Y0002503458D01*
X0001458268Y0002488618D01*
X0001454378Y0002479226D01*
X0001452478Y0002474639D01*
X0001444072Y0002462059D01*
X0001433373Y0002451360D01*
X0001420793Y0002442954D01*
X0001420793Y0002442954D01*
X0001420793Y0002442954D01*
X0001406814Y0002437164D01*
X0001391974Y0002434212D01*
X0001376844Y0002434212D01*
X0001362004Y0002437164D01*
X0001348025Y0002442954D01*
X0001348025Y0002442954D01*
X0001348025Y0002442954D01*
X0001335445Y0002451360D01*
X0001324746Y0002462059D01*
X0001316340Y0002474639D01*
X0001314440Y0002479226D01*
X0001310550Y0002488618D01*
X0001307598Y0002503458D01*
X0001307598Y0002518588D01*
X0001310550Y0002533428D01*
X0001316340Y0002547407D01*
X0001316340Y0002547407D01*
X0001324746Y0002559987D01*
X0001335445Y0002570686D01*
X0001348025Y0002579092D01*
X0001348025Y0002579092D01*
X0001362004Y0002584882D01*
X0001376844Y0002587834D01*
X0001391974Y0002587834D01*
X0001406814Y0002584882D01*
X0001406814Y0002584882D01*
G37*
G04 next file*
G04 #@! TF.GenerationSoftware,KiCad,Pcbnew,(5.1.2)-1*
G04 #@! TF.CreationDate,2020-12-05T19:35:51+09:00*
G04 #@! TF.ProjectId,M5Atom_CAN,4d354174-6f6d-45f4-9341-4e2e6b696361,rev?*
G04 #@! TF.SameCoordinates,Original*
G04 #@! TF.FileFunction,Soldermask,Top*
G04 #@! TF.FilePolarity,Negative*
G04 Gerber Fmt 4.6, Leading zero omitted, Abs format (unit mm)*
G04 Created by KiCad (PCBNEW (5.1.2)-1) date 2020-12-05 19:35:51*
G04 APERTURE LIST*
G04 APERTURE END LIST*
D23*
G36*
X0001406814Y0002920315D02*
G01*
X0001420793Y0002914525D01*
X0001420793Y0002914525D01*
X0001433373Y0002906119D01*
X0001444072Y0002895420D01*
X0001449429Y0002887403D01*
X0001452478Y0002882840D01*
X0001458268Y0002868861D01*
X0001461220Y0002854021D01*
X0001461220Y0002838891D01*
X0001458268Y0002824051D01*
X0001452478Y0002810073D01*
X0001452478Y0002810073D01*
X0001444072Y0002797492D01*
X0001433373Y0002786793D01*
X0001420793Y0002778387D01*
X0001420793Y0002778387D01*
X0001420793Y0002778387D01*
X0001406814Y0002772597D01*
X0001391974Y0002769645D01*
X0001376844Y0002769645D01*
X0001362004Y0002772597D01*
X0001348025Y0002778387D01*
X0001348025Y0002778387D01*
X0001348025Y0002778387D01*
X0001335445Y0002786793D01*
X0001324746Y0002797492D01*
X0001316340Y0002810073D01*
X0001316340Y0002810073D01*
X0001310550Y0002824051D01*
X0001307598Y0002838891D01*
X0001307598Y0002854021D01*
X0001310550Y0002868861D01*
X0001316340Y0002882840D01*
X0001319389Y0002887403D01*
X0001324746Y0002895420D01*
X0001335445Y0002906119D01*
X0001348025Y0002914525D01*
X0001348025Y0002914525D01*
X0001362004Y0002920315D01*
X0001376844Y0002923267D01*
X0001391974Y0002923267D01*
X0001406814Y0002920315D01*
X0001406814Y0002920315D01*
G37*
G36*
X0000143034Y0002920315D02*
G01*
X0000157013Y0002914525D01*
X0000157013Y0002914525D01*
X0000169594Y0002906119D01*
X0000180292Y0002895420D01*
X0000185649Y0002887403D01*
X0000188699Y0002882840D01*
X0000194489Y0002868861D01*
X0000197440Y0002854021D01*
X0000197440Y0002838891D01*
X0000194489Y0002824051D01*
X0000188699Y0002810073D01*
X0000188698Y0002810073D01*
X0000180292Y0002797492D01*
X0000169594Y0002786793D01*
X0000157013Y0002778387D01*
X0000157013Y0002778387D01*
X0000157013Y0002778387D01*
X0000143034Y0002772597D01*
X0000128195Y0002769645D01*
X0000113064Y0002769645D01*
X0000098224Y0002772597D01*
X0000084246Y0002778387D01*
X0000084246Y0002778387D01*
X0000084246Y0002778387D01*
X0000071665Y0002786793D01*
X0000060966Y0002797492D01*
X0000052560Y0002810073D01*
X0000052560Y0002810073D01*
X0000046770Y0002824051D01*
X0000043818Y0002838891D01*
X0000043818Y0002854021D01*
X0000046770Y0002868861D01*
X0000052560Y0002882840D01*
X0000055610Y0002887403D01*
X0000060966Y0002895420D01*
X0000071665Y0002906119D01*
X0000084246Y0002914525D01*
X0000084246Y0002914525D01*
X0000098224Y0002920315D01*
X0000113064Y0002923267D01*
X0000128195Y0002923267D01*
X0000143034Y0002920315D01*
X0000143034Y0002920315D01*
G37*
G36*
X0000635118Y0002833267D02*
G01*
X0000579921Y0002833267D01*
X0000579921Y0002888464D01*
X0000635118Y0002888464D01*
X0000635118Y0002833267D01*
X0000635118Y0002833267D01*
G37*
G36*
X0000536829Y0002887403D02*
G01*
X0000541852Y0002885323D01*
X0000546372Y0002882303D01*
X0000550216Y0002878458D01*
X0000553236Y0002873938D01*
X0000555317Y0002868916D01*
X0000556377Y0002863584D01*
X0000556377Y0002858147D01*
X0000555317Y0002852815D01*
X0000553236Y0002847793D01*
X0000550216Y0002843273D01*
X0000546372Y0002839428D01*
X0000541852Y0002836408D01*
X0000536829Y0002834328D01*
X0000531497Y0002833267D01*
X0000526061Y0002833267D01*
X0000520729Y0002834328D01*
X0000515706Y0002836408D01*
X0000511186Y0002839428D01*
X0000507342Y0002843273D01*
X0000504322Y0002847793D01*
X0000502241Y0002852815D01*
X0000501181Y0002858147D01*
X0000501181Y0002863584D01*
X0000502241Y0002868916D01*
X0000504322Y0002873938D01*
X0000507342Y0002878458D01*
X0000511186Y0002882303D01*
X0000515706Y0002885323D01*
X0000520729Y0002887403D01*
X0000526061Y0002888464D01*
X0000531497Y0002888464D01*
X0000536829Y0002887403D01*
X0000536829Y0002887403D01*
G37*
G36*
X0000458089Y0002887403D02*
G01*
X0000463112Y0002885323D01*
X0000467632Y0002882303D01*
X0000471476Y0002878458D01*
X0000474496Y0002873938D01*
X0000476577Y0002868916D01*
X0000477637Y0002863584D01*
X0000477637Y0002858147D01*
X0000476577Y0002852815D01*
X0000474496Y0002847793D01*
X0000471476Y0002843273D01*
X0000467632Y0002839428D01*
X0000463112Y0002836408D01*
X0000458089Y0002834328D01*
X0000452757Y0002833267D01*
X0000447321Y0002833267D01*
X0000441989Y0002834328D01*
X0000436966Y0002836408D01*
X0000432446Y0002839428D01*
X0000428602Y0002843273D01*
X0000425581Y0002847793D01*
X0000423501Y0002852815D01*
X0000422440Y0002858147D01*
X0000422440Y0002863584D01*
X0000423501Y0002868916D01*
X0000425581Y0002873938D01*
X0000428602Y0002878458D01*
X0000432446Y0002882303D01*
X0000436966Y0002885323D01*
X0000441989Y0002887403D01*
X0000447321Y0002888464D01*
X0000452757Y0002888464D01*
X0000458089Y0002887403D01*
X0000458089Y0002887403D01*
G37*
G36*
X0000379349Y0002887403D02*
G01*
X0000384371Y0002885323D01*
X0000388892Y0002882303D01*
X0000392736Y0002878458D01*
X0000395756Y0002873938D01*
X0000397837Y0002868916D01*
X0000398897Y0002863584D01*
X0000398897Y0002858147D01*
X0000397837Y0002852815D01*
X0000395756Y0002847793D01*
X0000392736Y0002843273D01*
X0000388892Y0002839428D01*
X0000384371Y0002836408D01*
X0000379349Y0002834328D01*
X0000374017Y0002833267D01*
X0000368580Y0002833267D01*
X0000363249Y0002834328D01*
X0000358226Y0002836408D01*
X0000353706Y0002839428D01*
X0000349861Y0002843273D01*
X0000346841Y0002847793D01*
X0000344761Y0002852815D01*
X0000343700Y0002858147D01*
X0000343700Y0002863584D01*
X0000344761Y0002868916D01*
X0000346841Y0002873938D01*
X0000349861Y0002878458D01*
X0000353706Y0002882303D01*
X0000358226Y0002885323D01*
X0000363249Y0002887403D01*
X0000368580Y0002888464D01*
X0000374017Y0002888464D01*
X0000379349Y0002887403D01*
X0000379349Y0002887403D01*
G37*
G36*
X0001145118Y0002833267D02*
G01*
X0001089921Y0002833267D01*
X0001089921Y0002888464D01*
X0001145118Y0002888464D01*
X0001145118Y0002833267D01*
X0001145118Y0002833267D01*
G37*
G36*
X0001046829Y0002887403D02*
G01*
X0001051852Y0002885323D01*
X0001056372Y0002882303D01*
X0001060216Y0002878458D01*
X0001063236Y0002873938D01*
X0001065317Y0002868916D01*
X0001066377Y0002863584D01*
X0001066377Y0002858147D01*
X0001065317Y0002852815D01*
X0001063236Y0002847793D01*
X0001060216Y0002843273D01*
X0001056372Y0002839428D01*
X0001051852Y0002836408D01*
X0001046829Y0002834328D01*
X0001041497Y0002833267D01*
X0001036061Y0002833267D01*
X0001030729Y0002834328D01*
X0001025706Y0002836408D01*
X0001021186Y0002839428D01*
X0001017342Y0002843273D01*
X0001014322Y0002847793D01*
X0001012241Y0002852815D01*
X0001011181Y0002858147D01*
X0001011181Y0002863584D01*
X0001012241Y0002868916D01*
X0001014322Y0002873938D01*
X0001017342Y0002878458D01*
X0001021186Y0002882303D01*
X0001025706Y0002885323D01*
X0001030729Y0002887403D01*
X0001036061Y0002888464D01*
X0001041497Y0002888464D01*
X0001046829Y0002887403D01*
X0001046829Y0002887403D01*
G37*
G36*
X0000968089Y0002887403D02*
G01*
X0000973112Y0002885323D01*
X0000977632Y0002882303D01*
X0000981476Y0002878458D01*
X0000984496Y0002873938D01*
X0000986577Y0002868916D01*
X0000987637Y0002863584D01*
X0000987637Y0002858147D01*
X0000986577Y0002852815D01*
X0000984496Y0002847793D01*
X0000981476Y0002843273D01*
X0000977632Y0002839428D01*
X0000973112Y0002836408D01*
X0000968089Y0002834328D01*
X0000962757Y0002833267D01*
X0000957321Y0002833267D01*
X0000951989Y0002834328D01*
X0000946966Y0002836408D01*
X0000942446Y0002839428D01*
X0000938602Y0002843273D01*
X0000935581Y0002847793D01*
X0000933501Y0002852815D01*
X0000932440Y0002858147D01*
X0000932440Y0002863584D01*
X0000933501Y0002868916D01*
X0000935581Y0002873938D01*
X0000938602Y0002878458D01*
X0000942446Y0002882303D01*
X0000946966Y0002885323D01*
X0000951989Y0002887403D01*
X0000957321Y0002888464D01*
X0000962757Y0002888464D01*
X0000968089Y0002887403D01*
X0000968089Y0002887403D01*
G37*
G36*
X0000889349Y0002887403D02*
G01*
X0000894372Y0002885323D01*
X0000898892Y0002882303D01*
X0000902736Y0002878458D01*
X0000905756Y0002873938D01*
X0000907837Y0002868916D01*
X0000908897Y0002863584D01*
X0000908897Y0002858147D01*
X0000907837Y0002852815D01*
X0000905756Y0002847793D01*
X0000902736Y0002843273D01*
X0000898892Y0002839428D01*
X0000894372Y0002836408D01*
X0000889349Y0002834328D01*
X0000884017Y0002833267D01*
X0000878580Y0002833267D01*
X0000873249Y0002834328D01*
X0000868226Y0002836408D01*
X0000863706Y0002839428D01*
X0000859862Y0002843273D01*
X0000856841Y0002847793D01*
X0000854761Y0002852815D01*
X0000853700Y0002858147D01*
X0000853700Y0002863584D01*
X0000854761Y0002868916D01*
X0000856841Y0002873938D01*
X0000859862Y0002878458D01*
X0000863706Y0002882303D01*
X0000868226Y0002885323D01*
X0000873249Y0002887403D01*
X0000878580Y0002888464D01*
X0000884017Y0002888464D01*
X0000889349Y0002887403D01*
X0000889349Y0002887403D01*
G37*
G36*
X0000163089Y0003199884D02*
G01*
X0000168112Y0003197803D01*
X0000172632Y0003194783D01*
X0000176476Y0003190939D01*
X0000179496Y0003186419D01*
X0000181577Y0003181396D01*
X0000182637Y0003176064D01*
X0000182637Y0003170628D01*
X0000181577Y0003165296D01*
X0000179496Y0003160273D01*
X0000176476Y0003155753D01*
X0000172632Y0003151909D01*
X0000168112Y0003148889D01*
X0000163089Y0003146808D01*
X0000157757Y0003145747D01*
X0000152321Y0003145747D01*
X0000146989Y0003146808D01*
X0000141966Y0003148889D01*
X0000137446Y0003151909D01*
X0000133602Y0003155753D01*
X0000130581Y0003160273D01*
X0000128501Y0003165296D01*
X0000127440Y0003170628D01*
X0000127440Y0003176064D01*
X0000128501Y0003181396D01*
X0000130581Y0003186419D01*
X0000133602Y0003190939D01*
X0000137446Y0003194783D01*
X0000141966Y0003197803D01*
X0000146989Y0003199884D01*
X0000152321Y0003200944D01*
X0000157757Y0003200944D01*
X0000163089Y0003199884D01*
X0000163089Y0003199884D01*
G37*
G36*
X0000163089Y0003278624D02*
G01*
X0000168112Y0003276544D01*
X0000172632Y0003273523D01*
X0000176476Y0003269679D01*
X0000179496Y0003265159D01*
X0000181577Y0003260136D01*
X0000182637Y0003254804D01*
X0000182637Y0003249368D01*
X0000181577Y0003244036D01*
X0000179496Y0003239013D01*
X0000176476Y0003234493D01*
X0000172632Y0003230649D01*
X0000168112Y0003227629D01*
X0000163089Y0003225548D01*
X0000157757Y0003224488D01*
X0000152321Y0003224488D01*
X0000146989Y0003225548D01*
X0000141966Y0003227629D01*
X0000137446Y0003230649D01*
X0000133602Y0003234493D01*
X0000130581Y0003239013D01*
X0000128501Y0003244036D01*
X0000127440Y0003249368D01*
X0000127440Y0003254804D01*
X0000128501Y0003260136D01*
X0000130581Y0003265159D01*
X0000133602Y0003269679D01*
X0000137446Y0003273523D01*
X0000141966Y0003276544D01*
X0000146989Y0003278624D01*
X0000152321Y0003279685D01*
X0000157757Y0003279685D01*
X0000163089Y0003278624D01*
X0000163089Y0003278624D01*
G37*
G36*
X0001396867Y0003312577D02*
G01*
X0001399473Y0003312321D01*
X0001406160Y0003310293D01*
X0001412322Y0003306999D01*
X0001413089Y0003306369D01*
X0001417723Y0003302566D01*
X0001421001Y0003298572D01*
X0001422156Y0003297165D01*
X0001425450Y0003291002D01*
X0001427478Y0003284316D01*
X0001428163Y0003277362D01*
X0001427478Y0003270408D01*
X0001425450Y0003263721D01*
X0001422156Y0003257559D01*
X0001421001Y0003256152D01*
X0001417723Y0003252158D01*
X0001414324Y0003249368D01*
X0001412322Y0003247725D01*
X0001406160Y0003244431D01*
X0001399473Y0003242403D01*
X0001396867Y0003242146D01*
X0001394262Y0003241889D01*
X0001390777Y0003241889D01*
X0001388171Y0003242146D01*
X0001385565Y0003242403D01*
X0001378879Y0003244431D01*
X0001372716Y0003247725D01*
X0001370714Y0003249368D01*
X0001367315Y0003252158D01*
X0001364037Y0003256152D01*
X0001362882Y0003257559D01*
X0001359588Y0003263721D01*
X0001357560Y0003270408D01*
X0001356875Y0003277362D01*
X0001357560Y0003284316D01*
X0001359588Y0003291002D01*
X0001362882Y0003297165D01*
X0001364037Y0003298572D01*
X0001367315Y0003302566D01*
X0001371949Y0003306369D01*
X0001372716Y0003306999D01*
X0001378879Y0003310293D01*
X0001385565Y0003312321D01*
X0001388171Y0003312577D01*
X0001390777Y0003312834D01*
X0001394262Y0003312834D01*
X0001396867Y0003312577D01*
X0001396867Y0003312577D01*
G37*
G36*
X0000163089Y0003357364D02*
G01*
X0000168112Y0003355284D01*
X0000172632Y0003352263D01*
X0000176476Y0003348419D01*
X0000179496Y0003343899D01*
X0000181577Y0003338876D01*
X0000182637Y0003333545D01*
X0000182637Y0003328108D01*
X0000181577Y0003322776D01*
X0000179496Y0003317753D01*
X0000176476Y0003313233D01*
X0000172632Y0003309389D01*
X0000168112Y0003306369D01*
X0000163089Y0003304288D01*
X0000157757Y0003303228D01*
X0000152321Y0003303228D01*
X0000146989Y0003304288D01*
X0000141966Y0003306369D01*
X0000137446Y0003309389D01*
X0000133602Y0003313233D01*
X0000130581Y0003317753D01*
X0000128501Y0003322776D01*
X0000127440Y0003328108D01*
X0000127440Y0003333545D01*
X0000128501Y0003338876D01*
X0000130581Y0003343899D01*
X0000133602Y0003348419D01*
X0000137446Y0003352263D01*
X0000141966Y0003355284D01*
X0000146989Y0003357364D01*
X0000152321Y0003358425D01*
X0000157757Y0003358425D01*
X0000163089Y0003357364D01*
X0000163089Y0003357364D01*
G37*
G36*
X0000456988Y0003391105D02*
G01*
X0000462866Y0003389936D01*
X0000469322Y0003387262D01*
X0000475132Y0003383380D01*
X0000480072Y0003378439D01*
X0000483954Y0003372629D01*
X0000486628Y0003366173D01*
X0000487992Y0003359320D01*
X0000487992Y0003352333D01*
X0000486628Y0003345479D01*
X0000483954Y0003339024D01*
X0000480072Y0003333214D01*
X0000475132Y0003328273D01*
X0000469322Y0003324391D01*
X0000462866Y0003321717D01*
X0000456988Y0003320548D01*
X0000456013Y0003320354D01*
X0000449025Y0003320354D01*
X0000448050Y0003320548D01*
X0000442172Y0003321717D01*
X0000435717Y0003324391D01*
X0000429907Y0003328273D01*
X0000424966Y0003333214D01*
X0000421084Y0003339024D01*
X0000418410Y0003345479D01*
X0000417047Y0003352333D01*
X0000417047Y0003359320D01*
X0000418410Y0003366173D01*
X0000421084Y0003372629D01*
X0000424966Y0003378439D01*
X0000429907Y0003383380D01*
X0000435717Y0003387262D01*
X0000442172Y0003389936D01*
X0000448050Y0003391105D01*
X0000449025Y0003391299D01*
X0000456013Y0003391299D01*
X0000456988Y0003391105D01*
X0000456988Y0003391105D01*
G37*
G36*
X0001427992Y0003341889D02*
G01*
X0001357047Y0003341889D01*
X0001357047Y0003412834D01*
X0001427992Y0003412834D01*
X0001427992Y0003341889D01*
X0001427992Y0003341889D01*
G37*
G36*
X0000163089Y0003436104D02*
G01*
X0000168112Y0003434024D01*
X0000172632Y0003431004D01*
X0000176476Y0003427159D01*
X0000179496Y0003422639D01*
X0000181577Y0003417617D01*
X0000182637Y0003412285D01*
X0000182637Y0003406848D01*
X0000181577Y0003401516D01*
X0000179496Y0003396494D01*
X0000176476Y0003391974D01*
X0000172632Y0003388129D01*
X0000168112Y0003385109D01*
X0000163089Y0003383029D01*
X0000157757Y0003381968D01*
X0000152321Y0003381968D01*
X0000146989Y0003383029D01*
X0000141966Y0003385109D01*
X0000137446Y0003388129D01*
X0000133602Y0003391974D01*
X0000130581Y0003396494D01*
X0000128501Y0003401516D01*
X0000127440Y0003406848D01*
X0000127440Y0003412285D01*
X0000128501Y0003417617D01*
X0000130581Y0003422639D01*
X0000133602Y0003427159D01*
X0000137446Y0003431004D01*
X0000141966Y0003434024D01*
X0000146989Y0003436104D01*
X0000152321Y0003437165D01*
X0000157757Y0003437165D01*
X0000163089Y0003436104D01*
X0000163089Y0003436104D01*
G37*
G36*
X0001063304Y0003491378D02*
G01*
X0001070032Y0003488591D01*
X0001070032Y0003488591D01*
X0001072022Y0003487262D01*
X0001076088Y0003484545D01*
X0001081238Y0003479395D01*
X0001085284Y0003473339D01*
X0001088071Y0003466611D01*
X0001089492Y0003459468D01*
X0001089492Y0003452185D01*
X0001088071Y0003445042D01*
X0001085284Y0003438313D01*
X0001085284Y0003438313D01*
X0001081238Y0003432258D01*
X0001076088Y0003427108D01*
X0001070032Y0003423062D01*
X0001070032Y0003423062D01*
X0001070032Y0003423062D01*
X0001063304Y0003420275D01*
X0001056161Y0003418854D01*
X0001048878Y0003418854D01*
X0001041735Y0003420275D01*
X0001035006Y0003423062D01*
X0001035006Y0003423062D01*
X0001035006Y0003423062D01*
X0001028951Y0003427108D01*
X0001023801Y0003432258D01*
X0001019755Y0003438313D01*
X0001019755Y0003438313D01*
X0001016967Y0003445042D01*
X0001015547Y0003452185D01*
X0001015547Y0003459468D01*
X0001016967Y0003466611D01*
X0001019755Y0003473339D01*
X0001023801Y0003479395D01*
X0001028951Y0003484545D01*
X0001033017Y0003487262D01*
X0001035006Y0003488591D01*
X0001035006Y0003488591D01*
X0001041735Y0003491378D01*
X0001048878Y0003492799D01*
X0001056161Y0003492799D01*
X0001063304Y0003491378D01*
X0001063304Y0003491378D01*
G37*
G36*
X0000456988Y0003491105D02*
G01*
X0000462866Y0003489936D01*
X0000469322Y0003487262D01*
X0000475132Y0003483380D01*
X0000480072Y0003478439D01*
X0000483954Y0003472629D01*
X0000486628Y0003466173D01*
X0000487992Y0003459320D01*
X0000487992Y0003452333D01*
X0000486628Y0003445479D01*
X0000483954Y0003439024D01*
X0000480072Y0003433214D01*
X0000475132Y0003428273D01*
X0000469322Y0003424391D01*
X0000462866Y0003421717D01*
X0000456988Y0003420548D01*
X0000456013Y0003420354D01*
X0000449025Y0003420354D01*
X0000448050Y0003420548D01*
X0000442172Y0003421717D01*
X0000435717Y0003424391D01*
X0000429907Y0003428273D01*
X0000424966Y0003433214D01*
X0000421084Y0003439024D01*
X0000418410Y0003445479D01*
X0000417047Y0003452333D01*
X0000417047Y0003459320D01*
X0000418410Y0003466173D01*
X0000421084Y0003472629D01*
X0000424966Y0003478439D01*
X0000429907Y0003483380D01*
X0000435717Y0003487262D01*
X0000442172Y0003489936D01*
X0000448050Y0003491105D01*
X0000449025Y0003491299D01*
X0000456013Y0003491299D01*
X0000456988Y0003491105D01*
X0000456988Y0003491105D01*
G37*
G36*
X0000163089Y0003514844D02*
G01*
X0000168112Y0003512764D01*
X0000172632Y0003509744D01*
X0000176476Y0003505899D01*
X0000179496Y0003501379D01*
X0000181577Y0003496357D01*
X0000182637Y0003491025D01*
X0000182637Y0003485588D01*
X0000181577Y0003480256D01*
X0000179496Y0003475234D01*
X0000176476Y0003470714D01*
X0000172632Y0003466869D01*
X0000168112Y0003463849D01*
X0000163089Y0003461769D01*
X0000157757Y0003460708D01*
X0000152321Y0003460708D01*
X0000146989Y0003461769D01*
X0000141966Y0003463849D01*
X0000137446Y0003466869D01*
X0000133602Y0003470714D01*
X0000130581Y0003475234D01*
X0000128501Y0003480256D01*
X0000127440Y0003485588D01*
X0000127440Y0003491025D01*
X0000128501Y0003496357D01*
X0000130581Y0003501379D01*
X0000133602Y0003505899D01*
X0000137446Y0003509744D01*
X0000141966Y0003512764D01*
X0000146989Y0003514844D01*
X0000152321Y0003515905D01*
X0000157757Y0003515905D01*
X0000163089Y0003514844D01*
X0000163089Y0003514844D01*
G37*
G36*
X0000456988Y0003591105D02*
G01*
X0000462866Y0003589936D01*
X0000469322Y0003587262D01*
X0000475132Y0003583380D01*
X0000480072Y0003578439D01*
X0000483954Y0003572629D01*
X0000486628Y0003566173D01*
X0000487992Y0003559320D01*
X0000487992Y0003552333D01*
X0000486628Y0003545479D01*
X0000483954Y0003539024D01*
X0000480072Y0003533214D01*
X0000475132Y0003528273D01*
X0000469322Y0003524391D01*
X0000462866Y0003521717D01*
X0000456988Y0003520548D01*
X0000456013Y0003520354D01*
X0000449025Y0003520354D01*
X0000448050Y0003520548D01*
X0000442172Y0003521717D01*
X0000435717Y0003524391D01*
X0000429907Y0003528273D01*
X0000424966Y0003533214D01*
X0000421084Y0003539024D01*
X0000418410Y0003545479D01*
X0000417047Y0003552333D01*
X0000417047Y0003559320D01*
X0000418410Y0003566173D01*
X0000421084Y0003572629D01*
X0000424966Y0003578439D01*
X0000429907Y0003583380D01*
X0000435717Y0003587262D01*
X0000442172Y0003589936D01*
X0000448050Y0003591105D01*
X0000449025Y0003591299D01*
X0000456013Y0003591299D01*
X0000456988Y0003591105D01*
X0000456988Y0003591105D01*
G37*
G36*
X0001056988Y0003591105D02*
G01*
X0001062866Y0003589936D01*
X0001069322Y0003587262D01*
X0001075132Y0003583380D01*
X0001080072Y0003578439D01*
X0001083954Y0003572629D01*
X0001086628Y0003566173D01*
X0001087992Y0003559320D01*
X0001087992Y0003552333D01*
X0001086628Y0003545479D01*
X0001083954Y0003539024D01*
X0001080072Y0003533214D01*
X0001075132Y0003528273D01*
X0001069322Y0003524391D01*
X0001062866Y0003521717D01*
X0001056988Y0003520548D01*
X0001056013Y0003520354D01*
X0001049025Y0003520354D01*
X0001048050Y0003520548D01*
X0001042172Y0003521717D01*
X0001035717Y0003524391D01*
X0001029907Y0003528273D01*
X0001024966Y0003533214D01*
X0001021084Y0003539024D01*
X0001018410Y0003545479D01*
X0001017047Y0003552333D01*
X0001017047Y0003559320D01*
X0001018410Y0003566173D01*
X0001021084Y0003572629D01*
X0001024966Y0003578439D01*
X0001029907Y0003583380D01*
X0001035717Y0003587262D01*
X0001042172Y0003589936D01*
X0001048050Y0003591105D01*
X0001049025Y0003591299D01*
X0001056013Y0003591299D01*
X0001056988Y0003591105D01*
X0001056988Y0003591105D01*
G37*
G36*
X0000163089Y0003593585D02*
G01*
X0000168112Y0003591504D01*
X0000172632Y0003588484D01*
X0000176476Y0003584640D01*
X0000179496Y0003580120D01*
X0000181577Y0003575097D01*
X0000182637Y0003569765D01*
X0000182637Y0003564328D01*
X0000181577Y0003558997D01*
X0000179496Y0003553974D01*
X0000176476Y0003549454D01*
X0000172632Y0003545610D01*
X0000168112Y0003542589D01*
X0000163089Y0003540509D01*
X0000157757Y0003539448D01*
X0000152321Y0003539448D01*
X0000146989Y0003540509D01*
X0000141966Y0003542589D01*
X0000137446Y0003545610D01*
X0000133602Y0003549454D01*
X0000130581Y0003553974D01*
X0000128501Y0003558997D01*
X0000127440Y0003564328D01*
X0000127440Y0003569765D01*
X0000128501Y0003575097D01*
X0000130581Y0003580120D01*
X0000133602Y0003584640D01*
X0000137446Y0003588484D01*
X0000141966Y0003591504D01*
X0000146989Y0003593585D01*
X0000152321Y0003594645D01*
X0000157757Y0003594645D01*
X0000163089Y0003593585D01*
X0000163089Y0003593585D01*
G37*
G36*
X0001056988Y0003691105D02*
G01*
X0001062866Y0003689936D01*
X0001069322Y0003687262D01*
X0001075132Y0003683380D01*
X0001080072Y0003678439D01*
X0001083954Y0003672629D01*
X0001086628Y0003666173D01*
X0001087992Y0003659320D01*
X0001087992Y0003652333D01*
X0001086628Y0003645479D01*
X0001083954Y0003639024D01*
X0001080072Y0003633214D01*
X0001075132Y0003628273D01*
X0001069322Y0003624391D01*
X0001062866Y0003621717D01*
X0001056988Y0003620548D01*
X0001056013Y0003620354D01*
X0001049025Y0003620354D01*
X0001048050Y0003620548D01*
X0001042172Y0003621717D01*
X0001035717Y0003624391D01*
X0001029907Y0003628273D01*
X0001024966Y0003633214D01*
X0001021084Y0003639024D01*
X0001018410Y0003645479D01*
X0001017047Y0003652333D01*
X0001017047Y0003659320D01*
X0001018410Y0003666173D01*
X0001021084Y0003672629D01*
X0001024966Y0003678439D01*
X0001029907Y0003683380D01*
X0001035717Y0003687262D01*
X0001042172Y0003689936D01*
X0001048050Y0003691105D01*
X0001049025Y0003691299D01*
X0001056013Y0003691299D01*
X0001056988Y0003691105D01*
X0001056988Y0003691105D01*
G37*
G36*
X0000456988Y0003691105D02*
G01*
X0000462866Y0003689936D01*
X0000469322Y0003687262D01*
X0000475132Y0003683380D01*
X0000480072Y0003678439D01*
X0000483954Y0003672629D01*
X0000486628Y0003666173D01*
X0000487992Y0003659320D01*
X0000487992Y0003652333D01*
X0000486628Y0003645479D01*
X0000483954Y0003639024D01*
X0000480072Y0003633214D01*
X0000475132Y0003628273D01*
X0000469322Y0003624391D01*
X0000462866Y0003621717D01*
X0000456988Y0003620548D01*
X0000456013Y0003620354D01*
X0000449025Y0003620354D01*
X0000448050Y0003620548D01*
X0000442172Y0003621717D01*
X0000435717Y0003624391D01*
X0000429907Y0003628273D01*
X0000424966Y0003633214D01*
X0000421084Y0003639024D01*
X0000418410Y0003645479D01*
X0000417047Y0003652333D01*
X0000417047Y0003659320D01*
X0000418410Y0003666173D01*
X0000421084Y0003672629D01*
X0000424966Y0003678439D01*
X0000429907Y0003683380D01*
X0000435717Y0003687262D01*
X0000442172Y0003689936D01*
X0000448050Y0003691105D01*
X0000449025Y0003691299D01*
X0000456013Y0003691299D01*
X0000456988Y0003691105D01*
X0000456988Y0003691105D01*
G37*
G36*
X0001056988Y0003791105D02*
G01*
X0001062866Y0003789936D01*
X0001069322Y0003787262D01*
X0001075132Y0003783380D01*
X0001080072Y0003778439D01*
X0001083954Y0003772629D01*
X0001086628Y0003766173D01*
X0001087992Y0003759320D01*
X0001087992Y0003752333D01*
X0001086628Y0003745479D01*
X0001083954Y0003739024D01*
X0001080072Y0003733214D01*
X0001075132Y0003728273D01*
X0001069322Y0003724391D01*
X0001062866Y0003721717D01*
X0001056988Y0003720548D01*
X0001056013Y0003720354D01*
X0001049025Y0003720354D01*
X0001048050Y0003720548D01*
X0001042172Y0003721717D01*
X0001035717Y0003724391D01*
X0001029907Y0003728273D01*
X0001024966Y0003733214D01*
X0001021084Y0003739024D01*
X0001018410Y0003745479D01*
X0001017047Y0003752333D01*
X0001017047Y0003759320D01*
X0001018410Y0003766173D01*
X0001021084Y0003772629D01*
X0001024966Y0003778439D01*
X0001029907Y0003783380D01*
X0001035717Y0003787262D01*
X0001042172Y0003789936D01*
X0001048050Y0003791105D01*
X0001049025Y0003791299D01*
X0001056013Y0003791299D01*
X0001056988Y0003791105D01*
X0001056988Y0003791105D01*
G37*
G36*
X0000456988Y0003791105D02*
G01*
X0000462866Y0003789936D01*
X0000469322Y0003787262D01*
X0000475132Y0003783380D01*
X0000480072Y0003778439D01*
X0000483954Y0003772629D01*
X0000486628Y0003766173D01*
X0000487992Y0003759320D01*
X0000487992Y0003752333D01*
X0000486628Y0003745479D01*
X0000483954Y0003739024D01*
X0000480072Y0003733214D01*
X0000475132Y0003728273D01*
X0000469322Y0003724391D01*
X0000462866Y0003721717D01*
X0000456988Y0003720548D01*
X0000456013Y0003720354D01*
X0000449025Y0003720354D01*
X0000448050Y0003720548D01*
X0000442172Y0003721717D01*
X0000435717Y0003724391D01*
X0000429907Y0003728273D01*
X0000424966Y0003733214D01*
X0000421084Y0003739024D01*
X0000418410Y0003745479D01*
X0000417047Y0003752333D01*
X0000417047Y0003759320D01*
X0000418410Y0003766173D01*
X0000421084Y0003772629D01*
X0000424966Y0003778439D01*
X0000429907Y0003783380D01*
X0000435717Y0003787262D01*
X0000442172Y0003789936D01*
X0000448050Y0003791105D01*
X0000449025Y0003791299D01*
X0000456013Y0003791299D01*
X0000456988Y0003791105D01*
X0000456988Y0003791105D01*
G37*
G36*
X0000143034Y0003884095D02*
G01*
X0000157013Y0003878305D01*
X0000157013Y0003878305D01*
X0000169594Y0003869899D01*
X0000180292Y0003859200D01*
X0000188698Y0003846619D01*
X0000188699Y0003846619D01*
X0000194489Y0003832641D01*
X0000197440Y0003817801D01*
X0000197440Y0003802670D01*
X0000194489Y0003787831D01*
X0000190598Y0003778439D01*
X0000188698Y0003773852D01*
X0000180292Y0003761272D01*
X0000169594Y0003750573D01*
X0000157013Y0003742167D01*
X0000157013Y0003742167D01*
X0000157013Y0003742167D01*
X0000143034Y0003736376D01*
X0000128195Y0003733425D01*
X0000113064Y0003733425D01*
X0000098224Y0003736376D01*
X0000084246Y0003742167D01*
X0000084246Y0003742167D01*
X0000084246Y0003742167D01*
X0000071665Y0003750573D01*
X0000060966Y0003761272D01*
X0000052560Y0003773852D01*
X0000050661Y0003778439D01*
X0000046770Y0003787831D01*
X0000043818Y0003802670D01*
X0000043818Y0003817801D01*
X0000046770Y0003832641D01*
X0000052560Y0003846619D01*
X0000052560Y0003846619D01*
X0000060966Y0003859200D01*
X0000071665Y0003869899D01*
X0000084246Y0003878305D01*
X0000084246Y0003878305D01*
X0000098224Y0003884095D01*
X0000113064Y0003887047D01*
X0000128195Y0003887047D01*
X0000143034Y0003884095D01*
X0000143034Y0003884095D01*
G37*
G36*
X0001406814Y0003884095D02*
G01*
X0001420793Y0003878305D01*
X0001420793Y0003878305D01*
X0001433373Y0003869899D01*
X0001444072Y0003859200D01*
X0001452478Y0003846619D01*
X0001452478Y0003846619D01*
X0001458268Y0003832641D01*
X0001461220Y0003817801D01*
X0001461220Y0003802670D01*
X0001458268Y0003787831D01*
X0001454378Y0003778439D01*
X0001452478Y0003773852D01*
X0001444072Y0003761272D01*
X0001433373Y0003750573D01*
X0001420793Y0003742167D01*
X0001420793Y0003742167D01*
X0001420793Y0003742167D01*
X0001406814Y0003736376D01*
X0001391974Y0003733425D01*
X0001376844Y0003733425D01*
X0001362004Y0003736376D01*
X0001348025Y0003742167D01*
X0001348025Y0003742167D01*
X0001348025Y0003742167D01*
X0001335445Y0003750573D01*
X0001324746Y0003761272D01*
X0001316340Y0003773852D01*
X0001314440Y0003778439D01*
X0001310550Y0003787831D01*
X0001307598Y0003802670D01*
X0001307598Y0003817801D01*
X0001310550Y0003832641D01*
X0001316340Y0003846619D01*
X0001316340Y0003846619D01*
X0001324746Y0003859200D01*
X0001335445Y0003869899D01*
X0001348025Y0003878305D01*
X0001348025Y0003878305D01*
X0001362004Y0003884095D01*
X0001376844Y0003887047D01*
X0001391974Y0003887047D01*
X0001406814Y0003884095D01*
X0001406814Y0003884095D01*
G37*
G04 next file*
G04 #@! TF.GenerationSoftware,KiCad,Pcbnew,(5.1.2)-1*
G04 #@! TF.CreationDate,2020-12-05T19:35:51+09:00*
G04 #@! TF.ProjectId,M5Atom_CAN,4d354174-6f6d-45f4-9341-4e2e6b696361,rev?*
G04 #@! TF.SameCoordinates,Original*
G04 #@! TF.FileFunction,Soldermask,Top*
G04 #@! TF.FilePolarity,Negative*
G04 Gerber Fmt 4.6, Leading zero omitted, Abs format (unit mm)*
G04 Created by KiCad (PCBNEW (5.1.2)-1) date 2020-12-05 19:35:51*
G04 APERTURE LIST*
G04 APERTURE END LIST*
D24*
G36*
X0003020987Y0001621103D02*
G01*
X0003034966Y0001615313D01*
X0003034966Y0001615313D01*
X0003047546Y0001606907D01*
X0003058245Y0001596208D01*
X0003063602Y0001588191D01*
X0003066651Y0001583627D01*
X0003072441Y0001569649D01*
X0003075393Y0001554809D01*
X0003075393Y0001539678D01*
X0003072441Y0001524839D01*
X0003066651Y0001510860D01*
X0003066651Y0001510860D01*
X0003058245Y0001498279D01*
X0003047546Y0001487581D01*
X0003034966Y0001479175D01*
X0003034966Y0001479175D01*
X0003034966Y0001479175D01*
X0003020987Y0001473384D01*
X0003006147Y0001470433D01*
X0002991017Y0001470433D01*
X0002976177Y0001473384D01*
X0002962199Y0001479175D01*
X0002962199Y0001479175D01*
X0002962199Y0001479175D01*
X0002949618Y0001487581D01*
X0002938919Y0001498279D01*
X0002930513Y0001510860D01*
X0002930513Y0001510860D01*
X0002924723Y0001524839D01*
X0002921771Y0001539678D01*
X0002921771Y0001554809D01*
X0002924723Y0001569649D01*
X0002930513Y0001583627D01*
X0002933562Y0001588191D01*
X0002938919Y0001596208D01*
X0002949618Y0001606907D01*
X0002962199Y0001615313D01*
X0002962199Y0001615313D01*
X0002976177Y0001621103D01*
X0002991017Y0001624055D01*
X0003006147Y0001624055D01*
X0003020987Y0001621103D01*
X0003020987Y0001621103D01*
G37*
G36*
X0001757208Y0001621103D02*
G01*
X0001771186Y0001615313D01*
X0001771186Y0001615313D01*
X0001783767Y0001606907D01*
X0001794466Y0001596208D01*
X0001799822Y0001588191D01*
X0001802872Y0001583627D01*
X0001808662Y0001569649D01*
X0001811614Y0001554809D01*
X0001811614Y0001539678D01*
X0001808662Y0001524839D01*
X0001802872Y0001510860D01*
X0001802872Y0001510860D01*
X0001794466Y0001498279D01*
X0001783767Y0001487581D01*
X0001771186Y0001479175D01*
X0001771186Y0001479175D01*
X0001771186Y0001479175D01*
X0001757208Y0001473384D01*
X0001742368Y0001470433D01*
X0001727237Y0001470433D01*
X0001712398Y0001473384D01*
X0001698419Y0001479175D01*
X0001698419Y0001479175D01*
X0001698419Y0001479175D01*
X0001685838Y0001487581D01*
X0001675140Y0001498279D01*
X0001666734Y0001510860D01*
X0001666734Y0001510860D01*
X0001660943Y0001524839D01*
X0001657992Y0001539678D01*
X0001657992Y0001554809D01*
X0001660943Y0001569649D01*
X0001666734Y0001583627D01*
X0001669783Y0001588191D01*
X0001675140Y0001596208D01*
X0001685838Y0001606907D01*
X0001698419Y0001615313D01*
X0001698419Y0001615313D01*
X0001712398Y0001621103D01*
X0001727237Y0001624055D01*
X0001742368Y0001624055D01*
X0001757208Y0001621103D01*
X0001757208Y0001621103D01*
G37*
G36*
X0002249291Y0001534055D02*
G01*
X0002194094Y0001534055D01*
X0002194094Y0001589251D01*
X0002249291Y0001589251D01*
X0002249291Y0001534055D01*
X0002249291Y0001534055D01*
G37*
G36*
X0002151002Y0001588191D02*
G01*
X0002156025Y0001586110D01*
X0002160545Y0001583090D01*
X0002164389Y0001579246D01*
X0002167410Y0001574726D01*
X0002169490Y0001569703D01*
X0002170551Y0001564371D01*
X0002170551Y0001558935D01*
X0002169490Y0001553603D01*
X0002167410Y0001548580D01*
X0002164389Y0001544060D01*
X0002160545Y0001540216D01*
X0002156025Y0001537196D01*
X0002151002Y0001535115D01*
X0002145671Y0001534055D01*
X0002140234Y0001534055D01*
X0002134902Y0001535115D01*
X0002129879Y0001537196D01*
X0002125359Y0001540216D01*
X0002121515Y0001544060D01*
X0002118495Y0001548580D01*
X0002116414Y0001553603D01*
X0002115354Y0001558935D01*
X0002115354Y0001564371D01*
X0002116414Y0001569703D01*
X0002118495Y0001574726D01*
X0002121515Y0001579246D01*
X0002125359Y0001583090D01*
X0002129879Y0001586110D01*
X0002134902Y0001588191D01*
X0002140234Y0001589251D01*
X0002145671Y0001589251D01*
X0002151002Y0001588191D01*
X0002151002Y0001588191D01*
G37*
G36*
X0002072262Y0001588191D02*
G01*
X0002077285Y0001586110D01*
X0002081805Y0001583090D01*
X0002085649Y0001579246D01*
X0002088670Y0001574726D01*
X0002090750Y0001569703D01*
X0002091811Y0001564371D01*
X0002091811Y0001558935D01*
X0002090750Y0001553603D01*
X0002088670Y0001548580D01*
X0002085649Y0001544060D01*
X0002081805Y0001540216D01*
X0002077285Y0001537196D01*
X0002072262Y0001535115D01*
X0002066930Y0001534055D01*
X0002061494Y0001534055D01*
X0002056162Y0001535115D01*
X0002051139Y0001537196D01*
X0002046619Y0001540216D01*
X0002042775Y0001544060D01*
X0002039755Y0001548580D01*
X0002037674Y0001553603D01*
X0002036614Y0001558935D01*
X0002036614Y0001564371D01*
X0002037674Y0001569703D01*
X0002039755Y0001574726D01*
X0002042775Y0001579246D01*
X0002046619Y0001583090D01*
X0002051139Y0001586110D01*
X0002056162Y0001588191D01*
X0002061494Y0001589251D01*
X0002066930Y0001589251D01*
X0002072262Y0001588191D01*
X0002072262Y0001588191D01*
G37*
G36*
X0001993522Y0001588191D02*
G01*
X0001998545Y0001586110D01*
X0002003065Y0001583090D01*
X0002006909Y0001579246D01*
X0002009929Y0001574726D01*
X0002012010Y0001569703D01*
X0002013070Y0001564371D01*
X0002013070Y0001558935D01*
X0002012010Y0001553603D01*
X0002009929Y0001548580D01*
X0002006909Y0001544060D01*
X0002003065Y0001540216D01*
X0001998545Y0001537196D01*
X0001993522Y0001535115D01*
X0001988190Y0001534055D01*
X0001982754Y0001534055D01*
X0001977422Y0001535115D01*
X0001972399Y0001537196D01*
X0001967879Y0001540216D01*
X0001964035Y0001544060D01*
X0001961015Y0001548580D01*
X0001958934Y0001553603D01*
X0001957873Y0001558935D01*
X0001957873Y0001564371D01*
X0001958934Y0001569703D01*
X0001961015Y0001574726D01*
X0001964035Y0001579246D01*
X0001967879Y0001583090D01*
X0001972399Y0001586110D01*
X0001977422Y0001588191D01*
X0001982754Y0001589251D01*
X0001988190Y0001589251D01*
X0001993522Y0001588191D01*
X0001993522Y0001588191D01*
G37*
G36*
X0002759291Y0001534055D02*
G01*
X0002704094Y0001534055D01*
X0002704094Y0001589251D01*
X0002759291Y0001589251D01*
X0002759291Y0001534055D01*
X0002759291Y0001534055D01*
G37*
G36*
X0002661002Y0001588191D02*
G01*
X0002666025Y0001586110D01*
X0002670545Y0001583090D01*
X0002674389Y0001579246D01*
X0002677410Y0001574726D01*
X0002679490Y0001569703D01*
X0002680551Y0001564371D01*
X0002680551Y0001558935D01*
X0002679490Y0001553603D01*
X0002677410Y0001548580D01*
X0002674389Y0001544060D01*
X0002670545Y0001540216D01*
X0002666025Y0001537196D01*
X0002661002Y0001535115D01*
X0002655671Y0001534055D01*
X0002650234Y0001534055D01*
X0002644902Y0001535115D01*
X0002639879Y0001537196D01*
X0002635359Y0001540216D01*
X0002631515Y0001544060D01*
X0002628495Y0001548580D01*
X0002626414Y0001553603D01*
X0002625354Y0001558935D01*
X0002625354Y0001564371D01*
X0002626414Y0001569703D01*
X0002628495Y0001574726D01*
X0002631515Y0001579246D01*
X0002635359Y0001583090D01*
X0002639879Y0001586110D01*
X0002644902Y0001588191D01*
X0002650234Y0001589251D01*
X0002655671Y0001589251D01*
X0002661002Y0001588191D01*
X0002661002Y0001588191D01*
G37*
G36*
X0002582262Y0001588191D02*
G01*
X0002587285Y0001586110D01*
X0002591805Y0001583090D01*
X0002595649Y0001579246D01*
X0002598669Y0001574726D01*
X0002600750Y0001569703D01*
X0002601811Y0001564371D01*
X0002601811Y0001558935D01*
X0002600750Y0001553603D01*
X0002598669Y0001548580D01*
X0002595649Y0001544060D01*
X0002591805Y0001540216D01*
X0002587285Y0001537196D01*
X0002582262Y0001535115D01*
X0002576930Y0001534055D01*
X0002571494Y0001534055D01*
X0002566162Y0001535115D01*
X0002561139Y0001537196D01*
X0002556619Y0001540216D01*
X0002552775Y0001544060D01*
X0002549755Y0001548580D01*
X0002547674Y0001553603D01*
X0002546614Y0001558935D01*
X0002546614Y0001564371D01*
X0002547674Y0001569703D01*
X0002549755Y0001574726D01*
X0002552775Y0001579246D01*
X0002556619Y0001583090D01*
X0002561139Y0001586110D01*
X0002566162Y0001588191D01*
X0002571494Y0001589251D01*
X0002576930Y0001589251D01*
X0002582262Y0001588191D01*
X0002582262Y0001588191D01*
G37*
G36*
X0002503522Y0001588191D02*
G01*
X0002508545Y0001586110D01*
X0002513065Y0001583090D01*
X0002516909Y0001579246D01*
X0002519929Y0001574726D01*
X0002522010Y0001569703D01*
X0002523070Y0001564371D01*
X0002523070Y0001558935D01*
X0002522010Y0001553603D01*
X0002519929Y0001548580D01*
X0002516909Y0001544060D01*
X0002513065Y0001540216D01*
X0002508545Y0001537196D01*
X0002503522Y0001535115D01*
X0002498190Y0001534055D01*
X0002492754Y0001534055D01*
X0002487422Y0001535115D01*
X0002482399Y0001537196D01*
X0002477879Y0001540216D01*
X0002474035Y0001544060D01*
X0002471015Y0001548580D01*
X0002468934Y0001553603D01*
X0002467874Y0001558935D01*
X0002467874Y0001564371D01*
X0002468934Y0001569703D01*
X0002471015Y0001574726D01*
X0002474035Y0001579246D01*
X0002477879Y0001583090D01*
X0002482399Y0001586110D01*
X0002487422Y0001588191D01*
X0002492754Y0001589251D01*
X0002498190Y0001589251D01*
X0002503522Y0001588191D01*
X0002503522Y0001588191D01*
G37*
G36*
X0001777262Y0001900671D02*
G01*
X0001782285Y0001898591D01*
X0001786805Y0001895571D01*
X0001790649Y0001891726D01*
X0001793669Y0001887206D01*
X0001795750Y0001882183D01*
X0001796811Y0001876852D01*
X0001796811Y0001871415D01*
X0001795750Y0001866083D01*
X0001793669Y0001861061D01*
X0001790649Y0001856540D01*
X0001786805Y0001852696D01*
X0001782285Y0001849676D01*
X0001777262Y0001847595D01*
X0001771930Y0001846535D01*
X0001766494Y0001846535D01*
X0001761162Y0001847595D01*
X0001756139Y0001849676D01*
X0001751619Y0001852696D01*
X0001747775Y0001856540D01*
X0001744755Y0001861061D01*
X0001742674Y0001866083D01*
X0001741614Y0001871415D01*
X0001741614Y0001876852D01*
X0001742674Y0001882183D01*
X0001744755Y0001887206D01*
X0001747775Y0001891726D01*
X0001751619Y0001895571D01*
X0001756139Y0001898591D01*
X0001761162Y0001900671D01*
X0001766494Y0001901732D01*
X0001771930Y0001901732D01*
X0001777262Y0001900671D01*
X0001777262Y0001900671D01*
G37*
G36*
X0001777262Y0001979411D02*
G01*
X0001782285Y0001977331D01*
X0001786805Y0001974311D01*
X0001790649Y0001970466D01*
X0001793669Y0001965946D01*
X0001795750Y0001960924D01*
X0001796811Y0001955592D01*
X0001796811Y0001950155D01*
X0001795750Y0001944823D01*
X0001793669Y0001939801D01*
X0001790649Y0001935281D01*
X0001786805Y0001931436D01*
X0001782285Y0001928416D01*
X0001777262Y0001926336D01*
X0001771930Y0001925275D01*
X0001766494Y0001925275D01*
X0001761162Y0001926336D01*
X0001756139Y0001928416D01*
X0001751619Y0001931436D01*
X0001747775Y0001935281D01*
X0001744755Y0001939801D01*
X0001742674Y0001944823D01*
X0001741614Y0001950155D01*
X0001741614Y0001955592D01*
X0001742674Y0001960924D01*
X0001744755Y0001965946D01*
X0001747775Y0001970466D01*
X0001751619Y0001974311D01*
X0001756139Y0001977331D01*
X0001761162Y0001979411D01*
X0001766494Y0001980472D01*
X0001771930Y0001980472D01*
X0001777262Y0001979411D01*
X0001777262Y0001979411D01*
G37*
G36*
X0003011041Y0002013365D02*
G01*
X0003013646Y0002013108D01*
X0003020333Y0002011080D01*
X0003026495Y0002007786D01*
X0003027263Y0002007156D01*
X0003031897Y0002003353D01*
X0003035175Y0001999359D01*
X0003036329Y0001997952D01*
X0003039623Y0001991790D01*
X0003041652Y0001985103D01*
X0003042336Y0001978149D01*
X0003041652Y0001971195D01*
X0003039623Y0001964509D01*
X0003036329Y0001958346D01*
X0003035175Y0001956939D01*
X0003031897Y0001952945D01*
X0003028497Y0001950155D01*
X0003026495Y0001948512D01*
X0003020333Y0001945218D01*
X0003013646Y0001943190D01*
X0003011041Y0001942933D01*
X0003008435Y0001942677D01*
X0003004950Y0001942677D01*
X0003002344Y0001942933D01*
X0002999739Y0001943190D01*
X0002993052Y0001945218D01*
X0002986890Y0001948512D01*
X0002984887Y0001950155D01*
X0002981488Y0001952945D01*
X0002978210Y0001956939D01*
X0002977055Y0001958346D01*
X0002973762Y0001964509D01*
X0002971733Y0001971195D01*
X0002971048Y0001978149D01*
X0002971733Y0001985103D01*
X0002973762Y0001991790D01*
X0002977055Y0001997952D01*
X0002978210Y0001999359D01*
X0002981488Y0002003353D01*
X0002986122Y0002007156D01*
X0002986890Y0002007786D01*
X0002993052Y0002011080D01*
X0002999739Y0002013108D01*
X0003002344Y0002013365D01*
X0003004950Y0002013622D01*
X0003008435Y0002013622D01*
X0003011041Y0002013365D01*
X0003011041Y0002013365D01*
G37*
G36*
X0001777262Y0002058152D02*
G01*
X0001782285Y0002056071D01*
X0001786805Y0002053051D01*
X0001790649Y0002049207D01*
X0001793669Y0002044686D01*
X0001795750Y0002039664D01*
X0001796811Y0002034332D01*
X0001796811Y0002028895D01*
X0001795750Y0002023564D01*
X0001793669Y0002018541D01*
X0001790649Y0002014021D01*
X0001786805Y0002010176D01*
X0001782285Y0002007156D01*
X0001777262Y0002005076D01*
X0001771930Y0002004015D01*
X0001766494Y0002004015D01*
X0001761162Y0002005076D01*
X0001756139Y0002007156D01*
X0001751619Y0002010176D01*
X0001747775Y0002014021D01*
X0001744755Y0002018541D01*
X0001742674Y0002023564D01*
X0001741614Y0002028895D01*
X0001741614Y0002034332D01*
X0001742674Y0002039664D01*
X0001744755Y0002044686D01*
X0001747775Y0002049207D01*
X0001751619Y0002053051D01*
X0001756139Y0002056071D01*
X0001761162Y0002058152D01*
X0001766494Y0002059212D01*
X0001771930Y0002059212D01*
X0001777262Y0002058152D01*
X0001777262Y0002058152D01*
G37*
G36*
X0002071161Y0002091892D02*
G01*
X0002077039Y0002090723D01*
X0002083495Y0002088049D01*
X0002089305Y0002084167D01*
X0002094246Y0002079226D01*
X0002098128Y0002073416D01*
X0002100802Y0002066961D01*
X0002102165Y0002060107D01*
X0002102165Y0002053120D01*
X0002100802Y0002046267D01*
X0002098128Y0002039811D01*
X0002094246Y0002034001D01*
X0002089305Y0002029060D01*
X0002083495Y0002025178D01*
X0002077039Y0002022504D01*
X0002071161Y0002021335D01*
X0002070186Y0002021141D01*
X0002063199Y0002021141D01*
X0002062223Y0002021335D01*
X0002056345Y0002022504D01*
X0002049890Y0002025178D01*
X0002044080Y0002029060D01*
X0002039139Y0002034001D01*
X0002035257Y0002039811D01*
X0002032583Y0002046267D01*
X0002031220Y0002053120D01*
X0002031220Y0002060107D01*
X0002032583Y0002066961D01*
X0002035257Y0002073416D01*
X0002039139Y0002079226D01*
X0002044080Y0002084167D01*
X0002049890Y0002088049D01*
X0002056345Y0002090723D01*
X0002062223Y0002091892D01*
X0002063199Y0002092086D01*
X0002070186Y0002092086D01*
X0002071161Y0002091892D01*
X0002071161Y0002091892D01*
G37*
G36*
X0003042165Y0002042677D02*
G01*
X0002971220Y0002042677D01*
X0002971220Y0002113622D01*
X0003042165Y0002113622D01*
X0003042165Y0002042677D01*
X0003042165Y0002042677D01*
G37*
G36*
X0001777262Y0002136892D02*
G01*
X0001782285Y0002134811D01*
X0001786805Y0002131791D01*
X0001790649Y0002127947D01*
X0001793669Y0002123427D01*
X0001795750Y0002118404D01*
X0001796811Y0002113072D01*
X0001796811Y0002107636D01*
X0001795750Y0002102304D01*
X0001793669Y0002097281D01*
X0001790649Y0002092761D01*
X0001786805Y0002088917D01*
X0001782285Y0002085896D01*
X0001777262Y0002083816D01*
X0001771930Y0002082755D01*
X0001766494Y0002082755D01*
X0001761162Y0002083816D01*
X0001756139Y0002085896D01*
X0001751619Y0002088917D01*
X0001747775Y0002092761D01*
X0001744755Y0002097281D01*
X0001742674Y0002102304D01*
X0001741614Y0002107636D01*
X0001741614Y0002113072D01*
X0001742674Y0002118404D01*
X0001744755Y0002123427D01*
X0001747775Y0002127947D01*
X0001751619Y0002131791D01*
X0001756139Y0002134811D01*
X0001761162Y0002136892D01*
X0001766494Y0002137952D01*
X0001771930Y0002137952D01*
X0001777262Y0002136892D01*
X0001777262Y0002136892D01*
G37*
G36*
X0002677477Y0002192165D02*
G01*
X0002684205Y0002189378D01*
X0002684205Y0002189378D01*
X0002686195Y0002188049D01*
X0002690261Y0002185332D01*
X0002695411Y0002180182D01*
X0002699457Y0002174127D01*
X0002702244Y0002167398D01*
X0002703665Y0002160255D01*
X0002703665Y0002152972D01*
X0002702244Y0002145829D01*
X0002699457Y0002139101D01*
X0002699457Y0002139101D01*
X0002695411Y0002133045D01*
X0002690261Y0002127895D01*
X0002684205Y0002123849D01*
X0002684205Y0002123849D01*
X0002684205Y0002123849D01*
X0002677477Y0002121062D01*
X0002670334Y0002119641D01*
X0002663051Y0002119641D01*
X0002655908Y0002121062D01*
X0002649179Y0002123849D01*
X0002649179Y0002123849D01*
X0002649179Y0002123849D01*
X0002643124Y0002127895D01*
X0002637974Y0002133045D01*
X0002633928Y0002139101D01*
X0002633928Y0002139101D01*
X0002631141Y0002145829D01*
X0002629720Y0002152972D01*
X0002629720Y0002160255D01*
X0002631141Y0002167398D01*
X0002633928Y0002174127D01*
X0002637974Y0002180182D01*
X0002643124Y0002185332D01*
X0002647190Y0002188049D01*
X0002649179Y0002189378D01*
X0002649179Y0002189378D01*
X0002655908Y0002192165D01*
X0002663051Y0002193586D01*
X0002670334Y0002193586D01*
X0002677477Y0002192165D01*
X0002677477Y0002192165D01*
G37*
G36*
X0002071161Y0002191892D02*
G01*
X0002077039Y0002190723D01*
X0002083495Y0002188049D01*
X0002089305Y0002184167D01*
X0002094246Y0002179226D01*
X0002098128Y0002173416D01*
X0002100802Y0002166961D01*
X0002102165Y0002160107D01*
X0002102165Y0002153120D01*
X0002100802Y0002146267D01*
X0002098128Y0002139811D01*
X0002094246Y0002134001D01*
X0002089305Y0002129060D01*
X0002083495Y0002125178D01*
X0002077039Y0002122504D01*
X0002071161Y0002121335D01*
X0002070186Y0002121141D01*
X0002063199Y0002121141D01*
X0002062223Y0002121335D01*
X0002056345Y0002122504D01*
X0002049890Y0002125178D01*
X0002044080Y0002129060D01*
X0002039139Y0002134001D01*
X0002035257Y0002139811D01*
X0002032583Y0002146267D01*
X0002031220Y0002153120D01*
X0002031220Y0002160107D01*
X0002032583Y0002166961D01*
X0002035257Y0002173416D01*
X0002039139Y0002179226D01*
X0002044080Y0002184167D01*
X0002049890Y0002188049D01*
X0002056345Y0002190723D01*
X0002062223Y0002191892D01*
X0002063199Y0002192086D01*
X0002070186Y0002192086D01*
X0002071161Y0002191892D01*
X0002071161Y0002191892D01*
G37*
G36*
X0001777262Y0002215632D02*
G01*
X0001782285Y0002213551D01*
X0001786805Y0002210531D01*
X0001790649Y0002206687D01*
X0001793669Y0002202167D01*
X0001795750Y0002197144D01*
X0001796811Y0002191812D01*
X0001796811Y0002186376D01*
X0001795750Y0002181044D01*
X0001793669Y0002176021D01*
X0001790649Y0002171501D01*
X0001786805Y0002167657D01*
X0001782285Y0002164637D01*
X0001777262Y0002162556D01*
X0001771930Y0002161496D01*
X0001766494Y0002161496D01*
X0001761162Y0002162556D01*
X0001756139Y0002164637D01*
X0001751619Y0002167657D01*
X0001747775Y0002171501D01*
X0001744755Y0002176021D01*
X0001742674Y0002181044D01*
X0001741614Y0002186376D01*
X0001741614Y0002191812D01*
X0001742674Y0002197144D01*
X0001744755Y0002202167D01*
X0001747775Y0002206687D01*
X0001751619Y0002210531D01*
X0001756139Y0002213551D01*
X0001761162Y0002215632D01*
X0001766494Y0002216692D01*
X0001771930Y0002216692D01*
X0001777262Y0002215632D01*
X0001777262Y0002215632D01*
G37*
G36*
X0002071161Y0002291892D02*
G01*
X0002077039Y0002290723D01*
X0002083495Y0002288049D01*
X0002089305Y0002284167D01*
X0002094246Y0002279226D01*
X0002098128Y0002273416D01*
X0002100802Y0002266961D01*
X0002102165Y0002260107D01*
X0002102165Y0002253120D01*
X0002100802Y0002246267D01*
X0002098128Y0002239811D01*
X0002094246Y0002234001D01*
X0002089305Y0002229060D01*
X0002083495Y0002225178D01*
X0002077039Y0002222504D01*
X0002071161Y0002221335D01*
X0002070186Y0002221141D01*
X0002063199Y0002221141D01*
X0002062223Y0002221335D01*
X0002056345Y0002222504D01*
X0002049890Y0002225178D01*
X0002044080Y0002229060D01*
X0002039139Y0002234001D01*
X0002035257Y0002239811D01*
X0002032583Y0002246267D01*
X0002031220Y0002253120D01*
X0002031220Y0002260107D01*
X0002032583Y0002266961D01*
X0002035257Y0002273416D01*
X0002039139Y0002279226D01*
X0002044080Y0002284167D01*
X0002049890Y0002288049D01*
X0002056345Y0002290723D01*
X0002062223Y0002291892D01*
X0002063199Y0002292086D01*
X0002070186Y0002292086D01*
X0002071161Y0002291892D01*
X0002071161Y0002291892D01*
G37*
G36*
X0002671161Y0002291892D02*
G01*
X0002677039Y0002290723D01*
X0002683495Y0002288049D01*
X0002689305Y0002284167D01*
X0002694246Y0002279226D01*
X0002698128Y0002273416D01*
X0002700802Y0002266961D01*
X0002702165Y0002260107D01*
X0002702165Y0002253120D01*
X0002700802Y0002246267D01*
X0002698128Y0002239811D01*
X0002694246Y0002234001D01*
X0002689305Y0002229060D01*
X0002683495Y0002225178D01*
X0002677039Y0002222504D01*
X0002671161Y0002221335D01*
X0002670186Y0002221141D01*
X0002663199Y0002221141D01*
X0002662223Y0002221335D01*
X0002656345Y0002222504D01*
X0002649890Y0002225178D01*
X0002644080Y0002229060D01*
X0002639139Y0002234001D01*
X0002635257Y0002239811D01*
X0002632583Y0002246267D01*
X0002631220Y0002253120D01*
X0002631220Y0002260107D01*
X0002632583Y0002266961D01*
X0002635257Y0002273416D01*
X0002639139Y0002279226D01*
X0002644080Y0002284167D01*
X0002649890Y0002288049D01*
X0002656345Y0002290723D01*
X0002662223Y0002291892D01*
X0002663199Y0002292086D01*
X0002670186Y0002292086D01*
X0002671161Y0002291892D01*
X0002671161Y0002291892D01*
G37*
G36*
X0001777262Y0002294372D02*
G01*
X0001782285Y0002292292D01*
X0001786805Y0002289271D01*
X0001790649Y0002285427D01*
X0001793669Y0002280907D01*
X0001795750Y0002275884D01*
X0001796811Y0002270552D01*
X0001796811Y0002265116D01*
X0001795750Y0002259784D01*
X0001793669Y0002254761D01*
X0001790649Y0002250241D01*
X0001786805Y0002246397D01*
X0001782285Y0002243377D01*
X0001777262Y0002241296D01*
X0001771930Y0002240236D01*
X0001766494Y0002240236D01*
X0001761162Y0002241296D01*
X0001756139Y0002243377D01*
X0001751619Y0002246397D01*
X0001747775Y0002250241D01*
X0001744755Y0002254761D01*
X0001742674Y0002259784D01*
X0001741614Y0002265116D01*
X0001741614Y0002270552D01*
X0001742674Y0002275884D01*
X0001744755Y0002280907D01*
X0001747775Y0002285427D01*
X0001751619Y0002289271D01*
X0001756139Y0002292292D01*
X0001761162Y0002294372D01*
X0001766494Y0002295433D01*
X0001771930Y0002295433D01*
X0001777262Y0002294372D01*
X0001777262Y0002294372D01*
G37*
G36*
X0002671161Y0002391892D02*
G01*
X0002677039Y0002390723D01*
X0002683495Y0002388049D01*
X0002689305Y0002384167D01*
X0002694246Y0002379226D01*
X0002698128Y0002373416D01*
X0002700802Y0002366961D01*
X0002702165Y0002360107D01*
X0002702165Y0002353120D01*
X0002700802Y0002346267D01*
X0002698128Y0002339811D01*
X0002694246Y0002334001D01*
X0002689305Y0002329060D01*
X0002683495Y0002325178D01*
X0002677039Y0002322504D01*
X0002671161Y0002321335D01*
X0002670186Y0002321141D01*
X0002663199Y0002321141D01*
X0002662223Y0002321335D01*
X0002656345Y0002322504D01*
X0002649890Y0002325178D01*
X0002644080Y0002329060D01*
X0002639139Y0002334001D01*
X0002635257Y0002339811D01*
X0002632583Y0002346267D01*
X0002631220Y0002353120D01*
X0002631220Y0002360107D01*
X0002632583Y0002366961D01*
X0002635257Y0002373416D01*
X0002639139Y0002379226D01*
X0002644080Y0002384167D01*
X0002649890Y0002388049D01*
X0002656345Y0002390723D01*
X0002662223Y0002391892D01*
X0002663199Y0002392086D01*
X0002670186Y0002392086D01*
X0002671161Y0002391892D01*
X0002671161Y0002391892D01*
G37*
G36*
X0002071161Y0002391892D02*
G01*
X0002077039Y0002390723D01*
X0002083495Y0002388049D01*
X0002089305Y0002384167D01*
X0002094246Y0002379226D01*
X0002098128Y0002373416D01*
X0002100802Y0002366961D01*
X0002102165Y0002360107D01*
X0002102165Y0002353120D01*
X0002100802Y0002346267D01*
X0002098128Y0002339811D01*
X0002094246Y0002334001D01*
X0002089305Y0002329060D01*
X0002083495Y0002325178D01*
X0002077039Y0002322504D01*
X0002071161Y0002321335D01*
X0002070186Y0002321141D01*
X0002063199Y0002321141D01*
X0002062223Y0002321335D01*
X0002056345Y0002322504D01*
X0002049890Y0002325178D01*
X0002044080Y0002329060D01*
X0002039139Y0002334001D01*
X0002035257Y0002339811D01*
X0002032583Y0002346267D01*
X0002031220Y0002353120D01*
X0002031220Y0002360107D01*
X0002032583Y0002366961D01*
X0002035257Y0002373416D01*
X0002039139Y0002379226D01*
X0002044080Y0002384167D01*
X0002049890Y0002388049D01*
X0002056345Y0002390723D01*
X0002062223Y0002391892D01*
X0002063199Y0002392086D01*
X0002070186Y0002392086D01*
X0002071161Y0002391892D01*
X0002071161Y0002391892D01*
G37*
G36*
X0002671161Y0002491892D02*
G01*
X0002677039Y0002490723D01*
X0002683495Y0002488049D01*
X0002689305Y0002484167D01*
X0002694246Y0002479226D01*
X0002698128Y0002473416D01*
X0002700802Y0002466961D01*
X0002702165Y0002460107D01*
X0002702165Y0002453120D01*
X0002700802Y0002446267D01*
X0002698128Y0002439811D01*
X0002694246Y0002434001D01*
X0002689305Y0002429060D01*
X0002683495Y0002425178D01*
X0002677039Y0002422504D01*
X0002671161Y0002421335D01*
X0002670186Y0002421141D01*
X0002663199Y0002421141D01*
X0002662223Y0002421335D01*
X0002656345Y0002422504D01*
X0002649890Y0002425178D01*
X0002644080Y0002429060D01*
X0002639139Y0002434001D01*
X0002635257Y0002439811D01*
X0002632583Y0002446267D01*
X0002631220Y0002453120D01*
X0002631220Y0002460107D01*
X0002632583Y0002466961D01*
X0002635257Y0002473416D01*
X0002639139Y0002479226D01*
X0002644080Y0002484167D01*
X0002649890Y0002488049D01*
X0002656345Y0002490723D01*
X0002662223Y0002491892D01*
X0002663199Y0002492086D01*
X0002670186Y0002492086D01*
X0002671161Y0002491892D01*
X0002671161Y0002491892D01*
G37*
G36*
X0002071161Y0002491892D02*
G01*
X0002077039Y0002490723D01*
X0002083495Y0002488049D01*
X0002089305Y0002484167D01*
X0002094246Y0002479226D01*
X0002098128Y0002473416D01*
X0002100802Y0002466961D01*
X0002102165Y0002460107D01*
X0002102165Y0002453120D01*
X0002100802Y0002446267D01*
X0002098128Y0002439811D01*
X0002094246Y0002434001D01*
X0002089305Y0002429060D01*
X0002083495Y0002425178D01*
X0002077039Y0002422504D01*
X0002071161Y0002421335D01*
X0002070186Y0002421141D01*
X0002063199Y0002421141D01*
X0002062223Y0002421335D01*
X0002056345Y0002422504D01*
X0002049890Y0002425178D01*
X0002044080Y0002429060D01*
X0002039139Y0002434001D01*
X0002035257Y0002439811D01*
X0002032583Y0002446267D01*
X0002031220Y0002453120D01*
X0002031220Y0002460107D01*
X0002032583Y0002466961D01*
X0002035257Y0002473416D01*
X0002039139Y0002479226D01*
X0002044080Y0002484167D01*
X0002049890Y0002488049D01*
X0002056345Y0002490723D01*
X0002062223Y0002491892D01*
X0002063199Y0002492086D01*
X0002070186Y0002492086D01*
X0002071161Y0002491892D01*
X0002071161Y0002491892D01*
G37*
G36*
X0001757208Y0002584882D02*
G01*
X0001771186Y0002579092D01*
X0001771186Y0002579092D01*
X0001783767Y0002570686D01*
X0001794466Y0002559987D01*
X0001802872Y0002547407D01*
X0001802872Y0002547407D01*
X0001808662Y0002533428D01*
X0001811614Y0002518588D01*
X0001811614Y0002503458D01*
X0001808662Y0002488618D01*
X0001804771Y0002479226D01*
X0001802872Y0002474639D01*
X0001794466Y0002462059D01*
X0001783767Y0002451360D01*
X0001771186Y0002442954D01*
X0001771186Y0002442954D01*
X0001771186Y0002442954D01*
X0001757208Y0002437164D01*
X0001742368Y0002434212D01*
X0001727237Y0002434212D01*
X0001712398Y0002437164D01*
X0001698419Y0002442954D01*
X0001698419Y0002442954D01*
X0001698419Y0002442954D01*
X0001685838Y0002451360D01*
X0001675140Y0002462059D01*
X0001666734Y0002474639D01*
X0001664834Y0002479226D01*
X0001660943Y0002488618D01*
X0001657992Y0002503458D01*
X0001657992Y0002518588D01*
X0001660943Y0002533428D01*
X0001666734Y0002547407D01*
X0001666734Y0002547407D01*
X0001675140Y0002559987D01*
X0001685838Y0002570686D01*
X0001698419Y0002579092D01*
X0001698419Y0002579092D01*
X0001712398Y0002584882D01*
X0001727237Y0002587834D01*
X0001742368Y0002587834D01*
X0001757208Y0002584882D01*
X0001757208Y0002584882D01*
G37*
G36*
X0003020987Y0002584882D02*
G01*
X0003034966Y0002579092D01*
X0003034966Y0002579092D01*
X0003047546Y0002570686D01*
X0003058245Y0002559987D01*
X0003066651Y0002547407D01*
X0003066651Y0002547407D01*
X0003072441Y0002533428D01*
X0003075393Y0002518588D01*
X0003075393Y0002503458D01*
X0003072441Y0002488618D01*
X0003068551Y0002479226D01*
X0003066651Y0002474639D01*
X0003058245Y0002462059D01*
X0003047546Y0002451360D01*
X0003034966Y0002442954D01*
X0003034966Y0002442954D01*
X0003034966Y0002442954D01*
X0003020987Y0002437164D01*
X0003006147Y0002434212D01*
X0002991017Y0002434212D01*
X0002976177Y0002437164D01*
X0002962199Y0002442954D01*
X0002962199Y0002442954D01*
X0002962199Y0002442954D01*
X0002949618Y0002451360D01*
X0002938919Y0002462059D01*
X0002930513Y0002474639D01*
X0002928613Y0002479226D01*
X0002924723Y0002488618D01*
X0002921771Y0002503458D01*
X0002921771Y0002518588D01*
X0002924723Y0002533428D01*
X0002930513Y0002547407D01*
X0002930513Y0002547407D01*
X0002938919Y0002559987D01*
X0002949618Y0002570686D01*
X0002962199Y0002579092D01*
X0002962199Y0002579092D01*
X0002976177Y0002584882D01*
X0002991017Y0002587834D01*
X0003006147Y0002587834D01*
X0003020987Y0002584882D01*
X0003020987Y0002584882D01*
G37*
G04 next file*
G04 #@! TF.GenerationSoftware,KiCad,Pcbnew,(5.1.2)-1*
G04 #@! TF.CreationDate,2020-12-05T19:35:51+09:00*
G04 #@! TF.ProjectId,M5Atom_CAN,4d354174-6f6d-45f4-9341-4e2e6b696361,rev?*
G04 #@! TF.SameCoordinates,Original*
G04 #@! TF.FileFunction,Soldermask,Top*
G04 #@! TF.FilePolarity,Negative*
G04 Gerber Fmt 4.6, Leading zero omitted, Abs format (unit mm)*
G04 Created by KiCad (PCBNEW (5.1.2)-1) date 2020-12-05 19:35:51*
G04 APERTURE LIST*
G04 APERTURE END LIST*
D25*
G36*
X0003020987Y0002920315D02*
G01*
X0003034966Y0002914525D01*
X0003034966Y0002914525D01*
X0003047546Y0002906119D01*
X0003058245Y0002895420D01*
X0003063602Y0002887403D01*
X0003066651Y0002882840D01*
X0003072441Y0002868861D01*
X0003075393Y0002854021D01*
X0003075393Y0002838891D01*
X0003072441Y0002824051D01*
X0003066651Y0002810073D01*
X0003066651Y0002810073D01*
X0003058245Y0002797492D01*
X0003047546Y0002786793D01*
X0003034966Y0002778387D01*
X0003034966Y0002778387D01*
X0003034966Y0002778387D01*
X0003020987Y0002772597D01*
X0003006147Y0002769645D01*
X0002991017Y0002769645D01*
X0002976177Y0002772597D01*
X0002962199Y0002778387D01*
X0002962199Y0002778387D01*
X0002962199Y0002778387D01*
X0002949618Y0002786793D01*
X0002938919Y0002797492D01*
X0002930513Y0002810073D01*
X0002930513Y0002810073D01*
X0002924723Y0002824051D01*
X0002921771Y0002838891D01*
X0002921771Y0002854021D01*
X0002924723Y0002868861D01*
X0002930513Y0002882840D01*
X0002933562Y0002887403D01*
X0002938919Y0002895420D01*
X0002949618Y0002906119D01*
X0002962199Y0002914525D01*
X0002962199Y0002914525D01*
X0002976177Y0002920315D01*
X0002991017Y0002923267D01*
X0003006147Y0002923267D01*
X0003020987Y0002920315D01*
X0003020987Y0002920315D01*
G37*
G36*
X0001757208Y0002920315D02*
G01*
X0001771186Y0002914525D01*
X0001771186Y0002914525D01*
X0001783767Y0002906119D01*
X0001794466Y0002895420D01*
X0001799822Y0002887403D01*
X0001802872Y0002882840D01*
X0001808662Y0002868861D01*
X0001811614Y0002854021D01*
X0001811614Y0002838891D01*
X0001808662Y0002824051D01*
X0001802872Y0002810073D01*
X0001802872Y0002810073D01*
X0001794466Y0002797492D01*
X0001783767Y0002786793D01*
X0001771186Y0002778387D01*
X0001771186Y0002778387D01*
X0001771186Y0002778387D01*
X0001757208Y0002772597D01*
X0001742368Y0002769645D01*
X0001727237Y0002769645D01*
X0001712398Y0002772597D01*
X0001698419Y0002778387D01*
X0001698419Y0002778387D01*
X0001698419Y0002778387D01*
X0001685838Y0002786793D01*
X0001675140Y0002797492D01*
X0001666734Y0002810073D01*
X0001666734Y0002810073D01*
X0001660943Y0002824051D01*
X0001657992Y0002838891D01*
X0001657992Y0002854021D01*
X0001660943Y0002868861D01*
X0001666734Y0002882840D01*
X0001669783Y0002887403D01*
X0001675140Y0002895420D01*
X0001685838Y0002906119D01*
X0001698419Y0002914525D01*
X0001698419Y0002914525D01*
X0001712398Y0002920315D01*
X0001727237Y0002923267D01*
X0001742368Y0002923267D01*
X0001757208Y0002920315D01*
X0001757208Y0002920315D01*
G37*
G36*
X0002249291Y0002833267D02*
G01*
X0002194094Y0002833267D01*
X0002194094Y0002888464D01*
X0002249291Y0002888464D01*
X0002249291Y0002833267D01*
X0002249291Y0002833267D01*
G37*
G36*
X0002151002Y0002887403D02*
G01*
X0002156025Y0002885323D01*
X0002160545Y0002882303D01*
X0002164389Y0002878458D01*
X0002167410Y0002873938D01*
X0002169490Y0002868916D01*
X0002170551Y0002863584D01*
X0002170551Y0002858147D01*
X0002169490Y0002852815D01*
X0002167410Y0002847793D01*
X0002164389Y0002843273D01*
X0002160545Y0002839428D01*
X0002156025Y0002836408D01*
X0002151002Y0002834328D01*
X0002145671Y0002833267D01*
X0002140234Y0002833267D01*
X0002134902Y0002834328D01*
X0002129879Y0002836408D01*
X0002125359Y0002839428D01*
X0002121515Y0002843273D01*
X0002118495Y0002847793D01*
X0002116414Y0002852815D01*
X0002115354Y0002858147D01*
X0002115354Y0002863584D01*
X0002116414Y0002868916D01*
X0002118495Y0002873938D01*
X0002121515Y0002878458D01*
X0002125359Y0002882303D01*
X0002129879Y0002885323D01*
X0002134902Y0002887403D01*
X0002140234Y0002888464D01*
X0002145671Y0002888464D01*
X0002151002Y0002887403D01*
X0002151002Y0002887403D01*
G37*
G36*
X0002072262Y0002887403D02*
G01*
X0002077285Y0002885323D01*
X0002081805Y0002882303D01*
X0002085649Y0002878458D01*
X0002088670Y0002873938D01*
X0002090750Y0002868916D01*
X0002091811Y0002863584D01*
X0002091811Y0002858147D01*
X0002090750Y0002852815D01*
X0002088670Y0002847793D01*
X0002085649Y0002843273D01*
X0002081805Y0002839428D01*
X0002077285Y0002836408D01*
X0002072262Y0002834328D01*
X0002066930Y0002833267D01*
X0002061494Y0002833267D01*
X0002056162Y0002834328D01*
X0002051139Y0002836408D01*
X0002046619Y0002839428D01*
X0002042775Y0002843273D01*
X0002039755Y0002847793D01*
X0002037674Y0002852815D01*
X0002036614Y0002858147D01*
X0002036614Y0002863584D01*
X0002037674Y0002868916D01*
X0002039755Y0002873938D01*
X0002042775Y0002878458D01*
X0002046619Y0002882303D01*
X0002051139Y0002885323D01*
X0002056162Y0002887403D01*
X0002061494Y0002888464D01*
X0002066930Y0002888464D01*
X0002072262Y0002887403D01*
X0002072262Y0002887403D01*
G37*
G36*
X0001993522Y0002887403D02*
G01*
X0001998545Y0002885323D01*
X0002003065Y0002882303D01*
X0002006909Y0002878458D01*
X0002009929Y0002873938D01*
X0002012010Y0002868916D01*
X0002013070Y0002863584D01*
X0002013070Y0002858147D01*
X0002012010Y0002852815D01*
X0002009929Y0002847793D01*
X0002006909Y0002843273D01*
X0002003065Y0002839428D01*
X0001998545Y0002836408D01*
X0001993522Y0002834328D01*
X0001988190Y0002833267D01*
X0001982754Y0002833267D01*
X0001977422Y0002834328D01*
X0001972399Y0002836408D01*
X0001967879Y0002839428D01*
X0001964035Y0002843273D01*
X0001961015Y0002847793D01*
X0001958934Y0002852815D01*
X0001957873Y0002858147D01*
X0001957873Y0002863584D01*
X0001958934Y0002868916D01*
X0001961015Y0002873938D01*
X0001964035Y0002878458D01*
X0001967879Y0002882303D01*
X0001972399Y0002885323D01*
X0001977422Y0002887403D01*
X0001982754Y0002888464D01*
X0001988190Y0002888464D01*
X0001993522Y0002887403D01*
X0001993522Y0002887403D01*
G37*
G36*
X0002759291Y0002833267D02*
G01*
X0002704094Y0002833267D01*
X0002704094Y0002888464D01*
X0002759291Y0002888464D01*
X0002759291Y0002833267D01*
X0002759291Y0002833267D01*
G37*
G36*
X0002661002Y0002887403D02*
G01*
X0002666025Y0002885323D01*
X0002670545Y0002882303D01*
X0002674389Y0002878458D01*
X0002677410Y0002873938D01*
X0002679490Y0002868916D01*
X0002680551Y0002863584D01*
X0002680551Y0002858147D01*
X0002679490Y0002852815D01*
X0002677410Y0002847793D01*
X0002674389Y0002843273D01*
X0002670545Y0002839428D01*
X0002666025Y0002836408D01*
X0002661002Y0002834328D01*
X0002655671Y0002833267D01*
X0002650234Y0002833267D01*
X0002644902Y0002834328D01*
X0002639879Y0002836408D01*
X0002635359Y0002839428D01*
X0002631515Y0002843273D01*
X0002628495Y0002847793D01*
X0002626414Y0002852815D01*
X0002625354Y0002858147D01*
X0002625354Y0002863584D01*
X0002626414Y0002868916D01*
X0002628495Y0002873938D01*
X0002631515Y0002878458D01*
X0002635359Y0002882303D01*
X0002639879Y0002885323D01*
X0002644902Y0002887403D01*
X0002650234Y0002888464D01*
X0002655671Y0002888464D01*
X0002661002Y0002887403D01*
X0002661002Y0002887403D01*
G37*
G36*
X0002582262Y0002887403D02*
G01*
X0002587285Y0002885323D01*
X0002591805Y0002882303D01*
X0002595649Y0002878458D01*
X0002598669Y0002873938D01*
X0002600750Y0002868916D01*
X0002601811Y0002863584D01*
X0002601811Y0002858147D01*
X0002600750Y0002852815D01*
X0002598669Y0002847793D01*
X0002595649Y0002843273D01*
X0002591805Y0002839428D01*
X0002587285Y0002836408D01*
X0002582262Y0002834328D01*
X0002576930Y0002833267D01*
X0002571494Y0002833267D01*
X0002566162Y0002834328D01*
X0002561139Y0002836408D01*
X0002556619Y0002839428D01*
X0002552775Y0002843273D01*
X0002549755Y0002847793D01*
X0002547674Y0002852815D01*
X0002546614Y0002858147D01*
X0002546614Y0002863584D01*
X0002547674Y0002868916D01*
X0002549755Y0002873938D01*
X0002552775Y0002878458D01*
X0002556619Y0002882303D01*
X0002561139Y0002885323D01*
X0002566162Y0002887403D01*
X0002571494Y0002888464D01*
X0002576930Y0002888464D01*
X0002582262Y0002887403D01*
X0002582262Y0002887403D01*
G37*
G36*
X0002503522Y0002887403D02*
G01*
X0002508545Y0002885323D01*
X0002513065Y0002882303D01*
X0002516909Y0002878458D01*
X0002519929Y0002873938D01*
X0002522010Y0002868916D01*
X0002523070Y0002863584D01*
X0002523070Y0002858147D01*
X0002522010Y0002852815D01*
X0002519929Y0002847793D01*
X0002516909Y0002843273D01*
X0002513065Y0002839428D01*
X0002508545Y0002836408D01*
X0002503522Y0002834328D01*
X0002498190Y0002833267D01*
X0002492754Y0002833267D01*
X0002487422Y0002834328D01*
X0002482399Y0002836408D01*
X0002477879Y0002839428D01*
X0002474035Y0002843273D01*
X0002471015Y0002847793D01*
X0002468934Y0002852815D01*
X0002467874Y0002858147D01*
X0002467874Y0002863584D01*
X0002468934Y0002868916D01*
X0002471015Y0002873938D01*
X0002474035Y0002878458D01*
X0002477879Y0002882303D01*
X0002482399Y0002885323D01*
X0002487422Y0002887403D01*
X0002492754Y0002888464D01*
X0002498190Y0002888464D01*
X0002503522Y0002887403D01*
X0002503522Y0002887403D01*
G37*
G36*
X0001777262Y0003199884D02*
G01*
X0001782285Y0003197803D01*
X0001786805Y0003194783D01*
X0001790649Y0003190939D01*
X0001793669Y0003186419D01*
X0001795750Y0003181396D01*
X0001796811Y0003176064D01*
X0001796811Y0003170628D01*
X0001795750Y0003165296D01*
X0001793669Y0003160273D01*
X0001790649Y0003155753D01*
X0001786805Y0003151909D01*
X0001782285Y0003148889D01*
X0001777262Y0003146808D01*
X0001771930Y0003145747D01*
X0001766494Y0003145747D01*
X0001761162Y0003146808D01*
X0001756139Y0003148889D01*
X0001751619Y0003151909D01*
X0001747775Y0003155753D01*
X0001744755Y0003160273D01*
X0001742674Y0003165296D01*
X0001741614Y0003170628D01*
X0001741614Y0003176064D01*
X0001742674Y0003181396D01*
X0001744755Y0003186419D01*
X0001747775Y0003190939D01*
X0001751619Y0003194783D01*
X0001756139Y0003197803D01*
X0001761162Y0003199884D01*
X0001766494Y0003200944D01*
X0001771930Y0003200944D01*
X0001777262Y0003199884D01*
X0001777262Y0003199884D01*
G37*
G36*
X0001777262Y0003278624D02*
G01*
X0001782285Y0003276544D01*
X0001786805Y0003273523D01*
X0001790649Y0003269679D01*
X0001793669Y0003265159D01*
X0001795750Y0003260136D01*
X0001796811Y0003254804D01*
X0001796811Y0003249368D01*
X0001795750Y0003244036D01*
X0001793669Y0003239013D01*
X0001790649Y0003234493D01*
X0001786805Y0003230649D01*
X0001782285Y0003227629D01*
X0001777262Y0003225548D01*
X0001771930Y0003224488D01*
X0001766494Y0003224488D01*
X0001761162Y0003225548D01*
X0001756139Y0003227629D01*
X0001751619Y0003230649D01*
X0001747775Y0003234493D01*
X0001744755Y0003239013D01*
X0001742674Y0003244036D01*
X0001741614Y0003249368D01*
X0001741614Y0003254804D01*
X0001742674Y0003260136D01*
X0001744755Y0003265159D01*
X0001747775Y0003269679D01*
X0001751619Y0003273523D01*
X0001756139Y0003276544D01*
X0001761162Y0003278624D01*
X0001766494Y0003279685D01*
X0001771930Y0003279685D01*
X0001777262Y0003278624D01*
X0001777262Y0003278624D01*
G37*
G36*
X0003011041Y0003312577D02*
G01*
X0003013646Y0003312321D01*
X0003020333Y0003310293D01*
X0003026495Y0003306999D01*
X0003027263Y0003306369D01*
X0003031897Y0003302566D01*
X0003035175Y0003298572D01*
X0003036329Y0003297165D01*
X0003039623Y0003291002D01*
X0003041652Y0003284316D01*
X0003042336Y0003277362D01*
X0003041652Y0003270408D01*
X0003039623Y0003263721D01*
X0003036329Y0003257559D01*
X0003035175Y0003256152D01*
X0003031897Y0003252158D01*
X0003028497Y0003249368D01*
X0003026495Y0003247725D01*
X0003020333Y0003244431D01*
X0003013646Y0003242403D01*
X0003011041Y0003242146D01*
X0003008435Y0003241889D01*
X0003004950Y0003241889D01*
X0003002344Y0003242146D01*
X0002999739Y0003242403D01*
X0002993052Y0003244431D01*
X0002986890Y0003247725D01*
X0002984887Y0003249368D01*
X0002981488Y0003252158D01*
X0002978210Y0003256152D01*
X0002977055Y0003257559D01*
X0002973762Y0003263721D01*
X0002971733Y0003270408D01*
X0002971048Y0003277362D01*
X0002971733Y0003284316D01*
X0002973762Y0003291002D01*
X0002977055Y0003297165D01*
X0002978210Y0003298572D01*
X0002981488Y0003302566D01*
X0002986122Y0003306369D01*
X0002986890Y0003306999D01*
X0002993052Y0003310293D01*
X0002999739Y0003312321D01*
X0003002344Y0003312577D01*
X0003004950Y0003312834D01*
X0003008435Y0003312834D01*
X0003011041Y0003312577D01*
X0003011041Y0003312577D01*
G37*
G36*
X0001777262Y0003357364D02*
G01*
X0001782285Y0003355284D01*
X0001786805Y0003352263D01*
X0001790649Y0003348419D01*
X0001793669Y0003343899D01*
X0001795750Y0003338876D01*
X0001796811Y0003333545D01*
X0001796811Y0003328108D01*
X0001795750Y0003322776D01*
X0001793669Y0003317753D01*
X0001790649Y0003313233D01*
X0001786805Y0003309389D01*
X0001782285Y0003306369D01*
X0001777262Y0003304288D01*
X0001771930Y0003303228D01*
X0001766494Y0003303228D01*
X0001761162Y0003304288D01*
X0001756139Y0003306369D01*
X0001751619Y0003309389D01*
X0001747775Y0003313233D01*
X0001744755Y0003317753D01*
X0001742674Y0003322776D01*
X0001741614Y0003328108D01*
X0001741614Y0003333545D01*
X0001742674Y0003338876D01*
X0001744755Y0003343899D01*
X0001747775Y0003348419D01*
X0001751619Y0003352263D01*
X0001756139Y0003355284D01*
X0001761162Y0003357364D01*
X0001766494Y0003358425D01*
X0001771930Y0003358425D01*
X0001777262Y0003357364D01*
X0001777262Y0003357364D01*
G37*
G36*
X0002071161Y0003391105D02*
G01*
X0002077039Y0003389936D01*
X0002083495Y0003387262D01*
X0002089305Y0003383380D01*
X0002094246Y0003378439D01*
X0002098128Y0003372629D01*
X0002100802Y0003366173D01*
X0002102165Y0003359320D01*
X0002102165Y0003352333D01*
X0002100802Y0003345479D01*
X0002098128Y0003339024D01*
X0002094246Y0003333214D01*
X0002089305Y0003328273D01*
X0002083495Y0003324391D01*
X0002077039Y0003321717D01*
X0002071161Y0003320548D01*
X0002070186Y0003320354D01*
X0002063199Y0003320354D01*
X0002062223Y0003320548D01*
X0002056345Y0003321717D01*
X0002049890Y0003324391D01*
X0002044080Y0003328273D01*
X0002039139Y0003333214D01*
X0002035257Y0003339024D01*
X0002032583Y0003345479D01*
X0002031220Y0003352333D01*
X0002031220Y0003359320D01*
X0002032583Y0003366173D01*
X0002035257Y0003372629D01*
X0002039139Y0003378439D01*
X0002044080Y0003383380D01*
X0002049890Y0003387262D01*
X0002056345Y0003389936D01*
X0002062223Y0003391105D01*
X0002063199Y0003391299D01*
X0002070186Y0003391299D01*
X0002071161Y0003391105D01*
X0002071161Y0003391105D01*
G37*
G36*
X0003042165Y0003341889D02*
G01*
X0002971220Y0003341889D01*
X0002971220Y0003412834D01*
X0003042165Y0003412834D01*
X0003042165Y0003341889D01*
X0003042165Y0003341889D01*
G37*
G36*
X0001777262Y0003436104D02*
G01*
X0001782285Y0003434024D01*
X0001786805Y0003431004D01*
X0001790649Y0003427159D01*
X0001793669Y0003422639D01*
X0001795750Y0003417617D01*
X0001796811Y0003412285D01*
X0001796811Y0003406848D01*
X0001795750Y0003401516D01*
X0001793669Y0003396494D01*
X0001790649Y0003391974D01*
X0001786805Y0003388129D01*
X0001782285Y0003385109D01*
X0001777262Y0003383029D01*
X0001771930Y0003381968D01*
X0001766494Y0003381968D01*
X0001761162Y0003383029D01*
X0001756139Y0003385109D01*
X0001751619Y0003388129D01*
X0001747775Y0003391974D01*
X0001744755Y0003396494D01*
X0001742674Y0003401516D01*
X0001741614Y0003406848D01*
X0001741614Y0003412285D01*
X0001742674Y0003417617D01*
X0001744755Y0003422639D01*
X0001747775Y0003427159D01*
X0001751619Y0003431004D01*
X0001756139Y0003434024D01*
X0001761162Y0003436104D01*
X0001766494Y0003437165D01*
X0001771930Y0003437165D01*
X0001777262Y0003436104D01*
X0001777262Y0003436104D01*
G37*
G36*
X0002677477Y0003491378D02*
G01*
X0002684205Y0003488591D01*
X0002684205Y0003488591D01*
X0002686195Y0003487262D01*
X0002690261Y0003484545D01*
X0002695411Y0003479395D01*
X0002699457Y0003473339D01*
X0002702244Y0003466611D01*
X0002703665Y0003459468D01*
X0002703665Y0003452185D01*
X0002702244Y0003445042D01*
X0002699457Y0003438313D01*
X0002699457Y0003438313D01*
X0002695411Y0003432258D01*
X0002690261Y0003427108D01*
X0002684205Y0003423062D01*
X0002684205Y0003423062D01*
X0002684205Y0003423062D01*
X0002677477Y0003420275D01*
X0002670334Y0003418854D01*
X0002663051Y0003418854D01*
X0002655908Y0003420275D01*
X0002649179Y0003423062D01*
X0002649179Y0003423062D01*
X0002649179Y0003423062D01*
X0002643124Y0003427108D01*
X0002637974Y0003432258D01*
X0002633928Y0003438313D01*
X0002633928Y0003438313D01*
X0002631141Y0003445042D01*
X0002629720Y0003452185D01*
X0002629720Y0003459468D01*
X0002631141Y0003466611D01*
X0002633928Y0003473339D01*
X0002637974Y0003479395D01*
X0002643124Y0003484545D01*
X0002647190Y0003487262D01*
X0002649179Y0003488591D01*
X0002649179Y0003488591D01*
X0002655908Y0003491378D01*
X0002663051Y0003492799D01*
X0002670334Y0003492799D01*
X0002677477Y0003491378D01*
X0002677477Y0003491378D01*
G37*
G36*
X0002071161Y0003491105D02*
G01*
X0002077039Y0003489936D01*
X0002083495Y0003487262D01*
X0002089305Y0003483380D01*
X0002094246Y0003478439D01*
X0002098128Y0003472629D01*
X0002100802Y0003466173D01*
X0002102165Y0003459320D01*
X0002102165Y0003452333D01*
X0002100802Y0003445479D01*
X0002098128Y0003439024D01*
X0002094246Y0003433214D01*
X0002089305Y0003428273D01*
X0002083495Y0003424391D01*
X0002077039Y0003421717D01*
X0002071161Y0003420548D01*
X0002070186Y0003420354D01*
X0002063199Y0003420354D01*
X0002062223Y0003420548D01*
X0002056345Y0003421717D01*
X0002049890Y0003424391D01*
X0002044080Y0003428273D01*
X0002039139Y0003433214D01*
X0002035257Y0003439024D01*
X0002032583Y0003445479D01*
X0002031220Y0003452333D01*
X0002031220Y0003459320D01*
X0002032583Y0003466173D01*
X0002035257Y0003472629D01*
X0002039139Y0003478439D01*
X0002044080Y0003483380D01*
X0002049890Y0003487262D01*
X0002056345Y0003489936D01*
X0002062223Y0003491105D01*
X0002063199Y0003491299D01*
X0002070186Y0003491299D01*
X0002071161Y0003491105D01*
X0002071161Y0003491105D01*
G37*
G36*
X0001777262Y0003514844D02*
G01*
X0001782285Y0003512764D01*
X0001786805Y0003509744D01*
X0001790649Y0003505899D01*
X0001793669Y0003501379D01*
X0001795750Y0003496357D01*
X0001796811Y0003491025D01*
X0001796811Y0003485588D01*
X0001795750Y0003480256D01*
X0001793669Y0003475234D01*
X0001790649Y0003470714D01*
X0001786805Y0003466869D01*
X0001782285Y0003463849D01*
X0001777262Y0003461769D01*
X0001771930Y0003460708D01*
X0001766494Y0003460708D01*
X0001761162Y0003461769D01*
X0001756139Y0003463849D01*
X0001751619Y0003466869D01*
X0001747775Y0003470714D01*
X0001744755Y0003475234D01*
X0001742674Y0003480256D01*
X0001741614Y0003485588D01*
X0001741614Y0003491025D01*
X0001742674Y0003496357D01*
X0001744755Y0003501379D01*
X0001747775Y0003505899D01*
X0001751619Y0003509744D01*
X0001756139Y0003512764D01*
X0001761162Y0003514844D01*
X0001766494Y0003515905D01*
X0001771930Y0003515905D01*
X0001777262Y0003514844D01*
X0001777262Y0003514844D01*
G37*
G36*
X0002071161Y0003591105D02*
G01*
X0002077039Y0003589936D01*
X0002083495Y0003587262D01*
X0002089305Y0003583380D01*
X0002094246Y0003578439D01*
X0002098128Y0003572629D01*
X0002100802Y0003566173D01*
X0002102165Y0003559320D01*
X0002102165Y0003552333D01*
X0002100802Y0003545479D01*
X0002098128Y0003539024D01*
X0002094246Y0003533214D01*
X0002089305Y0003528273D01*
X0002083495Y0003524391D01*
X0002077039Y0003521717D01*
X0002071161Y0003520548D01*
X0002070186Y0003520354D01*
X0002063199Y0003520354D01*
X0002062223Y0003520548D01*
X0002056345Y0003521717D01*
X0002049890Y0003524391D01*
X0002044080Y0003528273D01*
X0002039139Y0003533214D01*
X0002035257Y0003539024D01*
X0002032583Y0003545479D01*
X0002031220Y0003552333D01*
X0002031220Y0003559320D01*
X0002032583Y0003566173D01*
X0002035257Y0003572629D01*
X0002039139Y0003578439D01*
X0002044080Y0003583380D01*
X0002049890Y0003587262D01*
X0002056345Y0003589936D01*
X0002062223Y0003591105D01*
X0002063199Y0003591299D01*
X0002070186Y0003591299D01*
X0002071161Y0003591105D01*
X0002071161Y0003591105D01*
G37*
G36*
X0002671161Y0003591105D02*
G01*
X0002677039Y0003589936D01*
X0002683495Y0003587262D01*
X0002689305Y0003583380D01*
X0002694246Y0003578439D01*
X0002698128Y0003572629D01*
X0002700802Y0003566173D01*
X0002702165Y0003559320D01*
X0002702165Y0003552333D01*
X0002700802Y0003545479D01*
X0002698128Y0003539024D01*
X0002694246Y0003533214D01*
X0002689305Y0003528273D01*
X0002683495Y0003524391D01*
X0002677039Y0003521717D01*
X0002671161Y0003520548D01*
X0002670186Y0003520354D01*
X0002663199Y0003520354D01*
X0002662223Y0003520548D01*
X0002656345Y0003521717D01*
X0002649890Y0003524391D01*
X0002644080Y0003528273D01*
X0002639139Y0003533214D01*
X0002635257Y0003539024D01*
X0002632583Y0003545479D01*
X0002631220Y0003552333D01*
X0002631220Y0003559320D01*
X0002632583Y0003566173D01*
X0002635257Y0003572629D01*
X0002639139Y0003578439D01*
X0002644080Y0003583380D01*
X0002649890Y0003587262D01*
X0002656345Y0003589936D01*
X0002662223Y0003591105D01*
X0002663199Y0003591299D01*
X0002670186Y0003591299D01*
X0002671161Y0003591105D01*
X0002671161Y0003591105D01*
G37*
G36*
X0001777262Y0003593585D02*
G01*
X0001782285Y0003591504D01*
X0001786805Y0003588484D01*
X0001790649Y0003584640D01*
X0001793669Y0003580120D01*
X0001795750Y0003575097D01*
X0001796811Y0003569765D01*
X0001796811Y0003564328D01*
X0001795750Y0003558997D01*
X0001793669Y0003553974D01*
X0001790649Y0003549454D01*
X0001786805Y0003545610D01*
X0001782285Y0003542589D01*
X0001777262Y0003540509D01*
X0001771930Y0003539448D01*
X0001766494Y0003539448D01*
X0001761162Y0003540509D01*
X0001756139Y0003542589D01*
X0001751619Y0003545610D01*
X0001747775Y0003549454D01*
X0001744755Y0003553974D01*
X0001742674Y0003558997D01*
X0001741614Y0003564328D01*
X0001741614Y0003569765D01*
X0001742674Y0003575097D01*
X0001744755Y0003580120D01*
X0001747775Y0003584640D01*
X0001751619Y0003588484D01*
X0001756139Y0003591504D01*
X0001761162Y0003593585D01*
X0001766494Y0003594645D01*
X0001771930Y0003594645D01*
X0001777262Y0003593585D01*
X0001777262Y0003593585D01*
G37*
G36*
X0002671161Y0003691105D02*
G01*
X0002677039Y0003689936D01*
X0002683495Y0003687262D01*
X0002689305Y0003683380D01*
X0002694246Y0003678439D01*
X0002698128Y0003672629D01*
X0002700802Y0003666173D01*
X0002702165Y0003659320D01*
X0002702165Y0003652333D01*
X0002700802Y0003645479D01*
X0002698128Y0003639024D01*
X0002694246Y0003633214D01*
X0002689305Y0003628273D01*
X0002683495Y0003624391D01*
X0002677039Y0003621717D01*
X0002671161Y0003620548D01*
X0002670186Y0003620354D01*
X0002663199Y0003620354D01*
X0002662223Y0003620548D01*
X0002656345Y0003621717D01*
X0002649890Y0003624391D01*
X0002644080Y0003628273D01*
X0002639139Y0003633214D01*
X0002635257Y0003639024D01*
X0002632583Y0003645479D01*
X0002631220Y0003652333D01*
X0002631220Y0003659320D01*
X0002632583Y0003666173D01*
X0002635257Y0003672629D01*
X0002639139Y0003678439D01*
X0002644080Y0003683380D01*
X0002649890Y0003687262D01*
X0002656345Y0003689936D01*
X0002662223Y0003691105D01*
X0002663199Y0003691299D01*
X0002670186Y0003691299D01*
X0002671161Y0003691105D01*
X0002671161Y0003691105D01*
G37*
G36*
X0002071161Y0003691105D02*
G01*
X0002077039Y0003689936D01*
X0002083495Y0003687262D01*
X0002089305Y0003683380D01*
X0002094246Y0003678439D01*
X0002098128Y0003672629D01*
X0002100802Y0003666173D01*
X0002102165Y0003659320D01*
X0002102165Y0003652333D01*
X0002100802Y0003645479D01*
X0002098128Y0003639024D01*
X0002094246Y0003633214D01*
X0002089305Y0003628273D01*
X0002083495Y0003624391D01*
X0002077039Y0003621717D01*
X0002071161Y0003620548D01*
X0002070186Y0003620354D01*
X0002063199Y0003620354D01*
X0002062223Y0003620548D01*
X0002056345Y0003621717D01*
X0002049890Y0003624391D01*
X0002044080Y0003628273D01*
X0002039139Y0003633214D01*
X0002035257Y0003639024D01*
X0002032583Y0003645479D01*
X0002031220Y0003652333D01*
X0002031220Y0003659320D01*
X0002032583Y0003666173D01*
X0002035257Y0003672629D01*
X0002039139Y0003678439D01*
X0002044080Y0003683380D01*
X0002049890Y0003687262D01*
X0002056345Y0003689936D01*
X0002062223Y0003691105D01*
X0002063199Y0003691299D01*
X0002070186Y0003691299D01*
X0002071161Y0003691105D01*
X0002071161Y0003691105D01*
G37*
G36*
X0002671161Y0003791105D02*
G01*
X0002677039Y0003789936D01*
X0002683495Y0003787262D01*
X0002689305Y0003783380D01*
X0002694246Y0003778439D01*
X0002698128Y0003772629D01*
X0002700802Y0003766173D01*
X0002702165Y0003759320D01*
X0002702165Y0003752333D01*
X0002700802Y0003745479D01*
X0002698128Y0003739024D01*
X0002694246Y0003733214D01*
X0002689305Y0003728273D01*
X0002683495Y0003724391D01*
X0002677039Y0003721717D01*
X0002671161Y0003720548D01*
X0002670186Y0003720354D01*
X0002663199Y0003720354D01*
X0002662223Y0003720548D01*
X0002656345Y0003721717D01*
X0002649890Y0003724391D01*
X0002644080Y0003728273D01*
X0002639139Y0003733214D01*
X0002635257Y0003739024D01*
X0002632583Y0003745479D01*
X0002631220Y0003752333D01*
X0002631220Y0003759320D01*
X0002632583Y0003766173D01*
X0002635257Y0003772629D01*
X0002639139Y0003778439D01*
X0002644080Y0003783380D01*
X0002649890Y0003787262D01*
X0002656345Y0003789936D01*
X0002662223Y0003791105D01*
X0002663199Y0003791299D01*
X0002670186Y0003791299D01*
X0002671161Y0003791105D01*
X0002671161Y0003791105D01*
G37*
G36*
X0002071161Y0003791105D02*
G01*
X0002077039Y0003789936D01*
X0002083495Y0003787262D01*
X0002089305Y0003783380D01*
X0002094246Y0003778439D01*
X0002098128Y0003772629D01*
X0002100802Y0003766173D01*
X0002102165Y0003759320D01*
X0002102165Y0003752333D01*
X0002100802Y0003745479D01*
X0002098128Y0003739024D01*
X0002094246Y0003733214D01*
X0002089305Y0003728273D01*
X0002083495Y0003724391D01*
X0002077039Y0003721717D01*
X0002071161Y0003720548D01*
X0002070186Y0003720354D01*
X0002063199Y0003720354D01*
X0002062223Y0003720548D01*
X0002056345Y0003721717D01*
X0002049890Y0003724391D01*
X0002044080Y0003728273D01*
X0002039139Y0003733214D01*
X0002035257Y0003739024D01*
X0002032583Y0003745479D01*
X0002031220Y0003752333D01*
X0002031220Y0003759320D01*
X0002032583Y0003766173D01*
X0002035257Y0003772629D01*
X0002039139Y0003778439D01*
X0002044080Y0003783380D01*
X0002049890Y0003787262D01*
X0002056345Y0003789936D01*
X0002062223Y0003791105D01*
X0002063199Y0003791299D01*
X0002070186Y0003791299D01*
X0002071161Y0003791105D01*
X0002071161Y0003791105D01*
G37*
G36*
X0001757208Y0003884095D02*
G01*
X0001771186Y0003878305D01*
X0001771186Y0003878305D01*
X0001783767Y0003869899D01*
X0001794466Y0003859200D01*
X0001802872Y0003846619D01*
X0001802872Y0003846619D01*
X0001808662Y0003832641D01*
X0001811614Y0003817801D01*
X0001811614Y0003802670D01*
X0001808662Y0003787831D01*
X0001804771Y0003778439D01*
X0001802872Y0003773852D01*
X0001794466Y0003761272D01*
X0001783767Y0003750573D01*
X0001771186Y0003742167D01*
X0001771186Y0003742167D01*
X0001771186Y0003742167D01*
X0001757208Y0003736376D01*
X0001742368Y0003733425D01*
X0001727237Y0003733425D01*
X0001712398Y0003736376D01*
X0001698419Y0003742167D01*
X0001698419Y0003742167D01*
X0001698419Y0003742167D01*
X0001685838Y0003750573D01*
X0001675140Y0003761272D01*
X0001666734Y0003773852D01*
X0001664834Y0003778439D01*
X0001660943Y0003787831D01*
X0001657992Y0003802670D01*
X0001657992Y0003817801D01*
X0001660943Y0003832641D01*
X0001666734Y0003846619D01*
X0001666734Y0003846619D01*
X0001675140Y0003859200D01*
X0001685838Y0003869899D01*
X0001698419Y0003878305D01*
X0001698419Y0003878305D01*
X0001712398Y0003884095D01*
X0001727237Y0003887047D01*
X0001742368Y0003887047D01*
X0001757208Y0003884095D01*
X0001757208Y0003884095D01*
G37*
G36*
X0003020987Y0003884095D02*
G01*
X0003034966Y0003878305D01*
X0003034966Y0003878305D01*
X0003047546Y0003869899D01*
X0003058245Y0003859200D01*
X0003066651Y0003846619D01*
X0003066651Y0003846619D01*
X0003072441Y0003832641D01*
X0003075393Y0003817801D01*
X0003075393Y0003802670D01*
X0003072441Y0003787831D01*
X0003068551Y0003778439D01*
X0003066651Y0003773852D01*
X0003058245Y0003761272D01*
X0003047546Y0003750573D01*
X0003034966Y0003742167D01*
X0003034966Y0003742167D01*
X0003034966Y0003742167D01*
X0003020987Y0003736376D01*
X0003006147Y0003733425D01*
X0002991017Y0003733425D01*
X0002976177Y0003736376D01*
X0002962199Y0003742167D01*
X0002962199Y0003742167D01*
X0002962199Y0003742167D01*
X0002949618Y0003750573D01*
X0002938919Y0003761272D01*
X0002930513Y0003773852D01*
X0002928613Y0003778439D01*
X0002924723Y0003787831D01*
X0002921771Y0003802670D01*
X0002921771Y0003817801D01*
X0002924723Y0003832641D01*
X0002930513Y0003846619D01*
X0002930513Y0003846619D01*
X0002938919Y0003859200D01*
X0002949618Y0003869899D01*
X0002962199Y0003878305D01*
X0002962199Y0003878305D01*
X0002976177Y0003884095D01*
X0002991017Y0003887047D01*
X0003006147Y0003887047D01*
X0003020987Y0003884095D01*
X0003020987Y0003884095D01*
G37*
M02*