%
M48
METRIC,000.000
T10C0.80
T11C1.00
T12C2.20
T13C0.50
%
T10
X003937Y024602
X003937Y022604
X003937Y020602
X003937Y018603
X003937Y016601
X003937Y014603
X022385Y006665
X024384Y006665
X026386Y006665
X028384Y006665
X009431Y006665
X011430Y006665
X013432Y006665
X015430Y006665
X044937Y024602
X044937Y022604
X044937Y020602
X044937Y018603
X044937Y016601
X044937Y014603
X063385Y006665
X065384Y006665
X067386Y006665
X069384Y006665
X050431Y006665
X052430Y006665
X054432Y006665
X056430Y006665
X003937Y057602
X003937Y055604
X003937Y053602
X003937Y051603
X003937Y049601
X003937Y047603
X022385Y039665
X024384Y039665
X026386Y039665
X028384Y039665
X009431Y039665
X011430Y039665
X013432Y039665
X015430Y039665
X003937Y090602
X003937Y088604
X003937Y086602
X003937Y084603
X003937Y082601
X003937Y080603
X022385Y072665
X024384Y072665
X026386Y072665
X028384Y072665
X009431Y072665
X011430Y072665
X013432Y072665
X015430Y072665
X044937Y057602
X044937Y055604
X044937Y053602
X044937Y051603
X044937Y049601
X044937Y047603
X063385Y039665
X065384Y039665
X067386Y039665
X069384Y039665
X050431Y039665
X052430Y039665
X054432Y039665
X056430Y039665
X044937Y090602
X044937Y088604
X044937Y086602
X044937Y084603
X044937Y082601
X044937Y080603
X063385Y072665
X065384Y072665
X067386Y072665
X069384Y072665
X050431Y072665
X052430Y072665
X054432Y072665
X056430Y072665
T11
X035369Y019784
X035369Y017244
X011494Y029398
X011494Y026858
X011494Y024318
X011494Y021778
X011494Y019238
X026733Y029398
X026733Y026858
X026733Y024318
X026733Y021778
X076369Y019784
X076369Y017244
X052494Y029398
X052494Y026858
X052494Y024318
X052494Y021778
X052494Y019238
X067733Y029398
X067733Y026858
X067733Y024318
X067733Y021778
X035369Y052784
X035369Y050244
X011494Y062398
X011494Y059858
X011494Y057318
X011494Y054778
X011494Y052238
X026733Y062398
X026733Y059858
X026733Y057318
X026733Y054778
X035369Y085784
X035369Y083244
X011494Y095398
X011494Y092858
X011494Y090318
X011494Y087778
X011494Y085238
X026733Y095398
X026733Y092858
X026733Y090318
X026733Y087778
X076369Y052784
X076369Y050244
X052494Y062398
X052494Y059858
X052494Y057318
X052494Y054778
X052494Y052238
X067733Y062398
X067733Y059858
X067733Y057318
X067733Y054778
X076369Y085784
X076369Y083244
X052494Y095398
X052494Y092858
X052494Y090318
X052494Y087778
X052494Y085238
X067733Y095398
X067733Y092858
X067733Y090318
X067733Y087778
T12
X003063Y030780
X035164Y030780
X035164Y006299
X003063Y006299
X044063Y030780
X076164Y030780
X076164Y006299
X044063Y006299
X003063Y063780
X035164Y063780
X035164Y039299
X003063Y039299
X003063Y096780
X035164Y096780
X035164Y072299
X003063Y072299
X044063Y063780
X076164Y063780
X076164Y039299
X044063Y039299
X044063Y096780
X076164Y096780
X076164Y072299
X044063Y072299
T13
X021705Y034029
X020705Y034029
X019705Y034029
X018705Y034029
X017705Y034029
X016705Y034029
X016881Y036049
X017881Y036049
X018881Y036049
X019881Y036049
X020881Y036049
X021881Y036049
X038414Y015769
X038414Y016769
X038414Y017769
X038414Y018769
X038414Y019769
X038414Y020769
X040813Y020952
X040813Y019952
X040813Y018952
X040813Y017952
X040813Y016952
X040813Y015952
X021705Y067029
X020705Y067029
X019705Y067029
X018705Y067029
X017705Y067029
X016705Y067029
X016881Y069050
X017881Y069050
X018881Y069050
X019881Y069050
X020881Y069050
X021881Y069050
X038414Y048769
X038414Y049769
X038414Y050769
X038414Y051769
X038414Y052769
X038414Y053769
X040813Y053952
X040813Y052952
X040813Y051952
X040813Y050952
X040813Y049952
X040813Y048952
X062705Y034029
X061705Y034029
X060705Y034029
X059705Y034029
X058705Y034029
X057705Y034029
X057881Y036049
X058881Y036049
X059881Y036049
X060881Y036049
X061881Y036049
X062881Y036049
X062705Y067029
X061705Y067029
X060705Y067029
X059705Y067029
X058705Y067029
X057705Y067029
X057881Y069050
X058881Y069050
X059881Y069050
X060881Y069050
X061881Y069050
X062881Y069050
X038414Y081769
X038414Y082769
X038414Y083769
X038414Y084769
X038414Y085769
X038414Y086769
X040813Y086952
X040813Y085952
X040813Y084952
X040813Y083952
X040813Y082952
X040813Y081952
M30