%MOIN*%
%OFA0B0*%
%FSLAX36Y36*%
%IPPOS*%
%LPD*%
%ADD10C,0*%
D10*
X001502519Y002550393D02*
X001502519Y002550393D01*
X001501549Y002562711D01*
X001498665Y002574726D01*
X001493936Y002586141D01*
X001487482Y002596675D01*
X001479456Y002606071D01*
X001470061Y002614096D01*
X001459526Y002620551D01*
X001448111Y002625280D01*
X001436096Y002628164D01*
X001423778Y002629133D01*
X000868326Y002629133D01*
X000865237Y002629255D01*
X000862167Y002629618D01*
X000859135Y002630221D01*
X000856160Y002631060D01*
X000853260Y002632130D01*
X000850452Y002633424D01*
X000847755Y002634935D01*
X000845185Y002636652D01*
X000842757Y002638566D01*
X000840487Y002640665D01*
X000838389Y002642935D01*
X000836475Y002645362D01*
X000834758Y002647933D01*
X000833247Y002650630D01*
X000831953Y002653437D01*
X000830883Y002656337D01*
X000830044Y002659313D01*
X000829441Y002662345D01*
X000829077Y002665414D01*
X000828956Y002668503D01*
X000828956Y002688976D01*
X000829077Y002692065D01*
X000829441Y002695135D01*
X000830044Y002698167D01*
X000830883Y002701142D01*
X000831953Y002704042D01*
X000833247Y002706850D01*
X000834758Y002709547D01*
X000836475Y002712117D01*
X000838389Y002714545D01*
X000840487Y002716815D01*
X000842757Y002718913D01*
X000845185Y002720827D01*
X000847755Y002722545D01*
X000850452Y002724055D01*
X000853260Y002725349D01*
X000856160Y002726419D01*
X000859135Y002727258D01*
X000862167Y002727861D01*
X000865237Y002728225D01*
X000868326Y002728346D01*
X001423778Y002728346D01*
X001436096Y002729316D01*
X001448111Y002732200D01*
X001459526Y002736928D01*
X001470061Y002743384D01*
X001479456Y002751408D01*
X001487482Y002760804D01*
X001493936Y002771339D01*
X001498665Y002782754D01*
X001501549Y002794769D01*
X001502519Y002807086D01*
X001502519Y003216038D01*
X001502641Y003219127D01*
X001503004Y003222196D01*
X001503607Y003225228D01*
X001504446Y003228204D01*
X001505516Y003231104D01*
X001506810Y003233911D01*
X001508321Y003236608D01*
X001510038Y003239179D01*
X001511952Y003241606D01*
X001514050Y003243876D01*
X001516321Y003245975D01*
X001518748Y003247889D01*
X001521319Y003249606D01*
X001524016Y003251117D01*
X001526823Y003252411D01*
X001529723Y003253481D01*
X001532699Y003254320D01*
X001535730Y003254923D01*
X001538800Y003255286D01*
X001541889Y003255408D01*
X001577322Y003255408D01*
X001580411Y003255286D01*
X001583481Y003254923D01*
X001586513Y003254320D01*
X001589488Y003253481D01*
X001592388Y003252411D01*
X001595196Y003251117D01*
X001597893Y003249606D01*
X001600463Y003247889D01*
X001602891Y003245975D01*
X001605161Y003243876D01*
X001607259Y003241606D01*
X001609173Y003239179D01*
X001610891Y003236608D01*
X001612401Y003233911D01*
X001613695Y003231104D01*
X001614765Y003228204D01*
X001615604Y003225228D01*
X001616208Y003222196D01*
X001616571Y003219127D01*
X001616692Y003216038D01*
X001616692Y002807086D01*
X001617662Y002794769D01*
X001620546Y002782754D01*
X001625274Y002771339D01*
X001631730Y002760804D01*
X001639755Y002751408D01*
X001649150Y002743384D01*
X001659685Y002736928D01*
X001671100Y002732200D01*
X001683115Y002729316D01*
X001695432Y002728346D01*
X002250886Y002728346D01*
X002253974Y002728225D01*
X002257044Y002727861D01*
X002260076Y002727258D01*
X002263052Y002726419D01*
X002265952Y002725349D01*
X002268759Y002724055D01*
X002271456Y002722545D01*
X002274027Y002720827D01*
X002276454Y002718913D01*
X002278724Y002716815D01*
X002280823Y002714545D01*
X002282737Y002712117D01*
X002284454Y002709547D01*
X002285965Y002706850D01*
X002287259Y002704042D01*
X002288329Y002701142D01*
X002289168Y002698167D01*
X002289771Y002695135D01*
X002290134Y002692065D01*
X002290256Y002688976D01*
X002290256Y002668503D01*
X002290134Y002665414D01*
X002289771Y002662345D01*
X002289168Y002659313D01*
X002288329Y002656337D01*
X002287259Y002653437D01*
X002285965Y002650630D01*
X002284454Y002647933D01*
X002282737Y002645362D01*
X002280823Y002642935D01*
X002278724Y002640665D01*
X002276454Y002638566D01*
X002274027Y002636652D01*
X002271456Y002634935D01*
X002268759Y002633424D01*
X002265952Y002632130D01*
X002263052Y002631060D01*
X002260076Y002630221D01*
X002257044Y002629618D01*
X002253974Y002629255D01*
X002250886Y002629133D01*
X001695432Y002629133D01*
X001683115Y002628164D01*
X001671100Y002625280D01*
X001659685Y002620551D01*
X001649150Y002614096D01*
X001639755Y002606071D01*
X001631730Y002596675D01*
X001625274Y002586140D01*
X001620546Y002574726D01*
X001617662Y002562711D01*
X001616692Y002550393D01*
X001616692Y002141442D01*
X001616571Y002138353D01*
X001616208Y002135283D01*
X001615604Y002132251D01*
X001614765Y002129276D01*
X001613695Y002126375D01*
X001612401Y002123568D01*
X001610891Y002120871D01*
X001609173Y002118301D01*
X001607259Y002115873D01*
X001605161Y002113603D01*
X001602891Y002111504D01*
X001600463Y002109591D01*
X001597893Y002107873D01*
X001595196Y002106363D01*
X001592388Y002105069D01*
X001589488Y002103999D01*
X001586513Y002103159D01*
X001583481Y002102556D01*
X001580411Y002102193D01*
X001577322Y002102072D01*
X001541889Y002102072D01*
X001538800Y002102193D01*
X001535730Y002102556D01*
X001532699Y002103159D01*
X001529723Y002103999D01*
X001526823Y002105069D01*
X001524016Y002106363D01*
X001521319Y002107873D01*
X001518748Y002109591D01*
X001516321Y002111504D01*
X001514050Y002113603D01*
X001511952Y002115873D01*
X001510038Y002118301D01*
X001508321Y002120871D01*
X001506810Y002123568D01*
X001505516Y002126375D01*
X001504446Y002129276D01*
X001503607Y002132251D01*
X001503004Y002135283D01*
X001502641Y002138353D01*
X001502519Y002141442D01*
X001502519Y002550393D01*
X001502519Y001251181D02*
X001502519Y001251181D01*
X001501549Y001263498D01*
X001498665Y001275513D01*
X001493936Y001286928D01*
X001487482Y001297463D01*
X001479456Y001306859D01*
X001470061Y001314883D01*
X001459526Y001321339D01*
X001448111Y001326067D01*
X001436096Y001328951D01*
X001423778Y001329921D01*
X000868326Y001329921D01*
X000865237Y001330042D01*
X000862167Y001330405D01*
X000859135Y001331009D01*
X000856160Y001331848D01*
X000853260Y001332918D01*
X000850452Y001334212D01*
X000847755Y001335722D01*
X000845185Y001337440D01*
X000842757Y001339354D01*
X000840487Y001341452D01*
X000838389Y001343722D01*
X000836475Y001346150D01*
X000834758Y001348720D01*
X000833247Y001351417D01*
X000831953Y001354225D01*
X000830883Y001357125D01*
X000830044Y001360100D01*
X000829441Y001363132D01*
X000829077Y001366202D01*
X000828956Y001369291D01*
X000828956Y001389763D01*
X000829077Y001392852D01*
X000829441Y001395922D01*
X000830044Y001398954D01*
X000830883Y001401929D01*
X000831953Y001404830D01*
X000833247Y001407637D01*
X000834758Y001410334D01*
X000836475Y001412905D01*
X000838389Y001415332D01*
X000840487Y001417602D01*
X000842757Y001419701D01*
X000845185Y001421614D01*
X000847755Y001423332D01*
X000850452Y001424842D01*
X000853260Y001426137D01*
X000856160Y001427207D01*
X000859135Y001428046D01*
X000862167Y001428649D01*
X000865237Y001429012D01*
X000868326Y001429133D01*
X001423778Y001429133D01*
X001436096Y001430103D01*
X001448111Y001432987D01*
X001459526Y001437716D01*
X001470061Y001444172D01*
X001479456Y001452196D01*
X001487482Y001461591D01*
X001493936Y001472127D01*
X001498665Y001483542D01*
X001501549Y001495556D01*
X001502519Y001507874D01*
X001502519Y001916825D01*
X001502641Y001919914D01*
X001503004Y001922984D01*
X001503607Y001926016D01*
X001504446Y001928991D01*
X001505516Y001931891D01*
X001506810Y001934699D01*
X001508321Y001937396D01*
X001510038Y001939966D01*
X001511952Y001942394D01*
X001514050Y001944664D01*
X001516321Y001946762D01*
X001518748Y001948676D01*
X001521319Y001950394D01*
X001524016Y001951904D01*
X001526823Y001953198D01*
X001529723Y001954268D01*
X001532699Y001955107D01*
X001535730Y001955710D01*
X001538800Y001956074D01*
X001541889Y001956195D01*
X001577322Y001956195D01*
X001580411Y001956074D01*
X001583481Y001955710D01*
X001586513Y001955107D01*
X001589488Y001954268D01*
X001592388Y001953198D01*
X001595196Y001951904D01*
X001597893Y001950394D01*
X001600463Y001948676D01*
X001602891Y001946762D01*
X001605161Y001944664D01*
X001607259Y001942394D01*
X001609173Y001939966D01*
X001610891Y001937396D01*
X001612401Y001934699D01*
X001613695Y001931891D01*
X001614765Y001928991D01*
X001615604Y001926016D01*
X001616208Y001922984D01*
X001616571Y001919914D01*
X001616692Y001916825D01*
X001616692Y001507874D01*
X001617662Y001495556D01*
X001620546Y001483542D01*
X001625274Y001472127D01*
X001631730Y001461591D01*
X001639755Y001452196D01*
X001649150Y001444172D01*
X001659685Y001437716D01*
X001671100Y001432987D01*
X001683115Y001430103D01*
X001695432Y001429133D01*
X002250886Y001429133D01*
X002253974Y001429012D01*
X002257044Y001428649D01*
X002260076Y001428046D01*
X002263052Y001427207D01*
X002265952Y001426137D01*
X002268759Y001424842D01*
X002271456Y001423332D01*
X002274027Y001421614D01*
X002276454Y001419701D01*
X002278724Y001417602D01*
X002280823Y001415332D01*
X002282737Y001412905D01*
X002284454Y001410334D01*
X002285965Y001407637D01*
X002287259Y001404830D01*
X002288329Y001401929D01*
X002289168Y001398954D01*
X002289771Y001395922D01*
X002290134Y001392852D01*
X002290256Y001389763D01*
X002290256Y001369291D01*
X002290134Y001366202D01*
X002289771Y001363132D01*
X002289168Y001360100D01*
X002288329Y001357125D01*
X002287259Y001354225D01*
X002285965Y001351417D01*
X002284454Y001348720D01*
X002282737Y001346150D01*
X002280823Y001343722D01*
X002278724Y001341452D01*
X002276454Y001339354D01*
X002274027Y001337440D01*
X002271456Y001335722D01*
X002268759Y001334212D01*
X002265952Y001332918D01*
X002263052Y001331848D01*
X002260076Y001331009D01*
X002257044Y001330405D01*
X002253974Y001330042D01*
X002250886Y001329921D01*
X001695432Y001329921D01*
X001683115Y001328951D01*
X001671100Y001326067D01*
X001659685Y001321339D01*
X001649150Y001314883D01*
X001639755Y001306859D01*
X001631730Y001297463D01*
X001625274Y001286928D01*
X001620546Y001275513D01*
X001617662Y001263498D01*
X001616692Y001251181D01*
X001616692Y000842229D01*
X001616571Y000839140D01*
X001616208Y000836070D01*
X001615604Y000833038D01*
X001614765Y000830063D01*
X001613695Y000827163D01*
X001612401Y000824355D01*
X001610891Y000821658D01*
X001609173Y000819088D01*
X001607259Y000816660D01*
X001605161Y000814390D01*
X001602891Y000812292D01*
X001600463Y000810378D01*
X001597893Y000808661D01*
X001595196Y000807150D01*
X001592388Y000805856D01*
X001589488Y000804786D01*
X001586513Y000803947D01*
X001583481Y000803344D01*
X001580411Y000802980D01*
X001577322Y000802859D01*
X001541889Y000802859D01*
X001538800Y000802980D01*
X001535730Y000803344D01*
X001532699Y000803947D01*
X001529723Y000804786D01*
X001526823Y000805856D01*
X001524016Y000807150D01*
X001521319Y000808661D01*
X001518748Y000810378D01*
X001516321Y000812292D01*
X001514050Y000814390D01*
X001511952Y000816660D01*
X001510038Y000819088D01*
X001508321Y000821658D01*
X001506810Y000824355D01*
X001505516Y000827163D01*
X001504446Y000830063D01*
X001503607Y000833038D01*
X001503004Y000836070D01*
X001502641Y000839140D01*
X001502519Y000842229D01*
X001502519Y001251181D01*
X000081259Y000129921D02*
X000081259Y000129921D01*
X001423778Y000129921D01*
X001436096Y000130890D01*
X001448111Y000133775D01*
X001459526Y000138503D01*
X001470061Y000144959D01*
X001479456Y000152983D01*
X001487482Y000162379D01*
X001493936Y000172914D01*
X001498665Y000184329D01*
X001501549Y000196343D01*
X001502519Y000208661D01*
X001502519Y000617612D01*
X001502641Y000620701D01*
X001503004Y000623771D01*
X001503607Y000626803D01*
X001504446Y000629778D01*
X001505516Y000632679D01*
X001506810Y000635486D01*
X001508321Y000638183D01*
X001510038Y000640754D01*
X001511952Y000643181D01*
X001514050Y000645451D01*
X001516321Y000647550D01*
X001518748Y000649463D01*
X001521319Y000651181D01*
X001524016Y000652691D01*
X001526823Y000653986D01*
X001529723Y000655056D01*
X001532699Y000655895D01*
X001535730Y000656498D01*
X001538800Y000656861D01*
X001541889Y000656982D01*
X001577322Y000656982D01*
X001580411Y000656861D01*
X001583481Y000656498D01*
X001586513Y000655895D01*
X001589488Y000655056D01*
X001592388Y000653986D01*
X001595196Y000652691D01*
X001597893Y000651181D01*
X001600463Y000649463D01*
X001602891Y000647550D01*
X001605161Y000645451D01*
X001607259Y000643181D01*
X001609173Y000640754D01*
X001610891Y000638183D01*
X001612401Y000635486D01*
X001613695Y000632679D01*
X001614765Y000629778D01*
X001615604Y000626803D01*
X001616208Y000623771D01*
X001616571Y000620701D01*
X001616692Y000617612D01*
X001616692Y000208661D01*
X001617662Y000196343D01*
X001620546Y000184329D01*
X001625274Y000172914D01*
X001631730Y000162379D01*
X001639755Y000152983D01*
X001649150Y000144959D01*
X001659685Y000138503D01*
X001671100Y000133775D01*
X001683115Y000130890D01*
X001695432Y000129921D01*
X003037952Y000129921D01*
X003050269Y000130890D01*
X003062285Y000133775D01*
X003073699Y000138503D01*
X003084234Y000144959D01*
X003093629Y000152983D01*
X003101655Y000162379D01*
X003108110Y000172914D01*
X003112839Y000184329D01*
X003115722Y000196343D01*
X003116692Y000208661D01*
X003116692Y001251181D01*
X003115722Y001263498D01*
X003112839Y001275513D01*
X003108110Y001286928D01*
X003101655Y001297463D01*
X003093629Y001306859D01*
X003084234Y001314883D01*
X003073699Y001321339D01*
X003062285Y001326067D01*
X003050269Y001328951D01*
X003037952Y001329921D01*
X002482499Y001329921D01*
X002479410Y001330042D01*
X002476340Y001330405D01*
X002473309Y001331009D01*
X002470333Y001331848D01*
X002467433Y001332918D01*
X002464626Y001334212D01*
X002461929Y001335722D01*
X002459358Y001337440D01*
X002456930Y001339354D01*
X002454660Y001341452D01*
X002452562Y001343722D01*
X002450648Y001346150D01*
X002448931Y001348720D01*
X002447420Y001351417D01*
X002446126Y001354225D01*
X002445056Y001357125D01*
X002444217Y001360100D01*
X002443614Y001363132D01*
X002443251Y001366202D01*
X002443129Y001369291D01*
X002443129Y001389763D01*
X002443251Y001392852D01*
X002443614Y001395922D01*
X002444217Y001398954D01*
X002445056Y001401929D01*
X002446126Y001404830D01*
X002447420Y001407637D01*
X002448931Y001410334D01*
X002450648Y001412905D01*
X002452562Y001415332D01*
X002454660Y001417602D01*
X002456930Y001419701D01*
X002459358Y001421614D01*
X002461929Y001423332D01*
X002464626Y001424842D01*
X002467433Y001426137D01*
X002470333Y001427207D01*
X002473309Y001428046D01*
X002476340Y001428649D01*
X002479410Y001429012D01*
X002482499Y001429133D01*
X003037952Y001429133D01*
X003050269Y001430103D01*
X003062285Y001432987D01*
X003073699Y001437716D01*
X003084234Y001444172D01*
X003093629Y001452196D01*
X003101655Y001461591D01*
X003108110Y001472127D01*
X003112839Y001483542D01*
X003115722Y001495556D01*
X003116692Y001507874D01*
X003116692Y002550393D01*
X003115722Y002562711D01*
X003112839Y002574726D01*
X003108110Y002586141D01*
X003101655Y002596675D01*
X003093629Y002606071D01*
X003084234Y002614096D01*
X003073699Y002620551D01*
X003062285Y002625280D01*
X003050269Y002628164D01*
X003037952Y002629133D01*
X002482499Y002629133D01*
X002479410Y002629255D01*
X002476340Y002629618D01*
X002473309Y002630221D01*
X002470333Y002631060D01*
X002467433Y002632130D01*
X002464626Y002633424D01*
X002461929Y002634935D01*
X002459358Y002636652D01*
X002456930Y002638566D01*
X002454660Y002640665D01*
X002452562Y002642935D01*
X002450648Y002645362D01*
X002448931Y002647933D01*
X002447420Y002650630D01*
X002446126Y002653437D01*
X002445056Y002656337D01*
X002444217Y002659313D01*
X002443614Y002662345D01*
X002443251Y002665414D01*
X002443129Y002668503D01*
X002443129Y002688976D01*
X002443251Y002692065D01*
X002443614Y002695135D01*
X002444217Y002698167D01*
X002445056Y002701142D01*
X002446126Y002704042D01*
X002447420Y002706850D01*
X002448931Y002709547D01*
X002450648Y002712117D01*
X002452562Y002714545D01*
X002454660Y002716815D01*
X002456930Y002718913D01*
X002459358Y002720827D01*
X002461929Y002722545D01*
X002464626Y002724055D01*
X002467433Y002725349D01*
X002470333Y002726419D01*
X002473309Y002727258D01*
X002476340Y002727861D01*
X002479410Y002728225D01*
X002482499Y002728346D01*
X003037952Y002728346D01*
X003050269Y002729316D01*
X003062285Y002732200D01*
X003073699Y002736928D01*
X003084234Y002743384D01*
X003093629Y002751408D01*
X003101655Y002760804D01*
X003108110Y002771339D01*
X003112839Y002782754D01*
X003115722Y002794769D01*
X003116692Y002807086D01*
X003116692Y003849606D01*
X003115722Y003861924D01*
X003112839Y003873938D01*
X003108110Y003885353D01*
X003101655Y003895888D01*
X003093629Y003905284D01*
X003084234Y003913308D01*
X003073699Y003919764D01*
X003062285Y003924492D01*
X003050269Y003927377D01*
X003037952Y003928346D01*
X001695432Y003928346D01*
X001683115Y003927377D01*
X001671100Y003924492D01*
X001659685Y003919764D01*
X001649150Y003913308D01*
X001639755Y003905284D01*
X001631730Y003895888D01*
X001625274Y003885353D01*
X001620546Y003873938D01*
X001617662Y003861924D01*
X001616692Y003849606D01*
X001616692Y003440654D01*
X001616571Y003437565D01*
X001616208Y003434495D01*
X001615604Y003431464D01*
X001614765Y003428488D01*
X001613695Y003425588D01*
X001612401Y003422781D01*
X001610891Y003420083D01*
X001609173Y003417513D01*
X001607259Y003415085D01*
X001605161Y003412815D01*
X001602891Y003410717D01*
X001600463Y003408803D01*
X001597893Y003407086D01*
X001595196Y003405575D01*
X001592388Y003404281D01*
X001589488Y003403211D01*
X001586513Y003402372D01*
X001583481Y003401769D01*
X001580411Y003401406D01*
X001577322Y003401284D01*
X001541889Y003401284D01*
X001538800Y003401406D01*
X001535730Y003401769D01*
X001532699Y003402372D01*
X001529723Y003403211D01*
X001526823Y003404281D01*
X001524016Y003405575D01*
X001521319Y003407086D01*
X001518748Y003408803D01*
X001516321Y003410717D01*
X001514050Y003412815D01*
X001511952Y003415085D01*
X001510038Y003417513D01*
X001508321Y003420083D01*
X001506810Y003422781D01*
X001505516Y003425588D01*
X001504446Y003428488D01*
X001503607Y003431464D01*
X001503004Y003434495D01*
X001502641Y003437565D01*
X001502519Y003440654D01*
X001502519Y003849606D01*
X001501549Y003861924D01*
X001498665Y003873938D01*
X001493936Y003885353D01*
X001487482Y003895888D01*
X001479456Y003905284D01*
X001470061Y003913308D01*
X001459526Y003919764D01*
X001448111Y003924492D01*
X001436096Y003927377D01*
X001423778Y003928346D01*
X000081259Y003928346D01*
X000068942Y003927377D01*
X000056927Y003924492D01*
X000045512Y003919764D01*
X000034976Y003913308D01*
X000025581Y003905284D01*
X000017557Y003895888D01*
X000011101Y003885353D01*
X000006373Y003873938D01*
X000003489Y003861924D01*
X000002519Y003849606D01*
X000002519Y002807086D01*
X000003489Y002794769D01*
X000006373Y002782754D01*
X000011101Y002771339D01*
X000017557Y002760804D01*
X000025581Y002751408D01*
X000034976Y002743384D01*
X000045512Y002736928D01*
X000056927Y002732200D01*
X000068942Y002729316D01*
X000081259Y002728346D01*
X000636712Y002728346D01*
X000639801Y002728225D01*
X000642871Y002727861D01*
X000645903Y002727258D01*
X000648878Y002726419D01*
X000651779Y002725349D01*
X000654586Y002724055D01*
X000657283Y002722545D01*
X000659853Y002720827D01*
X000662281Y002718913D01*
X000664551Y002716815D01*
X000666650Y002714545D01*
X000668563Y002712117D01*
X000670281Y002709547D01*
X000671791Y002706850D01*
X000673085Y002704042D01*
X000674155Y002701142D01*
X000674995Y002698167D01*
X000675598Y002695135D01*
X000675961Y002692065D01*
X000676082Y002688976D01*
X000676082Y002668503D01*
X000675961Y002665414D01*
X000675598Y002662345D01*
X000674995Y002659313D01*
X000674155Y002656337D01*
X000673085Y002653437D01*
X000671791Y002650630D01*
X000670281Y002647933D01*
X000668563Y002645362D01*
X000666650Y002642935D01*
X000664551Y002640665D01*
X000662281Y002638566D01*
X000659853Y002636652D01*
X000657283Y002634935D01*
X000654586Y002633424D01*
X000651779Y002632130D01*
X000648878Y002631060D01*
X000645903Y002630221D01*
X000642871Y002629618D01*
X000639801Y002629255D01*
X000636712Y002629133D01*
X000081259Y002629133D01*
X000068942Y002628164D01*
X000056927Y002625280D01*
X000045512Y002620551D01*
X000034976Y002614096D01*
X000025581Y002606071D01*
X000017557Y002596675D01*
X000011101Y002586140D01*
X000006373Y002574726D01*
X000003489Y002562711D01*
X000002519Y002550393D01*
X000002519Y001507874D01*
X000003489Y001495556D01*
X000006373Y001483542D01*
X000011101Y001472127D01*
X000017557Y001461591D01*
X000025581Y001452196D01*
X000034976Y001444172D01*
X000045512Y001437716D01*
X000056927Y001432987D01*
X000068942Y001430103D01*
X000081259Y001429133D01*
X000636712Y001429133D01*
X000639801Y001429012D01*
X000642871Y001428649D01*
X000645903Y001428046D01*
X000648878Y001427207D01*
X000651779Y001426137D01*
X000654586Y001424842D01*
X000657283Y001423332D01*
X000659853Y001421614D01*
X000662281Y001419701D01*
X000664551Y001417602D01*
X000666650Y001415332D01*
X000668563Y001412905D01*
X000670281Y001410334D01*
X000671791Y001407637D01*
X000673085Y001404830D01*
X000674155Y001401929D01*
X000674995Y001398954D01*
X000675598Y001395922D01*
X000675961Y001392852D01*
X000676082Y001389763D01*
X000676082Y001369291D01*
X000675961Y001366202D01*
X000675598Y001363132D01*
X000674995Y001360100D01*
X000674155Y001357125D01*
X000673085Y001354225D01*
X000671791Y001351417D01*
X000670281Y001348720D01*
X000668563Y001346150D01*
X000666650Y001343722D01*
X000664551Y001341452D01*
X000662281Y001339354D01*
X000659853Y001337440D01*
X000657283Y001335722D01*
X000654586Y001334212D01*
X000651779Y001332918D01*
X000648878Y001331848D01*
X000645903Y001331009D01*
X000642871Y001330405D01*
X000639801Y001330042D01*
X000636712Y001329921D01*
X000081259Y001329921D01*
X000068942Y001328951D01*
X000056927Y001326067D01*
X000045512Y001321339D01*
X000034976Y001314883D01*
X000025581Y001306859D01*
X000017557Y001297463D01*
X000011101Y001286928D01*
X000006373Y001275513D01*
X000003489Y001263498D01*
X000002519Y001251181D01*
X000002519Y000208661D01*
X000003489Y000196343D01*
X000006373Y000184329D01*
X000011101Y000172914D01*
X000017557Y000162379D01*
X000025581Y000152983D01*
X000034976Y000144959D01*
X000045512Y000138503D01*
X000056927Y000133775D01*
X000068942Y000130890D01*
X000081259Y000129921D01*
M02*